<svg xmlns="http://www.w3.org/2000/svg" width="393" height="852" fill="none" viewBox="0 0 393 852">
  <g clip-path="url(#a)">
    <rect width="393" height="852" fill="#f7fafd" rx="16"/>
    <path fill="#1b1b1b" d="m57.045 606 3.48-13.66h4.82l3.46 13.66h-2.76l-.76-2.76h-4.78l-.72 2.76zm3.9-4.98h3.94l-1.54-6.44h-.84zm9.206 9.2v-14.26h2.64l.02.64q.28-.18.7-.38.44-.2.94-.34t.98-.14q1.34 0 2.16.58.84.56 1.22 1.72.4 1.14.4 2.9 0 1.88-.44 3.04t-1.42 1.7q-.96.54-2.54.54-.501 0-1.08-.08a10 10 0 0 1-.92-.16v4.24zm4.24-6.22q.8 0 1.26-.34t.64-1.02q.2-.7.2-1.76 0-1.64-.46-2.26-.44-.64-1.28-.64-.32 0-.68.08t-.7.2-.56.24v5.36q.24.02.68.08.459.06.9.06m10.959 2.22q-1.7 0-2.74-.56-1.02-.56-1.48-1.72-.46-1.18-.46-3.04 0-1.8.48-2.92.48-1.14 1.52-1.68 1.04-.56 2.68-.56 1.66 0 2.68.56 1.04.54 1.52 1.68.5 1.12.5 2.92 0 1.86-.46 3.04-.46 1.16-1.5 1.72-1.02.56-2.74.56m0-2.2q.84 0 1.26-.3.42-.32.56-1 .16-.7.16-1.82 0-1.1-.18-1.74-.18-.66-.6-.94t-1.2-.28q-.76 0-1.2.28-.42.28-.6.94-.18.64-.18 1.74 0 1.12.14 1.82.16.68.58 1 .42.3 1.26.3m6.52 1.98v-10.04h2.66V606zm0-11.64v-2.28h2.68v2.28zm9.202 11.86q-1.7 0-2.74-.56-1.02-.56-1.48-1.72-.46-1.18-.46-3.04 0-1.8.48-2.92.48-1.14 1.52-1.68 1.04-.56 2.68-.56 1.66 0 2.68.56 1.04.54 1.52 1.68.5 1.12.5 2.92 0 1.86-.46 3.04-.459 1.16-1.5 1.72-1.02.56-2.74.56m0-2.2q.84 0 1.26-.3.42-.32.56-1 .16-.7.16-1.82 0-1.1-.18-1.74-.18-.66-.6-.94t-1.2-.28q-.759 0-1.2.28-.42.28-.6.94-.18.64-.18 1.74 0 1.12.14 1.82.16.68.58 1 .42.3 1.26.3m14.936 2.2q-1.66 0-2.64-.56-.96-.56-1.38-1.7t-.42-2.86q0-1.86.52-3.04.54-1.18 1.56-1.74 1.02-.58 2.52-.58 2.22 0 3.34 1.12 1.14 1.12 1.14 3.54l-.12 1.48h-6.28q.02 1.12.46 1.68t1.52.56q.62 0 1.36-.02l1.46-.08q.74-.04 1.26-.08l.06 1.86a51 51 0 0 1-1.26.18 27 27 0 0 1-1.58.16q-.8.08-1.52.08m-1.76-6.04h3.74q0-1.36-.44-1.9-.42-.54-1.38-.54-.64 0-1.06.24t-.64.78-.22 1.42m8.168 5.82v-10.04h2.66v.64q.3-.2.76-.38.46-.2.96-.34a3.9 3.9 0 0 1 1-.14q.921 0 1.5.26.58.24.96.72.36-.22.9-.44t1.18-.38 1.24-.16q1.101 0 1.8.3.72.28 1.12.9.4.6.56 1.56.16.94.16 2.28V606h-2.66v-4.98q0-1.04-.12-1.68-.1-.66-.44-.96-.32-.3-.98-.3-.36 0-.76.08a4 4 0 0 0-1.26.4q.1.42.14 1.08.06.66.06 1.38V606h-2.66v-4.94q0-1.06-.12-1.72-.1-.66-.44-.96t-.98-.3q-.36 0-.74.08-.36.06-.68.18-.3.12-.5.22V606zm21.234.22q-1.7 0-2.74-.56-1.02-.56-1.48-1.72-.46-1.18-.46-3.04 0-1.8.48-2.92.48-1.14 1.52-1.68 1.04-.56 2.68-.56 1.66 0 2.68.56 1.04.54 1.52 1.68.5 1.12.5 2.92 0 1.86-.46 3.04-.459 1.16-1.5 1.72-1.02.56-2.74.56m0-2.2q.84 0 1.26-.3.42-.32.56-1 .16-.7.16-1.82 0-1.1-.18-1.74-.18-.66-.6-.94t-1.2-.28q-.759 0-1.2.28-.42.28-.6.94-.18.64-.18 1.74 0 1.12.14 1.82.16.68.58 1 .42.3 1.26.3m10.62 2.2q-1.719 0-2.7-.52-.96-.54-1.36-1.72-.38-1.18-.38-3.1 0-1.9.44-3.02.44-1.14 1.42-1.62 1-.5 2.6-.5.42 0 .98.06t1.12.16q.58.08.98.16l-.1 2.14q-.38-.04-.86-.06a23 23 0 0 0-.94-.06 8 8 0 0 0-.72-.04q-.86 0-1.36.28-.48.26-.68.88-.18.6-.18 1.62 0 1.1.18 1.76t.64.94q.48.28 1.4.28.28 0 .74-.02l.94-.08q.5-.04.88-.06l.08 2.14q-.399.08-.96.16-.56.1-1.14.16-.56.06-1.02.06m4.846-.22v-10.04h2.66V606zm0-11.64v-2.28h2.68v2.28zm9.202 11.86q-1.7 0-2.74-.56-1.02-.56-1.48-1.72-.46-1.18-.46-3.04 0-1.8.48-2.92.48-1.14 1.52-1.68 1.04-.56 2.68-.56 1.66 0 2.68.56 1.04.54 1.52 1.68.5 1.12.5 2.92 0 1.86-.46 3.04-.459 1.16-1.5 1.72-1.02.56-2.74.56m0-2.2q.84 0 1.26-.3.42-.32.56-1 .16-.7.16-1.82 0-1.1-.18-1.74-.18-.66-.6-.94t-1.2-.28q-.759 0-1.2.28-.42.28-.6.94-.18.64-.18 1.74 0 1.12.14 1.82.16.68.58 1 .42.3 1.26.3m6.52 1.98v-10.04h2.66v.64q.321-.2.78-.38.46-.2.96-.34a3.9 3.9 0 0 1 1-.14q1.04 0 1.72.28.7.26 1.1.86t.58 1.58q.18.96.18 2.34v5.2h-2.68v-5.06q0-1.04-.12-1.66-.12-.64-.46-.92t-1-.28q-.36 0-.76.08-.38.06-.74.18a4 4 0 0 0-.56.24V606zm13.675.22q-1.56 0-2.36-.78-.78-.8-.78-2.4 0-1.12.4-1.74.4-.64 1.18-.92.8-.3 1.94-.36l2.44-.22v-.6q0-.72-.36-1-.36-.3-1.06-.3-.56 0-1.3.04-.72.04-1.44.1-.7.06-1.22.12l-.08-1.88q.52-.12 1.24-.24a18 18 0 0 1 1.54-.22q.8-.08 1.48-.08 1.28 0 2.14.32t1.3 1.06q.44.72.44 1.96v4.58a.6.6 0 0 0 .3.44q.26.14.6.2l-.06 1.84h-.64q-.3.02-.58 0-.28 0-.5-.04a2.4 2.4 0 0 1-.8-.24 2.4 2.4 0 0 1-.52-.38q-.32.14-.86.32t-1.18.3a6.6 6.6 0 0 1-1.26.12m.64-1.98q.38 0 .8-.08t.78-.18q.38-.12.6-.22v-2.3l-2.04.18q-.66.06-.96.4-.28.32-.28.92t.26.94q.28.34.84.34m7.289 1.76v-14.14h2.66V606zm13.355.22q-1.66 0-2.64-.56-.96-.56-1.38-1.7t-.42-2.86q0-1.86.52-3.04.54-1.18 1.56-1.74 1.02-.58 2.52-.58 2.22 0 3.34 1.12 1.14 1.12 1.14 3.54l-.12 1.48h-6.28q.02 1.12.46 1.68t1.52.56q.62 0 1.36-.02l1.46-.08q.74-.04 1.26-.08l.06 1.86a51 51 0 0 1-1.26.18 27 27 0 0 1-1.58.16q-.8.08-1.52.08m-1.76-6.04h3.74q0-1.36-.44-1.9-.42-.54-1.38-.54-.64 0-1.06.24t-.64.78-.22 1.42m16.144 6.04q-.66 0-1.42-.08-.74-.06-1.4-.16a19 19 0 0 1-1.1-.2l.08-1.98q.52.06 1.16.14.66.08 1.28.14.64.04 1.04.04.6 0 .98-.1.4-.1.6-.32.2-.24.2-.68 0-.34-.18-.52-.16-.18-.64-.3-.46-.14-1.36-.28-1.12-.16-1.86-.46-.72-.3-1.06-.88-.34-.6-.34-1.62 0-1.24.54-1.94t1.44-.98q.9-.3 1.96-.3.7 0 1.44.08.74.06 1.4.16t1.1.2l-.08 2.02q-.5-.08-1.16-.14a23 23 0 0 0-2.4-.16q-.46 0-.82.1-.36.08-.56.28-.18.2-.18.6 0 .28.16.46t.6.32q.46.12 1.32.24 1.24.18 1.98.5t1.06.92q.34.6.34 1.62 0 1.2-.48 1.92t-1.4 1.04-2.24.32m8.492 0q-1.56 0-2.36-.78-.78-.8-.78-2.4 0-1.12.4-1.74.4-.64 1.18-.92.8-.3 1.94-.36l2.44-.22v-.6q0-.72-.36-1-.36-.3-1.06-.3-.56 0-1.3.04-.72.04-1.44.1-.7.06-1.22.12l-.08-1.88q.52-.12 1.24-.24a18 18 0 0 1 1.54-.22q.8-.08 1.48-.08 1.28 0 2.14.32t1.3 1.06q.44.72.44 1.96v4.58a.6.6 0 0 0 .3.44q.26.14.6.2l-.06 1.84h-.64q-.3.02-.58 0-.28 0-.5-.04a2.4 2.4 0 0 1-.8-.24 2.4 2.4 0 0 1-.52-.38q-.32.14-.86.32t-1.18.3a6.6 6.6 0 0 1-1.26.12m.64-1.98q.38 0 .8-.08t.78-.18q.38-.12.6-.22v-2.3l-2.04.18q-.66.06-.96.4-.28.32-.28.92t.26.94q.28.34.84.34m10.409 1.98q-1.3 0-2.02-.54-.7-.56-1-1.68-.28-1.12-.28-2.82v-5.22h2.66v5.1q0 1.06.1 1.68.12.62.46.88t.98.26q.62 0 1.16-.16t.86-.32v-7.44h2.66V606h-2.64v-.62q-.68.38-1.36.62-.66.22-1.58.22m-.02-11.76-1.16-1.5 3.9-1.98 1.52 2.02zm11.176 11.76q-.72 0-1.32-.18-.6-.16-1.06-.52a3.4 3.4 0 0 1-.76-.98q-.3-.6-.46-1.46a11.6 11.6 0 0 1-.16-2.04q0-1.72.42-2.9.441-1.18 1.38-1.78.94-.62 2.5-.62.3 0 .7.04.4.02.78.08.38.04.62.08v-4.08h2.68V606h-2.64l-.02-.58a8 8 0 0 1-.74.36q-.44.18-.94.3-.5.14-.98.14m.68-2.24q.36 0 .72-.08a7 7 0 0 0 .7-.18q.34-.12.54-.22v-5.38a3 3 0 0 0-.48-.06 9 9 0 0 0-.62-.06 5 5 0 0 0-.58-.04q-.78 0-1.22.36-.42.36-.6 1.06-.18.68-.18 1.66 0 .86.12 1.44.12.56.34.9.24.32.56.46t.7.14m10.899 2.24q-1.66 0-2.64-.56-.96-.56-1.38-1.7t-.42-2.86q0-1.86.52-3.04.54-1.18 1.56-1.74 1.02-.58 2.52-.58 2.22 0 3.34 1.12 1.14 1.12 1.14 3.54l-.12 1.48h-6.28q.02 1.12.46 1.68t1.52.56q.62 0 1.36-.02l1.46-.08q.74-.04 1.26-.08l.06 1.86q-.5.08-1.26.18a27 27 0 0 1-1.58.16 15 15 0 0 1-1.52.08m-1.76-6.04h3.74q0-1.36-.44-1.9-.42-.54-1.38-.54-.64 0-1.06.24t-.64.78-.22 1.42m12.524 5.82v-10.04h2.66v.64q.3-.2.76-.38.46-.2.96-.34a3.9 3.9 0 0 1 1-.14q.92 0 1.5.26.58.24.96.72.36-.22.9-.44t1.18-.38 1.24-.16q1.1 0 1.8.3.72.28 1.12.9.4.6.56 1.56.16.94.16 2.28V606h-2.66v-4.98q0-1.04-.12-1.68-.1-.66-.44-.96-.32-.3-.98-.3-.36 0-.76.08a4 4 0 0 0-1.26.4q.1.42.14 1.08.06.66.06 1.38V606h-2.66v-4.94q0-1.06-.12-1.72-.1-.66-.44-.96t-.98-.3q-.36 0-.74.08-.36.06-.68.18-.3.12-.5.22V606zm20.974.22q-1.66 0-2.64-.56-.96-.56-1.38-1.7t-.42-2.86q0-1.86.52-3.04.54-1.18 1.56-1.74 1.02-.58 2.52-.58 2.22 0 3.34 1.12 1.14 1.12 1.14 3.54l-.12 1.48h-6.28q.02 1.12.46 1.68t1.52.56q.62 0 1.36-.02l1.46-.08q.74-.04 1.26-.08l.06 1.86q-.5.08-1.26.18a27 27 0 0 1-1.58.16 15 15 0 0 1-1.52.08m-1.76-6.04h3.74q0-1.36-.44-1.9-.42-.54-1.38-.54-.64 0-1.06.24t-.64.78-.22 1.42m8.169 5.82v-10.04h2.66v.64q.32-.2.78-.38.46-.2.96-.34a3.9 3.9 0 0 1 1-.14q1.04 0 1.72.28.7.26 1.1.86t.58 1.58q.18.96.18 2.34v5.2h-2.68v-5.06q0-1.04-.12-1.66-.12-.64-.46-.92t-1-.28q-.36 0-.76.08-.38.06-.74.18a4 4 0 0 0-.56.24V606zm14.536.24q-1.1 0-1.78-.32t-.98-1.1q-.28-.8-.28-2.22v-4.42h-1.18v-2.22h1.18v-2.66h2.66v2.66h2.56v2.22h-2.56v3.72q0 .78.06 1.22.08.44.32.62t.74.18q.14 0 .42-.02l.56-.04q.28-.02.46-.04l.08 2.14q-.3.06-.74.12-.42.06-.84.1-.4.06-.68.06m6.287-.02q-1.56 0-2.36-.78-.78-.8-.78-2.4 0-1.12.4-1.74.4-.64 1.18-.92.8-.3 1.94-.36l2.44-.22v-.6q0-.72-.36-1-.36-.3-1.06-.3-.56 0-1.3.04-.72.04-1.44.1-.7.06-1.22.12l-.08-1.88q.52-.12 1.24-.24a18 18 0 0 1 1.54-.22q.8-.08 1.48-.08 1.28 0 2.14.32t1.3 1.06q.44.72.44 1.96v4.58a.6.6 0 0 0 .3.44q.26.14.6.2l-.06 1.84h-.64q-.3.02-.58 0-.28 0-.5-.04a2.4 2.4 0 0 1-.8-.24 2.4 2.4 0 0 1-.52-.38q-.32.14-.86.32t-1.18.3a6.6 6.6 0 0 1-1.26.12m.64-1.98q.38 0 .8-.08t.78-.18q.38-.12.6-.22v-2.3l-2.04.18q-.66.06-.96.4-.28.32-.28.92t.26.94q.28.34.84.34m7.289 1.76v-14.14h2.66V606z"/>
    <path fill="#4c4c4c" d="M69.843 631v-8.666h-2.954v-1.008h7v1.008h-2.926V631zm6.803.14q-1.05 0-1.666-.406-.601-.406-.868-1.204-.266-.798-.266-1.988 0-1.33.364-2.128.365-.812 1.022-1.176.658-.378 1.554-.378 1.4 0 2.114.784.714.77.714 2.492l-.056.826h-4.606q.015 1.092.406 1.652.392.56 1.414.56.392 0 .854-.014l.938-.056q.463-.028.784-.056l.028.854q-.337.056-.826.112a17 17 0 0 1-.98.084q-.504.042-.924.042m-1.694-4.06h3.57q0-1.288-.42-1.792-.406-.518-1.316-.518-.588 0-.994.238-.405.224-.63.728-.21.504-.21 1.344m6.285 3.92v-7h1.078v.49q.237-.14.588-.28.363-.14.77-.238.405-.112.784-.112.728 0 1.19.196.46.182.713.602.267.406.365 1.064.112.644.112 1.568V631h-1.093v-3.668q0-.91-.112-1.456-.097-.546-.42-.784-.307-.252-.952-.252-.35 0-.728.084a4 4 0 0 0-.685.196 4 4 0 0 0-.532.224V631zm7.533 0v-10.038h1.078v3.416q.251-.112.602-.224.364-.126.77-.21.405-.084.77-.084.728 0 1.19.196.462.182.714.602.265.406.364 1.064.098.644.098 1.568V631h-1.092v-3.668q0-.91-.112-1.456-.098-.546-.406-.784-.309-.252-.952-.252-.35 0-.728.07a5 5 0 0 0-.686.154 7 7 0 0 0-.532.182V631zm9.059.14q-.966 0-1.47-.546t-.504-1.596q0-.686.238-1.12.239-.434.714-.658.49-.238 1.204-.294l2.156-.21v-.602q0-.714-.322-1.008-.308-.294-.924-.294-.35 0-.84.028a34 34 0 0 0-1.792.154l-.056-.826q.336-.07.812-.14t.994-.112q.518-.056.952-.056.798 0 1.302.252.504.238.728.742.238.49.238 1.26v3.542q.028.308.238.448.224.14.56.182l-.042.854q-.197 0-.378-.014a2 2 0 0 1-.35-.056 4 4 0 0 1-.308-.07 2.5 2.5 0 0 1-.35-.168 2.3 2.3 0 0 1-.308-.238 7 7 0 0 1-.686.238q-.406.126-.882.21a4.5 4.5 0 0 1-.924.098m.182-.91q.378 0 .784-.07a9 9 0 0 0 1.372-.35v-2.282l-2.03.196q-.63.056-.91.364-.266.308-.266.882 0 .588.266.924t.784.336m9.921.91q-.966 0-1.47-.546t-.504-1.596q0-.686.238-1.12.239-.434.714-.658.49-.238 1.204-.294l2.156-.21v-.602q0-.714-.322-1.008-.308-.294-.924-.294-.35 0-.84.028a34 34 0 0 0-1.792.154l-.056-.826q.336-.07.812-.14t.994-.112q.519-.056.952-.056.798 0 1.302.252.504.238.728.742.238.49.238 1.26v3.542q.028.308.238.448.225.14.56.182l-.042.854q-.195 0-.378-.014a2 2 0 0 1-.35-.056 4 4 0 0 1-.308-.07 2.5 2.5 0 0 1-.35-.168 2.4 2.4 0 0 1-.308-.238 7 7 0 0 1-.686.238q-.405.126-.882.21a4.5 4.5 0 0 1-.924.098m.182-.91q.379 0 .784-.07a9 9 0 0 0 1.372-.35v-2.282l-2.03.196q-.63.056-.91.364-.266.308-.266.882 0 .588.266.924.267.336.784.336m7.91.91q-1.106 0-1.736-.364-.63-.378-.896-1.204-.252-.827-.252-2.184 0-1.274.28-2.044.293-.784.938-1.134.644-.35 1.68-.35.237 0 .574.042.35.029.714.084.363.042.63.084l-.042.896a21 21 0 0 0-.546-.056 13 13 0 0 0-.602-.042 5 5 0 0 0-.49-.028q-.799 0-1.246.252-.435.252-.616.812-.168.546-.168 1.484 0 1.022.154 1.638.153.602.588.868.433.266 1.288.266.195 0 .49-.014l.616-.056q.321-.029.56-.042l.028.896a20 20 0 0 1-1.358.154q-.351.042-.588.042m5.903 0q-1.05 0-1.666-.406-.601-.406-.868-1.204-.266-.798-.266-1.988 0-1.33.364-2.128.365-.812 1.022-1.176.658-.378 1.554-.378 1.4 0 2.114.784.714.77.714 2.492l-.056.826h-4.606q.015 1.092.406 1.652.393.56 1.414.56.393 0 .854-.014l.938-.056q.463-.028.784-.056l.028.854q-.336.056-.826.112a17 17 0 0 1-.98.084q-.504.042-.924.042m-1.694-4.06h3.57q0-1.288-.42-1.792-.405-.518-1.316-.518-.588 0-.994.238-.405.224-.63.728-.21.504-.21 1.344m8.469 4.06q-.322 0-.784-.042a30 30 0 0 1-.896-.098l-.798-.126.056-.938q.35.042.784.098.448.056.868.098.42.028.672.028.573 0 .952-.098.378-.112.574-.364t.196-.714q0-.35-.154-.546-.141-.196-.546-.322-.393-.126-1.148-.238a8 8 0 0 1-1.316-.308q-.519-.196-.77-.574-.252-.378-.252-1.078 0-.784.364-1.232.363-.449.938-.63a3.8 3.8 0 0 1 1.218-.196q.392 0 .854.042.476.042.924.112.447.056.77.112l-.028.938a11 11 0 0 0-.784-.098 15 15 0 0 0-.896-.084 9 9 0 0 0-.784-.042q-.42 0-.756.098a1 1 0 0 0-.532.308q-.196.223-.196.63 0 .308.14.504.14.182.532.308t1.134.252q.867.14 1.386.35.531.21.77.588.237.378.238 1.064 0 .812-.336 1.302-.323.476-.938.686-.603.21-1.456.21m6.521 0a9 9 0 0 1-.784-.042 31 31 0 0 1-.896-.098l-.798-.126.056-.938q.35.042.784.098.448.056.868.098.42.028.672.028.574 0 .952-.098.379-.112.574-.364.196-.252.196-.714 0-.35-.154-.546-.14-.196-.546-.322-.392-.126-1.148-.238a8 8 0 0 1-1.316-.308q-.518-.196-.77-.574t-.252-1.078q0-.784.364-1.232.365-.449.938-.63a3.8 3.8 0 0 1 1.218-.196q.393 0 .854.042.477.042.924.112.449.056.77.112l-.028.938a11 11 0 0 0-.784-.098 15 15 0 0 0-.896-.084 9 9 0 0 0-.784-.042q-.42 0-.756.098a1 1 0 0 0-.532.308q-.196.223-.196.63a.85.85 0 0 0 .14.504q.14.182.532.308.393.126 1.134.252.869.14 1.386.35.533.21.77.588.238.378.238 1.064 0 .812-.336 1.302-.321.476-.938.686-.601.21-1.456.21m7.026 0q-1.177 0-1.834-.406-.645-.406-.91-1.232-.252-.826-.252-2.086 0-1.204.28-1.988.294-.784.952-1.176t1.764-.392q1.12 0 1.778.392.657.391.938 1.176.294.784.294 1.988 0 1.26-.266 2.086-.252.826-.91 1.232-.645.406-1.834.406m0-.938q.811 0 1.218-.28.405-.294.532-.91.14-.616.14-1.596 0-.966-.168-1.54t-.574-.826q-.407-.252-1.148-.252-.728 0-1.148.252-.406.252-.574.826t-.168 1.54q0 .98.126 1.596.14.616.546.91.405.28 1.218.28m9.324.938q-.966 0-1.47-.546t-.504-1.596q0-.686.238-1.12t.714-.658q.49-.238 1.204-.294l2.156-.21v-.602q0-.714-.322-1.008-.308-.294-.924-.294-.35 0-.84.028a34 34 0 0 0-1.792.154l-.056-.826q.336-.07.812-.14t.994-.112q.518-.056.952-.056.798 0 1.302.252.504.238.728.742.238.49.238 1.26v3.542q.028.308.238.448.224.14.56.182l-.042.854q-.196 0-.378-.014a2 2 0 0 1-.35-.056 4 4 0 0 1-.308-.07 2.5 2.5 0 0 1-.35-.168 2.3 2.3 0 0 1-.308-.238 7 7 0 0 1-.686.238 7 7 0 0 1-.882.21 4.5 4.5 0 0 1-.924.098m.182-.91q.378 0 .784-.07a9 9 0 0 0 1.372-.35v-2.282l-2.03.196q-.63.056-.91.364-.266.308-.266.882 0 .588.266.924t.784.336m8.396 3.864V624h1.078v.504q.224-.14.56-.28.35-.154.742-.252.392-.112.756-.112.895 0 1.456.378.56.364.826 1.148.28.784.28 2.03 0 1.372-.322 2.198-.309.812-.994 1.176-.673.35-1.75.35-.435 0-.882-.056-.435-.056-.672-.098v3.108zm2.576-3.906q.756 0 1.19-.28.447-.28.63-.882.182-.616.182-1.61 0-1.414-.42-1.988-.42-.588-1.176-.588-.337 0-.7.084a5 5 0 0 0-.672.21 3 3 0 0 0-.532.238v4.676l.658.084q.433.056.84.056m7.004.952q-.322 0-.784-.042a30 30 0 0 1-.896-.098l-.798-.126.056-.938q.35.042.784.098.448.056.868.098.42.028.672.028.574 0 .952-.098.378-.112.574-.364t.196-.714q0-.35-.154-.546-.14-.196-.546-.322-.392-.126-1.148-.238a8 8 0 0 1-1.316-.308q-.518-.196-.77-.574t-.252-1.078q0-.784.364-1.232.364-.449.938-.63a3.8 3.8 0 0 1 1.218-.196q.392 0 .854.042.476.042.924.112.448.056.77.112l-.028.938a11 11 0 0 0-.784-.098 15 15 0 0 0-.896-.084 9 9 0 0 0-.784-.042q-.42 0-.756.098a1 1 0 0 0-.532.308q-.196.223-.196.63a.85.85 0 0 0 .14.504q.14.182.532.308t1.134.252q.869.14 1.386.35.532.21.77.588t.238 1.064q0 .812-.336 1.302-.322.476-.938.686-.602.21-1.456.21m4.338-.14v-7h1.078v7zm0-8.54v-1.26h1.078v1.26zm5.679 8.68q-1.106 0-1.736-.364-.63-.378-.896-1.204-.252-.827-.252-2.184 0-1.274.28-2.044.294-.784.938-1.134.645-.35 1.68-.35.238 0 .574.042.351.029.714.084.364.042.63.084l-.042.896q-.237-.028-.546-.056a13 13 0 0 0-.602-.042 5 5 0 0 0-.49-.028q-.798 0-1.246.252-.433.252-.616.812-.168.546-.168 1.484 0 1.022.154 1.638.155.602.588.868.435.266 1.288.266.196 0 .49-.014l.616-.056q.323-.029.56-.042l.028.896q-.28.042-.644.084-.363.042-.714.07a5 5 0 0 1-.588.042m6.114 0q-1.176 0-1.834-.406-.644-.406-.91-1.232-.252-.826-.252-2.086 0-1.204.28-1.988.294-.784.952-1.176t1.764-.392q1.12 0 1.778.392.658.391.938 1.176.294.784.294 1.988 0 1.26-.266 2.086-.252.826-.91 1.232-.644.406-1.834.406m0-.938q.811 0 1.218-.28.406-.294.532-.91.14-.616.14-1.596 0-.966-.168-1.54t-.574-.826-1.148-.252q-.728 0-1.148.252-.406.252-.574.826t-.168 1.54q0 .98.126 1.596.14.616.546.91.406.28 1.218.28m-1.274-7.462-.294-.728 3.052-1.386.364.938zm6.08 8.26v-10.038h1.078V631zm5.872.14q-1.176 0-1.834-.406-.645-.406-.91-1.232-.252-.826-.252-2.086 0-1.204.28-1.988.294-.784.952-1.176t1.764-.392q1.12 0 1.778.392.657.391.938 1.176.294.784.294 1.988 0 1.26-.266 2.086-.253.826-.91 1.232-.645.406-1.834.406m0-.938q.811 0 1.218-.28.405-.294.532-.91.14-.616.14-1.596 0-.966-.168-1.54t-.574-.826q-.407-.252-1.148-.252-.728 0-1.148.252-.406.252-.574.826t-.168 1.54q0 .98.126 1.596.14.616.546.91.405.28 1.218.28m7.424 4.088q-1.092 0-1.764-.196-.658-.182-.966-.644-.294-.462-.294-1.26 0-.406.126-.7.126-.28.364-.518.252-.252.616-.518a1 1 0 0 1-.294-.392 1.7 1.7 0 0 1-.098-.588q0-.098.07-.294.084-.196.196-.406.112-.224.21-.406a2.1 2.1 0 0 1-.546-.378 1.9 1.9 0 0 1-.392-.672q-.154-.42-.154-1.064 0-.869.322-1.386.336-.532.924-.77a3.7 3.7 0 0 1 1.372-.238q.378 0 .798.056t.658.126l2.086-.056v.924l-1.316-.028q.196.196.322.518.14.322.14.854 0 .91-.308 1.428a1.66 1.66 0 0 1-.91.728q-.602.21-1.512.21-.097 0-.336-.014l-.336-.042q-.084.196-.168.448a1.4 1.4 0 0 0-.084.35q0 .21.042.336a.4.4 0 0 0 .21.182q.168.07.504.098.336.014.924.014 1.008 0 1.61.168t.854.616q.266.434.266 1.274 0 1.19-.826 1.708-.826.532-2.31.532m.014-.924q1.036 0 1.526-.294t.49-.966q0-.518-.168-.77-.154-.238-.532-.322a6 6 0 0 0-1.008-.07h-.35a8 8 0 0 0-.462-.014q-.238-.014-.434-.028a4 4 0 0 0-.252-.014q-.28.21-.462.378a1.2 1.2 0 0 0-.238.364q-.07.196-.07.462 0 .462.168.742t.588.406q.434.126 1.204.126m-.322-5.614q.868 0 1.232-.336.364-.35.364-1.162t-.364-1.162-1.232-.35q-.811 0-1.176.35-.35.35-.35 1.162t.35 1.162q.364.336 1.176.336m7.403 3.388q-1.176 0-1.834-.406-.643-.406-.91-1.232-.252-.826-.252-2.086 0-1.204.28-1.988.295-.784.952-1.176.659-.392 1.764-.392 1.12 0 1.778.392.659.391.938 1.176.294.784.294 1.988 0 1.26-.266 2.086-.252.826-.91 1.232-.643.406-1.834.406m0-.938q.813 0 1.218-.28.406-.294.532-.91.14-.616.14-1.596 0-.966-.168-1.54t-.574-.826q-.405-.252-1.148-.252-.728 0-1.148.252-.406.252-.574.826t-.168 1.54q0 .98.126 1.596.141.616.546.91.406.28 1.218.28m6.906.938a9 9 0 0 1-.784-.042 31 31 0 0 1-.896-.098l-.798-.126.056-.938q.35.042.784.098.448.056.868.098.42.028.672.028.574 0 .952-.098.379-.112.574-.364.196-.252.196-.714 0-.35-.154-.546-.14-.196-.546-.322-.392-.126-1.148-.238a8 8 0 0 1-1.316-.308q-.518-.196-.77-.574t-.252-1.078q0-.784.364-1.232.365-.449.938-.63a3.8 3.8 0 0 1 1.218-.196q.392 0 .854.042.477.042.924.112.449.056.77.112l-.028.938a11 11 0 0 0-.784-.098 15 15 0 0 0-.896-.084 9 9 0 0 0-.784-.042q-.42 0-.756.098a1 1 0 0 0-.532.308q-.196.223-.196.63a.85.85 0 0 0 .14.504q.14.182.532.308.393.126 1.134.252.868.14 1.386.35.533.21.77.588.238.378.238 1.064 0 .812-.336 1.302-.321.476-.938.686-.601.21-1.456.21m7.414-.14v-7h1.078v7zm0-8.54v-1.26h1.078v1.26zm3.09 8.54v-7h1.078v.49q.238-.14.588-.28.364-.14.77-.238.406-.112.784-.112.728 0 1.19.196.462.182.714.602.266.406.364 1.064.112.644.112 1.568V631h-1.092v-3.668q0-.91-.112-1.456-.097-.546-.42-.784-.308-.252-.952-.252-.35 0-.728.084a4 4 0 0 0-.686.196 4 4 0 0 0-.532.224V631zm9.788.154q-.728 0-1.162-.224-.42-.224-.602-.77-.182-.56-.182-1.568v-3.654h-.994V624h.994v-2.142h1.078V624h2.198v.938h-2.198v3.332q0 .742.056 1.162.07.406.28.574t.658.168q.14 0 .364-.014l.448-.028q.238-.029.42-.042l.07.91q-.196.028-.462.056-.266.042-.532.07a4 4 0 0 1-.434.028m5.09-.014q-1.05 0-1.666-.406-.601-.406-.868-1.204-.266-.798-.266-1.988 0-1.33.364-2.128.365-.812 1.022-1.176.659-.378 1.554-.378 1.4 0 2.114.784.714.77.714 2.492l-.056.826h-4.606q.015 1.092.406 1.652.393.56 1.414.56.392 0 .854-.014l.938-.056q.462-.028.784-.056l.028.854q-.336.056-.826.112a17 17 0 0 1-.98.084q-.504.042-.924.042m-1.694-4.06h3.57q0-1.288-.42-1.792-.405-.518-1.316-.518-.588 0-.994.238-.405.224-.63.728-.21.504-.21 1.344m6.285 3.92v-7h1.078v.938q.266-.182.672-.392a8 8 0 0 1 .896-.42q.49-.196.98-.28v1.106q-.477.098-.966.266a9.5 9.5 0 0 0-1.582.658V631zm7.306.14q-1.106 0-1.736-.364-.63-.378-.896-1.204-.252-.827-.252-2.184 0-1.274.28-2.044.294-.784.938-1.134.645-.35 1.68-.35.238 0 .574.042.351.029.714.084.364.042.63.084l-.042.896q-.237-.028-.546-.056a13 13 0 0 0-.602-.042 5 5 0 0 0-.49-.028q-.798 0-1.246.252-.433.252-.616.812-.168.546-.168 1.484 0 1.022.154 1.638.155.602.588.868.435.266 1.288.266.196 0 .49-.014l.616-.056q.323-.029.56-.042l.028.896q-.28.042-.644.084-.363.042-.714.07a5 5 0 0 1-.588.042m5.636 0q-.896 0-1.372-.364-.476-.365-.658-1.134-.168-.77-.168-1.988V624h1.078v3.654q0 .924.084 1.47.098.546.406.798.308.238.924.238t1.12-.168.812-.336V624h1.078v7h-1.078v-.49a7 7 0 0 1-.98.448q-.518.182-1.246.182m5.407-.14v-10.038h1.078V631zm5.48.154q-.728 0-1.162-.224-.42-.224-.602-.77-.182-.56-.182-1.568v-3.654h-.994V624h.994v-2.142h1.078V624h2.198v.938h-2.198v3.332q0 .742.056 1.162.07.406.28.574t.658.168q.14 0 .364-.014l.448-.028q.238-.029.42-.042l.07.91q-.197.028-.462.056-.266.042-.532.07a4 4 0 0 1-.434.028m4.74-.014q-.896 0-1.372-.364-.476-.365-.658-1.134-.168-.77-.168-1.988V624h1.078v3.654q0 .924.084 1.47.098.546.406.798.307.238.924.238.616 0 1.12-.168t.812-.336V624h1.078v7h-1.078v-.49a7 7 0 0 1-.98.448q-.518.182-1.246.182m5.323-.14v-7h1.078v.938q.267-.182.672-.392.407-.224.896-.42t.98-.28v1.106a8 8 0 0 0-.966.266q-.49.154-.91.336-.405.182-.672.322V631zm6.38.14q-.966 0-1.47-.546t-.504-1.596q0-.686.238-1.12.237-.434.714-.658.49-.238 1.204-.294l2.156-.21v-.602q0-.714-.322-1.008-.309-.294-.924-.294-.351 0-.84.028a34 34 0 0 0-1.792.154l-.056-.826q.336-.07.812-.14.475-.07.994-.112.517-.056.952-.056.798 0 1.302.252.503.238.728.742.238.49.238 1.26v3.542q.028.308.238.448.224.14.56.182l-.042.854q-.196 0-.378-.014a2 2 0 0 1-.35-.056 4 4 0 0 1-.308-.07 2.5 2.5 0 0 1-.35-.168 2 2 0 0 1-.308-.238 7 7 0 0 1-.686.238 7 7 0 0 1-.882.21 4.5 4.5 0 0 1-.924.098m.182-.91q.378 0 .784-.07a9 9 0 0 0 1.372-.35v-2.282l-2.03.196q-.63.056-.91.364-.267.308-.266.882 0 .588.266.924.265.336.784.336m5.319.77v-7h1.078v7zm0-8.54v-1.26h1.078v1.26zm5.274 8.68q-.322 0-.784-.042a30 30 0 0 1-.896-.098l-.798-.126.056-.938q.35.042.784.098.448.056.868.098.42.028.672.028.574 0 .952-.098.378-.112.574-.364t.196-.714q0-.35-.154-.546-.14-.196-.546-.322-.392-.126-1.148-.238a8 8 0 0 1-1.316-.308q-.518-.196-.77-.574t-.252-1.078q0-.784.364-1.232.364-.449.938-.63a3.8 3.8 0 0 1 1.218-.196q.392 0 .854.042.476.042.924.112.448.056.77.112l-.028.938a11 11 0 0 0-.784-.098 15 15 0 0 0-.896-.084 9 9 0 0 0-.784-.042q-.42 0-.756.098a1 1 0 0 0-.532.308q-.196.223-.196.63a.85.85 0 0 0 .14.504q.14.182.532.308t1.134.252q.868.14 1.386.35.532.21.77.588t.238 1.064q0 .812-.336 1.302-.322.476-.938.686-.602.21-1.456.21m11.684 2.954v-3.416a7 7 0 0 1-.868.308 4 4 0 0 1-1.078.154q-.952 0-1.54-.364-.575-.364-.84-1.148-.267-.785-.266-2.016 0-1.386.308-2.212.321-.827 1.05-1.176.727-.364 1.96-.364.266 0 .686.028.42.014.868.056.461.028.812.056v10.094zm-1.834-3.934q.531 0 1.036-.126.518-.14.798-.266v-4.886a9 9 0 0 0-.644-.042 9 9 0 0 0-.616-.028q-.897 0-1.386.308-.477.294-.658.91-.183.616-.182 1.582 0 1.288.378 1.918.377.63 1.274.63m7.074.98q-.895 0-1.372-.364-.475-.365-.658-1.134-.168-.77-.168-1.988V624h1.078v3.654q0 .924.084 1.47.099.546.406.798.309.238.924.238.616 0 1.12-.168t.812-.336V624h1.078v7h-1.078v-.49a7 7 0 0 1-.98.448q-.517.182-1.246.182m7.802 0q-1.05 0-1.666-.406-.603-.406-.868-1.204-.267-.798-.266-1.988 0-1.33.364-2.128.363-.812 1.022-1.176.657-.378 1.554-.378 1.4 0 2.114.784.714.77.714 2.492l-.056.826h-4.606q.013 1.092.406 1.652.391.56 1.414.56.392 0 .854-.014l.938-.056q.462-.028.784-.056l.028.854q-.337.056-.826.112-.476.056-.98.084-.504.042-.924.042m-1.694-4.06h3.57q0-1.288-.42-1.792-.407-.518-1.316-.518-.588 0-.994.238-.406.224-.63.728-.21.504-.21 1.344M96.47 651.14q-1.05 0-1.666-.406-.601-.406-.868-1.204-.266-.798-.266-1.988 0-1.33.364-2.128.365-.812 1.022-1.176.658-.378 1.554-.378 1.4 0 2.114.784.714.77.714 2.492l-.056.826h-4.606q.015 1.092.406 1.652.393.56 1.414.56.392 0 .854-.014l.938-.056q.462-.028.784-.056l.028.854q-.336.056-.826.112a17 17 0 0 1-.98.084q-.504.042-.924.042m-1.694-4.06h3.57q0-1.288-.42-1.792-.405-.518-1.316-.518-.588 0-.994.238-.405.224-.63.728-.21.504-.21 1.344m6.285 3.92v-7h1.078v.49q.237-.14.588-.28.363-.14.77-.238.405-.112.784-.112.728 0 1.19.196.462.182.714.602.265.406.364 1.064a9.4 9.4 0 0 1 .112 1.568V651h-1.092v-3.668q0-.91-.112-1.456-.099-.546-.42-.784-.309-.252-.952-.252a3.4 3.4 0 0 0-.728.084 4 4 0 0 0-.686.196 4 4 0 0 0-.532.224V651zm9.788.154q-.728 0-1.162-.224-.42-.224-.602-.77-.182-.56-.182-1.568v-3.654h-.994V644h.994v-2.142h1.078V644h2.198v.938h-2.198v3.332q0 .742.056 1.162.07.406.28.574t.658.168q.14 0 .364-.014l.448-.028q.239-.029.42-.042l.07.91q-.197.028-.462.056-.266.042-.532.07a4 4 0 0 1-.434.028m5.09-.014q-1.05 0-1.666-.406-.602-.406-.868-1.204t-.266-1.988q0-1.33.364-2.128.364-.812 1.022-1.176.659-.378 1.554-.378 1.4 0 2.114.784.714.77.714 2.492l-.056.826h-4.606q.014 1.092.406 1.652t1.414.56q.392 0 .854-.014l.938-.056q.462-.028.784-.056l.028.854q-.336.056-.826.112a17 17 0 0 1-.98.084q-.504.042-.924.042m-1.694-4.06h3.57q0-1.288-.42-1.792-.406-.518-1.316-.518-.588 0-.994.238-.406.224-.63.728-.21.504-.21 1.344m6.284 3.92v-7h1.078v.49q.239-.14.588-.28.365-.14.77-.238.406-.112.784-.112.729 0 1.19.196.462.182.714.602.267.406.364 1.064.112.644.112 1.568V651h-1.092v-3.668q0-.91-.112-1.456-.098-.546-.42-.784-.307-.252-.952-.252-.35 0-.728.084a4 4 0 0 0-.686.196 4 4 0 0 0-.532.224V651zm9.746.14q-.42 0-.798-.098a2 2 0 0 1-.7-.308 2.1 2.1 0 0 1-.546-.616q-.238-.406-.364-1.036a8 8 0 0 1-.126-1.526q0-1.246.294-2.058.294-.826.938-1.232t1.708-.406q.266 0 .588.028t.616.07q.307.042.49.084v-3.08h1.092V651h-1.078v-.462q-.225.126-.588.266a6 6 0 0 1-.756.238 3.2 3.2 0 0 1-.77.098m.14-.98q.363 0 .728-.084a6 6 0 0 0 .7-.196q.321-.126.532-.224v-4.69a7 7 0 0 0-.462-.056 12 12 0 0 0-.616-.07 6 6 0 0 0-.56-.028q-.714 0-1.12.308t-.588.924q-.168.601-.168 1.512 0 .84.126 1.358.126.504.336.784.224.266.504.364.279.098.588.098m7.55.98q-1.05 0-1.666-.406-.603-.406-.868-1.204-.267-.798-.266-1.988 0-1.33.364-2.128.363-.812 1.022-1.176.657-.378 1.554-.378 1.4 0 2.114.784.714.77.714 2.492l-.056.826h-4.606q.013 1.092.406 1.652.391.56 1.414.56.392 0 .854-.014l.938-.056q.462-.028.784-.056l.028.854q-.337.056-.826.112-.477.056-.98.084-.504.042-.924.042m-1.694-4.06h3.57q0-1.288-.42-1.792-.407-.518-1.316-.518-.588 0-.994.238-.406.224-.63.728-.21.504-.21 1.344m6.284 3.92v-7h1.078v.49q.224-.14.56-.28t.714-.238q.392-.112.742-.112.7 0 1.12.168.434.168.7.546.28-.154.686-.322a6 6 0 0 1 .868-.28q.475-.112.924-.112.714 0 1.176.182t.714.588q.266.406.364 1.064.112.643.112 1.596V651h-1.078v-3.668q0-.91-.112-1.456-.098-.546-.406-.784-.308-.252-.938-.252-.364 0-.742.084a4 4 0 0 0-.686.196 3.4 3.4 0 0 0-.504.224q.097.364.126.91.042.532.042 1.106V651h-1.078v-3.612q0-.952-.098-1.498-.098-.56-.42-.798-.308-.252-.938-.252-.35 0-.714.084a3.3 3.3 0 0 0-.644.196 3.6 3.6 0 0 0-.49.224V651zm16.305.14q-.966 0-1.47-.546t-.504-1.596q0-.686.238-1.12t.714-.658q.49-.238 1.204-.294l2.156-.21v-.602q0-.714-.322-1.008-.308-.294-.924-.294-.35 0-.84.028a34 34 0 0 0-1.792.154l-.056-.826q.336-.07.812-.14t.994-.112q.519-.056.952-.056.798 0 1.302.252.504.238.728.742.238.49.238 1.26v3.542q.028.308.238.448.225.14.56.182l-.042.854q-.195 0-.378-.014a2 2 0 0 1-.35-.056 4 4 0 0 1-.308-.07 2.5 2.5 0 0 1-.35-.168 2.4 2.4 0 0 1-.308-.238 7 7 0 0 1-.686.238q-.405.126-.882.21a4.5 4.5 0 0 1-.924.098m.182-.91q.379 0 .784-.07a9 9 0 0 0 1.372-.35v-2.282l-2.03.196q-.63.056-.91.364-.266.308-.266.882 0 .588.266.924.267.336.784.336m8.396.77v-7h1.078v.938q.266-.182.672-.392a8 8 0 0 1 .896-.42q.49-.196.98-.28v1.106q-.477.098-.966.266a9.5 9.5 0 0 0-1.582.658V651zm7.194.14q-1.05 0-1.666-.406-.601-.406-.868-1.204-.266-.798-.266-1.988 0-1.33.364-2.128.365-.812 1.022-1.176.659-.378 1.554-.378 1.4 0 2.114.784.714.77.714 2.492l-.056.826h-4.606q.015 1.092.406 1.652.393.56 1.414.56.393 0 .854-.014l.938-.056q.463-.028.784-.056l.028.854q-.336.056-.826.112a17 17 0 0 1-.98.084q-.504.042-.924.042m-1.694-4.06h3.57q0-1.288-.42-1.792-.405-.518-1.316-.518-.588 0-.994.238-.405.224-.63.728-.21.504-.21 1.344m7.811 4.06q-.966 0-1.47-.546t-.504-1.596q0-.686.238-1.12t.714-.658q.49-.238 1.204-.294l2.156-.21v-.602q0-.714-.322-1.008-.308-.294-.924-.294-.35 0-.84.028a34 34 0 0 0-1.792.154l-.056-.826q.336-.07.812-.14t.994-.112q.518-.056.952-.056.798 0 1.302.252.504.238.728.742.238.49.238 1.26v3.542q.028.308.238.448.224.14.56.182l-.042.854q-.197 0-.378-.014a2 2 0 0 1-.35-.056 4 4 0 0 1-.308-.07 2.5 2.5 0 0 1-.35-.168 2.3 2.3 0 0 1-.308-.238 7 7 0 0 1-.686.238 7 7 0 0 1-.882.21 4.5 4.5 0 0 1-.924.098m.182-.91q.378 0 .784-.07a9 9 0 0 0 1.372-.35v-2.282l-2.03.196q-.63.056-.91.364-.266.308-.266.882 0 .588.266.924t.784.336m5.403.77v-10.038h1.078V651zm3.184 0v-7h1.078v7zm0-8.54v-1.26h1.078v1.26zm5.302 8.68q-.42 0-.798-.098a2 2 0 0 1-.7-.308 2.1 2.1 0 0 1-.546-.616q-.238-.406-.364-1.036a8 8 0 0 1-.126-1.526q0-1.246.294-2.058.293-.826.938-1.232.643-.406 1.708-.406.266 0 .588.028t.616.07q.307.042.49.084v-3.08h1.092V651h-1.078v-.462q-.225.126-.588.266a6 6 0 0 1-.756.238 3.2 3.2 0 0 1-.77.098m.14-.98q.363 0 .728-.084a6 6 0 0 0 .7-.196q.321-.126.532-.224v-4.69a7 7 0 0 0-.462-.056 12 12 0 0 0-.616-.07 6 6 0 0 0-.56-.028q-.715 0-1.12.308-.407.308-.588.924-.168.601-.168 1.512 0 .84.126 1.358.126.504.336.784.224.266.504.364.279.098.588.098m6.597.98q-.966 0-1.47-.546t-.504-1.596q0-.686.238-1.12t.714-.658q.49-.238 1.204-.294l2.156-.21v-.602q0-.714-.322-1.008-.307-.294-.924-.294-.35 0-.84.028a34 34 0 0 0-1.792.154l-.056-.826q.336-.07.812-.14t.994-.112q.519-.056.952-.056.798 0 1.302.252.504.238.728.742.238.49.238 1.26v3.542q.028.308.238.448.225.14.56.182l-.042.854q-.195 0-.378-.014a2 2 0 0 1-.35-.056 4 4 0 0 1-.308-.07 2.5 2.5 0 0 1-.35-.168 2.4 2.4 0 0 1-.308-.238 7 7 0 0 1-.686.238q-.405.126-.882.21a4.5 4.5 0 0 1-.924.098m.182-.91q.379 0 .784-.07a9 9 0 0 0 1.372-.35v-2.282l-2.03.196q-.63.056-.91.364-.266.308-.266.882 0 .588.266.924.267.336.784.336m7.532.91q-.42 0-.798-.098a2 2 0 0 1-.7-.308 2.1 2.1 0 0 1-.546-.616q-.238-.406-.364-1.036a8 8 0 0 1-.126-1.526q0-1.246.294-2.058.294-.826.938-1.232t1.708-.406q.265 0 .588.028.321.028.616.07.307.042.49.084v-3.08h1.092V651h-1.078v-.462q-.225.126-.588.266a6 6 0 0 1-.756.238 3.2 3.2 0 0 1-.77.098m.14-.98q.363 0 .728-.084a6 6 0 0 0 .7-.196q.322-.126.532-.224v-4.69a7 7 0 0 0-.462-.056 12 12 0 0 0-.616-.07 6 6 0 0 0-.56-.028q-.715 0-1.12.308t-.588.924q-.168.601-.168 1.512 0 .84.126 1.358.126.504.336.784.224.266.504.364.279.098.588.098m7.55.98q-1.05 0-1.666-.406-.603-.406-.868-1.204-.267-.798-.266-1.988 0-1.33.364-2.128.363-.812 1.022-1.176.657-.378 1.554-.378 1.4 0 2.114.784.714.77.714 2.492l-.056.826h-4.606q.013 1.092.406 1.652.391.56 1.414.56.392 0 .854-.014l.938-.056q.462-.028.784-.056l.028.854q-.337.056-.826.112-.477.056-.98.084-.504.042-.924.042m-1.694-4.06h3.57q0-1.288-.42-1.792-.407-.518-1.316-.518-.588 0-.994.238-.406.224-.63.728-.21.504-.21 1.344m11.572 4.06q-.42 0-.798-.098a2 2 0 0 1-.7-.308 2.1 2.1 0 0 1-.546-.616q-.238-.406-.364-1.036a8 8 0 0 1-.126-1.526q0-1.246.294-2.058.294-.826.938-1.232t1.708-.406q.266 0 .588.028t.616.07q.308.042.49.084v-3.08h1.092V651h-1.078v-.462a4.5 4.5 0 0 1-.588.266 5.5 5.5 0 0 1-.756.238 3.2 3.2 0 0 1-.77.098m.14-.98q.364 0 .728-.084a6 6 0 0 0 .7-.196q.322-.126.532-.224v-4.69a7 7 0 0 0-.462-.056 12 12 0 0 0-.616-.07 6 6 0 0 0-.56-.028q-.714 0-1.12.308t-.588.924q-.168.601-.168 1.512 0 .84.126 1.358.126.504.336.784.224.266.504.364t.588.098m7.76.98q-1.176 0-1.834-.406-.644-.406-.91-1.232-.252-.826-.252-2.086 0-1.204.28-1.988.294-.784.952-1.176t1.764-.392q1.12 0 1.778.392.658.391.938 1.176.294.784.294 1.988 0 1.26-.266 2.086-.252.826-.91 1.232-.644.406-1.834.406m0-.938q.811 0 1.218-.28.406-.294.532-.91.14-.616.14-1.596 0-.966-.168-1.54t-.574-.826-1.148-.252q-.728 0-1.148.252-.406.252-.574.826t-.168 1.54q0 .98.126 1.596.14.616.546.91.407.28 1.218.28m7.798.798v-7h1.078v7zm0-8.54v-1.26h1.078v1.26zm3.09 8.54v-7h1.078v.49q.224-.14.56-.28t.714-.238q.392-.112.742-.112.7 0 1.12.168.434.168.7.546.28-.154.686-.322a6 6 0 0 1 .868-.28q.475-.112.924-.112.714 0 1.176.182t.714.588q.266.406.364 1.064.112.643.112 1.596V651h-1.078v-3.668q0-.91-.112-1.456-.098-.546-.406-.784-.308-.252-.938-.252-.364 0-.742.084a4 4 0 0 0-.686.196 3.4 3.4 0 0 0-.504.224q.097.364.126.91.042.532.042 1.106V651h-1.078v-3.612q0-.952-.098-1.498-.098-.56-.42-.798-.308-.252-.938-.252-.35 0-.714.084a3.3 3.3 0 0 0-.644.196 3.6 3.6 0 0 0-.49.224V651zm11.703 0v-7h1.078v7zm0-8.54v-1.26h1.078v1.26zm5.792 11.83q-1.092 0-1.764-.196-.659-.182-.966-.644-.294-.462-.294-1.26 0-.406.126-.7.126-.28.364-.518.252-.252.616-.518a1 1 0 0 1-.294-.392 1.7 1.7 0 0 1-.098-.588q0-.098.07-.294.084-.196.196-.406.112-.224.21-.406a2.1 2.1 0 0 1-.546-.378 1.9 1.9 0 0 1-.392-.672q-.154-.42-.154-1.064 0-.869.322-1.386.336-.532.924-.77a3.7 3.7 0 0 1 1.372-.238q.378 0 .798.056t.658.126l2.086-.056v.924l-1.316-.028q.196.196.322.518.14.322.14.854 0 .91-.308 1.428a1.66 1.66 0 0 1-.91.728q-.601.21-1.512.21-.098 0-.336-.014l-.336-.042q-.084.196-.168.448a1.4 1.4 0 0 0-.084.35q0 .21.042.336a.4.4 0 0 0 .21.182q.168.07.504.098.336.014.924.014 1.008 0 1.61.168t.854.616q.266.434.266 1.274 0 1.19-.826 1.708-.827.532-2.31.532m.014-.924q1.036 0 1.526-.294t.49-.966q0-.518-.168-.77-.154-.238-.532-.322a6 6 0 0 0-1.008-.07h-.35a8 8 0 0 0-.462-.014q-.238-.014-.434-.028a4 4 0 0 0-.252-.014q-.28.21-.462.378a1.2 1.2 0 0 0-.238.364q-.07.196-.07.462 0 .462.168.742t.588.406q.434.126 1.204.126m-.322-5.614q.868 0 1.232-.336.364-.35.364-1.162t-.364-1.162-1.232-.35q-.811 0-1.176.35-.35.35-.35 1.162t.35 1.162q.364.336 1.176.336m4.811 3.248v-7h1.078v.938q.267-.182.672-.392.407-.224.896-.42t.98-.28v1.106a8 8 0 0 0-.966.266q-.49.154-.91.336-.405.182-.672.322V651zm6.38.14q-.966 0-1.47-.546t-.504-1.596q0-.686.238-1.12.237-.434.714-.658.49-.238 1.204-.294l2.156-.21v-.602q0-.714-.322-1.008-.309-.294-.924-.294-.351 0-.84.028a34 34 0 0 0-1.792.154l-.056-.826q.336-.07.812-.14.475-.07.994-.112.517-.056.952-.056.798 0 1.302.252.503.238.728.742.238.49.238 1.26v3.542q.027.308.238.448.224.14.56.182l-.042.854q-.196 0-.378-.014a2 2 0 0 1-.35-.056 4 4 0 0 1-.308-.07 2.5 2.5 0 0 1-.35-.168 2 2 0 0 1-.308-.238 7 7 0 0 1-.686.238 7 7 0 0 1-.882.21 4.5 4.5 0 0 1-.924.098m.182-.91q.378 0 .784-.07a9 9 0 0 0 1.372-.35v-2.282l-2.03.196q-.63.056-.91.364-.266.308-.266.882 0 .588.266.924.265.336.784.336m5.319.77v-7h1.078v.49q.238-.14.588-.28.364-.14.77-.238.406-.112.784-.112.728 0 1.19.196.462.182.714.602.266.406.364 1.064.112.644.112 1.568V651h-1.092v-3.668q0-.91-.112-1.456-.098-.546-.42-.784-.308-.252-.952-.252-.35 0-.728.084a4 4 0 0 0-.686.196 4 4 0 0 0-.532.224V651zm9.788.154q-.727 0-1.162-.224-.42-.224-.602-.77-.182-.56-.182-1.568v-3.654h-.994V644h.994v-2.142h1.078V644h2.198v.938h-2.198v3.332q0 .742.056 1.162.07.406.28.574t.658.168q.14 0 .364-.014l.448-.028q.238-.029.42-.042l.07.91q-.195.028-.462.056-.265.042-.532.07a4 4 0 0 1-.434.028m5.09-.014q-1.05 0-1.666-.406-.601-.406-.868-1.204-.266-.798-.266-1.988 0-1.33.364-2.128.365-.812 1.022-1.176.659-.378 1.554-.378 1.4 0 2.114.784.714.77.714 2.492l-.056.826h-4.606q.015 1.092.406 1.652.393.56 1.414.56.392 0 .854-.014l.938-.056q.462-.028.784-.056l.028.854q-.336.056-.826.112a17 17 0 0 1-.98.084q-.504.042-.924.042m-1.694-4.06h3.57q0-1.288-.42-1.792-.405-.518-1.316-.518-.588 0-.994.238-.405.224-.63.728-.21.504-.21 1.344m6.215 3.92v-1.638h1.19V651z"/>
    <path fill="#34c759" d="M105.79 673.722v-.868h6.02v.868zm0 2.184v-.882h6.02v.882zm4.228 3.234q-1.035 0-1.708-.308a2.4 2.4 0 0 1-1.05-.91q-.363-.602-.518-1.484a12 12 0 0 1-.154-2.044q0-1.19.154-2.086.155-.896.518-1.484a2.4 2.4 0 0 1 1.05-.91q.672-.308 1.722-.308.477 0 .952.056.476.042.896.112.434.07.728.14l-.042.98a16 16 0 0 0-.728-.112q-.42-.056-.868-.084-.433-.028-.784-.028-.756 0-1.218.224-.462.21-.714.672-.252.448-.35 1.162a14 14 0 0 0-.084 1.666q0 .952.084 1.652.099.7.336 1.148a1.6 1.6 0 0 0 .714.672q.477.224 1.246.224.561 0 1.218-.07.672-.084 1.148-.168l.042.994q-.336.07-.77.14a11.5 11.5 0 0 1-1.82.154m7.485-.14v-7.882l-2.324 1.526-.532-.924 2.954-1.96h1.134V679zm6.882.14-1.162-.336 3.402-7.56v-.378h-4.522v-1.106h5.782v1.54zm8.531 2.94V672h1.176v.49q.224-.14.56-.28a4.2 4.2 0 0 1 .714-.252q.391-.098.756-.098.909 0 1.47.378.56.364.826 1.162.28.785.28 2.016 0 1.372-.322 2.198-.309.812-.994 1.176-.673.35-1.75.35-.42 0-.868-.056-.435-.056-.672-.098v3.094zm2.618-3.976q.742 0 1.162-.266.42-.28.588-.868.182-.601.182-1.554 0-1.372-.406-1.932-.406-.574-1.134-.574-.322 0-.672.084a6 6 0 0 0-.644.196 3 3 0 0 0-.518.238v4.55l.63.084q.42.042.812.042m7.535 1.036q-1.176 0-1.848-.406-.657-.406-.924-1.218-.266-.827-.266-2.1 0-1.204.294-1.988.294-.798.966-1.176.672-.392 1.778-.392 1.12 0 1.792.392.672.378.966 1.176.294.784.294 1.988 0 1.274-.28 2.1-.266.812-.924 1.218-.657.406-1.848.406m0-1.022q.785 0 1.176-.266.392-.28.518-.882.126-.601.126-1.554 0-.938-.168-1.498-.153-.56-.546-.798-.392-.238-1.106-.238-.7 0-1.106.238-.392.238-.56.798-.154.56-.154 1.498 0 .952.126 1.554.126.601.518.882.393.266 1.176.266m4.708.882v-7h1.176v.924a7 7 0 0 1 .658-.392 9 9 0 0 1 .882-.42 4 4 0 0 1 .952-.266v1.19a9 9 0 0 0-.938.252 9 9 0 0 0-.882.336q-.406.182-.672.322V679zm10.169.14q-.335 0-.812-.042a28 28 0 0 1-.91-.098l-.798-.126.07-1.008q.35.042.784.098.448.056.868.098.42.028.686.028.547 0 .91-.098.365-.098.546-.336.196-.238.196-.686 0-.336-.154-.518-.14-.182-.532-.308-.378-.126-1.12-.224a7 7 0 0 1-1.316-.322q-.518-.196-.77-.574-.238-.378-.238-1.078 0-.798.364-1.246.364-.462.952-.644a3.9 3.9 0 0 1 1.232-.196q.406 0 .882.042.477.042.924.112.449.056.77.112l-.028 1.008q-.336-.056-.798-.098a15 15 0 0 0-.896-.084 9 9 0 0 0-.784-.042q-.405 0-.728.084a1 1 0 0 0-.518.308q-.182.21-.182.588a.76.76 0 0 0 .14.476q.14.182.518.308.378.112 1.106.238.868.14 1.386.35.533.21.77.602.238.378.238 1.064 0 .812-.336 1.302t-.952.7q-.601.21-1.47.21m6.829 0q-1.064 0-1.68-.406t-.896-1.204q-.266-.798-.266-1.988 0-1.316.364-2.128.365-.812 1.022-1.176.672-.378 1.596-.378 1.428 0 2.142.784.728.77.728 2.478l-.056.868h-4.578q.014 1.036.392 1.582.379.532 1.372.532.393 0 .868-.014l.938-.056q.477-.028.798-.056l.028.924q-.336.056-.826.112t-1.008.084q-.504.042-.938.042m-1.624-4.088h3.43q0-1.231-.392-1.722-.392-.504-1.274-.504-.573 0-.966.224-.378.223-.588.714-.21.49-.21 1.288m8.426 4.088q-.336 0-.812-.042a28 28 0 0 1-.91-.098l-.798-.126.07-1.008q.35.042.784.098.448.056.868.098.42.028.686.028.546 0 .91-.098.365-.098.546-.336.196-.238.196-.686 0-.336-.154-.518-.14-.182-.532-.308-.378-.126-1.12-.224a7 7 0 0 1-1.316-.322q-.518-.196-.77-.574-.238-.378-.238-1.078 0-.798.364-1.246.364-.462.952-.644a3.9 3.9 0 0 1 1.232-.196q.406 0 .882.042.475.042.924.112.448.056.77.112l-.028 1.008q-.336-.056-.798-.098a15 15 0 0 0-.896-.084 9 9 0 0 0-.784-.042 3 3 0 0 0-.728.084 1 1 0 0 0-.518.308q-.182.21-.182.588a.76.76 0 0 0 .14.476q.14.182.518.308.378.112 1.106.238.869.14 1.386.35.532.21.77.602.238.378.238 1.064 0 .812-.336 1.302t-.952.7q-.601.21-1.47.21m6.535 0q-.335 0-.812-.042a28 28 0 0 1-.91-.098l-.798-.126.07-1.008q.35.042.784.098.448.056.868.098.42.028.686.028.547 0 .91-.098.364-.098.546-.336.196-.238.196-.686 0-.336-.154-.518-.14-.182-.532-.308-.378-.126-1.12-.224a7 7 0 0 1-1.316-.322q-.518-.196-.77-.574-.237-.378-.238-1.078 0-.798.364-1.246.364-.462.952-.644a3.9 3.9 0 0 1 1.232-.196q.406 0 .882.042.477.042.924.112.449.056.77.112l-.028 1.008q-.336-.056-.798-.098a15 15 0 0 0-.896-.084 9 9 0 0 0-.784-.042q-.405 0-.728.084a1 1 0 0 0-.518.308q-.182.21-.182.588a.76.76 0 0 0 .14.476q.14.182.518.308.378.112 1.106.238.868.14 1.386.35.533.21.77.602.238.378.238 1.064 0 .812-.336 1.302t-.952.7q-.602.21-1.47.21m5.877 0q-.993 0-1.512-.546-.504-.546-.504-1.61 0-.7.238-1.134.253-.434.742-.658.504-.224 1.218-.28l2.1-.21v-.574q0-.685-.308-.966t-.896-.28q-.363 0-.854.028-.475.028-.966.07-.476.042-.84.084l-.056-.896q.336-.07.812-.14a16 16 0 0 1 1.008-.112q.532-.056.966-.056.813 0 1.33.238.519.238.756.742.252.49.252 1.274v3.5q.028.294.238.434.21.126.532.168l-.042.924q-.195 0-.392-.014a4 4 0 0 1-.35-.042 3 3 0 0 1-.308-.07 2 2 0 0 1-.378-.168 3 3 0 0 1-.322-.252 7 7 0 0 1-.672.238q-.406.126-.868.21a4.5 4.5 0 0 1-.924.098m.21-.98q.365 0 .756-.056a8 8 0 0 0 1.316-.35v-2.184l-1.946.182q-.601.056-.868.364-.266.294-.266.84 0 .56.252.882.267.322.756.322m1.554-7.672q-.21 0-.476-.098a8 8 0 0 1-.546-.224 11 11 0 0 0-.532-.224 1.1 1.1 0 0 0-.406-.098q-.181 0-.49.196a4.5 4.5 0 0 0-.532.364l-.266-.742a7 7 0 0 1 .378-.322q.225-.168.462-.294a.96.96 0 0 1 .448-.126q.238 0 .504.098.267.098.532.224l.518.21q.239.098.392.098.168 0 .462-.168.309-.182.518-.364l.266.756q-.14.154-.35.322-.195.168-.434.28a1.05 1.05 0 0 1-.448.112m6.467 8.652q-1.176 0-1.848-.406-.659-.406-.924-1.218-.266-.827-.266-2.1 0-1.204.294-1.988.294-.798.966-1.176.672-.392 1.778-.392 1.12 0 1.792.392.672.378.966 1.176.294.784.294 1.988 0 1.274-.28 2.1-.267.812-.924 1.218-.659.406-1.848.406m0-1.022q.783 0 1.176-.266.392-.28.518-.882.126-.601.126-1.554 0-.938-.168-1.498-.154-.56-.546-.798-.393-.238-1.106-.238-.7 0-1.106.238-.392.238-.56.798-.154.56-.154 1.498 0 .952.126 1.554.125.601.518.882.391.266 1.176.266m9.351 1.022q-.993 0-1.512-.546-.504-.546-.504-1.61 0-.7.238-1.134.252-.434.742-.658.504-.224 1.218-.28l2.1-.21v-.574q0-.685-.308-.966t-.896-.28q-.363 0-.854.028-.475.028-.966.07-.476.042-.84.084l-.056-.896q.336-.07.812-.14a16 16 0 0 1 1.008-.112q.532-.056.966-.056.813 0 1.33.238.519.238.756.742.252.49.252 1.274v3.5q.028.294.238.434.21.126.532.168l-.042.924q-.195 0-.392-.014a4 4 0 0 1-.35-.042 3 3 0 0 1-.308-.07 2 2 0 0 1-.378-.168 3 3 0 0 1-.322-.252 7 7 0 0 1-.672.238q-.406.126-.868.21a4.5 4.5 0 0 1-.924.098m.21-.98q.364 0 .756-.056a8 8 0 0 0 1.316-.35v-2.184l-1.946.182q-.601.056-.868.364-.266.294-.266.84 0 .56.252.882.267.322.756.322m7.519.994q-.729 0-1.162-.224-.435-.224-.63-.77-.183-.56-.182-1.568v-3.57h-.966V672h.966v-2.1h1.19v2.1h2.142v1.022h-2.142v3.234q0 .714.056 1.12.07.392.266.56.21.154.644.154.14 0 .35-.014l.448-.028q.237-.028.406-.042l.07.994q-.197.028-.476.056-.267.042-.532.07a4 4 0 0 1-.448.028m5.132-.014q-1.065 0-1.68-.406-.617-.406-.896-1.204-.267-.798-.266-1.988 0-1.316.364-2.128.363-.812 1.022-1.176.672-.378 1.596-.378 1.428 0 2.142.784.728.77.728 2.478l-.056.868h-4.578q.014 1.036.392 1.582.378.532 1.372.532.391 0 .868-.014l.938-.056q.476-.028.798-.056l.028.924q-.337.056-.826.112a18 18 0 0 1-1.008.084q-.504.042-.938.042m-1.624-4.088h3.43q0-1.231-.392-1.722-.393-.504-1.274-.504-.575 0-.966.224-.378.223-.588.714-.21.49-.21 1.288m.504-4.284-.364-.77 3.01-1.386.462.994zm11.74 8.358q-.519 0-1.106-.07a32 32 0 0 1-1.106-.154 17 17 0 0 1-.882-.182l.126-.98q.35.056.84.14.504.07 1.022.126.531.042.98.042.924 0 1.456-.518t.532-1.512q0-.672-.238-1.05a1.2 1.2 0 0 0-.644-.546 2.5 2.5 0 0 0-.966-.168q-.406 0-.826.084a5 5 0 0 0-.742.21 3.3 3.3 0 0 0-.56.238l-.826-.154.252-4.872h5.446v1.106h-4.452l-.238 2.828a5 5 0 0 1 .574-.224q.35-.126.742-.21.391-.098.784-.098.91 0 1.568.28.657.266 1.022.868.363.601.364 1.596 0 1.078-.378 1.792a2.43 2.43 0 0 1-1.064 1.078q-.7.35-1.68.35m7.792.014a4.3 4.3 0 0 1-1.442-.224 2.47 2.47 0 0 1-1.078-.756q-.435-.532-.658-1.428t-.224-2.226q0-1.4.21-2.352.223-.952.658-1.512a2.5 2.5 0 0 1 1.078-.798q.63-.238 1.442-.238.84 0 1.47.238t1.05.798q.433.56.658 1.512.224.938.224 2.352 0 1.764-.406 2.772t-1.162 1.442q-.743.42-1.82.42m0-1.078q.517 0 .91-.154.405-.168.672-.56.266-.407.392-1.092.14-.7.14-1.75 0-1.134-.126-1.862-.126-.742-.392-1.176a1.37 1.37 0 0 0-.658-.602 2.2 2.2 0 0 0-.938-.182q-.547 0-.952.182-.393.168-.658.602-.267.42-.406 1.162-.126.742-.126 1.89 0 1.05.14 1.75.14.686.42 1.078t.672.56q.391.154.91.154m7.956.938v-7h1.176v.476a4 4 0 0 1 .56-.28q.336-.14.714-.238t.728-.098q.7 0 1.12.168t.686.532a5.5 5.5 0 0 1 .686-.308 6 6 0 0 1 .868-.28 3.8 3.8 0 0 1 .91-.112q.714 0 1.176.182.477.182.728.588.267.406.378 1.064.112.658.112 1.61V679h-1.19v-3.64q0-.882-.112-1.414-.098-.546-.392-.784-.293-.238-.896-.238-.35 0-.714.084a4.6 4.6 0 0 0-1.148.392q.084.364.112.896.042.518.042 1.078V679h-1.176v-3.584q0-.924-.098-1.47-.097-.546-.406-.784-.294-.238-.91-.238-.335 0-.686.084a3.7 3.7 0 0 0-.616.182 7 7 0 0 0-.476.21v5.6zm11.717 0v-7h1.176v7zm0-8.484v-1.302h1.176v1.302zm3.131 8.484v-7h1.176v.476q.238-.14.588-.28.365-.14.756-.238.406-.098.77-.098.728 0 1.19.196.476.182.728.602.266.406.364 1.064.112.644.112 1.582V679h-1.19v-3.654q0-.882-.112-1.414-.098-.532-.406-.77-.294-.238-.924-.238-.336 0-.7.084a4.5 4.5 0 0 0-1.176.406V679zm9.703.14q-.897 0-1.386-.364-.477-.365-.658-1.134-.168-.784-.168-1.988V672h1.176v3.64q0 .895.084 1.428.098.532.392.77.308.238.896.238t1.078-.154q.49-.168.784-.336V672h1.19v7h-1.19v-.476a6 6 0 0 1-.966.434q-.518.182-1.232.182m7.646.014q-.728 0-1.162-.224t-.63-.77q-.182-.56-.182-1.568v-3.57h-.966V672h.966v-2.1h1.19v2.1h2.142v1.022h-2.142v3.234q0 .714.056 1.12.07.392.266.56.21.154.644.154.14 0 .35-.014l.448-.028q.238-.028.406-.042l.07.994q-.196.028-.476.056-.266.042-.532.07a4 4 0 0 1-.448.028m5.342-.014q-1.176 0-1.848-.406-.659-.406-.924-1.218-.266-.827-.266-2.1 0-1.204.294-1.988.294-.798.966-1.176.672-.392 1.778-.392 1.12 0 1.792.392.672.378.966 1.176.294.784.294 1.988 0 1.274-.28 2.1-.266.812-.924 1.218-.659.406-1.848.406m0-1.022q.785 0 1.176-.266.392-.28.518-.882.126-.601.126-1.554 0-.938-.168-1.498-.154-.56-.546-.798t-1.106-.238q-.7 0-1.106.238-.392.238-.56.798-.154.56-.154 1.498 0 .952.126 1.554.126.601.518.882.392.266 1.176.266m6.933 1.022q-.336 0-.812-.042a28 28 0 0 1-.91-.098l-.798-.126.07-1.008q.35.042.784.098.448.056.868.098.42.028.686.028.546 0 .91-.098t.546-.336q.196-.238.196-.686 0-.336-.154-.518-.14-.182-.532-.308-.378-.126-1.12-.224a7 7 0 0 1-1.316-.322q-.518-.196-.77-.574-.238-.378-.238-1.078 0-.798.364-1.246.364-.462.952-.644a3.9 3.9 0 0 1 1.232-.196q.406 0 .882.042.477.042.924.112.449.056.77.112l-.028 1.008q-.336-.056-.798-.098a15 15 0 0 0-.896-.084 9 9 0 0 0-.784-.042q-.405 0-.728.084a1 1 0 0 0-.518.308q-.182.21-.182.588a.76.76 0 0 0 .14.476q.14.182.518.308.378.112 1.106.238.868.14 1.386.35.533.21.77.602.238.378.238 1.064 0 .812-.336 1.302t-.952.7q-.602.21-1.47.21"/>
    <circle cx="145" cy="720" r="4" fill="#e3e3e3"/>
    <rect width="16" height="8" x="157" y="716" fill="#2d77e3" rx="4"/>
    <circle cx="185" cy="720" r="4" fill="#e3e3e3"/>
    <circle cx="201" cy="720" r="4" fill="#e3e3e3"/>
    <circle cx="217" cy="720" r="4" fill="#e3e3e3"/>
    <circle cx="233" cy="720" r="4" fill="#e3e3e3"/>
    <circle cx="249" cy="720" r="4" fill="#e3e3e3"/>
    <g filter="url(#b)">
      <rect width="361" height="48" x="16" y="756" fill="#2d77e3" rx="12"/>
      <path fill="#fff" d="M167.944 786.176q-1.28 0-2.112-.32a2.87 2.87 0 0 1-1.296-1.024q-.48-.688-.672-1.744-.176-1.072-.176-2.544 0-1.488.176-2.544.192-1.072.672-1.76t1.312-1.024q.847-.336 2.16-.336.528 0 1.104.064t1.104.16q.544.08.928.176l-.064 1.76a8 8 0 0 0-.8-.112 14.72 14.72 0 0 0-1.904-.128q-.768 0-1.248.192t-.752.64q-.256.448-.352 1.168a13 13 0 0 0-.096 1.744q0 1.024.096 1.744.096.703.352 1.152.256.432.736.64.496.192 1.28.192.64 0 1.408-.064.785-.08 1.296-.144l.048 1.744q-.384.08-.912.176-.528.08-1.12.128-.592.064-1.168.064m7.892 0q-1.36 0-2.192-.448-.816-.448-1.184-1.376-.368-.944-.368-2.432 0-1.44.384-2.336.384-.912 1.216-1.344.832-.448 2.144-.448 1.328 0 2.144.448.832.432 1.216 1.344.4.896.4 2.336 0 1.488-.368 2.432-.368.928-1.2 1.376-.816.448-2.192.448m0-1.76q.672 0 1.008-.24.336-.256.448-.8.128-.56.128-1.456 0-.88-.144-1.392-.144-.528-.48-.752t-.96-.224q-.607 0-.96.224-.336.224-.48.752-.144.511-.144 1.392 0 .896.112 1.456.128.544.464.8.336.24 1.008.24m5.216 1.584v-8.032h2.128v.512q.257-.16.624-.304.368-.16.768-.272.416-.112.8-.112.832 0 1.376.224.56.208.88.688t.464 1.264q.144.768.144 1.872V786h-2.144v-4.048q0-.832-.096-1.328-.096-.512-.368-.736t-.8-.224q-.288 0-.608.064-.304.048-.592.144a3 3 0 0 0-.448.192V786zm11.628.192q-.88 0-1.424-.256t-.784-.88q-.224-.64-.224-1.776v-3.536h-.944v-1.776h.944v-2.128h2.128v2.128h2.048v1.776h-2.048v2.976q0 .624.048.976.064.352.256.496t.592.144q.112 0 .336-.016l.448-.032q.225-.016.368-.032l.064 1.712q-.24.048-.592.096-.336.048-.672.08a4 4 0 0 1-.544.048m2.934-.192v-8.032h2.128V786zm0-9.312v-1.824h2.144v1.824zm3.907 9.312v-8.032h2.128v.512a3.7 3.7 0 0 1 .624-.304q.367-.16.768-.272.416-.112.8-.112.831 0 1.376.224.56.208.88.688t.464 1.264q.144.768.144 1.872V786h-2.144v-4.048q0-.832-.096-1.328-.096-.512-.368-.736t-.8-.224q-.288 0-.608.064-.304.048-.592.144a3 3 0 0 0-.448.192V786zm11.403.176q-1.04 0-1.616-.432-.56-.449-.8-1.344-.224-.895-.224-2.256v-4.176h2.128v4.08q0 .847.08 1.344.096.496.368.704.273.208.784.208.496 0 .928-.128t.688-.256v-5.952h2.128V786h-2.112v-.496a7 7 0 0 1-1.088.496q-.528.176-1.264.176m8.318 0q-1.248 0-1.888-.624-.624-.64-.624-1.92 0-.895.32-1.392.32-.512.944-.736.64-.24 1.552-.288l1.952-.176v-.48q0-.576-.288-.8-.288-.24-.848-.24-.449 0-1.04.032a41 41 0 0 0-2.128.176l-.064-1.504q.416-.096.992-.192.591-.112 1.232-.176a12 12 0 0 1 1.184-.064q1.023 0 1.712.256.687.256 1.04.848.352.576.352 1.568v3.664a.48.48 0 0 0 .24.352q.207.112.48.16l-.048 1.472h-.512q-.24.016-.464 0-.225 0-.4-.032a1.9 1.9 0 0 1-.64-.192 1.9 1.9 0 0 1-.416-.304q-.256.112-.688.256a7 7 0 0 1-.944.24 5.3 5.3 0 0 1-1.008.096m.512-1.584q.303 0 .64-.064.336-.064.624-.144.303-.096.48-.176v-1.84l-1.632.144q-.528.048-.768.32-.224.256-.224.736t.208.752q.224.272.672.272m5.767 1.408v-8.032h2.128v.944q.272-.208.672-.432.399-.24.864-.432.48-.208.912-.272v2.064a5 5 0 0 0-.88.224q-.465.144-.88.32a15 15 0 0 0-.688.32V786z"/>
    </g>
    <path fill="#000" d="M60.496 22.945c2.406 0 4.5 1.711 4.5 5.774v.015c0 3.797-1.711 6.047-4.547 6.047-2.07 0-3.617-1.226-3.977-2.953l-.015-.086h1.984l.023.078c.297.79.993 1.305 1.985 1.305 1.789 0 2.547-1.75 2.633-3.906 0-.086.007-.172.007-.258h-.156c-.414.89-1.398 1.68-2.945 1.68-2.164 0-3.68-1.578-3.68-3.72v-.015c0-2.289 1.742-3.96 4.188-3.96m-.008 6.149c1.273 0 2.25-.922 2.25-2.196v-.015c0-1.29-.977-2.297-2.227-2.297a2.227 2.227 0 0 0-2.234 2.25v.016c0 1.304.93 2.242 2.21 2.242m7.734-1.899a1.22 1.22 0 0 1-1.242-1.234c0-.695.532-1.234 1.242-1.234.72 0 1.243.539 1.243 1.234 0 .687-.524 1.234-1.243 1.234m0 5.797c-.71 0-1.242-.539-1.242-1.234s.532-1.235 1.242-1.235c.72 0 1.243.54 1.243 1.235s-.524 1.234-1.243 1.234m8.696 1.508v-2.164h-5.516v-1.648c1.461-2.54 3.063-5.133 4.594-7.461h2.852v7.445h1.515v1.664h-1.515V34.5zm-3.64-3.781h3.671v-5.883h-.117a117 117 0 0 0-3.554 5.766zM84.715 34.5v-9.29h-.133l-2.804 1.985v-1.898l2.945-2.07h2.008V34.5z"/>
    <rect width="125" height="37" x="134" y="11" fill="#000" rx="18.5"/>
    <rect width="80" height="37" x="134" y="11" fill="#000" rx="18.5"/>
    <rect width="37" height="37" x="222" y="11" fill="#000" rx="18.5"/>
    <g fill="#000">
      <path d="M291.299 26a1 1 0 0 1 1-1h1a1 1 0 0 1 1 1v8a1 1 0 0 1-1 1h-1a1 1 0 0 1-1-1zM296.299 24a1 1 0 0 1 1-1h1a1 1 0 0 1 1 1v10a1 1 0 0 1-1 1h-1a1 1 0 0 1-1-1zM286.299 29.5a1 1 0 0 1 1-1h1a1 1 0 0 1 1 1V34a1 1 0 0 1-1 1h-1a1 1 0 0 1-1-1zM281.299 32a1 1 0 0 1 1-1h1a1 1 0 0 1 1 1v2a1 1 0 0 1-1 1h-1a1 1 0 0 1-1-1z"/>
    </g>
    <path fill="#000" d="M313.415 31.919a3.75 3.75 0 0 1 4.918 0 .36.36 0 0 1 .011.52l-2.223 2.29a.343.343 0 0 1-.494 0l-2.223-2.29a.36.36 0 0 1 .011-.52m-3.006-2.74a7.85 7.85 0 0 1 10.855 0 .37.37 0 0 1 .005.521l-1.285 1.325a.34.34 0 0 1-.483.007 5.4 5.4 0 0 0-3.666-1.442 5.4 5.4 0 0 0-3.664 1.442.34.34 0 0 1-.482-.007l-1.285-1.325a.37.37 0 0 1 .005-.521m-3.002-2.737a11.95 11.95 0 0 1 16.785 0 .368.368 0 0 1 .003.518l-1.286 1.326a.34.34 0 0 1-.483.004 9.51 9.51 0 0 0-6.627-2.702 9.52 9.52 0 0 0-6.627 2.702.337.337 0 0 1-.482-.004l-1.287-1.325a.373.373 0 0 1 .004-.519"/>
    <path stroke="#000" d="M336.299 23.5h17a3.5 3.5 0 0 1 3.5 3.5v5a3.5 3.5 0 0 1-3.5 3.5h-17a3.5 3.5 0 0 1-3.5-3.5v-5a3.5 3.5 0 0 1 3.5-3.5Z" opacity=".35"/>
    <path fill="#000" d="M358.299 28v4.22a2.29 2.29 0 0 0 0-4.22" opacity=".4"/>
    <path fill="#000" d="M334.299 27a2 2 0 0 1 2-2h17a2 2 0 0 1 2 2v5a2 2 0 0 1-2 2h-17a2 2 0 0 1-2-2z"/>
    <rect width="330" height="330" x="32" y="192" fill="#f1f6fd" rx="165"/>
    <g clip-path="url(#c)">
      <path fill="#090814" d="M167.321 293.151a10.1 10.1 0 0 1 6.078-4.504 10 10 0 0 1 .835-1.635 24.1 24.1 0 0 1-2.321-6.081c-1.668-7.241-.144-15.363-3.95-21.756-3.727-6.26-12.533-8.919-19.133-5.775a13.5 13.5 0 0 0-2.801 1.816c-2.833-3.4-6.207-6.308-10.138-8.337-7.062-3.641-16.046-4.067-22.804.098-6.348 3.91-9.996 11.535-9.65 18.951.274 5.84 2.875 11.429 6.863 15.744-1.478 3.302-1.691 7.285-.38 10.687 2.395 6.214 8.658 10.338 15.186 11.801s13.343.655 19.937-.484 13.197-2.611 19.887-2.455q.672.016 1.339.057a10 10 0 0 1 1.052-8.127"/>
      <path fill="#fdc65d" d="M179.639 302.05a10.2 10.2 0 0 1-3.579-2.055 10.08 10.08 0 0 1-2.661-11.346 10.13 10.13 0 0 0-5.278 3.328 10.02 10.02 0 0 0-.758 11.799 10.1 10.1 0 0 0 4.81 3.969 155 155 0 0 1 7.466-5.695M162.353 430.596c-.102-.394.11-.912.645-.969l.527-.053a370 370 0 0 0 5.794-13.354 63 63 0 0 1-6.254-1.063 29.2 29.2 0 0 1-14.854-8.297c-3.561-3.71-6.387-8.245-8.933-12.691-1.851-3.232-3.555-6.549-5.155-9.918a.65.65 0 0 1-.297.145c-2.032.43-5.943 1.561-7.087-.902-.943-2.026-1.773-4.116-2.578-6.197-3.143-8.14-5.644-16.637-6.532-25.336-.091-.902 1.326-.893 1.417 0 .814 7.978 3.066 15.789 5.845 23.293a127 127 0 0 0 2.734 6.779c.152.345.302 1.001.591 1.268.395.363 1.279.259 1.764.242 1.169-.038 2.324-.268 3.464-.509a.715.715 0 0 1 .852.526c3.666-.868 8.473-2.521 13.594-4.767 4.452-1.953 8.408-4.036 11.415-5.932a.71.71 0 0 1 .217-.968c1.415-.929 2.851-1.896 4.033-3.115.539-.554 1.011-1.054.827-1.729-.371-1.364-1.072-2.722-1.609-4.026-2.483-6.04-5.312-11.955-8.619-17.597-.462-.785.763-1.493 1.217-.711 3.575 6.089 6.575 12.496 9.222 19.034.455 1.127 1.427 2.754 1.306 3.828-.102.913-.836 1.695-1.461 2.32-1.241 1.244-2.734 2.255-4.199 3.216l-.031.012c2.035 4.211 4.219 8.374 6.804 12.272a28 28 0 0 0 1.796 2.118q1.15.374 2.333.638c2.8.331 5.642.393 8.474.317a491 491 0 0 0 7.805-25.657 41.7 41.7 0 0 1 4.941-11.21c-4.652-1.005-8.888-4.209-13.093-10.362a.597.597 0 0 1-.473.112c-3.744 5.291-6.43 8.943-6.818 9.405-1.612 1.937-8.346-.937-15.042-6.431-6.697-5.494-10.819-11.522-9.209-13.464.335-.402 2.175-2.429 5.045-5.357-17.631-2.34-30.934-1.372-31.803 2.817-13.932 36.869-21.955 91.754-21.955 91.754-.297 2.409 4.201 5.188 11.835 7.819 6.36 2.191 14.895 4.278 24.673 5.957 4.738-.657 14.206-1.907 26.832-3.257"/>
      <path fill="#da7861" d="M156.944 344.327c6.697 5.494 13.431 8.374 15.043 6.431.385-.462 3.07-4.116 6.818-9.405a.6.6 0 0 1-.352-.214 30.4 30.4 0 0 1-6.302-13.636c-.162-.887 1.203-1.265 1.366-.374a29 29 0 0 0 5.938 13.013c.318.394.139.872-.178 1.099 4.207 6.153 8.442 9.357 13.094 10.362a41.5 41.5 0 0 1 7.89-9.193 5 5 0 0 1 2.01-3.397 5.03 5.03 0 0 1 3.861-.889c1.127-.68 2.287-1.3 3.47-1.874.288-.856.861-1.661 1.422-2.326a9.2 9.2 0 0 1 2.435-2.009c.793-.453 1.505.765.715 1.21a7.9 7.9 0 0 0-2.345 2.034l-.086.121a42.5 42.5 0 0 1 7.021-2.248 8.4 8.4 0 0 1 .793-3.846c.162-.346.662-.431.974-.253.352.205.415.62.254.969a6.6 6.6 0 0 0-.615 2.852 42 42 0 0 1 8.158-.746c-5.282-8.877-1.415-21.733-1.415-21.733-17.508 5.611-24.742-8.632-24.742-8.632-13.028 2.59-14.611-5.18-14.611-5.18a51 51 0 0 1 5.512-4.028 10.1 10.1 0 0 0-1.492-5.3 10.2 10.2 0 0 0-4.056-3.747 10.26 10.26 0 0 0-10.627.795 10.16 10.16 0 0 0-3.445 4.308 10.1 10.1 0 0 0 1.612 10.475 10.2 10.2 0 0 0 4.585 3.085 162 162 0 0 0-7.466 5.69c-7.897 6.4-14.912 13.196-19.393 17.761-2.869 2.929-4.709 4.955-5.044 5.357-1.62 1.946 2.501 7.973 9.198 13.468m36.161-8.173c-.233.304-.609.464-.974.252-.303-.175-.487-.66-.255-.968a7.75 7.75 0 0 0 1.191-7.199c-.295-.862 1.075-1.227 1.366-.374.951 2.763.448 5.963-1.318 8.289zm17.164-8.379a2158 2158 0 0 0-2.8 3.349c-.867 1.033-1.689 2.137-2.635 3.099-.876.893-1.988 1.416-3.258 1.354-1.242-.061-2.399-.544-3.52-1.039-.832-.369-.11-1.582.715-1.216.988.437 2.076.903 3.179.847 1.124-.057 1.837-.847 2.513-1.651 1.61-1.909 3.207-3.827 4.811-5.741.578-.697 1.575.304.995.998m-4.243-14.358a7.47 7.47 0 0 0 2.777 3.656 7.54 7.54 0 0 0 4.401 1.359c.913-.007.912 1.402 0 1.409a9 9 0 0 1-5.251-1.657 8.93 8.93 0 0 1-3.287-4.396c-.302-.858 1.068-1.224 1.36-.371m-2.069 5.528a7.9 7.9 0 0 0-2.344 2.029 6.5 6.5 0 0 0-.852 1.405c-.143.338-.307.847.031 1.124.403.336 1.029.198 1.482.074a8.3 8.3 0 0 0 1.512-.575 9.2 9.2 0 0 0 2.617-1.937c.625-.662 1.626.337 1.002.997a10.3 10.3 0 0 1-2.954 2.185c-1.033.505-2.28 1.014-3.449.83-1.228-.195-1.976-1.25-1.779-2.458.174-1.063.897-2.071 1.583-2.877a9.2 9.2 0 0 1 2.435-2.01c.79-.457 1.502.761.71 1.213zm-9.818-5.456a5.86 5.86 0 0 1 2.343 2.463 5.82 5.82 0 0 1-.82 6.437 5.86 5.86 0 0 1-2.886 1.805 5.9 5.9 0 0 1-3.408-.093 5.9 5.9 0 0 1-2.782-1.96 5.812 5.812 0 0 1-.461-6.473 5.86 5.86 0 0 1 3.553-2.74 5.92 5.92 0 0 1 4.461.561m-10.729-25.822c1.66.109 3.349.943 4.084 2.491.388.816-.834 1.53-1.223.711-.435-.915-1.298-1.481-2.26-1.695.244 2.099-.497 4.255-2.123 5.656a.734.734 0 0 1-1.002 0c-.257-.255-.289-.747 0-.996a5 5 0 0 0 1.351-1.809 5.791 5.791 0 0 0 .353-1.166l.028-.154a5.608 5.608 0 0 0 .047-.743c0-.103 0-.207-.011-.311l-.016-.194v-.044a1 1 0 0 1 .008-.316c-1.446.139-2.779.911-3.954 1.717-.753.517-1.461-.704-.715-1.21 1.576-1.09 3.457-2.063 5.433-1.935z"/>
      <path fill="#751614" d="M209.267 326.776c-1.603 1.914-3.201 3.831-4.81 5.741-.676.801-1.389 1.594-2.513 1.651-1.103.054-2.192-.412-3.179-.848-.826-.363-1.548.848-.715 1.217 1.12.495 2.278.978 3.52 1.039 1.27.062 2.382-.461 3.258-1.354.946-.968 1.768-2.066 2.635-3.099l2.8-3.35c.586-.692-.411-1.693-.996-.997M213.204 319.841c.912-.007.913-1.416 0-1.409a7.56 7.56 0 0 1-4.398-1.36 7.5 7.5 0 0 1-2.774-3.655c-.292-.848-1.662-.485-1.366.374a8.92 8.92 0 0 0 3.287 4.394 9 9 0 0 0 5.251 1.656M220.78 329.9c.161-.343.098-.759-.254-.968-.307-.178-.807-.093-.974.253a8.4 8.4 0 0 0-.793 3.846c.464-.105.933-.194 1.402-.283a6.6 6.6 0 0 1 .619-2.848M200.803 319.738c-.683.807-1.406 1.816-1.583 2.877-.197 1.211.552 2.264 1.779 2.459 1.169.184 2.417-.326 3.449-.831a10.3 10.3 0 0 0 2.954-2.185c.625-.66-.376-1.659-1.002-.996a9.2 9.2 0 0 1-2.616 1.937c-.484.24-.991.432-1.513.575-.452.121-1.078.261-1.481-.074-.339-.281-.174-.787-.032-1.125a6.5 6.5 0 0 1 .852-1.404 7.8 7.8 0 0 1 2.34-2.025c.789-.453.077-1.671-.715-1.217a9.1 9.1 0 0 0-2.432 2.009M211.829 335.159a7.85 7.85 0 0 1 2.349-2.028c.79-.451.077-1.669-.715-1.21a9.2 9.2 0 0 0-2.435 2.009c-.561.665-1.135 1.47-1.422 2.326a45 45 0 0 1 2.144-.968zM194.443 327.87c-.291-.847-1.661-.484-1.366.374a7.75 7.75 0 0 1-1.191 7.199c-.231.303-.049.788.255.968.365.212.73.052.974-.252 1.766-2.331 2.269-5.531 1.328-8.289"/>
      <path fill="#fcc65d" d="M186.125 315.668a5.81 5.81 0 0 0 .461 6.473 5.898 5.898 0 0 0 9.076.248 5.81 5.81 0 0 0 .819-6.437 5.85 5.85 0 0 0-2.343-2.463 5.9 5.9 0 0 0-4.46-.561 5.88 5.88 0 0 0-3.553 2.74"/>
      <path fill="#e37a35" d="M206.129 338.124a5.05 5.05 0 0 0-3.861.889 4.989 4.989 0 0 0-2.01 3.397 42 42 0 0 1 5.871-4.286"/>
      <path fill="#751614" d="M177.975 289.598c-.745.511-.038 1.732.714 1.21 1.175-.806 2.508-1.573 3.955-1.718a1 1 0 0 0-.009.316v.045l.016.194c0 .104.01.208.011.311a6 6 0 0 1-.046.743l-.028.154a5.91 5.91 0 0 1-.274.975 2 2 0 0 1-.079.191q-.073.16-.155.315a6 6 0 0 1-.344.566q-.367.518-.853.928c-.288.249-.257.741 0 .996a.734.734 0 0 0 1.002 0c1.627-1.401 2.373-3.557 2.124-5.656.962.218 1.826.783 2.259 1.695.39.819 1.611.105 1.224-.711-.731-1.548-2.424-2.382-4.085-2.491-1.973-.12-3.854.853-5.432 1.937M179.452 340.142a29 29 0 0 1-5.94-13.013c-.163-.891-1.528-.513-1.366.374a30.4 30.4 0 0 0 6.302 13.635.59.59 0 0 0 .825.103c.317-.227.496-.705.179-1.099"/>
      <path fill="#da7861" d="M275.234 390.777c9.032-3.24 15.476-6.72 14.975-8.244-.326-1.001-3.579-.938-8.382-.033 6.652-2.702 11.026-5.312 10.614-6.576-.433-1.331-6.019-.785-13.558 1.123 6.478-2.657 10.714-5.206 10.305-6.451-.388-1.193-4.93-.877-11.31.58 2.586-1.431 4.018-2.652 3.775-3.4-.44-1.353-6.219-.763-13.957 1.227a631 631 0 0 1 7.538 21.774"/>
      <path fill="#090814" d="M202.164 301.642s7.235 14.243 24.743 8.632c0 0-3.867 12.855 1.415 21.733q2.203.012 4.393.257a25 25 0 0 0 2.298-3.884c2.276-4.803 3.673-11.922-1.016-20.198-7.959-14.043-21.273-28.127-40.935-15.749a51 51 0 0 0-5.511 4.028s1.591 7.771 14.613 5.181"/>
      <path fill="#000" d="M286.217 449.013c-2.251.787-3.796 2.761-4.364 5.173l-3.401-13.255-7.336 2.5c.015.317-.23.529-.533.586 1.802 6.295.378 13.202-3.483 18.458l.66 1.837 28.246-9.626c-1.637-4.461-5.992-6.999-9.789-5.673"/>
      <path fill="#090814" d="M203.901 426.248a.62.62 0 0 1 .462.163l8.808-19.341c-7.823 2.564-16.981 5.554-21.605 6.588-9.923 2.218-14.955 3.39-22.247 2.564a370 370 0 0 1-5.794 13.354c13.443-1.347 26.872-2.737 40.376-3.328"/>
      <path fill="#090814" d="M228.322 332.012a42 42 0 0 0-8.158.745c-.468.09-.937.178-1.401.284a42.5 42.5 0 0 0-7.02 2.239q-1.085.453-2.144.969a43 43 0 0 0-3.47 1.874 42 42 0 0 0-5.871 4.285 41.57 41.57 0 0 0-12.832 20.405 490 490 0 0 1-7.805 25.657 97 97 0 0 0 4.176-.196c2.526-.256 5.048-.564 7.558-.947 6.17-.939 12.342-2.132 18.375-3.732l.01.018c1.583-.502 3.074-.969 4.272-1.358 5.316-1.711 10.243-2.937 14.015-3.568a281 281 0 0 0-9.318-15.375c-.498-.764.731-1.468 1.218-.71a272 272 0 0 1 9.592 15.859c3.275-.441 5.4-.322 5.66.474.243.748-1.193 1.97-3.774 3.401 6.378-1.453 10.921-1.773 11.309-.58.406 1.244-3.827 3.794-10.304 6.451 7.538-1.909 13.124-2.452 13.557-1.123.412 1.264-3.962 3.874-10.614 6.576 4.803-.906 8.056-.969 8.383.033.398 1.225-3.692 3.712-9.996 6.324l10.497 25.155.138-.033c5.246-.185 10.592.531 15.16 3.261 5.573 3.33 9.077 8.97 11.535 14.799l.045.232 7.336-2.5 10.399-3.545c-4.514-16.949-8.816-31.883-13.617-46.609a650 650 0 0 0-7.529-21.774 707 707 0 0 0-6.75-17.705 28.5 28.5 0 0 0-7.913-11.11 28.7 28.7 0 0 0-12.192-6.193 42 42 0 0 0-8.02-1.717l-.122-.015a42 42 0 0 0-4.385-.251"/>
      <path fill="#090814" d="M270.583 444.017a.765.765 0 0 1-.878-.443c-2.348-5.569-5.762-10.996-11.133-14.104-4.307-2.494-9.292-3.094-14.196-2.923-.5.019-.716-.395-.667-.78a43 43 0 0 0-6.398-.316c-11.301.297-22.33.839-32.733 1.51a.693.693 0 0 1-.677.695c-13.679.606-27.284 2.018-40.909 3.383a.564.564 0 0 1-.645-.443c-12.626 1.35-22.093 2.6-26.832 3.257-9.778-1.679-18.313-3.766-24.673-5.957a61 61 0 0 0 .173 7.842c2.199 25.595 18.947 35.221 39.702 35.258h99.336c7.456 0 13.354-3.51 17.037-8.525 3.871-5.251 5.295-12.16 3.493-18.454"/>
      <path fill="#391c3f" d="M204.363 426.411a.6.6 0 0 0-.462-.163c-13.504.591-26.933 1.981-40.376 3.33l-.527.053c-.534.053-.746.571-.645.968a.56.56 0 0 0 .645.443c13.619-1.364 27.224-2.784 40.909-3.382a.74.74 0 0 0 .639-.473.72.72 0 0 0-.176-.773zM219.933 362.598c-.494-.758-1.722-.053-1.218.71a274 274 0 0 1 9.318 15.375 48 48 0 0 1 1.498-.226 282 282 0 0 0-9.598-15.859"/>
      <path fill="#da7861" d="M191.566 413.659c4.626-1.034 13.782-4.024 21.605-6.588 2.643-.865 5.134-1.684 7.246-2.361l-.051-.099c1.543-.432 2.997-.862 4.262-1.269a120 120 0 0 0 9.115-3.325c6.305-2.611 10.394-5.099 9.996-6.324-.326-1.002-3.579-.939-8.383-.033 6.653-2.702 11.026-5.312 10.615-6.576-.434-1.332-6.02-.786-13.557 1.123 6.477-2.663 10.714-5.205 10.304-6.451-.389-1.193-4.931-.878-11.31.58 2.586-1.431 4.018-2.653 3.774-3.401-.259-.796-2.385-.915-5.66-.474q-.714.094-1.498.226c-3.774.631-8.699 1.857-14.014 3.568-1.198.386-2.694.856-4.273 1.358l-.009-.018c-6.033 1.6-12.206 2.793-18.375 3.732-2.511.383-5.032.691-7.559.947a97 97 0 0 1-4.176.196c-2.832.076-5.667.015-8.474-.317a25 25 0 0 1-2.333-.638 28 28 0 0 1-1.793-2.115c-2.585-3.898-4.769-8.062-6.803-12.272-.375.224-.731.046-.903-.257-3.007 1.896-6.963 3.978-11.415 5.932-5.121 2.246-9.928 3.898-13.594 4.766a.65.65 0 0 1-.176.688c1.6 3.369 3.304 6.686 5.155 9.919 2.546 4.445 5.371 8.98 8.933 12.69a29.2 29.2 0 0 0 14.853 8.297 63 63 0 0 0 6.255 1.063c7.288.827 12.32-.349 22.243-2.567"/>
      <path fill="#fdc65d" d="M134.308 383.567a.72.72 0 0 0-.852-.525c-1.14.242-2.295.47-3.464.508-.487.016-1.369.121-1.764-.242-.289-.266-.439-.923-.591-1.268a125 125 0 0 1-2.734-6.779c-2.784-7.506-5.036-15.314-5.844-23.292-.092-.894-1.509-.902-1.418 0 .888 8.698 3.389 17.19 6.532 25.335.805 2.084 1.636 4.171 2.578 6.198 1.144 2.462 5.055 1.331 7.087.901a.63.63 0 0 0 .474-.832zM160.215 373.125l.03-.012c1.461-.961 2.959-1.972 4.199-3.216.62-.62 1.354-1.407 1.461-2.32.122-1.074-.852-2.701-1.306-3.828-2.653-6.538-5.652-12.945-9.228-19.034-.459-.782-1.683-.074-1.217.711 3.31 5.642 6.14 11.557 8.63 17.6.537 1.304 1.238 2.664 1.609 4.027.184.674-.288 1.174-.826 1.729-1.183 1.219-2.619 2.186-4.034 3.115a.71.71 0 0 0-.217.968c.168.308.524.484.899.26"/>
      <path fill="#391c3f" d="M259.536 428.4c-4.568-2.73-9.914-3.446-15.16-3.26l-.138.032a.67.67 0 0 0-.529.595c-.049.385.166.799.667.78 4.904-.171 9.889.429 14.196 2.923 5.371 3.108 8.785 8.535 11.133 14.104a.765.765 0 0 0 .878.443c.303-.057.548-.269.533-.586l-.045-.232c-2.458-5.829-5.962-11.469-11.535-14.799"/>
    </g>
  </g>
  <defs>
    <clipPath id="a">
      <rect width="393" height="852" fill="#fff" rx="16"/>
    </clipPath>
    <clipPath id="c">
      <path fill="#fff" d="M99 244h197v227H99z"/>
    </clipPath>
    <filter id="b" width="401.8" height="88.8" x="-4.4" y="739.6" color-interpolation-filters="sRGB" filterUnits="userSpaceOnUse">
      <feFlood flood-opacity="0" result="BackgroundImageFix"/>
      <feColorMatrix in="SourceAlpha" result="hardAlpha" values="0 0 0 0 0 0 0 0 0 0 0 0 0 0 0 0 0 0 127 0"/>
      <feOffset dy="4"/>
      <feGaussianBlur stdDeviation="10.2"/>
      <feComposite in2="hardAlpha" operator="out"/>
      <feColorMatrix values="0 0 0 0 0.176471 0 0 0 0 0.466667 0 0 0 0 0.890196 0 0 0 0.16 0"/>
      <feBlend in2="BackgroundImageFix" result="effect1_dropShadow_43_403"/>
      <feBlend in="SourceGraphic" in2="effect1_dropShadow_43_403" result="shape"/>
    </filter>
  </defs>
</svg>
