<svg xmlns="http://www.w3.org/2000/svg" width="393" height="852" fill="none" viewBox="0 0 393 852">
  <g clip-path="url(#a)">
    <rect width="393" height="852" fill="#f7fafd" rx="16"/>
    <path fill="#1b1b1b" d="M43.446 594v-13.66h5.44q1.359 0 2.34.34t1.52 1.1q.56.74.56 2 0 .86-.18 1.46-.16.58-.52 1a3.7 3.7 0 0 1-.9.74q.6.22 1.04.6.46.36.7.98.24.6.24 1.6 0 1.1-.34 1.84a2.84 2.84 0 0 1-.98 1.18q-.62.44-1.46.64-.84.18-1.84.18zm2.76-2.04h2.66q.7 0 1.16-.16.48-.18.72-.62.26-.44.26-1.22 0-.6-.2-.98a1.33 1.33 0 0 0-.52-.56 2.1 2.1 0 0 0-.72-.28 3.7 3.7 0 0 0-.76-.08h-2.6zm0-5.86h2.58q.68 0 1.1-.2.42-.22.62-.64.2-.44.2-1.1 0-.94-.5-1.36-.48-.42-1.52-.42h-2.48zm13.386 8.12q-1.66 0-2.64-.56-.96-.56-1.38-1.7t-.42-2.86q0-1.86.52-3.04.54-1.18 1.56-1.74 1.02-.58 2.52-.58 2.22 0 3.34 1.12 1.14 1.12 1.14 3.54l-.12 1.48h-6.28q.02 1.12.46 1.68t1.52.56q.62 0 1.36-.02l1.46-.08a57 57 0 0 0 1.26-.08l.06 1.86q-.501.08-1.26.18-.76.1-1.58.16-.8.08-1.52.08m-1.76-6.04h3.74q0-1.36-.44-1.9-.42-.54-1.38-.54-.64 0-1.06.24t-.64.78-.22 1.42M66 594v-10.04h2.66v.64q.3-.2.76-.38a7.4 7.4 0 0 1 .96-.34q.52-.14 1-.14.921 0 1.5.26.58.24.96.72.36-.22.9-.44t1.18-.38a5 5 0 0 1 1.24-.16q1.101 0 1.8.3.72.28 1.12.9.4.6.56 1.56.16.94.16 2.28V594h-2.66v-4.98q0-1.04-.12-1.68-.1-.66-.44-.96-.32-.3-.98-.3-.36 0-.76.08a4 4 0 0 0-1.26.4q.1.42.14 1.08.06.66.06 1.38V594h-2.66v-4.94q0-1.06-.12-1.72-.1-.66-.44-.96t-.98-.3q-.36 0-.74.08-.36.06-.68.18-.3.12-.5.22V594zm16.855-4.18v-2.28h6.04v2.28zm9.53 4.18-2.38-10.04h2.86l1.68 7.78h.58l1.72-7.78h2.7L97.165 594zm8.557 0v-10.04h2.66V594zm0-11.64v-2.28h2.68v2.28zm4.883 11.64v-10.04h2.66v.64q.32-.2.78-.38.459-.2.96-.34.52-.14 1-.14 1.04 0 1.72.28.7.26 1.1.86t.58 1.58q.18.96.18 2.34v5.2h-2.68v-5.06q0-1.04-.12-1.66-.12-.64-.46-.92t-1-.28a4 4 0 0 0-.76.08q-.38.06-.74.18-.34.12-.56.24V594zm14.434.22q-.72 0-1.32-.18-.6-.16-1.06-.52a3.4 3.4 0 0 1-.76-.98q-.3-.6-.46-1.46a11.6 11.6 0 0 1-.16-2.04q0-1.72.42-2.9.441-1.18 1.38-1.78.94-.62 2.5-.62.3 0 .7.04.4.02.78.08.38.04.62.08v-4.08h2.68V594h-2.64l-.02-.58a8 8 0 0 1-.74.36q-.44.18-.94.3-.5.14-.98.14m.68-2.24q.36 0 .72-.08a7 7 0 0 0 .7-.18q.34-.12.54-.22v-5.38a3 3 0 0 0-.48-.06 9 9 0 0 0-.62-.06 5 5 0 0 0-.58-.04q-.78 0-1.22.36-.42.36-.6 1.06-.18.68-.18 1.66 0 .86.12 1.44.12.56.34.9.24.32.56.46t.7.14m11.159 2.24q-1.7 0-2.74-.56-1.02-.56-1.48-1.72-.46-1.18-.46-3.04 0-1.8.48-2.92.48-1.14 1.52-1.68 1.04-.56 2.68-.56 1.66 0 2.68.56 1.04.54 1.52 1.68.5 1.12.5 2.92 0 1.86-.46 3.04-.46 1.16-1.5 1.72-1.02.56-2.74.56m0-2.2q.84 0 1.26-.3.42-.32.56-1 .16-.7.16-1.82 0-1.1-.18-1.74-.18-.66-.6-.94t-1.2-.28q-.76 0-1.2.28-.42.28-.6.94-.18.64-.18 1.74 0 1.12.14 1.82.16.68.58 1 .42.3 1.26.3m8.22 4.48a13 13 0 0 1-.7-1.56 23 23 0 0 1-.68-2.04q-.3-1.14-.5-2.38-.18-1.26-.18-2.54t.18-2.58q.2-1.3.5-2.5.32-1.2.68-2.2.36-1.02.7-1.7h2.48a35 35 0 0 0-.6 1.86q-.3 1.08-.56 2.3t-.44 2.46q-.16 1.24-.16 2.36 0 1.1.16 2.3a34 34 0 0 0 1 4.5q.32 1 .6 1.72zm6.447-2.28q-1.56 0-2.36-.78-.78-.8-.78-2.4 0-1.12.4-1.74.4-.64 1.18-.92.8-.3 1.94-.36l2.44-.22v-.6q0-.72-.36-1-.36-.3-1.06-.3-.56 0-1.3.04-.72.04-1.44.1-.7.06-1.22.12l-.08-1.88q.52-.12 1.24-.24a18 18 0 0 1 1.54-.22q.8-.08 1.48-.08 1.28 0 2.14.32t1.3 1.06q.44.72.44 1.96v4.58a.6.6 0 0 0 .3.44q.26.14.6.2l-.06 1.84h-.64q-.3.02-.58 0-.28 0-.5-.04a2.4 2.4 0 0 1-.8-.24 2.4 2.4 0 0 1-.52-.38q-.32.14-.86.32t-1.18.3a6.6 6.6 0 0 1-1.26.12m.64-1.98q.38 0 .8-.08t.78-.18q.38-.12.6-.22v-2.3l-2.04.18q-.66.06-.96.4-.28.32-.28.92t.26.94q.28.34.84.34m9.089 4.22h-2.48q.28-.76.58-1.78.32-1.02.58-2.2t.42-2.4q.18-1.22.18-2.32t-.18-2.32a30 30 0 0 0-.42-2.42q-.26-1.2-.58-2.24-.3-1.06-.58-1.82h2.48q.34.66.7 1.64t.66 2.16q.32 1.16.5 2.46.2 1.28.2 2.54a16.6 16.6 0 0 1-.2 2.56 19.5 19.5 0 0 1-.5 2.42q-.3 1.16-.66 2.12t-.7 1.6m10.876-2.24q-1.56 0-2.36-.78-.78-.8-.78-2.4 0-1.12.4-1.74.4-.64 1.18-.92.8-.3 1.94-.36l2.44-.22v-.6q0-.72-.36-1-.36-.3-1.06-.3-.56 0-1.3.04-.72.04-1.44.1-.7.06-1.22.12l-.08-1.88q.52-.12 1.24-.24a18 18 0 0 1 1.54-.22q.8-.08 1.48-.08 1.28 0 2.14.32t1.3 1.06q.44.72.44 1.96v4.58a.6.6 0 0 0 .3.44q.261.14.6.2l-.06 1.84h-.64q-.3.02-.58 0a3 3 0 0 1-.5-.04 2.4 2.4 0 0 1-.8-.24 2.4 2.4 0 0 1-.52-.38q-.32.14-.86.32t-1.18.3a6.6 6.6 0 0 1-1.26.12m.64-1.98q.38 0 .8-.08t.78-.18q.381-.12.6-.22v-2.3l-2.04.18q-.66.06-.96.4-.28.32-.28.92t.26.94q.28.34.84.34m11.451 1.98q-1.7 0-2.74-.56-1.02-.56-1.48-1.72-.46-1.18-.46-3.04 0-1.8.48-2.92.48-1.14 1.52-1.68 1.04-.56 2.68-.56 1.66 0 2.68.56 1.04.54 1.52 1.68.5 1.12.5 2.92 0 1.86-.46 3.04-.46 1.16-1.5 1.72-1.02.56-2.74.56m0-2.2q.84 0 1.26-.3.42-.32.56-1 .16-.7.16-1.82 0-1.1-.18-1.74-.18-.66-.6-.94t-1.2-.28q-.76 0-1.2.28-.42.28-.6.94-.18.64-.18 1.74 0 1.12.14 1.82.16.68.58 1 .42.3 1.26.3m15.955 2.2q-1.599 0-2.64-.4a3.6 3.6 0 0 1-1.62-1.28q-.6-.86-.84-2.18-.22-1.34-.22-3.18 0-1.86.22-3.18.24-1.34.84-2.2t1.64-1.28q1.06-.42 2.7-.42.66 0 1.38.08t1.38.2q.68.1 1.16.22l-.08 2.2q-.4-.08-1-.14a18 18 0 0 0-2.38-.16q-.96 0-1.56.24t-.94.8q-.32.56-.44 1.46-.12.88-.12 2.18 0 1.28.12 2.18.12.88.44 1.44.32.54.92.8.62.24 1.6.24.8 0 1.76-.08a78 78 0 0 0 1.62-.18l.06 2.18q-.48.1-1.14.22-.66.1-1.4.16-.74.08-1.46.08m5.801-.22v-14.14h2.66V594zm8.14.22q-1.3 0-2.02-.54-.7-.56-1-1.68-.28-1.12-.28-2.82v-5.22h2.66v5.1q0 1.06.1 1.68.12.62.46.88t.98.26q.62 0 1.16-.16t.86-.32v-7.44h2.66V594h-2.64v-.62q-.68.38-1.36.62-.66.22-1.58.22m11.776 0q-.5 0-1.22-.04t-1.48-.12q-.74-.08-1.32-.14v-14.06h2.68v4.42q.3-.12.74-.24t.92-.2q.5-.1.92-.1 1.401 0 2.22.58.84.56 1.2 1.68t.36 2.82q0 2-.46 3.2-.44 1.18-1.54 1.7-1.1.5-3.02.5m.02-2.24q.98 0 1.46-.34.48-.36.64-1.06.18-.7.18-1.72 0-1.04-.16-1.66-.159-.64-.54-.92-.36-.3-1.02-.3-.32 0-.68.08-.36.06-.7.16a6 6 0 0 0-.54.16v5.52q.3.02.7.06.4.02.66.02m10.9 2.24q-1.66 0-2.64-.56-.96-.56-1.38-1.7t-.42-2.86q0-1.86.52-3.04.54-1.18 1.56-1.74 1.02-.58 2.52-.58 2.22 0 3.34 1.12 1.14 1.12 1.14 3.54l-.12 1.48h-6.28q.02 1.12.46 1.68t1.52.56q.62 0 1.36-.02l1.46-.08q.74-.04 1.26-.08l.06 1.86a51 51 0 0 1-1.26.18 27 27 0 0 1-1.58.16q-.8.08-1.52.08m-1.76-6.04h3.74q0-1.36-.44-1.9-.42-.54-1.38-.54-.64 0-1.06.24t-.64.78-.22 1.42m15.904 6.04q-.72 0-1.32-.18-.6-.16-1.06-.52a3.4 3.4 0 0 1-.76-.98q-.3-.6-.46-1.46a11.5 11.5 0 0 1-.16-2.04q0-1.72.42-2.9.44-1.18 1.38-1.78.94-.62 2.5-.62.3 0 .7.04.399.02.78.08.38.04.62.08v-4.08h2.68V594h-2.64l-.02-.58a8 8 0 0 1-.74.36q-.44.18-.94.3-.5.14-.98.14m.68-2.24q.36 0 .72-.08.38-.08.7-.18.339-.12.54-.22v-5.38a3 3 0 0 0-.48-.06 9 9 0 0 0-.62-.06 5 5 0 0 0-.58-.04q-.78 0-1.22.36-.42.36-.6 1.06-.18.68-.18 1.66 0 .86.12 1.44.12.56.34.9a1.4 1.4 0 0 0 .56.46q.32.14.7.14m11.158 2.24q-1.7 0-2.74-.56-1.02-.56-1.48-1.72-.46-1.18-.46-3.04 0-1.8.48-2.92.48-1.14 1.52-1.68 1.04-.56 2.68-.56 1.66 0 2.68.56 1.04.54 1.52 1.68.5 1.12.5 2.92 0 1.86-.46 3.04-.459 1.16-1.5 1.72-1.02.56-2.74.56m0-2.2q.84 0 1.26-.3.42-.32.56-1 .16-.7.16-1.82 0-1.1-.18-1.74-.18-.66-.6-.94t-1.2-.28q-.759 0-1.2.28-.42.28-.6.94-.18.64-.18 1.74 0 1.12.14 1.82.16.68.58 1 .42.3 1.26.3m11.036 1.98v-13.66h2.76V594zm5.133 0v-10.04h2.66v.64q.3-.2.76-.38.459-.2.96-.34.52-.14 1-.14.92 0 1.5.26.579.24.96.72.36-.22.9-.44t1.18-.38 1.24-.16q1.1 0 1.8.3.72.28 1.12.9.4.6.56 1.56.16.94.16 2.28V594h-2.66v-4.98q0-1.04-.12-1.68-.1-.66-.44-.96-.32-.3-.98-.3a4 4 0 0 0-.76.08q-.4.06-.74.18-.32.12-.52.22.1.42.14 1.08.06.66.06 1.38V594h-2.66v-4.94q0-1.06-.12-1.72-.1-.66-.44-.96t-.98-.3q-.36 0-.74.08-.36.06-.68.18-.3.12-.5.22V594zm16.914 0v-10.04h2.66V594zm0-11.64v-2.28h2.68v2.28zm9.302 16.22q-1.6 0-2.68-.24-1.06-.24-1.6-.88-.54-.62-.54-1.8 0-.52.14-.94.16-.4.48-.76.34-.36.84-.74a1.47 1.47 0 0 1-.46-.58 2.3 2.3 0 0 1-.16-.86q0-.16.14-.42.14-.28.34-.58t.38-.54a2.8 2.8 0 0 1-.76-.52q-.36-.36-.6-.96-.22-.6-.22-1.54 0-1.28.48-2.04.501-.76 1.44-1.1.94-.34 2.28-.34.52 0 1.12.08t.96.16l3.26-.06v1.8l-1.52-.02q.18.24.32.62.16.36.16.9 0 1.38-.48 2.14-.46.76-1.4 1.06-.94.28-2.38.28-.16 0-.44-.02a13 13 0 0 0-.46-.06 7 7 0 0 0-.16.46q-.08.24-.08.34 0 .22.08.34.1.12.34.2.26.06.74.08.501.02 1.32.02 1.42 0 2.26.26.86.26 1.22.92t.36 1.86q0 1.78-1.26 2.62-1.24.86-3.46.86m-.14-1.98q1.24 0 1.78-.3.56-.28.56-.94 0-.52-.2-.76-.18-.24-.62-.32a9 9 0 0 0-1.2-.06q-.2 0-.48-.02-.28 0-.58-.02-.28 0-.52-.02a4 4 0 0 0-.32-.02q-.28.2-.46.38-.159.18-.24.36a1.7 1.7 0 0 0-.06.48q0 .46.22.72.22.28.72.4.52.12 1.4.12m-.34-7.78q.92 0 1.3-.36.4-.38.4-1.24t-.4-1.24q-.38-.38-1.3-.38-.88 0-1.28.38-.38.38-.38 1.24t.38 1.24q.4.36 1.28.36m6.724 5.18v-10.04h2.66v1.18q.34-.26.84-.54.501-.3 1.08-.54.6-.26 1.14-.34v2.58a6.4 6.4 0 0 0-1.1.28q-.58.18-1.1.4-.5.22-.86.4V594zm9.73.22q-1.56 0-2.36-.78-.78-.8-.78-2.4 0-1.12.4-1.74.4-.64 1.18-.92.8-.3 1.94-.36l2.44-.22v-.6q0-.72-.36-1-.36-.3-1.06-.3-.56 0-1.3.04-.72.04-1.44.1-.7.06-1.22.12l-.08-1.88q.52-.12 1.24-.24a18 18 0 0 1 1.54-.22q.8-.08 1.48-.08 1.28 0 2.14.32t1.3 1.06q.44.72.44 1.96v4.58a.6.6 0 0 0 .3.44q.26.14.6.2l-.06 1.84h-.64q-.3.02-.58 0-.28 0-.5-.04a2.3 2.3 0 0 1-.8-.24 2.4 2.4 0 0 1-.52-.38q-.32.14-.86.32t-1.18.3q-.621.12-1.26.12m.64-1.98q.38 0 .8-.08t.78-.18q.38-.12.6-.22v-2.3l-2.04.18q-.66.06-.96.4-.28.32-.28.92t.26.94q.279.34.84.34m7.209 1.76v-10.04h2.66v.64q.32-.2.78-.38.459-.2.96-.34.52-.14 1-.14 1.04 0 1.72.28.7.26 1.1.86t.58 1.58q.18.96.18 2.34v5.2h-2.68v-5.06q0-1.04-.12-1.66-.12-.64-.46-.92t-1-.28a4 4 0 0 0-.76.08q-.38.06-.74.18-.34.12-.56.24V594zm14.535.24q-1.1 0-1.78-.32t-.98-1.1q-.28-.8-.28-2.22v-4.42h-1.18v-2.22h1.18v-2.66h2.66v2.66h2.56v2.22h-2.56v3.72q0 .78.06 1.22.08.44.32.62t.74.18q.141 0 .42-.02l.56-.04q.28-.02.46-.04l.08 2.14q-.3.06-.74.12-.42.06-.84.1-.4.06-.68.06m7.728-.02q-1.66 0-2.64-.56-.96-.56-1.38-1.7t-.42-2.86q0-1.86.52-3.04.54-1.18 1.56-1.74 1.02-.58 2.52-.58 2.22 0 3.34 1.12 1.14 1.12 1.14 3.54l-.12 1.48h-6.28q.02 1.12.46 1.68t1.52.56q.62 0 1.36-.02l1.46-.08q.74-.04 1.26-.08l.06 1.86a51 51 0 0 1-1.26.18 27 27 0 0 1-1.58.16q-.8.08-1.52.08m-1.76-6.04h3.74q0-1.36-.44-1.9-.42-.54-1.38-.54-.64 0-1.06.24t-.64.78-.22 1.42"/>
    <path fill="#4c4c4c" d="m53.829 619 4.48-9.8h1.022l4.48 9.8h-1.092l-4.116-9.198h.42L54.907 619zm1.764-2.618.308-.84h5.698l.308.84zm12.487 2.688q-1.05 0-1.89-.476a3.46 3.46 0 0 1-1.302-1.316q-.477-.84-.476-1.96 0-1.106.476-1.946a3.33 3.33 0 0 1 1.302-1.316 3.77 3.77 0 0 1 1.89-.476q.98 0 1.736.434.77.434 1.218 1.274.447.826.448 2.03 0 1.204-.462 2.044a3.2 3.2 0 0 1-1.218 1.274q-.756.434-1.722.434m.07-.882q.783 0 1.4-.35a2.55 2.55 0 0 0 .98-1.008q.364-.659.364-1.512 0-.854-.364-1.498a2.55 2.55 0 0 0-.98-1.008 2.7 2.7 0 0 0-1.4-.364 2.67 2.67 0 0 0-1.386.364 2.7 2.7 0 0 0-.98 1.008q-.364.644-.364 1.498-.001.853.364 1.512.363.644.98 1.008.615.35 1.386.35m2.73 3.528v-4.9l.14-1.484-.098-1.47v-2.212h.952v10.066zm6.8-2.646q-.939 0-1.638-.35a2.5 2.5 0 0 1-1.092-1.05q-.378-.7-.378-1.75v-4.27h.994v4.158q0 1.176.574 1.778.588.588 1.638.588.77 0 1.33-.308.573-.322.868-.924.308-.602.308-1.442v-3.85h.994V619h-.952v-2.016l.154.364a2.75 2.75 0 0 1-1.092 1.274q-.729.448-1.708.448m6.368-.07v-7.35h.994V619zm.504-8.974a.7.7 0 0 1-.518-.21.69.69 0 0 1-.21-.504q0-.294.21-.49.21-.21.518-.21a.73.73 0 0 1 .518.196q.21.196.21.49 0 .308-.21.518a.68.68 0 0 1-.518.21m8.81 8.974-3.262-7.35h1.036l2.996 6.818h-.49l3.038-6.818h.98L94.384 619zm8.489.07q-1.065 0-1.918-.476a3.64 3.64 0 0 1-1.33-1.33q-.49-.854-.49-1.946 0-1.106.49-1.946t1.33-1.316 1.918-.476q1.092 0 1.932.476a3.4 3.4 0 0 1 1.33 1.316q.49.84.49 1.946 0 1.092-.49 1.946a3.5 3.5 0 0 1-1.33 1.33q-.855.476-1.932.476m0-.882q.798 0 1.414-.35.615-.364.966-1.008.363-.659.364-1.512 0-.869-.364-1.512a2.5 2.5 0 0 0-.966-.994 2.7 2.7 0 0 0-1.4-.364q-.785 0-1.4.364a2.57 2.57 0 0 0-.98.994q-.364.643-.364 1.512 0 .853.364 1.512.363.644.98 1.008.615.35 1.386.35m8.833.882q-1.092 0-1.96-.476a3.6 3.6 0 0 1-1.344-1.33q-.49-.854-.49-1.946 0-1.106.49-1.946t1.344-1.316q.868-.476 1.96-.476.938 0 1.694.364.756.365 1.19 1.092l-.742.504a2.34 2.34 0 0 0-.938-.826 2.8 2.8 0 0 0-1.218-.266 2.77 2.77 0 0 0-1.414.364q-.63.35-.994.994-.364.643-.364 1.512t.364 1.512.994 1.008q.63.35 1.414.35.658 0 1.218-.266t.938-.812l.742.504a2.86 2.86 0 0 1-1.19 1.092 3.85 3.85 0 0 1-1.694.364m7.836 0q-1.149 0-2.016-.476a3.57 3.57 0 0 1-1.358-1.33q-.49-.854-.49-1.946t.462-1.932q.475-.84 1.288-1.316a3.55 3.55 0 0 1 1.848-.49q1.035 0 1.834.476a3.27 3.27 0 0 1 1.274 1.316q.462.84.462 1.946a1 1 0 0 1-.014.154v.154h-6.398v-.742h5.866l-.392.294q0-.798-.35-1.414a2.46 2.46 0 0 0-.924-.98q-.588-.35-1.358-.35-.756 0-1.358.35t-.938.98-.336 1.442v.154q0 .84.364 1.484.378.63 1.036.994.671.35 1.526.35.672 0 1.246-.238a2.6 2.6 0 0 0 1.008-.728l.56.644a3.15 3.15 0 0 1-1.232.896 4.1 4.1 0 0 1-1.61.308m-2.59-8.568 1.806-1.736h1.008l1.806 1.736h-.924l-1.778-1.484h.784l-1.778 1.484zm14.703 8.568q-1.148 0-2.016-.476a3.6 3.6 0 0 1-1.358-1.33q-.49-.854-.49-1.946t.462-1.932q.476-.84 1.288-1.316a3.55 3.55 0 0 1 1.848-.49q1.036 0 1.834.476a3.27 3.27 0 0 1 1.274 1.316q.462.84.462 1.946a1 1 0 0 1-.014.154v.154h-6.398v-.742h5.866l-.392.294q0-.798-.35-1.414a2.46 2.46 0 0 0-.924-.98q-.588-.35-1.358-.35-.756 0-1.358.35t-.938.98-.336 1.442v.154q0 .84.364 1.484.378.63 1.036.994.672.35 1.526.35.672 0 1.246-.238a2.6 2.6 0 0 0 1.008-.728l.56.644a3.14 3.14 0 0 1-1.232.896 4.1 4.1 0 0 1-1.61.308m9.079-7.49q.897 0 1.568.35.686.336 1.064 1.036.392.7.392 1.764V619h-.994v-4.172q0-1.162-.588-1.75-.574-.602-1.624-.602-.783 0-1.372.322a2.17 2.17 0 0 0-.896.91q-.308.588-.308 1.428V619h-.994v-7.35h.952v2.016l-.154-.378a2.64 2.64 0 0 1 1.12-1.246q.77-.462 1.834-.462m8.761 7.49q-1.092 0-1.96-.476a3.6 3.6 0 0 1-1.344-1.33q-.49-.854-.49-1.946 0-1.106.49-1.946t1.344-1.316q.868-.476 1.96-.476.938 0 1.694.364.756.365 1.19 1.092l-.742.504a2.34 2.34 0 0 0-.938-.826 2.8 2.8 0 0 0-1.218-.266 2.77 2.77 0 0 0-1.414.364q-.63.35-.994.994-.364.643-.364 1.512t.364 1.512.994 1.008q.63.35 1.414.35.659 0 1.218-.266.56-.266.938-.812l.742.504a2.86 2.86 0 0 1-1.19 1.092 3.85 3.85 0 0 1-1.694.364m7.71 0q-1.065 0-1.918-.476a3.63 3.63 0 0 1-1.33-1.33q-.49-.854-.49-1.946 0-1.106.49-1.946t1.33-1.316 1.918-.476q1.092 0 1.932.476a3.4 3.4 0 0 1 1.33 1.316q.49.84.49 1.946 0 1.092-.49 1.946a3.5 3.5 0 0 1-1.33 1.33q-.855.476-1.932.476m0-.882q.798 0 1.414-.35.615-.364.966-1.008.363-.659.364-1.512 0-.869-.364-1.512a2.5 2.5 0 0 0-.966-.994 2.7 2.7 0 0 0-1.4-.364q-.785 0-1.4.364a2.57 2.57 0 0 0-.98.994q-.364.643-.364 1.512 0 .853.364 1.512.363.644.98 1.008.615.35 1.386.35m9.533-6.608q.896 0 1.568.35.686.336 1.064 1.036.392.7.392 1.764V619h-.994v-4.172q0-1.162-.588-1.75-.574-.602-1.624-.602-.784 0-1.372.322a2.16 2.16 0 0 0-.896.91q-.308.588-.308 1.428V619h-.994v-7.35h.952v2.016l-.154-.378a2.64 2.64 0 0 1 1.12-1.246q.77-.462 1.834-.462m8.033 7.49q-1.037 0-1.596-.56t-.56-1.582v-6.902h.994v6.846q0 .644.322.994.336.35.952.35.659 0 1.092-.378l.35.714a1.8 1.8 0 0 1-.714.392 2.8 2.8 0 0 1-.84.126m-3.472-6.594v-.826h4.55v.826zm6.836 6.524v-7.35h.952v2.002l-.098-.35q.307-.84 1.036-1.274.728-.448 1.806-.448v.966h-.112a.5.5 0 0 0-.112-.014q-1.163 0-1.82.714-.658.7-.658 2.002V619zm9.568 0v-1.624l-.042-.266v-2.716q0-.938-.532-1.442-.517-.504-1.554-.504a3.9 3.9 0 0 0-1.358.238 3.5 3.5 0 0 0-1.092.63l-.448-.742a3.9 3.9 0 0 1 1.344-.728 5.1 5.1 0 0 1 1.652-.266q1.428 0 2.198.714.784.7.784 2.142V619zm-2.534.07q-.825 0-1.442-.266-.602-.28-.924-.756a2 2 0 0 1-.322-1.12q0-.574.266-1.036.28-.476.896-.756.63-.294 1.68-.294h2.534v.742h-2.506q-1.064 0-1.484.378-.406.378-.406.938 0 .63.49 1.008t1.372.378q.84 0 1.442-.378.617-.392.896-1.12l.224.686a2.32 2.32 0 0 1-.98 1.162q-.686.434-1.736.434m6.186-.07v-7.35h.952v2.002l-.098-.35q.309-.84 1.036-1.274.729-.448 1.806-.448v.966h-.112a.5.5 0 0 0-.112-.014q-1.161 0-1.82.714-.657.7-.658 2.002V619zm9.569 0v-1.624l-.042-.266v-2.716q0-.938-.532-1.442-.517-.504-1.554-.504-.714 0-1.358.238a3.5 3.5 0 0 0-1.092.63l-.448-.742q.56-.476 1.344-.728a5.1 5.1 0 0 1 1.652-.266q1.428 0 2.198.714.784.7.784 2.142V619zm-2.534.07q-.826 0-1.442-.266-.601-.28-.924-.756a2 2 0 0 1-.322-1.12q0-.574.266-1.036.28-.476.896-.756.63-.294 1.68-.294h2.534v.742h-2.506q-1.064 0-1.484.378a1.23 1.23 0 0 0-.406.938q0 .63.49 1.008t1.372.378q.84 0 1.442-.378.616-.392.896-1.12l.224.686a2.33 2.33 0 0 1-.98 1.162q-.686.434-1.736.434m-.378-8.568 1.918-1.736h1.33l-2.268 1.736zM208.716 619l-2.772-7.35h.952l2.52 6.818h-.434l2.59-6.818h.854l2.562 6.818h-.434l2.562-6.818h.91L215.24 619h-.938l-2.464-6.412h.294L209.654 619zm13.724.07q-1.149 0-2.016-.476a3.57 3.57 0 0 1-1.358-1.33q-.49-.854-.49-1.946t.462-1.932q.475-.84 1.288-1.316a3.55 3.55 0 0 1 1.848-.49q1.035 0 1.834.476a3.27 3.27 0 0 1 1.274 1.316q.462.84.462 1.946a1 1 0 0 1-.014.154v.154h-6.398v-.742h5.866l-.392.294q0-.798-.35-1.414a2.46 2.46 0 0 0-.924-.98q-.588-.35-1.358-.35-.756 0-1.358.35t-.938.98-.336 1.442v.154q0 .84.364 1.484.378.63 1.036.994.671.35 1.526.35.672 0 1.246-.238a2.6 2.6 0 0 0 1.008-.728l.56.644a3.15 3.15 0 0 1-1.232.896 4.1 4.1 0 0 1-1.61.308m9.121 0a3.5 3.5 0 0 1-1.736-.434 3.2 3.2 0 0 1-1.218-1.288q-.448-.84-.448-2.03 0-1.204.448-2.03.462-.84 1.232-1.274a3.45 3.45 0 0 1 1.722-.434q1.05 0 1.876.476.84.462 1.316 1.302t.476 1.96q0 1.106-.476 1.96-.476.84-1.316 1.316-.826.476-1.876.476m-3.794-.07v-10.388h.994v5.208l-.14 1.484.098 1.484V619zm3.724-.812q.784 0 1.4-.35a2.7 2.7 0 0 0 .98-1.008q.364-.659.364-1.512 0-.869-.364-1.512a2.57 2.57 0 0 0-.98-.994 2.7 2.7 0 0 0-1.4-.364 2.77 2.77 0 0 0-1.414.364 2.57 2.57 0 0 0-.98.994q-.35.643-.35 1.512 0 .853.35 1.512.364.644.98 1.008.63.35 1.414.35m5.764.812v-7.35h.994V619zm.504-8.974a.7.7 0 0 1-.518-.21.69.69 0 0 1-.21-.504q0-.294.21-.49.21-.21.518-.21a.73.73 0 0 1 .518.196q.21.196.21.49 0 .308-.21.518a.68.68 0 0 1-.518.21m7.008 1.554q.896 0 1.568.35.686.336 1.064 1.036.392.7.392 1.764V619h-.994v-4.172q0-1.162-.588-1.75-.574-.602-1.624-.602-.784 0-1.372.322a2.16 2.16 0 0 0-.896.91q-.308.588-.308 1.428V619h-.994v-7.35h.952v2.016l-.154-.378a2.64 2.64 0 0 1 1.12-1.246q.77-.462 1.834-.462m10.315 7.42v-1.624l-.042-.266v-2.716q0-.938-.532-1.442-.518-.504-1.554-.504-.714 0-1.358.238a3.5 3.5 0 0 0-1.092.63l-.448-.742q.56-.476 1.344-.728a5.1 5.1 0 0 1 1.652-.266q1.428 0 2.198.714.784.7.784 2.142V619zm-2.534.07q-.826 0-1.442-.266-.601-.28-.924-.756a2 2 0 0 1-.322-1.12q0-.574.266-1.036.28-.476.896-.756.63-.294 1.68-.294h2.534v.742h-2.506q-1.064 0-1.484.378a1.23 1.23 0 0 0-.406.938q0 .63.49 1.008t1.372.378q.84 0 1.442-.378.616-.392.896-1.12l.224.686a2.33 2.33 0 0 1-.98 1.162q-.686.434-1.736.434m6.186-.07v-7.35h.952v2.002l-.098-.35q.307-.84 1.036-1.274.727-.448 1.806-.448v.966h-.112a.5.5 0 0 0-.112-.014q-1.163 0-1.82.714-.658.7-.658 2.002V619zm7.565.07q-.909 0-1.722-.252-.812-.266-1.274-.658l.448-.784q.449.336 1.148.588a4.5 4.5 0 0 0 1.47.238q1.05 0 1.512-.322.462-.336.462-.882 0-.407-.266-.63a1.53 1.53 0 0 0-.672-.35 7 7 0 0 0-.938-.21q-.517-.084-1.036-.196a4 4 0 0 1-.924-.322 1.95 1.95 0 0 1-.686-.602q-.252-.378-.252-1.008 0-.602.336-1.078t.98-.742q.659-.28 1.596-.28.714 0 1.428.196.714.182 1.176.49l-.434.798a3.2 3.2 0 0 0-1.05-.476 4.2 4.2 0 0 0-1.12-.154q-.993 0-1.47.35-.462.336-.462.868 0 .42.252.658.267.238.686.378.435.126.938.21.519.084 1.022.21.519.112.938.322.435.196.686.574.267.365.266.966 0 .644-.364 1.12-.35.462-1.036.728-.672.252-1.638.252m11.648 0q-1.148 0-2.016-.476a3.6 3.6 0 0 1-1.358-1.33q-.49-.854-.49-1.946t.462-1.932q.477-.84 1.288-1.316a3.55 3.55 0 0 1 1.848-.49q1.036 0 1.834.476.813.462 1.274 1.316.462.84.462 1.946a1 1 0 0 1-.014.154v.154h-6.398v-.742h5.866l-.392.294q0-.798-.35-1.414a2.46 2.46 0 0 0-.924-.98q-.587-.35-1.358-.35-.756 0-1.358.35t-.938.98-.336 1.442v.154q0 .84.364 1.484.379.63 1.036.994.672.35 1.526.35.673 0 1.246-.238a2.6 2.6 0 0 0 1.008-.728l.56.644a3.13 3.13 0 0 1-1.232.896 4.1 4.1 0 0 1-1.61.308m12.114 0q-1.149 0-2.016-.476a3.57 3.57 0 0 1-1.358-1.33q-.49-.854-.49-1.946t.462-1.932q.475-.84 1.288-1.316a3.55 3.55 0 0 1 1.848-.49q1.036 0 1.834.476a3.27 3.27 0 0 1 1.274 1.316q.462.84.462 1.946a1 1 0 0 1-.014.154v.154h-6.398v-.742h5.866l-.392.294q0-.798-.35-1.414a2.46 2.46 0 0 0-.924-.98q-.588-.35-1.358-.35-.756 0-1.358.35t-.938.98-.336 1.442v.154q0 .84.364 1.484.378.63 1.036.994.672.35 1.526.35.672 0 1.246-.238a2.6 2.6 0 0 0 1.008-.728l.56.644a3.15 3.15 0 0 1-1.232.896 4.1 4.1 0 0 1-1.61.308m7.08-.07-3.262-7.35h1.036l2.996 6.818h-.49l3.038-6.818h.98l-3.276 7.35zm8.615.07q-1.148 0-2.016-.476a3.6 3.6 0 0 1-1.358-1.33q-.49-.854-.49-1.946t.462-1.932q.476-.84 1.288-1.316a3.55 3.55 0 0 1 1.848-.49q1.036 0 1.834.476a3.27 3.27 0 0 1 1.274 1.316q.462.84.462 1.946a1 1 0 0 1-.014.154v.154h-6.398v-.742h5.866l-.392.294q0-.798-.35-1.414a2.46 2.46 0 0 0-.924-.98q-.588-.35-1.358-.35-.756 0-1.358.35t-.938.98-.336 1.442v.154q0 .84.364 1.484.378.63 1.036.994.672.35 1.526.35.672 0 1.246-.238a2.6 2.6 0 0 0 1.008-.728l.56.644a3.14 3.14 0 0 1-1.232.896 4.1 4.1 0 0 1-1.61.308m9.079-7.49q.897 0 1.568.35.687.336 1.064 1.036.393.7.392 1.764V619h-.994v-4.172q0-1.162-.588-1.75-.574-.602-1.624-.602-.784 0-1.372.322a2.17 2.17 0 0 0-.896.91q-.308.588-.308 1.428V619h-.994v-7.35h.952v2.016l-.154-.378a2.64 2.64 0 0 1 1.12-1.246q.77-.462 1.834-.462m8.033 7.49q-1.035 0-1.596-.56-.56-.56-.56-1.582v-6.902h.994v6.846q0 .644.322.994.337.35.952.35.659 0 1.092-.378l.35.714a1.8 1.8 0 0 1-.714.392q-.405.126-.84.126m-3.472-6.594v-.826h4.55v.826zm9.572 6.594q-1.064 0-1.918-.476a3.64 3.64 0 0 1-1.33-1.33q-.49-.854-.49-1.946 0-1.106.49-1.946a3.53 3.53 0 0 1 1.33-1.316q.84-.476 1.918-.476 1.092 0 1.932.476a3.4 3.4 0 0 1 1.33 1.316q.49.84.49 1.946 0 1.092-.49 1.946a3.5 3.5 0 0 1-1.33 1.33q-.853.476-1.932.476m0-.882q.798 0 1.414-.35.617-.364.966-1.008.364-.659.364-1.512 0-.869-.364-1.512a2.47 2.47 0 0 0-.966-.994 2.7 2.7 0 0 0-1.4-.364q-.784 0-1.4.364a2.57 2.57 0 0 0-.98.994q-.364.643-.364 1.512 0 .853.364 1.512.364.644.98 1.008.616.35 1.386.35m7.755.882q-.909 0-1.722-.252-.812-.266-1.274-.658l.448-.784q.449.336 1.148.588a4.5 4.5 0 0 0 1.47.238q1.05 0 1.512-.322.462-.336.462-.882 0-.407-.266-.63a1.53 1.53 0 0 0-.672-.35 7 7 0 0 0-.938-.21q-.517-.084-1.036-.196a4 4 0 0 1-.924-.322 1.95 1.95 0 0 1-.686-.602q-.252-.378-.252-1.008 0-.602.336-1.078t.98-.742q.659-.28 1.596-.28.714 0 1.428.196.714.182 1.176.49l-.434.798a3.2 3.2 0 0 0-1.05-.476 4.2 4.2 0 0 0-1.12-.154q-.993 0-1.47.35-.462.336-.462.868 0 .42.252.658.266.238.686.378.435.126.938.21.519.084 1.022.21.519.112.938.322.435.196.686.574.267.365.266.966 0 .644-.364 1.12-.35.462-1.036.728-.672.252-1.638.252m-275.403 20q-1.063 0-1.917-.476a3.64 3.64 0 0 1-1.33-1.33q-.49-.854-.49-1.946 0-1.106.49-1.946t1.33-1.316 1.918-.476q1.091 0 1.931.476a3.4 3.4 0 0 1 1.33 1.316q.49.84.49 1.946 0 1.092-.49 1.946a3.5 3.5 0 0 1-1.33 1.33q-.854.476-1.931.476m0-.882q.798 0 1.414-.35a2.6 2.6 0 0 0 .966-1.008q.364-.659.364-1.512 0-.869-.363-1.512a2.5 2.5 0 0 0-.967-.994 2.7 2.7 0 0 0-1.4-.364q-.783 0-1.4.364-.615.35-.98.994-.363.643-.364 1.512 0 .853.364 1.512.365.644.98 1.008.616.35 1.387.35m9.534-6.608q.896 0 1.568.35.686.336 1.064 1.036.392.7.392 1.764V639h-.994v-4.172q0-1.162-.588-1.75-.574-.602-1.624-.602-.784 0-1.372.322a2.16 2.16 0 0 0-.896.91q-.309.588-.308 1.428V639h-.994v-7.35h.952v2.016l-.154-.378a2.64 2.64 0 0 1 1.12-1.246q.77-.462 1.834-.462m5.709 7.42v-10.388h.994V639zm3.76 0v-7.35h.994V639zm.504-8.974a.7.7 0 0 1-.519-.21.69.69 0 0 1-.21-.504q0-.294.21-.49.21-.21.518-.21t.519.196.21.49q0 .308-.21.518a.68.68 0 0 1-.519.21m7.007 1.554q.897 0 1.568.35.686.336 1.064 1.036.393.7.392 1.764V639h-.994v-4.172q0-1.162-.588-1.75-.574-.602-1.624-.602-.784 0-1.372.322a2.16 2.16 0 0 0-.896.91q-.308.588-.308 1.428V639h-.994v-7.35h.952v2.016l-.154-.378a2.64 2.64 0 0 1 1.12-1.246q.77-.462 1.834-.462m8.831 7.49q-1.148 0-2.016-.476a3.6 3.6 0 0 1-1.358-1.33q-.49-.854-.49-1.946t.462-1.932q.477-.84 1.288-1.316a3.55 3.55 0 0 1 1.848-.49q1.035 0 1.834.476.812.462 1.274 1.316.462.84.462 1.946a1 1 0 0 1-.014.154v.154h-6.398v-.742h5.866l-.392.294q0-.798-.35-1.414a2.46 2.46 0 0 0-.924-.98q-.588-.35-1.358-.35-.756 0-1.358.35t-.938.98-.336 1.442v.154q0 .84.364 1.484.379.63 1.036.994.672.35 1.526.35.672 0 1.246-.238a2.6 2.6 0 0 0 1.008-.728l.56.644a3.14 3.14 0 0 1-1.232.896 4.1 4.1 0 0 1-1.61.308m10.966 0a5.8 5.8 0 0 1-1.722-.252q-.812-.266-1.274-.658l.448-.784q.447.336 1.148.588a4.5 4.5 0 0 0 1.47.238q1.05 0 1.512-.322.462-.336.462-.882 0-.407-.266-.63a1.53 1.53 0 0 0-.672-.35 7 7 0 0 0-.938-.21 20 20 0 0 1-1.036-.196 4 4 0 0 1-.924-.322 1.94 1.94 0 0 1-.686-.602q-.252-.378-.252-1.008 0-.602.336-1.078.335-.476.98-.742.657-.28 1.596-.28.714 0 1.428.196.714.182 1.176.49l-.434.798a3.2 3.2 0 0 0-1.05-.476 4.2 4.2 0 0 0-1.12-.154q-.994 0-1.47.35-.462.336-.462.868 0 .42.252.658.266.238.686.378.434.126.938.21.518.084 1.022.21.518.112.938.322.434.196.686.574.266.365.266.966 0 .644-.364 1.12-.35.462-1.036.728-.672.252-1.638.252m7.857 0a3.9 3.9 0 0 1-1.918-.476 3.64 3.64 0 0 1-1.33-1.33q-.49-.854-.49-1.946 0-1.106.49-1.946a3.53 3.53 0 0 1 1.33-1.316q.84-.476 1.918-.476 1.092 0 1.932.476.855.476 1.33 1.316.49.84.49 1.946 0 1.092-.49 1.946a3.5 3.5 0 0 1-1.33 1.33q-.853.476-1.932.476m0-.882q.799 0 1.414-.35.617-.364.966-1.008.364-.659.364-1.512 0-.869-.364-1.512a2.47 2.47 0 0 0-.966-.994 2.7 2.7 0 0 0-1.4-.364q-.783 0-1.4.364a2.6 2.6 0 0 0-.98.994q-.364.643-.364 1.512 0 .853.364 1.512.365.644.98 1.008.617.35 1.386.35m9.576.882a3.5 3.5 0 0 1-1.736-.434 3.2 3.2 0 0 1-1.218-1.288q-.448-.84-.448-2.03 0-1.204.448-2.03.462-.84 1.232-1.274a3.45 3.45 0 0 1 1.722-.434q1.05 0 1.876.476.84.462 1.316 1.302t.476 1.96q0 1.106-.476 1.96a3.43 3.43 0 0 1-1.316 1.316q-.826.476-1.876.476m-3.794-.07v-10.388h.994v5.208l-.14 1.484.098 1.484V639zm3.724-.812a2.8 2.8 0 0 0 1.4-.35q.615-.364.98-1.008.364-.659.364-1.512 0-.869-.364-1.512a2.6 2.6 0 0 0-.98-.994 2.7 2.7 0 0 0-1.4-.364 2.77 2.77 0 0 0-1.414.364 2.57 2.57 0 0 0-.98.994q-.35.643-.35 1.512 0 .853.35 1.512.363.644.98 1.008.63.35 1.414.35m5.764.812v-7.35h.952v2.002l-.098-.35q.308-.84 1.036-1.274.727-.448 1.806-.448v.966h-.112a.5.5 0 0 0-.112-.014q-1.162 0-1.82.714-.658.7-.658 2.002V639zm8.563.07q-1.148 0-2.016-.476a3.6 3.6 0 0 1-1.358-1.33q-.49-.854-.49-1.946t.462-1.932q.477-.84 1.288-1.316a3.55 3.55 0 0 1 1.848-.49q1.036 0 1.834.476.813.462 1.274 1.316.462.84.462 1.946a1 1 0 0 1-.014.154v.154h-6.398v-.742h5.866l-.392.294q0-.798-.35-1.414a2.46 2.46 0 0 0-.924-.98q-.587-.35-1.358-.35-.755 0-1.358.35-.602.35-.938.98t-.336 1.442v.154q0 .84.364 1.484.379.63 1.036.994.672.35 1.526.35.673 0 1.246-.238a2.6 2.6 0 0 0 1.008-.728l.56.644a3.13 3.13 0 0 1-1.232.896 4.1 4.1 0 0 1-1.61.308m10.966 0a5.8 5.8 0 0 1-1.722-.252q-.812-.266-1.274-.658l.448-.784q.447.336 1.148.588a4.5 4.5 0 0 0 1.47.238q1.05 0 1.512-.322.462-.336.462-.882 0-.407-.266-.63a1.53 1.53 0 0 0-.672-.35 7 7 0 0 0-.938-.21 20 20 0 0 1-1.036-.196 4 4 0 0 1-.924-.322 1.94 1.94 0 0 1-.686-.602q-.252-.378-.252-1.008 0-.602.336-1.078.335-.476.98-.742.657-.28 1.596-.28.714 0 1.428.196.714.182 1.176.49l-.434.798a3.2 3.2 0 0 0-1.05-.476 4.2 4.2 0 0 0-1.12-.154q-.995 0-1.47.35-.462.336-.462.868 0 .42.252.658.266.238.686.378.434.126.938.21.518.084 1.022.21.518.112.938.322.434.196.686.574.266.365.266.966 0 .644-.364 1.12-.35.462-1.036.728-.672.252-1.638.252m9.468-.07v-1.624l-.042-.266v-2.716q0-.938-.532-1.442-.519-.504-1.554-.504-.714 0-1.358.238-.645.239-1.092.63l-.448-.742q.56-.476 1.344-.728a5.1 5.1 0 0 1 1.652-.266q1.427 0 2.198.714.784.7.784 2.142V639zm-2.534.07q-.827 0-1.442-.266-.603-.28-.924-.756a2 2 0 0 1-.322-1.12q0-.574.266-1.036.28-.476.896-.756.63-.294 1.68-.294h2.534v.742h-2.506q-1.065 0-1.484.378a1.23 1.23 0 0 0-.406.938q0 .63.49 1.008t1.372.378q.84 0 1.442-.378.615-.392.896-1.12l.224.686a2.33 2.33 0 0 1-.98 1.162q-.687.434-1.736.434m9.224 0q-.939 0-1.638-.35a2.5 2.5 0 0 1-1.092-1.05q-.378-.7-.378-1.75v-4.27h.994v4.158q0 1.176.574 1.778.588.588 1.638.588.77 0 1.33-.308.574-.322.868-.924.308-.602.308-1.442v-3.85h.994V639h-.952v-2.016l.154.364a2.75 2.75 0 0 1-1.092 1.274q-.729.448-1.708.448m-.658-8.568 1.918-1.736h1.33l-2.268 1.736zm9.952 8.568q-1.05 0-1.89-.476a3.45 3.45 0 0 1-1.302-1.316q-.477-.854-.476-1.96 0-1.12.476-1.96.475-.84 1.302-1.302a3.77 3.77 0 0 1 1.89-.476q.966 0 1.722.434.77.434 1.218 1.274.462.826.462 2.03 0 1.19-.448 2.03a3.2 3.2 0 0 1-1.218 1.288q-.756.434-1.736.434m.07-.882a2.8 2.8 0 0 0 1.4-.35q.63-.364.98-1.008.363-.659.364-1.512 0-.869-.364-1.512a2.46 2.46 0 0 0-.98-.994 2.7 2.7 0 0 0-1.4-.364q-.771 0-1.386.364a2.57 2.57 0 0 0-.98.994q-.364.643-.364 1.512 0 .853.364 1.512.363.644.98 1.008.615.35 1.386.35m2.772.812v-2.212l.098-1.484-.14-1.484v-5.208h.994V639zm6.842.07q-1.148 0-2.016-.476a3.6 3.6 0 0 1-1.358-1.33q-.49-.854-.49-1.946t.462-1.932q.476-.84 1.288-1.316a3.55 3.55 0 0 1 1.848-.49q1.036 0 1.834.476a3.27 3.27 0 0 1 1.274 1.316q.462.84.462 1.946a1 1 0 0 1-.014.154v.154h-6.398v-.742h5.866l-.392.294q0-.798-.35-1.414a2.46 2.46 0 0 0-.924-.98q-.588-.35-1.358-.35-.756 0-1.358.35t-.938.98-.336 1.442v.154q0 .84.364 1.484.378.63 1.036.994.672.35 1.526.35.672 0 1.246-.238a2.6 2.6 0 0 0 1.008-.728l.56.644a3.14 3.14 0 0 1-1.232.896 4.1 4.1 0 0 1-1.61.308m18.175-7.49q.897 0 1.554.35.673.336 1.036 1.036.378.7.378 1.764V639h-.994v-4.172q0-1.162-.56-1.75-.546-.602-1.554-.602-.755 0-1.316.322a2.13 2.13 0 0 0-.854.91q-.294.588-.294 1.428V639H200v-4.172q0-1.162-.56-1.75-.56-.602-1.568-.602-.741 0-1.302.322a2.1 2.1 0 0 0-.868.91q-.294.588-.294 1.428V639h-.994v-7.35h.952v1.988l-.154-.35a2.6 2.6 0 0 1 1.078-1.246q.756-.462 1.778-.462 1.078 0 1.834.546.756.532.98 1.61l-.392-.154a2.88 2.88 0 0 1 1.134-1.442q.827-.56 1.974-.56m8.786 7.49q-1.148 0-2.016-.476a3.6 3.6 0 0 1-1.358-1.33q-.49-.854-.49-1.946t.462-1.932q.476-.84 1.288-1.316a3.55 3.55 0 0 1 1.848-.49q1.036 0 1.834.476a3.27 3.27 0 0 1 1.274 1.316q.462.84.462 1.946a1 1 0 0 1-.014.154v.154h-6.398v-.742h5.866l-.392.294q0-.798-.35-1.414a2.46 2.46 0 0 0-.924-.98q-.588-.35-1.358-.35-.756 0-1.358.35t-.938.98-.336 1.442v.154q0 .84.364 1.484.378.63 1.036.994.672.35 1.526.35.672 0 1.246-.238a2.6 2.6 0 0 0 1.008-.728l.56.644a3.14 3.14 0 0 1-1.232.896 4.1 4.1 0 0 1-1.61.308m9.079-7.49q.897 0 1.568.35.686.336 1.064 1.036.393.7.392 1.764V639h-.994v-4.172q0-1.162-.588-1.75-.573-.602-1.624-.602-.784 0-1.372.322a2.17 2.17 0 0 0-.896.91q-.308.588-.308 1.428V639h-.994v-7.35h.952v2.016l-.154-.378a2.64 2.64 0 0 1 1.12-1.246q.77-.462 1.834-.462m8.033 7.49q-1.037 0-1.596-.56t-.56-1.582v-6.902h.994v6.846q0 .644.322.994.336.35.952.35.658 0 1.092-.378l.35.714a1.8 1.8 0 0 1-.714.392 2.8 2.8 0 0 1-.84.126m-3.472-6.594v-.826h4.55v.826zM237.466 639v-1.624l-.042-.266v-2.716q0-.938-.532-1.442-.519-.504-1.554-.504-.714 0-1.358.238-.645.239-1.092.63l-.448-.742q.56-.476 1.344-.728a5.1 5.1 0 0 1 1.652-.266q1.427 0 2.198.714.783.7.784 2.142V639zm-2.534.07q-.827 0-1.442-.266-.603-.28-.924-.756a2 2 0 0 1-.322-1.12q0-.574.266-1.036.28-.476.896-.756.63-.294 1.68-.294h2.534v.742h-2.506q-1.065 0-1.484.378a1.23 1.23 0 0 0-.406.938q0 .63.49 1.008t1.372.378q.84 0 1.442-.378.615-.392.896-1.12l.224.686a2.33 2.33 0 0 1-.98 1.162q-.687.434-1.736.434m6.185-.07v-10.388h.994V639zm3.158 2.044.616-2.59.112.602a.77.77 0 0 1-.546-.21.74.74 0 0 1-.21-.546q0-.336.21-.546.225-.21.532-.21.323 0 .518.224.21.224.21.532 0 .112-.014.224a1.5 1.5 0 0 1-.056.252 7 7 0 0 1-.112.336l-.588 1.932zm7.233-2.044v-7.35h.994V639zm.504-8.974a.7.7 0 0 1-.518-.21.69.69 0 0 1-.21-.504q0-.294.21-.49.21-.21.518-.21a.73.73 0 0 1 .518.196q.21.196.21.49 0 .308-.21.518a.68.68 0 0 1-.518.21m7.008 1.554q.896 0 1.568.35.686.336 1.064 1.036.392.7.392 1.764V639h-.994v-4.172q0-1.162-.588-1.75-.574-.602-1.624-.602-.784 0-1.372.322a2.16 2.16 0 0 0-.896.91q-.308.588-.308 1.428V639h-.994v-7.35h.952v2.016l-.154-.378a2.64 2.64 0 0 1 1.12-1.246q.77-.462 1.834-.462m8.033 7.49q-1.036 0-1.596-.56t-.56-1.582v-6.902h.994v6.846q0 .644.322.994.336.35.952.35.657 0 1.092-.378l.35.714a1.8 1.8 0 0 1-.714.392 2.8 2.8 0 0 1-.84.126m-3.472-6.594v-.826h4.55v.826zm9.698 6.594q-1.149 0-2.016-.476a3.57 3.57 0 0 1-1.358-1.33q-.49-.854-.49-1.946t.462-1.932q.475-.84 1.288-1.316a3.55 3.55 0 0 1 1.848-.49q1.036 0 1.834.476a3.27 3.27 0 0 1 1.274 1.316q.462.84.462 1.946a1 1 0 0 1-.014.154v.154h-6.398v-.742h5.866l-.392.294q0-.798-.35-1.414a2.46 2.46 0 0 0-.924-.98q-.588-.35-1.358-.35-.756 0-1.358.35t-.938.98-.336 1.442v.154q0 .84.364 1.484.378.63 1.036.994.671.35 1.526.35.672 0 1.246-.238a2.6 2.6 0 0 0 1.008-.728l.56.644a3.15 3.15 0 0 1-1.232.896 4.1 4.1 0 0 1-1.61.308m8.463 2.716a6.3 6.3 0 0 1-1.932-.294q-.924-.294-1.498-.84l.504-.756q.518.462 1.274.728.77.28 1.624.28 1.4 0 2.058-.658.657-.644.658-2.016v-1.834l.14-1.26-.098-1.26v-2.226h.952v6.454q0 1.904-.938 2.786-.924.896-2.744.896m-.182-3.066q-1.05 0-1.89-.448a3.5 3.5 0 0 1-1.33-1.274q-.476-.812-.476-1.862t.476-1.848q.49-.812 1.33-1.26t1.89-.448q.98 0 1.764.406t1.246 1.204.462 1.946-.462 1.946a3.13 3.13 0 0 1-1.246 1.218q-.784.42-1.764.42m.098-.882q.812 0 1.442-.336.63-.35.994-.952.363-.616.364-1.414 0-.798-.364-1.4a2.54 2.54 0 0 0-.994-.938q-.63-.35-1.442-.35-.798 0-1.442.35-.63.336-.994.938-.35.602-.35 1.4t.35 1.414q.364.602.994.952.644.336 1.442.336M288.19 639v-7.35h.952v2.002l-.098-.35q.307-.84 1.036-1.274.728-.448 1.806-.448v.966h-.112a.5.5 0 0 0-.112-.014q-1.163 0-1.82.714-.658.7-.658 2.002V639zm9.569 0v-1.624l-.042-.266v-2.716q0-.938-.532-1.442-.519-.504-1.554-.504-.714 0-1.358.238-.645.239-1.092.63l-.448-.742q.56-.476 1.344-.728a5.1 5.1 0 0 1 1.652-.266q1.428 0 2.198.714.784.7.784 2.142V639zm-2.534.07q-.827 0-1.442-.266-.603-.28-.924-.756a2 2 0 0 1-.322-1.12q0-.574.266-1.036.28-.476.896-.756.63-.294 1.68-.294h2.534v.742h-2.506q-1.065 0-1.484.378a1.23 1.23 0 0 0-.406.938q0 .63.49 1.008t1.372.378q.84 0 1.442-.378.615-.392.896-1.12l.224.686a2.33 2.33 0 0 1-.98 1.162q-.687.434-1.736.434m9.237 0q-1.092 0-1.96-.476a3.6 3.6 0 0 1-1.344-1.33q-.49-.854-.49-1.946 0-1.106.49-1.946t1.344-1.316q.868-.476 1.96-.476.938 0 1.694.364.756.365 1.19 1.092l-.742.504a2.33 2.33 0 0 0-.938-.826 2.8 2.8 0 0 0-1.218-.266q-.784 0-1.414.364-.63.35-.994.994-.363.643-.364 1.512 0 .869.364 1.512.364.644.994 1.008.63.35 1.414.35.659 0 1.218-.266a2.36 2.36 0 0 0 .938-.812l.742.504a2.86 2.86 0 0 1-1.19 1.092 3.85 3.85 0 0 1-1.694.364m-.588 3.01a2.3 2.3 0 0 1-.644-.084 2.3 2.3 0 0 1-.532-.238l.238-.532q.21.126.434.196.238.07.49.07.42 0 .644-.182a.56.56 0 0 0 .224-.476.57.57 0 0 0-.224-.462q-.21-.182-.644-.182h-.322l.336-1.274h.602l-.21.812q.575.042.882.35.308.322.308.784 0 .56-.448.882-.433.336-1.134.336m10.031-3.08v-1.624l-.042-.266v-2.716q0-.938-.532-1.442-.518-.504-1.554-.504-.714 0-1.358.238a3.5 3.5 0 0 0-1.092.63l-.448-.742q.56-.476 1.344-.728a5.1 5.1 0 0 1 1.652-.266q1.428 0 2.198.714.784.7.784 2.142V639zm-2.534.07q-.826 0-1.442-.266-.602-.28-.924-.756a2 2 0 0 1-.322-1.12q0-.574.266-1.036.28-.476.896-.756.63-.294 1.68-.294h2.534v.742h-2.506q-1.064 0-1.484.378a1.23 1.23 0 0 0-.406.938q0 .63.49 1.008t1.372.378q.84 0 1.442-.378.616-.392.896-1.12l.224.686a2.33 2.33 0 0 1-.98 1.162q-.686.434-1.736.434m1.484-8.652q-.322 0-.574-.14a2.7 2.7 0 0 1-.462-.322 3 3 0 0 0-.392-.336.65.65 0 0 0-.924.084q-.181.238-.21.658h-.602q.028-.7.364-1.12.35-.42.896-.42.322 0 .574.154.266.14.462.336.21.182.392.322.196.14.406.14a.66.66 0 0 0 .518-.224q.197-.238.21-.644h.602q-.014.672-.364 1.092t-.896.42m7.698 8.652q-1.064 0-1.918-.476a3.64 3.64 0 0 1-1.33-1.33q-.49-.854-.49-1.946 0-1.106.49-1.946a3.53 3.53 0 0 1 1.33-1.316q.84-.476 1.918-.476 1.092 0 1.932.476a3.4 3.4 0 0 1 1.33 1.316q.49.84.49 1.946 0 1.092-.49 1.946a3.5 3.5 0 0 1-1.33 1.33q-.853.476-1.932.476m0-.882q.798 0 1.414-.35.616-.364.966-1.008.364-.659.364-1.512 0-.869-.364-1.512a2.47 2.47 0 0 0-.966-.994 2.7 2.7 0 0 0-1.4-.364q-.784 0-1.4.364a2.57 2.57 0 0 0-.98.994q-.364.643-.364 1.512 0 .853.364 1.512.364.644.98 1.008.617.35 1.386.35m12.567.882q-1.148 0-2.016-.476a3.6 3.6 0 0 1-1.358-1.33q-.49-.854-.49-1.946t.462-1.932q.477-.84 1.288-1.316a3.55 3.55 0 0 1 1.848-.49q1.036 0 1.834.476.813.462 1.274 1.316.462.84.462 1.946a1 1 0 0 1-.014.154v.154h-6.398v-.742h5.866l-.392.294q0-.798-.35-1.414a2.46 2.46 0 0 0-.924-.98q-.587-.35-1.358-.35-.756 0-1.358.35t-.938.98-.336 1.442v.154q0 .84.364 1.484.379.63 1.036.994.672.35 1.526.35.673 0 1.246-.238a2.6 2.6 0 0 0 1.008-.728l.56.644a3.13 3.13 0 0 1-1.232.896 4.1 4.1 0 0 1-1.61.308m-269.292 20q-1.05 0-1.89-.476a3.46 3.46 0 0 1-1.302-1.316q-.477-.84-.476-1.96 0-1.106.476-1.946a3.34 3.34 0 0 1 1.302-1.316 3.77 3.77 0 0 1 1.89-.476q.98 0 1.736.434.77.434 1.218 1.274.447.826.448 2.03 0 1.204-.462 2.044a3.2 3.2 0 0 1-1.218 1.274q-.756.434-1.722.434m.07-.882q.783 0 1.4-.35a2.55 2.55 0 0 0 .98-1.008q.364-.659.364-1.512 0-.854-.364-1.498a2.55 2.55 0 0 0-.98-1.008 2.7 2.7 0 0 0-1.4-.364 2.67 2.67 0 0 0-1.386.364q-.617.364-.98 1.008-.364.644-.364 1.498 0 .853.364 1.512.363.644.98 1.008.615.35 1.386.35m2.73 3.528v-4.9l.14-1.484-.098-1.47v-2.212h.952v10.066zm6.8-2.646q-.937 0-1.638-.35a2.5 2.5 0 0 1-1.092-1.05q-.378-.7-.378-1.75v-4.27h.994v4.158q0 1.176.574 1.778.588.588 1.638.588.77 0 1.33-.308.574-.322.868-.924.308-.602.308-1.442v-3.85h.994V659h-.952v-2.016l.154.364a2.75 2.75 0 0 1-1.092 1.274q-.728.448-1.708.448m10.974-.07v-1.624l-.042-.266v-2.716q0-.938-.532-1.442-.517-.504-1.554-.504-.714 0-1.358.238a3.5 3.5 0 0 0-1.092.63l-.448-.742q.56-.476 1.344-.728a5.1 5.1 0 0 1 1.652-.266q1.428 0 2.198.714.784.7.784 2.142V659zm-2.534.07q-.825 0-1.442-.266-.602-.28-.924-.756a2 2 0 0 1-.322-1.12q0-.574.266-1.036.28-.476.896-.756.63-.294 1.68-.294h2.534v.742H82.05q-1.064 0-1.484.378a1.23 1.23 0 0 0-.406.938q0 .63.49 1.008t1.372.378q.84 0 1.442-.378.616-.392.896-1.12l.224.686a2.33 2.33 0 0 1-.98 1.162q-.686.434-1.736.434m6.186-.07v-10.388h.994V659zm3.76 0v-7.35h.994V659zm.504-8.974a.7.7 0 0 1-.518-.21.69.69 0 0 1-.21-.504q0-.294.21-.49.21-.21.518-.21t.518.196.21.49q0 .308-.21.518a.68.68 0 0 1-.518.21m6.182 9.044q-1.05 0-1.89-.476a3.46 3.46 0 0 1-1.302-1.316q-.477-.854-.477-1.96 0-1.12.477-1.96.475-.84 1.301-1.302a3.77 3.77 0 0 1 1.89-.476q.967 0 1.723.434.77.434 1.218 1.274.462.826.461 2.03 0 1.19-.447 2.03a3.2 3.2 0 0 1-1.218 1.288q-.757.434-1.737.434m.07-.882q.783 0 1.4-.35.63-.364.98-1.008.364-.659.364-1.512 0-.869-.364-1.512a2.45 2.45 0 0 0-.98-.994 2.7 2.7 0 0 0-1.4-.364 2.67 2.67 0 0 0-1.386.364q-.617.35-.98.994-.364.643-.364 1.512-.001.853.364 1.512.363.644.98 1.008.615.35 1.386.35m2.772.812v-2.212l.098-1.484-.14-1.484v-5.208h.994V659zm8.326 0v-1.624l-.042-.266v-2.716q0-.938-.532-1.442-.519-.504-1.554-.504-.714 0-1.358.238-.645.239-1.092.63l-.448-.742q.56-.476 1.344-.728a5.1 5.1 0 0 1 1.652-.266q1.427 0 2.198.714.784.7.784 2.142V659zm-2.534.07q-.827 0-1.442-.266-.603-.28-.924-.756a2 2 0 0 1-.322-1.12q0-.574.266-1.036.28-.476.896-.756.63-.294 1.68-.294h2.534v.742h-2.506q-1.064 0-1.484.378a1.23 1.23 0 0 0-.406.938q0 .63.49 1.008t1.372.378q.84 0 1.442-.378.615-.392.896-1.12l.224.686a2.33 2.33 0 0 1-.98 1.162q-.687.434-1.736.434m9.112 0q-1.05 0-1.89-.476a3.45 3.45 0 0 1-1.302-1.316q-.476-.854-.476-1.96 0-1.12.476-1.96t1.302-1.302a3.77 3.77 0 0 1 1.89-.476q.966 0 1.722.434.77.434 1.218 1.274.462.826.462 2.03 0 1.19-.448 2.03a3.2 3.2 0 0 1-1.218 1.288q-.756.434-1.736.434m.07-.882a2.8 2.8 0 0 0 1.4-.35q.63-.364.98-1.008.364-.659.364-1.512 0-.869-.364-1.512a2.46 2.46 0 0 0-.98-.994 2.7 2.7 0 0 0-1.4-.364q-.771 0-1.386.364a2.57 2.57 0 0 0-.98.994q-.364.643-.364 1.512 0 .853.364 1.512.363.644.98 1.008.615.35 1.386.35m2.772.812v-2.212l.098-1.484-.14-1.484v-5.208h.994V659zm6.842.07q-1.147 0-2.016-.476a3.6 3.6 0 0 1-1.358-1.33q-.49-.854-.49-1.946t.462-1.932q.476-.84 1.288-1.316a3.55 3.55 0 0 1 1.848-.49q1.036 0 1.834.476a3.27 3.27 0 0 1 1.274 1.316q.462.84.462 1.946a1 1 0 0 1-.014.154v.154h-6.398v-.742h5.866l-.392.294q0-.798-.35-1.414a2.46 2.46 0 0 0-.924-.98q-.588-.35-1.358-.35-.756 0-1.358.35t-.938.98-.336 1.442v.154q0 .84.364 1.484.378.63 1.036.994.672.35 1.526.35.672 0 1.246-.238a2.6 2.6 0 0 0 1.008-.728l.56.644a3.14 3.14 0 0 1-1.232.896 4.1 4.1 0 0 1-1.61.308m11.917 0q-1.05 0-1.89-.476a3.45 3.45 0 0 1-1.302-1.316q-.476-.854-.476-1.96 0-1.12.476-1.96t1.302-1.302a3.77 3.77 0 0 1 1.89-.476q.966 0 1.722.434.77.434 1.218 1.274.462.826.462 2.03 0 1.19-.448 2.03a3.2 3.2 0 0 1-1.218 1.288q-.756.434-1.736.434m.07-.882q.784 0 1.4-.35.63-.364.98-1.008.364-.659.364-1.512 0-.869-.364-1.512a2.45 2.45 0 0 0-.98-.994 2.7 2.7 0 0 0-1.4-.364q-.77 0-1.386.364a2.57 2.57 0 0 0-.98.994q-.364.643-.364 1.512 0 .853.364 1.512.364.644.98 1.008.616.35 1.386.35m2.772.812v-2.212l.098-1.484-.14-1.484v-5.208h.994V659zm6.842.07q-1.148 0-2.016-.476a3.6 3.6 0 0 1-1.358-1.33q-.49-.854-.49-1.946t.462-1.932q.477-.84 1.288-1.316a3.55 3.55 0 0 1 1.848-.49q1.036 0 1.834.476.813.462 1.274 1.316.462.84.462 1.946a1 1 0 0 1-.014.154v.154h-6.398v-.742h5.866l-.392.294q0-.798-.35-1.414a2.46 2.46 0 0 0-.924-.98q-.587-.35-1.358-.35-.755 0-1.358.35-.602.35-.938.98t-.336 1.442v.154q0 .84.364 1.484.379.63 1.036.994.672.35 1.526.35.672 0 1.246-.238a2.6 2.6 0 0 0 1.008-.728l.56.644a3.13 3.13 0 0 1-1.232.896 4.1 4.1 0 0 1-1.61.308m10.882-.07-3.262-7.35h1.036l2.996 6.818h-.49l3.038-6.818h.98l-3.276 7.35zm5.698 0v-7.35h.994V659zm.504-8.974a.7.7 0 0 1-.518-.21.69.69 0 0 1-.21-.504q0-.294.21-.49.21-.21.518-.21a.73.73 0 0 1 .518.196q.21.196.21.49 0 .308-.21.518a.68.68 0 0 1-.518.21m6.181 9.044q-1.05 0-1.89-.476a3.47 3.47 0 0 1-1.302-1.316q-.476-.854-.476-1.96 0-1.12.476-1.96.477-.84 1.302-1.302a3.77 3.77 0 0 1 1.89-.476q.966 0 1.722.434.771.434 1.218 1.274.462.826.462 2.03 0 1.19-.448 2.03-.447.84-1.218 1.288-.756.434-1.736.434m.07-.882q.785 0 1.4-.35.63-.364.98-1.008.364-.659.364-1.512 0-.869-.364-1.512a2.45 2.45 0 0 0-.98-.994 2.7 2.7 0 0 0-1.4-.364q-.77 0-1.386.364a2.6 2.6 0 0 0-.98.994q-.363.643-.364 1.512 0 .853.364 1.512.365.644.98 1.008.617.35 1.386.35m2.772.812v-2.212l.098-1.484-.14-1.484v-5.208h.994V659zm8.327 0v-1.624l-.042-.266v-2.716q0-.938-.532-1.442-.519-.504-1.554-.504-.714 0-1.358.238-.645.239-1.092.63l-.448-.742q.56-.476 1.344-.728a5.1 5.1 0 0 1 1.652-.266q1.428 0 2.198.714.783.7.784 2.142V659zm-2.534.07q-.827 0-1.442-.266-.603-.28-.924-.756a2 2 0 0 1-.322-1.12q0-.574.266-1.036.28-.476.896-.756.63-.294 1.68-.294h2.534v.742h-2.506q-1.065 0-1.484.378a1.23 1.23 0 0 0-.406.938q0 .63.49 1.008t1.372.378q.84 0 1.442-.378.615-.392.896-1.12l.224.686a2.33 2.33 0 0 1-.98 1.162q-.687.434-1.736.434m6.283 0a.73.73 0 0 1-.532-.224.77.77 0 0 1-.21-.546q0-.336.21-.546.225-.21.532-.21t.518.21q.224.21.224.546a.74.74 0 0 1-.224.546.68.68 0 0 1-.518.224m7.667-5.488h5.18v.882h-5.18zm.112 4.522h5.894V659h-6.93v-9.8h6.72v.896h-5.684zm9.859.896-3.262-7.35h1.036l2.996 6.818h-.49l3.038-6.818h.98l-3.276 7.35zm8.615.07q-1.147 0-2.016-.476a3.6 3.6 0 0 1-1.358-1.33q-.49-.854-.49-1.946t.462-1.932q.476-.84 1.288-1.316a3.55 3.55 0 0 1 1.848-.49q1.036 0 1.834.476a3.27 3.27 0 0 1 1.274 1.316q.462.84.462 1.946a1 1 0 0 1-.014.154v.154h-6.398v-.742h5.866l-.392.294q0-.798-.35-1.414a2.46 2.46 0 0 0-.924-.98q-.588-.35-1.358-.35-.756 0-1.358.35t-.938.98-.336 1.442v.154q0 .84.364 1.484.378.63 1.036.994.672.35 1.526.35.672 0 1.246-.238a2.6 2.6 0 0 0 1.008-.728l.56.644a3.14 3.14 0 0 1-1.232.896 4.1 4.1 0 0 1-1.61.308m9.079-7.49q.897 0 1.568.35.686.336 1.064 1.036.392.7.392 1.764V659h-.994v-4.172q0-1.162-.588-1.75-.574-.602-1.624-.602-.783 0-1.372.322a2.17 2.17 0 0 0-.896.91q-.308.588-.308 1.428V659h-.994v-7.35h.952v2.016l-.154-.378a2.64 2.64 0 0 1 1.12-1.246q.77-.462 1.834-.462m8.033 7.49q-1.037 0-1.596-.56t-.56-1.582v-6.902h.994v6.846q0 .644.322.994.336.35.952.35.658 0 1.092-.378l.35.714a1.8 1.8 0 0 1-.714.392 2.8 2.8 0 0 1-.84.126m-3.472-6.594v-.826h4.55v.826zm9.572 6.594q-1.064 0-1.918-.476a3.64 3.64 0 0 1-1.33-1.33q-.49-.854-.49-1.946 0-1.106.49-1.946a3.53 3.53 0 0 1 1.33-1.316q.84-.476 1.918-.476 1.092 0 1.932.476a3.4 3.4 0 0 1 1.33 1.316q.49.84.49 1.946 0 1.092-.49 1.946a3.5 3.5 0 0 1-1.33 1.33q-.853.476-1.932.476m0-.882q.798 0 1.414-.35.617-.364.966-1.008.364-.659.364-1.512 0-.869-.364-1.512a2.47 2.47 0 0 0-.966-.994 2.7 2.7 0 0 0-1.4-.364q-.784 0-1.4.364a2.57 2.57 0 0 0-.98.994q-.364.643-.364 1.512 0 .853.364 1.512.364.644.98 1.008.617.35 1.386.35m7.755.882q-.909 0-1.722-.252-.812-.266-1.274-.658l.448-.784q.449.336 1.148.588a4.5 4.5 0 0 0 1.47.238q1.05 0 1.512-.322.462-.336.462-.882 0-.407-.266-.63a1.53 1.53 0 0 0-.672-.35 7 7 0 0 0-.938-.21q-.517-.084-1.036-.196a4 4 0 0 1-.924-.322 1.95 1.95 0 0 1-.686-.602q-.252-.378-.252-1.008 0-.602.336-1.078t.98-.742q.659-.28 1.596-.28.714 0 1.428.196.714.182 1.176.49l-.434.798a3.2 3.2 0 0 0-1.05-.476 4.2 4.2 0 0 0-1.12-.154q-.993 0-1.47.35-.462.336-.462.868 0 .42.252.658.266.238.686.378.434.126.938.21.519.084 1.022.21.518.112.938.322.435.196.686.574.266.365.266.966 0 .644-.364 1.12-.35.462-1.036.728-.672.252-1.638.252m8.526-.07v-7.35h.994V659zm.504-8.974a.7.7 0 0 1-.518-.21.69.69 0 0 1-.21-.504q0-.294.21-.49.21-.21.518-.21t.518.196.21.49q0 .308-.21.518a.67.67 0 0 1-.518.21m7.008 1.554q.896 0 1.568.35.686.336 1.064 1.036.392.7.392 1.764V659h-.994v-4.172q0-1.162-.588-1.75-.574-.602-1.624-.602-.784 0-1.372.322a2.16 2.16 0 0 0-.896.91q-.308.588-.308 1.428V659h-.994v-7.35h.952v2.016l-.154-.378a2.64 2.64 0 0 1 1.12-1.246q.77-.462 1.834-.462m8.761 7.49q-1.092 0-1.96-.476a3.6 3.6 0 0 1-1.344-1.33q-.49-.854-.49-1.946 0-1.106.49-1.946t1.344-1.316q.868-.476 1.96-.476.938 0 1.694.364.756.365 1.19 1.092l-.742.504a2.34 2.34 0 0 0-.938-.826 2.8 2.8 0 0 0-1.218-.266 2.77 2.77 0 0 0-1.414.364q-.63.35-.994.994-.364.643-.364 1.512t.364 1.512.994 1.008q.63.35 1.414.35.659 0 1.218-.266.56-.266.938-.812l.742.504a2.86 2.86 0 0 1-1.19 1.092 3.85 3.85 0 0 1-1.694.364m4.727-.07v-10.388h.994V659zm6.798.07q-.938 0-1.638-.35a2.5 2.5 0 0 1-1.092-1.05q-.378-.7-.378-1.75v-4.27h.994v4.158q0 1.176.574 1.778.588.588 1.638.588.77 0 1.33-.308.574-.322.868-.924.308-.602.308-1.442v-3.85h.994V659h-.952v-2.016l.154.364a2.74 2.74 0 0 1-1.092 1.274q-.728.448-1.708.448m6.368-.07v-7.35h.994V659zm-.406-8.498 1.918-1.736h1.33l-2.268 1.736zm7.092 8.568q-1.05 0-1.89-.476a3.45 3.45 0 0 1-1.302-1.316q-.476-.854-.476-1.96 0-1.12.476-1.96t1.302-1.302a3.77 3.77 0 0 1 1.89-.476q.966 0 1.722.434.77.434 1.218 1.274.462.826.462 2.03 0 1.19-.448 2.03a3.2 3.2 0 0 1-1.218 1.288q-.756.434-1.736.434m.07-.882q.784 0 1.4-.35.63-.364.98-1.008.364-.659.364-1.512 0-.869-.364-1.512a2.45 2.45 0 0 0-.98-.994 2.7 2.7 0 0 0-1.4-.364q-.77 0-1.386.364a2.57 2.57 0 0 0-.98.994q-.364.643-.364 1.512 0 .853.364 1.512.364.644.98 1.008.616.35 1.386.35m2.772.812v-2.212l.098-1.484-.14-1.484v-5.208h.994V659zm6.716.07a3.9 3.9 0 0 1-1.918-.476 3.64 3.64 0 0 1-1.33-1.33q-.49-.854-.49-1.946 0-1.106.49-1.946a3.53 3.53 0 0 1 1.33-1.316q.84-.476 1.918-.476 1.092 0 1.932.476.855.476 1.33 1.316.49.84.49 1.946 0 1.092-.49 1.946a3.5 3.5 0 0 1-1.33 1.33q-.853.476-1.932.476m0-.882q.798 0 1.414-.35.616-.364.966-1.008.364-.659.364-1.512 0-.869-.364-1.512a2.47 2.47 0 0 0-.966-.994 2.7 2.7 0 0 0-1.4-.364q-.783 0-1.4.364a2.6 2.6 0 0 0-.98.994q-.364.643-.364 1.512 0 .853.364 1.512.365.644.98 1.008.617.35 1.386.35m7.756.882a5.8 5.8 0 0 1-1.722-.252q-.812-.266-1.274-.658l.448-.784q.447.336 1.148.588a4.5 4.5 0 0 0 1.47.238q1.05 0 1.512-.322.462-.336.462-.882 0-.407-.266-.63a1.53 1.53 0 0 0-.672-.35 7 7 0 0 0-.938-.21 20 20 0 0 1-1.036-.196 4 4 0 0 1-.924-.322 1.94 1.94 0 0 1-.686-.602q-.252-.378-.252-1.008 0-.602.336-1.078.335-.476.98-.742.657-.28 1.596-.28.714 0 1.428.196.714.182 1.176.49l-.434.798a3.2 3.2 0 0 0-1.05-.476 4.2 4.2 0 0 0-1.12-.154q-.995 0-1.47.35-.462.336-.462.868 0 .42.252.658.266.238.686.378.434.126.938.21.518.084 1.022.21.518.112.938.322.434.196.686.574.266.365.266.966 0 .644-.364 1.12-.35.462-1.036.728-.672.252-1.638.252m12.278-7.49q.896 0 1.568.35.686.336 1.064 1.036.392.7.392 1.764V659h-.994v-4.172q0-1.162-.588-1.75-.574-.602-1.624-.602-.784 0-1.372.322a2.16 2.16 0 0 0-.896.91q-.308.588-.308 1.428V659h-.994v-7.35h.952v2.016l-.154-.378a2.63 2.63 0 0 1 1.12-1.246q.77-.462 1.834-.462m10.315 7.42v-1.624l-.042-.266v-2.716q0-.938-.532-1.442-.519-.504-1.554-.504-.714 0-1.358.238-.645.239-1.092.63l-.448-.742q.56-.476 1.344-.728a5.1 5.1 0 0 1 1.652-.266q1.428 0 2.198.714.783.7.784 2.142V659zm-2.534.07q-.827 0-1.442-.266-.603-.28-.924-.756a2 2 0 0 1-.322-1.12q0-.574.266-1.036.28-.476.896-.756.63-.294 1.68-.294h2.534v.742h-2.506q-1.065 0-1.484.378a1.23 1.23 0 0 0-.406.938q0 .63.49 1.008t1.372.378q.84 0 1.442-.378.615-.392.896-1.12l.224.686a2.33 2.33 0 0 1-.98 1.162q-.687.434-1.736.434m-180.752 20q-.909 0-1.722-.252-.812-.266-1.274-.658l.448-.784q.449.336 1.148.588a4.5 4.5 0 0 0 1.47.238q1.05 0 1.512-.322.462-.336.462-.882 0-.407-.266-.63a1.53 1.53 0 0 0-.672-.35 7 7 0 0 0-.938-.21q-.517-.084-1.036-.196a4 4 0 0 1-.924-.322 1.95 1.95 0 0 1-.686-.602q-.252-.378-.252-1.008 0-.602.336-1.078t.98-.742q.659-.28 1.596-.28.714 0 1.428.196.714.182 1.176.49l-.434.798a3.2 3.2 0 0 0-1.05-.476 4.2 4.2 0 0 0-1.12-.154q-.993 0-1.47.35-.462.336-.462.868 0 .42.252.658.267.238.686.378.434.126.938.21.519.084 1.022.21.518.112.938.322.434.196.686.574.266.365.266.966 0 .644-.364 1.12-.35.462-1.036.728-.672.252-1.638.252m7.9 0q-.937 0-1.638-.35a2.53 2.53 0 0 1-1.092-1.05q-.378-.7-.378-1.75v-4.27h.994v4.158q0 1.176.574 1.778.588.588 1.638.588.77 0 1.33-.308.574-.322.868-.924.308-.602.308-1.442v-3.85h.994V679h-.952v-2.016l.154.364a2.74 2.74 0 0 1-1.092 1.274q-.727.448-1.708.448m10.974-.07v-1.624l-.042-.266v-2.716q0-.938-.532-1.442-.517-.504-1.554-.504a3.9 3.9 0 0 0-1.358.238 3.5 3.5 0 0 0-1.092.63l-.448-.742a3.9 3.9 0 0 1 1.344-.728 5.1 5.1 0 0 1 1.652-.266q1.428 0 2.198.714.784.7.784 2.142V679zm-2.534.07q-.825 0-1.442-.266-.602-.28-.924-.756a2 2 0 0 1-.322-1.12q0-.574.266-1.036.28-.476.896-.756.63-.294 1.68-.294h2.534v.742h-2.506q-1.064 0-1.484.378-.406.378-.406.938 0 .63.49 1.008t1.372.378q.84 0 1.442-.378.617-.392.896-1.12l.224.686a2.32 2.32 0 0 1-.98 1.162q-.686.434-1.736.434m14.456-.07v-1.624l-.042-.266v-2.716q0-.938-.532-1.442-.517-.504-1.554-.504a3.9 3.9 0 0 0-1.358.238 3.5 3.5 0 0 0-1.092.63l-.448-.742a3.9 3.9 0 0 1 1.344-.728 5.1 5.1 0 0 1 1.652-.266q1.428 0 2.198.714.784.7.784 2.142V679zm-2.534.07q-.825 0-1.442-.266-.601-.28-.924-.756a2 2 0 0 1-.322-1.12q0-.574.266-1.036.28-.476.896-.756.63-.294 1.68-.294h2.534v.742h-2.506q-1.064 0-1.484.378-.406.378-.406.938 0 .63.49 1.008t1.372.378q.84 0 1.442-.378.617-.392.896-1.12l.224.686a2.32 2.32 0 0 1-.98 1.162q-.686.434-1.736.434m8.16 0a5.8 5.8 0 0 1-1.722-.252q-.812-.266-1.274-.658l.448-.784q.448.336 1.148.588a4.5 4.5 0 0 0 1.47.238q1.05 0 1.512-.322.462-.336.462-.882 0-.407-.266-.63a1.53 1.53 0 0 0-.672-.35 7 7 0 0 0-.938-.21 20 20 0 0 1-1.036-.196 4 4 0 0 1-.924-.322 1.94 1.94 0 0 1-.686-.602q-.252-.378-.252-1.008 0-.602.336-1.078t.98-.742q.658-.28 1.596-.28.714 0 1.428.196.714.182 1.176.49l-.434.798a3.2 3.2 0 0 0-1.05-.476 4.2 4.2 0 0 0-1.12-.154q-.995 0-1.47.35-.462.336-.462.868 0 .42.252.658.266.238.686.378.434.126.938.21.518.084 1.022.21.518.112.938.322.434.196.686.574.266.365.266.966 0 .644-.364 1.12-.35.462-1.036.728-.672.252-1.638.252m6.836 0a5.8 5.8 0 0 1-1.722-.252q-.812-.266-1.274-.658l.448-.784q.448.336 1.148.588a4.5 4.5 0 0 0 1.47.238q1.05 0 1.512-.322.462-.336.462-.882 0-.407-.266-.63a1.53 1.53 0 0 0-.672-.35 7 7 0 0 0-.938-.21 20 20 0 0 1-1.036-.196 4 4 0 0 1-.924-.322 1.94 1.94 0 0 1-.686-.602q-.252-.378-.252-1.008 0-.602.336-1.078t.98-.742q.658-.28 1.596-.28.714 0 1.428.196.714.182 1.176.49l-.434.798a3.2 3.2 0 0 0-1.05-.476 4.2 4.2 0 0 0-1.12-.154q-.995 0-1.47.35-.462.336-.462.868 0 .42.252.658.266.238.686.378.434.126.938.21.518.084 1.022.21.518.112.938.322.434.196.686.574.266.365.266.966 0 .644-.364 1.12-.35.462-1.036.728-.672.252-1.638.252m4.862-.07v-7.35h.994V679zm.504-8.974a.7.7 0 0 1-.518-.21.69.69 0 0 1-.21-.504q0-.294.21-.49.21-.21.518-.21a.73.73 0 0 1 .518.196q.21.196.21.49 0 .308-.21.518a.68.68 0 0 1-.518.21m7.008 1.554q.896 0 1.568.35.686.336 1.064 1.036.392.7.392 1.764V679h-.994v-4.172q0-1.162-.588-1.75-.574-.602-1.624-.602-.784 0-1.372.322a2.16 2.16 0 0 0-.896.91q-.308.588-.308 1.428V679h-.994v-7.35h.952v2.016l-.154-.378a2.63 2.63 0 0 1 1.12-1.246q.77-.462 1.834-.462M214.88 679v-1.624l-.042-.266v-2.716q0-.938-.532-1.442-.519-.504-1.554-.504-.714 0-1.358.238-.645.239-1.092.63l-.448-.742q.56-.476 1.344-.728a5.1 5.1 0 0 1 1.652-.266q1.427 0 2.198.714.784.7.784 2.142V679zm-2.534.07q-.827 0-1.442-.266-.603-.28-.924-.756a2 2 0 0 1-.322-1.12q0-.574.266-1.036.28-.476.896-.756.63-.294 1.68-.294h2.534v.742h-2.506q-1.065 0-1.484.378a1.23 1.23 0 0 0-.406.938q0 .63.49 1.008t1.372.378q.84 0 1.442-.378.615-.392.896-1.12l.224.686a2.33 2.33 0 0 1-.98 1.162q-.687.434-1.736.434m8.51 0q-1.037 0-1.596-.56t-.56-1.582v-6.902h.994v6.846q0 .644.322.994.336.35.952.35.657 0 1.092-.378l.35.714a1.8 1.8 0 0 1-.714.392 2.8 2.8 0 0 1-.84.126m-3.472-6.594v-.826h4.55v.826zm9.873 6.594q-.937 0-1.638-.35a2.5 2.5 0 0 1-1.092-1.05q-.378-.7-.378-1.75v-4.27h.994v4.158q0 1.176.574 1.778.588.588 1.638.588.77 0 1.33-.308.574-.322.868-.924.308-.602.308-1.442v-3.85h.994V679h-.952v-2.016l.154.364a2.74 2.74 0 0 1-1.092 1.274q-.728.448-1.708.448m6.368-.07v-7.35h.952v2.002l-.098-.35q.309-.84 1.036-1.274.729-.448 1.806-.448v.966h-.112a.5.5 0 0 0-.112-.014q-1.161 0-1.82.714-.657.7-.658 2.002V679zm9.569 0v-1.624l-.042-.266v-2.716q0-.938-.532-1.442-.518-.504-1.554-.504-.714 0-1.358.238a3.5 3.5 0 0 0-1.092.63l-.448-.742q.56-.476 1.344-.728a5.1 5.1 0 0 1 1.652-.266q1.428 0 2.198.714.784.7.784 2.142V679zm-2.534.07q-.826 0-1.442-.266-.602-.28-.924-.756a2 2 0 0 1-.322-1.12q0-.574.266-1.036.28-.476.896-.756.63-.294 1.68-.294h2.534v.742h-2.506q-1.064 0-1.484.378a1.23 1.23 0 0 0-.406.938q0 .63.49 1.008t1.372.378q.84 0 1.442-.378.616-.392.896-1.12l.224.686a2.33 2.33 0 0 1-.98 1.162q-.686.434-1.736.434m6.284 0a.73.73 0 0 1-.532-.224.77.77 0 0 1-.21-.546q0-.336.21-.546a.75.75 0 0 1 .532-.21q.308 0 .518.21.224.21.224.546a.74.74 0 0 1-.224.546.68.68 0 0 1-.518.224"/>
    <circle cx="145" cy="720" r="4" fill="#ecf1f8"/>
    <circle cx="161" cy="720" r="4" fill="#ecf1f8"/>
    <rect width="16" height="8" x="173" y="716" fill="#2d77e3" rx="4"/>
    <circle cx="201" cy="720" r="4" fill="#ecf1f8"/>
    <circle cx="217" cy="720" r="4" fill="#ecf1f8"/>
    <circle cx="233" cy="720" r="4" fill="#ecf1f8"/>
    <circle cx="249" cy="720" r="4" fill="#ecf1f8"/>
    <g filter="url(#b)">
      <rect width="361" height="48" x="16" y="756" fill="#2d77e3" rx="12"/>
      <path fill="#fff" d="M167.944 786.176q-1.28 0-2.112-.32a2.87 2.87 0 0 1-1.296-1.024q-.48-.688-.672-1.744-.176-1.072-.176-2.544 0-1.488.176-2.544.192-1.072.672-1.76t1.312-1.024q.847-.336 2.16-.336.528 0 1.104.064t1.104.16q.544.08.928.176l-.064 1.76a8 8 0 0 0-.8-.112 14.72 14.72 0 0 0-1.904-.128q-.768 0-1.248.192t-.752.64q-.256.448-.352 1.168a13 13 0 0 0-.096 1.744q0 1.024.096 1.744.096.703.352 1.152.256.432.736.64.496.192 1.28.192.64 0 1.408-.064.785-.08 1.296-.144l.048 1.744q-.384.08-.912.176-.528.08-1.12.128-.592.064-1.168.064m7.892 0q-1.36 0-2.192-.448-.816-.448-1.184-1.376-.368-.944-.368-2.432 0-1.44.384-2.336.384-.912 1.216-1.344.832-.448 2.144-.448 1.328 0 2.144.448.832.432 1.216 1.344.4.896.4 2.336 0 1.488-.368 2.432-.368.928-1.2 1.376-.816.448-2.192.448m0-1.76q.672 0 1.008-.24.336-.256.448-.8.128-.56.128-1.456 0-.88-.144-1.392-.144-.528-.48-.752t-.96-.224q-.607 0-.96.224-.336.224-.48.752-.144.511-.144 1.392 0 .896.112 1.456.128.544.464.8.336.24 1.008.24m5.216 1.584v-8.032h2.128v.512q.257-.16.624-.304.368-.16.768-.272.416-.112.8-.112.832 0 1.376.224.56.208.88.688t.464 1.264q.144.768.144 1.872V786h-2.144v-4.048q0-.832-.096-1.328-.096-.512-.368-.736t-.8-.224q-.288 0-.608.064-.304.048-.592.144a3 3 0 0 0-.448.192V786zm11.628.192q-.88 0-1.424-.256t-.784-.88q-.224-.64-.224-1.776v-3.536h-.944v-1.776h.944v-2.128h2.128v2.128h2.048v1.776h-2.048v2.976q0 .624.048.976.064.352.256.496t.592.144q.112 0 .336-.016l.448-.032q.225-.016.368-.032l.064 1.712q-.24.048-.592.096-.336.048-.672.08a4 4 0 0 1-.544.048m2.934-.192v-8.032h2.128V786zm0-9.312v-1.824h2.144v1.824zm3.907 9.312v-8.032h2.128v.512a3.7 3.7 0 0 1 .624-.304q.367-.16.768-.272.416-.112.8-.112.831 0 1.376.224.56.208.88.688t.464 1.264q.144.768.144 1.872V786h-2.144v-4.048q0-.832-.096-1.328-.096-.512-.368-.736t-.8-.224q-.288 0-.608.064-.304.048-.592.144a3 3 0 0 0-.448.192V786zm11.403.176q-1.04 0-1.616-.432-.56-.449-.8-1.344-.224-.895-.224-2.256v-4.176h2.128v4.08q0 .847.08 1.344.096.496.368.704.273.208.784.208.496 0 .928-.128t.688-.256v-5.952h2.128V786h-2.112v-.496a7 7 0 0 1-1.088.496q-.528.176-1.264.176m8.318 0q-1.248 0-1.888-.624-.624-.64-.624-1.92 0-.895.32-1.392.32-.512.944-.736.64-.24 1.552-.288l1.952-.176v-.48q0-.576-.288-.8-.288-.24-.848-.24-.449 0-1.04.032a41 41 0 0 0-2.128.176l-.064-1.504q.416-.096.992-.192.591-.112 1.232-.176a12 12 0 0 1 1.184-.064q1.023 0 1.712.256.687.256 1.04.848.352.576.352 1.568v3.664a.48.48 0 0 0 .24.352q.207.112.48.16l-.048 1.472h-.512q-.24.016-.464 0-.225 0-.4-.032a1.9 1.9 0 0 1-.64-.192 1.9 1.9 0 0 1-.416-.304q-.256.112-.688.256a7 7 0 0 1-.944.24 5.3 5.3 0 0 1-1.008.096m.512-1.584q.303 0 .64-.064.336-.064.624-.144.303-.096.48-.176v-1.84l-1.632.144q-.528.048-.768.32-.224.256-.224.736t.208.752q.224.272.672.272m5.767 1.408v-8.032h2.128v.944q.272-.208.672-.432.399-.24.864-.432.48-.208.912-.272v2.064a5 5 0 0 0-.88.224q-.465.144-.88.32a15 15 0 0 0-.688.32V786z"/>
    </g>
    <path fill="#000" d="M60.496 22.945c2.406 0 4.5 1.711 4.5 5.774v.015c0 3.797-1.711 6.047-4.547 6.047-2.07 0-3.617-1.226-3.977-2.953l-.015-.086h1.984l.023.078c.297.79.993 1.305 1.985 1.305 1.789 0 2.547-1.75 2.633-3.906 0-.086.007-.172.007-.258h-.156c-.414.89-1.398 1.68-2.945 1.68-2.164 0-3.68-1.578-3.68-3.72v-.015c0-2.289 1.742-3.96 4.188-3.96m-.008 6.149c1.273 0 2.25-.922 2.25-2.196v-.015c0-1.29-.977-2.297-2.227-2.297a2.227 2.227 0 0 0-2.234 2.25v.016c0 1.304.93 2.242 2.21 2.242m7.734-1.899a1.22 1.22 0 0 1-1.242-1.234c0-.695.532-1.234 1.242-1.234.72 0 1.243.539 1.243 1.234 0 .687-.524 1.234-1.243 1.234m0 5.797c-.71 0-1.242-.539-1.242-1.234s.532-1.235 1.242-1.235c.72 0 1.243.54 1.243 1.235s-.524 1.234-1.243 1.234m8.696 1.508v-2.164h-5.516v-1.648c1.461-2.54 3.063-5.133 4.594-7.461h2.852v7.445h1.515v1.664h-1.515V34.5zm-3.64-3.781h3.671v-5.883h-.117a117 117 0 0 0-3.554 5.766zM84.715 34.5v-9.29h-.133l-2.804 1.985v-1.898l2.945-2.07h2.008V34.5z"/>
    <rect width="125" height="37" x="134" y="11" fill="#000" rx="18.5"/>
    <rect width="80" height="37" x="134" y="11" fill="#000" rx="18.5"/>
    <rect width="37" height="37" x="222" y="11" fill="#000" rx="18.5"/>
    <path fill="#000" d="M291.299 26a1 1 0 0 1 1-1h1a1 1 0 0 1 1 1v8a1 1 0 0 1-1 1h-1a1 1 0 0 1-1-1zM296.299 24a1 1 0 0 1 1-1h1a1 1 0 0 1 1 1v10a1 1 0 0 1-1 1h-1a1 1 0 0 1-1-1zM286.299 29.5a1 1 0 0 1 1-1h1a1 1 0 0 1 1 1V34a1 1 0 0 1-1 1h-1a1 1 0 0 1-1-1zM281.299 32a1 1 0 0 1 1-1h1a1 1 0 0 1 1 1v2a1 1 0 0 1-1 1h-1a1 1 0 0 1-1-1zM313.415 31.919a3.75 3.75 0 0 1 4.918 0 .36.36 0 0 1 .011.52l-2.223 2.29a.343.343 0 0 1-.494 0l-2.223-2.29a.36.36 0 0 1 .011-.52m-3.006-2.74a7.85 7.85 0 0 1 10.855 0 .37.37 0 0 1 .005.521l-1.285 1.325a.34.34 0 0 1-.483.007 5.4 5.4 0 0 0-3.666-1.442 5.4 5.4 0 0 0-3.664 1.442.34.34 0 0 1-.482-.007l-1.285-1.325a.37.37 0 0 1 .005-.521m-3.002-2.737a11.95 11.95 0 0 1 16.785 0 .368.368 0 0 1 .003.518l-1.286 1.326a.34.34 0 0 1-.483.004 9.51 9.51 0 0 0-6.627-2.702 9.52 9.52 0 0 0-6.627 2.702.337.337 0 0 1-.482-.004l-1.287-1.325a.373.373 0 0 1 .004-.519"/>
    <path stroke="#000" d="M336.299 23.5h17a3.5 3.5 0 0 1 3.5 3.5v5a3.5 3.5 0 0 1-3.5 3.5h-17a3.5 3.5 0 0 1-3.5-3.5v-5a3.5 3.5 0 0 1 3.5-3.5Z" opacity=".35"/>
    <path fill="#000" d="M358.299 28v4.22a2.29 2.29 0 0 0 0-4.22" opacity=".4"/>
    <path fill="#000" d="M334.299 27a2 2 0 0 1 2-2h17a2 2 0 0 1 2 2v5a2 2 0 0 1-2 2h-17a2 2 0 0 1-2-2z"/>
    <g clip-path="url(#c)">
      <rect width="330" height="330" x="32" y="192" fill="#f1f6fd" rx="165"/>
      <path fill="url(#d)" d="M125.736 548.455v-34.538l-10.848.882 1.14 32.433-1.14 4.675s7.814 4.057 14.051 6.751c6.236 2.693 7.645-1.347 7.645-1.347z"/>
      <path fill="url(#e)" d="m106.266 547.231-.83-32.433-10.848-.882 1.798 34.677-10.677 8.715s1.408 4.04 7.646 1.347 14.05-6.751 14.05-6.751z"/>
      <path fill="#2d2e5a" d="M123.809 382.331s13.077 8.28 10.492 46.076-6.573 110.586-6.573 110.586h-13.344l-4.514-124.746-2.188-.093.06 124.839H94.398L83.907 425.585s-3.076-25.221 9.283-43.254c-1.753 1.154 16.064-8.412 30.619 0"/>
      <path stroke="#000" stroke-linecap="round" stroke-linejoin="round" stroke-miterlimit="10" stroke-width=".415" d="m115.782 414.238-13.413.614"/>
      <path fill="#fab024" d="M153.635 363.82s-7.247-11.634-12.794-23.95c-2.951-6.553-6.746-8.845-9.65-9.555v-.003l-10.776-2.541-26.04-.757-9.618 2.561c-2.99.339-7.497 2.234-10.893 9.774-5.547 12.317-11.168 26.389-11.168 26.389l10.293 2.768 13.36-19.84a8275 8275 0 0 1 6.84 29.534c15.073-2.574 30.619 0 30.619 0 1.371-7.356 3.094-18.448 4.53-28.105l13.377 18.931z"/>
      <path stroke="#000" stroke-linecap="round" stroke-linejoin="round" stroke-miterlimit="10" stroke-width=".415" d="m128.34 350.094.587-5.827"/>
      <path fill="url(#f)" d="m182.67 345.131 3.466 5.102-33.834 22.686c-3.843 2.478-8.99.738-10.541-3.563a7.11 7.11 0 0 1 3.974-8.983z"/>
      <path fill="#1e0b02" d="M123.809 378.199v4.132s-15.309-1.728-30.619 0v-4.132l15.34-4.448z"/>
      <path fill="url(#g)" d="m113.372 324.552-.866-12.779-8.517-.183-1.188 12.244-8.425 3.179s1.374 6.339 12.543 6.321c13.109-.021 13.496-5.564 13.496-5.564z"/>
      <path stroke="#000" stroke-linecap="round" stroke-linejoin="round" stroke-miterlimit="10" stroke-width=".415" d="m86.586 349.008-1.017-5.405"/>
      <path fill="url(#h)" d="m72.341 364.346-16.553-36.248a9 9 0 0 0-.18-1.403l-.341-1.566a13.75 13.75 0 0 0-2.769-5.742l-2.394-2.941a1.457 1.457 0 0 0-2.224-.042 1.865 1.865 0 0 0-.263 2.071l1.813 3.593-11.59-7.627a1.128 1.128 0 0 0-1.645.405l-.21.404a1.13 1.13 0 0 0 .29 1.399l7.613 5.41-9.604-5.005a1.128 1.128 0 0 0-1.612.506l-.137.306c-.232.52-.04 1.132.448 1.426l8.24 4.902-7.072-2.347a1.127 1.127 0 0 0-1.506.908l-.02.144c-.066.489.194.966.642 1.174l7.173 2.962-4.04-.674a1.128 1.128 0 0 0-.78 2.115l15.323 6.097 8.037 34.462c1.118 4.433 6.068 6.675 10.137 4.589a7.107 7.107 0 0 0 3.224-9.278"/>
      <path stroke="#d6967c" stroke-linecap="round" stroke-linejoin="round" stroke-miterlimit="10" stroke-width=".374" d="M49.431 322.068s-1.194 2.886.79 6.253"/>
      <path fill="url(#i)" d="M108.004 280.385c5.326 0 9.643-4.317 9.643-9.642a9.643 9.643 0 0 0-9.643-9.643c-5.325 0-9.642 4.317-9.642 9.643 0 5.325 4.317 9.642 9.642 9.642"/>
      <path fill="url(#j)" d="M121.673 297.356s2.549-1.981 4.412.371c2.83 3.573-2.123 10.045-6.431 6.713z"/>
      <path fill="#000" d="M121.285 302.534a.224.224 0 0 1-.2-.326c1.608-3.135 3.165-2.686 3.233-2.667a.224.224 0 0 1-.132.429c-.026-.007-1.296-.3-2.703 2.442a.22.22 0 0 1-.198.122"/>
      <path fill="url(#k)" d="M121.056 313.496c-1.662 0-3.473-1.712-3.716-4.985a.446.446 0 0 1 .412-.477.464.464 0 0 1 .477.412c.201 2.702 1.607 4.16 2.828 4.16 1.517 0 2.749-1.744 2.749-3.888 0-2.143-1.233-3.887-2.749-3.887a.446.446 0 1 1 0-.891c2.008 0 3.641 2.144 3.641 4.779-.001 2.634-1.634 4.777-3.642 4.777"/>
      <path fill="url(#l)" d="M94.339 297.356s-2.549-1.981-4.412.371c-2.83 3.573 2.123 10.045 6.43 6.713z"/>
      <path fill="#000" d="M94.727 302.533a.22.22 0 0 1-.198-.121c-1.418-2.763-2.69-2.446-2.705-2.442a.226.226 0 0 1-.276-.152.22.22 0 0 1 .145-.277c.067-.019 1.624-.47 3.233 2.666a.224.224 0 0 1-.199.326"/>
      <path fill="url(#m)" d="M94.956 313.496c-2.008 0-3.642-2.144-3.642-4.779s1.634-4.778 3.642-4.778a.445.445 0 1 1 0 .89c-1.517 0-2.75 1.745-2.75 3.888s1.234 3.887 2.75 3.887c1.186 0 2.947-1.864 2.947-4.437a.445.445 0 1 1 .891 0c0 2.952-2.1 5.329-3.838 5.329"/>
      <path fill="url(#n)" d="M107.917 306.499c9.006 0 16.307-7.12 16.307-15.902s-7.301-15.903-16.307-15.903c-9.007 0-16.308 7.12-16.308 15.903 0 8.782 7.302 15.902 16.308 15.902"/>
      <path fill="#e19a7c" d="M103.617 313.017c.375.207 9.407 6.58 9.407 6.58l-.524-7.962z"/>
      <path fill="url(#o)" d="M121.699 289.41s1.718 24.552-13.219 24.552c-16.156 0-14.461-24.552-14.461-24.552s.09-11.055 13.964-11.055c12.717 0 13.716 11.055 13.716 11.055"/>
      <path fill="url(#p)" d="M112.828 298.007a1.179 1.179 0 1 0 2.357 0 1.179 1.179 0 0 0-2.357 0"/>
      <path fill="url(#q)" d="M101.045 298.007a1.18 1.18 0 1 0 2.358 0 1.18 1.18 0 0 0-2.358 0"/>
      <path fill="#fff" d="M112.34 305.2h-7.449s.503 1.89 3.682 1.89 3.767-1.89 3.767-1.89"/>
      <path stroke="#000" stroke-linecap="round" stroke-linejoin="round" stroke-miterlimit="10" stroke-width=".216" d="M109.258 300.97v1.911l-1.395.026"/>
      <path fill="url(#r)" d="M102.324 291.374s3.025-.589 3.165 1.039c0 0 .071 1.104-2.572 1.549-2.644.446-4.498.566-4.81-.451s2.789-2.006 4.217-2.137"/>
      <path fill="url(#s)" d="M116.189 291.531s3.079.136 2.833 1.752c0 0-.189 1.09-2.863.904s-4.575-.494-4.575-1.671c0-1.371 3.186-1.192 4.605-.985"/>
      <path fill="url(#t)" d="M122.768 289.884c-.314-9.472-5.595-11.344-8.786-11.608l.009-.037s-1.137-2.801-10.588-1.081c-9.452 1.72-10.676 12.277-10.676 12.277 12.223.406 17.525-4.396 19.75-7.839 2.745 6.255 10.291 8.288 10.291 8.288"/>
      <path fill="#1c53a4" d="M314.845 381.473c1.056 11.273 9.504 160.485 9.504 160.485h-21.936L292.8 409.421l-3.952.075-2.557 132.462h-20.959s-1.195-138.446.082-160.132z"/>
      <path stroke="#000" stroke-linecap="round" stroke-linejoin="round" stroke-miterlimit="10" stroke-width=".397" d="M283.308 409.52h16.073"/>
      <path fill="#e8b499" d="m326.035 396.401 6.433 16.398 4.972-.527-3.771-21.212z"/>
      <path fill="url(#u)" d="M332.227 410.216s-2.55 4.596-.46 10.118l-.949 5.582c-.147.867.324 1.736 1.105 2.036.845.325 1.759-.124 2.065-1.015l1.093-3.188.209 1.181c.332 1.876.07 3.8-.744 5.461l-2.317 4.727a1.8 1.8 0 0 0 .086 1.717c.613 1.008 1.959 1.06 2.588.101l3.779-5.757c1.464-2.231 1.946-5.062 1.323-7.765l-3.347-14.53z"/>
      <path fill="#fd713c" d="M339.137 409.796s-8.329-60.684-16.362-83.333c-4.01-11.305-11.538-13.2-11.538-13.2l-4.695-2.089-32.042-.032-6.582 2.761c-.35.146-.682.321-.998.515-20.925 10.815-37.993 30.117-37.993 30.117l11.476 13.823 23.066-14.653v46.908h54.057l-.02-6.071 7.253 27.966z"/>
      <path fill="url(#v)" d="m297.995 307.469-1.193-14.723s-2.658 1.876-5.079 2.339-4.776-.943-4.805-.96l-2.828-1.627-1.132 15.166-8.458 3.477c15.976 14.551 32.042.032 32.042.032z"/>
      <path stroke="#fff" stroke-miterlimit="10" stroke-width=".808" d="M274.499 311.141s5.566 6.586 15.979 6.586 16.062-6.554 16.062-6.554"/>
      <path stroke="#000" stroke-linecap="round" stroke-linejoin="round" stroke-miterlimit="10" stroke-width=".397" d="m317.498 382.643-.152-46.513M263.467 343.704V335.9"/>
      <path fill="url(#w)" d="M298.44 256.697c-10.766-5.487-16.842 2.735-16.842 2.735-12.521 3.3-5.073 16.308-5.073 16.308l3.524-4.575 23.816 4.512s6.377-12.966-5.425-18.98"/>
      <path fill="url(#x)" d="M282.149 281.752a4.713 4.713 0 1 1-9.423.267 4.713 4.713 0 0 1 9.423-.267"/>
      <path stroke="#c47268" stroke-linecap="round" stroke-linejoin="round" stroke-miterlimit="10" stroke-width=".287" d="M274.762 281.223s1.875-.913 3.66 2.343"/>
      <path fill="url(#y)" d="M299.359 281.886a4.713 4.713 0 1 0 9.426 0 4.713 4.713 0 0 0-9.426 0"/>
      <path stroke="#c47268" stroke-linecap="round" stroke-linejoin="round" stroke-miterlimit="10" stroke-width=".287" d="M306.728 281.147s-1.899-.859-3.593 2.446"/>
      <path fill="url(#z)" d="m284.251 292.628 12.557.143.789 9.543z"/>
      <path fill="url(#A)" d="M303.482 273.68a58.8 58.8 0 0 1-1.453 13.196c-.728 3.198-3.542 5.442-6.49 7.254l-.538.33c-3.119 1.917-5.699 1.982-8.887.166-3.214-1.832-6.202-4.257-6.91-7.681-1.287-6.229-1.459-13.134-1.459-13.134s-1.809-14.411 12.072-14.22 13.665 14.089 13.665 14.089"/>
      <path fill="url(#B)" d="M285.749 277.907a1.123 1.123 0 1 1-2.247-.001 1.123 1.123 0 0 1 2.247.001"/>
      <path fill="url(#C)" d="M296.771 277.907a1.123 1.123 0 1 1-2.247-.001 1.123 1.123 0 0 1 2.247.001"/>
      <path stroke="#c47268" stroke-linecap="round" stroke-linejoin="round" stroke-miterlimit="10" stroke-width=".287" d="M289.118 280.846v1.8h1.458"/>
      <path fill="url(#D)" d="m280.44 273.16 7.339-.661s-.657-1.902-3.624-1.593c-3.036.314-3.715 2.254-3.715 2.254"/>
      <path fill="url(#E)" d="m299.359 273.16-7.339-.661s.657-1.902 3.624-1.593c3.036.314 3.715 2.254 3.715 2.254"/>
      <path fill="#fff" d="M286.606 285.211h7.241s-.341 2.218-3.728 2.218-3.513-2.218-3.513-2.218"/>
      <path fill="url(#F)" d="m302.018 261.338.13 2.65c-1.73-2.832-5.277-6.578-11.899-6.455-9.615.18-7.804 3.097-7.383 3.64-8.036 2.122-8.193 9.546-8.193 9.546l2.942 8.754s2.398-8.939 2.251-13.168c-.142-4.084 3.86-5.308 4.133-5.387 1.21-.218 3.29-.072 5.365 2.538 2.485 3.124 8.661 6.315 12.971 4.342l.622 12.706c5.08-13.187-.939-19.166-.939-19.166m-18.275-.367q.075-.017.155-.033-.078.016-.155.033"/>
      <path fill="url(#G)" d="m190.975 523.837-2.92 27.671-10.515.529-.853-32.896z"/>
      <path fill="url(#H)" d="m217.181 523.379 2.92 27.671 10.515.528.854-32.896z"/>
      <path fill="#66d096" d="m226.756 394.978-26.417-2.336-21.86-1.081-8.834 75.065a11.5 11.5 0 0 0 .062 2.815l1.446 65.425h22.472l-1.307-64.913 10.46-51.805 10.712 118.544h21.296z"/>
      <path fill="url(#I)" d="m262.065 358.655-10.447-41.164 5.151-23.054a1.26 1.26 0 0 0-2.43-.663l-2.01 6.224 1.961-10.561a1.26 1.26 0 0 0-.652-1.345l-.143-.076a1.262 1.262 0 0 0-1.804.782l-2.944 9.801 1.377-12.522a1.26 1.26 0 0 0-1.007-1.332l-.368-.075a1.26 1.26 0 0 0-1.506 1.139l-1.679 11.985.018-10.437a1.26 1.26 0 0 0-1.084-1.172l-.505-.071a1.26 1.26 0 0 0-1.435 1.233l-.583 17.606-2.092-3.982a2.08 2.08 0 0 0-2.055-1.104 1.627 1.627 0 0 0-1.405 2.051l1.122 4.087a15.4 15.4 0 0 0 3.428 6.245l3.097 3.419 1.883 34.099-12.576-7.789-16.64 9.902 33.561 16.024-.001-.004a7.93 7.93 0 0 0 4.973 1.183c5.09-.483 8.409-5.577 6.795-10.429"/>
      <path stroke="#a8523f" stroke-linecap="round" stroke-linejoin="round" stroke-miterlimit="10" stroke-width=".312" d="M241.975 304.952s3.401.788 5.177 4.778M245.891 350.432l.69 8.633"/>
      <path stroke="#000" stroke-linecap="round" stroke-linejoin="round" stroke-miterlimit="10" stroke-width=".397" d="m228.691 364.212-6.108-2.835"/>
      <path fill="url(#J)" d="M194.124 404.066c-3.295-1.695-10.231-5.657-12.965-6.645l-11-15.197 8.668-21.671-15.488-5.477-7.57 27.267c-.548 2.758 1.328 5.747 3.836 7.844 5.412 5.892 15.83 13.171 15.83 13.171s.846 4.456 2.567 5.972c0 0 7.448 1.158 10.645-3.211 0 0 2.57 1.292 5.098.777 1.395-.284 1.644-2.179.379-2.83"/>
      <path stroke="#a8523f" stroke-linecap="round" stroke-linejoin="round" stroke-miterlimit="10" stroke-width=".312" d="m170.159 382.224-2.938-4.061"/>
      <path fill="#1c53a4" d="M242.881 347.865s-7.601-8.976-18.841-13.196l-.003-.002-15.914-6.276-15.097.132-19.905 9.314s-12.55 4.192-15.137 26.476l16.714 4.977 2.225 26.301 49.921-.688 1.847-30.691 4.825 2.238z"/>
      <path stroke="#000" stroke-linecap="round" stroke-linejoin="round" stroke-miterlimit="10" stroke-width=".397" d="m174.974 369.851-1.117-12.382"/>
      <path fill="url(#K)" d="M182.733 333.353s-2.532 1.354-.546 5.286a4.885 4.885 0 0 1-1.719 6.313l-4.378 2.815c-2.443 1.57-5.736.69-7.013-1.918-.861-1.756-1.405-3.758-.752-5.473 1.572-4.134 10.81-8.879 14.408-7.023"/>
      <path fill="url(#L)" d="M208.054 328.47h-.029l.099-.08-1.227-15.133s-2.657 1.875-5.078 2.338-4.777-.943-4.806-.96l-2.828-1.627-1.159 15.515.094.078-.164.001-4.448 2.044s-.048 7.456 12.037 7.07c12.391-.397 12.364-7.418 12.364-7.418z"/>
      <path fill="url(#M)" d="M205.236 278.904s6.946-3.096 9.408 2.757c2.371 5.635-7.044 11.004-7.044 11.004z"/>
      <path fill="url(#N)" d="M192.245 302.263a4.713 4.713 0 1 1-4.845-4.578 4.713 4.713 0 0 1 4.845 4.578"/>
      <path stroke="#a8523f" stroke-linecap="round" stroke-linejoin="round" stroke-miterlimit="10" stroke-width=".312" d="M184.858 301.735s1.873-.913 3.66 2.343"/>
      <path fill="url(#O)" d="M209.454 302.397a4.713 4.713 0 1 0 9.426 0 4.713 4.713 0 0 0-9.426 0"/>
      <path stroke="#a8523f" stroke-linecap="round" stroke-linejoin="round" stroke-miterlimit="10" stroke-width=".312" d="M216.823 301.659s-1.899-.859-3.592 2.446"/>
      <path fill="#e19a7c" d="m194.384 314.057 12.557.144.789 9.542z"/>
      <path fill="url(#P)" d="M213.577 294.192a58.7 58.7 0 0 1-1.454 13.196c-.727 3.198-2.809 5.442-5.758 7.254l-.537.33c-3.12 1.917-7.163 1.982-10.35.166-3.214-1.832-5.47-4.257-6.178-7.681-1.288-6.23-1.46-13.135-1.46-13.135s-1.809-14.411 12.072-14.22 13.665 14.09 13.665 14.09"/>
      <path fill="url(#Q)" d="M195.845 298.419a1.123 1.123 0 1 1-2.247-.001 1.123 1.123 0 0 1 2.247.001"/>
      <path fill="url(#R)" d="M205.743 299.542a1.123 1.123 0 1 0 0-2.247 1.123 1.123 0 0 0 0 2.247"/>
      <path stroke="#a8523f" stroke-linecap="round" stroke-linejoin="round" stroke-miterlimit="10" stroke-width=".312" d="M199.212 300.059v3.098h2.002"/>
      <path fill="url(#S)" d="m190.536 293.671 7.339-.661s-.657-1.902-3.624-1.593c-3.037.315-3.715 2.254-3.715 2.254"/>
      <path fill="url(#T)" d="m209.454 293.671-7.339-.661s.657-1.902 3.624-1.593c3.037.315 3.715 2.254 3.715 2.254"/>
      <path fill="#fff" d="M196.7 305.723h7.241s-.341 2.218-3.728 2.218c-3.387-.001-3.513-2.218-3.513-2.218"/>
      <path fill="url(#U)" d="M188.313 301.141s2.055-15.587 1.05-18.155c0 0-6.991 5.783-1.05 18.155"/>
      <path fill="url(#V)" d="M213.054 301.016s-2.312-14.885-1.672-19.167c0 0 6.751 5.979 1.672 19.167"/>
      <path fill="url(#W)" d="M210.744 284.963s-4.135 3.435-9.468.581c0 0-13.567 8.358-17.397-.741-3.192-7.585 10.061-17.88 23.734-6.28z"/>
      <path stroke="#000" stroke-linecap="round" stroke-linejoin="round" stroke-miterlimit="10" stroke-width=".397" d="m195.958 416.433 13.715 1.744"/>
    </g>
  </g>
  <defs>
    <linearGradient id="d" x1="125.736" x2="125.736" y1="559.582" y2="513.917" gradientUnits="userSpaceOnUse">
      <stop stop-color="#efbfab"/>
      <stop offset=".994" stop-color="#e2a286"/>
    </linearGradient>
    <linearGradient id="e" x1="96.557" x2="96.557" y1="559.582" y2="513.917" gradientUnits="userSpaceOnUse">
      <stop stop-color="#efbfab"/>
      <stop offset=".994" stop-color="#e2a286"/>
    </linearGradient>
    <linearGradient id="f" x1="141.338" x2="186.137" y1="359.594" y2="359.594" gradientUnits="userSpaceOnUse">
      <stop stop-color="#efbfab"/>
      <stop offset=".994" stop-color="#e2a286"/>
    </linearGradient>
    <linearGradient id="g" x1="107.395" x2="107.395" y1="333.335" y2="311.59" gradientUnits="userSpaceOnUse">
      <stop stop-color="#efbfab"/>
      <stop offset=".994" stop-color="#e2a286"/>
    </linearGradient>
    <linearGradient id="h" x1="32.438" x2="72.985" y1="344.326" y2="344.326" gradientUnits="userSpaceOnUse">
      <stop stop-color="#efbfab"/>
      <stop offset=".994" stop-color="#e2a286"/>
    </linearGradient>
    <linearGradient id="i" x1="108.004" x2="108.004" y1="280.385" y2="261.1" gradientUnits="userSpaceOnUse">
      <stop stop-color="#181915"/>
      <stop offset=".999" stop-color="#3a3a3a"/>
    </linearGradient>
    <linearGradient id="j" x1="119.654" x2="126.917" y1="300.97" y2="300.97" gradientUnits="userSpaceOnUse">
      <stop offset=".006" stop-color="#e2a286"/>
      <stop offset="1" stop-color="#efbfab"/>
    </linearGradient>
    <linearGradient id="k" x1="117.339" x2="124.697" y1="308.717" y2="308.717" gradientUnits="userSpaceOnUse">
      <stop stop-color="#7627ec"/>
      <stop offset="1" stop-color="#a46ff0"/>
    </linearGradient>
    <linearGradient id="l" x1="89.095" x2="96.358" y1="300.97" y2="300.97" gradientUnits="userSpaceOnUse">
      <stop stop-color="#efbfab"/>
      <stop offset=".994" stop-color="#e2a286"/>
    </linearGradient>
    <linearGradient id="m" x1="91.315" x2="98.794" y1="308.717" y2="308.717" gradientUnits="userSpaceOnUse">
      <stop stop-color="#7627ec"/>
      <stop offset="1" stop-color="#a46ff0"/>
    </linearGradient>
    <linearGradient id="n" x1="107.917" x2="107.917" y1="306.499" y2="274.695" gradientUnits="userSpaceOnUse">
      <stop stop-color="#181915"/>
      <stop offset=".999" stop-color="#3a3a3a"/>
    </linearGradient>
    <linearGradient id="o" x1="107.863" x2="107.863" y1="313.962" y2="278.355" gradientUnits="userSpaceOnUse">
      <stop stop-color="#efbfab"/>
      <stop offset=".994" stop-color="#e2a286"/>
    </linearGradient>
    <linearGradient id="p" x1="114.007" x2="114.007" y1="299.186" y2="296.829" gradientUnits="userSpaceOnUse">
      <stop stop-color="#181915"/>
      <stop offset=".999" stop-color="#3a3a3a"/>
    </linearGradient>
    <linearGradient id="q" x1="102.224" x2="102.224" y1="299.186" y2="296.829" gradientUnits="userSpaceOnUse">
      <stop stop-color="#181915"/>
      <stop offset=".999" stop-color="#3a3a3a"/>
    </linearGradient>
    <linearGradient id="r" x1="101.787" x2="101.787" y1="294.293" y2="291.27" gradientUnits="userSpaceOnUse">
      <stop stop-color="#181915"/>
      <stop offset=".999" stop-color="#3a3a3a"/>
    </linearGradient>
    <linearGradient id="s" x1="115.31" x2="115.31" y1="294.209" y2="291.389" gradientUnits="userSpaceOnUse">
      <stop stop-color="#181915"/>
      <stop offset=".999" stop-color="#3a3a3a"/>
    </linearGradient>
    <linearGradient id="t" x1="107.747" x2="107.747" y1="289.884" y2="276.599" gradientUnits="userSpaceOnUse">
      <stop stop-color="#181915"/>
      <stop offset=".999" stop-color="#3a3a3a"/>
    </linearGradient>
    <linearGradient id="u" x1="330.792" x2="340.273" y1="423.255" y2="423.255" gradientUnits="userSpaceOnUse">
      <stop stop-color="#d6816e"/>
      <stop offset=".649" stop-color="#e19381"/>
      <stop offset="1" stop-color="#e89f8e"/>
    </linearGradient>
    <linearGradient id="v" x1="290.52" x2="290.52" y1="317.617" y2="292.498" gradientUnits="userSpaceOnUse">
      <stop stop-color="#d6816e"/>
      <stop offset=".649" stop-color="#e19381"/>
      <stop offset="1" stop-color="#e89f8e"/>
    </linearGradient>
    <linearGradient id="w" x1="289.955" x2="289.955" y1="275.74" y2="254.809" gradientUnits="userSpaceOnUse">
      <stop stop-color="#2d2e5a"/>
      <stop offset="1" stop-color="#42457c"/>
    </linearGradient>
    <linearGradient id="x" x1="272.724" x2="282.151" y1="281.885" y2="281.885" gradientUnits="userSpaceOnUse">
      <stop stop-color="#e89f8e"/>
      <stop offset=".512" stop-color="#e79d8c"/>
      <stop offset=".741" stop-color="#e39685"/>
      <stop offset=".912" stop-color="#dc8a78"/>
      <stop offset="1" stop-color="#d6816e"/>
    </linearGradient>
    <linearGradient id="y" x1="299.359" x2="308.786" y1="281.886" y2="281.886" gradientUnits="userSpaceOnUse">
      <stop stop-color="#d6816e"/>
      <stop offset="1" stop-color="#e89f8e"/>
    </linearGradient>
    <linearGradient id="z" x1="284.252" x2="297.597" y1="297.471" y2="297.471" gradientUnits="userSpaceOnUse">
      <stop offset="0" stop-color="#e0a78f"/>
      <stop offset="1" stop-color="#c67b67"/>
    </linearGradient>
    <linearGradient id="A" x1="290.575" x2="290.575" y1="295.945" y2="259.588" gradientUnits="userSpaceOnUse">
      <stop stop-color="#e89f8e"/>
      <stop offset=".512" stop-color="#e79d8c"/>
      <stop offset=".741" stop-color="#e39685"/>
      <stop offset=".912" stop-color="#dc8a78"/>
      <stop offset="1" stop-color="#d6816e"/>
    </linearGradient>
    <linearGradient id="B" x1="283.502" x2="285.749" y1="277.907" y2="277.907" gradientUnits="userSpaceOnUse">
      <stop stop-color="#181915"/>
      <stop offset=".999" stop-color="#3a3a3a"/>
    </linearGradient>
    <linearGradient id="C" x1="294.524" x2="296.771" y1="277.907" y2="277.907" gradientUnits="userSpaceOnUse">
      <stop stop-color="#181915"/>
      <stop offset=".999" stop-color="#3a3a3a"/>
    </linearGradient>
    <linearGradient id="D" x1="280.44" x2="287.779" y1="272.015" y2="272.015" gradientUnits="userSpaceOnUse">
      <stop stop-color="#181915"/>
      <stop offset=".999" stop-color="#3a3a3a"/>
    </linearGradient>
    <linearGradient id="E" x1="292.02" x2="299.359" y1="272.015" y2="272.015" gradientUnits="userSpaceOnUse">
      <stop stop-color="#181915"/>
      <stop offset=".999" stop-color="#3a3a3a"/>
    </linearGradient>
    <linearGradient id="F" x1="289.834" x2="289.834" y1="280.505" y2="257.531" gradientUnits="userSpaceOnUse">
      <stop stop-color="#2d2e5a"/>
      <stop offset="1" stop-color="#42457c"/>
    </linearGradient>
    <linearGradient id="G" x1="183.831" x2="183.831" y1="552.037" y2="519.141" gradientUnits="userSpaceOnUse">
      <stop offset="0" stop-color="#e0a78f"/>
      <stop offset="1" stop-color="#c67b67"/>
    </linearGradient>
    <linearGradient id="H" x1="224.325" x2="224.325" y1="551.578" y2="518.682" gradientUnits="userSpaceOnUse">
      <stop offset="0" stop-color="#e0a78f"/>
      <stop offset="1" stop-color="#c67b67"/>
    </linearGradient>
    <linearGradient id="I" x1="216.736" x2="262.476" y1="326.882" y2="326.882" gradientUnits="userSpaceOnUse">
      <stop offset="0" stop-color="#e0a78f"/>
      <stop offset="1" stop-color="#c67b67"/>
    </linearGradient>
    <linearGradient id="J" x1="155.673" x2="194.946" y1="382.272" y2="382.272" gradientUnits="userSpaceOnUse">
      <stop offset="0" stop-color="#e0a78f"/>
      <stop offset="1" stop-color="#c67b67"/>
    </linearGradient>
    <linearGradient id="K" x1="168.036" x2="182.733" y1="340.743" y2="340.743" gradientUnits="userSpaceOnUse">
      <stop stop-color="#d6816e"/>
      <stop offset=".649" stop-color="#e19381"/>
      <stop offset="1" stop-color="#e89f8e"/>
    </linearGradient>
    <linearGradient id="L" x1="200.709" x2="200.709" y1="337.73" y2="313.009" gradientUnits="userSpaceOnUse">
      <stop offset="0" stop-color="#e0a78f"/>
      <stop offset="1" stop-color="#c67b67"/>
    </linearGradient>
    <linearGradient id="M" x1="205.236" x2="215.027" y1="285.376" y2="285.376" gradientUnits="userSpaceOnUse">
      <stop stop-color="#181915"/>
      <stop offset=".999" stop-color="#3a3a3a"/>
    </linearGradient>
    <linearGradient id="N" x1="182.82" x2="192.247" y1="302.396" y2="302.396" gradientUnits="userSpaceOnUse">
      <stop offset="0" stop-color="#e0a78f"/>
      <stop offset="1" stop-color="#c67b67"/>
    </linearGradient>
    <linearGradient id="O" x1="209.454" x2="218.881" y1="302.397" y2="302.397" gradientUnits="userSpaceOnUse">
      <stop stop-color="#c67b67"/>
      <stop offset="1" stop-color="#e0a78f"/>
    </linearGradient>
    <linearGradient id="P" x1="200.67" x2="200.67" y1="316.456" y2="280.099" gradientUnits="userSpaceOnUse">
      <stop offset="0" stop-color="#e0a78f"/>
      <stop offset="1" stop-color="#c67b67"/>
    </linearGradient>
    <linearGradient id="Q" x1="193.598" x2="195.845" y1="298.418" y2="298.418" gradientUnits="userSpaceOnUse">
      <stop stop-color="#181915"/>
      <stop offset=".999" stop-color="#3a3a3a"/>
    </linearGradient>
    <linearGradient id="R" x1="204.62" x2="206.866" y1="298.418" y2="298.418" gradientUnits="userSpaceOnUse">
      <stop stop-color="#181915"/>
      <stop offset=".999" stop-color="#3a3a3a"/>
    </linearGradient>
    <linearGradient id="S" x1="190.536" x2="197.875" y1="292.526" y2="292.526" gradientUnits="userSpaceOnUse">
      <stop stop-color="#181915"/>
      <stop offset=".999" stop-color="#3a3a3a"/>
    </linearGradient>
    <linearGradient id="T" x1="202.115" x2="209.454" y1="292.526" y2="292.526" gradientUnits="userSpaceOnUse">
      <stop stop-color="#181915"/>
      <stop offset=".999" stop-color="#3a3a3a"/>
    </linearGradient>
    <linearGradient id="U" x1="185.92" x2="189.64" y1="292.063" y2="292.063" gradientUnits="userSpaceOnUse">
      <stop stop-color="#181915"/>
      <stop offset=".999" stop-color="#3a3a3a"/>
    </linearGradient>
    <linearGradient id="V" x1="211.27" x2="214.947" y1="291.432" y2="291.432" gradientUnits="userSpaceOnUse">
      <stop stop-color="#181915"/>
      <stop offset=".999" stop-color="#3a3a3a"/>
    </linearGradient>
    <linearGradient id="W" x1="183.399" x2="210.744" y1="281.178" y2="281.178" gradientUnits="userSpaceOnUse">
      <stop stop-color="#181915"/>
      <stop offset=".999" stop-color="#3a3a3a"/>
    </linearGradient>
    <clipPath id="a">
      <rect width="393" height="852" fill="#fff" rx="16"/>
    </clipPath>
    <clipPath id="c">
      <rect width="330" height="330" x="32" y="192" fill="#fff" rx="165"/>
    </clipPath>
    <filter id="b" width="401.8" height="88.8" x="-4.4" y="739.6" color-interpolation-filters="sRGB" filterUnits="userSpaceOnUse">
      <feFlood flood-opacity="0" result="BackgroundImageFix"/>
      <feColorMatrix in="SourceAlpha" result="hardAlpha" values="0 0 0 0 0 0 0 0 0 0 0 0 0 0 0 0 0 0 127 0"/>
      <feOffset dy="4"/>
      <feGaussianBlur stdDeviation="10.2"/>
      <feComposite in2="hardAlpha" operator="out"/>
      <feColorMatrix values="0 0 0 0 0.176471 0 0 0 0 0.466667 0 0 0 0 0.890196 0 0 0 0.16 0"/>
      <feBlend in2="BackgroundImageFix" result="effect1_dropShadow_43_449"/>
      <feBlend in="SourceGraphic" in2="effect1_dropShadow_43_449" result="shape"/>
    </filter>
  </defs>
</svg>
