<svg xmlns="http://www.w3.org/2000/svg" width="393" height="852" fill="none" viewBox="0 0 393 852">
  <g clip-path="url(#a)">
    <rect width="393" height="852" fill="#f7fafd" rx="16"/>
    <path fill="#1b1b1b" d="M135.047 614v-13.66h5.44q1.36 0 2.34.34t1.52 1.1q.56.74.56 2 0 .86-.18 1.46a2.6 2.6 0 0 1-.52 1 3.7 3.7 0 0 1-.9.74q.6.22 1.04.6.46.36.7.98.24.6.24 1.6 0 1.1-.34 1.84a2.84 2.84 0 0 1-.98 1.18q-.62.44-1.46.64-.84.18-1.84.18zm2.76-2.04h2.66q.7 0 1.16-.16.48-.18.72-.62.26-.44.26-1.22 0-.6-.2-.98a1.33 1.33 0 0 0-.52-.56 2.1 2.1 0 0 0-.72-.28 3.7 3.7 0 0 0-.76-.08h-2.6zm0-5.86h2.58q.68 0 1.1-.2.42-.22.62-.64.2-.44.2-1.1 0-.94-.5-1.36-.48-.42-1.52-.42h-2.48zm9.406 7.9v-14.14h2.66V614zm9.26.22q-1.7 0-2.74-.56-1.02-.56-1.48-1.72-.46-1.18-.46-3.04 0-1.8.48-2.92.48-1.14 1.52-1.68 1.04-.56 2.68-.56 1.66 0 2.68.56 1.04.54 1.52 1.68.5 1.12.5 2.92 0 1.86-.46 3.04-.46 1.16-1.5 1.72-1.02.56-2.74.56m0-2.2q.84 0 1.26-.3.42-.32.56-1 .16-.7.16-1.82 0-1.1-.18-1.74-.18-.66-.6-.94t-1.2-.28q-.76 0-1.2.28-.42.28-.6.94-.18.64-.18 1.74 0 1.12.14 1.82.16.68.58 1 .42.3 1.26.3m10.94 6.56q-1.6 0-2.68-.24-1.06-.24-1.6-.88-.54-.62-.54-1.8 0-.52.14-.94.159-.4.48-.76.339-.36.84-.74a1.46 1.46 0 0 1-.46-.58 2.3 2.3 0 0 1-.16-.86q0-.16.14-.42a5 5 0 0 1 .34-.58q.2-.3.38-.54a2.8 2.8 0 0 1-.76-.52q-.36-.36-.6-.96-.22-.6-.22-1.54 0-1.28.48-2.04.5-.76 1.44-1.1.939-.34 2.28-.34.52 0 1.12.08t.96.16l3.26-.06v1.8l-1.52-.02q.18.24.32.62.16.36.16.9 0 1.38-.48 2.14-.46.76-1.4 1.06-.94.28-2.38.28-.16 0-.44-.02-.28-.04-.46-.06a6 6 0 0 0-.16.46q-.08.24-.08.34 0 .22.08.34.1.12.34.2.26.06.74.08.5.02 1.32.02 1.42 0 2.26.26.86.26 1.22.92t.36 1.86q0 1.78-1.26 2.62-1.24.86-3.46.86m-.14-1.98q1.24 0 1.78-.3.56-.28.56-.94 0-.52-.2-.76-.18-.24-.62-.32a9 9 0 0 0-1.2-.06q-.201 0-.48-.02a9 9 0 0 1-.58-.02q-.28 0-.52-.02a4 4 0 0 0-.32-.02 3.6 3.6 0 0 0-.46.38q-.16.18-.24.36a1.7 1.7 0 0 0-.06.48q0 .46.22.72.219.28.72.4.52.12 1.4.12m-.34-7.78q.92 0 1.3-.36.4-.38.4-1.24t-.4-1.24q-.38-.38-1.3-.38-.88 0-1.28.38-.38.38-.38 1.24t.38 1.24q.4.36 1.28.36m15.139 5.4q-1.66 0-2.64-.56-.96-.56-1.38-1.7t-.42-2.86q0-1.86.52-3.04.54-1.18 1.56-1.74 1.02-.58 2.52-.58 2.22 0 3.34 1.12 1.14 1.12 1.14 3.54l-.12 1.48h-6.28q.02 1.12.46 1.68t1.52.56q.62 0 1.36-.02l1.46-.08q.74-.04 1.26-.08l.06 1.86q-.5.08-1.26.18a27 27 0 0 1-1.58.16 15 15 0 0 1-1.52.08m-1.76-6.04h3.74q0-1.36-.44-1.9-.42-.54-1.38-.54-.64 0-1.06.24t-.64.78-.22 1.42m12.524 5.82v-10.04h2.66v.64q.321-.2.78-.38.46-.2.96-.34a3.9 3.9 0 0 1 1-.14q1.04 0 1.72.28.7.26 1.1.86t.58 1.58q.18.96.18 2.34v5.2h-2.68v-5.06q0-1.04-.12-1.66-.12-.64-.46-.92t-1-.28q-.36 0-.76.08-.38.06-.74.18a4 4 0 0 0-.56.24V614zm15.375.22q-1.7 0-2.74-.56-1.02-.56-1.48-1.72-.46-1.18-.46-3.04 0-1.8.48-2.92.48-1.14 1.52-1.68 1.04-.56 2.68-.56 1.66 0 2.68.56 1.04.54 1.52 1.68.5 1.12.5 2.92 0 1.86-.46 3.04-.46 1.16-1.5 1.72-1.02.56-2.74.56m0-2.2q.84 0 1.26-.3.42-.32.56-1 .16-.7.16-1.82 0-1.1-.18-1.74-.18-.66-.6-.94t-1.2-.28q-.76 0-1.2.28-.42.28-.6.94-.18.64-.18 1.74 0 1.12.14 1.82.16.68.58 1 .42.3 1.26.3m10.001 2.22q-1.1 0-1.78-.32t-.98-1.1q-.28-.8-.28-2.22v-4.42h-1.18v-2.22h1.18v-2.66h2.66v2.66h2.56v2.22h-2.56v3.72q0 .78.06 1.22.08.44.32.62t.74.18q.14 0 .42-.02l.56-.04q.28-.02.46-.04l.08 2.14q-.3.06-.74.12-.42.06-.84.1-.4.06-.68.06m4.067-.24v-10.04h2.66V614zm.14-11.54-1.16-1.5 3.9-1.98 1.52 2.02zm9.205 11.76q-1.72 0-2.7-.52-.96-.54-1.36-1.72-.38-1.18-.38-3.1 0-1.9.44-3.02.44-1.14 1.42-1.62 1-.5 2.6-.5.42 0 .98.06t1.12.16q.58.08.98.16l-.1 2.14q-.38-.04-.86-.06a23 23 0 0 0-.94-.06 8 8 0 0 0-.72-.04q-.86 0-1.36.28-.48.26-.68.88-.18.6-.18 1.62 0 1.1.18 1.76t.64.94q.48.28 1.4.28.28 0 .74-.02l.94-.08q.5-.04.88-.06l.08 2.14q-.4.08-.96.16-.561.1-1.14.16-.561.06-1.02.06m4.845-.22v-10.04h2.66V614zm0-11.64v-2.28h2.68v2.28zm7.503 11.86q-1.56 0-2.36-.78-.78-.8-.78-2.4 0-1.12.4-1.74.4-.64 1.18-.92.8-.3 1.94-.36l2.44-.22v-.6q0-.72-.36-1-.36-.3-1.06-.3-.56 0-1.3.04-.72.04-1.44.1-.7.06-1.22.12l-.08-1.88q.52-.12 1.24-.24a18 18 0 0 1 1.54-.22q.8-.08 1.48-.08 1.28 0 2.14.32t1.3 1.06q.44.72.44 1.96v4.58a.6.6 0 0 0 .3.44q.26.14.6.2l-.06 1.84h-.64q-.3.02-.58 0-.28 0-.5-.04a2.4 2.4 0 0 1-.8-.24 2.4 2.4 0 0 1-.52-.38q-.32.14-.86.32t-1.18.3a6.6 6.6 0 0 1-1.26.12m.64-1.98q.38 0 .8-.08t.78-.18q.38-.12.6-.22v-2.3l-2.04.18q-.66.06-.96.4-.28.32-.28.92t.26.94q.28.34.84.34m10.829 1.98q-.66 0-1.42-.08-.74-.06-1.4-.16a19 19 0 0 1-1.1-.2l.08-1.98q.52.06 1.16.14.66.08 1.28.14.64.04 1.04.04.6 0 .98-.1.399-.1.6-.32.2-.24.2-.68 0-.34-.18-.52-.16-.18-.64-.3-.46-.14-1.36-.28-1.12-.16-1.86-.46-.72-.3-1.06-.88-.34-.6-.34-1.62 0-1.24.54-1.94t1.44-.98q.9-.3 1.96-.3.699 0 1.44.08.74.06 1.4.16t1.1.2l-.08 2.02q-.5-.08-1.16-.14a23 23 0 0 0-2.4-.16q-.46 0-.82.1-.36.08-.56.28-.18.2-.18.6 0 .28.16.46.159.18.6.32.459.12 1.32.24 1.239.18 1.98.5t1.06.92q.34.6.34 1.62 0 1.2-.48 1.92t-1.4 1.04-2.24.32"/>
    <path fill="#4c4c4c" d="M69.903 639v-9.8h.854l4.48 7.644h-.448l4.438-7.644h.854v9.8h-.994v-8.246h.238l-4.088 7h-.49l-4.116-7h.266V639zm17.767 0v-1.624l-.042-.266v-2.716q0-.938-.532-1.442-.519-.504-1.554-.504-.714 0-1.358.238-.645.239-1.092.63l-.448-.742q.56-.476 1.344-.728a5.1 5.1 0 0 1 1.652-.266q1.427 0 2.198.714.784.7.784 2.142V639zm-2.534.07q-.826 0-1.442-.266-.603-.28-.924-.756a2 2 0 0 1-.322-1.12q0-.574.266-1.036.28-.476.896-.756.63-.294 1.68-.294h2.534v.742h-2.506q-1.064 0-1.484.378a1.23 1.23 0 0 0-.406.938q0 .63.49 1.008t1.372.378q.84 0 1.442-.378.616-.392.896-1.12l.224.686a2.33 2.33 0 0 1-.98 1.162q-.686.434-1.736.434m9.938-7.49q.896 0 1.567.35.687.336 1.064 1.036.393.7.392 1.764V639h-.993v-4.172q0-1.162-.588-1.75-.575-.602-1.625-.602-.784 0-1.372.322a2.16 2.16 0 0 0-.895.91q-.309.588-.308 1.428V639h-.995v-7.35h.953v2.016l-.154-.378a2.64 2.64 0 0 1 1.12-1.246q.77-.462 1.834-.462m8.032 7.49q-1.035 0-1.596-.56-.56-.56-.56-1.582v-6.902h.994v6.846q0 .644.322.994.337.35.952.35.658 0 1.092-.378l.35.714a1.8 1.8 0 0 1-.714.392q-.405.126-.84.126m-3.471-6.594v-.826h4.549v.826zm9.697 6.594q-1.147 0-2.016-.476a3.6 3.6 0 0 1-1.358-1.33q-.49-.854-.49-1.946t.462-1.932q.477-.84 1.288-1.316a3.55 3.55 0 0 1 1.848-.49q1.036 0 1.834.476.813.462 1.274 1.316.462.84.462 1.946a1 1 0 0 1-.014.154v.154h-6.398v-.742h5.866l-.392.294q0-.798-.35-1.414a2.46 2.46 0 0 0-.924-.98q-.588-.35-1.358-.35-.756 0-1.358.35t-.938.98-.336 1.442v.154q0 .84.364 1.484.378.63 1.036.994.672.35 1.526.35.672 0 1.246-.238a2.6 2.6 0 0 0 1.008-.728l.56.644a3.13 3.13 0 0 1-1.232.896 4.1 4.1 0 0 1-1.61.308m9.079-7.49q.897 0 1.568.35.686.336 1.064 1.036.392.7.392 1.764V639h-.994v-4.172q0-1.162-.588-1.75-.574-.602-1.624-.602-.784 0-1.372.322a2.17 2.17 0 0 0-.896.91q-.308.588-.308 1.428V639h-.994v-7.35h.952v2.016l-.154-.378a2.64 2.64 0 0 1 1.12-1.246q.77-.462 1.834-.462m9.461 0q.896 0 1.568.35.687.336 1.064 1.036.393.7.392 1.764V639h-.994v-4.172q0-1.162-.588-1.75-.573-.602-1.624-.602-.784 0-1.372.322a2.17 2.17 0 0 0-.896.91q-.308.588-.308 1.428V639h-.994v-10.388h.994v5.054l-.196-.378a2.64 2.64 0 0 1 1.12-1.246q.77-.462 1.834-.462m10.315 7.42v-1.624l-.042-.266v-2.716q0-.938-.532-1.442-.517-.504-1.554-.504a3.9 3.9 0 0 0-1.358.238 3.5 3.5 0 0 0-1.092.63l-.448-.742a3.9 3.9 0 0 1 1.344-.728 5.1 5.1 0 0 1 1.652-.266q1.428 0 2.198.714.784.7.784 2.142V639zm-2.534.07q-.825 0-1.442-.266-.601-.28-.924-.756a2 2 0 0 1-.322-1.12q0-.574.266-1.036.28-.476.896-.756.63-.294 1.68-.294h2.534v.742h-2.506q-1.064 0-1.484.378-.406.378-.406.938 0 .63.49 1.008t1.372.378q.84 0 1.442-.378.617-.392.896-1.12l.224.686a2.32 2.32 0 0 1-.98 1.162q-.686.434-1.736.434m5.64-3.43v-.868h3.668v.868zm7.866 3.43a5.8 5.8 0 0 1-1.722-.252q-.812-.266-1.274-.658l.448-.784q.447.336 1.148.588a4.5 4.5 0 0 0 1.47.238q1.05 0 1.512-.322.462-.336.462-.882 0-.407-.266-.63a1.53 1.53 0 0 0-.672-.35 7 7 0 0 0-.938-.21 20 20 0 0 1-1.036-.196 4 4 0 0 1-.924-.322 1.94 1.94 0 0 1-.686-.602q-.252-.378-.252-1.008 0-.602.336-1.078t.98-.742q.657-.28 1.596-.28.714 0 1.428.196.714.182 1.176.49l-.434.798a3.2 3.2 0 0 0-1.05-.476 4.2 4.2 0 0 0-1.12-.154q-.994 0-1.47.35-.462.336-.462.868 0 .42.252.658.266.238.686.378.434.126.938.21.518.084 1.022.21.518.112.938.322.434.196.686.574.266.365.266.966 0 .644-.364 1.12-.35.462-1.036.728-.672.252-1.638.252m7.984 0q-1.149 0-2.016-.476a3.57 3.57 0 0 1-1.358-1.33q-.49-.854-.49-1.946t.462-1.932q.475-.84 1.288-1.316a3.55 3.55 0 0 1 1.848-.49q1.036 0 1.834.476a3.27 3.27 0 0 1 1.274 1.316q.462.84.462 1.946a1 1 0 0 1-.014.154v.154h-6.398v-.742h5.866l-.392.294q0-.798-.35-1.414a2.46 2.46 0 0 0-.924-.98q-.588-.35-1.358-.35-.756 0-1.358.35t-.938.98-.336 1.442v.154q0 .84.364 1.484.378.63 1.036.994.671.35 1.526.35.672 0 1.246-.238a2.6 2.6 0 0 0 1.008-.728l.56.644a3.15 3.15 0 0 1-1.232.896 4.1 4.1 0 0 1-1.61.308m8.991-.07v-7.35h.994V639zm.504-8.974a.7.7 0 0 1-.518-.21.69.69 0 0 1-.21-.504q0-.294.21-.49.21-.21.518-.21a.73.73 0 0 1 .518.196q.21.196.21.49 0 .308-.21.518a.68.68 0 0 1-.518.21m7.008 1.554q.896 0 1.568.35.686.336 1.064 1.036.392.7.392 1.764V639h-.994v-4.172q0-1.162-.588-1.75-.574-.602-1.624-.602-.784 0-1.372.322a2.16 2.16 0 0 0-.896.91q-.309.588-.308 1.428V639h-.994v-7.35h.952v2.016l-.154-.378a2.63 2.63 0 0 1 1.12-1.246q.77-.462 1.834-.462m5.877 7.42v-8.274q0-.98.574-1.582.573-.602 1.652-.602.42 0 .812.112.391.112.658.35l-.336.742a1.3 1.3 0 0 0-.49-.266 1.8 1.8 0 0 0-.602-.098q-.63 0-.966.35t-.336 1.036v1.12l.028.462V639zm-1.316-6.524v-.826h4.55v.826zm8.765 6.594q-1.064 0-1.918-.476a3.64 3.64 0 0 1-1.33-1.33q-.49-.854-.49-1.946 0-1.106.49-1.946a3.53 3.53 0 0 1 1.33-1.316q.84-.476 1.918-.476 1.092 0 1.932.476a3.4 3.4 0 0 1 1.33 1.316q.49.84.49 1.946 0 1.092-.49 1.946a3.5 3.5 0 0 1-1.33 1.33q-.853.476-1.932.476m0-.882q.798 0 1.414-.35.617-.364.966-1.008.364-.659.364-1.512 0-.869-.364-1.512a2.47 2.47 0 0 0-.966-.994 2.7 2.7 0 0 0-1.4-.364q-.784 0-1.4.364a2.57 2.57 0 0 0-.98.994q-.364.643-.364 1.512 0 .853.364 1.512.364.644.98 1.008.616.35 1.386.35m5.781.812v-7.35h.952v2.002l-.098-.35q.309-.84 1.036-1.274.729-.448 1.806-.448v.966h-.112a.5.5 0 0 0-.112-.014q-1.161 0-1.82.714-.657.7-.658 2.002V639zm14.694-7.42q.896 0 1.554.35.672.336 1.036 1.036.378.7.378 1.764V639h-.994v-4.172q0-1.162-.56-1.75-.546-.602-1.554-.602-.756 0-1.316.322a2.12 2.12 0 0 0-.854.91q-.294.588-.294 1.428V639h-.994v-4.172q0-1.162-.56-1.75-.56-.602-1.568-.602-.743 0-1.302.322a2.1 2.1 0 0 0-.868.91q-.294.588-.294 1.428V639h-.994v-7.35h.952v1.988l-.154-.35a2.6 2.6 0 0 1 1.078-1.246q.756-.462 1.778-.462 1.078 0 1.834.546.756.532.98 1.61l-.392-.154a2.88 2.88 0 0 1 1.134-1.442q.827-.56 1.974-.56m10.27 7.42v-1.624l-.042-.266v-2.716q0-.938-.532-1.442-.519-.504-1.554-.504-.714 0-1.358.238-.645.239-1.092.63l-.448-.742q.56-.476 1.344-.728a5.1 5.1 0 0 1 1.652-.266q1.428 0 2.198.714.784.7.784 2.142V639zm-2.534.07q-.827 0-1.442-.266-.603-.28-.924-.756a2 2 0 0 1-.322-1.12q0-.574.266-1.036.28-.476.896-.756.63-.294 1.68-.294h2.534v.742h-2.506q-1.065 0-1.484.378a1.23 1.23 0 0 0-.406.938q0 .63.49 1.008t1.372.378q.84 0 1.442-.378.615-.392.896-1.12l.224.686a2.33 2.33 0 0 1-.98 1.162q-.686.434-1.736.434m9.111 0q-1.05 0-1.89-.476a3.47 3.47 0 0 1-1.302-1.316q-.476-.854-.476-1.96 0-1.12.476-1.96.477-.84 1.302-1.302a3.77 3.77 0 0 1 1.89-.476q.966 0 1.722.434.771.434 1.218 1.274.462.826.462 2.03 0 1.19-.448 2.03-.447.84-1.218 1.288-.755.434-1.736.434m.07-.882q.785 0 1.4-.35.63-.364.98-1.008.364-.659.364-1.512 0-.869-.364-1.512a2.45 2.45 0 0 0-.98-.994 2.7 2.7 0 0 0-1.4-.364q-.77 0-1.386.364a2.6 2.6 0 0 0-.98.994q-.363.643-.364 1.512 0 .853.364 1.512.365.644.98 1.008.616.35 1.386.35m2.772.812v-2.212l.098-1.484-.14-1.484v-5.208h.994V639zm6.717.07q-1.065 0-1.918-.476a3.63 3.63 0 0 1-1.33-1.33q-.49-.854-.49-1.946 0-1.106.49-1.946t1.33-1.316 1.918-.476q1.092 0 1.932.476a3.4 3.4 0 0 1 1.33 1.316q.49.84.49 1.946 0 1.092-.49 1.946a3.5 3.5 0 0 1-1.33 1.33q-.855.476-1.932.476m0-.882q.798 0 1.414-.35.615-.364.966-1.008.363-.659.364-1.512 0-.869-.364-1.512a2.5 2.5 0 0 0-.966-.994 2.7 2.7 0 0 0-1.4-.364q-.785 0-1.4.364a2.57 2.57 0 0 0-.98.994q-.364.643-.364 1.512 0 .853.364 1.512.363.644.98 1.008.615.35 1.386.35m12.497.882q-1.092 0-1.96-.476a3.6 3.6 0 0 1-1.344-1.33q-.49-.854-.49-1.946 0-1.106.49-1.946t1.344-1.316q.868-.476 1.96-.476.938 0 1.694.364.756.365 1.19 1.092l-.742.504a2.34 2.34 0 0 0-.938-.826 2.8 2.8 0 0 0-1.218-.266 2.77 2.77 0 0 0-1.414.364q-.63.35-.994.994-.364.643-.364 1.512t.364 1.512.994 1.008q.63.35 1.414.35.659 0 1.218-.266.56-.266.938-.812l.742.504a2.86 2.86 0 0 1-1.19 1.092 3.85 3.85 0 0 1-1.694.364m7.71 0q-1.065 0-1.918-.476a3.63 3.63 0 0 1-1.33-1.33q-.49-.854-.49-1.946 0-1.106.49-1.946t1.33-1.316 1.918-.476q1.092 0 1.932.476a3.4 3.4 0 0 1 1.33 1.316q.49.84.49 1.946 0 1.092-.49 1.946a3.5 3.5 0 0 1-1.33 1.33q-.855.476-1.932.476m0-.882q.798 0 1.414-.35.615-.364.966-1.008.363-.659.364-1.512 0-.869-.364-1.512a2.5 2.5 0 0 0-.966-.994 2.7 2.7 0 0 0-1.4-.364q-.785 0-1.4.364a2.57 2.57 0 0 0-.98.994q-.364.643-.364 1.512 0 .853.364 1.512.363.644.98 1.008.615.35 1.386.35m14.965-6.608q.895 0 1.554.35.672.336 1.036 1.036.378.7.378 1.764V639h-.994v-4.172q0-1.162-.56-1.75-.546-.602-1.554-.602-.756 0-1.316.322a2.12 2.12 0 0 0-.854.91q-.294.588-.294 1.428V639h-.994v-4.172q0-1.162-.56-1.75-.56-.602-1.568-.602-.742 0-1.302.322a2.1 2.1 0 0 0-.868.91q-.294.588-.294 1.428V639h-.994v-7.35h.952v1.988l-.154-.35a2.6 2.6 0 0 1 1.078-1.246q.756-.462 1.778-.462 1.078 0 1.834.546.756.532.98 1.61l-.392-.154a2.88 2.88 0 0 1 1.134-1.442q.826-.56 1.974-.56m13.934 7.42v-1.624l-.042-.266v-2.716q0-.938-.532-1.442-.519-.504-1.554-.504-.714 0-1.358.238-.645.239-1.092.63l-.448-.742q.56-.476 1.344-.728a5.1 5.1 0 0 1 1.652-.266q1.428 0 2.198.714.783.7.784 2.142V639zm-2.534.07q-.827 0-1.442-.266-.603-.28-.924-.756a2 2 0 0 1-.322-1.12q0-.574.266-1.036.28-.476.896-.756.63-.294 1.68-.294h2.534v.742h-2.506q-1.065 0-1.484.378a1.23 1.23 0 0 0-.406.938q0 .63.49 1.008t1.372.378q.84 0 1.442-.378.615-.392.896-1.12l.224.686a2.33 2.33 0 0 1-.98 1.162q-.687.434-1.736.434m6.186-.07v-7.35h.952v2.002l-.098-.35q.307-.84 1.036-1.274.727-.448 1.806-.448v.966h-.112a.5.5 0 0 0-.112-.014q-1.163 0-1.82.714-.658.7-.658 2.002V639zm8.148.07q-1.036 0-1.596-.56t-.56-1.582v-6.902h.994v6.846q0 .644.322.994.336.35.952.35.657 0 1.092-.378l.35.714a1.8 1.8 0 0 1-.714.392 2.8 2.8 0 0 1-.84.126m-3.472-6.594v-.826h4.55v.826zm6.835 6.524v-7.35h.994V639zm.504-8.974a.7.7 0 0 1-.518-.21.69.69 0 0 1-.21-.504q0-.294.21-.49.21-.21.518-.21t.518.196.21.49q0 .308-.21.518a.67.67 0 0 1-.518.21m6.392 11.76a6.3 6.3 0 0 1-1.932-.294q-.924-.294-1.498-.84l.504-.756q.518.462 1.274.728.77.28 1.624.28 1.4 0 2.058-.658.658-.644.658-2.016v-1.834l.14-1.26-.098-1.26v-2.226h.952v6.454q0 1.904-.938 2.786-.924.896-2.744.896m-.182-3.066q-1.05 0-1.89-.448a3.5 3.5 0 0 1-1.33-1.274q-.476-.812-.476-1.862t.476-1.848q.49-.812 1.33-1.26t1.89-.448q.98 0 1.764.406t1.246 1.204.462 1.946-.462 1.946a3.1 3.1 0 0 1-1.246 1.218q-.784.42-1.764.42m.098-.882q.812 0 1.442-.336.63-.35.994-.952.364-.616.364-1.414t-.364-1.4a2.54 2.54 0 0 0-.994-.938q-.63-.35-1.442-.35-.798 0-1.442.35-.63.336-.994.938-.35.602-.35 1.4t.35 1.414q.364.602.994.952.644.336 1.442.336m9.528 1.232q-1.064 0-1.918-.476a3.64 3.64 0 0 1-1.33-1.33q-.49-.854-.49-1.946 0-1.106.49-1.946a3.53 3.53 0 0 1 1.33-1.316q.84-.476 1.918-.476 1.092 0 1.932.476a3.4 3.4 0 0 1 1.33 1.316q.49.84.49 1.946 0 1.092-.49 1.946a3.5 3.5 0 0 1-1.33 1.33q-.854.476-1.932.476m0-.882q.798 0 1.414-.35.616-.364.966-1.008.364-.659.364-1.512 0-.869-.364-1.512a2.47 2.47 0 0 0-.966-.994 2.7 2.7 0 0 0-1.4-.364q-.784 0-1.4.364a2.57 2.57 0 0 0-.98.994q-.364.643-.364 1.512 0 .853.364 1.512.364.644.98 1.008.616.35 1.386.35m7.755.882q-.909 0-1.722-.252-.812-.266-1.274-.658l.448-.784q.449.336 1.148.588a4.5 4.5 0 0 0 1.47.238q1.05 0 1.512-.322.462-.336.462-.882 0-.407-.266-.63a1.53 1.53 0 0 0-.672-.35 7 7 0 0 0-.938-.21q-.517-.084-1.036-.196a4 4 0 0 1-.924-.322 1.95 1.95 0 0 1-.686-.602q-.252-.378-.252-1.008 0-.602.336-1.078t.98-.742q.659-.28 1.596-.28.714 0 1.428.196.714.182 1.176.49l-.434.798a3.2 3.2 0 0 0-1.05-.476 4.2 4.2 0 0 0-1.12-.154q-.993 0-1.47.35-.462.336-.462.868 0 .42.252.658.267.238.686.378.435.126.938.21.518.084 1.022.21.519.112.938.322.434.196.686.574.267.365.266.966 0 .644-.364 1.12-.35.462-1.036.728-.672.252-1.638.252m-255.76 20q-1.147 0-2.016-.476a3.6 3.6 0 0 1-1.358-1.33q-.49-.854-.49-1.946t.462-1.932q.477-.84 1.288-1.316a3.55 3.55 0 0 1 1.848-.49q1.036 0 1.834.476.813.462 1.274 1.316.462.84.462 1.946a1 1 0 0 1-.014.154v.154H63.35v-.742h5.866l-.392.294q0-.798-.35-1.414a2.46 2.46 0 0 0-.924-.98q-.587-.35-1.358-.35-.756 0-1.358.35t-.938.98-.336 1.442v.154q0 .84.364 1.484.378.63 1.036.994.672.35 1.526.35.672 0 1.246-.238a2.6 2.6 0 0 0 1.008-.728l.56.644a3.14 3.14 0 0 1-1.232.896 4.1 4.1 0 0 1-1.61.308m4.002-.07 3.108-4.032-.014.49-2.954-3.808h1.12l2.422 3.15-.42-.014 2.422-3.136h1.092l-2.982 3.85.014-.532L77.403 659H76.27l-2.562-3.36.392.056L71.58 659zm11.391.07q-1.092 0-1.96-.476a3.6 3.6 0 0 1-1.344-1.33q-.49-.854-.49-1.946 0-1.106.49-1.946a3.5 3.5 0 0 1 1.344-1.316q.868-.476 1.96-.476.938 0 1.694.364.756.365 1.19 1.092l-.742.504a2.33 2.33 0 0 0-.938-.826 2.8 2.8 0 0 0-1.218-.266q-.784 0-1.414.364-.63.35-.994.994-.364.643-.364 1.512t.364 1.512.994 1.008q.63.35 1.414.35.658 0 1.218-.266t.938-.812l.742.504q-.435.714-1.19 1.092a3.85 3.85 0 0 1-1.694.364m4.727-.07v-10.388h.994V659zm6.798.07q-.937 0-1.638-.35a2.5 2.5 0 0 1-1.092-1.05q-.378-.7-.378-1.75v-4.27h.994v4.158q0 1.176.574 1.778.588.588 1.638.588.77 0 1.33-.308.574-.322.868-.924.308-.602.308-1.442v-3.85h.994V659h-.952v-2.016l.154.364a2.75 2.75 0 0 1-1.092 1.274q-.728.448-1.708.448m8.342 0a5.8 5.8 0 0 1-1.722-.252q-.811-.266-1.274-.658l.448-.784q.45.336 1.148.588a4.5 4.5 0 0 0 1.47.238q1.05 0 1.512-.322.462-.336.462-.882 0-.407-.266-.63a1.53 1.53 0 0 0-.672-.35 7 7 0 0 0-.938-.21q-.517-.084-1.036-.196a4 4 0 0 1-.924-.322 1.94 1.94 0 0 1-.686-.602q-.252-.378-.252-1.008 0-.602.336-1.078t.98-.742q.659-.28 1.596-.28.714 0 1.428.196.714.182 1.176.49l-.434.798a3.2 3.2 0 0 0-1.05-.476 4.2 4.2 0 0 0-1.12-.154q-.993 0-1.47.35-.462.336-.462.868 0 .42.252.658.267.238.686.378.435.126.938.21.519.084 1.022.21.518.112.938.322.434.196.686.574.267.365.266.966 0 .644-.364 1.12-.35.462-1.036.728-.672.252-1.638.252m4.862-.07v-7.35h.994V659zm.504-8.974a.7.7 0 0 1-.518-.21.69.69 0 0 1-.21-.504q0-.294.21-.49.21-.21.518-.21t.518.196.21.49q0 .308-.21.518a.67.67 0 0 1-.518.21m5.146 8.974-3.262-7.35h1.036l2.996 6.818h-.49l3.038-6.818h.98l-3.276 7.35zm8.489.07q-1.064 0-1.918-.476a3.64 3.64 0 0 1-1.33-1.33q-.49-.854-.49-1.946 0-1.106.49-1.946a3.53 3.53 0 0 1 1.33-1.316q.84-.476 1.918-.476 1.092 0 1.932.476a3.4 3.4 0 0 1 1.33 1.316q.49.84.49 1.946 0 1.092-.49 1.946a3.5 3.5 0 0 1-1.33 1.33q-.853.476-1.932.476m0-.882q.798 0 1.414-.35.617-.364.966-1.008.364-.659.364-1.512 0-.869-.364-1.512a2.47 2.47 0 0 0-.966-.994 2.7 2.7 0 0 0-1.4-.364q-.784 0-1.4.364a2.57 2.57 0 0 0-.98.994q-.364.643-.364 1.512 0 .853.364 1.512.364.644.98 1.008.617.35 1.386.35m7.755.882q-.909 0-1.722-.252-.812-.266-1.274-.658l.448-.784q.449.336 1.148.588a4.5 4.5 0 0 0 1.47.238q1.05 0 1.512-.322.462-.336.462-.882 0-.407-.266-.63a1.53 1.53 0 0 0-.672-.35 7 7 0 0 0-.938-.21q-.517-.084-1.036-.196a4 4 0 0 1-.924-.322 1.95 1.95 0 0 1-.686-.602q-.252-.378-.252-1.008 0-.602.336-1.078t.98-.742q.659-.28 1.596-.28.714 0 1.428.196.714.182 1.176.49l-.434.798a3.2 3.2 0 0 0-1.05-.476 4.2 4.2 0 0 0-1.12-.154q-.993 0-1.47.35-.462.336-.462.868 0 .42.252.658.267.238.686.378.435.126.938.21.519.084 1.022.21.519.112.938.322.434.196.686.574.267.365.266.966 0 .644-.364 1.12-.35.462-1.036.728-.672.252-1.638.252m11.648 0q-1.147 0-2.016-.476a3.6 3.6 0 0 1-1.358-1.33q-.49-.854-.49-1.946t.462-1.932q.477-.84 1.288-1.316a3.55 3.55 0 0 1 1.848-.49q1.036 0 1.834.476.813.462 1.274 1.316.462.84.462 1.946a1 1 0 0 1-.014.154v.154h-6.398v-.742h5.866l-.392.294q0-.798-.35-1.414a2.46 2.46 0 0 0-.924-.98q-.588-.35-1.358-.35-.755 0-1.358.35-.602.35-.938.98t-.336 1.442v.154q0 .84.364 1.484.379.63 1.036.994.672.35 1.526.35.673 0 1.246-.238a2.6 2.6 0 0 0 1.008-.728l.56.644a3.13 3.13 0 0 1-1.232.896 4.1 4.1 0 0 1-1.61.308m12.744-7.49q.896 0 1.568.35.686.336 1.064 1.036.392.7.392 1.764V659h-.994v-4.172q0-1.162-.588-1.75-.574-.602-1.624-.602-.784 0-1.372.322a2.16 2.16 0 0 0-.896.91q-.308.588-.308 1.428V659h-.994v-7.35h.952v2.016l-.154-.378a2.63 2.63 0 0 1 1.12-1.246q.77-.462 1.834-.462m8.705 7.49q-1.065 0-1.918-.476a3.63 3.63 0 0 1-1.33-1.33q-.49-.854-.49-1.946 0-1.106.49-1.946t1.33-1.316 1.918-.476q1.092 0 1.932.476a3.4 3.4 0 0 1 1.33 1.316q.49.84.49 1.946 0 1.092-.49 1.946a3.5 3.5 0 0 1-1.33 1.33q-.855.476-1.932.476m0-.882q.798 0 1.414-.35.615-.364.966-1.008.363-.659.364-1.512 0-.869-.364-1.512a2.5 2.5 0 0 0-.966-.994 2.7 2.7 0 0 0-1.4-.364q-.785 0-1.4.364a2.57 2.57 0 0 0-.98.994q-.364.643-.364 1.512 0 .853.364 1.512.363.644.98 1.008.615.35 1.386.35m8.105.882q-1.037 0-1.596-.56t-.56-1.582v-6.902h.994v6.846q0 .644.322.994.336.35.952.35.658 0 1.092-.378l.35.714a1.8 1.8 0 0 1-.714.392 2.8 2.8 0 0 1-.84.126m-3.472-6.594v-.826h4.55v.826zm6.835 6.524v-7.35h.994V659zm-.406-8.498 1.918-1.736h1.33l-2.268 1.736zm7.218 8.568q-1.092 0-1.96-.476a3.6 3.6 0 0 1-1.344-1.33q-.49-.854-.49-1.946 0-1.106.49-1.946t1.344-1.316q.868-.476 1.96-.476.938 0 1.694.364.756.365 1.19 1.092l-.742.504a2.34 2.34 0 0 0-.938-.826 2.8 2.8 0 0 0-1.218-.266 2.77 2.77 0 0 0-1.414.364q-.63.35-.994.994-.364.643-.364 1.512t.364 1.512.994 1.008q.63.35 1.414.35.659 0 1.218-.266.56-.266.938-.812l.742.504a2.86 2.86 0 0 1-1.19 1.092 3.85 3.85 0 0 1-1.694.364m4.727-.07v-7.35h.994V659zm.504-8.974a.7.7 0 0 1-.518-.21.69.69 0 0 1-.21-.504q0-.294.21-.49.21-.21.518-.21t.518.196.21.49q0 .308-.21.518a.67.67 0 0 1-.518.21m7.862 8.974v-1.624l-.042-.266v-2.716q0-.938-.532-1.442-.518-.504-1.554-.504a3.9 3.9 0 0 0-1.358.238 3.5 3.5 0 0 0-1.092.63l-.448-.742a3.9 3.9 0 0 1 1.344-.728 5.1 5.1 0 0 1 1.652-.266q1.428 0 2.198.714.784.7.784 2.142V659zm-2.534.07q-.825 0-1.442-.266-.602-.28-.924-.756a2 2 0 0 1-.322-1.12q0-.574.266-1.036.28-.476.896-.756.63-.294 1.68-.294h2.534v.742h-2.506q-1.064 0-1.484.378-.406.378-.406.938 0 .63.49 1.008t1.372.378q.84 0 1.442-.378.617-.392.896-1.12l.224.686a2.32 2.32 0 0 1-.98 1.162q-.686.434-1.736.434m8.16 0a5.8 5.8 0 0 1-1.722-.252q-.812-.266-1.274-.658l.448-.784q.448.336 1.148.588a4.5 4.5 0 0 0 1.47.238q1.05 0 1.512-.322.462-.336.462-.882 0-.407-.266-.63a1.53 1.53 0 0 0-.672-.35 7 7 0 0 0-.938-.21 20 20 0 0 1-1.036-.196 4 4 0 0 1-.924-.322 1.94 1.94 0 0 1-.686-.602q-.252-.378-.252-1.008 0-.602.336-1.078t.98-.742q.659-.28 1.596-.28.714 0 1.428.196.714.182 1.176.49l-.434.798a3.2 3.2 0 0 0-1.05-.476 4.2 4.2 0 0 0-1.12-.154q-.994 0-1.47.35-.462.336-.462.868 0 .42.252.658.266.238.686.378.434.126.938.21.518.084 1.022.21.518.112.938.322.434.196.686.574.266.365.266.966 0 .644-.364 1.12-.35.462-1.036.728-.672.252-1.638.252m8.526-.07v-7.35h.952v2.002l-.098-.35q.308-.84 1.036-1.274.727-.448 1.806-.448v.966h-.112a.5.5 0 0 0-.112-.014q-1.162 0-1.82.714-.658.7-.658 2.002V659zm8.563.07q-1.148 0-2.016-.476a3.6 3.6 0 0 1-1.358-1.33q-.49-.854-.49-1.946t.462-1.932q.477-.84 1.288-1.316a3.55 3.55 0 0 1 1.848-.49q1.036 0 1.834.476.813.462 1.274 1.316.462.84.462 1.946a1 1 0 0 1-.014.154v.154h-6.398v-.742h5.866l-.392.294q0-.798-.35-1.414a2.46 2.46 0 0 0-.924-.98q-.587-.35-1.358-.35-.755 0-1.358.35-.602.35-.938.98t-.336 1.442v.154q0 .84.364 1.484.379.63 1.036.994.672.35 1.526.35.673 0 1.246-.238a2.6 2.6 0 0 0 1.008-.728l.56.644a3.13 3.13 0 0 1-1.232.896 4.1 4.1 0 0 1-1.61.308m5.328-.07v-10.388h.994V659zm6.881.07q-1.147 0-2.016-.476a3.6 3.6 0 0 1-1.358-1.33q-.49-.854-.49-1.946t.462-1.932q.477-.84 1.288-1.316a3.55 3.55 0 0 1 1.848-.49q1.036 0 1.834.476.813.462 1.274 1.316.462.84.462 1.946a1 1 0 0 1-.014.154v.154h-6.398v-.742h5.866l-.392.294q0-.798-.35-1.414a2.46 2.46 0 0 0-.924-.98q-.587-.35-1.358-.35-.755 0-1.358.35-.602.35-.938.98t-.336 1.442v.154q0 .84.364 1.484.379.63 1.036.994.672.35 1.526.35.672 0 1.246-.238a2.6 2.6 0 0 0 1.008-.728l.56.644a3.13 3.13 0 0 1-1.232.896 4.1 4.1 0 0 1-1.61.308m7.081-.07-3.262-7.35h1.036l2.996 6.818h-.49l3.038-6.818h.98L235.97 659zm10.085 0v-1.624l-.042-.266v-2.716q0-.938-.532-1.442-.517-.504-1.554-.504-.714 0-1.358.238a3.5 3.5 0 0 0-1.092.63l-.448-.742q.56-.476 1.344-.728a5.1 5.1 0 0 1 1.652-.266q1.428 0 2.198.714.784.7.784 2.142V659zm-2.534.07q-.826 0-1.442-.266-.602-.28-.924-.756a2 2 0 0 1-.322-1.12q0-.574.266-1.036.28-.476.896-.756.63-.294 1.68-.294h2.534v.742h-2.506q-1.064 0-1.484.378a1.23 1.23 0 0 0-.406.938q0 .63.49 1.008t1.372.378q.84 0 1.442-.378.616-.392.896-1.12l.224.686a2.33 2.33 0 0 1-.98 1.162q-.686.434-1.736.434m9.938-7.49q.896 0 1.568.35.686.336 1.064 1.036.392.7.392 1.764V659h-.994v-4.172q0-1.162-.588-1.75-.574-.602-1.624-.602-.784 0-1.372.322a2.16 2.16 0 0 0-.896.91q-.308.588-.308 1.428V659h-.994v-7.35h.952v2.016l-.154-.378a2.63 2.63 0 0 1 1.12-1.246q.77-.462 1.834-.462m8.033 7.49q-1.036 0-1.596-.56t-.56-1.582v-6.902h.994v6.846q0 .644.322.994.336.35.952.35.657 0 1.092-.378l.35.714a1.8 1.8 0 0 1-.714.392 2.8 2.8 0 0 1-.84.126m-3.472-6.594v-.826h4.55v.826zm9.698 6.594q-1.149 0-2.016-.476a3.57 3.57 0 0 1-1.358-1.33q-.49-.854-.49-1.946t.462-1.932q.475-.84 1.288-1.316a3.55 3.55 0 0 1 1.848-.49q1.036 0 1.834.476a3.27 3.27 0 0 1 1.274 1.316q.462.84.462 1.946a1 1 0 0 1-.014.154v.154h-6.398v-.742h5.866l-.392.294q0-.798-.35-1.414a2.46 2.46 0 0 0-.924-.98q-.588-.35-1.358-.35-.756 0-1.358.35t-.938.98-.336 1.442v.154q0 .84.364 1.484.378.63 1.036.994.672.35 1.526.35.672 0 1.246-.238a2.6 2.6 0 0 0 1.008-.728l.56.644a3.15 3.15 0 0 1-1.232.896 4.1 4.1 0 0 1-1.61.308m7.301 0a5.8 5.8 0 0 1-1.722-.252q-.812-.266-1.274-.658l.448-.784q.447.336 1.148.588a4.5 4.5 0 0 0 1.47.238q1.05 0 1.512-.322.462-.336.462-.882 0-.407-.266-.63a1.53 1.53 0 0 0-.672-.35 7 7 0 0 0-.938-.21 20 20 0 0 1-1.036-.196 4 4 0 0 1-.924-.322 1.94 1.94 0 0 1-.686-.602q-.252-.378-.252-1.008 0-.602.336-1.078.335-.476.98-.742.657-.28 1.596-.28.714 0 1.428.196.714.182 1.176.49l-.434.798a3.2 3.2 0 0 0-1.05-.476 4.2 4.2 0 0 0-1.12-.154q-.995 0-1.47.35-.462.336-.462.868 0 .42.252.658.266.238.686.378.434.126.938.21.518.084 1.022.21.518.112.938.322.434.196.686.574.266.365.266.966 0 .644-.364 1.12-.35.462-1.036.728-.672.252-1.638.252m10.5 0a5.8 5.8 0 0 1-1.722-.252q-.812-.266-1.274-.658l.448-.784q.447.336 1.148.588a4.5 4.5 0 0 0 1.47.238q1.05 0 1.512-.322.462-.336.462-.882 0-.407-.266-.63a1.53 1.53 0 0 0-.672-.35 7 7 0 0 0-.938-.21 20 20 0 0 1-1.036-.196 4 4 0 0 1-.924-.322 1.94 1.94 0 0 1-.686-.602q-.252-.378-.252-1.008 0-.602.336-1.078.335-.476.98-.742.657-.28 1.596-.28.714 0 1.428.196.714.182 1.176.49l-.434.798a3.2 3.2 0 0 0-1.05-.476 4.2 4.2 0 0 0-1.12-.154q-.995 0-1.47.35-.462.336-.462.868 0 .42.252.658.266.238.686.378.434.126.938.21.518.084 1.022.21.518.112.938.322.434.196.686.574.266.365.266.966 0 .644-.364 1.12-.35.462-1.036.728-.672.252-1.638.252m7.858 0q-1.065 0-1.918-.476a3.63 3.63 0 0 1-1.33-1.33q-.49-.854-.49-1.946 0-1.106.49-1.946t1.33-1.316 1.918-.476q1.092 0 1.932.476a3.4 3.4 0 0 1 1.33 1.316q.49.84.49 1.946 0 1.092-.49 1.946a3.5 3.5 0 0 1-1.33 1.33q-.855.476-1.932.476m0-.882q.798 0 1.414-.35.615-.364.966-1.008.364-.659.364-1.512 0-.869-.364-1.512a2.5 2.5 0 0 0-.966-.994 2.7 2.7 0 0 0-1.4-.364q-.785 0-1.4.364a2.57 2.57 0 0 0-.98.994q-.364.643-.364 1.512 0 .853.364 1.512.363.644.98 1.008.615.35 1.386.35m9.575.882a3.5 3.5 0 0 1-1.736-.434 3.2 3.2 0 0 1-1.218-1.288q-.448-.84-.448-2.03 0-1.204.448-2.03.462-.84 1.232-1.274a3.45 3.45 0 0 1 1.722-.434q1.05 0 1.876.476.84.462 1.316 1.302t.476 1.96q0 1.106-.476 1.96-.476.84-1.316 1.316-.826.476-1.876.476m-3.794-.07v-10.388h.994v5.208l-.14 1.484.098 1.484V659zm3.724-.812q.784 0 1.4-.35a2.7 2.7 0 0 0 .98-1.008q.364-.659.364-1.512 0-.869-.364-1.512a2.57 2.57 0 0 0-.98-.994 2.7 2.7 0 0 0-1.4-.364 2.77 2.77 0 0 0-1.414.364 2.57 2.57 0 0 0-.98.994q-.35.643-.35 1.512 0 .853.35 1.512.364.644.98 1.008.63.35 1.414.35m5.764.812v-7.35h.952v2.002l-.098-.35q.309-.84 1.036-1.274.729-.448 1.806-.448v.966h-.112a.5.5 0 0 0-.112-.014q-1.161 0-1.82.714-.657.7-.658 2.002V659zm8.564.07q-1.149 0-2.016-.476a3.57 3.57 0 0 1-1.358-1.33q-.49-.854-.49-1.946t.462-1.932q.475-.84 1.288-1.316a3.55 3.55 0 0 1 1.848-.49q1.036 0 1.834.476a3.27 3.27 0 0 1 1.274 1.316q.462.84.462 1.946a1 1 0 0 1-.014.154v.154h-6.398v-.742h5.866l-.392.294q0-.798-.35-1.414a2.46 2.46 0 0 0-.924-.98q-.588-.35-1.358-.35-.756 0-1.358.35t-.938.98-.336 1.442v.154q0 .84.364 1.484.378.63 1.036.994.671.35 1.526.35.672 0 1.246-.238a2.6 2.6 0 0 0 1.008-.728l.56.644a3.15 3.15 0 0 1-1.232.896 4.1 4.1 0 0 1-1.61.308m13.597-.07v-1.624l-.042-.266v-2.716q0-.938-.532-1.442-.518-.504-1.554-.504-.714 0-1.358.238a3.5 3.5 0 0 0-1.092.63l-.448-.742q.56-.476 1.344-.728a5.1 5.1 0 0 1 1.652-.266q1.428 0 2.198.714.784.7.784 2.142V659zm-2.534.07q-.826 0-1.442-.266-.602-.28-.924-.756a2 2 0 0 1-.322-1.12q0-.574.266-1.036.28-.476.896-.756.63-.294 1.68-.294h2.534v.742h-2.506q-1.064 0-1.484.378a1.23 1.23 0 0 0-.406.938q0 .63.49 1.008t1.372.378q.84 0 1.442-.378.616-.392.896-1.12l.224.686a2.33 2.33 0 0 1-.98 1.162q-.686.434-1.736.434m-168.7 20q-.909 0-1.722-.252-.812-.266-1.274-.658l.448-.784q.449.336 1.148.588a4.5 4.5 0 0 0 1.47.238q1.05 0 1.512-.322.462-.336.462-.882 0-.407-.266-.63a1.53 1.53 0 0 0-.672-.35 7 7 0 0 0-.938-.21q-.517-.084-1.036-.196a4 4 0 0 1-.924-.322 1.95 1.95 0 0 1-.686-.602q-.252-.378-.252-1.008 0-.602.336-1.078t.98-.742q.659-.28 1.596-.28.714 0 1.428.196.714.182 1.176.49l-.434.798a3.2 3.2 0 0 0-1.05-.476 4.2 4.2 0 0 0-1.12-.154q-.993 0-1.47.35-.462.336-.462.868 0 .42.252.658.267.238.686.378.434.126.938.21.518.084 1.022.21.519.112.938.322.435.196.686.574.267.365.266.966 0 .644-.364 1.12-.35.462-1.036.728-.672.252-1.638.252m7.9 0q-.937 0-1.638-.35a2.53 2.53 0 0 1-1.092-1.05q-.378-.7-.378-1.75v-4.27h.994v4.158q0 1.176.574 1.778.588.588 1.638.588.77 0 1.33-.308.574-.322.868-.924.308-.602.308-1.442v-3.85h.994V679h-.952v-2.016l.154.364a2.74 2.74 0 0 1-1.092 1.274q-.727.448-1.708.448m10.975-.07v-1.624l-.042-.266v-2.716q0-.938-.532-1.442-.519-.504-1.554-.504-.714 0-1.358.238-.645.239-1.092.63l-.448-.742q.56-.476 1.344-.728a5.1 5.1 0 0 1 1.652-.266q1.428 0 2.198.714.784.7.784 2.142V679zm-2.534.07q-.827 0-1.442-.266-.603-.28-.924-.756a2 2 0 0 1-.322-1.12q0-.574.266-1.036.28-.476.896-.756.63-.294 1.68-.294h2.534v.742h-2.506q-1.065 0-1.484.378a1.23 1.23 0 0 0-.406.938q0 .63.49 1.008t1.372.378q.84 0 1.442-.378.615-.392.896-1.12l.224.686a2.33 2.33 0 0 1-.98 1.162q-.686.434-1.736.434m11.739-.07-3.262-7.35h1.036l2.996 6.818h-.49l3.038-6.818h.98l-3.276 7.35zm5.698 0v-7.35h.994V679zm.504-8.974a.7.7 0 0 1-.518-.21.69.69 0 0 1-.21-.504q0-.294.21-.49.21-.21.518-.21t.518.196.21.49q0 .308-.21.518a.67.67 0 0 1-.518.21m7.862 8.974v-1.624l-.042-.266v-2.716q0-.938-.532-1.442-.518-.504-1.554-.504-.714 0-1.358.238a3.5 3.5 0 0 0-1.092.63l-.448-.742q.56-.476 1.344-.728a5.1 5.1 0 0 1 1.652-.266q1.428 0 2.198.714.784.7.784 2.142V679zm-2.534.07q-.826 0-1.442-.266-.601-.28-.924-.756a2 2 0 0 1-.322-1.12q0-.574.266-1.036.28-.476.896-.756.63-.294 1.68-.294h2.534v.742h-2.506q-1.064 0-1.484.378a1.23 1.23 0 0 0-.406.938q0 .63.49 1.008t1.372.378q.84 0 1.442-.378.616-.392.896-1.12l.224.686a2.33 2.33 0 0 1-.98 1.162q-.686.434-1.736.434m9.322 2.716a6.3 6.3 0 0 1-1.932-.294q-.924-.294-1.498-.84l.504-.756q.518.462 1.274.728.77.28 1.624.28 1.4 0 2.058-.658.658-.644.658-2.016v-1.834l.14-1.26-.098-1.26v-2.226h.952v6.454q0 1.904-.938 2.786-.924.896-2.744.896m-.182-3.066q-1.05 0-1.89-.448a3.5 3.5 0 0 1-1.33-1.274q-.476-.812-.476-1.862t.476-1.848q.49-.812 1.33-1.26t1.89-.448q.98 0 1.764.406t1.246 1.204.462 1.946-.462 1.946a3.1 3.1 0 0 1-1.246 1.218q-.784.42-1.764.42m.098-.882q.812 0 1.442-.336.63-.35.994-.952.364-.616.364-1.414t-.364-1.4a2.54 2.54 0 0 0-.994-.938q-.63-.35-1.442-.35-.798 0-1.442.35-.63.336-.994.938-.35.602-.35 1.4t.35 1.414q.364.602.994.952.644.336 1.442.336m9.654 1.232q-1.148 0-2.016-.476a3.6 3.6 0 0 1-1.358-1.33q-.49-.854-.49-1.946t.462-1.932q.476-.84 1.288-1.316a3.55 3.55 0 0 1 1.848-.49q1.036 0 1.834.476a3.27 3.27 0 0 1 1.274 1.316q.462.84.462 1.946a1 1 0 0 1-.014.154v.154h-6.398v-.742h5.866l-.392.294q0-.798-.35-1.414a2.46 2.46 0 0 0-.924-.98q-.588-.35-1.358-.35-.756 0-1.358.35t-.938.98-.336 1.442v.154q0 .84.364 1.484.378.63 1.036.994.672.35 1.526.35.672 0 1.246-.238a2.6 2.6 0 0 0 1.008-.728l.56.644a3.14 3.14 0 0 1-1.232.896 4.1 4.1 0 0 1-1.61.308m14.511-7.49q.895 0 1.554.35.672.336 1.036 1.036.378.7.378 1.764V679h-.994v-4.172q0-1.162-.56-1.75-.546-.602-1.554-.602-.756 0-1.316.322a2.12 2.12 0 0 0-.854.91q-.294.588-.294 1.428V679h-.994v-4.172q0-1.162-.56-1.75-.56-.602-1.568-.602-.742 0-1.302.322a2.1 2.1 0 0 0-.868.91q-.294.588-.294 1.428V679h-.994v-7.35h.952v1.988l-.154-.35a2.6 2.6 0 0 1 1.078-1.246q.756-.462 1.778-.462 1.078 0 1.834.546.756.532.98 1.61l-.392-.154a2.88 2.88 0 0 1 1.134-1.442q.827-.56 1.974-.56m5.762 7.49a.73.73 0 0 1-.532-.224.77.77 0 0 1-.21-.546q0-.336.21-.546a.75.75 0 0 1 .532-.21q.308 0 .518.21.224.21.224.546a.74.74 0 0 1-.224.546.68.68 0 0 1-.518.224"/>
    <circle cx="145" cy="720" r="4" fill="#ecf1f8"/>
    <circle cx="161" cy="720" r="4" fill="#ecf1f8"/>
    <circle cx="177" cy="720" r="4" fill="#ecf1f8"/>
    <circle cx="193" cy="720" r="4" fill="#ecf1f8"/>
    <circle cx="209" cy="720" r="4" fill="#ecf1f8"/>
    <rect width="16" height="8" x="221" y="716" fill="#2d77e3" rx="4"/>
    <circle cx="249" cy="720" r="4" fill="#ecf1f8"/>
    <g filter="url(#b)">
      <rect width="361" height="48" x="16" y="756" fill="#2d77e3" rx="12"/>
      <path fill="#fff" d="M167.944 786.176q-1.28 0-2.112-.32a2.87 2.87 0 0 1-1.296-1.024q-.48-.688-.672-1.744-.176-1.072-.176-2.544 0-1.488.176-2.544.192-1.072.672-1.76t1.312-1.024q.847-.336 2.16-.336.528 0 1.104.064t1.104.16q.544.08.928.176l-.064 1.76a8 8 0 0 0-.8-.112 14.72 14.72 0 0 0-1.904-.128q-.768 0-1.248.192t-.752.64q-.256.448-.352 1.168a13 13 0 0 0-.096 1.744q0 1.024.096 1.744.096.703.352 1.152.256.432.736.64.496.192 1.28.192.64 0 1.408-.064.785-.08 1.296-.144l.048 1.744q-.384.08-.912.176-.528.08-1.12.128-.592.064-1.168.064m7.892 0q-1.36 0-2.192-.448-.816-.448-1.184-1.376-.368-.944-.368-2.432 0-1.44.384-2.336.384-.912 1.216-1.344.832-.448 2.144-.448 1.328 0 2.144.448.832.432 1.216 1.344.4.896.4 2.336 0 1.488-.368 2.432-.368.928-1.2 1.376-.816.448-2.192.448m0-1.76q.672 0 1.008-.24.336-.256.448-.8.128-.56.128-1.456 0-.88-.144-1.392-.144-.528-.48-.752t-.96-.224q-.607 0-.96.224-.336.224-.48.752-.144.511-.144 1.392 0 .896.112 1.456.128.544.464.8.336.24 1.008.24m5.216 1.584v-8.032h2.128v.512q.257-.16.624-.304.368-.16.768-.272.416-.112.8-.112.832 0 1.376.224.56.208.88.688t.464 1.264q.144.768.144 1.872V786h-2.144v-4.048q0-.832-.096-1.328-.096-.512-.368-.736t-.8-.224q-.288 0-.608.064-.304.048-.592.144a3 3 0 0 0-.448.192V786zm11.628.192q-.88 0-1.424-.256t-.784-.88q-.224-.64-.224-1.776v-3.536h-.944v-1.776h.944v-2.128h2.128v2.128h2.048v1.776h-2.048v2.976q0 .624.048.976.064.352.256.496t.592.144q.112 0 .336-.016l.448-.032q.225-.016.368-.032l.064 1.712q-.24.048-.592.096-.336.048-.672.08a4 4 0 0 1-.544.048m2.934-.192v-8.032h2.128V786zm0-9.312v-1.824h2.144v1.824zm3.907 9.312v-8.032h2.128v.512a3.7 3.7 0 0 1 .624-.304q.367-.16.768-.272.416-.112.8-.112.831 0 1.376.224.56.208.88.688t.464 1.264q.144.768.144 1.872V786h-2.144v-4.048q0-.832-.096-1.328-.096-.512-.368-.736t-.8-.224q-.288 0-.608.064-.304.048-.592.144a3 3 0 0 0-.448.192V786zm11.403.176q-1.04 0-1.616-.432-.56-.449-.8-1.344-.224-.895-.224-2.256v-4.176h2.128v4.08q0 .847.08 1.344.096.496.368.704.273.208.784.208.496 0 .928-.128t.688-.256v-5.952h2.128V786h-2.112v-.496a7 7 0 0 1-1.088.496q-.528.176-1.264.176m8.318 0q-1.248 0-1.888-.624-.624-.64-.624-1.92 0-.895.32-1.392.32-.512.944-.736.64-.24 1.552-.288l1.952-.176v-.48q0-.576-.288-.8-.288-.24-.848-.24-.449 0-1.04.032a41 41 0 0 0-2.128.176l-.064-1.504q.416-.096.992-.192.591-.112 1.232-.176a12 12 0 0 1 1.184-.064q1.023 0 1.712.256.687.256 1.04.848.352.576.352 1.568v3.664a.48.48 0 0 0 .24.352q.207.112.48.16l-.048 1.472h-.512q-.24.016-.464 0-.225 0-.4-.032a1.9 1.9 0 0 1-.64-.192 1.9 1.9 0 0 1-.416-.304q-.256.112-.688.256a7 7 0 0 1-.944.24 5.3 5.3 0 0 1-1.008.096m.512-1.584q.303 0 .64-.064.336-.064.624-.144.303-.096.48-.176v-1.84l-1.632.144q-.528.048-.768.32-.224.256-.224.736t.208.752q.224.272.672.272m5.767 1.408v-8.032h2.128v.944q.272-.208.672-.432.399-.24.864-.432.48-.208.912-.272v2.064a5 5 0 0 0-.88.224q-.465.144-.88.32a15 15 0 0 0-.688.32V786z"/>
    </g>
    <path fill="#000" d="M60.496 22.945c2.406 0 4.5 1.711 4.5 5.774v.015c0 3.797-1.711 6.047-4.547 6.047-2.07 0-3.617-1.226-3.977-2.953l-.015-.086h1.984l.023.078c.297.79.993 1.305 1.985 1.305 1.789 0 2.547-1.75 2.633-3.906 0-.086.007-.172.007-.258h-.156c-.414.89-1.398 1.68-2.945 1.68-2.164 0-3.68-1.578-3.68-3.72v-.015c0-2.289 1.742-3.96 4.188-3.96m-.008 6.149c1.273 0 2.25-.922 2.25-2.196v-.015c0-1.29-.977-2.297-2.227-2.297a2.227 2.227 0 0 0-2.234 2.25v.016c0 1.304.93 2.242 2.21 2.242m7.734-1.899a1.22 1.22 0 0 1-1.242-1.234c0-.695.532-1.234 1.242-1.234.72 0 1.243.539 1.243 1.234 0 .687-.524 1.234-1.243 1.234m0 5.797c-.71 0-1.242-.539-1.242-1.234s.532-1.235 1.242-1.235c.72 0 1.243.54 1.243 1.235s-.524 1.234-1.243 1.234m8.696 1.508v-2.164h-5.516v-1.648c1.461-2.54 3.063-5.133 4.594-7.461h2.852v7.445h1.515v1.664h-1.515V34.5zm-3.64-3.781h3.671v-5.883h-.117a117 117 0 0 0-3.554 5.766zM84.715 34.5v-9.29h-.133l-2.804 1.985v-1.898l2.945-2.07h2.008V34.5z"/>
    <rect width="125" height="37" x="134" y="11" fill="#000" rx="18.5"/>
    <rect width="80" height="37" x="134" y="11" fill="#000" rx="18.5"/>
    <rect width="37" height="37" x="222" y="11" fill="#000" rx="18.5"/>
    <path fill="#000" d="M291.299 26a1 1 0 0 1 1-1h1a1 1 0 0 1 1 1v8a1 1 0 0 1-1 1h-1a1 1 0 0 1-1-1zM296.299 24a1 1 0 0 1 1-1h1a1 1 0 0 1 1 1v10a1 1 0 0 1-1 1h-1a1 1 0 0 1-1-1zM286.299 29.5a1 1 0 0 1 1-1h1a1 1 0 0 1 1 1V34a1 1 0 0 1-1 1h-1a1 1 0 0 1-1-1zM281.299 32a1 1 0 0 1 1-1h1a1 1 0 0 1 1 1v2a1 1 0 0 1-1 1h-1a1 1 0 0 1-1-1zM313.415 31.919a3.75 3.75 0 0 1 4.918 0 .36.36 0 0 1 .011.52l-2.223 2.29a.343.343 0 0 1-.494 0l-2.223-2.29a.36.36 0 0 1 .011-.52m-3.006-2.74a7.85 7.85 0 0 1 10.855 0 .37.37 0 0 1 .005.521l-1.285 1.325a.34.34 0 0 1-.483.007 5.4 5.4 0 0 0-3.666-1.442 5.4 5.4 0 0 0-3.664 1.442.34.34 0 0 1-.482-.007l-1.285-1.325a.37.37 0 0 1 .005-.521m-3.002-2.737a11.95 11.95 0 0 1 16.785 0 .368.368 0 0 1 .003.518l-1.286 1.326a.34.34 0 0 1-.483.004 9.51 9.51 0 0 0-6.627-2.702 9.52 9.52 0 0 0-6.627 2.702.337.337 0 0 1-.482-.004l-1.287-1.325a.373.373 0 0 1 .004-.519"/>
    <path stroke="#000" d="M336.299 23.5h17a3.5 3.5 0 0 1 3.5 3.5v5a3.5 3.5 0 0 1-3.5 3.5h-17a3.5 3.5 0 0 1-3.5-3.5v-5a3.5 3.5 0 0 1 3.5-3.5Z" opacity=".35"/>
    <path fill="#000" d="M358.299 28v4.22a2.29 2.29 0 0 0 0-4.22" opacity=".4"/>
    <path fill="#000" d="M334.299 27a2 2 0 0 1 2-2h17a2 2 0 0 1 2 2v5a2 2 0 0 1-2 2h-17a2 2 0 0 1-2-2z"/>
    <g clip-path="url(#c)">
      <rect width="330" height="330" x="32" y="192" fill="#f1f6fd" rx="165"/>
      <path fill="#fd733c" d="M75.838 411.139h178.214a6.6 6.6 0 0 0 2.728-.543 6.63 6.63 0 0 0 3.661-4.021 6.6 6.6 0 0 0 .287-2.766l-10.837-121.634a8.21 8.21 0 0 0-7.968-7.331H63.7a6.6 6.6 0 0 0-4.99 2.16 6.62 6.62 0 0 0-1.685 5.171L67.86 403.773a8.19 8.19 0 0 0 7.977 7.366"/>
      <path fill="#fd733c" d="M76.413 411.139H254.62a6.6 6.6 0 0 0 4.994-2.157 6.6 6.6 0 0 0 1.681-5.173l-10.827-121.634a8.22 8.22 0 0 0-7.968-7.331H64.267a6.62 6.62 0 0 0-4.97 2.173 6.63 6.63 0 0 0-1.679 5.158l10.836 121.598a8.21 8.21 0 0 0 7.96 7.366"/>
      <path fill="#000" d="M76.413 411.139H254.62a6.6 6.6 0 0 0 4.994-2.157 6.6 6.6 0 0 0 1.681-5.173l-10.827-121.634a8.22 8.22 0 0 0-7.968-7.331H64.267a6.62 6.62 0 0 0-4.97 2.173 6.63 6.63 0 0 0-1.679 5.158l10.836 121.598a8.21 8.21 0 0 0 7.96 7.366" opacity=".2"/>
      <path fill="#fd733c" d="M242.809 278.545H64.001c-4.55.372-3.497 7.304 1.098 7.304h178.516c4.594 0 4.426-6.932-.204-7.304-.204.009-.398 0-.602 0"/>
      <path fill="#fafafa" d="M67.773 284.335a2.34 2.34 0 0 1-2.276-2.08 2.02 2.02 0 0 1 .505-1.532 1.96 1.96 0 0 1 1.47-.638 2.324 2.324 0 0 1 2.266 2.09 1.95 1.95 0 0 1-1.965 2.16m-.301-3.364a1.1 1.1 0 0 0-.815.345 1.14 1.14 0 0 0-.274.885 1.43 1.43 0 0 0 1.39 1.275 1.1 1.1 0 0 0 .814-.345 1.13 1.13 0 0 0 .275-.885 1.43 1.43 0 0 0-1.39-1.275M73.483 284.335a2.33 2.33 0 0 1-2.266-2.08 1.965 1.965 0 0 1 1.974-2.17 2.335 2.335 0 0 1 2.266 2.09 1.93 1.93 0 0 1-.504 1.523 1.97 1.97 0 0 1-1.47.637m-.292-3.364a1.1 1.1 0 0 0-.815.345 1.1 1.1 0 0 0-.283.885 1.43 1.43 0 0 0 1.39 1.275 1.084 1.084 0 0 0 1.053-.756c.048-.154.06-.316.036-.474a1.43 1.43 0 0 0-1.381-1.275M79.202 284.335a2.34 2.34 0 0 1-2.275-2.08 2.02 2.02 0 0 1 .504-1.532 1.96 1.96 0 0 1 1.47-.638 2.34 2.34 0 0 1 2.275 2.09 2 2 0 0 1-.505 1.523 1.97 1.97 0 0 1-1.47.637m-.301-3.364a1.1 1.1 0 0 0-.815.345 1.14 1.14 0 0 0-.274.885 1.43 1.43 0 0 0 1.39 1.275 1.1 1.1 0 0 0 .814-.345 1.13 1.13 0 0 0 .275-.885 1.433 1.433 0 0 0-1.425-1.275z"/>
      <path fill="#fff" d="M79.185 399.037h170.547a2.405 2.405 0 0 0 2.321-1.653c.106-.323.142-.665.105-1.003l-8.959-100.041a2.97 2.97 0 0 0-2.895-2.656H69.8a2.4 2.4 0 0 0-1.811.781 2.4 2.4 0 0 0-.614 1.875l8.915 100.041a2.967 2.967 0 0 0 2.895 2.656" opacity=".95"/>
      <path fill="#145933" d="M138.403 478.538c2.373 7.251-.885 13.129-8.109 13.129h120.651c7.26 0 10.482-5.878 8.109-13.129z"/>
      <path fill="#66cf96" d="M86.736 301.076c25.86 59.157 5.861 118.323 25.4 177.462 2.382 7.251 10.916 13.129 18.158 13.129s10.482-5.878 8.109-13.129h107.522c-19.548-59.157.452-118.305-25.408-177.462z"/>
      <path fill="#fff" d="M86.736 301.076c25.86 59.157 5.861 118.323 25.4 177.462 2.382 7.251 10.916 13.129 18.158 13.129s10.482-5.878 8.109-13.129h107.522c-19.548-59.157.452-118.305-25.408-177.462z" opacity=".8"/>
      <path fill="#66d096" d="M143.786 345.918h-32.535a176.7 176.7 0 0 0-7.446-32.536h32.536a177 177 0 0 1 7.445 32.536"/>
      <path fill="#66d096" d="M231.424 469.49h-72.596a206 206 0 0 1-5.905-35.519h72.596a206 206 0 0 0 5.905 35.519" opacity=".6"/>
      <g fill="#66d096" opacity=".8">
        <path d="M214.629 317.012h-72.596a247 247 0 0 0-1.169-3.612h72.596q.611 1.806 1.169 3.612M217.232 326.441h-72.596a213 213 0 0 1-.886-3.612h72.597q.434 1.779.885 3.612M202.935 335.807h-56.262c-.23-1.204-.469-2.408-.726-3.612h56.271q.37 1.806.717 3.612"/>
      </g>
      <g fill="#2b8b56" opacity=".2">
        <path d="M222.225 357.657h-72.596c-.071-.788-.142-1.585-.221-2.381h72.596c.079.796.15 1.593.221 2.381M222.721 363.854h-72.596c-.053-.797-.115-1.593-.177-2.381h72.596c.062.788.124 1.584.177 2.381M202.934 370.043h-52.437c0-.797-.08-1.585-.133-2.382h52.446zM223.376 376.231H150.78c0-.788-.062-1.585-.097-2.382h72.596c.035.797.07 1.594.097 2.382M223.589 382.428h-72.596c0-.797-.045-1.593-.071-2.381h72.596c.026.788.053 1.584.071 2.381M167.734 388.617h-16.573c0-.797 0-1.585-.062-2.382h16.573c.027.797.045 1.594.062 2.382M223.89 394.814h-72.596c0-.797 0-1.594-.044-2.382h72.596c.017.788.026 1.585.044 2.382M224.058 401.002h-72.596l-.053-2.381h72.596zM224.173 407.19h-72.596c0-.787 0-1.584-.062-2.381h72.596c.017.797.035 1.594.062 2.381M224.358 413.388h-72.596l-.079-2.382h72.596zM224.598 419.576h-72.596c0-.788-.071-1.585-.098-2.381H224.5c.027.796.062 1.593.098 2.381M182.97 425.773h-30.623l-.133-2.381h30.641z"/>
      </g>
      <path fill="#e29482" d="M302.241 319.287c.797.965 1.47 1.833 2.151 2.771.682.939 1.346 1.851 1.992 2.798a89 89 0 0 1 3.692 5.799c1.16 1.992 2.275 4.019 3.258 6.144a54 54 0 0 1 2.656 6.613l.283.885.071.213.106.372q.122.401.186.814c.16.951.181 1.92.062 2.877a15.6 15.6 0 0 1-1.23 4.285 33.3 33.3 0 0 1-3.763 6.339 65.2 65.2 0 0 1-9.393 10.084l-3.595-3.302a121 121 0 0 0 6.649-10.801 30.4 30.4 0 0 0 2.302-5.312 7.2 7.2 0 0 0 .363-2.089c0-.239 0-.408-.071-.408l-.071-.168-.292-.681a76.5 76.5 0 0 0-5.861-10.784 91 91 0 0 0-3.541-5.232c-1.239-1.691-2.488-3.479-3.665-5.055z"/>
      <path fill="#e29482" d="m300.948 364.872-5.931 1.718 4.727 5.533s3.993-1.895 3.586-5.02zM290.767 371.344l5.373 4.285 3.604-3.506-4.728-5.533z"/>
      <path fill="#263238" d="M269.501 290.754c0 .531-.274.956-.62.956-.345 0-.619-.425-.619-.956 0-.532.274-.948.619-.948.346 0 .62.425.62.948"/>
      <path fill="#d78b89" d="M269.271 291.71a18.9 18.9 0 0 1-2.505 4.479 3.02 3.02 0 0 0 2.505.478z"/>
      <path fill="#263238" d="M271.361 287.85a.28.28 0 0 1-.178-.062 2.5 2.5 0 0 0-2.195-.399.31.31 0 0 1-.399-.177.32.32 0 0 1 .178-.398 3.06 3.06 0 0 1 2.771.478.3.3 0 0 1 .129.201.3.3 0 0 1-.059.233.31.31 0 0 1-.247.124"/>
      <path fill="#e29482" d="M286.429 296.8c-.93 4.763-1.859 13.484 1.469 16.653 0 0-1.301 4.825-10.145 4.825-9.739 0-4.639-4.825-4.639-4.825 5.312-1.266 5.161-5.197 4.24-8.897z"/>
      <path fill="#2d78e4" d="M289.173 315.109c.699-1.523 1.461-3.276-.124-3.825-1.771-.602-11.305-1.213-14.599-.08a3.42 3.42 0 0 0-2.065 1.623 3.4 3.4 0 0 0-.299 2.609zM321.053 523.557h-.062c-.752.159-2.655-.089-3.027-.726a.505.505 0 0 1 .106-.629.88.88 0 0 1 .629-.274c.982 0 2.31 1.31 2.363 1.372a.14.14 0 0 1 .045.15.14.14 0 0 1-.054.107m-2.7-1.16-.053.053c-.142.142-.088.23-.071.266.213.371 1.541.664 2.382.61a3.76 3.76 0 0 0-1.904-1.053.54.54 0 0 0-.354.124"/>
      <path fill="#e29482" d="M280.258 536.916h-6.507l-.646-15.059h6.498zM327.623 521.662l-6.295 1.638-6.967-13.74 6.294-1.647z"/>
      <path fill="#263238" d="m320.841 522.556 5.569-4.728a.55.55 0 0 1 .708 0l4.719 3.542a.95.95 0 0 1 .366.748.95.95 0 0 1-.366.748c-1.974 1.611-3.019 2.302-5.462 4.382-1.514 1.275-6.056 5.666-8.137 7.437-2.08 1.771-4.099-.062-3.408-.974 3.116-4.072 5.144-8.047 5.436-10.19.065-.382.27-.726.575-.965"/>
      <path fill="#e29482" d="M264.721 327.901c-2.16 3.825-4.427 7.446-6.852 11.058a139 139 0 0 1-7.809 10.526 22 22 0 0 1-1.08 1.275l-.54.638-.274.318-.461.479a13.3 13.3 0 0 1-3.683 2.656 29.5 29.5 0 0 1-6.914 2.337 57.8 57.8 0 0 1-13.342 1.124l-.478-4.86a115 115 0 0 0 11.642-3.666 27 27 0 0 0 4.887-2.408 5.8 5.8 0 0 0 1.372-1.221l.753-1.027c.292-.408.593-.806.885-1.231 2.346-3.329 4.604-6.817 6.808-10.34 2.205-3.524 4.427-7.083 6.543-10.624z"/>
      <path fill="#263238" d="M300.08 314.932c6.1 1.398 13.085 18.016 13.085 18.016l-12.243 8.393a103.7 103.7 0 0 1-8.083-13.749c-3.613-7.614 1.009-14.095 7.241-12.66"/>
      <path fill="#000" d="m295.715 325.555 5.79 15.414-.575.398s-2.506-3.541-5.215-8.26z" opacity=".3"/>
      <path fill="#263238" d="M263.649 315.259s-6.923 7.817-.389 56.218h34.784c.239-5.312-3.116-31.394 2.036-56.554a91 91 0 0 0-11.642-1.47c-4.924-.283-9.86-.283-14.785 0-3.376.34-6.721.944-10.004 1.806"/>
      <path fill="#000" d="M267.51 329.256a30.87 30.87 0 0 1-6.87 14.891 172 172 0 0 1-.186-8.419z" opacity=".3"/>
      <path fill="#263238" d="M270.511 320.536c.885 6.153-11.279 21.885-11.279 21.885l-12.156-8.393s3.373-8.667 9.075-14.351c6.462-6.516 13.421-5.843 14.36.859"/>
      <path fill="#e29482" d="m223.678 353.434-6.817-.823.186 8.304s5.365.46 8.286-3.276zM210.061 354.638l2.656 6.719 4.329-.442-.186-8.304z"/>
      <path fill="#000" d="m273.105 521.857.363 8.463h6.507l-.363-8.463zM320.655 507.922l-6.294 1.638 3.86 7.613 6.029-2.169z" opacity=".2"/>
      <path fill="#e29482" d="M286.995 289.647c-.389 6.436-.292 10.234-3.541 13.536-4.896 4.976-12.846 2.028-14.387-4.426-1.381-5.79-.504-15.352 5.808-17.91a8.8 8.8 0 0 1 4.39-.598 8.79 8.79 0 0 1 6.94 5.038 8.8 8.8 0 0 1 .79 4.36"/>
      <path fill="#263238" d="M275.407 292.648c-3.409-.682-2.169-4.772-1.328-5.976a1.58 1.58 0 0 1-1.067-1.957 1.6 1.6 0 0 1 .42-.699c-1.425 0-5.028-.248-4.825-4.426.204-4.179 2.86-3.745 3.843-1.328a5.753 5.753 0 0 1 6.985-3.887c3.692.885.442 2.798.442 2.798s8.057-1.62 6.933 2.514c3.488.195 8.561 3.417 6.002 6.197 1.523 2.993 1.284 5.038-.637 5.834-.664 3.595-4.48 10.483-7.384 10.483-2.399-.009-9.225-3.258-9.384-9.553"/>
      <path fill="#e29482" d="M278.266 291.4a7.33 7.33 0 0 1-2.276 4.09c-1.575 1.399-2.948.274-2.992-1.638 0-1.726.726-4.542 2.541-5.214s3.045.85 2.727 2.762"/>
      <path fill="#2d78e4" d="M275.601 371.477s7.384 49.693 11.43 68.284c4.426 20.362 27.019 74.951 27.019 74.951l11.332-3.647s-16.334-49.224-18.839-69.418c-2.745-21.912-8.499-70.17-8.499-70.17z"/>
      <path fill="#263238" d="M311.643 512.357c-.045 0 2.602 3.966 2.602 3.966l12.731-4.196-1.514-3.798z"/>
      <path fill="#000" d="M280.267 389.183c8.534 1.673 7.631 33.5 6.604 49.87-2.461-11.571-6.064-33.837-8.525-49.64a2.92 2.92 0 0 1 1.921-.23" opacity=".3"/>
      <path fill="#2d78e4" d="M263.26 371.477s-3.081 48.63-2.373 68.461c.735 20.628 10.128 88.178 10.128 88.178h11.013s-1.77-66.346-1.292-86.602c.54-22.133 5.391-70.037 5.391-70.037z"/>
    </g>
  </g>
  <defs>
    <clipPath id="a">
      <rect width="393" height="852" fill="#fff" rx="16"/>
    </clipPath>
    <clipPath id="c">
      <rect width="330" height="330" x="32" y="192" fill="#fff" rx="165"/>
    </clipPath>
    <filter id="b" width="401.8" height="88.8" x="-4.4" y="739.6" color-interpolation-filters="sRGB" filterUnits="userSpaceOnUse">
      <feFlood flood-opacity="0" result="BackgroundImageFix"/>
      <feColorMatrix in="SourceAlpha" result="hardAlpha" values="0 0 0 0 0 0 0 0 0 0 0 0 0 0 0 0 0 0 127 0"/>
      <feOffset dy="4"/>
      <feGaussianBlur stdDeviation="10.2"/>
      <feComposite in2="hardAlpha" operator="out"/>
      <feColorMatrix values="0 0 0 0 0.176471 0 0 0 0 0.466667 0 0 0 0 0.890196 0 0 0 0.16 0"/>
      <feBlend in2="BackgroundImageFix" result="effect1_dropShadow_43_871"/>
      <feBlend in="SourceGraphic" in2="effect1_dropShadow_43_871" result="shape"/>
    </filter>
  </defs>
</svg>
