<svg xmlns="http://www.w3.org/2000/svg" width="393" height="852" fill="none" viewBox="0 0 393 852">
  <g clip-path="url(#a)">
    <rect width="393" height="852" fill="#f7fafd" rx="16"/>
    <path fill="#1b1b1b" d="M74.943 614v-11.32h-3.68v-2.34h10v2.34h-3.56V614zm10.42.22q-1.66 0-2.64-.56-.96-.56-1.38-1.7t-.42-2.86q0-1.86.52-3.04.54-1.18 1.56-1.74 1.02-.58 2.52-.58 2.22 0 3.34 1.12 1.14 1.12 1.14 3.54l-.12 1.48h-6.28q.02 1.12.46 1.68t1.52.56q.62 0 1.36-.02l1.46-.08a57 57 0 0 0 1.26-.08l.06 1.86q-.5.08-1.26.18t-1.58.16q-.8.08-1.52.08m-1.76-6.04h3.74q0-1.36-.44-1.9-.42-.54-1.38-.54-.64 0-1.06.24t-.64.78-.22 1.42m11.789 6.04q-.66 0-1.42-.08-.74-.06-1.4-.16a19 19 0 0 1-1.1-.2l.08-1.98q.52.06 1.16.14.66.08 1.28.14.64.04 1.04.04.6 0 .98-.1.399-.1.6-.32.2-.24.2-.68 0-.34-.18-.52-.16-.18-.64-.3-.46-.14-1.36-.28-1.12-.16-1.86-.46-.72-.3-1.06-.88-.34-.6-.34-1.62 0-1.24.54-1.94t1.44-.98q.9-.3 1.96-.3.7 0 1.44.08.74.06 1.4.16t1.1.2l-.08 2.02q-.5-.08-1.16-.14a23 23 0 0 0-2.4-.16q-.46 0-.82.1-.36.08-.56.28-.18.2-.18.6 0 .28.16.46.159.18.6.32.459.12 1.32.24 1.239.18 1.98.5t1.06.92q.34.6.34 1.62 0 1.2-.48 1.92t-1.4 1.04-2.24.32m9.392.02q-1.1 0-1.78-.32t-.98-1.1q-.28-.8-.28-2.22v-4.42h-1.18v-2.22h1.18v-2.66h2.66v2.66h2.56v2.22h-2.56v3.72q0 .78.06 1.22.08.44.32.62t.74.18q.14 0 .42-.02l.56-.04q.28-.02.46-.04l.08 2.14q-.3.06-.74.12-.42.06-.84.1a5 5 0 0 1-.68.06m7.728-.02q-1.66 0-2.64-.56-.96-.56-1.38-1.7t-.42-2.86q0-1.86.52-3.04.54-1.18 1.56-1.74 1.02-.58 2.52-.58 2.22 0 3.34 1.12 1.14 1.12 1.14 3.54l-.12 1.48h-6.28q.02 1.12.46 1.68t1.52.56q.62 0 1.36-.02l1.46-.08q.74-.04 1.26-.08l.06 1.86a51 51 0 0 1-1.26.18 27 27 0 0 1-1.58.16q-.8.08-1.52.08m-1.76-6.04h3.74q0-1.36-.44-1.9-.42-.54-1.38-.54-.64 0-1.06.24t-.64.78-.22 1.42m11.788 6.04q-.66 0-1.42-.08-.74-.06-1.4-.16a20 20 0 0 1-1.1-.2l.08-1.98q.52.06 1.16.14.66.08 1.28.14.64.04 1.04.04.6 0 .98-.1.4-.1.6-.32.2-.24.2-.68 0-.34-.18-.52-.16-.18-.64-.3-.46-.14-1.36-.28-1.119-.16-1.86-.46-.72-.3-1.06-.88-.34-.6-.34-1.62 0-1.24.54-1.94t1.44-.98q.9-.3 1.96-.3.7 0 1.44.08.74.06 1.4.16t1.1.2l-.08 2.02q-.5-.08-1.16-.14a23 23 0 0 0-2.4-.16q-.46 0-.82.1-.36.08-.56.28-.18.2-.18.6 0 .28.16.46t.6.32q.46.12 1.32.24 1.24.18 1.98.5t1.06.92q.34.6.34 1.62 0 1.2-.48 1.92t-1.4 1.04-2.24.32m13.608 0q-.72 0-1.32-.18-.6-.16-1.06-.52a3.4 3.4 0 0 1-.76-.98q-.3-.6-.46-1.46a11.5 11.5 0 0 1-.16-2.04q0-1.72.42-2.9.44-1.18 1.38-1.78.94-.62 2.5-.62.3 0 .7.04.4.02.78.08.38.04.62.08v-4.08h2.68V614h-2.64l-.02-.58a8 8 0 0 1-.74.36q-.44.18-.94.3-.5.14-.98.14m.68-2.24q.36 0 .72-.08.38-.08.7-.18.34-.12.54-.22v-5.38a3 3 0 0 0-.48-.06 9 9 0 0 0-.62-.06 5 5 0 0 0-.58-.04q-.78 0-1.22.36-.42.36-.6 1.06-.18.68-.18 1.66 0 .86.12 1.44.12.56.34.9.24.32.56.46t.7.14m10.898 2.24q-1.659 0-2.64-.56-.96-.56-1.38-1.7t-.42-2.86q0-1.86.52-3.04.54-1.18 1.56-1.74 1.02-.58 2.52-.58 2.22 0 3.34 1.12 1.14 1.12 1.14 3.54l-.12 1.48h-6.28q.02 1.12.46 1.68t1.52.56a52 52 0 0 0 1.36-.02l1.46-.08q.741-.04 1.26-.08l.06 1.86q-.5.08-1.26.18t-1.58.16a15 15 0 0 1-1.52.08m-1.76-6.04h3.74q0-1.36-.44-1.9-.42-.54-1.38-.54-.64 0-1.06.24t-.64.78-.22 1.42m17.105 6.04q-.76 0-1.66-.1a35 35 0 0 1-1.76-.2l-1.44-.24.18-2.18q.62.08 1.44.18.819.08 1.62.14.82.06 1.42.06.76 0 1.24-.2t.7-.6q.24-.42.24-1.06 0-.52-.22-.82-.2-.32-.74-.5-.54-.2-1.5-.38-1.2-.22-2.06-.52-.84-.3-1.38-.74a2.75 2.75 0 0 1-.8-1.16q-.24-.7-.24-1.7 0-1.56.58-2.44.58-.9 1.66-1.28t2.54-.38q.66 0 1.5.08.86.06 1.68.16.84.1 1.42.22l-.12 2.2q-.6-.08-1.4-.14-.78-.08-1.56-.14-.76-.06-1.3-.06-.74 0-1.24.16t-.74.5-.24.86q0 .6.24.92t.8.52q.58.2 1.58.42 1.18.26 2 .56.84.3 1.34.72.52.42.76 1.08t.24 1.66q0 1.6-.58 2.58-.56.96-1.64 1.4-1.06.42-2.56.42m9.153 0q-1.56 0-2.36-.78-.78-.8-.78-2.4 0-1.12.4-1.74.4-.64 1.18-.92.8-.3 1.94-.36l2.44-.22v-.6q0-.72-.36-1-.36-.3-1.06-.3-.56 0-1.3.04-.72.04-1.44.1-.7.06-1.22.12l-.08-1.88q.52-.12 1.24-.24a18 18 0 0 1 1.54-.22q.8-.08 1.48-.08 1.28 0 2.14.32t1.3 1.06q.44.72.44 1.96v4.58a.6.6 0 0 0 .3.44q.26.14.6.2l-.06 1.84h-.64q-.3.02-.58 0-.28 0-.5-.04a2.4 2.4 0 0 1-.8-.24 2.4 2.4 0 0 1-.52-.38q-.32.14-.86.32t-1.18.3a6.6 6.6 0 0 1-1.26.12m.64-1.98q.38 0 .8-.08t.78-.18q.38-.12.6-.22v-2.3l-2.04.18q-.66.06-.96.4-.28.32-.28.92t.26.94q.28.34.84.34m10.409 1.98q-1.3 0-2.02-.54-.7-.56-1-1.68-.28-1.12-.28-2.82v-5.22h2.66v5.1q0 1.06.1 1.68.12.62.46.88t.98.26q.62 0 1.16-.16t.86-.32v-7.44h2.66V614h-2.64v-.62q-.68.38-1.36.62-.66.22-1.58.22m-.02-11.76-1.16-1.5 3.9-1.98 1.52 2.02zm11.176 11.76q-.72 0-1.32-.18-.6-.16-1.06-.52a3.4 3.4 0 0 1-.76-.98q-.3-.6-.46-1.46a11.6 11.6 0 0 1-.16-2.04q0-1.72.42-2.9.441-1.18 1.38-1.78.94-.62 2.5-.62.3 0 .7.04.4.02.78.08.38.04.62.08v-4.08h2.68V614h-2.64l-.02-.58a8 8 0 0 1-.74.36q-.44.18-.94.3-.5.14-.98.14m.68-2.24q.36 0 .72-.08a7 7 0 0 0 .7-.18q.34-.12.54-.22v-5.38a3 3 0 0 0-.48-.06 9 9 0 0 0-.62-.06 5 5 0 0 0-.58-.04q-.78 0-1.22.36-.42.36-.6 1.06-.18.68-.18 1.66 0 .86.12 1.44.12.56.34.9.24.32.56.46t.7.14m10.899 2.24q-1.66 0-2.64-.56-.96-.56-1.38-1.7t-.42-2.86q0-1.86.52-3.04.54-1.18 1.56-1.74 1.02-.58 2.52-.58 2.22 0 3.34 1.12 1.14 1.12 1.14 3.54l-.12 1.48h-6.28q.02 1.12.46 1.68t1.52.56q.62 0 1.36-.02l1.46-.08q.74-.04 1.26-.08l.06 1.86a51 51 0 0 1-1.26.18 27 27 0 0 1-1.58.16q-.8.08-1.52.08m-1.76-6.04h3.74q0-1.36-.44-1.9-.42-.54-1.38-.54-.64 0-1.06.24t-.64.78-.22 1.42m16.584 6.04q-1.66 0-2.64-.56-.96-.56-1.38-1.7t-.42-2.86q0-1.86.52-3.04.54-1.18 1.56-1.74 1.02-.58 2.52-.58 2.22 0 3.34 1.12 1.14 1.12 1.14 3.54l-.12 1.48h-6.28q.02 1.12.46 1.68t1.52.56q.62 0 1.36-.02l1.46-.08q.74-.04 1.26-.08l.06 1.86q-.5.08-1.26.18a27 27 0 0 1-1.58.16 15 15 0 0 1-1.52.08m-1.76-6.04h3.74q0-1.36-.44-1.9-.42-.54-1.38-.54-.64 0-1.06.24t-.64.78-.22 1.42m12.684 5.82v-13.66h2.76V614zm5.133 0v-10.04h2.66v.64q.32-.2.78-.38.46-.2.96-.34a3.9 3.9 0 0 1 1-.14q1.04 0 1.72.28.7.26 1.1.86t.58 1.58q.18.96.18 2.34v5.2h-2.68v-5.06q0-1.04-.12-1.66-.12-.64-.46-.92t-1-.28q-.36 0-.76.08-.38.06-.74.18a4 4 0 0 0-.56.24V614zm14.536.24q-1.1 0-1.78-.32t-.98-1.1q-.28-.8-.28-2.22v-4.42h-1.18v-2.22h1.18v-2.66h2.66v2.66h2.56v2.22h-2.56v3.72q0 .78.06 1.22.08.44.32.62t.74.18q.14 0 .42-.02l.56-.04q.28-.02.46-.04l.08 2.14q-.3.06-.74.12-.42.06-.84.1-.4.06-.68.06m7.727-.02q-1.659 0-2.64-.56-.96-.56-1.38-1.7t-.42-2.86q0-1.86.52-3.04.54-1.18 1.56-1.74 1.02-.58 2.52-.58 2.22 0 3.34 1.12 1.14 1.12 1.14 3.54l-.12 1.48h-6.28q.02 1.12.46 1.68t1.52.56a52 52 0 0 0 1.36-.02l1.46-.08q.741-.04 1.26-.08l.06 1.86q-.5.08-1.26.18t-1.58.16a15 15 0 0 1-1.52.08m-1.76-6.04h3.74q0-1.36-.44-1.9-.42-.54-1.38-.54-.64 0-1.06.24t-.64.78-.22 1.42m12.589 10.4q-1.6 0-2.68-.24-1.06-.24-1.6-.88-.54-.62-.54-1.8 0-.52.14-.94.16-.4.48-.76.34-.36.84-.74a1.46 1.46 0 0 1-.46-.58 2.3 2.3 0 0 1-.16-.86q0-.16.14-.42.14-.28.34-.58t.38-.54a2.8 2.8 0 0 1-.76-.52q-.36-.36-.6-.96-.22-.6-.22-1.54 0-1.28.48-2.04.5-.76 1.44-1.1t2.28-.34q.52 0 1.12.08t.96.16l3.26-.06v1.8l-1.52-.02q.18.24.32.62.16.36.16.9 0 1.38-.48 2.14-.46.76-1.4 1.06-.94.28-2.38.28-.16 0-.44-.02-.28-.04-.46-.06a6 6 0 0 0-.16.46q-.08.24-.08.34 0 .22.08.34.1.12.34.2.26.06.74.08.5.02 1.32.02 1.42 0 2.26.26.86.26 1.22.92t.36 1.86q0 1.78-1.26 2.62-1.24.86-3.46.86m-.14-1.98q1.24 0 1.78-.3.56-.28.56-.94 0-.52-.2-.76-.18-.24-.62-.32a9 9 0 0 0-1.2-.06q-.2 0-.48-.02a9 9 0 0 1-.58-.02q-.28 0-.52-.02a4 4 0 0 0-.32-.02 3.6 3.6 0 0 0-.46.38q-.16.18-.24.36a1.7 1.7 0 0 0-.06.48q0 .46.22.72.22.28.72.4.52.12 1.4.12m-.34-7.78q.92 0 1.3-.36.4-.38.4-1.24t-.4-1.24q-.38-.38-1.3-.38-.88 0-1.28.38-.38.38-.38 1.24t.38 1.24q.4.36 1.28.36m6.724 5.18v-10.04h2.66v1.18q.34-.26.84-.54.5-.3 1.08-.54.6-.26 1.14-.34v2.58a6.4 6.4 0 0 0-1.1.28 12 12 0 0 0-1.1.4q-.5.22-.86.4V614zm9.729.22q-1.56 0-2.36-.78-.78-.8-.78-2.4 0-1.12.4-1.74.4-.64 1.18-.92.8-.3 1.94-.36l2.44-.22v-.6q0-.72-.36-1-.36-.3-1.06-.3-.56 0-1.3.04-.72.04-1.44.1-.7.06-1.22.12l-.08-1.88q.52-.12 1.24-.24a18 18 0 0 1 1.54-.22q.8-.08 1.48-.08 1.28 0 2.14.32t1.3 1.06q.44.72.44 1.96v4.58a.6.6 0 0 0 .3.44q.261.14.6.2l-.06 1.84h-.64q-.3.02-.58 0a3 3 0 0 1-.5-.04 2.4 2.4 0 0 1-.8-.24 2.4 2.4 0 0 1-.52-.38q-.32.14-.86.32t-1.18.3a6.6 6.6 0 0 1-1.26.12m.64-1.98q.38 0 .8-.08t.78-.18q.381-.12.6-.22v-2.3l-2.04.18q-.66.06-.96.4-.28.32-.28.92t.26.94q.28.34.84.34m11.309 1.98q-1.72 0-2.7-.52-.96-.54-1.36-1.72-.38-1.18-.38-3.1 0-1.9.44-3.02.44-1.14 1.42-1.62 1-.5 2.6-.5.42 0 .98.06t1.12.16q.58.08.98.16l-.1 2.14q-.38-.04-.86-.06a23 23 0 0 0-.94-.06 8 8 0 0 0-.72-.04q-.86 0-1.36.28-.48.26-.68.88-.18.6-.18 1.62 0 1.1.18 1.76t.64.94q.48.28 1.4.28.28 0 .74-.02l.94-.08q.5-.04.88-.06l.08 2.14q-.4.08-.96.16-.56.1-1.14.16-.56.06-1.02.06m.34 4.24q-.58 0-1.16-.06a5.5 5.5 0 0 1-.88-.12l.06-1.2q.12.02.52.02.42.02.66.02.42 0 .62-.16.2-.14.2-.46 0-.34-.2-.46-.2-.1-.62-.1h-.58v-2.04h1.08v.94q.84 0 1.38.14t.8.48q.26.36.26 1.04 0 1.04-.58 1.5-.56.46-1.56.46m7.125-4.24q-1.56 0-2.36-.78-.78-.8-.78-2.4 0-1.12.4-1.74.4-.64 1.18-.92.8-.3 1.94-.36l2.44-.22v-.6q0-.72-.36-1-.36-.3-1.06-.3-.56 0-1.3.04-.72.04-1.44.1-.7.06-1.22.12l-.08-1.88q.52-.12 1.24-.24a18 18 0 0 1 1.54-.22q.8-.08 1.48-.08 1.28 0 2.14.32t1.3 1.06q.44.72.44 1.96v4.58a.6.6 0 0 0 .3.44q.261.14.6.2l-.06 1.84h-.64q-.3.02-.58 0a3 3 0 0 1-.5-.04 2.4 2.4 0 0 1-.8-.24 2.4 2.4 0 0 1-.52-.38q-.32.14-.86.32t-1.18.3a6.6 6.6 0 0 1-1.26.12m.64-1.98q.38 0 .8-.08t.78-.18q.381-.12.6-.22v-2.3l-2.04.18q-.66.06-.96.4-.28.32-.28.92t.26.94q.28.34.84.34m2.12-9.98q-.32 0-.72-.12-.4-.14-.8-.32t-.76-.32a1.6 1.6 0 0 0-.58-.14q-.28 0-.74.28a8 8 0 0 0-.78.52l-.44-1.5q.24-.24.56-.5t.68-.44q.38-.2.7-.2.36 0 .76.14t.78.32q.4.16.74.3t.56.14q.24 0 .7-.26t.78-.52l.46 1.52q-.219.24-.54.5-.32.26-.68.44-.34.16-.68.16m9.409 11.96q-1.7 0-2.74-.56-1.02-.56-1.48-1.72-.46-1.18-.46-3.04 0-1.8.48-2.92.48-1.14 1.52-1.68 1.04-.56 2.68-.56 1.66 0 2.68.56 1.04.54 1.52 1.68.5 1.12.5 2.92 0 1.86-.46 3.04-.459 1.16-1.5 1.72-1.02.56-2.74.56m0-2.2q.84 0 1.26-.3.42-.32.56-1 .16-.7.16-1.82 0-1.1-.18-1.74-.18-.66-.6-.94t-1.2-.28q-.759 0-1.2.28-.42.28-.6.94-.18.64-.18 1.74 0 1.12.14 1.82.16.68.58 1 .42.3 1.26.3"/>
    <path fill="#4c4c4c" d="M66.643 633.946h5.18v.896h-5.18zm.112 5.054h-1.036v-9.8h6.72v.896h-5.684zm11.919 0v-1.624l-.042-.266v-2.716q0-.938-.532-1.442-.519-.504-1.554-.504-.714 0-1.358.238-.645.239-1.092.63l-.448-.742q.56-.476 1.344-.728a5.1 5.1 0 0 1 1.652-.266q1.427 0 2.198.714.784.7.784 2.142V639zm-2.534.07q-.827 0-1.442-.266-.603-.28-.924-.756a2 2 0 0 1-.322-1.12q0-.574.266-1.036.28-.476.896-.756.63-.294 1.68-.294h2.534v.742h-2.506q-1.064 0-1.484.378a1.23 1.23 0 0 0-.406.938q0 .63.49 1.008t1.372.378q.84 0 1.442-.378.615-.392.896-1.12l.224.686a2.33 2.33 0 0 1-.98 1.162q-.687.434-1.736.434m9.237 0q-1.09 0-1.96-.476a3.6 3.6 0 0 1-1.344-1.33q-.49-.854-.49-1.946 0-1.106.49-1.946t1.345-1.316q.867-.476 1.96-.476.938 0 1.694.364.755.365 1.19 1.092l-.743.504a2.33 2.33 0 0 0-.937-.826 2.8 2.8 0 0 0-1.218-.266q-.785 0-1.415.364-.63.35-.993.994-.365.643-.365 1.512t.365 1.512.993 1.008q.63.35 1.415.35.657 0 1.218-.266t.938-.812l.742.504q-.435.714-1.19 1.092a3.85 3.85 0 0 1-1.695.364m-.587 3.01q-.351 0-.645-.084a2.3 2.3 0 0 1-.531-.238l.237-.532q.21.126.434.196.24.07.49.07.42 0 .644-.182a.56.56 0 0 0 .225-.476.57.57 0 0 0-.225-.462q-.21-.182-.644-.182h-.322l.337-1.274h.601l-.21.812q.574.042.883.35.308.322.308.784 0 .56-.448.882-.435.336-1.135.336M94.82 639v-1.624l-.042-.266v-2.716q0-.938-.532-1.442-.517-.504-1.554-.504-.713 0-1.358.238-.644.239-1.092.63l-.448-.742q.561-.476 1.344-.728a5.1 5.1 0 0 1 1.652-.266q1.428 0 2.198.714.784.7.784 2.142V639zm-2.534.07q-.825 0-1.442-.266-.602-.28-.924-.756a2 2 0 0 1-.322-1.12q0-.574.266-1.036.28-.476.896-.756.63-.294 1.68-.294h2.534v.742h-2.506q-1.064 0-1.484.378a1.23 1.23 0 0 0-.406.938q0 .63.49 1.008t1.372.378q.84 0 1.442-.378.616-.392.896-1.12l.224.686a2.33 2.33 0 0 1-.98 1.162q-.686.434-1.736.434m14.456-.07v-1.624l-.042-.266v-2.716q0-.938-.532-1.442-.517-.504-1.554-.504-.714 0-1.358.238a3.5 3.5 0 0 0-1.092.63l-.448-.742q.56-.476 1.344-.728a5.1 5.1 0 0 1 1.652-.266q1.428 0 2.198.714.784.7.784 2.142V639zm-2.534.07q-.826 0-1.442-.266-.602-.28-.924-.756a2 2 0 0 1-.322-1.12q0-.574.266-1.036.28-.476.896-.756.63-.294 1.68-.294h2.534v.742h-2.506q-1.064 0-1.484.378a1.23 1.23 0 0 0-.406.938q0 .63.49 1.008t1.372.378q.84 0 1.442-.378.616-.392.896-1.12l.224.686a2.33 2.33 0 0 1-.98 1.162q-.686.434-1.736.434m7.939-.07-3.262-7.35h1.036l2.996 6.818h-.49l3.038-6.818h.98l-3.276 7.35zm10.085 0v-1.624l-.042-.266v-2.716q0-.938-.532-1.442-.517-.504-1.554-.504a3.9 3.9 0 0 0-1.358.238 3.5 3.5 0 0 0-1.092.63l-.448-.742a3.9 3.9 0 0 1 1.344-.728 5.1 5.1 0 0 1 1.652-.266q1.428 0 2.198.714.784.7.784 2.142V639zm-2.534.07q-.825 0-1.442-.266-.602-.28-.924-.756a2 2 0 0 1-.322-1.12q0-.574.266-1.036.28-.476.896-.756.63-.294 1.68-.294h2.534v.742h-2.506q-1.064 0-1.484.378-.406.378-.406.938 0 .63.49 1.008t1.372.378q.84 0 1.442-.378.617-.392.896-1.12l.224.686a2.32 2.32 0 0 1-.98 1.162q-.686.434-1.736.434m6.186-.07v-10.388h.994V639zm3.76 0v-7.35h.994V639zm.504-8.974a.7.7 0 0 1-.518-.21.69.69 0 0 1-.21-.504q0-.294.21-.49.21-.21.518-.21a.73.73 0 0 1 .518.196q.21.196.21.49 0 .308-.21.518a.68.68 0 0 1-.518.21M138.01 639v-1.624l-.042-.266v-2.716q0-.938-.532-1.442-.519-.504-1.554-.504-.714 0-1.358.238-.645.239-1.092.63l-.448-.742q.56-.476 1.344-.728a5.1 5.1 0 0 1 1.652-.266q1.427 0 2.198.714.784.7.784 2.142V639zm-2.534.07q-.827 0-1.442-.266-.603-.28-.924-.756a2 2 0 0 1-.322-1.12q0-.574.266-1.036.28-.476.896-.756.63-.294 1.68-.294h2.534v.742h-2.506q-1.065 0-1.484.378a1.23 1.23 0 0 0-.406.938q0 .63.49 1.008t1.372.378q.84 0 1.442-.378.615-.392.896-1.12l.224.686a2.33 2.33 0 0 1-.98 1.162q-.687.434-1.736.434m9.237 0q-1.092 0-1.96-.476a3.6 3.6 0 0 1-1.344-1.33q-.49-.854-.49-1.946 0-1.106.49-1.946t1.344-1.316q.868-.476 1.96-.476.939 0 1.694.364.756.365 1.19 1.092l-.742.504a2.33 2.33 0 0 0-.938-.826 2.8 2.8 0 0 0-1.218-.266q-.784 0-1.414.364-.63.35-.994.994-.363.643-.364 1.512 0 .869.364 1.512.364.644.994 1.008.63.35 1.414.35.659 0 1.218-.266a2.36 2.36 0 0 0 .938-.812l.742.504a2.86 2.86 0 0 1-1.19 1.092 3.85 3.85 0 0 1-1.694.364m-.588 3.01a2.3 2.3 0 0 1-.644-.084 2.3 2.3 0 0 1-.532-.238l.238-.532q.21.126.434.196.238.07.49.07.42 0 .644-.182a.56.56 0 0 0 .224-.476.57.57 0 0 0-.224-.462q-.21-.182-.644-.182h-.322l.336-1.274h.602l-.21.812q.575.042.882.35.308.322.308.784 0 .56-.448.882-.434.336-1.134.336m8.298-3.01q-1.064 0-1.918-.476a3.64 3.64 0 0 1-1.33-1.33q-.49-.854-.49-1.946 0-1.106.49-1.946a3.53 3.53 0 0 1 1.33-1.316q.84-.476 1.918-.476 1.092 0 1.932.476a3.4 3.4 0 0 1 1.33 1.316q.49.84.49 1.946 0 1.092-.49 1.946a3.5 3.5 0 0 1-1.33 1.33q-.853.476-1.932.476m0-.882q.798 0 1.414-.35.617-.364.966-1.008.364-.659.364-1.512 0-.869-.364-1.512a2.47 2.47 0 0 0-.966-.994 2.7 2.7 0 0 0-1.4-.364q-.784 0-1.4.364a2.57 2.57 0 0 0-.98.994q-.364.643-.364 1.512 0 .853.364 1.512.364.644.98 1.008.617.35 1.386.35m.952-7.77q-.322 0-.574-.14a2.7 2.7 0 0 1-.462-.322 3 3 0 0 0-.392-.336.65.65 0 0 0-.924.084q-.181.238-.21.658h-.602q.028-.7.364-1.12.35-.42.896-.42.322 0 .574.154.266.14.462.336.21.182.392.322.196.14.406.14a.66.66 0 0 0 .518-.224q.196-.238.21-.644h.602q-.014.672-.364 1.092t-.896.42m7.951 8.652q-1.148 0-2.016-.476a3.6 3.6 0 0 1-1.358-1.33q-.49-.854-.49-1.946t.462-1.932q.477-.84 1.288-1.316a3.55 3.55 0 0 1 1.848-.49q1.036 0 1.834.476.813.462 1.274 1.316.462.84.462 1.946a1 1 0 0 1-.014.154v.154h-6.398v-.742h5.866l-.392.294q0-.798-.35-1.414a2.46 2.46 0 0 0-.924-.98q-.587-.35-1.358-.35-.755 0-1.358.35-.602.35-.938.98t-.336 1.442v.154q0 .84.364 1.484.379.63 1.036.994.672.35 1.526.35.672 0 1.246-.238a2.6 2.6 0 0 0 1.008-.728l.56.644a3.13 3.13 0 0 1-1.232.896 4.1 4.1 0 0 1-1.61.308m7.302 0a5.8 5.8 0 0 1-1.722-.252q-.812-.266-1.274-.658l.448-.784q.447.336 1.148.588a4.5 4.5 0 0 0 1.47.238q1.05 0 1.512-.322.462-.336.462-.882 0-.407-.266-.63a1.53 1.53 0 0 0-.672-.35 7 7 0 0 0-.938-.21 20 20 0 0 1-1.036-.196 4 4 0 0 1-.924-.322 1.94 1.94 0 0 1-.686-.602q-.252-.378-.252-1.008 0-.602.336-1.078.335-.476.98-.742.657-.28 1.596-.28.714 0 1.428.196.714.182 1.176.49l-.434.798a3.2 3.2 0 0 0-1.05-.476 4.2 4.2 0 0 0-1.12-.154q-.995 0-1.47.35-.462.336-.462.868 0 .42.252.658.266.238.686.378.434.126.938.21.518.084 1.022.21.518.112.938.322.434.196.686.574.266.365.266.966 0 .644-.364 1.12-.35.462-1.036.728-.672.252-1.638.252m8.526-.07v-7.35h.952v2.002l-.098-.35q.307-.84 1.036-1.274.728-.448 1.806-.448v.966h-.112a.5.5 0 0 0-.112-.014q-1.163 0-1.82.714-.658.7-.658 2.002V639zm9.568 0v-1.624l-.042-.266v-2.716q0-.938-.532-1.442-.518-.504-1.554-.504a3.9 3.9 0 0 0-1.358.238 3.5 3.5 0 0 0-1.092.63l-.448-.742a3.9 3.9 0 0 1 1.344-.728 5.1 5.1 0 0 1 1.652-.266q1.428 0 2.198.714.784.7.784 2.142V639zm-2.534.07q-.825 0-1.442-.266-.602-.28-.924-.756a2 2 0 0 1-.322-1.12q0-.574.266-1.036.28-.476.896-.756.63-.294 1.68-.294h2.534v.742h-2.506q-1.064 0-1.484.378-.406.378-.406.938 0 .63.49 1.008t1.372.378q.84 0 1.442-.378.617-.392.896-1.12l.224.686a2.32 2.32 0 0 1-.98 1.162q-.686.434-1.736.434m-.378-8.568 1.918-1.736h1.33l-2.268 1.736zm10.358 8.568a3.45 3.45 0 0 1-1.722-.434 3.3 3.3 0 0 1-1.232-1.274q-.447-.84-.448-2.044 0-1.204.448-2.03.449-.84 1.218-1.274a3.5 3.5 0 0 1 1.736-.434q1.05 0 1.876.476.84.462 1.316 1.316.477.84.476 1.946 0 1.12-.476 1.96t-1.316 1.316q-.826.476-1.876.476m-3.794 2.646V631.65h.952v2.212l-.098 1.47.14 1.484v4.9zm3.724-3.528q.785 0 1.4-.35.617-.364.98-1.008.364-.659.364-1.512 0-.854-.364-1.498a2.7 2.7 0 0 0-.98-1.008 2.7 2.7 0 0 0-1.4-.364q-.784 0-1.414.364-.615.364-.98 1.008-.35.644-.35 1.498 0 .853.35 1.512.365.644.98 1.008.63.35 1.414.35m5.765.812v-7.35h.994V639zm.504-8.974a.7.7 0 0 1-.518-.21.69.69 0 0 1-.21-.504q0-.294.21-.49.21-.21.518-.21a.73.73 0 0 1 .518.196q.21.196.21.49 0 .308-.21.518a.68.68 0 0 1-.518.21m6.181 9.044q-1.05 0-1.89-.476a3.47 3.47 0 0 1-1.302-1.316q-.476-.854-.476-1.96 0-1.12.476-1.96.477-.84 1.302-1.302a3.77 3.77 0 0 1 1.89-.476q.966 0 1.722.434.771.434 1.218 1.274.462.826.462 2.03 0 1.19-.448 2.03-.447.84-1.218 1.288-.755.434-1.736.434m.07-.882q.785 0 1.4-.35.63-.364.98-1.008.364-.659.364-1.512 0-.869-.364-1.512a2.45 2.45 0 0 0-.98-.994 2.7 2.7 0 0 0-1.4-.364q-.77 0-1.386.364a2.6 2.6 0 0 0-.98.994q-.363.643-.364 1.512 0 .853.364 1.512.365.644.98 1.008.617.35 1.386.35m2.772.812v-2.212l.098-1.484-.14-1.484v-5.208h.994V639zm8.327 0v-1.624l-.042-.266v-2.716q0-.938-.532-1.442-.519-.504-1.554-.504-.714 0-1.358.238-.645.239-1.092.63l-.448-.742q.56-.476 1.344-.728a5.1 5.1 0 0 1 1.652-.266q1.428 0 2.198.714.784.7.784 2.142V639zm-2.534.07q-.827 0-1.442-.266-.603-.28-.924-.756a2 2 0 0 1-.322-1.12q0-.574.266-1.036.28-.476.896-.756.63-.294 1.68-.294h2.534v.742h-2.506q-1.065 0-1.484.378a1.23 1.23 0 0 0-.406.938q0 .63.49 1.008t1.372.378q.84 0 1.442-.378.615-.392.896-1.12l.224.686a2.33 2.33 0 0 1-.98 1.162q-.686.434-1.736.434m8.159 0q-.909 0-1.722-.252-.812-.266-1.274-.658l.448-.784q.449.336 1.148.588a4.5 4.5 0 0 0 1.47.238q1.05 0 1.512-.322.462-.336.462-.882 0-.407-.266-.63a1.53 1.53 0 0 0-.672-.35 7 7 0 0 0-.938-.21q-.517-.084-1.036-.196a4 4 0 0 1-.924-.322 1.95 1.95 0 0 1-.686-.602q-.252-.378-.252-1.008 0-.602.336-1.078t.98-.742q.659-.28 1.596-.28.714 0 1.428.196.714.182 1.176.49l-.434.798a3.2 3.2 0 0 0-1.05-.476 4.2 4.2 0 0 0-1.12-.154q-.993 0-1.47.35-.462.336-.462.868 0 .42.252.658.267.238.686.378.435.126.938.21.519.084 1.022.21.518.112.938.322.434.196.686.574.266.365.266.966 0 .644-.364 1.12-.35.462-1.036.728-.672.252-1.638.252m12.32 0a3.45 3.45 0 0 1-1.722-.434 3.3 3.3 0 0 1-1.232-1.274q-.447-.84-.448-2.044 0-1.204.448-2.03.448-.84 1.218-1.274a3.5 3.5 0 0 1 1.736-.434q1.05 0 1.876.476.84.462 1.316 1.316.476.84.476 1.946 0 1.12-.476 1.96t-1.316 1.316q-.826.476-1.876.476m-3.794 2.646V631.65h.952v2.212l-.098 1.47.14 1.484v4.9zm3.724-3.528q.785 0 1.4-.35.617-.364.98-1.008.364-.659.364-1.512 0-.854-.364-1.498a2.7 2.7 0 0 0-.98-1.008 2.7 2.7 0 0 0-1.4-.364q-.783 0-1.414.364-.615.364-.98 1.008-.35.644-.35 1.498 0 .853.35 1.512.365.644.98 1.008.63.35 1.414.35m10.33.812v-1.624l-.042-.266v-2.716q0-.938-.532-1.442-.519-.504-1.554-.504-.714 0-1.358.238-.645.239-1.092.63l-.448-.742q.56-.476 1.344-.728a5.1 5.1 0 0 1 1.652-.266q1.427 0 2.198.714.783.7.784 2.142V639zm-2.534.07q-.827 0-1.442-.266-.603-.28-.924-.756a2 2 0 0 1-.322-1.12q0-.574.266-1.036.28-.476.896-.756.63-.294 1.68-.294h2.534v.742h-2.506q-1.065 0-1.484.378a1.23 1.23 0 0 0-.406.938q0 .63.49 1.008t1.372.378q.84 0 1.442-.378.615-.392.896-1.12l.224.686a2.33 2.33 0 0 1-.98 1.162q-.686.434-1.736.434m6.186-.07v-7.35h.952v2.002l-.098-.35q.307-.84 1.036-1.274.728-.448 1.806-.448v.966h-.112a.5.5 0 0 0-.112-.014q-1.163 0-1.82.714-.658.7-.658 2.002V639zm9.568 0v-1.624l-.042-.266v-2.716q0-.938-.532-1.442-.518-.504-1.554-.504a3.9 3.9 0 0 0-1.358.238 3.5 3.5 0 0 0-1.092.63l-.448-.742a3.9 3.9 0 0 1 1.344-.728 5.1 5.1 0 0 1 1.652-.266q1.428 0 2.198.714.784.7.784 2.142V639zm-2.534.07q-.825 0-1.442-.266-.601-.28-.924-.756a2 2 0 0 1-.322-1.12q0-.574.266-1.036.28-.476.896-.756.63-.294 1.68-.294h2.534v.742h-2.506q-1.064 0-1.484.378-.406.378-.406.938 0 .63.49 1.008t1.372.378q.84 0 1.442-.378.617-.392.896-1.12l.224.686a2.32 2.32 0 0 1-.98 1.162q-.686.434-1.736.434m12.972 0q-1.147 0-2.016-.476a3.6 3.6 0 0 1-1.358-1.33q-.49-.854-.49-1.946t.462-1.932q.477-.84 1.288-1.316a3.55 3.55 0 0 1 1.848-.49q1.036 0 1.834.476.813.462 1.274 1.316.462.84.462 1.946a1 1 0 0 1-.014.154v.154h-6.398v-.742h5.866l-.392.294q0-.798-.35-1.414a2.46 2.46 0 0 0-.924-.98q-.587-.35-1.358-.35-.756 0-1.358.35t-.938.98-.336 1.442v.154q0 .84.364 1.484.378.63 1.036.994.672.35 1.526.35.672 0 1.246-.238a2.6 2.6 0 0 0 1.008-.728l.56.644a3.13 3.13 0 0 1-1.232.896 4.1 4.1 0 0 1-1.61.308m9.079-7.49q.897 0 1.568.35.687.336 1.064 1.036.392.7.392 1.764V639h-.994v-4.172q0-1.162-.588-1.75-.573-.602-1.624-.602-.784 0-1.372.322a2.17 2.17 0 0 0-.896.91q-.308.588-.308 1.428V639h-.994v-7.35h.952v2.016l-.154-.378a2.64 2.64 0 0 1 1.12-1.246q.77-.462 1.834-.462m8.033 7.49q-1.035 0-1.596-.56-.56-.56-.56-1.582v-6.902h.994v6.846q0 .644.322.994.336.35.952.35.659 0 1.092-.378l.35.714a1.8 1.8 0 0 1-.714.392q-.405.126-.84.126m-3.472-6.594v-.826h4.55v.826zm9.698 6.594q-1.148 0-2.016-.476a3.6 3.6 0 0 1-1.358-1.33q-.49-.854-.49-1.946t.462-1.932q.476-.84 1.288-1.316a3.55 3.55 0 0 1 1.848-.49q1.036 0 1.834.476a3.27 3.27 0 0 1 1.274 1.316q.462.84.462 1.946a1 1 0 0 1-.014.154v.154h-6.398v-.742h5.866l-.392.294q0-.798-.35-1.414a2.46 2.46 0 0 0-.924-.98q-.588-.35-1.358-.35-.756 0-1.358.35t-.938.98-.336 1.442v.154q0 .84.364 1.484.378.63 1.036.994.672.35 1.526.35.672 0 1.246-.238a2.6 2.6 0 0 0 1.008-.728l.56.644a3.14 3.14 0 0 1-1.232.896 4.1 4.1 0 0 1-1.61.308m9.079-7.49q.897 0 1.568.35.687.336 1.064 1.036.393.7.392 1.764V639h-.994v-4.172q0-1.162-.588-1.75-.574-.602-1.624-.602-.784 0-1.372.322a2.17 2.17 0 0 0-.896.91q-.308.588-.308 1.428V639h-.994v-7.35h.952v2.016l-.154-.378a2.64 2.64 0 0 1 1.12-1.246q.77-.462 1.834-.462m8.635 7.49q-1.05 0-1.89-.476a3.47 3.47 0 0 1-1.302-1.316q-.476-.854-.476-1.96 0-1.12.476-1.96.477-.84 1.302-1.302a3.77 3.77 0 0 1 1.89-.476q.966 0 1.722.434.771.434 1.218 1.274.462.826.462 2.03 0 1.19-.448 2.03-.447.84-1.218 1.288-.756.434-1.736.434m.07-.882q.785 0 1.4-.35.63-.364.98-1.008.364-.659.364-1.512 0-.869-.364-1.512a2.45 2.45 0 0 0-.98-.994 2.7 2.7 0 0 0-1.4-.364q-.77 0-1.386.364a2.6 2.6 0 0 0-.98.994q-.363.643-.364 1.512 0 .853.364 1.512.365.644.98 1.008.617.35 1.386.35m2.772.812v-2.212l.098-1.484-.14-1.484v-5.208h.994V639zm6.843.07q-1.149 0-2.016-.476a3.57 3.57 0 0 1-1.358-1.33q-.49-.854-.49-1.946t.462-1.932q.475-.84 1.288-1.316a3.55 3.55 0 0 1 1.848-.49q1.036 0 1.834.476a3.27 3.27 0 0 1 1.274 1.316q.462.84.462 1.946a1 1 0 0 1-.014.154v.154h-6.398v-.742h5.866l-.392.294q0-.798-.35-1.414a2.46 2.46 0 0 0-.924-.98q-.588-.35-1.358-.35-.756 0-1.358.35t-.938.98-.336 1.442v.154q0 .84.364 1.484.378.63 1.036.994.671.35 1.526.35.672 0 1.246-.238a2.6 2.6 0 0 0 1.008-.728l.56.644a3.15 3.15 0 0 1-1.232.896 4.1 4.1 0 0 1-1.61.308m5.327-.07v-7.35h.952v2.002l-.098-.35q.307-.84 1.036-1.274.727-.448 1.806-.448v.966h-.112a.5.5 0 0 0-.112-.014q-1.163 0-1.82.714-.658.7-.658 2.002V639zM83.055 659.07q-.909 0-1.722-.252-.812-.266-1.274-.658l.448-.784q.449.336 1.148.588.7.238 1.47.238 1.05 0 1.512-.322.462-.336.462-.882 0-.407-.266-.63a1.53 1.53 0 0 0-.672-.35 7 7 0 0 0-.938-.21q-.517-.084-1.036-.196a4 4 0 0 1-.924-.322 1.94 1.94 0 0 1-.686-.602q-.252-.378-.252-1.008 0-.602.336-1.078t.98-.742q.659-.28 1.596-.28.714 0 1.428.196.714.182 1.176.49l-.434.798a3.2 3.2 0 0 0-1.05-.476 4.2 4.2 0 0 0-1.12-.154q-.993 0-1.47.35-.462.336-.462.868 0 .42.252.658.267.238.686.378.435.126.938.21.519.084 1.022.21.519.112.938.322.434.196.686.574.267.365.266.966 0 .644-.364 1.12-.35.462-1.036.728-.672.252-1.638.252m7.984 0q-1.148 0-2.016-.476a3.6 3.6 0 0 1-1.358-1.33q-.49-.854-.49-1.946t.462-1.932q.477-.84 1.288-1.316a3.55 3.55 0 0 1 1.848-.49q1.035 0 1.834.476.812.462 1.274 1.316.462.84.462 1.946a1 1 0 0 1-.014.154v.154h-6.398v-.742h5.866l-.392.294q0-.798-.35-1.414a2.46 2.46 0 0 0-.924-.98q-.588-.35-1.358-.35-.755 0-1.358.35a2.43 2.43 0 0 0-.938.98q-.336.63-.336 1.442v.154q0 .84.364 1.484.379.63 1.036.994.672.35 1.526.35.672 0 1.246-.238a2.6 2.6 0 0 0 1.008-.728l.56.644a3.14 3.14 0 0 1-1.232.896 4.1 4.1 0 0 1-1.61.308m8.365 0q-.937 0-1.638-.35a2.5 2.5 0 0 1-1.092-1.05q-.378-.7-.378-1.75v-4.27h.994v4.158q0 1.176.575 1.778.588.588 1.638.588.77 0 1.329-.308.574-.322.868-.924.308-.602.308-1.442v-3.85h.994V659h-.952v-2.016l.154.364a2.74 2.74 0 0 1-1.092 1.274q-.728.448-1.707.448m13.785-7.49q.896 0 1.568.35.686.336 1.064 1.036.392.7.392 1.764V659h-.994v-4.172q0-1.162-.588-1.75-.574-.602-1.624-.602-.784 0-1.372.322a2.16 2.16 0 0 0-.896.91q-.309.588-.308 1.428V659h-.994v-7.35h.952v2.016l-.154-.378a2.63 2.63 0 0 1 1.12-1.246q.77-.462 1.834-.462m5.709 7.42v-7.35h.994V659zm-.406-8.498 1.918-1.736h1.33l-2.268 1.736zm6.055 8.498-3.262-7.35h1.036l2.996 6.818h-.49l3.038-6.818h.98l-3.276 7.35zm8.615.07q-1.148 0-2.016-.476a3.6 3.6 0 0 1-1.358-1.33q-.49-.854-.49-1.946t.462-1.932q.477-.84 1.288-1.316a3.55 3.55 0 0 1 1.848-.49q1.036 0 1.834.476.813.462 1.274 1.316.462.84.462 1.946a1 1 0 0 1-.014.154v.154h-6.398v-.742h5.866l-.392.294q0-.798-.35-1.414a2.46 2.46 0 0 0-.924-.98q-.587-.35-1.358-.35-.755 0-1.358.35-.602.35-.938.98t-.336 1.442v.154q0 .84.364 1.484.379.63 1.036.994.672.35 1.526.35.673 0 1.246-.238a2.6 2.6 0 0 0 1.008-.728l.56.644a3.13 3.13 0 0 1-1.232.896 4.1 4.1 0 0 1-1.61.308m5.328-.07v-10.388h.994V659zm10.349.07q-1.05 0-1.89-.476a3.47 3.47 0 0 1-1.302-1.316q-.476-.854-.476-1.96 0-1.12.476-1.96.477-.84 1.302-1.302a3.77 3.77 0 0 1 1.89-.476q.966 0 1.722.434.771.434 1.218 1.274.462.826.462 2.03 0 1.19-.448 2.03-.447.84-1.218 1.288-.755.434-1.736.434m.07-.882q.785 0 1.4-.35.63-.364.98-1.008.364-.659.364-1.512 0-.869-.364-1.512a2.45 2.45 0 0 0-.98-.994 2.7 2.7 0 0 0-1.4-.364q-.77 0-1.386.364a2.6 2.6 0 0 0-.98.994q-.363.643-.364 1.512 0 .853.364 1.512.365.644.98 1.008.617.35 1.386.35m2.772.812v-2.212l.098-1.484-.14-1.484v-5.208h.994V659zm6.843.07q-1.149 0-2.016-.476a3.57 3.57 0 0 1-1.358-1.33q-.49-.854-.49-1.946t.462-1.932q.475-.84 1.288-1.316a3.55 3.55 0 0 1 1.848-.49q1.035 0 1.834.476a3.27 3.27 0 0 1 1.274 1.316q.462.84.462 1.946a1 1 0 0 1-.014.154v.154h-6.398v-.742h5.866l-.392.294q0-.798-.35-1.414a2.46 2.46 0 0 0-.924-.98q-.588-.35-1.358-.35-.756 0-1.358.35t-.938.98-.336 1.442v.154q0 .84.364 1.484.378.63 1.036.994.671.35 1.526.35.672 0 1.246-.238a2.6 2.6 0 0 0 1.008-.728l.56.644a3.15 3.15 0 0 1-1.232.896 4.1 4.1 0 0 1-1.61.308m12.113 0q-1.148 0-2.016-.476a3.6 3.6 0 0 1-1.358-1.33q-.49-.854-.49-1.946t.462-1.932q.476-.84 1.288-1.316a3.55 3.55 0 0 1 1.848-.49q1.036 0 1.834.476a3.27 3.27 0 0 1 1.274 1.316q.462.84.462 1.946a1 1 0 0 1-.014.154v.154h-6.398v-.742h5.866l-.392.294q0-.798-.35-1.414a2.46 2.46 0 0 0-.924-.98q-.588-.35-1.358-.35-.756 0-1.358.35t-.938.98-.336 1.442v.154q0 .84.364 1.484.378.63 1.036.994.672.35 1.526.35.672 0 1.246-.238a2.6 2.6 0 0 0 1.008-.728l.56.644a3.14 3.14 0 0 1-1.232.896 4.1 4.1 0 0 1-1.61.308m7.301 0a5.8 5.8 0 0 1-1.722-.252q-.812-.266-1.274-.658l.448-.784q.448.336 1.148.588a4.5 4.5 0 0 0 1.47.238q1.05 0 1.512-.322.462-.336.462-.882 0-.407-.266-.63a1.53 1.53 0 0 0-.672-.35 7 7 0 0 0-.938-.21 20 20 0 0 1-1.036-.196 4 4 0 0 1-.924-.322 1.94 1.94 0 0 1-.686-.602q-.252-.378-.252-1.008 0-.602.336-1.078t.98-.742q.659-.28 1.596-.28.714 0 1.428.196.714.182 1.176.49l-.434.798a3.2 3.2 0 0 0-1.05-.476 4.2 4.2 0 0 0-1.12-.154q-.994 0-1.47.35-.462.336-.462.868 0 .42.252.658.266.238.686.378.434.126.938.21.518.084 1.022.21.518.112.938.322.434.196.686.574.266.365.266.966 0 .644-.364 1.12-.35.462-1.036.728-.672.252-1.638.252m7.186 0q-1.037 0-1.596-.56t-.56-1.582v-6.902h.994v6.846q0 .644.322.994.336.35.952.35.659 0 1.092-.378l.35.714a1.8 1.8 0 0 1-.714.392 2.8 2.8 0 0 1-.84.126m-3.472-6.594v-.826h4.55v.826zm6.836 6.524v-7.35h.952v2.002l-.098-.35q.307-.84 1.036-1.274.728-.448 1.806-.448v.966h-.112a.5.5 0 0 0-.112-.014q-1.163 0-1.82.714-.658.7-.658 2.002V659zm8.563.07q-1.148 0-2.016-.476a3.6 3.6 0 0 1-1.358-1.33q-.49-.854-.49-1.946t.462-1.932q.476-.84 1.288-1.316a3.55 3.55 0 0 1 1.848-.49q1.036 0 1.834.476a3.27 3.27 0 0 1 1.274 1.316q.462.84.462 1.946a1 1 0 0 1-.014.154v.154h-6.398v-.742h5.866l-.392.294q0-.798-.35-1.414a2.46 2.46 0 0 0-.924-.98q-.588-.35-1.358-.35-.756 0-1.358.35t-.938.98-.336 1.442v.154q0 .84.364 1.484.378.63 1.036.994.672.35 1.526.35.672 0 1.246-.238a2.6 2.6 0 0 0 1.008-.728l.56.644a3.14 3.14 0 0 1-1.232.896 4.1 4.1 0 0 1-1.61.308m7.301 0q-.909 0-1.722-.252-.812-.266-1.274-.658l.448-.784q.449.336 1.148.588a4.5 4.5 0 0 0 1.47.238q1.05 0 1.512-.322.462-.336.462-.882 0-.407-.266-.63a1.53 1.53 0 0 0-.672-.35 7 7 0 0 0-.938-.21q-.517-.084-1.036-.196a4 4 0 0 1-.924-.322 1.95 1.95 0 0 1-.686-.602q-.252-.378-.252-1.008 0-.602.336-1.078t.98-.742q.659-.28 1.596-.28.714 0 1.428.196.714.182 1.176.49l-.434.798a3.2 3.2 0 0 0-1.05-.476 4.2 4.2 0 0 0-1.12-.154q-.993 0-1.47.35-.462.336-.462.868 0 .42.252.658.266.238.686.378.435.126.938.21.519.084 1.022.21.518.112.938.322.434.196.686.574.266.365.266.966 0 .644-.364 1.12-.35.462-1.036.728-.672.252-1.638.252m6.836 0a5.8 5.8 0 0 1-1.722-.252q-.812-.266-1.274-.658l.448-.784q.448.336 1.148.588a4.5 4.5 0 0 0 1.47.238q1.05 0 1.512-.322.462-.336.462-.882 0-.407-.266-.63a1.53 1.53 0 0 0-.672-.35 7 7 0 0 0-.938-.21 20 20 0 0 1-1.036-.196 4 4 0 0 1-.924-.322 1.94 1.94 0 0 1-.686-.602q-.252-.378-.252-1.008 0-.602.336-1.078t.98-.742q.659-.28 1.596-.28.714 0 1.428.196.714.182 1.176.49l-.434.798a3.2 3.2 0 0 0-1.05-.476 4.2 4.2 0 0 0-1.12-.154q-.994 0-1.47.35-.462.336-.462.868 0 .42.252.658.266.238.686.378.434.126.938.21.518.084 1.022.21.518.112.938.322.434.196.686.574.266.365.266.966 0 .644-.364 1.12-.35.462-1.036.728-.672.252-1.638.252m7.984 0q-1.148 0-2.016-.476a3.6 3.6 0 0 1-1.358-1.33q-.49-.854-.49-1.946t.462-1.932q.476-.84 1.288-1.316a3.55 3.55 0 0 1 1.848-.49q1.036 0 1.834.476a3.27 3.27 0 0 1 1.274 1.316q.462.84.462 1.946a1 1 0 0 1-.014.154v.154h-6.398v-.742h5.866l-.392.294q0-.798-.35-1.414a2.46 2.46 0 0 0-.924-.98q-.588-.35-1.358-.35-.756 0-1.358.35t-.938.98-.336 1.442v.154q0 .84.364 1.484.378.63 1.036.994.672.35 1.526.35.672 0 1.246-.238a2.6 2.6 0 0 0 1.008-.728l.56.644a3.14 3.14 0 0 1-1.232.896 4.1 4.1 0 0 1-1.61.308m4.725 1.974.616-2.59.112.602a.77.77 0 0 1-.546-.21.74.74 0 0 1-.21-.546q0-.336.21-.546.225-.21.532-.21.323 0 .518.224.21.224.21.532 0 .112-.014.224a1.5 1.5 0 0 1-.056.252 7 7 0 0 1-.112.336l-.588 1.932zM235.736 659v-1.624l-.042-.266v-2.716q0-.938-.532-1.442-.518-.504-1.554-.504-.714 0-1.358.238a3.5 3.5 0 0 0-1.092.63l-.448-.742q.56-.476 1.344-.728a5.1 5.1 0 0 1 1.652-.266q1.428 0 2.198.714.784.7.784 2.142V659zm-2.534.07q-.826 0-1.442-.266-.601-.28-.924-.756a2 2 0 0 1-.322-1.12q0-.574.266-1.036.28-.476.896-.756.63-.294 1.68-.294h2.534v.742h-2.506q-1.064 0-1.484.378a1.23 1.23 0 0 0-.406.938q0 .63.49 1.008t1.372.378q.84 0 1.442-.378.616-.392.896-1.12l.224.686a2.33 2.33 0 0 1-.98 1.162q-.686.434-1.736.434m9.938-7.49q.896 0 1.568.35.686.336 1.064 1.036.392.7.392 1.764V659h-.994v-4.172q0-1.162-.588-1.75-.574-.602-1.624-.602-.784 0-1.372.322a2.16 2.16 0 0 0-.896.91q-.308.588-.308 1.428V659h-.994v-7.35h.952v2.016l-.154-.378a2.64 2.64 0 0 1 1.12-1.246q.77-.462 1.834-.462m7.683 7.49a5.8 5.8 0 0 1-1.722-.252q-.812-.266-1.274-.658l.448-.784q.448.336 1.148.588a4.5 4.5 0 0 0 1.47.238q1.05 0 1.512-.322.462-.336.462-.882 0-.407-.266-.63a1.53 1.53 0 0 0-.672-.35 7 7 0 0 0-.938-.21 20 20 0 0 1-1.036-.196 4 4 0 0 1-.924-.322 1.94 1.94 0 0 1-.686-.602q-.252-.378-.252-1.008 0-.602.336-1.078t.98-.742q.659-.28 1.596-.28.714 0 1.428.196.714.182 1.176.49l-.434.798a3.2 3.2 0 0 0-1.05-.476 4.2 4.2 0 0 0-1.12-.154q-.994 0-1.47.35-.462.336-.462.868 0 .42.252.658.266.238.686.378.434.126.938.21.518.084 1.022.21.518.112.938.322.434.196.686.574.266.365.266.966 0 .644-.364 1.12-.35.462-1.036.728-.672.252-1.638.252m4.862-.07v-7.35h.994V659zm.504-8.974a.7.7 0 0 1-.518-.21.69.69 0 0 1-.21-.504q0-.294.21-.49.21-.21.518-.21a.73.73 0 0 1 .518.196q.21.196.21.49 0 .308-.21.518a.68.68 0 0 1-.518.21m6.378 9.044q-1.149 0-2.016-.476a3.57 3.57 0 0 1-1.358-1.33q-.49-.854-.49-1.946t.462-1.932q.475-.84 1.288-1.316a3.55 3.55 0 0 1 1.848-.49q1.036 0 1.834.476a3.27 3.27 0 0 1 1.274 1.316q.462.84.462 1.946a1 1 0 0 1-.014.154v.154h-6.398v-.742h5.866l-.392.294q0-.798-.35-1.414a2.46 2.46 0 0 0-.924-.98q-.588-.35-1.358-.35-.756 0-1.358.35t-.938.98-.336 1.442v.154q0 .84.364 1.484.378.63 1.036.994.671.35 1.526.35.672 0 1.246-.238a2.6 2.6 0 0 0 1.008-.728l.56.644a3.15 3.15 0 0 1-1.232.896 4.1 4.1 0 0 1-1.61.308m8.253 0q-1.05 0-1.89-.476a3.45 3.45 0 0 1-1.302-1.316q-.476-.854-.476-1.96 0-1.12.476-1.96t1.302-1.302a3.77 3.77 0 0 1 1.89-.476q.966 0 1.722.434.77.434 1.218 1.274.462.826.462 2.03 0 1.19-.448 2.03a3.2 3.2 0 0 1-1.218 1.288q-.756.434-1.736.434m.07-.882a2.8 2.8 0 0 0 1.4-.35q.63-.364.98-1.008.363-.659.364-1.512 0-.869-.364-1.512a2.46 2.46 0 0 0-.98-.994 2.7 2.7 0 0 0-1.4-.364q-.771 0-1.386.364a2.57 2.57 0 0 0-.98.994q-.364.643-.364 1.512 0 .853.364 1.512.363.644.98 1.008.615.35 1.386.35m2.772.812v-2.212l.098-1.484-.14-1.484v-5.208h.994V659zm8.326 0v-1.624l-.042-.266v-2.716q0-.938-.532-1.442-.518-.504-1.554-.504-.714 0-1.358.238a3.5 3.5 0 0 0-1.092.63l-.448-.742q.56-.476 1.344-.728a5.1 5.1 0 0 1 1.652-.266q1.428 0 2.198.714.784.7.784 2.142V659zm-2.534.07q-.826 0-1.442-.266-.602-.28-.924-.756a2 2 0 0 1-.322-1.12q0-.574.266-1.036.28-.476.896-.756.63-.294 1.68-.294h2.534v.742h-2.506q-1.064 0-1.484.378a1.23 1.23 0 0 0-.406.938q0 .63.49 1.008t1.372.378q.84 0 1.442-.378.616-.392.896-1.12l.224.686a2.33 2.33 0 0 1-.98 1.162q-.686.434-1.736.434m9.112 0q-1.05 0-1.89-.476a3.45 3.45 0 0 1-1.302-1.316q-.476-.854-.476-1.96 0-1.12.476-1.96t1.302-1.302a3.77 3.77 0 0 1 1.89-.476q.966 0 1.722.434.77.434 1.218 1.274.462.826.462 2.03 0 1.19-.448 2.03a3.2 3.2 0 0 1-1.218 1.288q-.756.434-1.736.434m.07-.882q.784 0 1.4-.35.63-.364.98-1.008.364-.659.364-1.512 0-.869-.364-1.512a2.45 2.45 0 0 0-.98-.994 2.7 2.7 0 0 0-1.4-.364q-.77 0-1.386.364a2.57 2.57 0 0 0-.98.994q-.364.643-.364 1.512 0 .853.364 1.512.364.644.98 1.008.616.35 1.386.35m2.772.812v-2.212l.098-1.484-.14-1.484v-5.208h.994V659zm6.842.07q-1.148 0-2.016-.476a3.6 3.6 0 0 1-1.358-1.33q-.49-.854-.49-1.946t.462-1.932q.477-.84 1.288-1.316a3.55 3.55 0 0 1 1.848-.49q1.036 0 1.834.476.813.462 1.274 1.316.462.84.462 1.946a1 1 0 0 1-.014.154v.154h-6.398v-.742h5.866l-.392.294q0-.798-.35-1.414a2.46 2.46 0 0 0-.924-.98q-.587-.35-1.358-.35-.756 0-1.358.35t-.938.98-.336 1.442v.154q0 .84.364 1.484.379.63 1.036.994.672.35 1.526.35.672 0 1.246-.238a2.6 2.6 0 0 0 1.008-.728l.56.644a3.13 3.13 0 0 1-1.232.896 4.1 4.1 0 0 1-1.61.308m12.113 0q-1.147 0-2.016-.476a3.6 3.6 0 0 1-1.358-1.33q-.49-.854-.49-1.946t.462-1.932q.477-.84 1.288-1.316a3.55 3.55 0 0 1 1.848-.49q1.036 0 1.834.476.813.462 1.274 1.316.462.84.462 1.946a1 1 0 0 1-.014.154v.154h-6.398v-.742h5.866l-.392.294q0-.798-.35-1.414a2.46 2.46 0 0 0-.924-.98q-.588-.35-1.358-.35-.755 0-1.358.35-.602.35-.938.98t-.336 1.442v.154q0 .84.364 1.484.378.63 1.036.994.672.35 1.526.35.672 0 1.246-.238a2.6 2.6 0 0 0 1.008-.728l.56.644a3.13 3.13 0 0 1-1.232.896 4.1 4.1 0 0 1-1.61.308M135.911 679v-1.624l-.042-.266v-2.716q0-.938-.532-1.442-.517-.504-1.554-.504-.714 0-1.358.238a3.5 3.5 0 0 0-1.092.63l-.448-.742q.56-.476 1.344-.728a5.1 5.1 0 0 1 1.652-.266q1.428 0 2.198.714.784.7.784 2.142V679zm-2.534.07q-.826 0-1.442-.266-.601-.28-.924-.756a2 2 0 0 1-.322-1.12q0-.574.266-1.036.28-.476.896-.756.63-.294 1.68-.294h2.534v.742h-2.506q-1.064 0-1.484.378a1.23 1.23 0 0 0-.406.938q0 .63.49 1.008t1.372.378q.84 0 1.442-.378.616-.392.896-1.12l.224.686a2.33 2.33 0 0 1-.98 1.162q-.686.434-1.736.434m9.112 0q-1.05 0-1.89-.476a3.45 3.45 0 0 1-1.302-1.316q-.477-.854-.476-1.96 0-1.12.476-1.96.475-.84 1.302-1.302a3.77 3.77 0 0 1 1.89-.476q.966 0 1.722.434.77.434 1.218 1.274.462.826.462 2.03 0 1.19-.448 2.03a3.2 3.2 0 0 1-1.218 1.288q-.756.434-1.736.434m.07-.882a2.8 2.8 0 0 0 1.4-.35q.63-.364.98-1.008.363-.659.364-1.512 0-.869-.364-1.512a2.46 2.46 0 0 0-.98-.994 2.7 2.7 0 0 0-1.4-.364q-.771 0-1.386.364a2.57 2.57 0 0 0-.98.994q-.364.643-.364 1.512 0 .853.364 1.512.363.644.98 1.008.615.35 1.386.35m2.772.812v-2.212l.098-1.484-.14-1.484v-5.208h.994V679zm8.326 0v-1.624l-.042-.266v-2.716q0-.938-.532-1.442-.518-.504-1.554-.504-.714 0-1.358.238a3.5 3.5 0 0 0-1.092.63l-.448-.742q.56-.476 1.344-.728a5.1 5.1 0 0 1 1.652-.266q1.428 0 2.198.714.784.7.784 2.142V679zm-2.534.07q-.826 0-1.442-.266-.602-.28-.924-.756a2 2 0 0 1-.322-1.12q0-.574.266-1.036.28-.476.896-.756.63-.294 1.68-.294h2.534v.742h-2.506q-1.064 0-1.484.378a1.23 1.23 0 0 0-.406.938q0 .63.49 1.008t1.372.378q.84 0 1.442-.378.616-.392.896-1.12l.224.686a2.33 2.33 0 0 1-.98 1.162q-.686.434-1.736.434m9.98 0a3.45 3.45 0 0 1-1.722-.434 3.3 3.3 0 0 1-1.232-1.274q-.448-.84-.448-2.044t.448-2.03q.449-.84 1.218-1.274a3.5 3.5 0 0 1 1.736-.434q1.05 0 1.876.476.84.462 1.316 1.316.476.84.476 1.946 0 1.12-.476 1.96t-1.316 1.316q-.826.476-1.876.476m-3.794 2.646V671.65h.952v2.212l-.098 1.47.14 1.484v4.9zm3.724-3.528q.784 0 1.4-.35a2.7 2.7 0 0 0 .98-1.008q.364-.659.364-1.512 0-.854-.364-1.498a2.7 2.7 0 0 0-.98-1.008 2.7 2.7 0 0 0-1.4-.364 2.77 2.77 0 0 0-1.414.364 2.7 2.7 0 0 0-.98 1.008q-.35.644-.35 1.498 0 .853.35 1.512.364.644.98 1.008.63.35 1.414.35m8.088.882q-1.037 0-1.596-.56t-.56-1.582v-6.902h.994v6.846q0 .644.322.994.336.35.952.35.659 0 1.092-.378l.35.714a1.8 1.8 0 0 1-.714.392 2.8 2.8 0 0 1-.84.126m-3.472-6.594v-.826h4.55v.826zM177.091 679v-1.624l-.042-.266v-2.716q0-.938-.532-1.442-.519-.504-1.554-.504-.714 0-1.358.238-.645.239-1.092.63l-.448-.742q.56-.476 1.344-.728a5.1 5.1 0 0 1 1.652-.266q1.427 0 2.198.714.783.7.784 2.142V679zm-2.534.07q-.827 0-1.442-.266-.603-.28-.924-.756a2 2 0 0 1-.322-1.12q0-.574.266-1.036.28-.476.896-.756.63-.294 1.68-.294h2.534v.742h-2.506q-1.065 0-1.484.378a1.23 1.23 0 0 0-.406.938q0 .63.49 1.008t1.372.378q.84 0 1.442-.378.615-.392.896-1.12l.224.686a2.33 2.33 0 0 1-.98 1.162q-.687.434-1.736.434m9.237 0q-1.092 0-1.96-.476a3.6 3.6 0 0 1-1.344-1.33q-.49-.854-.49-1.946 0-1.106.49-1.946t1.344-1.316q.868-.476 1.96-.476.939 0 1.694.364.756.365 1.19 1.092l-.742.504a2.33 2.33 0 0 0-.938-.826 2.8 2.8 0 0 0-1.218-.266q-.784 0-1.414.364-.63.35-.994.994-.363.643-.364 1.512 0 .869.364 1.512.364.644.994 1.008.63.35 1.414.35.658 0 1.218-.266a2.36 2.36 0 0 0 .938-.812l.742.504a2.86 2.86 0 0 1-1.19 1.092 3.85 3.85 0 0 1-1.694.364m-.588 3.01a2.3 2.3 0 0 1-.644-.084 2.3 2.3 0 0 1-.532-.238l.238-.532q.21.126.434.196.238.07.49.07.42 0 .644-.182a.56.56 0 0 0 .224-.476.57.57 0 0 0-.224-.462q-.21-.182-.644-.182h-.322l.336-1.274h.602l-.21.812q.575.042.882.35.308.322.308.784 0 .56-.448.882-.434.336-1.134.336m10.031-3.08v-1.624l-.042-.266v-2.716q0-.938-.532-1.442-.517-.504-1.554-.504-.714 0-1.358.238a3.5 3.5 0 0 0-1.092.63l-.448-.742q.56-.476 1.344-.728a5.1 5.1 0 0 1 1.652-.266q1.428 0 2.198.714.784.7.784 2.142V679zm-2.534.07q-.826 0-1.442-.266-.602-.28-.924-.756a2 2 0 0 1-.322-1.12q0-.574.266-1.036.28-.476.896-.756.63-.294 1.68-.294h2.534v.742h-2.506q-1.064 0-1.484.378a1.23 1.23 0 0 0-.406.938q0 .63.49 1.008t1.372.378q.84 0 1.442-.378.616-.392.896-1.12l.224.686a2.33 2.33 0 0 1-.98 1.162q-.686.434-1.736.434m1.484-8.652q-.322 0-.574-.14a2.7 2.7 0 0 1-.462-.322 3 3 0 0 0-.392-.336.65.65 0 0 0-.924.084q-.181.238-.21.658h-.602q.028-.7.364-1.12.35-.42.896-.42.322 0 .574.154.266.14.462.336.21.182.392.322.196.14.406.14a.66.66 0 0 0 .518-.224q.196-.238.21-.644h.602q-.014.672-.364 1.092t-.896.42m7.698 8.652q-1.064 0-1.918-.476a3.64 3.64 0 0 1-1.33-1.33q-.49-.854-.49-1.946 0-1.106.49-1.946a3.53 3.53 0 0 1 1.33-1.316q.84-.476 1.918-.476 1.092 0 1.932.476a3.4 3.4 0 0 1 1.33 1.316q.49.84.49 1.946 0 1.092-.49 1.946a3.5 3.5 0 0 1-1.33 1.33q-.853.476-1.932.476m0-.882q.798 0 1.414-.35.617-.364.966-1.008.364-.659.364-1.512 0-.869-.364-1.512a2.47 2.47 0 0 0-.966-.994 2.7 2.7 0 0 0-1.4-.364q-.784 0-1.4.364a2.57 2.57 0 0 0-.98.994q-.364.643-.364 1.512 0 .853.364 1.512.364.644.98 1.008.617.35 1.386.35m12.497.882q-1.092 0-1.96-.476a3.6 3.6 0 0 1-1.344-1.33q-.49-.854-.49-1.946 0-1.106.49-1.946t1.344-1.316q.868-.476 1.96-.476.938 0 1.694.364.756.365 1.19 1.092l-.742.504a2.33 2.33 0 0 0-.938-.826 2.8 2.8 0 0 0-1.218-.266q-.784 0-1.414.364-.63.35-.994.994-.364.643-.364 1.512t.364 1.512.994 1.008q.63.35 1.414.35.659 0 1.218-.266a2.36 2.36 0 0 0 .938-.812l.742.504a2.86 2.86 0 0 1-1.19 1.092 3.85 3.85 0 0 1-1.694.364m7.875 0q-.937 0-1.638-.35a2.5 2.5 0 0 1-1.092-1.05q-.378-.7-.378-1.75v-4.27h.994v4.158q0 1.176.574 1.778.588.588 1.638.588.77 0 1.33-.308.574-.322.868-.924.308-.602.308-1.442v-3.85h.994V679h-.952v-2.016l.154.364a2.74 2.74 0 0 1-1.092 1.274q-.728.448-1.708.448m6.368-.07v-10.388h.994V679zm6.125.07q-1.037 0-1.596-.56t-.56-1.582v-6.902h.994v6.846q0 .644.322.994.336.35.952.35.659 0 1.092-.378l.35.714a1.8 1.8 0 0 1-.714.392 2.8 2.8 0 0 1-.84.126m-3.472-6.594v-.826h4.55v.826zm9.874 6.594q-.939 0-1.638-.35a2.5 2.5 0 0 1-1.092-1.05q-.378-.7-.378-1.75v-4.27h.994v4.158q0 1.176.574 1.778.588.588 1.638.588.77 0 1.33-.308.574-.322.868-.924.308-.602.308-1.442v-3.85h.994V679h-.952v-2.016l.154.364a2.75 2.75 0 0 1-1.092 1.274q-.729.448-1.708.448m6.368-.07v-7.35h.952v2.002l-.098-.35q.307-.84 1.036-1.274.728-.448 1.806-.448v.966h-.112a.5.5 0 0 0-.112-.014q-1.163 0-1.82.714-.658.7-.658 2.002V679zm9.569 0v-1.624l-.042-.266v-2.716q0-.938-.532-1.442-.519-.504-1.554-.504-.714 0-1.358.238-.645.239-1.092.63l-.448-.742q.56-.476 1.344-.728a5.1 5.1 0 0 1 1.652-.266q1.428 0 2.198.714.784.7.784 2.142V679zm-2.534.07q-.827 0-1.442-.266-.603-.28-.924-.756a2 2 0 0 1-.322-1.12q0-.574.266-1.036.28-.476.896-.756.63-.294 1.68-.294h2.534v.742h-2.506q-1.065 0-1.484.378a1.23 1.23 0 0 0-.406.938q0 .63.49 1.008t1.372.378q.84 0 1.442-.378.615-.392.896-1.12l.224.686a2.33 2.33 0 0 1-.98 1.162q-.686.434-1.736.434m6.185-.07v-10.388h.994V679zm3.858.07a.73.73 0 0 1-.532-.224.77.77 0 0 1-.21-.546q0-.336.21-.546.225-.21.532-.21.309 0 .518.21.225.21.224.546a.74.74 0 0 1-.224.546.68.68 0 0 1-.518.224"/>
    <circle cx="145" cy="720" r="4" fill="#ecf1f8"/>
    <circle cx="161" cy="720" r="4" fill="#ecf1f8"/>
    <circle cx="177" cy="720" r="4" fill="#ecf1f8"/>
    <circle cx="193" cy="720" r="4" fill="#ecf1f8"/>
    <circle cx="209" cy="720" r="4" fill="#ecf1f8"/>
    <circle cx="225" cy="720" r="4" fill="#ecf1f8"/>
    <rect width="16" height="8" x="237" y="716" fill="#2d77e3" rx="4"/>
    <g filter="url(#b)">
      <rect width="361" height="48" x="16" y="756" fill="#2d77e3" rx="12"/>
      <path fill="#fff" d="M167.944 786.176q-1.28 0-2.112-.32a2.87 2.87 0 0 1-1.296-1.024q-.48-.688-.672-1.744-.176-1.072-.176-2.544 0-1.488.176-2.544.192-1.072.672-1.76t1.312-1.024q.847-.336 2.16-.336.528 0 1.104.064t1.104.16q.544.08.928.176l-.064 1.76a8 8 0 0 0-.8-.112 14.72 14.72 0 0 0-1.904-.128q-.768 0-1.248.192t-.752.64q-.256.448-.352 1.168a13 13 0 0 0-.096 1.744q0 1.024.096 1.744.096.703.352 1.152.256.432.736.64.496.192 1.28.192.64 0 1.408-.064.785-.08 1.296-.144l.048 1.744q-.384.08-.912.176-.528.08-1.12.128-.592.064-1.168.064m7.892 0q-1.36 0-2.192-.448-.816-.448-1.184-1.376-.368-.944-.368-2.432 0-1.44.384-2.336.384-.912 1.216-1.344.832-.448 2.144-.448 1.328 0 2.144.448.832.432 1.216 1.344.4.896.4 2.336 0 1.488-.368 2.432-.368.928-1.2 1.376-.816.448-2.192.448m0-1.76q.672 0 1.008-.24.336-.256.448-.8.128-.56.128-1.456 0-.88-.144-1.392-.144-.528-.48-.752t-.96-.224q-.607 0-.96.224-.336.224-.48.752-.144.511-.144 1.392 0 .896.112 1.456.128.544.464.8.336.24 1.008.24m5.216 1.584v-8.032h2.128v.512q.257-.16.624-.304.368-.16.768-.272.416-.112.8-.112.832 0 1.376.224.56.208.88.688t.464 1.264q.144.768.144 1.872V786h-2.144v-4.048q0-.832-.096-1.328-.096-.512-.368-.736t-.8-.224q-.288 0-.608.064-.304.048-.592.144a3 3 0 0 0-.448.192V786zm11.628.192q-.88 0-1.424-.256t-.784-.88q-.224-.64-.224-1.776v-3.536h-.944v-1.776h.944v-2.128h2.128v2.128h2.048v1.776h-2.048v2.976q0 .624.048.976.064.352.256.496t.592.144q.112 0 .336-.016l.448-.032q.225-.016.368-.032l.064 1.712q-.24.048-.592.096-.336.048-.672.08a4 4 0 0 1-.544.048m2.934-.192v-8.032h2.128V786zm0-9.312v-1.824h2.144v1.824zm3.907 9.312v-8.032h2.128v.512a3.7 3.7 0 0 1 .624-.304q.367-.16.768-.272.416-.112.8-.112.831 0 1.376.224.56.208.88.688t.464 1.264q.144.768.144 1.872V786h-2.144v-4.048q0-.832-.096-1.328-.096-.512-.368-.736t-.8-.224q-.288 0-.608.064-.304.048-.592.144a3 3 0 0 0-.448.192V786zm11.403.176q-1.04 0-1.616-.432-.56-.449-.8-1.344-.224-.895-.224-2.256v-4.176h2.128v4.08q0 .847.08 1.344.096.496.368.704.273.208.784.208.496 0 .928-.128t.688-.256v-5.952h2.128V786h-2.112v-.496a7 7 0 0 1-1.088.496q-.528.176-1.264.176m8.318 0q-1.248 0-1.888-.624-.624-.64-.624-1.92 0-.895.32-1.392.32-.512.944-.736.64-.24 1.552-.288l1.952-.176v-.48q0-.576-.288-.8-.288-.24-.848-.24-.449 0-1.04.032a41 41 0 0 0-2.128.176l-.064-1.504q.416-.096.992-.192.591-.112 1.232-.176a12 12 0 0 1 1.184-.064q1.023 0 1.712.256.687.256 1.04.848.352.576.352 1.568v3.664a.48.48 0 0 0 .24.352q.207.112.48.16l-.048 1.472h-.512q-.24.016-.464 0-.225 0-.4-.032a1.9 1.9 0 0 1-.64-.192 1.9 1.9 0 0 1-.416-.304q-.256.112-.688.256a7 7 0 0 1-.944.24 5.3 5.3 0 0 1-1.008.096m.512-1.584q.303 0 .64-.064.336-.064.624-.144.303-.096.48-.176v-1.84l-1.632.144q-.528.048-.768.32-.224.256-.224.736t.208.752q.224.272.672.272m5.767 1.408v-8.032h2.128v.944q.272-.208.672-.432.399-.24.864-.432.48-.208.912-.272v2.064a5 5 0 0 0-.88.224q-.465.144-.88.32a15 15 0 0 0-.688.32V786z"/>
    </g>
    <path fill="#000" d="M60.496 22.945c2.406 0 4.5 1.711 4.5 5.774v.015c0 3.797-1.711 6.047-4.547 6.047-2.07 0-3.617-1.226-3.977-2.953l-.015-.086h1.984l.023.078c.297.79.993 1.305 1.985 1.305 1.789 0 2.547-1.75 2.633-3.906 0-.086.007-.172.007-.258h-.156c-.414.89-1.398 1.68-2.945 1.68-2.164 0-3.68-1.578-3.68-3.72v-.015c0-2.289 1.742-3.96 4.188-3.96m-.008 6.149c1.273 0 2.25-.922 2.25-2.196v-.015c0-1.29-.977-2.297-2.227-2.297a2.227 2.227 0 0 0-2.234 2.25v.016c0 1.304.93 2.242 2.21 2.242m7.734-1.899a1.22 1.22 0 0 1-1.242-1.234c0-.695.532-1.234 1.242-1.234.72 0 1.243.539 1.243 1.234 0 .687-.524 1.234-1.243 1.234m0 5.797c-.71 0-1.242-.539-1.242-1.234s.532-1.235 1.242-1.235c.72 0 1.243.54 1.243 1.235s-.524 1.234-1.243 1.234m8.696 1.508v-2.164h-5.516v-1.648c1.461-2.54 3.063-5.133 4.594-7.461h2.852v7.445h1.515v1.664h-1.515V34.5zm-3.64-3.781h3.671v-5.883h-.117a117 117 0 0 0-3.554 5.766zM84.715 34.5v-9.29h-.133l-2.804 1.985v-1.898l2.945-2.07h2.008V34.5z"/>
    <rect width="125" height="37" x="134" y="11" fill="#000" rx="18.5"/>
    <rect width="80" height="37" x="134" y="11" fill="#000" rx="18.5"/>
    <rect width="37" height="37" x="222" y="11" fill="#000" rx="18.5"/>
    <path fill="#000" d="M291.299 26a1 1 0 0 1 1-1h1a1 1 0 0 1 1 1v8a1 1 0 0 1-1 1h-1a1 1 0 0 1-1-1zM296.299 24a1 1 0 0 1 1-1h1a1 1 0 0 1 1 1v10a1 1 0 0 1-1 1h-1a1 1 0 0 1-1-1zM286.299 29.5a1 1 0 0 1 1-1h1a1 1 0 0 1 1 1V34a1 1 0 0 1-1 1h-1a1 1 0 0 1-1-1zM281.299 32a1 1 0 0 1 1-1h1a1 1 0 0 1 1 1v2a1 1 0 0 1-1 1h-1a1 1 0 0 1-1-1zM313.415 31.919a3.75 3.75 0 0 1 4.918 0 .36.36 0 0 1 .011.52l-2.223 2.29a.343.343 0 0 1-.494 0l-2.223-2.29a.36.36 0 0 1 .011-.52m-3.006-2.74a7.85 7.85 0 0 1 10.855 0 .37.37 0 0 1 .005.521l-1.285 1.325a.34.34 0 0 1-.483.007 5.4 5.4 0 0 0-3.666-1.442 5.4 5.4 0 0 0-3.664 1.442.34.34 0 0 1-.482-.007l-1.285-1.325a.37.37 0 0 1 .005-.521m-3.002-2.737a11.95 11.95 0 0 1 16.785 0 .368.368 0 0 1 .003.518l-1.286 1.326a.34.34 0 0 1-.483.004 9.51 9.51 0 0 0-6.627-2.702 9.52 9.52 0 0 0-6.627 2.702.337.337 0 0 1-.482-.004l-1.287-1.325a.373.373 0 0 1 .004-.519"/>
    <path stroke="#000" d="M336.299 23.5h17a3.5 3.5 0 0 1 3.5 3.5v5a3.5 3.5 0 0 1-3.5 3.5h-17a3.5 3.5 0 0 1-3.5-3.5v-5a3.5 3.5 0 0 1 3.5-3.5Z" opacity=".35"/>
    <path fill="#000" d="M358.299 28v4.22a2.29 2.29 0 0 0 0-4.22" opacity=".4"/>
    <path fill="#000" d="M334.299 27a2 2 0 0 1 2-2h17a2 2 0 0 1 2 2v5a2 2 0 0 1-2 2h-17a2 2 0 0 1-2-2z"/>
    <g clip-path="url(#c)">
      <rect width="330" height="330" x="32" y="192" fill="#f1f6fd" rx="165"/>
      <path fill="#fff" d="m298.951 261.803-.926.114a21.15 21.15 0 0 0-17.335 13.354 20 20 0 0 0-.85 2.891 22.2 22.2 0 0 0 6.036 20.081c3.063 3.031 7.134 5.327 8.878 9.245 2.276 5.073-.197 10.913-2.632 15.897-2.435 4.983-4.895 10.779-2.593 15.896 1.439 3.17 4.54 5.396 7.818 6.67 8.687 3.367 18.94.875 26.099-4.939 7.158-5.815 11.483-14.52 13.531-23.461 2.872-12.574 1.433-26.416-5.453-37.442s-19.543-18.782-32.573-18.306M208.1 496.97v-.698a15.72 15.72 0 0 0-8.731-13.721q-1.01-.488-2.08-.824a16.51 16.51 0 0 0-15.268 3.132c-2.448 2.067-4.439 4.927-7.438 5.96-3.931 1.351-8.059-.868-11.591-3.005s-7.672-4.344-11.591-2.98c-2.46.856-4.299 3.005-5.459 5.345-3.076 6.208-1.903 13.95 1.902 19.656 3.804 5.707 9.986 9.467 16.486 11.585 9.118 2.961 19.453 2.815 28.077-1.547 8.623-4.363 15.18-13.24 15.693-22.903M314.815 410.938c10.706 0 19.384-8.678 19.384-19.384s-8.678-19.384-19.384-19.384-19.383 8.679-19.383 19.384 8.678 19.384 19.383 19.384M80.042 310.785c10.705 0 19.383-8.678 19.383-19.383 0-10.706-8.678-19.384-19.383-19.384-10.706 0-19.384 8.678-19.384 19.384s8.678 19.383 19.383 19.383" opacity=".55"/>
      <path fill="#66cf95" d="M280.746 256.445H127.953a6.405 6.405 0 0 0-6.405 6.404v205.917a6.405 6.405 0 0 0 6.405 6.404h152.793a6.405 6.405 0 0 0 6.405-6.404V262.849a6.405 6.405 0 0 0-6.405-6.404"/>
      <path fill="#eefcf4" d="M276.054 266.78H132.632v193.363h143.422z"/>
      <path fill="#263238" d="M276.061 460.143c0-1.319-.064-78.873-.152-193.394l.152.146h-143.41l.165-.165v193.394l-.139-.14 143.428.14-143.428.133h-.134v-.133c0-54.43 0-121.249-.031-193.394v-.165h143.739v.152c-.127 114.534-.19 192.107-.19 193.426"/>
      <path fill="#ff725e" d="m162.827 299.233-3.341-5.029h-3.697v5.029h-4.014v-18.046h7.508a9.3 9.3 0 0 1 4.007.799 6 6 0 0 1 2.613 2.251 6.4 6.4 0 0 1 .919 3.481 6.27 6.27 0 0 1-.932 3.493 5.9 5.9 0 0 1-2.631 2.22l3.893 5.802zm-1.014-13.83a4.08 4.08 0 0 0-2.752-.811h-3.272v6.29h3.272a4.06 4.06 0 0 0 2.752-.831 3.33 3.33 0 0 0 0-4.648"/>
      <path fill="#ff725e" d="m171.609 311.705-3.969-5.91-3.9 5.935h-4.368l6.087-8.693-5.783-8.402H164l3.805 5.542 3.697-5.567h4.108l-5.706 8.243 6.131 8.839z"/>
      <path fill="#fcc55e" d="M226.254 285.498h-24.615v6.094h24.615z"/>
      <path fill="#263238" d="M262.352 289.347c0 .095-6.734.165-15.041.165-8.306 0-15.034-.07-15.034-.165s6.728-.165 15.034-.165 15.041.076 15.041.165M261.787 296.658c0 .089-13.467.165-30.074.165s-30.074-.076-30.074-.165 13.461-.171 30.074-.171 30.074.076 30.074.171M261.787 303.817c0 .089-13.467.165-30.074.165s-30.074-.076-30.074-.165 13.461-.165 30.074-.165 30.074.07 30.074.165M271.172 322.915c0 .089-29.922.165-66.819.165s-66.826-.076-66.826-.165c0-.088 29.91-.171 66.826-.171s66.819.064 66.819.171M271.172 431c0 .089-29.922.165-66.819.165s-66.826-.076-66.826-.165c0-.088 29.91-.164 66.826-.164s66.819.069 66.819.164"/>
      <path fill="#fcc55e" d="M189.769 333.841h-41.234v7.735h41.234zM166.384 442.033h-17.849v7.736h17.849zM226.318 442.033h-17.85v7.736h17.85z"/>
      <path fill="#263238" d="M196.3 447.391c0 .095-5.573.165-12.447.165s-12.453-.07-12.453-.165 5.573-.165 12.453-.165 12.447.077 12.447.165M260.392 447.391c0 .095-5.573.165-12.447.165s-12.453-.07-12.453-.165 5.574-.165 12.453-.165c6.88 0 12.447.077 12.447.165M258.916 353.224c0 .089-24.432.165-54.531.165-30.1 0-54.531-.076-54.531-.165s24.418-.165 54.531-.165c30.112 0 54.531.07 54.531.165M261.033 362.051c0 .095-24.9.165-55.608.165-30.709 0-55.615-.07-55.615-.165s24.893-.165 55.615-.165c30.721 0 55.608.076 55.608.165M203.725 370.883c0 .089-12.358.165-27.595.165s-27.595-.076-27.595-.165c0-.088 12.352-.164 27.595-.164 15.244 0 27.595.069 27.595.164M260.215 402.904s-.12.051-.368.127l-1.078.33a36 36 0 0 1-4.242.989 20 20 0 0 1-3.132.298 13.1 13.1 0 0 1-3.722-.463 9.5 9.5 0 0 1-3.76-2.086 7.2 7.2 0 0 1-2.264-4.229 5 5 0 0 1 .311-2.6 4.9 4.9 0 0 1 1.763-2.105 3.67 3.67 0 0 1 2.783-.59c.486.12.943.335 1.344.634.392.328.719.726.964 1.173.467.928.7 1.955.679 2.993a8.6 8.6 0 0 1-.571 3.107 12.34 12.34 0 0 1-3.95 5.187 13.2 13.2 0 0 1-6.341 2.663 11.7 11.7 0 0 1-3.57-.044 12 12 0 0 1-1.769-.425 14 14 0 0 1-1.687-.748 10.3 10.3 0 0 1-2.859-2.359 7.9 7.9 0 0 1-1.693-3.38 5.5 5.5 0 0 1 .45-3.804 5.77 5.77 0 0 1 2.796-2.676 4 4 0 0 1 1.96-.342 3.8 3.8 0 0 1 1.845.697 5.62 5.62 0 0 1 2.01 3.259c.291 1.234.36 2.509.203 3.767a15.2 15.2 0 0 1-.818 3.608 13.7 13.7 0 0 1-3.982 5.941 10.86 10.86 0 0 1-6.341 2.593 9.135 9.135 0 0 1-9.752-6.727 8.7 8.7 0 0 1 .215-5.707 4.9 4.9 0 0 1 1.662-2.181 2.9 2.9 0 0 1 1.268-.527 2.03 2.03 0 0 1 1.306.248 2.8 2.8 0 0 1 1.268 2.143 6.8 6.8 0 0 1-.095 2.365 17.4 17.4 0 0 1-1.268 4.109 17 17 0 0 1-1.902 3.215 16 16 0 0 1-2.118 2.333 15.4 15.4 0 0 1-3.564 2.486q-.5.266-1.027.475l-.361.14.348-.171c.229-.115.584-.254 1.015-.501a16.2 16.2 0 0 0 3.506-2.537 17.6 17.6 0 0 0 3.957-5.529 17 17 0 0 0 1.268-4.064 7 7 0 0 0 .083-2.302 2.62 2.62 0 0 0-1.154-1.972 1.8 1.8 0 0 0-1.161-.216c-.412.074-.8.243-1.135.495a4.64 4.64 0 0 0-1.572 2.073 8.4 8.4 0 0 0-.184 5.542 8.874 8.874 0 0 0 9.46 6.506 10.6 10.6 0 0 0 6.144-2.536 13.34 13.34 0 0 0 3.881-5.809c.408-1.143.676-2.33.799-3.538a10.3 10.3 0 0 0-.203-3.652 5.23 5.23 0 0 0-1.902-3.063 3.45 3.45 0 0 0-3.481-.323 5.45 5.45 0 0 0-2.638 2.536 5.17 5.17 0 0 0-.419 3.57 8.74 8.74 0 0 0 4.388 5.529q.792.412 1.63.723c1.674.546 3.449.704 5.193.463a13 13 0 0 0 3.291-.907 13.3 13.3 0 0 0 2.885-1.686 12.05 12.05 0 0 0 3.861-5.073 8.3 8.3 0 0 0 .565-2.999 6.14 6.14 0 0 0-.634-2.86 4 4 0 0 0-.888-1.097 3.5 3.5 0 0 0-1.236-.634 3.42 3.42 0 0 0-2.587.545 4.57 4.57 0 0 0-1.674 1.985 4.76 4.76 0 0 0-.311 2.479 7.03 7.03 0 0 0 2.181 4.103 9.35 9.35 0 0 0 3.671 2.061c1.193.335 2.427.497 3.665.482a20 20 0 0 0 3.114-.267 41 41 0 0 0 4.242-.926l1.09-.298z"/>
      <path fill="#fcc55e" d="M228.277 254.587h-47.86v18.3h47.86z"/>
      <path fill="#263238" d="M228.277 272.88v-4.914c0-3.17-.038-7.717-.064-13.379l.114.114-47.854.051.165-.165v18.293l-.158-.158 34.24.076 9.974.044h3.621a1.4 1.4 0 0 1-.222 0h-3.323l-9.942.045-34.374.069h-.158v-18.451l.165-.165 47.854.05h.114v.115c0 5.706-.045 10.272-.064 13.448v4.54c0 .222-.088.387-.088.387"/>
      <path fill="#455a64" d="m113.362 509.163-4.204 14.933s13.398 9.397 12.885 12.231l-28.534-7.336 5.625-23.537z"/>
      <path fill="#2d79e3" d="M100.636 520.564a1.22 1.22 0 0 0-1.135 1.16 1.17 1.17 0 0 0 1.11 1.167 1.27 1.27 0 0 0 1.199-1.23c-.058-.603-.711-1.23-1.269-1.084"/>
      <path fill="#263238" d="M110.249 520.558c-.095.114-.685-.248-1.484-.393s-1.477-.051-1.521-.197c-.045-.146.672-.495 1.61-.311s1.49.806 1.395.901"/>
      <path fill="#455a64" d="m103.357 512.682-.634 15.523s15.218 5.903 15.332 8.788l-29.428-.235.064-24.234z"/>
      <path fill="#263238" d="M85.152 399.074v12.276l3.215 47.822s-2.004 23.201-3.234 36.301c-1.065 11.369.679 31.178.679 31.178h18.73l6.722-66.052 4.159-41.215 7.254-18.731z"/>
      <path fill="#263238" d="m134.478 401.211-3.589 66.724-18.947 49.959-.875 3.006-11.185-2.771 8.319-118.218z"/>
      <path fill="#455a64" d="M115.36 419.891q.01.14 0 .279v.812c0 .735-.051 1.788-.095 3.132-.076 2.714-.267 6.639-.533 11.49-.564 9.701-1.617 23.086-3.265 37.822s-3.405 28.039-4.712 37.665c-.634 4.793-1.198 8.68-1.572 11.413-.19 1.332-.342 2.372-.444 3.094-.057.343-.095.635-.127.806q-.015.138-.057.272v-.279c0-.196.057-.462.095-.805l.381-3.107c.342-2.707.843-6.601 1.464-11.413 1.269-9.632 2.987-22.935 4.61-37.671s2.733-28.096 3.361-37.791c.298-4.844.526-8.769.634-11.483.07-1.344.12-2.391.158-3.126 0-.343.038-.634.051-.812q.009-.152.051-.298M116.545 403.202a.963.963 0 1 1-1.851-.4.97.97 0 0 1 .888-.589 1 1 0 0 1 .373.078.976.976 0 0 1 .59.911M133.013 412.523a6.4 6.4 0 0 1-1.319-1.268 15.3 15.3 0 0 1-2.359-3.804 15.6 15.6 0 0 1-1.179-4.318 6.3 6.3 0 0 1-.045-1.852c.057 0 .095.704.286 1.82a18.6 18.6 0 0 0 1.268 4.204 18.4 18.4 0 0 0 2.225 3.76c.672.913 1.161 1.414 1.123 1.458"/>
      <path fill="#2d79e3" d="M130.774 338.881s3.583 1.408 5.244 6.658c1.154 3.652 6.557 30.842 6.557 30.842l-7.533 4.965-3.063-25.459z"/>
      <path fill="#2d79e3" d="m102.127 325.895-2.359 4.185s-15.77 8.015-15.713 8.801c0 0 .882 29.916 1.047 51.862.063 8.287-.241 15.902-.406 19.561-.438 9.606-.78 46.922-.78 46.922l57.067-1.351-10.209-116.994-8.052-3.519-1.028-2.099-3.696-3.005z"/>
      <path fill="#263238" d="M127.116 456.186a1.4 1.4 0 0 0 0-.254c0-.184 0-.431-.032-.742-.038-.678-.089-1.642-.158-2.872-.146-2.505-.362-6.106-.634-10.538-.539-8.915-1.269-21.204-2.099-34.78-.831-13.575-1.49-25.864-2.004-34.785-.235-4.439-.431-8.034-.564-10.545q-.103-1.846-.159-2.866c0-.311-.038-.558-.051-.742a2 2 0 0 0-.031-.253 1.5 1.5 0 0 0 0 .253v.748c0 .673.05 1.636.095 2.867.089 2.491.247 6.099.456 10.551.419 8.877 1.091 21.209 1.903 34.798.811 13.588 1.598 25.87 2.2 34.766.304 4.439.558 8.028.729 10.539.095 1.223.171 2.187.222 2.859l.063.749q.019.126.064.247"/>
      <path fill="#66d096" d="m117.998 330.258 1.325 9.162 2.371 18.389-10.335-17.742-8.972-11.756 14.786 10.361.184-8.585"/>
      <path fill="#263238" d="M99.698 330.638q.109.373.286.717c.222.501.513 1.167.881 1.985l3.208 6.974.038.089h2.258l-.102-.291-1.585 1.299-.146.121.133.133 3.006 2.942 9.67 9.378 2.954 2.809.818.755q.135.141.298.247a1.4 1.4 0 0 0-.253-.298l-.767-.799-2.885-2.891-9.594-9.448c-1.034-1.015-2.048-1.997-3.012-2.936v.247l1.579-1.306.349-.292h-2.613l.14.089c-1.351-2.815-2.492-5.199-3.323-6.924-.399-.805-.716-1.458-.957-1.946a5 5 0 0 0-.38-.654M121.694 357.79a7.5 7.5 0 0 0 .209-1.142c.114-.792.26-1.845.438-3.119a954 954 0 0 0 1.319-10.311l.456-3.753v-.146l-.146-.038-2.593-.634v.304l2.6-.463.177-.031-.076-.159-1.712-3.722c-.196-.399-.355-.736-.488-1.008a1.3 1.3 0 0 0-.197-.343q.041.196.127.375c.114.279.254.634.419 1.039.406.952.951 2.226 1.604 3.767l.101-.184-2.606.425-.748.12.736.184 2.587.634-.127-.177c-.152 1.192-.304 2.454-.469 3.747a918 918 0 0 0-1.218 10.323c-.133 1.268-.247 2.34-.329 3.17q-.076.568-.064 1.142M112.874 406.747h-.367l-1.097.07-4.211.304-15.078 1.16h-.152v.152c.24 2.835.507 5.916.786 9.163q.21 2.447.431 5.003c.076.856.146 1.712.222 2.58q.04.677.21 1.332c.133.45.334.878.595 1.268a5.44 5.44 0 0 0 3.545 2.137c1.333.165 2.677.237 4.02.216 2.536.006 5.065-.27 7.539-.825a11.4 11.4 0 0 0 1.718-.564 5 5 0 0 0 .799-.406 2.6 2.6 0 0 0 .362-.292q.153-.168.285-.355a8.4 8.4 0 0 0 .983-3.214c.25-1.979.349-3.973.298-5.967a103 103 0 0 0-.514-8.624 63 63 0 0 0-.26-2.327c0-.253-.063-.45-.082-.634a.7.7 0 0 0-.044-.203v.21c0 .139 0 .355.05.634q.075.839.197 2.333c.158 2.029.38 4.971.406 8.611a42 42 0 0 1-.336 5.922 8.3 8.3 0 0 1-.958 3.088c-.327.446-.79.775-1.319.939q-.812.336-1.667.539c-2.451.54-4.954.808-7.463.799a29 29 0 0 1-3.957-.216 5.11 5.11 0 0 1-3.329-1.997 4.6 4.6 0 0 1-.545-1.142 7 7 0 0 1-.197-1.268q-.115-1.303-.222-2.587c-.152-1.699-.298-3.373-.444-4.996-.291-3.253-.564-6.341-.818-9.163l-.133.165 14.971-1.306 4.236-.387 1.128-.108q.207-.008.412-.044"/>
      <path fill="#000" d="M93.649 426.105c1.61 4.198 5.814 4.439 10.342 3.805 4.254-.634 8.351-1.516 8.668-2.733-.114 2.225-1.75 3.931-3.805 4.825a14.8 14.8 0 0 1-6.55.92c-2.327-.108-4.337 0-6.258-1.326-1.922-1.325-2.403-3.576-2.397-5.491" opacity=".3"/>
      <path fill="#263238" d="M136.811 408.047a.7.7 0 0 1 0-.159l-.057-.456q-.064-.635-.19-1.769c-.153-1.573-.368-3.805-.634-6.519-.52-5.504-1.218-13.113-1.953-21.514s-1.37-16.017-1.795-21.559a388 388 0 0 1-.45-6.531 46 46 0 0 1-.082-1.782v-.462a.4.4 0 0 1 0-.159c.152 1.788 1.211 13.905 2.656 30.436.723 8.395 1.383 15.991 1.858 21.527.222 2.733.406 4.952.533 6.524l.133 1.776v.463a.6.6 0 0 1-.019.184"/>
      <path fill="#2d79e3" d="M145.079 376.983c.244.879.334 1.792.266 2.701-.133 1.389-.196 4.8-3.893 5.967s-5.491.051-6.626-1.515l-.564-6.785 3.956-2.612z"/>
      <path fill="#000" d="M114.193 381.346s-9.454 9.34-16.797 10.684c-7.342 1.344-9.968-1.268-11.92-7.844z" opacity=".3"/>
      <path fill="#2d79e3" d="M84.226 338.653s-6.004 5.567-4.293 18.75c1.586 12.25 4.44 29.307 8.167 31.292 3.729 1.984 11.877.989 17.818-2.378s23.157-12.472 23.157-12.472l-7.127-12.682-22.96 8.877s-2.968-20.29-4.75-23.816"/>
      <path fill="#263238" d="M94.144 345.989s.063.134.177.393c.05.127.127.286.203.482.076.197.14.438.228.698.336 1.052.736 2.631 1.173 4.686.888 4.102 1.96 10.088 3.088 17.545l-.165-.102 22.948-8.94.127-.051.069.12c2.251 4.008 4.648 8.243 7.134 12.682l.082.152-.152.083-14.723 7.932-7.223 3.887c-1.185.634-2.365 1.3-3.588 1.826-1.221.516-2.475.95-3.754 1.3-2.49.697-5.076.997-7.66.888-1.26-.056-2.5-.324-3.671-.793l-.431-.19c-.14-.07-.273-.171-.412-.26a4.2 4.2 0 0 1-.635-.672 9 9 0 0 1-.97-1.566 35.2 35.2 0 0 1-2.308-6.646c-.577-2.2-1.033-4.362-1.445-6.461a210 210 0 0 1-1.903-11.718c-.488-3.595-.95-6.867-.818-9.764.063-2.477.503-4.93 1.307-7.273a16.1 16.1 0 0 1 2.174-4.135q.364-.49.787-.932a4 4 0 0 1 .304-.279l-.279.305q-.403.452-.755.944a16.6 16.6 0 0 0-2.105 4.141 24.3 24.3 0 0 0-1.268 7.235c-.114 2.879.343 6.131.863 9.72s1.135 7.52 1.959 11.705c.412 2.086.875 4.242 1.458 6.436a35 35 0 0 0 2.29 6.582q.384.796.919 1.503.282.351.634.634.176.125.368.222l.405.184c1.142.446 2.351.697 3.577.742a24.3 24.3 0 0 0 7.551-.882 30 30 0 0 0 3.703-1.268c1.218-.526 2.372-1.179 3.564-1.813l7.222-3.894 14.73-7.926-.07.229-7.114-12.682.196.07-22.972 8.877-.146.057v-.152c-1.097-7.451-2.13-13.443-2.974-17.552-.412-2.054-.793-3.639-1.11-4.692q-.114-.391-.209-.697l-.184-.488c-.127-.292-.196-.432-.196-.432"/>
      <path fill="#fff" d="M102.386 361.182h11.395v-3.792h-11.395z"/>
      <path fill="#263238" d="M104.746 359.058c1.175-.171 2.364-.228 3.55-.171 1.189-.057 2.38 0 3.558.171a19.6 19.6 0 0 1-3.558.165 19.5 19.5 0 0 1-3.55-.165"/>
      <path fill="#000" d="m121.118 357.561-16.772-13.607.4-1.186h-1.459l-2.422-9.428 3.488 6.848 2.016-.096-1.465 1.345z" opacity=".3"/>
      <path fill="#455a64" d="m100.402 342.052.634-.254c0-.032-1.376-3.31-2.726-6.785a6.7 6.7 0 0 1-.571-3.411 1.59 1.59 0 0 1 1.61-1.268l.444-.235.229-.405c-1.173-.254-2.746.729-2.936 1.813a7.36 7.36 0 0 0 .634 3.766c1.3 3.494 2.663 6.747 2.682 6.779"/>
      <path fill="#455a64" d="m99.413 349.711.843-.329c-.691-1.782-1.636-4.933-1.23-5.821a2.64 2.64 0 0 1 1.813-1.199 3.05 3.05 0 0 1 1.387-.038c.458.095.889.295 1.258.584.963.818 2.422 3.696 2.904 4.743l.818-.381c-.07-.158-1.82-3.944-3.139-5.072a3.92 3.92 0 0 0-3.424-.736 3.45 3.45 0 0 0-2.435 1.744c-.685 1.471.881 5.706 1.205 6.505"/>
      <path fill="#263238" d="M108.518 363.458c1.04 0 2.067-.558 3.05-1.661l-.342-.304c-1.078 1.223-2.194 1.705-3.298 1.445-4.508-1.059-7.945-13.582-7.976-13.708l-.438.114c.146.526 3.538 12.916 8.307 14.032q.343.083.697.082"/>
      <path fill="#263238" d="M110.7 362.311a.54.54 0 0 0 .704.05l.976-.729a.62.62 0 0 0 .285-.411.64.64 0 0 0-.101-.489.6.6 0 0 0-.204-.2.62.62 0 0 0-.554-.053.65.65 0 0 0-.238.158l-.881.913a.54.54 0 0 0 .013.761M106.604 363.87a3.53 3.53 0 0 0 3.075-1.376c2.771-3.887-2.454-14.679-2.676-15.135l-.406.197c.051.114 5.333 11.007 2.714 14.678-.685.958-1.902 1.338-3.564 1.129l-.057.444q.455.063.914.063"/>
      <path fill="#263238" d="M106.686 363.623a.54.54 0 0 1-.495.501l-1.217.102a.635.635 0 0 1-.729-.552.642.642 0 0 1 .395-.695.64.64 0 0 1 .283-.041l1.268.108a.548.548 0 0 1 .495.577M128.384 350.384a3.222 3.222 0 1 0-.001-6.443 3.222 3.222 0 0 0 .001 6.443"/>
      <path fill="#263238" d="M128.384 350.384a3.222 3.222 0 1 0-.001-6.443 3.222 3.222 0 0 0 .001 6.443"/>
      <path fill="#2d79e3" d="M126.006 347.162a2.383 2.383 0 0 0 2.848 2.345 2.38 2.38 0 0 0 1.875-1.875 2.385 2.385 0 1 0-4.723-.47"/>
      <path fill="#455a64" d="M121.548 333.13c.305.438 3.672 7.546 5.51 11.128l.539-.279c-.272-.526-5.167-10.627-5.548-11.191l-3.563-2.898-.127.679z"/>
      <path fill="#fd703d" d="M120.198 347.086c2.333 2.327 8.243 8.383 8.243 8.383l1.579-.951-8.319-8.877a1.04 1.04 0 0 0-1.653.176 1.036 1.036 0 0 0 .15 1.269"/>
      <path fill="#ffbf9d" d="m121.878 360.903 1.985-5.593a3.17 3.17 0 0 1 2.86-2.143h.298c1.192.133 7.26.533 7.26.533l2.346 2.631a1.2 1.2 0 0 1 0 1.585l.679 4.756-1.313.913.133 3.323s-1.186.786-1.712.526l-.532-.266-.787-.793-2.244 3.17-3.101 1.795z"/>
      <path fill="#ff9a6c" d="M136.665 358.183a11 11 0 0 0-.849-.92 4 4 0 0 0-1.135-.685 8.5 8.5 0 0 0-1.643-.221 28 28 0 0 1-4.33-.584 28 28 0 0 1 4.362.241 7.2 7.2 0 0 1 1.718.266c.445.189.849.46 1.192.799.344.283.585.67.685 1.104M136.532 362.552a10 10 0 0 0-.489-1.212 4.7 4.7 0 0 0-2.346-1.965 8.9 8.9 0 0 0-3.107-.527q-.668.046-1.331-.038a4 4 0 0 1 1.331-.202 7.7 7.7 0 0 1 3.234.443 4.57 4.57 0 0 1 2.435 2.175c.238.399.334.866.273 1.326M135.935 366.629a2.6 2.6 0 0 1-.317-1.307 4.4 4.4 0 0 0-.298-1.363 1.675 1.675 0 0 0-1.268-.945 24 24 0 0 0-3.17-.456 3.6 3.6 0 0 1-1.313-.305q.671-.015 1.338.064c1.086.009 2.167.13 3.228.361.319.08.621.22.887.412.248.194.441.45.558.742.174.471.257.97.248 1.471.031.825.165 1.307.107 1.326"/>
      <path fill="#fc713c" d="m139.246 356.141-26.175 27.031 1.008 1.021 18.75-2.112 25.23-24.038-.026-1.154z"/>
      <path fill="#000" d="M144.147 368.746a5.99 5.99 0 0 0-4.597-1.534 8.44 8.44 0 0 0-4.528 1.902 6.1 6.1 0 0 0-2.257 3.234c-.532 2.27 1.338 5.447 3.399 6.55 2.612-2.099 5.155-5.32 7.767-7.412.424-.274.743-.683.907-1.161a1.84 1.84 0 0 0-.691-1.579" opacity=".3"/>
      <path fill="#263238" d="M157.957 357.993a2.4 2.4 0 0 1-.342 0h-1.002l-3.754-.045-13.062-.228.121-.051-6.557 6.804-13.601 13.994-4.146 4.21-1.142 1.135a4 4 0 0 1-.412.381q.168-.221.374-.406l1.097-1.18 4.071-4.286c3.481-3.621 8.243-8.585 13.525-14.064 2.314-2.397 4.54-4.692 6.569-6.784l.051-.051h.05l13.043.374 3.748.133 1.002.051q.184-.014.367.013"/>
      <path fill="#ffbf9d" d="M141.572 365.918s2.537.051 3.367.463 3.101 2.822 3.101 2.822 0 1.649-.634 1.712q.122.555.133 1.122c.063.926.197 1.452-1.059 2.245 0 0 .133 1.515-.33 1.902a9 9 0 0 1-.989.723s-.069 1.668-2.308 1.649l-2.099.925s-4.666-.437-4.172-.989c.495-.551 1.617-3.284 1.617-3.284s-3.17-2.327-3.132-3.05.329-.793.329-.793-.126-1.382.99-1.515c0 0 .862-1.719 1.718-1.782s6.664 2.042 6.664 2.042l-2.175-1.845s-2.181-.33-2.111-1.059c.07-.73 1.09-1.288 1.09-1.288"/>
      <path fill="#ff9a6c" d="M141.192 374.612a32 32 0 0 1-2.948-1.427 32 32 0 0 1-2.949-1.446c1.087.203 2.133.577 3.101 1.11a10.6 10.6 0 0 1 2.796 1.763M144.236 372.595a23.4 23.4 0 0 1-3.804-1.23 23 23 0 0 1-3.665-1.553c1.3.301 2.573.712 3.804 1.23 1.265.41 2.491.93 3.665 1.553"/>
      <path fill="#263238" d="M102.907 314.165a53 53 0 0 1-1.788-8.795 18.2 18.2 0 0 1 1.166-8.82c.184-.418 1.681-3.17 2.124-3.132.324.044-.634 2.663-.494 2.955 1.42 2.752 1.674 5.992 1.268 9.067a40.4 40.4 0 0 1-2.251 8.725"/>
      <path fill="#ffbf9d" d="M103.205 302.733c.139-7.521 4.635-13.697 12.142-13.316l.692.076a13.43 13.43 0 0 1 12.047 13.69c-.158 6.512-.418 13.702-.824 17.164-.843 7.159-8.135 7.52-8.135 7.52l-1.662 11.046-15.338-10.665z"/>
      <path fill="#ff9a6c" d="M119.101 327.893a17.44 17.44 0 0 1-9.048-3.748s1.433 6.132 8.655 6.24z"/>
      <path fill="#263238" d="M125.328 309.149a1.03 1.03 0 0 1-1.097.926.98.98 0 0 1-.958-1.033 1.034 1.034 0 0 1 1.097-.932.98.98 0 0 1 .9.653 1 1 0 0 1 .058.386M126.215 305.966c-.139.115-.856-.539-1.959-.634s-1.966.355-2.073.21c-.108-.146.101-.298.481-.514a2.8 2.8 0 0 1 1.681-.33 2.73 2.73 0 0 1 1.541.679c.31.279.399.532.329.589M115.899 308.706a1.034 1.034 0 0 1-1.097.932.996.996 0 0 1-.957-1.04 1.033 1.033 0 0 1 1.097-.901.986.986 0 0 1 .957 1.009M115.373 305.269c-.14.12-.856-.533-1.96-.634-1.103-.102-1.965.355-2.073.203s.101-.292.482-.508a2.8 2.8 0 0 1 1.68-.329 2.73 2.73 0 0 1 1.541.678c.31.286.399.539.33.59M118.436 314.159a7 7 0 0 1 1.826-.134c.279 0 .551 0 .634-.215a1.45 1.45 0 0 0-.102-.856l-.602-2.232c-.837-3.17-1.408-5.77-1.268-5.802s.907 2.536 1.744 5.707q.294 1.172.57 2.238c.131.363.131.76 0 1.122a.7.7 0 0 1-.501.362 2 2 0 0 1-.488 0 7.5 7.5 0 0 1-1.813-.19M115.113 314.577c.178 0 .057 1.205.989 2.162.932.958 2.219.958 2.213 1.129s-.311.203-.85.159a2.98 2.98 0 0 1-1.851-.876 2.6 2.6 0 0 1-.755-1.8c.007-.508.172-.787.254-.774M115.785 300.792c-.139.286-1.224 0-2.536.051s-2.391.26-2.537 0c-.063-.139.153-.399.635-.634a4.268 4.268 0 0 1 3.804-.019c.482.203.698.463.634.602M126.146 302.251c-.222.228-.952-.108-1.865-.216s-1.699 0-1.851-.292c-.063-.133.082-.374.444-.577a2.6 2.6 0 0 1 1.56-.247 2.55 2.55 0 0 1 1.439.634c.292.317.374.584.273.698"/>
      <path fill="#ffbf9d" d="M103.23 308.103c-.121-.07-4.775-1.978-5.136 2.942-.362 4.921 4.654 4.268 4.673 4.128s.463-7.07.463-7.07"/>
      <path fill="#ff9a6c" d="M101.398 313.195s-.089.057-.241.114a.88.88 0 0 1-.635-.038c-.5-.228-.88-1.084-.843-1.972.021-.423.134-.836.33-1.211a.99.99 0 0 1 .697-.634.43.43 0 0 1 .489.272c.057.14 0 .235.044.248.044.012.108-.076.082-.279a.54.54 0 0 0-.171-.324.65.65 0 0 0-.463-.158 1.19 1.19 0 0 0-.95.697c-.24.41-.377.871-.4 1.345-.038.995.4 1.959 1.097 2.219a.91.91 0 0 0 .792-.076c.159-.083.191-.19.172-.203"/>
      <path fill="#263238" d="M125.404 294.788c.824-.387-1.402-3.12-3.304-4.135-2.872-1.534-7.336-2.65-10.145-2.054-3.348.723-6.182 2.181-8.021 5.073a19.4 19.4 0 0 0-2.809 9.745 5.9 5.9 0 0 0 .501 3.057c.634 1.128 1.902 1.902 1.737 3.398a2.06 2.06 0 0 0 .412 1.535c.844 1.021 1.998.19 2.568-.679 1.205-1.864 1.471-4.153 1.712-6.341a14.4 14.4 0 0 0 0-4.698c-.19-.837-.526-1.636-.634-2.486a2.96 2.96 0 0 1 .507-2.434q.195-.207.425-.375a5.15 5.15 0 0 1 5.155-.634c2.708 1.161 7.349 2.93 8.649 2.067 1.864-1.236 2.346-2.092 2.346-2.092z"/>
    </g>
  </g>
  <defs>
    <clipPath id="a">
      <rect width="393" height="852" fill="#fff" rx="16"/>
    </clipPath>
    <clipPath id="c">
      <rect width="330" height="330" x="32" y="192" fill="#fff" rx="165"/>
    </clipPath>
    <filter id="b" width="401.8" height="88.8" x="-4.4" y="739.6" color-interpolation-filters="sRGB" filterUnits="userSpaceOnUse">
      <feFlood flood-opacity="0" result="BackgroundImageFix"/>
      <feColorMatrix in="SourceAlpha" result="hardAlpha" values="0 0 0 0 0 0 0 0 0 0 0 0 0 0 0 0 0 0 127 0"/>
      <feOffset dy="4"/>
      <feGaussianBlur stdDeviation="10.2"/>
      <feComposite in2="hardAlpha" operator="out"/>
      <feColorMatrix values="0 0 0 0 0.176471 0 0 0 0 0.466667 0 0 0 0 0.890196 0 0 0 0.16 0"/>
      <feBlend in2="BackgroundImageFix" result="effect1_dropShadow_43_957"/>
      <feBlend in="SourceGraphic" in2="effect1_dropShadow_43_957" result="shape"/>
    </filter>
  </defs>
</svg>
