<svg xmlns="http://www.w3.org/2000/svg" width="393" height="851" fill="none" viewBox="0 0 393 851">
  <g clip-path="url(#a)">
    <rect width="393" height="851" fill="#f7fafd" rx="16"/>
    <path fill="#1b1b1b" d="M60.496 22.945c2.406 0 4.5 1.711 4.5 5.774v.015c0 3.797-1.711 6.047-4.547 6.047-2.07 0-3.617-1.226-3.977-2.953l-.015-.086h1.984l.023.078c.297.79.993 1.305 1.985 1.305 1.789 0 2.547-1.75 2.633-3.906 0-.086.007-.172.007-.258h-.156c-.414.89-1.398 1.68-2.945 1.68-2.164 0-3.68-1.578-3.68-3.72v-.015c0-2.289 1.742-3.96 4.188-3.96m-.008 6.149c1.273 0 2.25-.922 2.25-2.196v-.015c0-1.29-.977-2.297-2.227-2.297a2.227 2.227 0 0 0-2.234 2.25v.016c0 1.304.93 2.242 2.21 2.242m7.734-1.899a1.22 1.22 0 0 1-1.242-1.234c0-.695.532-1.234 1.242-1.234.72 0 1.243.539 1.243 1.234 0 .687-.524 1.234-1.243 1.234m0 5.797c-.71 0-1.242-.539-1.242-1.234s.532-1.235 1.242-1.235c.72 0 1.243.54 1.243 1.235s-.524 1.234-1.243 1.234m8.696 1.508v-2.164h-5.516v-1.648c1.461-2.54 3.063-5.133 4.594-7.461h2.852v7.445h1.515v1.664h-1.515V34.5zm-3.64-3.781h3.671v-5.883h-.117a117 117 0 0 0-3.554 5.766zM84.715 34.5v-9.29h-.133l-2.804 1.985v-1.898l2.945-2.07h2.008V34.5z"/>
    <rect width="125" height="37" x="134" y="11" fill="#1b1b1b" rx="18.5"/>
    <rect width="80" height="37" x="134" y="11" fill="#1b1b1b" rx="18.5"/>
    <rect width="37" height="37" x="222" y="11" fill="#1b1b1b" rx="18.5"/>
    <path fill="#1b1b1b" d="M291.3 26a1 1 0 0 1 1-1h1a1 1 0 0 1 1 1v8a1 1 0 0 1-1 1h-1a1 1 0 0 1-1-1zM296.3 24a1 1 0 0 1 1-1h1a1 1 0 0 1 1 1v10a1 1 0 0 1-1 1h-1a1 1 0 0 1-1-1zM286.3 29.5a1 1 0 0 1 1-1h1a1 1 0 0 1 1 1V34a1 1 0 0 1-1 1h-1a1 1 0 0 1-1-1zM281.3 32a1 1 0 0 1 1-1h1a1 1 0 0 1 1 1v2a1 1 0 0 1-1 1h-1a1 1 0 0 1-1-1zM313.415 31.919a3.75 3.75 0 0 1 4.919 0 .363.363 0 0 1 .011.52l-2.224 2.29a.34.34 0 0 1-.493 0l-2.224-2.29a.363.363 0 0 1 .011-.52m-3.006-2.74a7.85 7.85 0 0 1 10.856 0 .37.37 0 0 1 .005.521l-1.286 1.325a.34.34 0 0 1-.482.007 5.4 5.4 0 0 0-3.666-1.442 5.4 5.4 0 0 0-3.664 1.442.34.34 0 0 1-.483-.007l-1.285-1.325a.37.37 0 0 1 .005-.521m-3.002-2.737a11.95 11.95 0 0 1 16.785 0 .37.37 0 0 1 .108.26c0 .096-.038.19-.105.259l-1.286 1.325a.34.34 0 0 1-.482.004 9.52 9.52 0 0 0-6.627-2.702 9.52 9.52 0 0 0-6.627 2.702.34.34 0 0 1-.483-.004l-1.287-1.325a.37.37 0 0 1-.103-.26c0-.097.039-.19.107-.259"/>
    <path stroke="#1b1b1b" d="M336.3 23.5h17a3.5 3.5 0 0 1 3.5 3.5v5a3.5 3.5 0 0 1-3.5 3.5h-17a3.5 3.5 0 0 1-3.5-3.5v-5a3.5 3.5 0 0 1 3.5-3.5Z" opacity=".35"/>
    <path fill="#1b1b1b" d="M358.3 28v4.22a2.29 2.29 0 0 0 0-4.22" opacity=".4"/>
    <path fill="#1b1b1b" d="M334.3 27a2 2 0 0 1 2-2h17a2 2 0 0 1 2 2v5a2 2 0 0 1-2 2h-17a2 2 0 0 1-2-2z"/>
    <path stroke="#1b1b1b" stroke-linecap="round" stroke-linejoin="round" stroke-width="1.5" d="M21 83h13M21 83l5-5M21 83l5 5"/>
    <path fill="#1b1b1b" d="M53.008 89V78.072h3.552l2.208 7.296 2.16-7.296h3.6V89H62.32v-8.096h-.224l-2.288 7.808h-2.08l-2.288-7.808h-.224V89zm16.573.176q-1.328 0-2.112-.448-.768-.448-1.104-1.36t-.336-2.288q0-1.488.416-2.432.432-.944 1.248-1.392.816-.465 2.016-.464 1.776 0 2.672.896.912.895.912 2.832l-.096 1.184h-5.024q.015.895.368 1.344.352.448 1.216.448.496 0 1.088-.016l1.168-.064q.592-.032 1.008-.064l.048 1.488q-.4.064-1.008.144t-1.264.128q-.64.064-1.216.064m-1.408-4.832h2.992q0-1.088-.352-1.52-.336-.432-1.104-.432-.512 0-.848.192t-.512.624-.176 1.136m9.095 4.832q-1.04 0-1.616-.432-.56-.449-.8-1.344-.225-.896-.224-2.256v-4.176h2.128v4.08q0 .847.08 1.344.096.495.368.704t.784.208q.495 0 .928-.128a4.3 4.3 0 0 0 .688-.256v-5.952h2.128V89H79.62v-.496a7 7 0 0 1-1.088.496q-.528.176-1.264.176m9.117 0q-.528 0-1.136-.064a15.418 15.418 0 0 1-2-.288l.064-1.584q.417.048.928.112.529.064 1.024.112.513.032.832.032.48 0 .784-.08.321-.08.48-.256.16-.192.16-.544 0-.272-.144-.416-.128-.144-.512-.24a8.5 8.5 0 0 0-1.088-.224q-.895-.128-1.488-.368-.575-.24-.848-.704-.272-.48-.272-1.296 0-.992.432-1.552a2.26 2.26 0 0 1 1.152-.784 5 5 0 0 1 1.568-.24q.561 0 1.152.064.592.048 1.12.128t.88.16l-.064 1.616q-.4-.064-.928-.112a18 18 0 0 0-1.92-.128q-.368 0-.656.08a.9.9 0 0 0-.448.224q-.144.16-.144.48 0 .225.128.368.129.144.48.256a10 10 0 0 0 1.056.192q.993.144 1.584.4.593.255.848.736.273.48.272 1.296 0 .96-.384 1.536t-1.12.832q-.736.255-1.792.256M93.88 89l2.784-10.928h3.857L103.288 89h-2.208l-.608-2.208h-3.825L96.072 89zM97 85.016h3.153l-1.233-5.152h-.671zm10.808 7.648q-1.28 0-2.144-.192-.849-.192-1.28-.704-.432-.495-.432-1.44 0-.416.112-.752.127-.32.384-.608.272-.288.672-.592a1.16 1.16 0 0 1-.368-.464 1.8 1.8 0 0 1-.128-.688q0-.127.112-.336a4 4 0 0 1 .272-.464q.16-.24.304-.432a2.2 2.2 0 0 1-.608-.416 2.3 2.3 0 0 1-.48-.768q-.177-.48-.176-1.232 0-1.025.384-1.632.399-.608 1.152-.88.751-.272 1.824-.272.416 0 .896.064t.768.128l2.608-.048v1.44l-1.216-.016q.144.192.256.496.128.288.128.72 0 1.104-.384 1.712-.369.608-1.12.848-.752.225-1.904.224-.129 0-.352-.016-.225-.032-.368-.048-.065.16-.128.368a1 1 0 0 0-.064.272q0 .176.064.272a.6.6 0 0 0 .272.16q.208.048.592.064.399.016 1.056.016 1.136 0 1.808.208.688.208.976.736t.288 1.488q0 1.424-1.008 2.096-.993.688-2.768.688m-.112-1.584q.992 0 1.424-.24.447-.225.448-.752 0-.416-.16-.608-.144-.192-.496-.256a8 8 0 0 0-.96-.048 6 6 0 0 1-.384-.016q-.225 0-.464-.016-.225 0-.416-.016a3 3 0 0 0-.256-.016q-.225.16-.368.304-.129.144-.192.288a1.4 1.4 0 0 0-.048.384q0 .368.176.576.175.225.576.32.415.096 1.12.096m-.272-6.224q.735 0 1.04-.288.32-.304.32-.992 0-.689-.32-.992-.305-.304-1.04-.304-.705 0-1.024.304-.304.304-.304.992 0 .689.304.992.32.288 1.024.288m8.502 4.32q-1.328 0-2.112-.448-.768-.448-1.104-1.36t-.336-2.288q0-1.488.416-2.432.432-.944 1.248-1.392.816-.465 2.016-.464 1.776 0 2.672.896.912.895.912 2.832l-.096 1.184h-5.024q.016.895.368 1.344.352.448 1.216.448.496 0 1.088-.016l1.168-.064q.593-.032 1.008-.064l.048 1.488q-.4.064-1.008.144t-1.264.128q-.64.064-1.216.064m-1.408-4.832h2.992q0-1.088-.352-1.52-.336-.432-1.104-.432-.512 0-.848.192t-.512.624-.176 1.136M121.052 89v-8.032h2.128v.512q.257-.16.624-.304.368-.16.768-.272.416-.112.8-.112.832 0 1.376.224.56.208.88.688t.464 1.264q.144.768.144 1.872V89h-2.144v-4.048q0-.832-.096-1.328-.096-.512-.368-.736-.272-.225-.8-.224-.288 0-.608.064-.304.048-.592.144a3 3 0 0 0-.448.192V89zm11.548.176q-.576 0-1.056-.144a2.3 2.3 0 0 1-.848-.416 2.7 2.7 0 0 1-.608-.784q-.24-.48-.368-1.168a9 9 0 0 1-.128-1.632q0-1.375.336-2.32.351-.944 1.104-1.424.752-.495 2-.496.24 0 .56.032.32.016.624.064.303.032.496.064v-3.264h2.144V89h-2.112l-.016-.464q-.225.127-.592.288a5 5 0 0 1-.752.24 3 3 0 0 1-.784.112m.544-1.792q.288 0 .576-.064.303-.064.56-.144.272-.096.432-.176v-4.304a3 3 0 0 0-.384-.048 7 7 0 0 0-.496-.048 4 4 0 0 0-.464-.032q-.624 0-.976.288-.336.288-.48.848-.144.544-.144 1.328 0 .689.096 1.152.095.448.272.72.192.255.448.368.255.112.56.112m7.566 1.792q-1.248 0-1.888-.624-.624-.64-.624-1.92 0-.896.32-1.392.32-.512.944-.736.64-.24 1.552-.288l1.952-.176v-.48q0-.576-.288-.8-.287-.24-.848-.24-.447 0-1.04.032-.576.032-1.152.08-.56.048-.976.096l-.064-1.504q.416-.096.992-.192a14 14 0 0 1 1.232-.176q.64-.064 1.184-.064 1.025 0 1.712.256.689.255 1.04.848.352.576.352 1.568v3.664q.033.225.24.352.208.112.48.16l-.048 1.472h-.512q-.24.015-.464 0-.223 0-.4-.032a1.9 1.9 0 0 1-.64-.192 2 2 0 0 1-.416-.304q-.255.112-.688.256a7 7 0 0 1-.944.24q-.495.096-1.008.096m.512-1.584q.304 0 .64-.064t.624-.144a4 4 0 0 0 .48-.176v-1.84l-1.632.144q-.528.048-.768.32-.224.255-.224.736 0 .48.208.752.225.272.672.272M146.989 89v-8.032h2.128v.512q.24-.16.608-.304.369-.16.768-.272.416-.112.8-.112.737 0 1.2.208.465.192.768.576.288-.176.72-.352t.944-.304a4 4 0 0 1 .992-.128q.88 0 1.44.24.576.225.896.72.32.48.448 1.248.129.752.128 1.824V89h-2.128v-3.984q0-.833-.096-1.344-.08-.528-.352-.768-.255-.24-.784-.24-.288 0-.608.064a3.2 3.2 0 0 0-1.008.32q.08.336.112.864.048.528.048 1.104V89h-2.128v-3.952q0-.848-.096-1.376-.08-.528-.352-.768t-.784-.24a3 3 0 0 0-.592.064q-.288.048-.544.144-.24.096-.4.176V89zm16.78.176q-1.329 0-2.112-.448-.768-.448-1.104-1.36t-.336-2.288q0-1.488.416-2.432.432-.944 1.248-1.392.816-.465 2.016-.464 1.776 0 2.672.896.912.895.912 2.832l-.096 1.184h-5.024q.015.895.368 1.344.351.448 1.216.448.495 0 1.088-.016l1.168-.064q.591-.032 1.008-.064l.048 1.488q-.4.064-1.008.144-.609.08-1.264.128-.64.064-1.216.064m-1.408-4.832h2.992q0-1.088-.352-1.52-.336-.432-1.104-.432-.512 0-.848.192t-.512.624-.176 1.136M168.896 89v-8.032h2.128v.512q.255-.16.624-.304.367-.16.768-.272.416-.112.8-.112.831 0 1.376.224.56.208.88.688t.464 1.264q.144.768.144 1.872V89h-2.144v-4.048q0-.832-.096-1.328-.096-.512-.368-.736-.272-.225-.8-.224-.288 0-.608.064-.304.048-.592.144a3 3 0 0 0-.448.192V89zm11.628.192q-.88 0-1.424-.256-.544-.255-.784-.88-.224-.64-.224-1.776v-3.536h-.944v-1.776h.944V78.84h2.128v2.128h2.048v1.776h-2.048v2.976q0 .624.048.976.064.352.256.496t.592.144q.113 0 .336-.016l.448-.032q.224-.015.368-.032l.064 1.712q-.24.048-.592.096a14 14 0 0 1-.672.08 4 4 0 0 1-.544.048m6.39-.016q-1.36 0-2.192-.448-.816-.448-1.184-1.376-.368-.945-.368-2.432 0-1.44.384-2.336.384-.912 1.216-1.344.832-.448 2.144-.448 1.328 0 2.144.448.832.432 1.216 1.344.4.896.4 2.336 0 1.488-.368 2.432-.368.928-1.2 1.376-.816.448-2.192.448m0-1.76q.672 0 1.008-.24.336-.255.448-.8.128-.56.128-1.456 0-.88-.144-1.392-.144-.528-.48-.752-.336-.225-.96-.224-.607 0-.96.224-.336.225-.48.752-.144.511-.144 1.392 0 .896.112 1.456.128.545.464.8.336.24 1.008.24m8.112 1.76q-.528 0-1.136-.064a15.434 15.434 0 0 1-2-.288l.064-1.584q.416.048.928.112.528.064 1.024.112.512.032.832.032.48 0 .784-.08.32-.08.48-.256.16-.192.16-.544 0-.272-.144-.416-.128-.144-.512-.24a8.5 8.5 0 0 0-1.088-.224q-.896-.128-1.488-.368-.576-.24-.848-.704-.272-.48-.272-1.296 0-.992.432-1.552a2.26 2.26 0 0 1 1.152-.784q.72-.24 1.568-.24.56 0 1.152.064.592.048 1.12.128t.88.16l-.064 1.616q-.4-.064-.928-.112a18 18 0 0 0-1.92-.128q-.368 0-.656.08a.9.9 0 0 0-.448.224q-.144.16-.144.48 0 .225.128.368.127.144.48.256.368.096 1.056.192.991.144 1.584.4.592.255.848.736.272.48.272 1.296 0 .96-.384 1.536t-1.12.832q-.736.255-1.792.256"/>
    <path fill="#4c4c4c" d="M16.882 132v-9.562h6.356v1.61h-4.424v2.324h3.584v1.582h-3.584v2.436h4.424V132zm10.133.154q-.462 0-.994-.056a14 14 0 0 1-1.75-.252l.056-1.386q.364.042.812.098.462.056.896.098.448.028.728.028.42 0 .686-.07.28-.07.42-.224.14-.168.14-.476 0-.238-.126-.364-.112-.126-.448-.21a7 7 0 0 0-.952-.196q-.785-.112-1.302-.322-.504-.21-.742-.616-.238-.42-.238-1.134 0-.868.378-1.358a1.98 1.98 0 0 1 1.008-.686q.63-.21 1.372-.21.49 0 1.008.056a14 14 0 0 1 1.75.252l-.056 1.414q-.35-.056-.812-.098a16 16 0 0 0-1.68-.112q-.322 0-.574.07a.8.8 0 0 0-.392.196q-.126.14-.126.42 0 .196.112.322t.42.224q.322.084.924.168.868.126 1.386.35t.742.644q.238.42.238 1.134 0 .84-.336 1.344-.335.504-.98.728t-1.568.224m6.98 0q-1.203 0-1.89-.364-.671-.378-.951-1.204-.267-.826-.267-2.17 0-1.33.308-2.114.308-.798.995-1.134.7-.35 1.82-.35.293 0 .686.042.39.042.784.112.405.056.686.112l-.07 1.498a9 9 0 0 0-.602-.042 16 16 0 0 0-.658-.042 6 6 0 0 0-.505-.028q-.6 0-.952.196-.335.182-.475.616-.127.42-.127 1.134 0 .77.127 1.232.125.462.447.658.336.196.98.196.197 0 .518-.014l.659-.056q.35-.029.615-.042l.056 1.498q-.279.056-.672.112-.391.07-.797.112-.393.042-.715.042m6.361 0q-1.19 0-1.918-.392-.713-.392-1.035-1.204-.322-.826-.322-2.128 0-1.26.335-2.044a2.27 2.27 0 0 1 1.065-1.176q.727-.392 1.875-.392 1.162 0 1.877.392.728.378 1.064 1.176.35.784.35 2.044 0 1.302-.322 2.128-.323.812-1.05 1.204-.715.392-1.919.392m0-1.54q.588 0 .883-.21.293-.224.392-.7.111-.49.111-1.274 0-.77-.125-1.218-.126-.462-.42-.658-.296-.196-.84-.196-.532 0-.84.196-.296.196-.42.658-.127.448-.127 1.218 0 .784.099 1.274.112.476.405.7.294.21.883.21m4.62 1.386v-9.898h1.862V132zm3.458 0v-9.898h1.862v3.122q.238-.084.56-.168.336-.097.686-.168.364-.07.658-.07.742 0 1.218.196.49.182.77.602.28.406.392 1.078.126.672.126 1.624V132H52.83v-3.542q0-.728-.084-1.162-.084-.448-.322-.644-.225-.196-.7-.196-.252 0-.518.042a4.6 4.6 0 0 0-.91.238V132zm9.572.154q-1.091 0-1.652-.546-.546-.56-.546-1.68 0-.785.28-1.218.28-.448.826-.644.56-.21 1.358-.252l1.708-.154v-.42q0-.504-.252-.7-.252-.21-.742-.21-.391 0-.91.028-.504.028-1.008.07a30 30 0 0 0-.854.084l-.056-1.316q.364-.084.868-.168.519-.098 1.078-.154.56-.056 1.036-.056.897 0 1.498.224.603.224.91.742.308.504.308 1.372v3.206a.42.42 0 0 0 .21.308 1.4 1.4 0 0 0 .42.14l-.042 1.288h-.448q-.21.013-.406 0a2 2 0 0 1-.35-.028 1.6 1.6 0 0 1-.56-.168 1.7 1.7 0 0 1-.364-.266q-.224.098-.602.224a6 6 0 0 1-.826.21 4.6 4.6 0 0 1-.882.084m.448-1.386q.267 0 .56-.056a7 7 0 0 0 .546-.126 4 4 0 0 0 .42-.154v-1.61l-1.428.126q-.462.042-.672.28-.196.224-.196.644t.182.658q.197.238.588.238m11.12 1.386q-1.19 0-1.919-.392-.714-.392-1.036-1.204-.322-.826-.322-2.128 0-1.26.336-2.044a2.27 2.27 0 0 1 1.064-1.176q.729-.392 1.876-.392 1.162 0 1.876.392.729.378 1.064 1.176.35.784.35 2.044 0 1.302-.322 2.128-.321.812-1.05 1.204-.714.392-1.918.392m0-1.54q.587 0 .881-.21.294-.224.392-.7.112-.49.112-1.274 0-.77-.126-1.218-.126-.462-.42-.658t-.84-.196q-.531 0-.84.196-.294.196-.42.658-.126.448-.126 1.218 0 .784.098 1.274.112.476.406.7.294.21.882.21m9.978 1.54q-.504 0-.924-.126a2.05 2.05 0 0 1-.742-.364 2.4 2.4 0 0 1-.532-.686 3.9 3.9 0 0 1-.322-1.022 8 8 0 0 1-.112-1.428q0-1.204.294-2.03.308-.826.966-1.246.658-.434 1.75-.434.21 0 .49.028.28.014.546.056.266.028.434.056v-2.856h1.876V132h-1.848l-.014-.406a5 5 0 0 1-.518.252 4.5 4.5 0 0 1-.658.21 2.6 2.6 0 0 1-.686.098m.476-1.568q.252 0 .504-.056.265-.056.49-.126.239-.084.378-.154v-3.766a2 2 0 0 0-.336-.042 6 6 0 0 0-.434-.042 3 3 0 0 0-.406-.028q-.546 0-.854.252-.294.252-.42.742a4.6 4.6 0 0 0-.126 1.162q0 .602.084 1.008.084.392.238.63a1 1 0 0 0 .392.322q.225.098.49.098M84.815 132v-7.028h1.862V132zm0-8.148v-1.596h1.876v1.596zm5.252 8.302q-1.092 0-1.652-.546-.546-.56-.546-1.68 0-.785.28-1.218.28-.448.826-.644.56-.21 1.358-.252l1.708-.154v-.42q0-.504-.252-.7-.252-.21-.742-.21-.392 0-.91.028-.504.028-1.008.07-.49.042-.854.084l-.056-1.316q.364-.084.868-.168a13 13 0 0 1 1.078-.154q.56-.056 1.036-.056.896 0 1.498.224t.91.742q.308.504.308 1.372v3.206a.42.42 0 0 0 .21.308q.181.098.42.14l-.042 1.288h-.448q-.21.013-.406 0-.195 0-.35-.028a1.6 1.6 0 0 1-.56-.168 1.7 1.7 0 0 1-.364-.266q-.225.098-.602.224a6 6 0 0 1-.826.21 4.6 4.6 0 0 1-.882.084m.448-1.386q.266 0 .56-.056a7 7 0 0 0 .546-.126q.265-.084.42-.154v-1.61l-1.428.126q-.462.042-.672.28-.196.224-.196.644t.182.658q.196.238.588.238"/>
    <path fill="#2d77e3" d="M297.648 132.154q-1.526 0-2.422-.532-.882-.546-1.274-1.638-.378-1.092-.378-2.73 0-1.652.378-2.758.392-1.106 1.274-1.666.896-.56 2.422-.56t2.408.56q.896.56 1.274 1.666.392 1.106.392 2.758 0 1.666-.392 2.758-.378 1.092-1.274 1.624-.882.518-2.408.518m0-1.624q.882 0 1.33-.35.462-.364.616-1.092.154-.742.154-1.834t-.168-1.834q-.154-.756-.602-1.134-.448-.392-1.33-.392-.868 0-1.33.392-.448.378-.616 1.134-.168.742-.168 1.834 0 1.078.154 1.806.168.728.616 1.106.462.364 1.344.364m7.659 1.624q-.91 0-1.414-.378-.49-.392-.7-1.176-.196-.785-.196-1.974v-3.654h1.862v3.57q0 .743.07 1.176.084.434.322.616t.686.182q.434 0 .812-.112t.602-.224v-5.208h1.862V132h-1.848v-.434a6 6 0 0 1-.952.434q-.462.154-1.106.154m7.907.014q-.77 0-1.246-.224t-.686-.77q-.196-.56-.196-1.554v-3.094h-.826v-1.554h.826v-1.862h1.862v1.862h1.792v1.554h-1.792v2.604q0 .546.042.854.057.308.224.434.168.126.518.126.099 0 .294-.014l.392-.028q.196-.014.322-.028l.056 1.498q-.21.042-.518.084a13 13 0 0 1-.588.07 3 3 0 0 1-.476.042m4.808-.014q-.91 0-1.414-.378-.49-.392-.7-1.176-.196-.785-.196-1.974v-3.654h1.862v3.57q0 .743.07 1.176.084.434.322.616.237.182.686.182.434 0 .812-.112.377-.112.602-.224v-5.208h1.862V132h-1.848v-.434a6 6 0 0 1-.952.434q-.462.154-1.106.154m8.243 0q-.35 0-.854-.028a22 22 0 0 1-1.036-.084l-.924-.098v-9.842h1.876v3.094q.21-.084.518-.168t.644-.14q.35-.07.644-.07.981 0 1.554.406.588.391.84 1.176t.252 1.974q0 1.4-.322 2.24a2.05 2.05 0 0 1-1.078 1.19q-.77.35-2.114.35m.014-1.568q.687 0 1.022-.238.337-.252.448-.742.126-.49.126-1.204 0-.728-.112-1.162-.111-.448-.378-.644-.252-.21-.714-.21-.224 0-.476.056a4 4 0 0 0-.49.112 4 4 0 0 0-.378.112v3.864q.21.013.49.042.28.014.462.014m4.788 1.414v-7.028h1.862v.826q.239-.181.588-.378a6 6 0 0 1 .756-.378q.42-.182.798-.238v1.806a4.5 4.5 0 0 0-.77.196 8 8 0 0 0-.77.28q-.35.154-.602.28V132zm7.918.154q-1.19 0-1.918-.392-.714-.392-1.036-1.204-.322-.826-.322-2.128 0-1.26.336-2.044a2.27 2.27 0 0 1 1.064-1.176q.729-.392 1.876-.392 1.162 0 1.876.392.728.378 1.064 1.176.35.784.35 2.044 0 1.302-.322 2.128-.321.812-1.05 1.204-.714.392-1.918.392m0-1.54q.588 0 .882-.21.294-.224.392-.7.112-.49.112-1.274 0-.77-.126-1.218-.126-.462-.42-.658t-.84-.196q-.531 0-.84.196-.294.196-.42.658-.126.448-.126 1.218 0 .784.098 1.274.112.476.406.7.294.21.882.21m7.669 1.386v-1.512l2.114-2.17q.602-.616 1.036-1.078a4.5 4.5 0 0 0 .658-.896q.238-.42.238-.896 0-.7-.392-.938-.392-.252-1.26-.252-.35 0-.77.042t-.812.098q-.378.056-.658.112l-.098-1.484q.308-.084.756-.182.462-.097.994-.168a7 7 0 0 1 1.064-.084q1.512 0 2.31.644.798.63.798 1.96 0 .728-.21 1.288a3.5 3.5 0 0 1-.63 1.078q-.42.504-1.12 1.106l-1.848 1.764h3.934V132zm10.845.154q-.895 0-1.554-.238a2.53 2.53 0 0 1-1.092-.798q-.42-.56-.644-1.456-.21-.896-.21-2.198 0-1.344.21-2.282.225-.938.658-1.498.435-.574 1.078-.826.658-.252 1.54-.252.91 0 1.568.252a2.35 2.35 0 0 1 1.078.826q.435.56.63 1.498.21.924.21 2.282 0 1.722-.378 2.758-.363 1.022-1.134 1.484-.77.448-1.96.448m0-1.624q.393 0 .672-.126.295-.14.49-.476.196-.336.28-.938.098-.602.098-1.526 0-.98-.098-1.61-.084-.63-.266-.98-.182-.364-.476-.504a1.5 1.5 0 0 0-.7-.154q-.405 0-.7.154-.294.14-.49.49-.181.35-.28.994-.098.63-.098 1.624 0 .924.098 1.526.113.602.308.938.197.322.476.462.294.126.686.126m7.626 1.624q-.519 0-1.092-.056a18 18 0 0 1-1.078-.14 56 56 0 0 1-.84-.168l.084-1.498.798.098q.476.056.966.098.504.028.924.028.798 0 1.19-.294t.392-.952q0-.448-.182-.7a.98.98 0 0 0-.504-.392 2.3 2.3 0 0 0-.756-.14h-1.904v-1.54h1.862q.322 0 .616-.14a1.17 1.17 0 0 0 .49-.406 1.06 1.06 0 0 0 .196-.644q0-.588-.364-.826-.35-.252-1.148-.252-.42 0-.882.042a22 22 0 0 0-.882.098 8 8 0 0 0-.7.098l-.084-1.47a10 10 0 0 1 .756-.168q.448-.098.952-.154a7 7 0 0 1 .952-.07q1.19 0 1.918.252.741.239 1.078.798.336.546.336 1.442 0 .49-.126.826a1.8 1.8 0 0 1-.308.574 2.2 2.2 0 0 1-.378.392q-.196.14-.364.252.42.196.728.434.308.239.476.63t.168 1.05q0 1.05-.364 1.694-.365.63-1.092.924-.729.28-1.834.28m7.933 0q-.895 0-1.554-.238a2.5 2.5 0 0 1-1.092-.798q-.42-.56-.644-1.456-.21-.896-.21-2.198 0-1.344.21-2.282.224-.938.658-1.498a2.45 2.45 0 0 1 1.078-.826q.658-.252 1.54-.252.91 0 1.568.252a2.35 2.35 0 0 1 1.078.826q.433.56.63 1.498.21.924.21 2.282 0 1.722-.378 2.758-.365 1.022-1.134 1.484-.77.448-1.96.448m0-1.624q.392 0 .672-.126a1.14 1.14 0 0 0 .49-.476q.196-.336.28-.938a10 10 0 0 0 .098-1.526q0-.98-.098-1.61-.084-.63-.266-.98-.182-.364-.476-.504a1.5 1.5 0 0 0-.7-.154q-.406 0-.7.154-.294.14-.49.49-.182.35-.28.994-.098.63-.098 1.624 0 .924.098 1.526.112.602.308.938.196.322.476.462.294.126.686.126"/>
    <path fill="#4c4c4c" d="M16.882 447v-9.562h1.932v3.99h3.71v-3.99h1.932V447h-1.932v-3.948h-3.71V447zm9.226 0v-7.028h1.862V447zm0-8.148v-1.596h1.876v1.596zm5.952 8.302a10 10 0 0 1-.994-.056 14 14 0 0 1-1.75-.252l.056-1.386q.363.042.812.098.462.056.896.098.448.028.728.028.42 0 .686-.07.28-.07.42-.224.14-.168.14-.476 0-.238-.126-.364-.112-.126-.448-.21a7 7 0 0 0-.952-.196q-.784-.112-1.302-.322-.504-.21-.742-.616-.238-.42-.238-1.134 0-.868.378-1.358a1.98 1.98 0 0 1 1.008-.686q.63-.21 1.372-.21.49 0 1.008.056a14 14 0 0 1 1.75.252l-.056 1.414q-.35-.056-.812-.098a16 16 0 0 0-1.68-.112q-.322 0-.574.07a.8.8 0 0 0-.392.196q-.126.14-.126.42 0 .196.112.322.111.126.42.224.322.084.924.168.867.126 1.386.35t.742.644q.237.42.238 1.134 0 .84-.336 1.344-.335.504-.98.728t-1.568.224m6.574.014q-.77 0-1.246-.224t-.686-.77q-.195-.56-.196-1.554v-3.094h-.826v-1.554h.826v-1.862h1.862v1.862h1.792v1.554h-1.792v2.604q0 .546.042.854.056.308.224.434t.518.126q.099 0 .294-.014l.392-.028q.196-.014.322-.028l.056 1.498a13.08 13.08 0 0 1-1.106.154 3 3 0 0 1-.476.042m5.592-.014q-1.19 0-1.918-.392-.715-.392-1.036-1.204-.322-.826-.322-2.128 0-1.26.336-2.044a2.27 2.27 0 0 1 1.064-1.176q.727-.392 1.876-.392 1.162 0 1.876.392.728.378 1.064 1.176.35.784.35 2.044 0 1.302-.322 2.128-.323.812-1.05 1.204-.714.392-1.918.392m0-1.54q.588 0 .882-.21.294-.224.392-.7.111-.49.112-1.274 0-.77-.126-1.218-.126-.462-.42-.658t-.84-.196q-.532 0-.84.196-.294.196-.42.658-.126.448-.126 1.218 0 .784.098 1.274.111.476.406.7.294.21.882.21m-.924-6.692-.812-1.05 2.73-1.386 1.064 1.414zM48.789 447v-7.028h1.862v.826a5 5 0 0 1 .588-.378 6 6 0 0 1 .757-.378q.42-.182.797-.238v1.806q-.363.056-.77.196-.405.126-.77.28a14 14 0 0 0-.602.28V447zm4.977 0v-7.028h1.862V447zm0-8.148v-1.596h1.876v1.596zm6.288 8.302q-1.205 0-1.89-.364-.672-.378-.952-1.204-.266-.826-.266-2.17 0-1.33.308-2.114.308-.798.994-1.134.7-.35 1.82-.35.294 0 .686.042t.784.112q.406.056.686.112l-.07 1.498a9 9 0 0 0-.602-.042 16 16 0 0 0-.658-.042 6 6 0 0 0-.504-.028q-.602 0-.952.196-.336.182-.476.616-.126.42-.126 1.134 0 .77.126 1.232t.448.658q.335.196.98.196.195 0 .518-.014l.658-.056q.35-.029.616-.042l.056 1.498q-.28.056-.672.112-.392.07-.798.112-.392.042-.714.042m6.361 0q-1.19 0-1.918-.392-.714-.392-1.036-1.204-.322-.826-.322-2.128 0-1.26.336-2.044a2.27 2.27 0 0 1 1.064-1.176q.727-.392 1.876-.392 1.162 0 1.876.392.728.378 1.064 1.176.35.784.35 2.044 0 1.302-.322 2.128-.323.812-1.05 1.204-.714.392-1.918.392m0-1.54q.588 0 .882-.21.294-.224.392-.7.112-.49.112-1.274 0-.77-.126-1.218-.126-.462-.42-.658t-.84-.196q-.532 0-.84.196-.294.196-.42.658-.126.448-.126 1.218 0 .784.098 1.274.112.476.406.7.294.21.882.21M74.14 447v-9.562h3.654q1.12 0 1.876.322.77.308 1.232.91t.658 1.456q.21.854.21 1.946 0 1.106-.196 2.002a4.2 4.2 0 0 1-.63 1.554q-.448.658-1.204 1.022-.756.35-1.89.35zm1.932-1.624h1.666q.658 0 1.064-.252.405-.252.616-.7.224-.462.294-1.05.084-.601.084-1.302 0-.672-.084-1.218a2.7 2.7 0 0 0-.308-.952 1.4 1.4 0 0 0-.616-.616q-.392-.224-1.05-.224h-1.666zm9.876 1.778q-1.162 0-1.848-.392-.672-.392-.966-1.19t-.294-2.002q0-1.302.364-2.128.378-.827 1.092-1.218.714-.406 1.764-.406 1.554 0 2.338.784.798.784.798 2.478l-.084 1.036h-4.396q.015.785.322 1.176.308.392 1.064.392.435 0 .952-.014l1.022-.056q.518-.028.882-.056L89 446.86a36 36 0 0 1-.882.126q-.532.07-1.106.112-.56.056-1.064.056m-1.232-4.228h2.618q0-.952-.308-1.33-.294-.378-.966-.378-.448 0-.742.168t-.448.546-.154.994M92.88 447l2.436-9.562h3.374l2.422 9.562h-1.932l-.532-1.932h-3.346L94.799 447zm2.73-3.486h2.758l-1.078-4.508h-.588zm9.456 6.692q-1.12 0-1.876-.168-.742-.168-1.12-.616-.378-.433-.378-1.26 0-.364.098-.658.112-.28.336-.532.239-.252.588-.518a1 1 0 0 1-.322-.406 1.6 1.6 0 0 1-.112-.602q0-.113.098-.294.098-.196.238-.406a8 8 0 0 1 .266-.378 1.9 1.9 0 0 1-.532-.364 2 2 0 0 1-.42-.672q-.154-.42-.154-1.078 0-.895.336-1.428.35-.532 1.008-.77.659-.238 1.596-.238.364 0 .784.056t.672.112l2.282-.042v1.26l-1.064-.014q.126.168.224.434.112.252.112.63 0 .966-.336 1.498-.322.532-.98.742-.658.196-1.666.196-.112 0-.308-.014a9 9 0 0 0-.322-.042 4 4 0 0 0-.112.322 1 1 0 0 0-.056.238.43.43 0 0 0 .056.238.5.5 0 0 0 .238.14q.182.042.518.056.35.014.924.014.994 0 1.582.182.602.182.854.644t.252 1.302q0 1.246-.882 1.834-.868.602-2.422.602m-.098-1.386q.868 0 1.246-.21.392-.196.392-.658 0-.364-.14-.532-.126-.168-.434-.224a7 7 0 0 0-.84-.042q-.14 0-.336-.014-.196 0-.406-.014-.196 0-.364-.014a3 3 0 0 0-.224-.014 2.5 2.5 0 0 0-.322.266 1 1 0 0 0-.168.252 1.2 1.2 0 0 0-.042.336q0 .322.154.504.154.196.504.28.364.084.98.084m-.238-5.446q.644 0 .91-.252.28-.266.28-.868t-.28-.868q-.266-.266-.91-.266-.616 0-.896.266-.266.266-.266.868t.266.868q.28.252.896.252m7.44 3.78q-1.163 0-1.848-.392-.672-.392-.966-1.19t-.294-2.002q0-1.302.364-2.128.378-.827 1.092-1.218.714-.406 1.764-.406 1.554 0 2.338.784.798.784.798 2.478l-.084 1.036h-4.396q.013.785.322 1.176.308.392 1.064.392.433 0 .952-.014l1.022-.056q.517-.028.882-.056l.042 1.302q-.351.055-.882.126-.533.07-1.106.112-.56.056-1.064.056m-1.232-4.228h2.618q0-.952-.308-1.33-.294-.378-.966-.378-.448 0-.742.168-.295.168-.448.546t-.154.994m5.718 4.074v-7.028h1.862v.448q.224-.14.546-.266.321-.14.672-.238a2.7 2.7 0 0 1 .7-.098q.727 0 1.204.196.49.182.77.602t.406 1.106q.126.672.126 1.638V447h-1.876v-3.542q0-.728-.084-1.162-.085-.448-.322-.644-.238-.196-.7-.196-.253 0-.532.056a3 3 0 0 0-.518.126q-.239.084-.392.168V447zm10.104.154q-.504 0-.924-.126a2.05 2.05 0 0 1-.742-.364 2.4 2.4 0 0 1-.532-.686 3.9 3.9 0 0 1-.322-1.022 8 8 0 0 1-.112-1.428q0-1.204.294-2.03.308-.826.966-1.246.658-.434 1.75-.434.21 0 .49.028.28.014.546.056.266.028.434.056v-2.856h1.876V447h-1.848l-.014-.406a5 5 0 0 1-.518.252 4.5 4.5 0 0 1-.658.21 2.6 2.6 0 0 1-.686.098m.476-1.568q.252 0 .504-.056.266-.055.49-.126.238-.084.378-.154v-3.766a2 2 0 0 0-.336-.042 6 6 0 0 0-.434-.042 3 3 0 0 0-.406-.028q-.546 0-.854.252-.294.252-.42.742a4.6 4.6 0 0 0-.126 1.162q0 .601.084 1.008.084.392.238.63a1 1 0 0 0 .392.322q.224.098.49.098m6.621 1.568q-1.092 0-1.652-.546-.546-.56-.546-1.68 0-.784.28-1.218a1.56 1.56 0 0 1 .826-.644q.56-.21 1.358-.252l1.708-.154v-.42q0-.504-.252-.7-.252-.21-.742-.21-.392 0-.91.028-.504.028-1.008.07-.49.042-.854.084l-.056-1.316q.364-.084.868-.168a13 13 0 0 1 1.078-.154q.56-.056 1.036-.056.896 0 1.498.224t.91.742q.308.504.308 1.372v3.206a.42.42 0 0 0 .21.308q.182.098.42.14l-.042 1.288h-.448q-.21.014-.406 0-.196 0-.35-.028a1.6 1.6 0 0 1-.56-.168 1.7 1.7 0 0 1-.364-.266q-.224.098-.602.224a6 6 0 0 1-.826.21 4.6 4.6 0 0 1-.882.084m.448-1.386q.266 0 .56-.056a7 7 0 0 0 .546-.126q.266-.084.42-.154v-1.61l-1.428.126q-.462.042-.672.28-.196.224-.196.644t.182.658q.196.238.588.238m5.046 1.232v-7.028h1.862v.448q.21-.14.532-.266.323-.14.672-.238.364-.098.7-.098.643 0 1.05.182.406.168.672.504.252-.154.63-.308t.826-.266a3.6 3.6 0 0 1 .868-.112q.77 0 1.26.21.504.196.784.63.28.42.392 1.092.112.659.112 1.596V447h-1.862v-3.486q0-.727-.084-1.176-.07-.462-.308-.672-.224-.21-.686-.21-.252 0-.532.056a2.8 2.8 0 0 0-.882.28q.07.294.098.756.042.462.042.966V447h-1.862v-3.458q0-.742-.084-1.204-.07-.462-.308-.672t-.686-.21q-.252 0-.518.056-.252.042-.476.126-.21.084-.35.154V447zm14.682.154q-1.163 0-1.848-.392-.672-.392-.966-1.19t-.294-2.002q0-1.302.364-2.128.378-.827 1.092-1.218.714-.406 1.764-.406 1.554 0 2.338.784.798.784.798 2.478l-.084 1.036h-4.396q.014.785.322 1.176.308.392 1.064.392.434 0 .952-.014l1.022-.056q.518-.028.882-.056l.042 1.302q-.35.055-.882.126a19 19 0 0 1-1.106.112q-.56.056-1.064.056m-1.232-4.228h2.618q0-.952-.308-1.33-.294-.378-.966-.378-.448 0-.742.168t-.448.546-.154.994M158.52 447v-7.028h1.862v.448q.224-.14.546-.266.322-.14.672-.238.364-.098.7-.098.728 0 1.204.196.49.182.77.602t.406 1.106q.126.672.126 1.638V447h-1.876v-3.542q0-.728-.084-1.162-.084-.448-.322-.644t-.7-.196q-.252 0-.532.056-.266.042-.518.126a3 3 0 0 0-.392.168V447zm10.175.168q-.77 0-1.246-.224t-.686-.77q-.196-.56-.196-1.554v-3.094h-.826v-1.554h.826v-1.862h1.862v1.862h1.792v1.554h-1.792v2.604q0 .546.042.854.056.308.224.434t.518.126q.097 0 .294-.014l.392-.028q.196-.014.322-.028l.056 1.498a13.08 13.08 0 0 1-1.106.154 3 3 0 0 1-.476.042m5.591-.014q-1.19 0-1.918-.392-.714-.392-1.036-1.204-.321-.826-.322-2.128 0-1.26.336-2.044a2.27 2.27 0 0 1 1.064-1.176q.729-.392 1.876-.392 1.162 0 1.876.392.728.378 1.064 1.176.35.784.35 2.044 0 1.302-.322 2.128-.321.812-1.05 1.204-.714.392-1.918.392m0-1.54q.588 0 .882-.21.294-.224.392-.7.112-.49.112-1.274 0-.77-.126-1.218-.126-.462-.42-.658t-.84-.196q-.531 0-.84.196-.294.196-.42.658-.126.448-.126 1.218 0 .784.098 1.274.112.476.406.7.294.21.882.21m7.098 1.54q-.462 0-.994-.056a14 14 0 0 1-1.75-.252l.056-1.386q.364.042.812.098.462.056.896.098.448.028.728.028.42 0 .686-.07.28-.07.42-.224.14-.168.14-.476 0-.238-.126-.364-.112-.126-.448-.21a7.4 7.4 0 0 0-.952-.196q-.784-.112-1.302-.322-.504-.21-.742-.616-.238-.42-.238-1.134 0-.868.378-1.358a1.98 1.98 0 0 1 1.008-.686q.63-.21 1.372-.21.49 0 1.008.056a14 14 0 0 1 1.75.252l-.056 1.414a12 12 0 0 0-.812-.098 16 16 0 0 0-1.68-.112q-.322 0-.574.07a.8.8 0 0 0-.392.196q-.126.14-.126.42 0 .196.112.322t.42.224q.322.084.924.168.868.126 1.386.35t.742.644q.238.42.238 1.134 0 .84-.336 1.344t-.98.728-1.568.224"/>
    <rect width="360" height="260" x="16.5" y="148.5" fill="#fff" rx="19.5"/>
    <rect width="360" height="260" x="16.5" y="148.5" stroke="#ecf1f8" rx="19.5"/>
    <path fill="#1b1b1b" d="M35.027 177v-11.2h1.712l4.896 8.176h-.896l4.816-8.176h1.712l.016 11.2h-1.968l-.016-8.112h.416l-4.096 6.832h-.928l-4.16-6.832h.48V177zm20.834 0v-1.728l-.112-.368v-3.024q0-.88-.528-1.36-.528-.496-1.6-.496-.72 0-1.424.224a3.5 3.5 0 0 0-1.168.624l-.784-1.456a4.7 4.7 0 0 1 1.632-.784 7.3 7.3 0 0 1 1.984-.272q1.856 0 2.864.896 1.024.88 1.024 2.736V177zm-2.688.112q-.96 0-1.68-.32-.72-.336-1.12-.912a2.4 2.4 0 0 1-.384-1.328q0-.72.336-1.296.351-.576 1.136-.912t2.08-.336h2.48v1.328h-2.336q-1.025 0-1.376.336-.352.32-.352.8 0 .544.432.864t1.2.32q.736 0 1.312-.336.591-.336.848-.992l.336 1.2q-.288.752-1.04 1.168-.736.416-1.872.416m7.622-.112v-8.544H62.7v2.352l-.224-.688a2.7 2.7 0 0 1 1.2-1.312q.833-.448 2.064-.448v1.904a1 1 0 0 0-.24-.032 2 2 0 0 0-.224-.016q-1.136 0-1.808.672-.672.655-.672 1.968V177zm10.963.112q-1.344 0-2.4-.56a4.3 4.3 0 0 1-1.632-1.568q-.592-.992-.592-2.256 0-1.28.592-2.256a4.16 4.16 0 0 1 1.632-1.552q1.056-.56 2.4-.56 1.248 0 2.192.512.96.496 1.456 1.472l-1.536.896q-.383-.608-.944-.896a2.5 2.5 0 0 0-1.184-.288q-.735 0-1.328.32a2.3 2.3 0 0 0-.928.928q-.336.592-.336 1.424t.336 1.44q.336.593.928.912t1.328.32q.64 0 1.184-.288.56-.288.944-.896l1.536.896a3.5 3.5 0 0 1-1.456 1.488q-.945.512-2.192.512m10.627-8.752q1.023 0 1.824.4.815.4 1.28 1.232.464.816.464 2.112V177h-2v-4.64q0-1.136-.544-1.696-.528-.56-1.488-.56-.705 0-1.248.288a2 2 0 0 0-.848.864q-.288.56-.288 1.424V177h-2v-11.872h2v5.632l-.432-.704a3 3 0 0 1 1.296-1.248q.864-.448 1.984-.448M93.12 177v-1.392l4.448-4.224q.56-.528.832-.928a2.3 2.3 0 0 0 .352-.736q.096-.352.096-.656 0-.768-.528-1.184-.529-.432-1.552-.432a3.7 3.7 0 0 0-1.488.288 3 3 0 0 0-1.136.88l-1.456-1.12q.656-.88 1.76-1.36 1.119-.496 2.496-.496 1.215 0 2.112.4.912.384 1.392 1.104.496.72.496 1.712 0 .544-.144 1.088-.145.528-.544 1.12-.4.592-1.168 1.328l-3.824 3.632-.432-.784h6.544V177zm14.608.16a4.43 4.43 0 0 1-2.4-.672q-1.055-.672-1.664-1.952-.608-1.296-.608-3.136t.608-3.12q.609-1.296 1.664-1.968a4.43 4.43 0 0 1 2.4-.672q1.344 0 2.4.672t1.664 1.968q.624 1.28.624 3.12t-.624 3.136q-.608 1.28-1.664 1.952t-2.4.672m0-1.808q.784 0 1.36-.416.576-.432.896-1.312.336-.88.336-2.224 0-1.36-.336-2.224-.32-.88-.896-1.296-.576-.432-1.36-.432-.752 0-1.344.432-.576.416-.912 1.296-.32.864-.32 2.224 0 1.344.32 2.224.336.88.912 1.312.593.416 1.344.416m6.414 1.648v-1.392l4.448-4.224q.56-.528.832-.928a2.3 2.3 0 0 0 .352-.736q.096-.352.096-.656 0-.768-.528-1.184-.528-.432-1.552-.432a3.7 3.7 0 0 0-1.488.288 3 3 0 0 0-1.136.88l-1.456-1.12q.657-.88 1.76-1.36 1.12-.496 2.496-.496 1.217 0 2.112.4.912.384 1.392 1.104.496.72.496 1.712 0 .544-.144 1.088-.144.528-.544 1.12t-1.168 1.328l-3.824 3.632-.432-.784h6.544V177zm13.649.16q-1.185 0-2.32-.336-1.12-.353-1.888-.96l.88-1.616q.608.496 1.472.8a5.5 5.5 0 0 0 1.824.304q1.104 0 1.728-.464.64-.463.64-1.248 0-.528-.272-.928-.256-.4-.928-.608-.657-.208-1.808-.208h-2.704l.576-6.096h6.576v1.744h-5.808l1.088-.992-.432 4.56-1.088-.976h2.256q1.664 0 2.672.448 1.023.432 1.488 1.216.48.768.48 1.76a3.47 3.47 0 0 1-.48 1.792q-.48.816-1.472 1.312-.977.496-2.48.496"/>
    <path fill="#fafafa" fill-opacity=".5" d="M29 194h27v27H29z"/>
    <path fill="#4c4c4c" d="M34.555 210v-1.02l4.275-4.125q.57-.54.84-.945a2.55 2.55 0 0 0 .48-1.455q0-.81-.57-1.275t-1.665-.465A3.9 3.9 0 0 0 36.4 201q-.675.27-1.17.855l-1.02-.885q.6-.765 1.605-1.17 1.02-.42 2.235-.42 1.095 0 1.905.36.81.345 1.245 1.005.45.66.45 1.56 0 .51-.135 1.005t-.51 1.05-1.08 1.245l-3.81 3.675-.36-.585H42.1V210zm11.029 0 4.455-9.87.39.675h-6.24l.75-.735v2.61h-1.44v-3.18h7.92v1.02L47.174 210z" opacity=".2"/>
    <path fill="#fafafa" fill-opacity=".5" d="M88 194h27v27H88z"/>
    <path fill="#4c4c4c" d="M93.555 210v-1.02l4.275-4.125q.57-.54.84-.945a2.55 2.55 0 0 0 .48-1.455q0-.81-.57-1.275t-1.665-.465A3.9 3.9 0 0 0 95.4 201q-.675.27-1.17.855l-1.02-.885q.6-.765 1.605-1.17 1.02-.42 2.235-.42 1.095 0 1.905.36.81.345 1.245 1.005.45.66.45 1.56 0 .51-.135 1.005t-.51 1.05-1.08 1.245l-3.81 3.675-.36-.585h6.345V210zm13.323.12q-1.275 0-2.205-.375t-1.44-1.065q-.51-.705-.51-1.65 0-.93.48-1.575.495-.66 1.425-.99.93-.345 2.25-.345t2.25.345q.945.33 1.44.99t.495 1.575q0 .945-.51 1.65-.51.69-1.455 1.065t-2.22.375m0-1.215q1.26 0 1.965-.51.72-.525.72-1.41 0-.87-.72-1.365-.705-.51-1.965-.51-1.245 0-1.95.51-.705.495-.705 1.365 0 .885.705 1.41.705.51 1.95.51m0-3.975q-1.2 0-2.04-.315-.84-.33-1.29-.93-.45-.615-.45-1.455 0-.885.465-1.515.48-.645 1.335-.99t1.98-.345q1.14 0 1.995.345t1.335.99q.48.63.48 1.515 0 .84-.45 1.455-.45.6-1.305.93-.855.315-2.055.315m0-.96q1.095 0 1.71-.45.63-.45.63-1.23 0-.795-.645-1.245t-1.695-.45-1.68.45q-.615.45-.615 1.245 0 .78.6 1.23.615.45 1.695.45" opacity=".2"/>
    <path fill="#fafafa" fill-opacity=".5" d="M147 194h27v27h-27z"/>
    <path fill="#4c4c4c" d="M154.49 210v-9.9l.645.705h-3.015V199.5h3.855V210z"/>
    <path fill="#fafafa" fill-opacity=".5" d="M206 194h27v27h-27z"/>
    <path fill="#4c4c4c" d="M211.555 210v-1.02l4.275-4.125q.57-.54.84-.945a2.55 2.55 0 0 0 .48-1.455q0-.81-.57-1.275t-1.665-.465a3.9 3.9 0 0 0-1.515.285q-.675.27-1.17.855l-1.02-.885q.6-.765 1.605-1.17 1.02-.42 2.235-.42 1.095 0 1.905.36.81.345 1.245 1.005.45.66.45 1.56 0 .51-.135 1.005t-.51 1.05-1.08 1.245l-3.81 3.675-.36-.585h6.345V210z"/>
    <path fill="#fafafa" fill-opacity=".5" d="M265 194h27v27h-27z"/>
    <path fill="#4c4c4c" d="M273.93 210.12q-1.11 0-2.16-.345-1.035-.345-1.695-.93l.69-1.185q.525.495 1.365.81t1.8.315q1.17 0 1.815-.495.66-.51.66-1.365 0-.825-.63-1.32-.615-.51-1.965-.51h-.84v-1.05l3.12-3.84.21.6h-5.745V199.5h6.93v1.02l-3.105 3.825-.78-.465h.495q1.905 0 2.85.855.96.855.96 2.175 0 .885-.435 1.62t-1.32 1.17q-.87.42-2.22.42"/>
    <path fill="#fafafa" fill-opacity=".5" d="M324 194h27v27h-27z"/>
    <path fill="#4c4c4c" d="M329.57 207.42v-1.05l5.37-6.87h1.62l-5.325 6.87-.765-.24h8.385v1.29zm5.835 2.58v-2.58l.045-1.29v-2.28h1.41V210z"/>
    <path fill="#fafafa" fill-opacity=".5" d="M29 229h27v27H29z"/>
    <path fill="#4c4c4c" d="M38.11 245.12q-1.11 0-2.16-.345-1.035-.345-1.695-.93l.69-1.185q.525.495 1.365.81t1.785.315q1.2 0 1.845-.51t.645-1.365q0-.585-.285-1.02t-.99-.66q-.69-.24-1.905-.24H35.02l.555-5.49H41.5v1.305h-5.37l.78-.735-.435 4.335-.78-.72h2.025q1.575 0 2.535.405t1.395 1.125q.435.705.435 1.635 0 .9-.435 1.65-.435.735-1.32 1.185-.87.435-2.22.435"/>
    <path fill="#fafafa" fill-opacity=".5" d="M88 229h27v27H88z"/>
    <path fill="#4c4c4c" d="M98.13 245.12q-1.395 0-2.385-.615t-1.515-1.77q-.51-1.17-.51-2.85 0-1.785.63-3.015t1.755-1.86 2.58-.63q.75 0 1.425.15.69.15 1.185.465l-.57 1.17a2.4 2.4 0 0 0-.93-.39q-.51-.105-1.08-.105-1.605 0-2.55 1.005-.945.99-.945 2.955 0 .315.03.75t.15.855l-.51-.51q.225-.69.705-1.155.495-.48 1.17-.705.69-.24 1.485-.24 1.05 0 1.86.39t1.275 1.11q.465.705.465 1.68 0 1.005-.495 1.755t-1.335 1.155-1.89.405m-.06-1.215q.69 0 1.2-.255.525-.255.825-.705.3-.465.3-1.08 0-.93-.645-1.47-.645-.555-1.755-.555-.72 0-1.26.27t-.855.735q-.3.45-.3 1.035 0 .54.285 1.005.285.45.84.735t1.365.285"/>
    <path fill="#fafafa" fill-opacity=".5" d="M147 229h27v27h-27z"/>
    <path fill="#4c4c4c" d="m154.535 245 4.455-9.87.39.675h-6.24l.75-.735v2.61h-1.44v-3.18h7.92v1.02l-4.245 9.48z"/>
    <path fill="#fafafa" fill-opacity=".5" d="M206 229h27v27h-27z"/>
    <path fill="#4c4c4c" d="M215.815 245.12q-1.275 0-2.205-.375t-1.44-1.065q-.51-.705-.51-1.65 0-.93.48-1.575.495-.66 1.425-.99.93-.345 2.25-.345t2.25.345q.945.33 1.44.99t.495 1.575q0 .945-.51 1.65-.51.69-1.455 1.065t-2.22.375m0-1.215q1.26 0 1.965-.51.72-.525.72-1.41 0-.87-.72-1.365-.705-.51-1.965-.51-1.245 0-1.95.51-.705.495-.705 1.365 0 .885.705 1.41.705.51 1.95.51m0-3.975q-1.2 0-2.04-.315-.84-.33-1.29-.93-.45-.615-.45-1.455 0-.885.465-1.515.48-.645 1.335-.99t1.98-.345q1.14 0 1.995.345t1.335.99q.48.63.48 1.515 0 .84-.45 1.455-.45.6-1.305.93-.855.315-2.055.315m0-.96q1.095 0 1.71-.45.63-.45.63-1.23 0-.795-.645-1.245t-1.695-.45-1.68.45q-.615.45-.615 1.245 0 .78.6 1.23.615.45 1.695.45"/>
    <path fill="#fafafa" fill-opacity=".5" d="M265 229h27v27h-27z"/>
    <path fill="#4c4c4c" d="M274.125 234.38q1.425 0 2.4.615.99.615 1.5 1.785.51 1.155.51 2.835 0 1.785-.63 3.015t-1.74 1.86-2.595.63q-.735 0-1.425-.15a3.8 3.8 0 0 1-1.185-.465l.57-1.17q.42.27.93.39.525.105 1.095.105 1.59 0 2.535-.99.945-1.005.945-2.97 0-.315-.03-.75a5 5 0 0 0-.135-.855l.495.51q-.21.69-.705 1.17-.48.465-1.17.705-.675.225-1.485.225-1.035 0-1.845-.39a3.1 3.1 0 0 1-1.275-1.095q-.465-.72-.465-1.695 0-1.02.48-1.755.495-.75 1.335-1.155.855-.405 1.89-.405m.06 1.215q-.675 0-1.2.255t-.825.705q-.285.45-.285 1.08 0 .93.645 1.485.645.54 1.74.54.72 0 1.26-.27.555-.27.855-.735.315-.465.315-1.035 0-.555-.285-1.005t-.84-.735-1.38-.285"/>
    <path fill="#fafafa" fill-opacity=".5" d="M324 229h27v27h-27z"/>
    <path fill="#4c4c4c" d="M331.49 245v-9.9l.645.705h-3.015V234.5h3.855V245zm8.522.12q-1.23 0-2.205-.63-.96-.63-1.53-1.83-.555-1.2-.555-2.91t.555-2.91q.57-1.2 1.53-1.83.975-.63 2.205-.63 1.215 0 2.19.63t1.53 1.83.555 2.91-.555 2.91-1.53 1.83-2.19.63m0-1.335q.825 0 1.44-.45.63-.45.975-1.35.36-.9.36-2.235t-.36-2.235q-.345-.9-.975-1.35-.615-.45-1.44-.45t-1.455.45-.99 1.35q-.345.9-.345 2.235t.345 2.235q.36.9.99 1.35t1.455.45"/>
    <path fill="#fafafa" fill-opacity=".5" d="M29 264h27v27H29z"/>
    <path fill="#4c4c4c" d="M36.49 280v-9.9l.645.705H34.12V269.5h3.855V280zm6.002 0v-9.9l.645.705h-3.015V269.5h3.855V280z"/>
    <path fill="#fafafa" fill-opacity=".5" d="M88 264h27v27H88z"/>
    <path fill="#4c4c4c" d="M95.49 280v-9.9l.645.705H93.12V269.5h3.855V280zm4.067 0v-1.02l4.275-4.125q.57-.54.84-.945a2.55 2.55 0 0 0 .48-1.455q0-.81-.57-1.275t-1.665-.465a3.9 3.9 0 0 0-1.515.285q-.675.27-1.17.855l-1.02-.885q.6-.765 1.605-1.17 1.02-.42 2.235-.42 1.095 0 1.905.36.81.345 1.245 1.005.45.66.45 1.56 0 .51-.135 1.005t-.51 1.05-1.08 1.245l-3.81 3.675-.36-.585h6.345V280z"/>
    <rect width="27" height="27" x="146" y="261" fill="#2d77e3" rx="13.5"/>
    <path fill="#fff" d="M154.49 280v-9.9l.645.705h-3.015V269.5h3.855V280zm7.442.12q-1.11 0-2.16-.345-1.035-.345-1.695-.93l.69-1.185q.525.495 1.365.81t1.8.315q1.17 0 1.815-.495.66-.51.66-1.365 0-.825-.63-1.32-.615-.51-1.965-.51h-.84v-1.05l3.12-3.84.21.6h-5.745V269.5h6.93v1.02l-3.105 3.825-.78-.465h.495q1.905 0 2.85.855.96.855.96 2.175 0 .885-.435 1.62t-1.32 1.17q-.87.42-2.22.42"/>
    <path fill="#fafafa" fill-opacity=".5" d="M206 264h27v27h-27z"/>
    <path fill="#4c4c4c" d="M213.49 280v-9.9l.645.705h-3.015V269.5h3.855V280zm4.082-2.58v-1.05l5.37-6.87h1.62l-5.325 6.87-.765-.24h8.385v1.29zm5.835 2.58v-2.58l.045-1.29v-2.28h1.41V280z"/>
    <path fill="#fafafa" fill-opacity=".5" d="M265 264h27v27h-27z"/>
    <path fill="#4c4c4c" d="M272.49 280v-9.9l.645.705h-3.015V269.5h3.855V280zm7.622.12q-1.11 0-2.16-.345-1.035-.345-1.695-.93l.69-1.185q.525.495 1.365.81t1.785.315q1.2 0 1.845-.51t.645-1.365q0-.585-.285-1.02t-.99-.66q-.69-.24-1.905-.24h-2.385l.555-5.49h5.925v1.305h-5.37l.78-.735-.435 4.335-.78-.72h2.025q1.575 0 2.535.405t1.395 1.125q.435.705.435 1.635 0 .9-.435 1.65-.435.735-1.32 1.185-.87.435-2.22.435"/>
    <path fill="#fafafa" fill-opacity=".5" d="M324 264h27v27h-27z"/>
    <path fill="#4c4c4c" d="M331.49 280v-9.9l.645.705h-3.015V269.5h3.855V280zm8.642.12q-1.395 0-2.385-.615t-1.515-1.77q-.51-1.17-.51-2.85 0-1.785.63-3.015t1.755-1.86 2.58-.63q.75 0 1.425.15.69.15 1.185.465l-.57 1.17a2.4 2.4 0 0 0-.93-.39q-.51-.105-1.08-.105-1.605 0-2.55 1.005-.945.99-.945 2.955 0 .315.03.75t.15.855l-.51-.51q.225-.69.705-1.155.495-.48 1.17-.705.69-.24 1.485-.24 1.05 0 1.86.39t1.275 1.11q.465.705.465 1.68 0 1.005-.495 1.755t-1.335 1.155-1.89.405m-.06-1.215q.69 0 1.2-.255.525-.255.825-.705.3-.465.3-1.08 0-.93-.645-1.47-.645-.555-1.755-.555-.72 0-1.26.27t-.855.735q-.3.45-.3 1.035 0 .54.285 1.005.285.45.84.735t1.365.285"/>
    <path fill="#fafafa" fill-opacity=".5" d="M29 299h27v27H29z"/>
    <path fill="#4c4c4c" d="M36.49 315v-9.9l.645.705H34.12V304.5h3.855V315zm6.047 0 4.455-9.87.39.675h-6.24l.75-.735v2.61h-1.44v-3.18h7.92v1.02L44.127 315z"/>
    <path fill="#fafafa" fill-opacity=".5" d="M88 299h27v27H88z"/>
    <path fill="#4c4c4c" d="M95.49 315v-9.9l.645.705H93.12V304.5h3.855V315zm8.327.12q-1.275 0-2.205-.375t-1.44-1.065q-.51-.705-.51-1.65 0-.93.48-1.575.495-.66 1.425-.99.93-.345 2.25-.345t2.25.345q.945.33 1.44.99t.495 1.575q0 .945-.51 1.65-.51.69-1.455 1.065t-2.22.375m0-1.215q1.26 0 1.965-.51.72-.525.72-1.41 0-.87-.72-1.365-.705-.51-1.965-.51-1.245 0-1.95.51-.705.495-.705 1.365 0 .885.705 1.41.705.51 1.95.51m0-3.975q-1.2 0-2.04-.315-.84-.33-1.29-.93-.45-.615-.45-1.455 0-.885.465-1.515.48-.645 1.335-.99t1.98-.345q1.14 0 1.995.345t1.335.99q.48.63.48 1.515 0 .84-.45 1.455-.45.6-1.305.93-.855.315-2.055.315m0-.96q1.095 0 1.71-.45.63-.45.63-1.23 0-.795-.645-1.245t-1.695-.45-1.68.45q-.615.45-.615 1.245 0 .78.6 1.23.615.45 1.695.45"/>
    <path fill="#fafafa" fill-opacity=".5" d="M147 299h27v27h-27z"/>
    <path fill="#4c4c4c" d="M154.49 315v-9.9l.645.705h-3.015V304.5h3.855V315zm7.637-10.62q1.425 0 2.4.615.99.615 1.5 1.785.51 1.155.51 2.835 0 1.785-.63 3.015t-1.74 1.86-2.595.63q-.735 0-1.425-.15a3.8 3.8 0 0 1-1.185-.465l.57-1.17q.42.27.93.39.525.105 1.095.105 1.59 0 2.535-.99.945-1.005.945-2.97 0-.315-.03-.75a5 5 0 0 0-.135-.855l.495.51q-.21.69-.705 1.17-.48.465-1.17.705-.675.225-1.485.225-1.035 0-1.845-.39a3.1 3.1 0 0 1-1.275-1.095q-.465-.72-.465-1.695 0-1.02.48-1.755.495-.75 1.335-1.155.855-.405 1.89-.405m.06 1.215q-.675 0-1.2.255t-.825.705q-.285.45-.285 1.08 0 .93.645 1.485.645.54 1.74.54.72 0 1.26-.27.555-.27.855-.735.315-.465.315-1.035 0-.555-.285-1.005t-.84-.735-1.38-.285"/>
    <path fill="#fafafa" fill-opacity=".5" d="M206 299h27v27h-27z"/>
    <path fill="#4c4c4c" d="M211.555 315v-1.02l4.275-4.125q.57-.54.84-.945a2.55 2.55 0 0 0 .48-1.455q0-.81-.57-1.275t-1.665-.465a3.9 3.9 0 0 0-1.515.285q-.675.27-1.17.855l-1.02-.885q.6-.765 1.605-1.17 1.02-.42 2.235-.42 1.095 0 1.905.36.81.345 1.245 1.005.45.66.45 1.56 0 .51-.135 1.005t-.51 1.05-1.08 1.245l-3.81 3.675-.36-.585h6.345V315zm13.504.12q-1.23 0-2.205-.63-.96-.63-1.53-1.83-.555-1.2-.555-2.91t.555-2.91q.57-1.2 1.53-1.83.975-.63 2.205-.63 1.215 0 2.19.63t1.53 1.83.555 2.91-.555 2.91-1.53 1.83-2.19.63m0-1.335q.825 0 1.44-.45.63-.45.975-1.35.36-.9.36-2.235t-.36-2.235q-.345-.9-.975-1.35-.615-.45-1.44-.45t-1.455.45-.99 1.35q-.345.9-.345 2.235t.345 2.235q.36.9.99 1.35t1.455.45"/>
    <path fill="#fafafa" fill-opacity=".5" d="M265 299h27v27h-27z"/>
    <path fill="#4c4c4c" d="M270.555 315v-1.02l4.275-4.125q.57-.54.84-.945a2.55 2.55 0 0 0 .48-1.455q0-.81-.57-1.275t-1.665-.465a3.9 3.9 0 0 0-1.515.285q-.675.27-1.17.855l-1.02-.885q.6-.765 1.605-1.17 1.02-.42 2.235-.42 1.095 0 1.905.36.81.345 1.245 1.005.45.66.45 1.56 0 .51-.135 1.005t-.51 1.05-1.08 1.245l-3.81 3.675-.36-.585h6.345V315zm10.998 0v-9.9l.645.705h-3.015V304.5h3.855V315z"/>
    <path fill="#fafafa" fill-opacity=".5" d="M324 299h27v27h-27z"/>
    <path fill="#4c4c4c" d="M329.555 315v-1.02l4.275-4.125q.57-.54.84-.945a2.55 2.55 0 0 0 .48-1.455q0-.81-.57-1.275t-1.665-.465a3.9 3.9 0 0 0-1.515.285q-.675.27-1.17.855l-1.02-.885q.6-.765 1.605-1.17 1.02-.42 2.235-.42 1.095 0 1.905.36.81.345 1.245 1.005.45.66.45 1.56 0 .51-.135 1.005t-.51 1.05-1.08 1.245l-3.81 3.675-.36-.585h6.345V315zm9.063 0v-1.02l4.275-4.125q.57-.54.84-.945a2.55 2.55 0 0 0 .48-1.455q0-.81-.57-1.275t-1.665-.465a3.9 3.9 0 0 0-1.515.285q-.675.27-1.17.855l-1.02-.885q.6-.765 1.605-1.17 1.02-.42 2.235-.42 1.095 0 1.905.36.81.345 1.245 1.005.45.66.45 1.56 0 .51-.135 1.005t-.51 1.05-1.08 1.245l-3.81 3.675-.36-.585h6.345V315z"/>
    <path fill="#fafafa" fill-opacity=".5" d="M29 334h27v27H29z"/>
    <path fill="#4c4c4c" d="M34.555 350v-1.02l4.275-4.125q.57-.54.84-.945a2.55 2.55 0 0 0 .48-1.455q0-.81-.57-1.275t-1.665-.465A3.9 3.9 0 0 0 36.4 341q-.675.27-1.17.855l-1.02-.885q.6-.765 1.605-1.17 1.02-.42 2.235-.42 1.095 0 1.905.36.81.345 1.245 1.005.45.66.45 1.56 0 .51-.135 1.005t-.51 1.05-1.08 1.245l-3.81 3.675-.36-.585H42.1V350zm12.438.12q-1.11 0-2.16-.345-1.035-.345-1.695-.93l.69-1.185q.525.495 1.365.81t1.8.315q1.17 0 1.815-.495.66-.51.66-1.365 0-.825-.63-1.32-.615-.51-1.965-.51h-.84v-1.05l3.12-3.84.21.6h-5.745V339.5h6.93v1.02l-3.105 3.825-.78-.465h.495q1.905 0 2.85.855.96.855.96 2.175 0 .885-.435 1.62t-1.32 1.17q-.87.42-2.22.42"/>
    <path fill="#fafafa" fill-opacity=".5" d="M88 334h27v27H88z"/>
    <path fill="#4c4c4c" d="M93.555 350v-1.02l4.275-4.125q.57-.54.84-.945a2.55 2.55 0 0 0 .48-1.455q0-.81-.57-1.275t-1.665-.465A3.9 3.9 0 0 0 95.4 341q-.675.27-1.17.855l-1.02-.885q.6-.765 1.605-1.17 1.02-.42 2.235-.42 1.095 0 1.905.36.81.345 1.245 1.005.45.66.45 1.56 0 .51-.135 1.005t-.51 1.05-1.08 1.245l-3.81 3.675-.36-.585h6.345V350zm8.785-2.58v-1.05l5.37-6.87h1.62l-5.325 6.87-.765-.24h8.385v1.29zm5.835 2.58v-2.58l.045-1.29v-2.28h1.41V350z"/>
    <path fill="#fafafa" fill-opacity=".5" d="M147 334h27v27h-27z"/>
    <path fill="#4c4c4c" d="M152.555 350v-1.02l4.275-4.125q.57-.54.84-.945a2.55 2.55 0 0 0 .48-1.455q0-.81-.57-1.275t-1.665-.465a3.9 3.9 0 0 0-1.515.285q-.675.27-1.17.855l-1.02-.885q.6-.765 1.605-1.17 1.02-.42 2.235-.42 1.095 0 1.905.36.81.345 1.245 1.005.45.66.45 1.56 0 .51-.135 1.005t-.51 1.05-1.08 1.245l-3.81 3.675-.36-.585h6.345V350zm12.618.12q-1.11 0-2.16-.345-1.035-.345-1.695-.93l.69-1.185q.525.495 1.365.81t1.785.315q1.2 0 1.845-.51t.645-1.365q0-.585-.285-1.02t-.99-.66q-.69-.24-1.905-.24h-2.385l.555-5.49h5.925v1.305h-5.37l.78-.735-.435 4.335-.78-.72h2.025q1.575 0 2.535.405t1.395 1.125q.435.705.435 1.635 0 .9-.435 1.65-.435.735-1.32 1.185-.87.435-2.22.435"/>
    <path fill="#fafafa" fill-opacity=".5" d="M206 334h27v27h-27z"/>
    <path fill="#4c4c4c" d="M211.555 350v-1.02l4.275-4.125q.57-.54.84-.945a2.55 2.55 0 0 0 .48-1.455q0-.81-.57-1.275t-1.665-.465a3.9 3.9 0 0 0-1.515.285q-.675.27-1.17.855l-1.02-.885q.6-.765 1.605-1.17 1.02-.42 2.235-.42 1.095 0 1.905.36.81.345 1.245 1.005.45.66.45 1.56 0 .51-.135 1.005t-.51 1.05-1.08 1.245l-3.81 3.675-.36-.585h6.345V350zm13.624.12q-1.395 0-2.385-.615t-1.515-1.77q-.51-1.17-.51-2.85 0-1.785.63-3.015t1.755-1.86 2.58-.63q.75 0 1.425.15.69.15 1.185.465l-.57 1.17a2.4 2.4 0 0 0-.93-.39q-.51-.105-1.08-.105-1.605 0-2.55 1.005-.945.99-.945 2.955 0 .315.03.75t.15.855l-.51-.51q.225-.69.705-1.155.495-.48 1.17-.705.69-.24 1.485-.24 1.05 0 1.86.39t1.275 1.11q.465.705.465 1.68 0 1.005-.495 1.755t-1.335 1.155-1.89.405m-.06-1.215q.69 0 1.2-.255.525-.255.825-.705.3-.465.3-1.08 0-.93-.645-1.47-.645-.555-1.755-.555-.72 0-1.26.27t-.855.735q-.3.45-.3 1.035 0 .54.285 1.005.285.45.84.735t1.365.285"/>
    <path fill="#fafafa" fill-opacity=".5" d="M265 334h27v27h-27z"/>
    <path fill="#4c4c4c" d="M270.555 350v-1.02l4.275-4.125q.57-.54.84-.945a2.55 2.55 0 0 0 .48-1.455q0-.81-.57-1.275t-1.665-.465a3.9 3.9 0 0 0-1.515.285q-.675.27-1.17.855l-1.02-.885q.6-.765 1.605-1.17 1.02-.42 2.235-.42 1.095 0 1.905.36.81.345 1.245 1.005.45.66.45 1.56 0 .51-.135 1.005t-.51 1.05-1.08 1.245l-3.81 3.675-.36-.585h6.345V350zm11.029 0 4.455-9.87.39.675h-6.24l.75-.735v2.61h-1.44v-3.18h7.92v1.02l-4.245 9.48z"/>
    <path fill="#fafafa" fill-opacity=".5" d="M324 334h27v27h-27z"/>
    <path fill="#4c4c4c" d="M329.555 350v-1.02l4.275-4.125q.57-.54.84-.945a2.55 2.55 0 0 0 .48-1.455q0-.81-.57-1.275t-1.665-.465a3.9 3.9 0 0 0-1.515.285q-.675.27-1.17.855l-1.02-.885q.6-.765 1.605-1.17 1.02-.42 2.235-.42 1.095 0 1.905.36.81.345 1.245 1.005.45.66.45 1.56 0 .51-.135 1.005t-.51 1.05-1.08 1.245l-3.81 3.675-.36-.585h6.345V350zm13.323.12q-1.275 0-2.205-.375t-1.44-1.065q-.51-.705-.51-1.65 0-.93.48-1.575.495-.66 1.425-.99.93-.345 2.25-.345t2.25.345q.945.33 1.44.99t.495 1.575q0 .945-.51 1.65-.51.69-1.455 1.065t-2.22.375m0-1.215q1.26 0 1.965-.51.72-.525.72-1.41 0-.87-.72-1.365-.705-.51-1.965-.51-1.245 0-1.95.51-.705.495-.705 1.365 0 .885.705 1.41.705.51 1.95.51m0-3.975q-1.2 0-2.04-.315-.84-.33-1.29-.93-.45-.615-.45-1.455 0-.885.465-1.515.48-.645 1.335-.99t1.98-.345q1.14 0 1.995.345t1.335.99q.48.63.48 1.515 0 .84-.45 1.455-.45.6-1.305.93-.855.315-2.055.315m0-.96q1.095 0 1.71-.45.63-.45.63-1.23 0-.795-.645-1.245t-1.695-.45-1.68.45q-.615.45-.615 1.245 0 .78.6 1.23.615.45 1.695.45"/>
    <path fill="#fafafa" fill-opacity=".5" d="M29 369h27v27H29z"/>
    <path fill="#4c4c4c" d="M34.555 385v-1.02l4.275-4.125q.57-.54.84-.945a2.55 2.55 0 0 0 .48-1.455q0-.81-.57-1.275t-1.665-.465A3.9 3.9 0 0 0 36.4 376q-.675.27-1.17.855l-1.02-.885q.6-.765 1.605-1.17 1.02-.42 2.235-.42 1.095 0 1.905.36.81.345 1.245 1.005.45.66.45 1.56 0 .51-.135 1.005t-.51 1.05-1.08 1.245l-3.81 3.675-.36-.585H42.1V385zm12.633-10.62q1.425 0 2.4.615.99.615 1.5 1.785.51 1.155.51 2.835 0 1.785-.63 3.015t-1.74 1.86-2.595.63q-.735 0-1.425-.15a3.8 3.8 0 0 1-1.185-.465l.57-1.17q.42.27.93.39.525.105 1.095.105 1.59 0 2.535-.99.945-1.005.945-2.97 0-.315-.03-.75a5 5 0 0 0-.135-.855l.495.51q-.21.69-.705 1.17-.48.465-1.17.705-.675.225-1.485.225-1.035 0-1.845-.39a3.1 3.1 0 0 1-1.275-1.095q-.465-.72-.465-1.695 0-1.02.48-1.755.495-.75 1.335-1.155.855-.405 1.89-.405m.06 1.215q-.675 0-1.2.255t-.825.705q-.285.45-.285 1.08 0 .93.645 1.485.645.54 1.74.54.72 0 1.26-.27.555-.27.855-.735.315-.465.315-1.035 0-.555-.285-1.005t-.84-.735-1.38-.285"/>
    <path fill="#fafafa" fill-opacity=".5" d="M88 369h27v27H88z"/>
    <path fill="#4c4c4c" d="M96.93 385.12q-1.11 0-2.16-.345-1.035-.345-1.695-.93l.69-1.185q.525.495 1.365.81t1.8.315q1.17 0 1.815-.495.66-.51.66-1.365 0-.825-.63-1.32-.615-.51-1.965-.51h-.84v-1.05l3.12-3.84.21.6h-5.745V374.5h6.93v1.02l-3.105 3.825-.78-.465h.495q1.905 0 2.85.855.96.855.96 2.175 0 .885-.435 1.62t-1.32 1.17q-.87.42-2.22.42m10.114 0q-1.23 0-2.205-.63-.96-.63-1.53-1.83-.555-1.2-.555-2.91t.555-2.91q.57-1.2 1.53-1.83.975-.63 2.205-.63 1.215 0 2.19.63t1.53 1.83.555 2.91-.555 2.91-1.53 1.83-2.19.63m0-1.335q.825 0 1.44-.45.63-.45.975-1.35.36-.9.36-2.235t-.36-2.235q-.345-.9-.975-1.35-.615-.45-1.44-.45t-1.455.45-.99 1.35q-.345.9-.345 2.235t.345 2.235q.36.9.99 1.35t1.455.45"/>
    <path fill="#fafafa" fill-opacity=".5" d="M147 369h27v27h-27z"/>
    <path fill="#4c4c4c" d="M155.93 385.12q-1.11 0-2.16-.345-1.035-.345-1.695-.93l.69-1.185q.525.495 1.365.81t1.8.315q1.17 0 1.815-.495.66-.51.66-1.365 0-.825-.63-1.32-.615-.51-1.965-.51h-.84v-1.05l3.12-3.84.21.6h-5.745V374.5h6.93v1.02l-3.105 3.825-.78-.465h.495q1.905 0 2.85.855.96.855.96 2.175 0 .885-.435 1.62t-1.32 1.17q-.87.42-2.22.42m7.594-.12v-9.9l.645.705h-3.015V374.5h3.855V385z"/>
    <path fill="#fafafa" fill-opacity=".5" d="M206 369h27v27h-27z"/>
    <path fill="#4c4c4c" d="M213.49 385v-9.9l.645.705h-3.015V374.5h3.855V385z" opacity=".2"/>
    <path fill="#fafafa" fill-opacity=".5" d="M265 369h27v27h-27z"/>
    <path fill="#4c4c4c" d="M270.555 385v-1.02l4.275-4.125q.57-.54.84-.945a2.55 2.55 0 0 0 .48-1.455q0-.81-.57-1.275t-1.665-.465a3.9 3.9 0 0 0-1.515.285q-.675.27-1.17.855l-1.02-.885q.6-.765 1.605-1.17 1.02-.42 2.235-.42 1.095 0 1.905.36.81.345 1.245 1.005.45.66.45 1.56 0 .51-.135 1.005t-.51 1.05-1.08 1.245l-3.81 3.675-.36-.585h6.345V385z" opacity=".2"/>
    <path fill="#fafafa" fill-opacity=".5" d="M324 369h27v27h-27z"/>
    <path fill="#4c4c4c" d="M332.93 385.12q-1.11 0-2.16-.345-1.035-.345-1.695-.93l.69-1.185q.525.495 1.365.81t1.8.315q1.17 0 1.815-.495.66-.51.66-1.365 0-.825-.63-1.32-.615-.51-1.965-.51h-.84v-1.05l3.12-3.84.21.6h-5.745V374.5h6.93v1.02l-3.105 3.825-.78-.465h.495q1.905 0 2.85.855.96.855.96 2.175 0 .885-.435 1.62t-1.32 1.17q-.87.42-2.22.42" opacity=".2"/>
    <path stroke="#000" stroke-linecap="round" stroke-linejoin="round" d="m331.305 167.963-3.913 3.679 3.913 3.679M352.434 175.037l3.912-3.679-3.912-3.679"/>
    <rect width="112" height="36" x="16" y="463" fill="#fff" rx="18"/>
    <rect width="112" height="36" x="16" y="463" stroke="#ecf1f8" rx="18"/>
    <path fill="#4c4c4c" d="M56.676 486.612a3.7 3.7 0 0 1-2.058-.588q-.896-.588-1.428-1.708-.518-1.12-.518-2.716t.518-2.716q.532-1.12 1.428-1.708a3.7 3.7 0 0 1 2.058-.588q1.134 0 2.044.588t1.428 1.708.518 2.716-.518 2.716-1.428 1.708a3.7 3.7 0 0 1-2.044.588m0-1.246q.77 0 1.344-.42.588-.42.91-1.26.336-.84.336-2.086t-.336-2.086q-.322-.84-.91-1.26-.574-.42-1.344-.42t-1.358.42-.924 1.26q-.322.84-.322 2.086t.322 2.086q.336.84.924 1.26t1.358.42m8.512-8.778q1.33 0 2.24.574.924.574 1.4 1.666.476 1.078.476 2.646 0 1.666-.588 2.814t-1.624 1.736-2.422.588q-.685 0-1.33-.14a3.6 3.6 0 0 1-1.106-.434l.532-1.092q.391.252.868.364.49.098 1.022.098 1.484 0 2.366-.924.882-.937.882-2.772 0-.294-.028-.7a4.6 4.6 0 0 0-.126-.798l.462.476q-.195.644-.658 1.092a2.9 2.9 0 0 1-1.092.658q-.63.21-1.386.21-.966 0-1.722-.364a2.9 2.9 0 0 1-1.19-1.022q-.434-.672-.434-1.582 0-.952.448-1.638a3.04 3.04 0 0 1 1.246-1.078 4.1 4.1 0 0 1 1.764-.378m.056 1.134q-.63 0-1.12.238a1.9 1.9 0 0 0-.77.658q-.266.42-.266 1.008 0 .869.602 1.386.602.504 1.624.504.672 0 1.176-.252.517-.252.798-.686.294-.433.294-.966 0-.518-.266-.938a1.96 1.96 0 0 0-.784-.686q-.518-.266-1.288-.266m6.33 3.206a.94.94 0 0 1-.671-.266.95.95 0 0 1-.28-.7q0-.42.28-.686a.94.94 0 0 1 .671-.266q.378 0 .645.266.28.266.28.686a.95.95 0 0 1-.28.7.88.88 0 0 1-.644.266m0 5.656a.94.94 0 0 1-.671-.266.95.95 0 0 1-.28-.7q0-.42.28-.686a.94.94 0 0 1 .671-.266q.378 0 .645.266.28.266.28.686a.95.95 0 0 1-.28.7.88.88 0 0 1-.644.266m6.252.028a3.7 3.7 0 0 1-2.058-.588q-.895-.588-1.428-1.708-.518-1.12-.518-2.716t.518-2.716q.533-1.12 1.428-1.708a3.7 3.7 0 0 1 2.058-.588q1.135 0 2.044.588.91.588 1.428 1.708.519 1.12.518 2.716 0 1.596-.518 2.716-.517 1.12-1.428 1.708a3.7 3.7 0 0 1-2.044.588m0-1.246q.771 0 1.344-.42.588-.42.91-1.26.336-.84.336-2.086t-.336-2.086q-.322-.84-.91-1.26-.573-.42-1.344-.42-.77 0-1.358.42t-.924 1.26q-.322.84-.322 2.086t.322 2.086q.336.84.924 1.26t1.358.42m9.338 1.246a3.7 3.7 0 0 1-2.058-.588q-.895-.588-1.428-1.708-.518-1.12-.518-2.716t.518-2.716q.532-1.12 1.428-1.708a3.7 3.7 0 0 1 2.058-.588q1.135 0 2.044.588.91.588 1.428 1.708t.518 2.716-.518 2.716-1.428 1.708a3.7 3.7 0 0 1-2.044.588m0-1.246q.771 0 1.344-.42.588-.42.91-1.26.336-.84.336-2.086t-.336-2.086q-.322-.84-.91-1.26-.573-.42-1.344-.42-.77 0-1.358.42t-.924 1.26q-.321.84-.322 2.086 0 1.246.322 2.086.336.84.924 1.26t1.358.42"/>
    <rect width="112" height="36" x="140" y="463" fill="#fff" rx="18"/>
    <rect width="112" height="36" x="140" y="463" stroke="#ecf1f8" rx="18"/>
    <path fill="#4c4c4c" d="M179.824 486.5v-9.24l.602.658h-2.814V476.7h3.598v9.8zm7.534.112q-1.149 0-2.058-.588-.897-.588-1.428-1.708-.519-1.12-.518-2.716 0-1.596.518-2.716.531-1.12 1.428-1.708.909-.588 2.058-.588 1.134 0 2.044.588.909.588 1.428 1.708t.518 2.716q0 1.596-.518 2.716-.519 1.12-1.428 1.708a3.7 3.7 0 0 1-2.044.588m0-1.246q.77 0 1.344-.42.588-.42.91-1.26.336-.84.336-2.086t-.336-2.086q-.322-.84-.91-1.26a2.2 2.2 0 0 0-1.344-.42q-.77 0-1.358.42t-.924 1.26q-.322.84-.322 2.086t.322 2.086q.336.84.924 1.26.587.42 1.358.42m6.258-4.438a.94.94 0 0 1-.672-.266.95.95 0 0 1-.28-.7q0-.42.28-.686a.94.94 0 0 1 .672-.266.88.88 0 0 1 .644.266q.28.266.28.686t-.28.7a.88.88 0 0 1-.644.266m0 5.656a.94.94 0 0 1-.672-.266.95.95 0 0 1-.28-.7q0-.42.28-.686a.94.94 0 0 1 .672-.266.88.88 0 0 1 .644.266q.28.266.28.686t-.28.7a.88.88 0 0 1-.644.266m6.251.028a3.7 3.7 0 0 1-2.058-.588q-.895-.588-1.428-1.708-.518-1.12-.518-2.716t.518-2.716q.532-1.12 1.428-1.708a3.7 3.7 0 0 1 2.058-.588q1.134 0 2.044.588t1.428 1.708q.519 1.12.518 2.716 0 1.596-.518 2.716t-1.428 1.708a3.7 3.7 0 0 1-2.044.588m0-1.246q.771 0 1.344-.42.588-.42.91-1.26.336-.84.336-2.086t-.336-2.086q-.322-.84-.91-1.26-.573-.42-1.344-.42-.77 0-1.358.42t-.924 1.26q-.322.84-.322 2.086t.322 2.086q.336.84.924 1.26t1.358.42m9.338 1.246a3.7 3.7 0 0 1-2.058-.588q-.895-.588-1.428-1.708-.518-1.12-.518-2.716t.518-2.716q.532-1.12 1.428-1.708a3.7 3.7 0 0 1 2.058-.588q1.134 0 2.044.588t1.428 1.708.518 2.716-.518 2.716-1.428 1.708a3.7 3.7 0 0 1-2.044.588m0-1.246q.771 0 1.344-.42.588-.42.91-1.26.336-.84.336-2.086t-.336-2.086q-.322-.84-.91-1.26-.573-.42-1.344-.42-.77 0-1.358.42t-.924 1.26q-.322.84-.322 2.086t.322 2.086q.336.84.924 1.26t1.358.42"/>
    <rect width="112" height="36" x="264" y="463" fill="#fff" rx="18"/>
    <rect width="112" height="36" x="264" y="463" stroke="#ecf1f8" rx="18"/>
    <path fill="#4c4c4c" d="M305.824 486.5v-9.24l.602.658h-2.814V476.7h3.598v9.8zm5.182 0v-9.24l.602.658h-2.814V476.7h3.598v9.8zm4.453-5.572a.94.94 0 0 1-.672-.266.95.95 0 0 1-.28-.7q0-.42.28-.686a.94.94 0 0 1 .672-.266q.378 0 .644.266.28.266.28.686t-.28.7a.88.88 0 0 1-.644.266m0 5.656a.94.94 0 0 1-.672-.266.95.95 0 0 1-.28-.7q0-.42.28-.686a.94.94 0 0 1 .672-.266q.378 0 .644.266.28.266.28.686t-.28.7a.88.88 0 0 1-.644.266m6.252.028a3.7 3.7 0 0 1-2.058-.588q-.895-.588-1.428-1.708-.518-1.12-.518-2.716t.518-2.716q.533-1.12 1.428-1.708a3.7 3.7 0 0 1 2.058-.588q1.134 0 2.044.588t1.428 1.708.518 2.716-.518 2.716-1.428 1.708a3.7 3.7 0 0 1-2.044.588m0-1.246q.77 0 1.344-.42.588-.42.91-1.26.336-.84.336-2.086t-.336-2.086q-.322-.84-.91-1.26a2.2 2.2 0 0 0-1.344-.42q-.77 0-1.358.42t-.924 1.26q-.322.84-.322 2.086t.322 2.086q.336.84.924 1.26t1.358.42m9.338 1.246a3.7 3.7 0 0 1-2.058-.588q-.895-.588-1.428-1.708-.518-1.12-.518-2.716t.518-2.716q.533-1.12 1.428-1.708a3.7 3.7 0 0 1 2.058-.588q1.134 0 2.044.588t1.428 1.708.518 2.716-.518 2.716-1.428 1.708a3.7 3.7 0 0 1-2.044.588m0-1.246q.77 0 1.344-.42.588-.42.91-1.26.336-.84.336-2.086t-.336-2.086q-.322-.84-.91-1.26a2.2 2.2 0 0 0-1.344-.42q-.77 0-1.358.42t-.924 1.26q-.322.84-.322 2.086t.322 2.086q.336.84.924 1.26t1.358.42"/>
    <rect width="112" height="36" x="16" y="511" fill="#2d77e3" rx="18"/>
    <rect width="112" height="36" x="16" y="511" stroke="#ecf1f8" rx="18"/>
    <path fill="#fff" d="M56.324 534.5v-9.24l.602.658h-2.814V524.7h3.598v9.8zm3.376 0v-.952l3.99-3.85q.531-.504.784-.882a2.37 2.37 0 0 0 .448-1.358q0-.756-.532-1.19-.533-.434-1.554-.434-.784 0-1.414.266a2.76 2.76 0 0 0-1.092.798l-.952-.826q.56-.714 1.498-1.092a5.4 5.4 0 0 1 2.086-.392q1.022 0 1.778.336.756.322 1.162.938.42.616.42 1.456 0 .476-.126.938a3.4 3.4 0 0 1-.476.98q-.351.518-1.008 1.162l-3.556 3.43-.336-.546h5.922v1.218zm9.117-5.572a.94.94 0 0 1-.672-.266.95.95 0 0 1-.28-.7q0-.42.28-.686a.94.94 0 0 1 .672-.266q.377 0 .644.266.28.266.28.686a.95.95 0 0 1-.28.7.88.88 0 0 1-.644.266m0 5.656a.94.94 0 0 1-.672-.266.95.95 0 0 1-.28-.7q0-.42.28-.686a.94.94 0 0 1 .672-.266q.377 0 .644.266.28.266.28.686a.95.95 0 0 1-.28.7.88.88 0 0 1-.644.266m6.252.028a3.7 3.7 0 0 1-2.058-.588q-.897-.588-1.428-1.708-.519-1.12-.518-2.716 0-1.596.518-2.716.531-1.12 1.428-1.708a3.7 3.7 0 0 1 2.058-.588q1.134 0 2.044.588.909.588 1.428 1.708t.518 2.716-.518 2.716q-.519 1.12-1.428 1.708a3.7 3.7 0 0 1-2.044.588m0-1.246q.769 0 1.344-.42.588-.42.91-1.26.336-.84.336-2.086t-.336-2.086q-.322-.84-.91-1.26-.575-.42-1.344-.42t-1.358.42q-.588.42-.924 1.26-.322.84-.322 2.086t.322 2.086q.336.84.924 1.26.587.42 1.358.42m9.337 1.246a3.7 3.7 0 0 1-2.058-.588q-.896-.588-1.427-1.708-.519-1.12-.519-2.716t.519-2.716q.531-1.12 1.427-1.708a3.7 3.7 0 0 1 2.058-.588q1.135 0 2.044.588.91.588 1.428 1.708.519 1.12.519 2.716t-.519 2.716-1.427 1.708a3.7 3.7 0 0 1-2.044.588m0-1.246q.771 0 1.344-.42.588-.42.91-1.26.337-.84.337-2.086t-.337-2.086q-.32-.84-.91-1.26-.573-.42-1.344-.42-.77 0-1.358.42t-.924 1.26q-.322.84-.322 2.086t.322 2.086q.336.84.925 1.26.587.42 1.357.42"/>
    <rect width="112" height="36" x="140" y="511" fill="#fff" rx="18"/>
    <rect width="112" height="36" x="140" y="511" stroke="#ecf1f8" rx="18"/>
    <path fill="#4c4c4c" d="M180.324 534.5v-9.24l.602.658h-2.814V524.7h3.598v9.8zm6.526.112a6.4 6.4 0 0 1-2.016-.322q-.967-.322-1.582-.868l.644-1.106q.49.462 1.274.756a4.7 4.7 0 0 0 1.68.294q1.091 0 1.694-.462.616-.476.616-1.274 0-.77-.588-1.232-.574-.476-1.834-.476h-.784v-.98l2.912-3.584.196.56H183.7V524.7h6.468v.952l-2.898 3.57-.728-.434h.462q1.778 0 2.66.798.896.798.896 2.03 0 .827-.406 1.512t-1.232 1.092q-.813.392-2.072.392m5.939-5.684a.94.94 0 0 1-.672-.266.95.95 0 0 1-.28-.7q0-.42.28-.686a.94.94 0 0 1 .672-.266q.378 0 .644.266.28.266.28.686t-.28.7a.88.88 0 0 1-.644.266m0 5.656a.94.94 0 0 1-.672-.266.95.95 0 0 1-.28-.7q0-.42.28-.686a.94.94 0 0 1 .672-.266q.378 0 .644.266.28.266.28.686t-.28.7a.88.88 0 0 1-.644.266m6.252.028a3.7 3.7 0 0 1-2.058-.588q-.895-.588-1.428-1.708-.518-1.12-.518-2.716t.518-2.716q.532-1.12 1.428-1.708a3.7 3.7 0 0 1 2.058-.588q1.134 0 2.044.588t1.428 1.708.518 2.716-.518 2.716-1.428 1.708a3.7 3.7 0 0 1-2.044.588m0-1.246q.771 0 1.344-.42.588-.42.91-1.26.336-.84.336-2.086t-.336-2.086q-.322-.84-.91-1.26-.573-.42-1.344-.42-.77 0-1.358.42t-.924 1.26q-.322.84-.322 2.086t.322 2.086q.336.84.924 1.26t1.358.42m9.338 1.246a3.7 3.7 0 0 1-2.058-.588q-.896-.588-1.428-1.708-.518-1.12-.518-2.716t.518-2.716q.532-1.12 1.428-1.708a3.7 3.7 0 0 1 2.058-.588q1.134 0 2.044.588t1.428 1.708.518 2.716-.518 2.716q-.517 1.12-1.428 1.708a3.7 3.7 0 0 1-2.044.588m0-1.246q.77 0 1.344-.42.588-.42.91-1.26.336-.84.336-2.086t-.336-2.086q-.322-.84-.91-1.26a2.2 2.2 0 0 0-1.344-.42q-.77 0-1.358.42t-.924 1.26q-.322.84-.322 2.086t.322 2.086q.336.84.924 1.26t1.358.42"/>
    <rect width="112" height="36" x="264" y="511" fill="#fff" rx="18"/>
    <rect width="112" height="36" x="264" y="511" stroke="#ecf1f8" rx="18"/>
    <path fill="#4c4c4c" d="M303.824 534.5v-9.24l.602.658h-2.814V524.7h3.598v9.8zm3.39-2.408v-.98l5.012-6.412h1.512l-4.97 6.412-.714-.224h7.826v1.204zm5.446 2.408v-2.408l.042-1.204v-2.128h1.316v5.74zm5.079-5.572a.94.94 0 0 1-.672-.266.95.95 0 0 1-.28-.7q0-.42.28-.686a.94.94 0 0 1 .672-.266.88.88 0 0 1 .644.266q.28.266.28.686t-.28.7a.88.88 0 0 1-.644.266m0 5.656a.94.94 0 0 1-.672-.266.95.95 0 0 1-.28-.7q0-.42.28-.686a.94.94 0 0 1 .672-.266.88.88 0 0 1 .644.266q.28.266.28.686t-.28.7a.88.88 0 0 1-.644.266m6.251.028a3.7 3.7 0 0 1-2.058-.588q-.895-.588-1.428-1.708-.518-1.12-.518-2.716t.518-2.716q.533-1.12 1.428-1.708a3.7 3.7 0 0 1 2.058-.588q1.135 0 2.044.588.91.588 1.428 1.708t.518 2.716-.518 2.716-1.428 1.708a3.7 3.7 0 0 1-2.044.588m0-1.246q.771 0 1.344-.42.589-.42.91-1.26.336-.84.336-2.086t-.336-2.086q-.322-.84-.91-1.26-.573-.42-1.344-.42-.77 0-1.358.42t-.924 1.26q-.321.84-.322 2.086 0 1.246.322 2.086.336.84.924 1.26t1.358.42m9.338 1.246a3.7 3.7 0 0 1-2.058-.588q-.895-.588-1.428-1.708-.518-1.12-.518-2.716t.518-2.716q.533-1.12 1.428-1.708a3.7 3.7 0 0 1 2.058-.588q1.135 0 2.044.588.91.588 1.428 1.708.519 1.12.518 2.716 0 1.596-.518 2.716t-1.428 1.708a3.7 3.7 0 0 1-2.044.588m0-1.246q.771 0 1.344-.42.589-.42.91-1.26.336-.84.336-2.086t-.336-2.086q-.322-.84-.91-1.26-.573-.42-1.344-.42-.77 0-1.358.42t-.924 1.26q-.321.84-.322 2.086 0 1.246.322 2.086.336.84.924 1.26t1.358.42"/>
    <g filter="url(#b)">
      <rect width="361" height="48" x="16" y="579" fill="#2d77e3" rx="12"/>
      <g stroke="#fff" stroke-linecap="round" stroke-linejoin="round" stroke-width="1.333" clip-path="url(#c)">
        <path d="M117.334 602.333A5.401 5.401 0 0 0 107 601m-.333-2.667V601h2.667M106.667 603.667A5.401 5.401 0 0 0 117 605m.334 2.667V605h-2.667"/>
      </g>
      <path fill="#fff" d="M129.008 609v-10.928h4.272q1.312 0 2.192.336.896.336 1.328 1.12.448.784.448 2.128 0 1.184-.432 2a2.57 2.57 0 0 1-1.28 1.184l1.712 4.16h-2.32l-1.44-3.664h-2.272V609zm2.208-5.472h2.112q.608 0 .976-.224a1.34 1.34 0 0 0 .528-.656q.16-.432.16-.976 0-.895-.416-1.344-.415-.448-1.296-.448h-2.064zm10.693 5.648q-1.327 0-2.112-.448-.768-.448-1.104-1.36t-.336-2.288q0-1.488.416-2.432.432-.943 1.248-1.392.816-.464 2.016-.464 1.776 0 2.672.896.912.895.912 2.832l-.096 1.184h-5.024q.017.895.368 1.344.352.448 1.216.448.497 0 1.088-.016l1.168-.064q.593-.032 1.008-.064l.048 1.488q-.399.065-1.008.144-.607.08-1.264.128-.64.064-1.216.064m-1.408-4.832h2.992q0-1.088-.352-1.52-.336-.432-1.104-.432-.512 0-.848.192t-.512.624-.176 1.136m6.535 4.656v-8.032h2.128v.512q.256-.16.624-.304.369-.16.768-.272.417-.112.8-.112.833 0 1.376.224.56.208.88.688t.464 1.264q.144.768.144 1.872V609h-2.144v-4.048q0-.832-.096-1.328-.095-.512-.368-.736-.272-.224-.8-.224-.288 0-.608.064-.303.048-.592.144a3 3 0 0 0-.448.192V609zm12.3.176q-1.36 0-2.192-.448-.816-.448-1.184-1.376-.368-.944-.368-2.432 0-1.44.384-2.336.384-.912 1.216-1.344.832-.448 2.144-.448 1.328 0 2.144.448.832.432 1.216 1.344.4.896.4 2.336 0 1.488-.368 2.432-.368.928-1.2 1.376-.816.448-2.192.448m0-1.76q.672 0 1.008-.24.336-.256.448-.8.128-.56.128-1.456 0-.88-.144-1.392-.144-.528-.48-.752t-.96-.224q-.607 0-.96.224-.336.224-.48.752-.144.511-.144 1.392 0 .896.112 1.456.128.544.464.8.336.24 1.008.24m6.355 1.584-1.904-8.032h2.288l1.344 6.224h.464l1.376-6.224h2.16L169.515 609zm8.863.176q-1.248 0-1.888-.624-.624-.64-.624-1.92 0-.895.32-1.392.32-.512.944-.736.64-.24 1.552-.288l1.952-.176v-.48q0-.576-.288-.8-.288-.24-.848-.24-.448 0-1.04.032a41 41 0 0 0-2.128.176l-.064-1.504q.416-.096.992-.192.592-.112 1.232-.176t1.184-.064q1.024 0 1.712.256t1.04.848q.352.576.352 1.568v3.664a.48.48 0 0 0 .24.352q.209.112.48.16l-.048 1.472h-.512q-.24.016-.464 0-.224 0-.4-.032a1.9 1.9 0 0 1-.64-.192 2 2 0 0 1-.416-.304q-.256.112-.688.256a7 7 0 0 1-.944.24 5.3 5.3 0 0 1-1.008.096m.512-1.584q.304 0 .64-.064t.624-.144q.304-.096.48-.176v-1.84l-1.632.144q-.528.048-.768.32-.224.256-.224.736t.208.752q.223.272.672.272m5.767 1.408v-8.032h2.128v.944q.272-.208.672-.432.4-.24.864-.432.48-.208.912-.272v2.064a5 5 0 0 0-.88.224 9.5 9.5 0 0 0-1.568.64V609zm10.724.608-2.016-.528 4.64-11.488 2.016.528zm9.529-.608v-10.928h3.552l2.208 7.296 2.16-7.296h3.6V609h-2.208v-8.096h-.224l-2.288 7.808h-2.08l-2.288-7.808h-.224V609zm15.963.176q-1.04 0-1.616-.432-.56-.448-.8-1.344-.224-.895-.224-2.256v-4.176h2.128v4.08q0 .848.08 1.344.096.496.368.704.273.208.784.208.496 0 .928-.128t.688-.256v-5.952h2.128V609h-2.112v-.496a7 7 0 0 1-1.088.496q-.528.176-1.264.176m8.926 0q-.576 0-1.056-.144a2.3 2.3 0 0 1-.848-.416 2.7 2.7 0 0 1-.608-.784 4.4 4.4 0 0 1-.368-1.168 9 9 0 0 1-.128-1.632q0-1.376.336-2.32.351-.944 1.104-1.424.752-.496 2-.496.24 0 .56.032.32.016.624.064.303.032.496.064v-3.264h2.144V609h-2.112l-.016-.464a7 7 0 0 1-.592.288 5 5 0 0 1-.752.24 2.9 2.9 0 0 1-.784.112m.544-1.792q.288 0 .576-.064.303-.065.56-.144.272-.096.432-.176v-4.304a3 3 0 0 0-.384-.048 8 8 0 0 0-.496-.048 4 4 0 0 0-.464-.032q-.624 0-.976.288-.336.288-.48.848-.144.544-.144 1.328 0 .688.096 1.152.095.448.272.72.192.256.448.368.255.112.56.112m7.566 1.792q-1.248 0-1.888-.624-.624-.64-.624-1.92 0-.895.32-1.392.32-.512.944-.736.64-.24 1.552-.288l1.952-.176v-.48q0-.576-.288-.8-.287-.24-.848-.24-.447 0-1.04.032a41 41 0 0 0-2.128.176l-.064-1.504q.416-.096.992-.192a14 14 0 0 1 1.232-.176q.64-.064 1.184-.064 1.025 0 1.712.256a1.96 1.96 0 0 1 1.04.848q.352.576.352 1.568v3.664a.48.48 0 0 0 .24.352q.208.112.48.16l-.048 1.472h-.512q-.24.016-.464 0a2.3 2.3 0 0 1-.4-.032 1.9 1.9 0 0 1-.64-.192 2 2 0 0 1-.416-.304q-.256.112-.688.256a7 7 0 0 1-.944.24q-.495.096-1.008.096m.512-1.584q.304 0 .64-.064t.624-.144q.305-.096.48-.176v-1.84l-1.632.144q-.528.048-.768.32-.224.256-.224.736t.208.752q.225.272.672.272m5.767 1.408v-8.032h2.128v.944q.273-.208.672-.432.4-.24.864-.432.48-.208.912-.272v2.064q-.415.064-.88.224a9.6 9.6 0 0 0-1.568.64V609zm9.3 0v-10.928h4.112q1.36 0 2.256.384a2.6 2.6 0 0 1 1.344 1.2q.465.832.464 2.224 0 1.392-.464 2.272a2.8 2.8 0 0 1-1.344 1.28q-.895.4-2.256.4h-1.904V609zm2.208-4.976h1.84q1.008 0 1.44-.528.432-.544.432-1.6 0-1.088-.432-1.552t-1.44-.464h-1.84zm7.322 4.976v-11.312h2.128V609zm6.048.176q-1.248 0-1.888-.624-.624-.64-.624-1.92 0-.895.32-1.392.32-.512.944-.736.64-.24 1.552-.288l1.952-.176v-.48q0-.576-.288-.8-.288-.24-.848-.24-.449 0-1.04.032a41 41 0 0 0-2.128.176l-.064-1.504q.416-.096.992-.192.591-.112 1.232-.176a12 12 0 0 1 1.184-.064q1.023 0 1.712.256.687.256 1.04.848.351.576.352 1.568v3.664a.48.48 0 0 0 .24.352q.207.112.48.16l-.048 1.472h-.512q-.24.016-.464 0-.225 0-.4-.032a1.9 1.9 0 0 1-.64-.192 1.9 1.9 0 0 1-.416-.304q-.256.112-.688.256a7 7 0 0 1-.944.24 5.3 5.3 0 0 1-1.008.096m.512-1.584q.303 0 .64-.064.336-.064.624-.144.303-.096.48-.176v-1.84l-1.632.144q-.528.048-.768.32-.224.256-.224.736t.208.752q.224.272.672.272m5.767 1.408v-8.032h2.128v.512a3.7 3.7 0 0 1 .624-.304q.367-.16.768-.272.416-.112.8-.112.831 0 1.376.224.56.208.88.688t.464 1.264q.144.768.144 1.872V609h-2.144v-4.048q0-.832-.096-1.328-.096-.512-.368-.736t-.8-.224q-.288 0-.608.064-.304.048-.592.144a3 3 0 0 0-.448.192V609zm12.299.176q-1.36 0-2.192-.448-.815-.448-1.184-1.376-.368-.944-.368-2.432 0-1.44.384-2.336.384-.912 1.216-1.344.833-.448 2.144-.448 1.329 0 2.144.448.832.432 1.216 1.344.4.896.4 2.336 0 1.488-.368 2.432-.367.928-1.2 1.376-.815.448-2.192.448m0-1.76q.672 0 1.008-.24.337-.256.448-.8.128-.56.128-1.456 0-.88-.144-1.392-.144-.528-.48-.752t-.96-.224q-.608 0-.96.224-.336.224-.48.752-.144.511-.144 1.392 0 .896.112 1.456.129.544.464.8.336.24 1.008.24"/>
    </g>
  </g>
  <defs>
    <clipPath id="a">
      <rect width="393" height="851" fill="#fff" rx="16"/>
    </clipPath>
    <clipPath id="c">
      <path fill="#fff" d="M104 595h16v16h-16z"/>
    </clipPath>
    <filter id="b" width="401.8" height="88.8" x="-4.4" y="562.6" color-interpolation-filters="sRGB" filterUnits="userSpaceOnUse">
      <feFlood flood-opacity="0" result="BackgroundImageFix"/>
      <feColorMatrix in="SourceAlpha" result="hardAlpha" values="0 0 0 0 0 0 0 0 0 0 0 0 0 0 0 0 0 0 127 0"/>
      <feOffset dy="4"/>
      <feGaussianBlur stdDeviation="10.2"/>
      <feComposite in2="hardAlpha" operator="out"/>
      <feColorMatrix values="0 0 0 0 0.176471 0 0 0 0 0.466667 0 0 0 0 0.890196 0 0 0 0.16 0"/>
      <feBlend in2="BackgroundImageFix" result="effect1_dropShadow_43_1984"/>
      <feBlend in="SourceGraphic" in2="effect1_dropShadow_43_1984" result="shape"/>
    </filter>
  </defs>
</svg>
