<svg xmlns="http://www.w3.org/2000/svg" width="393" height="851" fill="none" viewBox="0 0 393 851">
  <g clip-path="url(#a)">
    <rect width="393" height="851" fill="#f7fafd" rx="16"/>
    <path fill="#1b1b1b" d="M60.496 22.945c2.406 0 4.5 1.711 4.5 5.774v.015c0 3.797-1.711 6.047-4.547 6.047-2.07 0-3.617-1.226-3.977-2.953l-.015-.086h1.984l.023.078c.297.79.993 1.305 1.985 1.305 1.789 0 2.547-1.75 2.633-3.906 0-.086.007-.172.007-.258h-.156c-.414.89-1.398 1.68-2.945 1.68-2.164 0-3.68-1.578-3.68-3.72v-.015c0-2.289 1.742-3.96 4.188-3.96m-.008 6.149c1.273 0 2.25-.922 2.25-2.196v-.015c0-1.29-.977-2.297-2.227-2.297a2.227 2.227 0 0 0-2.234 2.25v.016c0 1.304.93 2.242 2.21 2.242m7.734-1.899a1.22 1.22 0 0 1-1.242-1.234c0-.695.532-1.234 1.242-1.234.72 0 1.243.539 1.243 1.234 0 .687-.524 1.234-1.243 1.234m0 5.797c-.71 0-1.242-.539-1.242-1.234s.532-1.235 1.242-1.235c.72 0 1.243.54 1.243 1.235s-.524 1.234-1.243 1.234m8.696 1.508v-2.164h-5.516v-1.648c1.461-2.54 3.063-5.133 4.594-7.461h2.852v7.445h1.515v1.664h-1.515V34.5zm-3.64-3.781h3.671v-5.883h-.117a117 117 0 0 0-3.554 5.766zM84.715 34.5v-9.29h-.133l-2.804 1.985v-1.898l2.945-2.07h2.008V34.5z"/>
    <rect width="125" height="37" x="134" y="11" fill="#1b1b1b" rx="18.5"/>
    <rect width="80" height="37" x="134" y="11" fill="#1b1b1b" rx="18.5"/>
    <rect width="37" height="37" x="222" y="11" fill="#1b1b1b" rx="18.5"/>
    <path fill="#1b1b1b" d="M291.299 26a1 1 0 0 1 1-1h1a1 1 0 0 1 1 1v8a1 1 0 0 1-1 1h-1a1 1 0 0 1-1-1zM296.299 24a1 1 0 0 1 1-1h1a1 1 0 0 1 1 1v10a1 1 0 0 1-1 1h-1a1 1 0 0 1-1-1zM286.299 29.5a1 1 0 0 1 1-1h1a1 1 0 0 1 1 1V34a1 1 0 0 1-1 1h-1a1 1 0 0 1-1-1zM281.299 32a1 1 0 0 1 1-1h1a1 1 0 0 1 1 1v2a1 1 0 0 1-1 1h-1a1 1 0 0 1-1-1zM313.415 31.919a3.75 3.75 0 0 1 4.918 0 .36.36 0 0 1 .011.52l-2.223 2.29a.343.343 0 0 1-.494 0l-2.223-2.29a.36.36 0 0 1 .011-.52m-3.006-2.74a7.85 7.85 0 0 1 10.855 0 .37.37 0 0 1 .005.521l-1.285 1.325a.34.34 0 0 1-.483.007 5.4 5.4 0 0 0-3.666-1.442 5.4 5.4 0 0 0-3.664 1.442.34.34 0 0 1-.482-.007l-1.285-1.325a.37.37 0 0 1 .005-.521m-3.002-2.737a11.95 11.95 0 0 1 16.785 0 .368.368 0 0 1 .003.518l-1.286 1.326a.34.34 0 0 1-.483.004 9.51 9.51 0 0 0-6.627-2.702 9.52 9.52 0 0 0-6.627 2.702.337.337 0 0 1-.482-.004l-1.287-1.325a.373.373 0 0 1 .004-.519"/>
    <path stroke="#1b1b1b" d="M336.299 23.5h17a3.5 3.5 0 0 1 3.5 3.5v5a3.5 3.5 0 0 1-3.5 3.5h-17a3.5 3.5 0 0 1-3.5-3.5v-5a3.5 3.5 0 0 1 3.5-3.5Z" opacity=".35"/>
    <path fill="#1b1b1b" d="M358.299 28v4.22a2.29 2.29 0 0 0 0-4.22" opacity=".4"/>
    <path fill="#1b1b1b" d="M334.299 27a2 2 0 0 1 2-2h17a2 2 0 0 1 2 2v5a2 2 0 0 1-2 2h-17a2 2 0 0 1-2-2z"/>
    <rect width="360" height="248" x="16.5" y="118.5" fill="#fff" rx="19.5"/>
    <rect width="360" height="248" x="16.5" y="118.5" stroke="#ecf1f8" rx="19.5"/>
    <path fill="#1b1b1b" d="M146.26 238v-13.66h5.14q1.7 0 2.82.48a3.25 3.25 0 0 1 1.68 1.5q.58 1.04.58 2.78t-.58 2.84a3.5 3.5 0 0 1-1.68 1.6q-1.12.5-2.82.5h-2.38V238zm2.76-6.22h2.3q1.26 0 1.8-.66.54-.68.54-2 0-1.36-.54-1.94t-1.8-.58h-2.3zm9.152 6.22v-14.14h2.66V238zm7.56.22q-1.56 0-2.36-.78-.78-.8-.78-2.4 0-1.12.4-1.74.4-.64 1.18-.92.8-.3 1.94-.36l2.44-.22v-.6q0-.72-.36-1-.36-.3-1.06-.3-.56 0-1.3.04-.72.04-1.44.1-.7.06-1.22.12l-.08-1.88q.52-.12 1.24-.24a18 18 0 0 1 1.54-.22q.8-.08 1.48-.08 1.28 0 2.14.32t1.3 1.06q.44.72.44 1.96v4.58a.6.6 0 0 0 .3.44q.26.14.6.2l-.06 1.84h-.64q-.3.02-.58 0-.28 0-.5-.04a2.3 2.3 0 0 1-.8-.24 2.4 2.4 0 0 1-.52-.38q-.32.14-.86.32t-1.18.3q-.621.12-1.26.12m.64-1.98q.38 0 .8-.08t.78-.18q.38-.12.6-.22v-2.3l-2.04.18q-.66.06-.96.4-.28.32-.28.92t.26.94q.279.34.84.34m7.208 1.76v-10.04h2.66v.64q.321-.2.78-.38.46-.2.96-.34a3.9 3.9 0 0 1 1-.14q1.04 0 1.72.28.7.26 1.1.86t.58 1.58q.18.96.18 2.34v5.2h-2.68v-5.06q0-1.04-.12-1.66-.12-.64-.46-.92t-1-.28q-.36 0-.76.08-.38.06-.74.18a4 4 0 0 0-.56.24V238zm15.375.22q-1.7 0-2.74-.56-1.02-.56-1.48-1.72-.46-1.18-.46-3.04 0-1.8.48-2.92.48-1.14 1.52-1.68 1.04-.56 2.68-.56 1.66 0 2.68.56 1.04.54 1.52 1.68.5 1.12.5 2.92 0 1.86-.46 3.04-.46 1.16-1.5 1.72-1.02.56-2.74.56m0-2.2q.84 0 1.26-.3.42-.32.56-1 .16-.7.16-1.82 0-1.1-.18-1.74-.18-.66-.6-.94t-1.2-.28q-.76 0-1.2.28-.42.28-.6.94-.18.64-.18 1.74 0 1.12.14 1.82.16.68.58 1 .42.3 1.26.3M198.97 238l3.48-13.66h4.82l3.46 13.66h-2.76l-.76-2.76h-4.78l-.72 2.76zm3.9-4.98h3.94l-1.54-6.44h-.84zm9.207 4.98v-10.04h2.66v.64q.32-.2.78-.38.459-.2.96-.34.52-.14 1-.14 1.04 0 1.72.28.7.26 1.1.86t.58 1.58q.18.96.18 2.34v5.2h-2.68v-5.06q0-1.04-.12-1.66-.12-.64-.46-.92t-1-.28a4 4 0 0 0-.76.08q-.38.06-.74.18-.34.12-.56.24V238zm14.254.22q-1.3 0-2.02-.54-.7-.56-1-1.68-.28-1.12-.28-2.82v-5.22h2.66v5.1q0 1.06.1 1.68.12.62.46.88t.98.26q.62 0 1.16-.16t.86-.32v-7.44h2.66V238h-2.64v-.62a9 9 0 0 1-1.36.62q-.66.22-1.58.22m10.397 0q-1.56 0-2.36-.78-.78-.8-.78-2.4 0-1.12.4-1.74.4-.64 1.18-.92.8-.3 1.94-.36l2.44-.22v-.6q0-.72-.36-1-.36-.3-1.06-.3-.56 0-1.3.04-.72.04-1.44.1-.7.06-1.22.12l-.08-1.88q.52-.12 1.24-.24a18 18 0 0 1 1.54-.22q.8-.08 1.48-.08 1.28 0 2.14.32t1.3 1.06q.44.72.44 1.96v4.58a.6.6 0 0 0 .3.44q.26.14.6.2l-.06 1.84h-.64q-.3.02-.58 0-.28 0-.5-.04a2.3 2.3 0 0 1-.8-.24 2.4 2.4 0 0 1-.52-.38q-.32.14-.86.32t-1.18.3q-.621.12-1.26.12m.64-1.98q.38 0 .8-.08t.78-.18q.38-.12.6-.22v-2.3l-2.04.18q-.66.06-.96.4-.28.32-.28.92t.26.94q.279.34.84.34m7.289 1.76v-14.14h2.66V238z"/>
    <rect width="85" height="18" x="154" y="250" fill="#66cf95" rx="9"/>
    <path fill="#fff" d="m180.488 263.5 3.804-8.4h1.188l3.816 8.4h-1.26l-3.396-7.728h.48l-3.396 7.728zm1.62-2.1.324-.96h4.728l.348.96zm10.398 2.172q-.96 0-1.488-.516t-.528-1.476v-5.832h1.152v5.784q0 .516.252.792.264.276.744.276.54 0 .9-.3l.36.828a1.7 1.7 0 0 1-.636.336q-.36.108-.756.108m-3.096-5.484v-.948h4.056v.948zm5.881 5.412v-6.36h1.152v6.36zm.576-7.584a.8.8 0 0 1-.564-.216.72.72 0 0 1-.216-.528q0-.324.216-.54a.8.8 0 0 1 .564-.216q.336 0 .552.216a.66.66 0 0 1 .228.516q0 .324-.216.552a.76.76 0 0 1-.564.216m4.444 7.584-2.784-6.36h1.2l2.472 5.76h-.576l2.52-5.76h1.128l-2.784 6.36zm7.583.072q-.96 0-1.704-.42a3.1 3.1 0 0 1-1.176-1.152 3.3 3.3 0 0 1-.432-1.68q0-.948.432-1.68t1.176-1.14q.744-.42 1.704-.42.948 0 1.692.42.756.408 1.176 1.14.432.72.432 1.68 0 .948-.432 1.68-.42.732-1.176 1.152-.744.42-1.692.42m0-1.008a2.15 2.15 0 0 0 1.092-.276q.492-.276.768-.78a2.5 2.5 0 0 0 .276-1.188q0-.684-.276-1.176a1.95 1.95 0 0 0-.768-.78 2.15 2.15 0 0 0-1.092-.276 2.15 2.15 0 0 0-1.092.276q-.48.276-.768.78-.288.492-.288 1.176 0 .672.288 1.188.288.504.768.78t1.092.276"/>
    <circle cx="197" cy="172" r="30" fill="#dbeafe"/>
    <g clip-path="url(#b)">
      <path fill="#2d77e3" d="M197.015 157.016a4.8 4.8 0 0 1 3.17 1.196l.231.217 1.047 1.047c.287.286.662.466 1.065.512l.202.012h1.5a4.8 4.8 0 0 1 4.793 4.527l.007.273v1.5c0 .405.138.799.387 1.114l.135.15 1.046 1.047a4.804 4.804 0 0 1 .22 6.573l-.217.231-1.047 1.047a1.8 1.8 0 0 0-.512 1.065l-.012.203v1.5a4.8 4.8 0 0 1-4.527 4.792l-.273.008h-1.5c-.404 0-.797.136-1.114.387l-.15.135-1.047 1.045a4.8 4.8 0 0 1-6.573.221l-.231-.218-1.047-1.047a1.8 1.8 0 0 0-1.065-.511l-.203-.012h-1.5a4.8 4.8 0 0 1-4.792-4.527l-.008-.273v-1.5a1.8 1.8 0 0 0-.387-1.115l-.135-.15-1.045-1.047a4.796 4.796 0 0 1-.221-6.573l.218-.231 1.047-1.047a1.8 1.8 0 0 0 .511-1.065l.012-.202v-1.5l.008-.273a4.8 4.8 0 0 1 1.398-3.121 4.8 4.8 0 0 1 3.121-1.399l.273-.007h1.5c.405 0 .797-.136 1.115-.387l.15-.135 1.047-1.046a4.8 4.8 0 0 1 3.403-1.416m5.546 10.923a1.503 1.503 0 0 0-2.121 0l-4.94 4.938-1.939-1.938-.141-.124a1.503 1.503 0 0 0-2.043.195 1.495 1.495 0 0 0 .063 2.05l3 3 .141.125a1.5 1.5 0 0 0 1.98-.125l6-6 .124-.141a1.496 1.496 0 0 0-.124-1.98"/>
    </g>
    <path stroke="#ecf1f8" d="M36 291.5h321"/>
    <path fill="#4c4c4c" d="M37.368 320v-8.4h3.144q1.596 0 2.508.768.924.756.924 2.112 0 .888-.42 1.536-.408.636-1.176.984-.768.336-1.836.336H37.86l.396-.408V320zm5.736 0-2.16-3.048h.96L44.076 320zm-4.848-3-.396-.42h2.628q1.26 0 1.908-.552.66-.552.66-1.548 0-1.008-.66-1.56-.648-.552-1.908-.552H37.86l.396-.42zm7.784 3v-8.4h5.76v.768h-4.872v6.864h5.052V320zm.792-3.888v-.756h4.44v.756zM54.067 320v-8.4h.732l5.796 7.296h-.384V311.6h.876v8.4h-.732l-5.784-7.296h.384V320zm13.434.072q-.948 0-1.764-.312a4.4 4.4 0 0 1-1.404-.9 4.4 4.4 0 0 1-.924-1.356 4.4 4.4 0 0 1-.324-1.704q0-.924.324-1.692.336-.78.924-1.356.6-.588 1.404-.9a4.7 4.7 0 0 1 1.764-.324q.948 0 1.752.324.804.312 1.392.888.6.576.924 1.356.336.78.336 1.704t-.336 1.704q-.324.78-.924 1.356a4.2 4.2 0 0 1-1.392.9 4.8 4.8 0 0 1-1.752.312m0-.792q.756 0 1.392-.252a3.3 3.3 0 0 0 1.116-.732q.48-.48.744-1.104.264-.636.264-1.392t-.264-1.38a3.3 3.3 0 0 0-.744-1.104 3.1 3.1 0 0 0-1.116-.732 3.6 3.6 0 0 0-1.392-.264q-.756 0-1.404.264a3.2 3.2 0 0 0-1.128.732q-.468.468-.744 1.104a3.5 3.5 0 0 0-.264 1.38q0 .744.264 1.38.276.636.744 1.116.48.468 1.128.732.648.252 1.404.252m8.536.72-3.72-8.4h.96l3.48 7.908h-.528l3.504-7.908h.9l-3.72 8.4zm4.214 0 3.84-8.4h.876l3.84 8.4h-.936l-3.528-7.884h.36L81.175 320zm1.512-2.244.264-.72h4.884l.264.72zm11.964 2.316a4.8 4.8 0 0 1-1.752-.312q-.804-.324-1.392-.9a4.2 4.2 0 0 1-.924-1.356 4.4 4.4 0 0 1-.324-1.704q0-.924.324-1.704.336-.78.924-1.356.6-.576 1.404-.888a4.6 4.6 0 0 1 1.752-.324q.912 0 1.716.312.804.3 1.356.912l-.564.564a3.06 3.06 0 0 0-1.14-.756 3.7 3.7 0 0 0-1.344-.24q-.756 0-1.404.264a3.2 3.2 0 0 0-1.128.732q-.48.468-.756 1.104a3.5 3.5 0 0 0-.264 1.38q0 .756.264 1.392.276.624.756 1.104.48.468 1.128.732.648.252 1.404.252.72 0 1.344-.24t1.14-.768l.564.564q-.552.612-1.356.924a4.7 4.7 0 0 1-1.728.312m-.336 2.568q-.3 0-.552-.072a2 2 0 0 1-.456-.204l.204-.456q.18.108.372.168.204.06.42.06.36 0 .552-.156a.48.48 0 0 0 .192-.408.49.49 0 0 0-.192-.396q-.18-.156-.552-.156h-.276l.288-1.092h.516l-.18.696q.492.036.756.3a.94.94 0 0 1 .264.672q0 .48-.384.756-.372.288-.972.288m3.64-2.64 3.841-8.4h.876l3.84 8.4h-.936l-3.528-7.884h.36L97.956 320zm1.513-2.244.264-.72h4.884l.264.72zm3.672-6.876q-.312 0-.552-.132a3 3 0 0 1-.42-.288 3 3 0 0 0-.372-.3.73.73 0 0 0-.42-.132.53.53 0 0 0-.444.228 1.14 1.14 0 0 0-.18.576h-.552q.012-.588.312-.984a.97.97 0 0 1 .828-.408q.312 0 .54.132.24.132.432.3.192.156.372.288a.73.73 0 0 0 .42.132.53.53 0 0 0 .444-.228q.168-.24.18-.552h.54q-.012.588-.312.984-.288.384-.816.384m8.316 9.192q-.948 0-1.764-.312a4.4 4.4 0 0 1-1.404-.9 4.4 4.4 0 0 1-.924-1.356 4.4 4.4 0 0 1-.324-1.704q0-.924.324-1.692.336-.78.924-1.356.6-.588 1.404-.9a4.7 4.7 0 0 1 1.764-.324q.948 0 1.752.324.804.312 1.392.888.6.576.924 1.356.336.78.336 1.704t-.336 1.704q-.324.78-.924 1.356a4.2 4.2 0 0 1-1.392.9 4.8 4.8 0 0 1-1.752.312m0-.792q.756 0 1.392-.252a3.3 3.3 0 0 0 1.116-.732q.48-.48.744-1.104.264-.636.264-1.392t-.264-1.38a3.3 3.3 0 0 0-.744-1.104 3.1 3.1 0 0 0-1.116-.732 3.6 3.6 0 0 0-1.392-.264q-.756 0-1.404.264a3.2 3.2 0 0 0-1.128.732q-.468.468-.744 1.104a3.5 3.5 0 0 0-.264 1.38q0 .744.264 1.38.276.636.744 1.116.48.468 1.128.732.648.252 1.404.252"/>
    <path fill="#1b1b1b" d="M36.882 339v-9.562h3.808q.952 0 1.638.238t1.064.77q.392.518.392 1.4 0 .602-.126 1.022a1.8 1.8 0 0 1-.364.7 2.6 2.6 0 0 1-.63.518q.42.154.728.42.322.252.49.686.168.42.168 1.12 0 .77-.238 1.288a2 2 0 0 1-.686.826 2.9 2.9 0 0 1-1.022.448 6 6 0 0 1-1.288.126zm1.932-1.428h1.862q.49 0 .812-.112a.93.93 0 0 0 .504-.434q.182-.308.182-.854 0-.42-.14-.686a.93.93 0 0 0-.364-.392 1.5 1.5 0 0 0-.504-.196 2.6 2.6 0 0 0-.532-.056h-1.82zm0-4.102h1.806q.476 0 .77-.14a.96.96 0 0 0 .434-.448q.14-.308.14-.77 0-.658-.35-.952-.336-.294-1.064-.294h-1.736zm9.37 5.684q-1.161 0-1.848-.392-.672-.392-.966-1.19t-.294-2.002q0-1.302.364-2.128.378-.827 1.092-1.218.714-.406 1.764-.406 1.555 0 2.338.784.798.784.798 2.478l-.084 1.036h-4.396q.015.785.322 1.176.309.392 1.064.392.435 0 .952-.014l1.022-.056q.519-.028.882-.056l.042 1.302q-.35.055-.882.126-.531.07-1.106.112-.56.056-1.064.056m-1.232-4.228h2.618q0-.952-.308-1.33-.294-.378-.966-.378-.448 0-.742.168t-.448.546-.154.994M52.67 339v-7.028h1.862v.448q.21-.14.532-.266.323-.14.672-.238.364-.098.7-.098.645 0 1.05.182.406.168.672.504.252-.154.63-.308.379-.154.826-.266.449-.112.868-.112.771 0 1.26.21.505.197.784.63.28.42.392 1.092.112.659.112 1.596V339h-1.862v-3.486q0-.727-.084-1.176-.07-.462-.308-.672-.224-.21-.686-.21-.252 0-.532.056a2.8 2.8 0 0 0-.882.28q.07.294.098.756.042.462.042.966V339h-1.862v-3.458q0-.742-.084-1.204-.07-.462-.308-.672-.237-.21-.686-.21-.251 0-.518.056-.252.042-.476.126-.21.084-.35.154V339zm11.798-2.926v-1.596h4.228v1.596zM71.604 339l-2.282-9.562h2.03l1.638 7.7h.574l1.61-7.7h2.03L74.964 339zm6.564 0v-7.028h1.862V339zm0-8.148v-1.596h1.876v1.596zM81.586 339v-7.028h1.862v.448q.225-.14.546-.266.323-.14.672-.238.364-.098.7-.098.729 0 1.204.196.49.182.77.602t.406 1.106q.126.672.126 1.638V339h-1.876v-3.542q0-.728-.084-1.162-.084-.448-.322-.644-.237-.196-.7-.196-.252 0-.532.056-.266.042-.518.126a3 3 0 0 0-.392.168V339zm10.105.154q-.504 0-.924-.126a2.05 2.05 0 0 1-.742-.364 2.4 2.4 0 0 1-.532-.686 3.9 3.9 0 0 1-.322-1.022 8 8 0 0 1-.112-1.428q0-1.204.294-2.03.308-.826.966-1.246.657-.434 1.75-.434.21 0 .49.028.279.014.546.056.266.028.434.056v-2.856h1.876V339h-1.848l-.014-.406a5 5 0 0 1-.518.252 4.5 4.5 0 0 1-.658.21 2.6 2.6 0 0 1-.686.098m.476-1.568q.252 0 .504-.056.265-.055.49-.126.237-.084.378-.154v-3.766a2 2 0 0 0-.336-.042 6 6 0 0 0-.434-.042 3 3 0 0 0-.406-.028q-.546 0-.854.252-.294.252-.42.742a4.6 4.6 0 0 0-.126 1.162q0 .601.084 1.008.084.392.238.63a1 1 0 0 0 .392.322q.223.098.49.098m7.81 1.568q-1.19 0-1.917-.392-.714-.392-1.036-1.204-.322-.826-.322-2.128 0-1.26.336-2.044a2.27 2.27 0 0 1 1.064-1.176q.727-.392 1.876-.392 1.161 0 1.876.392.728.378 1.064 1.176.35.784.35 2.044 0 1.302-.322 2.128-.322.812-1.05 1.204-.715.392-1.918.392m0-1.54q.59 0 .883-.21.293-.224.392-.7.111-.49.112-1.274 0-.77-.126-1.218-.126-.462-.42-.658t-.84-.196q-.532 0-.84.196-.294.196-.42.658-.126.448-.126 1.218 0 .784.098 1.274.112.476.406.7.294.21.882.21m5.754 3.136a9 9 0 0 1-.49-1.092 16 16 0 0 1-.476-1.428 18 18 0 0 1-.35-1.666 12.6 12.6 0 0 1-.126-1.778q0-.896.126-1.806.14-.91.35-1.75.225-.84.476-1.54.253-.714.49-1.19h1.736q-.195.546-.42 1.302a28 28 0 0 0-.7 3.332 13 13 0 0 0-.112 1.652q0 .77.112 1.61a24 24 0 0 0 .7 3.15q.225.7.42 1.204zm2.255-1.75 2.436-9.562h3.374l2.422 9.562h-1.932l-.532-1.932h-3.346l-.504 1.932zm2.73-3.486h2.758l-1.078-4.508h-.588zm7.761 5.208h-1.736q.196-.532.406-1.246.223-.714.406-1.54.181-.826.294-1.68.126-.854.126-1.624t-.126-1.624a21 21 0 0 0-.294-1.694 20 20 0 0 0-.406-1.568 18 18 0 0 0-.406-1.274h1.736q.238.462.49 1.148t.462 1.512q.224.811.35 1.722a11.5 11.5 0 0 1 0 3.57 14 14 0 0 1-.35 1.694q-.21.812-.462 1.484a10 10 0 0 1-.49 1.12"/>
    <path fill="#4c4c4c" d="M264.684 318.072q-.936 0-1.8-.3-.852-.312-1.32-.792l.348-.684q.444.432 1.188.732a4.4 4.4 0 0 0 1.584.288q.792 0 1.284-.192.504-.204.732-.54.24-.336.24-.744 0-.492-.288-.792a1.84 1.84 0 0 0-.732-.468 7.5 7.5 0 0 0-1.008-.312 56 56 0 0 1-1.104-.276 5 5 0 0 1-1.02-.408 2.2 2.2 0 0 1-.744-.66q-.276-.42-.276-1.092 0-.624.324-1.14.336-.528 1.02-.84.684-.324 1.752-.324.708 0 1.404.204.696.192 1.2.54l-.3.708a4 4 0 0 0-1.152-.528 4.3 4.3 0 0 0-1.164-.168q-.756 0-1.248.204t-.732.552q-.228.336-.228.768 0 .492.276.792.288.3.744.468.468.168 1.02.3t1.092.288q.552.156 1.008.408.468.24.744.648.288.408.288 1.068 0 .612-.336 1.14-.336.516-1.032.84-.684.312-1.764.312m8.835-.072v-1.392l-.036-.228v-2.328q0-.804-.456-1.236-.444-.432-1.332-.432a3.3 3.3 0 0 0-1.164.204q-.552.204-.936.54l-.384-.636q.48-.408 1.152-.624.672-.228 1.416-.228 1.224 0 1.884.612.672.6.672 1.836V318zm-2.172.06q-.708 0-1.236-.228a1.9 1.9 0 0 1-.792-.648q-.276-.42-.276-.96 0-.492.228-.888.24-.408.768-.648.54-.252 1.44-.252h2.172v.636h-2.148q-.912 0-1.272.324a1.05 1.05 0 0 0-.348.804q0 .54.42.864t1.176.324q.72 0 1.236-.324.528-.336.768-.96l.192.588q-.24.624-.84.996-.588.372-1.488.372m7.906 0q-.804 0-1.404-.3t-.936-.9q-.324-.6-.324-1.5v-3.66h.852v3.564q0 1.008.492 1.524.504.504 1.404.504.66 0 1.14-.264.492-.276.744-.792.264-.516.264-1.236v-3.3h.852v6.3h-.816v-1.728l.132.312q-.3.696-.936 1.092-.624.384-1.464.384m-.564-7.344 1.644-1.488h1.14l-1.944 1.488zm8.53 7.344q-.9 0-1.62-.408a2.96 2.96 0 0 1-1.116-1.128q-.408-.732-.408-1.68 0-.96.408-1.68t1.116-1.116a3.2 3.2 0 0 1 1.62-.408q.828 0 1.476.372.66.372 1.044 1.092.396.708.396 1.74 0 1.02-.384 1.74t-1.044 1.104q-.648.372-1.488.372m.06-.756q.672 0 1.2-.3.54-.312.84-.864.312-.564.312-1.296 0-.744-.312-1.296-.3-.552-.84-.852a2.3 2.3 0 0 0-1.2-.312q-.66 0-1.188.312-.528.3-.84.852t-.312 1.296q0 .732.312 1.296.312.552.84.864.528.3 1.188.3m2.376.696v-1.896l.084-1.272-.12-1.272v-4.464h.852V318zm5.865.06q-.984 0-1.728-.408a3.06 3.06 0 0 1-1.164-1.14q-.42-.732-.42-1.668t.396-1.656a3 3 0 0 1 1.104-1.128q.708-.42 1.584-.42.888 0 1.572.408a2.8 2.8 0 0 1 1.092 1.128q.396.72.396 1.668 0 .06-.012.132v.132h-5.484v-.636h5.028l-.336.252q0-.684-.3-1.212a2.1 2.1 0 0 0-.792-.84q-.504-.3-1.164-.3-.648 0-1.164.3t-.804.84-.288 1.236v.132q0 .72.312 1.272.324.54.888.852.576.3 1.308.3.576 0 1.068-.204.504-.204.864-.624l.48.552q-.42.504-1.056.768a3.5 3.5 0 0 1-1.38.264m7.707-.06v-6.3h.816v1.704l-.132-.3q.288-.684.924-1.068.648-.396 1.524-.396.924 0 1.572.468.648.456.84 1.38l-.336-.132q.276-.768.972-1.236.708-.48 1.692-.48.768 0 1.332.3.576.288.888.888.324.6.324 1.512V318h-.852v-3.576q0-.996-.48-1.5-.468-.516-1.332-.516-.648 0-1.128.276a1.8 1.8 0 0 0-.732.78q-.252.504-.252 1.224V318h-.852v-3.576q0-.996-.48-1.5-.48-.516-1.344-.516a2.2 2.2 0 0 0-1.116.276 1.8 1.8 0 0 0-.744.78q-.252.504-.252 1.224V318zm15.403.06q-.984 0-1.728-.408a3.06 3.06 0 0 1-1.164-1.14q-.42-.732-.42-1.668t.396-1.656a3 3 0 0 1 1.104-1.128q.708-.42 1.584-.42.888 0 1.572.408a2.8 2.8 0 0 1 1.092 1.128q.396.72.396 1.668 0 .06-.012.132v.132h-5.484v-.636h5.028l-.336.252q0-.684-.3-1.212a2.1 2.1 0 0 0-.792-.84q-.504-.3-1.164-.3-.648 0-1.164.3t-.804.84-.288 1.236v.132q0 .72.312 1.272.324.54.888.852.576.3 1.308.3.576 0 1.068-.204.504-.204.864-.624l.48.552q-.42.504-1.056.768a3.5 3.5 0 0 1-1.38.264m4.566-.06v-6.3h.816v1.728l-.132-.324q.3-.684.96-1.068.66-.396 1.572-.396.768 0 1.344.3.588.288.912.888.336.6.336 1.512V318h-.852v-3.576q0-.996-.504-1.5-.492-.516-1.392-.516-.672 0-1.176.276a1.85 1.85 0 0 0-.768.78q-.264.504-.264 1.224V318zm10.101.06q-.888 0-1.368-.48t-.48-1.356v-5.916h.852v5.868q0 .552.276.852.288.3.816.3.564 0 .936-.324l.3.612a1.6 1.6 0 0 1-.612.336 2.4 2.4 0 0 1-.72.108m-2.976-5.652v-.708h3.9v.708zm9.573 5.592v-1.392l-.036-.228v-2.328q0-.804-.456-1.236-.444-.432-1.332-.432a3.3 3.3 0 0 0-1.164.204q-.552.204-.936.54l-.384-.636q.48-.408 1.152-.624.672-.228 1.416-.228 1.224 0 1.884.612.672.6.672 1.836V318zm-2.172.06q-.708 0-1.236-.228a1.9 1.9 0 0 1-.792-.648q-.276-.42-.276-.96 0-.492.228-.888.24-.408.768-.648.54-.252 1.44-.252h2.172v.636h-2.148q-.912 0-1.272.324a1.05 1.05 0 0 0-.348.804q0 .54.42.864t1.176.324q.72 0 1.236-.324.528-.336.768-.96l.192.588q-.24.624-.84.996-.588.372-1.488.372m5.302-.06v-8.904h.852V318z"/>
    <path fill="#2d77e3" d="M262.008 340v-10.928h4.272q1.312 0 2.192.336.896.336 1.328 1.12.448.784.448 2.128 0 1.184-.432 2a2.57 2.57 0 0 1-1.28 1.184l1.712 4.16h-2.32l-1.44-3.664h-2.272V340zm2.208-5.472h2.112q.608 0 .976-.224a1.34 1.34 0 0 0 .528-.656q.16-.432.16-.976 0-.895-.416-1.344-.415-.448-1.296-.448h-2.064zm10.147 7.456.208-3.216.88.096-.192 3.12zm1.872-12.208-.896-.128.208-2.432h.88zm-.832 10.4q-.576 0-1.28-.08a26 26 0 0 1-1.36-.16 21 21 0 0 1-1.104-.192l.128-1.68q.48.064 1.104.128.64.064 1.264.112.64.048 1.088.048.576 0 .944-.144.384-.16.56-.464.176-.32.176-.816 0-.4-.176-.624-.159-.24-.576-.384a8 8 0 0 0-1.136-.288q-1.248-.24-2.016-.576-.752-.336-1.104-.944-.336-.624-.336-1.664 0-1.2.448-1.888a2.4 2.4 0 0 1 1.264-.992q.833-.288 1.968-.288.513 0 1.168.064a26 26 0 0 1 2.4.288l-.112 1.712-1.072-.112a23 23 0 0 0-1.2-.096q-.591-.048-1.008-.048-.576 0-.96.128a1.14 1.14 0 0 0-.56.384 1.1 1.1 0 0 0-.176.64q0 .464.176.72.192.24.624.4.432.144 1.2.304.912.208 1.552.448.64.224 1.04.544t.576.832q.192.512.192 1.296 0 1.232-.448 1.984a2.5 2.5 0 0 1-1.264 1.072q-.816.336-1.984.336m8.775-.176v-1.728l2.416-2.48q.689-.704 1.184-1.232.497-.544.752-1.024.273-.48.272-1.024 0-.8-.448-1.072-.447-.288-1.44-.288-.4 0-.88.048t-.928.112q-.432.064-.752.128l-.112-1.696q.353-.096.864-.208.528-.113 1.136-.192a8 8 0 0 1 1.216-.096q1.728 0 2.64.736.912.72.912 2.24 0 .832-.24 1.472a4 4 0 0 1-.72 1.232q-.48.576-1.28 1.264l-2.112 2.016h4.496V340zm11.947.176q-.48 0-1.072-.064a39 39 0 0 1-1.136-.144 45 45 0 0 1-.944-.176l.176-1.664q.336.048.832.112.511.048 1.056.08.544.032 1.024.032 1.136 0 1.664-.656.545-.656.576-1.984a9 9 0 0 1-.736.24 7 7 0 0 1-.768.176 4 4 0 0 1-.672.064q-1.728 0-2.624-.816-.88-.816-.88-2.56 0-1.152.464-1.936a3 3 0 0 1 1.328-1.2q.864-.416 2.016-.416 1.392 0 2.272.656.896.64 1.312 1.856t.416 2.928q0 1.584-.32 2.64-.304 1.056-.864 1.68a3.16 3.16 0 0 1-1.36.896 5.6 5.6 0 0 1-1.76.256m.224-5.76q.336 0 .704-.064.368-.08.704-.176.336-.113.56-.192a6.5 6.5 0 0 0-.192-1.536q-.176-.656-.592-1.024-.4-.368-1.104-.368-.833 0-1.296.48-.448.48-.448 1.28 0 .832.416 1.216.432.384 1.248.384m5.083 7.424.576-4.096h2.336l-1.152 4.096zm7.568-1.664q-.48 0-1.072-.064a39 39 0 0 1-1.136-.144 45 45 0 0 1-.944-.176l.176-1.664q.336.048.832.112.511.048 1.056.08.544.032 1.024.032 1.136 0 1.664-.656.545-.656.576-1.984a9 9 0 0 1-.736.24 7 7 0 0 1-.768.176 4 4 0 0 1-.672.064q-1.728 0-2.624-.816-.88-.816-.88-2.56 0-1.152.464-1.936a3 3 0 0 1 1.328-1.2q.864-.416 2.016-.416 1.392 0 2.272.656.896.64 1.312 1.856t.416 2.928q0 1.584-.32 2.64-.304 1.056-.864 1.68a3.16 3.16 0 0 1-1.36.896 5.6 5.6 0 0 1-1.76.256m.224-5.76q.336 0 .704-.064.368-.08.704-.176.336-.113.56-.192a6.5 6.5 0 0 0-.192-1.536q-.176-.656-.592-1.024-.4-.368-1.104-.368-.833 0-1.296.48-.448.48-.448 1.28 0 .832.416 1.216.432.384 1.248.384m9.115 5.76q-1.024 0-1.776-.272a2.9 2.9 0 0 1-1.248-.912q-.48-.64-.736-1.664-.24-1.024-.24-2.512 0-1.536.24-2.608.255-1.072.752-1.712a2.8 2.8 0 0 1 1.232-.944q.752-.288 1.76-.288 1.04 0 1.792.288t1.232.944q.495.64.72 1.712.24 1.056.24 2.608 0 1.968-.432 3.152-.417 1.168-1.296 1.696-.88.512-2.24.512m0-1.856q.447 0 .768-.144a1.3 1.3 0 0 0 .56-.544q.224-.384.32-1.072.112-.688.112-1.744 0-1.12-.112-1.84-.097-.72-.304-1.12-.208-.415-.544-.576a1.7 1.7 0 0 0-.8-.176q-.464 0-.8.176-.336.16-.56.56-.209.4-.32 1.136-.112.72-.112 1.856 0 1.056.112 1.744.127.688.352 1.072.223.368.544.528.336.144.784.144"/>
    <path fill="#1b1b1b" d="m322.431 341.4 4.62-13.188h.91l-4.62 13.188zm5.469-1.4v-7.35h.952v1.988l-.154-.35a2.6 2.6 0 0 1 1.078-1.246q.755-.462 1.778-.462 1.077 0 1.834.546.755.532.98 1.61l-.392-.154a2.87 2.87 0 0 1 1.134-1.442q.825-.56 1.974-.56.895 0 1.554.35.672.336 1.036 1.036.378.7.378 1.764V340h-.994v-4.172q0-1.162-.56-1.75-.546-.602-1.554-.602-.756 0-1.316.322a2.12 2.12 0 0 0-.854.91q-.294.588-.294 1.428V340h-.994v-4.172q0-1.162-.56-1.75-.56-.602-1.568-.602-.743 0-1.302.322a2.1 2.1 0 0 0-.868.91q-.294.588-.294 1.428V340zm17.969.07q-1.148 0-2.016-.476a3.6 3.6 0 0 1-1.358-1.33q-.49-.854-.49-1.946t.462-1.932q.477-.84 1.288-1.316a3.55 3.55 0 0 1 1.848-.49q1.036 0 1.834.476.813.462 1.274 1.316.462.84.462 1.946a1 1 0 0 1-.014.154v.154h-6.398v-.742h5.866l-.392.294q0-.798-.35-1.414a2.46 2.46 0 0 0-.924-.98q-.587-.35-1.358-.35-.756 0-1.358.35t-.938.98-.336 1.442v.154q0 .84.364 1.484.378.63 1.036.994.672.35 1.526.35.672 0 1.246-.238a2.6 2.6 0 0 0 1.008-.728l.56.644a3.13 3.13 0 0 1-1.232.896 4.1 4.1 0 0 1-1.61.308m7.302 0a5.8 5.8 0 0 1-1.722-.252q-.812-.266-1.274-.658l.448-.784q.447.336 1.148.588a4.5 4.5 0 0 0 1.47.238q1.05 0 1.512-.322.462-.336.462-.882 0-.406-.266-.63a1.53 1.53 0 0 0-.672-.35 7 7 0 0 0-.938-.21 20 20 0 0 1-1.036-.196 4 4 0 0 1-.924-.322 1.94 1.94 0 0 1-.686-.602q-.252-.378-.252-1.008 0-.602.336-1.078.335-.476.98-.742.657-.28 1.596-.28.714 0 1.428.196.714.182 1.176.49l-.434.798a3.2 3.2 0 0 0-1.05-.476 4.2 4.2 0 0 0-1.12-.154q-.995 0-1.47.35-.462.336-.462.868 0 .42.252.658.266.238.686.378.434.126.938.21.518.084 1.022.21.518.112.938.322.434.196.686.574.266.365.266.966 0 .644-.364 1.12-.35.462-1.036.728-.672.252-1.638.252"/>
    <path stroke="#1b1b1b" stroke-linecap="round" stroke-linejoin="round" stroke-width="1.5" d="M21 83h13M21 83l5-5M21 83l5 5"/>
    <path fill="#1b1b1b" d="M53.008 89V78.072h3.552l2.208 7.296 2.16-7.296h3.6V89H62.32v-8.096h-.224l-2.288 7.808h-2.08l-2.288-7.808h-.224V89zm13.403 0v-8.032h2.128V89zm0-9.312v-1.824h2.144v1.824zM70.317 89v-8.032h2.129v.512q.255-.16.624-.304.367-.16.768-.272.416-.112.8-.112.832 0 1.375.224.56.208.88.688t.465 1.264q.144.768.143 1.872V89h-2.144v-4.048q0-.832-.096-1.328-.095-.512-.367-.736-.273-.225-.8-.224a3 3 0 0 0-.608.064q-.304.048-.593.144a3 3 0 0 0-.448.192V89zm8.844 0V77.688h2.128v3.568q.273-.096.64-.192.385-.113.784-.192a4 4 0 0 1 .752-.08q.849 0 1.392.224.56.208.88.688.32.465.448 1.232.144.767.144 1.856V89h-2.144v-4.048q0-.832-.096-1.328-.096-.512-.368-.736-.255-.225-.8-.224-.288 0-.592.048a5.3 5.3 0 0 0-1.04.272V89zm10.94.176q-1.248 0-1.888-.624-.624-.64-.624-1.92 0-.896.32-1.392.32-.512.944-.736.64-.24 1.552-.288l1.952-.176v-.48q0-.576-.288-.8-.288-.24-.848-.24-.448 0-1.04.032-.576.032-1.152.08-.56.048-.976.096l-.064-1.504q.416-.096.992-.192.592-.112 1.232-.176t1.184-.064q1.024 0 1.712.256.688.255 1.04.848.352.576.352 1.568v3.664a.48.48 0 0 0 .24.352q.209.112.48.16l-.048 1.472h-.512q-.24.015-.464 0-.225 0-.4-.032a1.9 1.9 0 0 1-.64-.192 2 2 0 0 1-.416-.304q-.256.112-.688.256a7 7 0 0 1-.944.24q-.496.096-1.008.096m.512-1.584q.304 0 .64-.064t.624-.144q.305-.096.48-.176v-1.84l-1.632.144q-.528.048-.768.32-.225.255-.224.736 0 .48.208.752.224.272.672.272M99.176 89l2.784-10.928h3.856L108.584 89h-2.208l-.608-2.208h-3.824L101.368 89zm3.12-3.984h3.152l-1.232-5.152h-.672zm10.261 4.16q-.528 0-1.136-.064a15.599 15.599 0 0 1-2-.288l.064-1.584q.417.048.928.112.529.064 1.024.112.513.032.832.032.48 0 .784-.08.321-.08.48-.256.16-.192.16-.544 0-.272-.144-.416-.128-.144-.512-.24a8.5 8.5 0 0 0-1.088-.224q-.895-.128-1.488-.368-.576-.24-.848-.704-.272-.48-.272-1.296 0-.992.432-1.552a2.26 2.26 0 0 1 1.152-.784q.72-.24 1.568-.24.561 0 1.152.064.592.048 1.12.128t.88.16l-.064 1.616q-.4-.064-.928-.112a18 18 0 0 0-1.92-.128q-.368 0-.656.08a.9.9 0 0 0-.448.224q-.144.16-.144.48 0 .225.128.368.129.144.48.256.369.096 1.056.192.993.144 1.584.4.593.255.848.736.272.48.272 1.296 0 .96-.384 1.536t-1.12.832q-.736.255-1.792.256m7.594 0q-.528 0-1.136-.064a15.434 15.434 0 0 1-2-.288l.064-1.584q.416.048.928.112.528.064 1.024.112.512.032.832.032.48 0 .784-.08.32-.08.48-.256.16-.192.16-.544 0-.272-.144-.416-.128-.144-.512-.24a8.5 8.5 0 0 0-1.088-.224q-.895-.128-1.488-.368-.576-.24-.848-.704-.272-.48-.272-1.296 0-.992.432-1.552a2.26 2.26 0 0 1 1.152-.784q.72-.24 1.568-.24.56 0 1.152.064.592.048 1.12.128t.88.16l-.064 1.616q-.4-.064-.928-.112a18 18 0 0 0-1.92-.128q-.368 0-.656.08a.9.9 0 0 0-.448.224q-.144.16-.144.48 0 .225.128.368.127.144.48.256.367.096 1.056.192.991.144 1.584.4.592.255.848.736.272.48.272 1.296 0 .96-.384 1.536t-1.12.832q-.736.255-1.792.256m4.698-.176v-8.032h2.128V89zm0-9.312v-1.824h2.144v1.824zM128.755 89v-8.032h2.128v.512q.256-.16.624-.304.368-.16.768-.272.416-.112.8-.112.832 0 1.376.224.56.208.88.688t.464 1.264q.144.768.144 1.872V89h-2.144v-4.048q0-.832-.096-1.328-.096-.512-.368-.736-.272-.225-.8-.224-.288 0-.608.064-.304.048-.592.144a3 3 0 0 0-.448.192V89zm10.94.176q-1.248 0-1.888-.624-.624-.64-.624-1.92 0-.896.32-1.392.32-.512.944-.736.64-.24 1.552-.288l1.952-.176v-.48q0-.576-.288-.8-.288-.24-.848-.24-.449 0-1.04.032-.576.032-1.152.08-.56.048-.976.096l-.064-1.504q.416-.096.992-.192.591-.112 1.232-.176.64-.064 1.184-.064 1.023 0 1.712.256.687.255 1.04.848.351.576.352 1.568v3.664q.031.225.24.352.207.112.48.16l-.048 1.472h-.512q-.24.015-.464 0-.225 0-.4-.032a1.9 1.9 0 0 1-.64-.192 1.9 1.9 0 0 1-.416-.304 9 9 0 0 1-.688.256 7 7 0 0 1-.944.24 5.3 5.3 0 0 1-1.008.096m.512-1.584q.303 0 .64-.064.336-.064.624-.144.303-.096.48-.176v-1.84l-1.632.144q-.528.048-.768.32-.224.255-.224.736 0 .48.208.752.224.272.672.272m8.489 1.6q-.88 0-1.424-.256-.544-.255-.784-.88-.224-.64-.224-1.776v-3.536h-.944v-1.776h.944V78.84h2.128v2.128h2.048v1.776h-2.048v2.976q0 .624.048.976.064.352.256.496t.592.144q.113 0 .336-.016l.448-.032q.224-.015.368-.032l.064 1.712q-.24.048-.592.096a14 14 0 0 1-.672.08 4 4 0 0 1-.544.048m5.494-.016q-1.04 0-1.616-.432-.56-.449-.8-1.344-.224-.896-.224-2.256v-4.176h2.128v4.08q0 .847.08 1.344.096.495.368.704t.784.208q.496 0 .928-.128.432-.127.688-.256v-5.952h2.128V89h-2.112v-.496a7 7 0 0 1-1.088.496q-.528.176-1.264.176m6.221-.176v-8.032h2.128v.944q.273-.209.672-.432.4-.24.864-.432.48-.209.912-.272v2.064q-.415.064-.88.224a9.6 9.6 0 0 0-1.568.64V89zm7.784.176q-1.248 0-1.888-.624-.624-.64-.624-1.92 0-.896.32-1.392.32-.512.944-.736.64-.24 1.552-.288l1.952-.176v-.48q0-.576-.288-.8-.288-.24-.848-.24-.449 0-1.04.032-.576.032-1.152.08-.56.048-.976.096l-.064-1.504q.416-.096.992-.192.591-.112 1.232-.176.64-.064 1.184-.064 1.023 0 1.712.256.687.255 1.04.848.351.576.352 1.568v3.664q.031.225.24.352.207.112.48.16l-.048 1.472h-.512q-.24.015-.464 0-.225 0-.4-.032a1.9 1.9 0 0 1-.64-.192 1.9 1.9 0 0 1-.416-.304 9 9 0 0 1-.688.256 7 7 0 0 1-.944.24 5.3 5.3 0 0 1-1.008.096m.512-1.584q.303 0 .64-.064.336-.064.624-.144.303-.096.48-.176v-1.84l-1.632.144q-.528.048-.768.32-.224.255-.224.736 0 .48.208.752.224.272.672.272"/>
    <g filter="url(#c)">
      <rect width="361" height="48" x="16" y="387" fill="#2d77e3" rx="12"/>
      <g stroke="#fff" stroke-linecap="round" stroke-linejoin="round" stroke-width="1.333" clip-path="url(#d)">
        <path d="M117.333 410.333A5.398 5.398 0 0 0 107 409m-.333-2.667V409h2.666M106.667 411.667A5.4 5.4 0 0 0 117 413m.333 2.667V413h-2.666"/>
      </g>
      <path fill="#fff" d="M129.008 417v-10.928h4.272q1.312 0 2.192.336.896.336 1.328 1.12.448.784.448 2.128 0 1.184-.432 2a2.57 2.57 0 0 1-1.28 1.184l1.712 4.16h-2.32l-1.44-3.664h-2.272V417zm2.208-5.472h2.112q.608 0 .976-.224a1.34 1.34 0 0 0 .528-.656q.16-.432.16-.976 0-.895-.416-1.344-.415-.448-1.296-.448h-2.064zm10.693 5.648q-1.327 0-2.112-.448-.768-.448-1.104-1.36t-.336-2.288q0-1.488.416-2.432.432-.944 1.248-1.392.816-.464 2.016-.464 1.776 0 2.672.896.912.895.912 2.832l-.096 1.184h-5.024q.017.896.368 1.344.352.448 1.216.448.497 0 1.088-.016l1.168-.064q.593-.032 1.008-.064l.048 1.488q-.399.065-1.008.144-.607.08-1.264.128-.64.064-1.216.064m-1.408-4.832h2.992q0-1.088-.352-1.52-.336-.432-1.104-.432-.512 0-.848.192t-.512.624-.176 1.136m6.535 4.656v-8.032h2.128v.512q.256-.16.624-.304.369-.16.768-.272.417-.112.8-.112.833 0 1.376.224.56.208.88.688t.464 1.264q.144.768.144 1.872V417h-2.144v-4.048q0-.832-.096-1.328-.095-.512-.368-.736-.272-.224-.8-.224-.288 0-.608.064-.303.048-.592.144a3 3 0 0 0-.448.192V417zm12.3.176q-1.36 0-2.192-.448-.816-.448-1.184-1.376-.368-.944-.368-2.432 0-1.44.384-2.336.384-.912 1.216-1.344.832-.448 2.144-.448 1.328 0 2.144.448.832.432 1.216 1.344.4.896.4 2.336 0 1.488-.368 2.432-.368.928-1.2 1.376-.816.448-2.192.448m0-1.76q.672 0 1.008-.24.336-.256.448-.8.128-.56.128-1.456 0-.88-.144-1.392-.144-.528-.48-.752t-.96-.224q-.607 0-.96.224-.336.224-.48.752-.144.511-.144 1.392 0 .896.112 1.456.128.544.464.8.336.24 1.008.24m6.355 1.584-1.904-8.032h2.288l1.344 6.224h.464l1.376-6.224h2.16L169.515 417zm8.863.176q-1.248 0-1.888-.624-.624-.64-.624-1.92 0-.895.32-1.392.32-.512.944-.736.64-.24 1.552-.288l1.952-.176v-.48q0-.576-.288-.8-.288-.24-.848-.24-.448 0-1.04.032a41 41 0 0 0-2.128.176l-.064-1.504q.416-.096.992-.192.592-.112 1.232-.176t1.184-.064q1.024 0 1.712.256t1.04.848q.352.576.352 1.568v3.664a.48.48 0 0 0 .24.352q.209.112.48.16l-.048 1.472h-.512q-.24.017-.464 0-.224 0-.4-.032a1.9 1.9 0 0 1-.64-.192 2 2 0 0 1-.416-.304q-.256.112-.688.256a7 7 0 0 1-.944.24 5.3 5.3 0 0 1-1.008.096m.512-1.584q.304 0 .64-.064.336-.065.624-.144.304-.096.48-.176v-1.84l-1.632.144q-.528.048-.768.32-.224.256-.224.736t.208.752q.223.272.672.272m5.767 1.408v-8.032h2.128v.944q.272-.209.672-.432.4-.24.864-.432.48-.208.912-.272v2.064a5 5 0 0 0-.88.224 9.5 9.5 0 0 0-1.568.64V417zm10.724.608-2.016-.528 4.64-11.488 2.016.528zm9.529-.608v-10.928h3.552l2.208 7.296 2.16-7.296h3.6V417h-2.208v-8.096h-.224l-2.288 7.808h-2.08l-2.288-7.808h-.224V417zm15.963.176q-1.04 0-1.616-.432-.56-.449-.8-1.344-.224-.895-.224-2.256v-4.176h2.128v4.08q0 .847.08 1.344.096.496.368.704.273.208.784.208.496 0 .928-.128t.688-.256v-5.952h2.128V417h-2.112v-.496a7 7 0 0 1-1.088.496q-.528.176-1.264.176m8.926 0q-.576 0-1.056-.144a2.3 2.3 0 0 1-.848-.416 2.7 2.7 0 0 1-.608-.784 4.4 4.4 0 0 1-.368-1.168 9 9 0 0 1-.128-1.632q0-1.376.336-2.32.351-.944 1.104-1.424.752-.496 2-.496.24 0 .56.032.32.016.624.064.303.032.496.064v-3.264h2.144V417h-2.112l-.016-.464a7 7 0 0 1-.592.288 5 5 0 0 1-.752.24 2.9 2.9 0 0 1-.784.112m.544-1.792q.288 0 .576-.064.303-.065.56-.144.272-.096.432-.176v-4.304a3 3 0 0 0-.384-.048 8 8 0 0 0-.496-.048 4 4 0 0 0-.464-.032q-.624 0-.976.288-.336.288-.48.848-.144.544-.144 1.328 0 .689.096 1.152.095.449.272.72.192.256.448.368.255.112.56.112m7.566 1.792q-1.248 0-1.888-.624-.624-.64-.624-1.92 0-.895.32-1.392.32-.512.944-.736.64-.24 1.552-.288l1.952-.176v-.48q0-.576-.288-.8-.287-.24-.848-.24-.447 0-1.04.032a41 41 0 0 0-2.128.176l-.064-1.504q.416-.096.992-.192a14 14 0 0 1 1.232-.176q.64-.064 1.184-.064 1.025 0 1.712.256a1.96 1.96 0 0 1 1.04.848q.352.576.352 1.568v3.664a.48.48 0 0 0 .24.352q.208.112.48.16l-.048 1.472h-.512q-.24.017-.464 0a2.3 2.3 0 0 1-.4-.032 1.9 1.9 0 0 1-.64-.192 2 2 0 0 1-.416-.304q-.256.112-.688.256a7 7 0 0 1-.944.24q-.495.096-1.008.096m.512-1.584q.304 0 .64-.064.336-.065.624-.144.305-.096.48-.176v-1.84l-1.632.144q-.528.048-.768.32-.224.256-.224.736t.208.752q.225.272.672.272m5.767 1.408v-8.032h2.128v.944q.273-.209.672-.432.4-.24.864-.432.48-.208.912-.272v2.064q-.415.064-.88.224a9.6 9.6 0 0 0-1.568.64V417zm9.3 0v-10.928h4.112q1.36 0 2.256.384a2.6 2.6 0 0 1 1.344 1.2q.465.832.464 2.224 0 1.392-.464 2.272a2.8 2.8 0 0 1-1.344 1.28q-.895.4-2.256.4h-1.904V417zm2.208-4.976h1.84q1.008 0 1.44-.528.432-.544.432-1.6 0-1.088-.432-1.552t-1.44-.464h-1.84zm7.322 4.976v-11.312h2.128V417zm6.048.176q-1.248 0-1.888-.624-.624-.64-.624-1.92 0-.895.32-1.392.32-.512.944-.736.64-.24 1.552-.288l1.952-.176v-.48q0-.576-.288-.8-.288-.24-.848-.24-.449 0-1.04.032a41 41 0 0 0-2.128.176l-.064-1.504q.416-.096.992-.192.591-.112 1.232-.176a12 12 0 0 1 1.184-.064q1.023 0 1.712.256.687.256 1.04.848.351.576.352 1.568v3.664a.48.48 0 0 0 .24.352q.207.112.48.16l-.048 1.472h-.512q-.24.017-.464 0-.225 0-.4-.032a1.9 1.9 0 0 1-.64-.192 1.9 1.9 0 0 1-.416-.304q-.256.112-.688.256a7 7 0 0 1-.944.24 5.3 5.3 0 0 1-1.008.096m.512-1.584q.303 0 .64-.064.336-.065.624-.144.303-.096.48-.176v-1.84l-1.632.144q-.528.048-.768.32-.224.256-.224.736t.208.752q.224.272.672.272m5.767 1.408v-8.032h2.128v.512a3.7 3.7 0 0 1 .624-.304q.367-.16.768-.272.416-.112.8-.112.831 0 1.376.224.56.208.88.688t.464 1.264q.144.768.144 1.872V417h-2.144v-4.048q0-.832-.096-1.328-.096-.512-.368-.736t-.8-.224q-.288 0-.608.064-.304.048-.592.144a3 3 0 0 0-.448.192V417zm12.299.176q-1.36 0-2.192-.448-.815-.448-1.184-1.376-.368-.944-.368-2.432 0-1.44.384-2.336.384-.912 1.216-1.344.833-.448 2.144-.448 1.329 0 2.144.448.832.432 1.216 1.344.4.896.4 2.336 0 1.488-.368 2.432-.367.928-1.2 1.376-.815.448-2.192.448m0-1.76q.672 0 1.008-.24.337-.256.448-.8.128-.56.128-1.456 0-.88-.144-1.392-.144-.528-.48-.752t-.96-.224q-.608 0-.96.224-.336.224-.48.752-.144.511-.144 1.392 0 .896.112 1.456.129.544.464.8.336.24 1.008.24"/>
    </g>
    <path fill="#4c4c4c" d="M20.48 477.154q-1.176 0-2.002-.308a2.35 2.35 0 0 1-1.232-1.022q-.42-.728-.42-1.932v-6.454h1.932v6.524q0 .826.434 1.19.448.364 1.288.364.882 0 1.33-.364t.448-1.19v-6.524h1.932v6.426q0 1.204-.434 1.932-.42.728-1.246 1.05-.812.308-2.03.308m-.644-10.682-1.106-.49 2.114-1.582 1.498.602zM25.822 477v-9.898h1.862V477zm5.922.168q-.77 0-1.246-.224-.477-.224-.686-.77-.196-.56-.196-1.554v-3.094h-.826v-1.554h.826v-1.862h1.862v1.862h1.792v1.554h-1.792v2.604q0 .546.042.854.056.308.224.434.167.126.518.126.097 0 .294-.014l.392-.028q.196-.014.322-.028l.056 1.498a13.08 13.08 0 0 1-1.106.154 3 3 0 0 1-.476.042M34.31 477v-7.028h1.862V477zm0-8.148v-1.596h1.876v1.596zM37.729 477v-7.028h1.862v.448q.21-.14.532-.266.323-.14.672-.238.364-.098.7-.098.645 0 1.05.182.406.168.672.504.252-.154.63-.308t.826-.266.868-.112q.77 0 1.26.21.504.196.784.63.28.42.392 1.092.112.659.112 1.596V477h-1.862v-3.486q0-.727-.084-1.176-.07-.462-.308-.672-.224-.21-.686-.21-.252 0-.532.056a2.8 2.8 0 0 0-.882.28q.07.294.098.756.042.462.042.966V477h-1.862v-3.458q0-.742-.084-1.204-.07-.462-.308-.672t-.686-.21q-.252 0-.518.056-.252.042-.476.126-.21.084-.35.154V477zm14.864.154q-1.19 0-1.918-.392-.715-.392-1.036-1.204-.322-.826-.322-2.128 0-1.26.336-2.044a2.27 2.27 0 0 1 1.064-1.176q.727-.392 1.876-.392 1.162 0 1.876.392.728.378 1.064 1.176.35.784.35 2.044 0 1.302-.322 2.128-.323.812-1.05 1.204-.715.392-1.918.392m0-1.54q.588 0 .882-.21.293-.224.392-.7.112-.49.112-1.274 0-.77-.126-1.218-.126-.462-.42-.658t-.84-.196q-.532 0-.84.196-.294.196-.42.658-.126.448-.126 1.218 0 .784.098 1.274.112.476.406.7.294.21.882.21m7.098 1.54q-.462 0-.994-.056a14 14 0 0 1-1.75-.252l.056-1.386q.363.042.812.098.462.056.896.098.447.028.728.028.42 0 .686-.07.279-.07.42-.224.14-.168.14-.476 0-.238-.126-.364-.112-.126-.448-.21a7 7 0 0 0-.952-.196q-.785-.112-1.302-.322-.505-.21-.742-.616-.238-.42-.238-1.134 0-.868.378-1.358a1.98 1.98 0 0 1 1.008-.686q.63-.21 1.372-.21.489 0 1.008.056a14 14 0 0 1 1.75.252l-.056 1.414q-.35-.056-.812-.098a16 16 0 0 0-1.68-.112q-.322 0-.574.07a.8.8 0 0 0-.392.196q-.126.14-.126.42 0 .196.112.322.111.126.42.224.321.084.924.168.867.126 1.386.35.517.224.742.644.237.42.238 1.134 0 .84-.336 1.344-.335.504-.98.728t-1.568.224m7.271-.154v-9.562h3.598q1.19 0 1.974.336.785.322 1.176 1.05.405.728.406 1.946 0 1.218-.406 1.988a2.45 2.45 0 0 1-1.176 1.12q-.784.35-1.974.35h-1.666V477zm1.932-4.354h1.61q.882 0 1.26-.462.378-.476.378-1.4 0-.952-.378-1.358t-1.26-.406h-1.61zm8.048 4.508q-1.092 0-1.652-.546-.546-.56-.546-1.68 0-.784.28-1.218.28-.448.826-.644.56-.21 1.358-.252l1.708-.154v-.42q0-.504-.252-.7-.252-.21-.742-.21-.392 0-.91.028-.504.028-1.008.07-.49.042-.854.084l-.056-1.316q.364-.084.868-.168a13 13 0 0 1 1.078-.154q.56-.056 1.036-.056.896 0 1.498.224t.91.742q.308.504.308 1.372v3.206a.42.42 0 0 0 .21.308q.181.098.42.14l-.042 1.288h-.448q-.21.014-.406 0-.195 0-.35-.028a1.6 1.6 0 0 1-.56-.168 1.7 1.7 0 0 1-.364-.266q-.225.098-.602.224a6 6 0 0 1-.826.21 4.6 4.6 0 0 1-.882.084m.448-1.386q.266 0 .56-.056a7 7 0 0 0 .546-.126q.265-.084.42-.154v-1.61l-1.428.126q-.462.042-.672.28-.195.224-.196.644 0 .42.182.658.196.238.588.238m8.072 4.438q-1.12 0-1.876-.168-.742-.168-1.12-.616-.378-.433-.378-1.26 0-.364.098-.658a1.8 1.8 0 0 1 .336-.532q.237-.252.588-.518a1 1 0 0 1-.322-.406 1.6 1.6 0 0 1-.112-.602q0-.113.098-.294.097-.196.238-.406t.266-.378a1.9 1.9 0 0 1-.532-.364 2 2 0 0 1-.42-.672q-.154-.42-.154-1.078 0-.895.336-1.428.35-.532 1.008-.77.657-.238 1.596-.238.364 0 .784.056t.672.112l2.282-.042v1.26l-1.064-.014q.125.168.224.434.111.252.112.63 0 .966-.336 1.498-.323.532-.98.742-.658.196-1.666.196a5 5 0 0 1-.308-.014 9 9 0 0 0-.322-.042 4 4 0 0 0-.112.322 1 1 0 0 0-.056.238q0 .154.056.238a.5.5 0 0 0 .238.14q.182.042.518.056.35.014.924.014.994 0 1.582.182.602.182.854.644t.252 1.302q0 1.246-.882 1.834-.868.602-2.422.602m-.098-1.386q.868 0 1.246-.21.392-.196.392-.658 0-.364-.14-.532-.126-.168-.434-.224a7 7 0 0 0-.84-.042 5 5 0 0 1-.336-.014q-.196 0-.406-.014a5 5 0 0 1-.364-.014 3 3 0 0 0-.224-.014 2.5 2.5 0 0 0-.322.266 1 1 0 0 0-.168.252 1.2 1.2 0 0 0-.042.336q0 .322.154.504.153.196.504.28.363.084.98.084m-.238-5.446q.643 0 .91-.252.28-.266.28-.868t-.28-.868q-.267-.266-.91-.266-.617 0-.896.266-.266.266-.266.868t.266.868q.28.252.896.252m6.54 3.78q-1.091 0-1.651-.546-.547-.56-.546-1.68 0-.784.28-1.218.28-.448.826-.644.559-.21 1.358-.252l1.707-.154v-.42q0-.504-.252-.7-.252-.21-.742-.21-.39 0-.91.028-.504.028-1.008.07-.489.042-.853.084l-.056-1.316q.363-.084.867-.168a13 13 0 0 1 1.078-.154q.561-.056 1.037-.056.895 0 1.498.224.6.224.91.742.307.504.307 1.372v3.206a.42.42 0 0 0 .21.308q.183.098.42.14l-.041 1.288h-.449q-.21.014-.406 0-.195 0-.35-.028a1.6 1.6 0 0 1-.56-.168 1.7 1.7 0 0 1-.364-.266q-.224.098-.602.224a6 6 0 0 1-.825.21 4.6 4.6 0 0 1-.883.084m.449-1.386q.266 0 .56-.056a7 7 0 0 0 .546-.126q.265-.084.42-.154v-1.61l-1.428.126q-.462.042-.672.28-.197.224-.197.644t.183.658q.195.238.588.238M97.16 477v-7.028h1.862v.448q.21-.14.532-.266.321-.14.672-.238a2.7 2.7 0 0 1 .7-.098q.644 0 1.05.182.405.168.672.504.252-.154.63-.308t.826-.266q.447-.112.868-.112.77 0 1.26.21.504.196.784.63.28.42.392 1.092.111.659.112 1.596V477h-1.862v-3.486q0-.727-.084-1.176-.07-.462-.308-.672-.225-.21-.686-.21-.253 0-.532.056a2.8 2.8 0 0 0-.882.28q.07.294.098.756.042.462.042.966V477h-1.862v-3.458q0-.742-.084-1.204-.07-.462-.308-.672-.239-.21-.686-.21-.252 0-.518.056-.252.042-.476.126-.21.084-.35.154V477zm14.681.154q-1.161 0-1.848-.392-.672-.392-.966-1.19t-.294-2.002q0-1.302.364-2.128.378-.827 1.092-1.218.714-.406 1.764-.406 1.555 0 2.338.784.798.784.798 2.478l-.084 1.036h-4.396q.015.785.322 1.176.308.392 1.064.392.435 0 .952-.014l1.022-.056q.519-.028.882-.056l.042 1.302q-.35.055-.882.126-.531.07-1.106.112-.56.056-1.064.056m-1.232-4.228h2.618q0-.952-.308-1.33-.294-.378-.966-.378-.448 0-.742.168t-.448.546-.154.994m5.719 4.074v-7.028h1.862v.448q.224-.14.546-.266.321-.14.672-.238a2.7 2.7 0 0 1 .7-.098q.727 0 1.204.196.49.182.77.602t.406 1.106q.126.672.126 1.638V477h-1.876v-3.542q0-.728-.084-1.162-.084-.448-.322-.644t-.7-.196q-.252 0-.532.056a3 3 0 0 0-.518.126q-.239.084-.392.168V477zm10.175.168q-.77 0-1.246-.224-.477-.224-.686-.77-.196-.56-.196-1.554v-3.094h-.826v-1.554h.826v-1.862h1.862v1.862h1.792v1.554h-1.792v2.604q0 .546.042.854.056.308.224.434t.518.126q.098 0 .294-.014l.392-.028a9 9 0 0 0 .322-.028l.056 1.498a13.08 13.08 0 0 1-1.106.154 3 3 0 0 1-.476.042m5.591-.014q-1.19 0-1.918-.392-.715-.392-1.036-1.204-.322-.826-.322-2.128 0-1.26.336-2.044.335-.798 1.064-1.176.727-.392 1.876-.392 1.161 0 1.876.392.728.378 1.064 1.176.35.784.35 2.044 0 1.302-.322 2.128-.322.812-1.05 1.204-.715.392-1.918.392m0-1.54q.588 0 .882-.21.293-.224.392-.7.112-.49.112-1.274 0-.77-.126-1.218-.126-.462-.42-.658t-.84-.196q-.532 0-.84.196-.294.196-.42.658-.126.448-.126 1.218 0 .784.098 1.274.112.476.406.7.294.21.882.21m7.098 1.54q-.462 0-.994-.056a14 14 0 0 1-1.75-.252l.056-1.386q.363.042.812.098.462.056.896.098.447.028.728.028.42 0 .686-.07a.83.83 0 0 0 .42-.224q.14-.168.14-.476 0-.238-.126-.364-.112-.126-.448-.21a7.4 7.4 0 0 0-.952-.196q-.784-.112-1.302-.322-.505-.21-.742-.616-.238-.42-.238-1.134 0-.868.378-1.358a1.98 1.98 0 0 1 1.008-.686q.63-.21 1.372-.21.489 0 1.008.056a14 14 0 0 1 1.75.252l-.056 1.414q-.35-.056-.812-.098a16 16 0 0 0-1.68-.112q-.322 0-.574.07a.8.8 0 0 0-.392.196q-.126.14-.126.42 0 .196.112.322.111.126.42.224.321.084.924.168.867.126 1.386.35.517.224.742.644.238.42.238 1.134 0 .84-.336 1.344t-.98.728-1.568.224"/>
    <rect width="360" height="75" x="16.5" y="495.5" fill="#fff" rx="19.5"/>
    <rect width="360" height="75" x="16.5" y="495.5" stroke="#ecf1f8" rx="19.5"/>
    <path fill="#1b1b1b" d="M95.976 528.654q-.532 0-1.162-.07-.63-.056-1.232-.14l-1.008-.168.126-1.526 1.008.126q.574.056 1.134.098.574.042.994.042.532 0 .868-.14a.95.95 0 0 0 .49-.42q.168-.294.168-.742 0-.364-.154-.574-.14-.224-.518-.35a7 7 0 0 0-1.05-.266 10 10 0 0 1-1.442-.364 3.3 3.3 0 0 1-.966-.518 1.9 1.9 0 0 1-.56-.812q-.168-.49-.168-1.19 0-1.092.406-1.708.405-.63 1.162-.896t1.778-.266q.462 0 1.05.056.602.042 1.176.112.588.07.994.154l-.084 1.54q-.42-.056-.98-.098-.546-.056-1.092-.098a12 12 0 0 0-.91-.042q-.518 0-.868.112t-.518.35a1 1 0 0 0-.168.602q0 .42.168.644t.56.364q.406.14 1.106.294.825.182 1.4.392.588.21.938.504.364.294.532.756t.168 1.162q0 1.12-.406 1.806a2.28 2.28 0 0 1-1.148.98q-.742.294-1.792.294m7.415 0q-1.161 0-1.848-.392-.672-.392-.966-1.19t-.294-2.002q0-1.302.364-2.128.378-.827 1.092-1.218.714-.406 1.764-.406 1.555 0 2.338.784.798.785.798 2.478l-.084 1.036h-4.396q.015.784.322 1.176.309.392 1.064.392.435 0 .952-.014l1.022-.056q.519-.028.882-.056l.042 1.302q-.35.056-.882.126-.531.07-1.106.112-.56.056-1.064.056m-1.232-4.228h2.618q0-.952-.308-1.33-.294-.378-.966-.378-.448 0-.742.168t-.448.546-.154.994m8.155 4.242q-.77 0-1.246-.224t-.686-.77q-.196-.56-.196-1.554v-3.094h-.826v-1.554h.826v-1.862h1.862v1.862h1.792v1.554h-1.792v2.604q0 .546.042.854.056.308.224.434t.518.126q.097 0 .294-.014l.392-.028q.196-.014.322-.028l.056 1.498a13.08 13.08 0 0 1-1.106.154 3 3 0 0 1-.476.042m5.409-.014q-1.161 0-1.848-.392-.672-.392-.966-1.19t-.294-2.002q0-1.302.364-2.128.378-.827 1.092-1.218.714-.406 1.764-.406 1.555 0 2.338.784.798.785.798 2.478l-.084 1.036h-4.396q.015.784.322 1.176.309.392 1.064.392.435 0 .952-.014l1.022-.056q.519-.028.882-.056l.042 1.302q-.35.056-.882.126-.531.07-1.106.112-.56.056-1.064.056m-1.232-4.228h2.618q0-.952-.308-1.33-.294-.378-.966-.378-.448 0-.742.168t-.448.546q-.153.378-.154.994m5.718 4.074v-7.028h1.862v.448q.21-.14.532-.266.323-.14.672-.238.364-.098.7-.098.645 0 1.05.182.407.168.672.504.252-.154.63-.308.379-.154.826-.266a3.6 3.6 0 0 1 .868-.112q.771 0 1.26.21.505.197.784.63.28.42.392 1.092.112.659.112 1.596v3.654h-1.862v-3.486q0-.728-.084-1.176-.07-.462-.308-.672-.224-.21-.686-.21-.252 0-.532.056a2.8 2.8 0 0 0-.882.28q.07.294.098.756.042.462.042.966v3.486h-1.862v-3.458q0-.742-.084-1.204-.07-.462-.308-.672-.237-.21-.686-.21-.252 0-.518.056-.251.042-.476.126-.21.084-.35.154v5.208zm14.64.154q-.35 0-.854-.028a22 22 0 0 1-1.036-.084l-.924-.098v-9.842h1.876v3.094q.21-.084.518-.168t.644-.14q.35-.07.644-.07.981 0 1.554.406.588.391.84 1.176t.252 1.974q0 1.4-.322 2.24a2.05 2.05 0 0 1-1.078 1.19q-.77.35-2.114.35m.014-1.568q.686 0 1.022-.238.337-.252.448-.742.126-.49.126-1.204 0-.728-.112-1.162-.111-.448-.378-.644-.252-.21-.714-.21-.224 0-.476.056a4 4 0 0 0-.49.112 4 4 0 0 0-.378.112v3.864q.21.014.49.042.28.014.462.014m4.788 1.414v-7.028h1.862v.826q.238-.181.588-.378a6 6 0 0 1 .756-.378q.42-.182.798-.238v1.806a4.5 4.5 0 0 0-.77.196 8 8 0 0 0-.77.28q-.35.154-.602.28v4.634zm7.918.154q-1.19 0-1.918-.392-.714-.392-1.036-1.204-.322-.826-.322-2.128 0-1.26.336-2.044a2.27 2.27 0 0 1 1.064-1.176q.729-.392 1.876-.392 1.162 0 1.876.392.728.378 1.064 1.176.35.784.35 2.044 0 1.302-.322 2.128-.321.812-1.05 1.204-.714.392-1.918.392m0-1.54q.588 0 .882-.21.294-.224.392-.7.112-.49.112-1.274 0-.77-.126-1.218-.126-.462-.42-.658t-.84-.196q-.531 0-.84.196-.294.196-.42.658-.126.449-.126 1.218 0 .784.098 1.274.112.476.406.7.294.21.882.21m7.669 1.386v-1.512l2.114-2.17q.602-.616 1.036-1.078a4.5 4.5 0 0 0 .658-.896q.238-.42.238-.896 0-.7-.392-.938-.392-.252-1.26-.252-.35 0-.77.042t-.812.098q-.378.056-.658.112l-.098-1.484q.308-.084.756-.182.462-.097.994-.168a7 7 0 0 1 1.064-.084q1.512 0 2.31.644.798.63.798 1.96 0 .728-.21 1.288a3.5 3.5 0 0 1-.63 1.078q-.42.504-1.12 1.106l-1.848 1.764h3.934v1.568zm10.845.154q-.895 0-1.554-.238a2.53 2.53 0 0 1-1.092-.798q-.42-.56-.644-1.456-.21-.896-.21-2.198 0-1.344.21-2.282.225-.938.658-1.498.435-.574 1.078-.826.658-.252 1.54-.252.91 0 1.568.252a2.35 2.35 0 0 1 1.078.826q.435.56.63 1.498.21.924.21 2.282 0 1.722-.378 2.758-.363 1.022-1.134 1.484-.77.448-1.96.448m0-1.624q.393 0 .672-.126.294-.14.49-.476t.28-.938q.099-.602.098-1.526 0-.98-.098-1.61-.084-.63-.266-.98-.182-.364-.476-.504a1.5 1.5 0 0 0-.7-.154q-.405 0-.7.154-.294.14-.49.49-.181.35-.28.994-.098.63-.098 1.624 0 .924.098 1.526.113.602.308.938.197.322.476.462.294.126.686.126m4.714 1.47v-1.512l2.114-2.17q.601-.616 1.036-1.078.433-.476.658-.896.238-.42.238-.896 0-.7-.392-.938-.393-.252-1.26-.252-.35 0-.77.042t-.812.098a13 13 0 0 0-.658.112l-.098-1.484q.308-.084.756-.182.462-.097.994-.168a7 7 0 0 1 1.064-.084q1.512 0 2.31.644.798.63.798 1.96 0 .728-.21 1.288a3.5 3.5 0 0 1-.63 1.078q-.42.504-1.12 1.106l-1.848 1.764h3.934v1.568zm11.601 0v-1.54h-4.2v-1.4l2.1-6.3h2.156l-2.338 6.09h2.282l.112-2.38 1.792-.028v2.408h.854v1.61h-.854v1.54z"/>
    <path fill="#4c4c4c" d="M93.368 546.5v-8.4h3.144q1.068 0 1.836.348.768.336 1.176.984.42.636.42 1.548 0 .888-.42 1.536-.408.636-1.176.984t-1.836.348H93.86l.396-.42v3.072zm.888-3-.396-.432h2.628q1.26 0 1.908-.54.66-.552.66-1.548 0-1.008-.66-1.56-.648-.552-1.908-.552H93.86l.396-.42zm11.318 3v-1.392l-.036-.228v-2.328q0-.804-.456-1.236-.444-.432-1.332-.432a3.3 3.3 0 0 0-1.164.204q-.552.204-.936.54l-.384-.636q.48-.408 1.152-.624.672-.228 1.416-.228 1.224 0 1.884.612.672.6.672 1.836v3.912zm-2.172.06q-.708 0-1.236-.228a1.9 1.9 0 0 1-.792-.648q-.276-.42-.276-.96 0-.492.228-.888.24-.408.768-.648.54-.252 1.44-.252h2.172v.636h-2.148q-.912 0-1.272.324a1.05 1.05 0 0 0-.348.804q0 .54.42.864t1.176.324q.72 0 1.236-.324.528-.336.768-.96l.192.588q-.24.624-.84.996-.588.372-1.488.372m7.99 2.328a5.4 5.4 0 0 1-1.656-.252q-.792-.252-1.284-.72l.432-.648q.444.396 1.092.624.66.24 1.392.24 1.2 0 1.764-.564.564-.552.564-1.728v-1.572l.12-1.08-.084-1.08V540.2h.816v5.532q0 1.632-.804 2.388-.792.768-2.352.768m-.156-2.628q-.9 0-1.62-.384a3 3 0 0 1-1.14-1.092q-.408-.696-.408-1.596t.408-1.584q.42-.696 1.14-1.08a3.4 3.4 0 0 1 1.62-.384q.84 0 1.512.348t1.068 1.032.396 1.668-.396 1.668a2.7 2.7 0 0 1-1.068 1.044 3.15 3.15 0 0 1-1.512.36m.084-.756q.696 0 1.236-.288.54-.3.852-.816.312-.528.312-1.212t-.312-1.2a2.17 2.17 0 0 0-.852-.804q-.54-.3-1.236-.3-.684 0-1.236.3a2.17 2.17 0 0 0-.852.804q-.3.516-.3 1.2t.3 1.212q.312.516.852.816.552.288 1.236.288m8.166 1.056a3.3 3.3 0 0 1-1.644-.408q-.72-.42-1.14-1.14-.42-.732-.42-1.668 0-.948.42-1.668t1.14-1.128 1.644-.408q.936 0 1.656.408.732.408 1.14 1.128.42.72.42 1.668 0 .936-.42 1.668a3 3 0 0 1-1.14 1.14 3.34 3.34 0 0 1-1.656.408m0-.756q.684 0 1.212-.3.528-.312.828-.864.312-.564.312-1.296 0-.744-.312-1.296a2.1 2.1 0 0 0-.828-.852 2.3 2.3 0 0 0-1.2-.312q-.672 0-1.2.312-.528.3-.84.852t-.312 1.296q0 .732.312 1.296.312.552.84.864.528.3 1.188.3m10.773.756q-.984 0-1.728-.408a3.06 3.06 0 0 1-1.164-1.14q-.42-.732-.42-1.668t.396-1.656a3 3 0 0 1 1.104-1.128q.708-.42 1.584-.42.888 0 1.572.408a2.8 2.8 0 0 1 1.092 1.128q.396.72.396 1.668 0 .06-.012.132v.132h-5.484v-.636h5.028l-.336.252q0-.684-.3-1.212a2.1 2.1 0 0 0-.792-.84q-.504-.3-1.164-.3-.648 0-1.164.3t-.804.84-.288 1.236v.132q0 .72.312 1.272.324.54.888.852.576.3 1.308.3.576 0 1.068-.204.504-.204.864-.624l.48.552q-.42.504-1.056.768a3.5 3.5 0 0 1-1.38.264m4.566-.06v-6.3h.816v1.704l-.132-.3q.288-.684.924-1.068.648-.396 1.524-.396.924 0 1.572.468.648.456.84 1.38l-.336-.132q.276-.768.972-1.236.708-.48 1.692-.48.768 0 1.332.3.576.288.888.888.324.6.324 1.512v3.66h-.852v-3.576q0-.996-.48-1.5-.468-.516-1.332-.516-.648 0-1.128.276a1.8 1.8 0 0 0-.732.78q-.252.504-.252 1.224v3.312h-.852v-3.576q0-.996-.48-1.5-.48-.516-1.344-.516a2.2 2.2 0 0 0-1.116.276 1.8 1.8 0 0 0-.744.78q-.252.504-.252 1.224v3.312zm16.767 0v-8.04l.384.408h-2.364v-.768h2.844v8.4zm2.716 0v-.612l3.492-3.42q.48-.468.72-.816.24-.36.324-.672t.084-.588q0-.732-.504-1.152-.492-.42-1.464-.42-.744 0-1.32.228-.564.228-.972.708l-.612-.528q.492-.576 1.26-.888a4.5 4.5 0 0 1 1.716-.312q.852 0 1.476.276.624.264.96.78.348.516.348 1.212 0 .408-.12.804a2.9 2.9 0 0 1-.408.84q-.288.432-.852.984l-3.204 3.144-.24-.336h5.208v.768zm6.169 1.2 3.96-11.304h.78l-3.96 11.304zm8.058-1.128a3.04 3.04 0 0 1-1.728-.504q-.756-.516-1.188-1.464-.432-.96-.432-2.304t.432-2.292q.432-.96 1.188-1.464a3 3 0 0 1 1.728-.516q.972 0 1.728.516.756.504 1.188 1.464.444.948.444 2.292t-.444 2.304q-.432.948-1.188 1.464a3.04 3.04 0 0 1-1.728.504m0-.792q.744 0 1.296-.396.552-.408.864-1.176.312-.78.312-1.908t-.312-1.896q-.312-.78-.864-1.176a2.12 2.12 0 0 0-1.296-.408q-.72 0-1.284.408-.564.396-.876 1.176-.312.768-.313 1.896 0 1.128.313 1.908.312.768.876 1.176a2.18 2.18 0 0 0 1.284.396m6.817.792a5.3 5.3 0 0 1-1.08-.108 3 3 0 0 1-.912-.348l.348-.696q.324.216.744.312.432.084.888.084 1.356 0 2.16-.864.816-.864.816-2.58a7 7 0 0 0-.036-.66 3.7 3.7 0 0 0-.132-.768l.3.228q-.12.624-.516 1.068a2.5 2.5 0 0 1-.96.66 3.3 3.3 0 0 1-1.26.228q-.828 0-1.476-.312a2.4 2.4 0 0 1-.996-.876q-.36-.564-.36-1.332 0-.792.372-1.368t1.02-.888q.66-.324 1.476-.324 1.116 0 1.884.504.768.492 1.164 1.428t.396 2.268q0 1.416-.492 2.388-.48.972-1.344 1.464t-2.004.492m.492-4.176q.648 0 1.128-.24.492-.24.756-.66.276-.42.276-.936 0-.468-.252-.876a1.8 1.8 0 0 0-.744-.66q-.492-.264-1.224-.264-.6 0-1.068.228a1.7 1.7 0 0 0-.72.624q-.264.408-.264.972 0 .828.564 1.32.576.492 1.548.492"/>
    <rect width="44" height="44" x="32" y="511" fill="#dcfce7" rx="12"/>
    <g clip-path="url(#e)">
      <path stroke="#66cf95" stroke-linecap="round" stroke-linejoin="round" stroke-width="2" d="m47 533 5 5 10-10"/>
    </g>
    <path fill="#1b1b1b" d="M300.316 539v-9.8h4.032q1.302 0 2.226.42.938.42 1.442 1.204t.504 1.862-.504 1.862q-.504.77-1.442 1.19-.924.406-2.226.406h-3.024l.812-.826V539zm6.412 0-2.478-3.556h1.946l2.492 3.556zm-4.592-3.486-.812-.868h2.94q1.204 0 1.806-.518.616-.518.616-1.442 0-.938-.616-1.442-.602-.504-1.806-.504h-2.94l.812-.896zm11.024 5.166v-13.16h1.148v13.16zm.434-1.54a7.5 7.5 0 0 1-2.198-.322q-1.05-.336-1.666-.854l.63-1.414q.588.462 1.456.77a5.3 5.3 0 0 0 1.778.308q.77 0 1.246-.168.477-.168.7-.448.224-.294.224-.658a.88.88 0 0 0-.322-.714q-.321-.28-.84-.434a11 11 0 0 0-1.134-.308q-.616-.14-1.246-.322a6 6 0 0 1-1.134-.49 2.54 2.54 0 0 1-.826-.812q-.322-.504-.322-1.288 0-.798.42-1.456.435-.672 1.302-1.064.882-.406 2.226-.406.883 0 1.75.224a5 5 0 0 1 1.512.644l-.574 1.414a5.2 5.2 0 0 0-1.358-.574 5 5 0 0 0-1.344-.196q-.755 0-1.232.182-.462.182-.686.476-.21.294-.21.672a.94.94 0 0 0 .308.728q.322.266.826.42.519.154 1.148.308.63.14 1.246.322.63.182 1.134.476.519.294.826.798.322.504.322 1.274 0 .784-.434 1.456-.42.658-1.302 1.064-.882.392-2.226.392m8.81-.14v-1.218l3.892-3.696q.49-.462.728-.812t.308-.644a2.2 2.2 0 0 0 .084-.574q0-.672-.462-1.036-.462-.378-1.358-.378-.714 0-1.302.252a2.6 2.6 0 0 0-.994.77l-1.274-.98q.574-.77 1.54-1.19.98-.434 2.184-.434 1.063 0 1.848.35.798.336 1.218.966.434.63.434 1.498 0 .476-.126.952a3.4 3.4 0 0 1-.476.98q-.35.518-1.022 1.162l-3.346 3.178-.378-.686h5.726V539zm11.579-9.94q1.344 0 2.282.574.952.56 1.456 1.638t.504 2.66q0 1.68-.616 2.842-.603 1.163-1.68 1.764-1.078.602-2.506.602-.742 0-1.414-.154a3.5 3.5 0 0 1-1.162-.476l.672-1.372q.405.266.882.378.476.098.98.098 1.385 0 2.198-.854.812-.853.812-2.52 0-.266-.014-.616a4 4 0 0 0-.098-.728l.56.616a2.6 2.6 0 0 1-.686.966 3.1 3.1 0 0 1-1.05.574 4.3 4.3 0 0 1-1.33.196 4 4 0 0 1-1.722-.364 3.06 3.06 0 0 1-1.204-1.05q-.448-.685-.448-1.596 0-.98.476-1.68a3.16 3.16 0 0 1 1.288-1.106 4.2 4.2 0 0 1 1.82-.392m.098 1.428q-.56 0-.994.21a1.6 1.6 0 0 0-.686.574q-.238.365-.238.882 0 .77.532 1.218.531.448 1.428.448.588 0 1.036-.21.447-.224.7-.602.252-.392.252-.868 0-.462-.238-.826a1.67 1.67 0 0 0-.686-.602q-.449-.224-1.106-.224m5.281 10.626.812-3.094.238 1.036a1.2 1.2 0 0 1-.826-.294q-.322-.308-.322-.826 0-.533.322-.84.336-.322.812-.322.49 0 .812.322t.322.84a2 2 0 0 1-.126.672q-.057.21-.196.532l-.714 1.974zm6.652-12.054q1.343 0 2.282.574.952.56 1.456 1.638t.504 2.66q0 1.68-.616 2.842-.603 1.163-1.68 1.764-1.078.602-2.506.602-.742 0-1.414-.154a3.5 3.5 0 0 1-1.162-.476l.672-1.372q.405.266.882.378.476.098.98.098 1.385 0 2.198-.854.812-.853.812-2.52 0-.266-.014-.616a4 4 0 0 0-.098-.728l.56.616a2.6 2.6 0 0 1-.686.966 3.1 3.1 0 0 1-1.05.574 4.3 4.3 0 0 1-1.33.196 4 4 0 0 1-1.722-.364 3.06 3.06 0 0 1-1.204-1.05q-.448-.685-.448-1.596 0-.98.476-1.68a3.16 3.16 0 0 1 1.288-1.106 4.2 4.2 0 0 1 1.82-.392m.098 1.428q-.56 0-.994.21a1.6 1.6 0 0 0-.686.574q-.238.365-.238.882 0 .77.532 1.218.531.448 1.428.448.588 0 1.036-.21.447-.224.7-.602.252-.392.252-.868 0-.462-.238-.826a1.67 1.67 0 0 0-.686-.602q-.449-.224-1.106-.224m9.463 8.652a3.87 3.87 0 0 1-2.1-.588q-.924-.588-1.456-1.708-.532-1.134-.532-2.744t.532-2.73q.532-1.134 1.456-1.722a3.87 3.87 0 0 1 2.1-.588q1.176 0 2.1.588t1.456 1.722q.546 1.12.546 2.73t-.546 2.744q-.532 1.12-1.456 1.708t-2.1.588m0-1.582q.686 0 1.19-.364.504-.378.784-1.148.294-.77.294-1.946 0-1.19-.294-1.946-.28-.77-.784-1.134a1.93 1.93 0 0 0-1.19-.378q-.659 0-1.176.378-.504.365-.798 1.134-.28.756-.28 1.946 0 1.176.28 1.946.294.77.798 1.148.518.364 1.176.364"/>
    <rect width="360" height="75" x="16.5" y="583.5" fill="#fff" rx="19.5"/>
    <rect width="360" height="75" x="16.5" y="583.5" stroke="#ecf1f8" rx="19.5"/>
    <path fill="#1b1b1b" d="m92.168 616.5 2.436-9.562h3.374l2.422 9.562h-1.932l-.532-1.932H94.59l-.504 1.932zm2.73-3.486h2.758l-1.078-4.508h-.588zm9.456 6.692q-1.12 0-1.876-.168-.742-.168-1.12-.616-.378-.433-.378-1.26 0-.364.098-.658.113-.28.336-.532.239-.252.588-.518a1 1 0 0 1-.322-.406 1.6 1.6 0 0 1-.112-.602q0-.113.098-.294.099-.196.238-.406.14-.21.266-.378a2 2 0 0 1-.532-.364 2 2 0 0 1-.42-.672q-.154-.42-.154-1.078 0-.895.336-1.428.351-.532 1.008-.77.658-.238 1.596-.238.364 0 .784.056t.672.112l2.282-.042v1.26l-1.064-.014q.126.168.224.434.112.252.112.63 0 .966-.336 1.498-.321.532-.98.742-.657.196-1.666.196-.111 0-.308-.014a9 9 0 0 0-.322-.042 5 5 0 0 0-.112.322 1 1 0 0 0-.056.238.43.43 0 0 0 .056.238.5.5 0 0 0 .238.14q.183.042.518.056.351.014.924.014.994 0 1.582.182.603.182.854.644.252.462.252 1.302 0 1.246-.882 1.834-.867.602-2.422.602m-.098-1.386q.868 0 1.246-.21.392-.196.392-.658 0-.364-.14-.532-.126-.168-.434-.224a7 7 0 0 0-.84-.042q-.14 0-.336-.014-.195 0-.406-.014-.195 0-.364-.014a3 3 0 0 0-.224-.014 2.6 2.6 0 0 0-.322.266q-.111.126-.168.252a1.2 1.2 0 0 0-.042.336q0 .322.154.504.154.196.504.28.365.084.98.084m-.238-5.446q.645 0 .91-.252.28-.266.28-.868t-.28-.868q-.265-.266-.91-.266-.615 0-.896.266-.266.266-.266.868t.266.868q.28.252.896.252m7.635 3.78q-1.19 0-1.918-.392-.714-.392-1.036-1.204-.322-.826-.322-2.128 0-1.26.336-2.044a2.27 2.27 0 0 1 1.064-1.176q.729-.392 1.876-.392 1.162 0 1.876.392.728.378 1.064 1.176.35.784.35 2.044 0 1.302-.322 2.128-.321.812-1.05 1.204-.714.392-1.918.392m0-1.54q.588 0 .882-.21.294-.224.392-.7.112-.49.112-1.274 0-.77-.126-1.218-.126-.462-.42-.658t-.84-.196q-.531 0-.84.196-.294.196-.42.658-.126.449-.126 1.218 0 .784.098 1.274.112.476.406.7.294.21.882.21m7.098 1.54q-.462 0-.994-.056a14 14 0 0 1-1.75-.252l.056-1.386q.365.042.812.098.462.056.896.098.449.028.728.028.42 0 .686-.07.28-.07.42-.224.14-.168.14-.476 0-.238-.126-.364-.112-.126-.448-.21a7 7 0 0 0-.952-.196q-.783-.112-1.302-.322-.504-.21-.742-.616-.238-.42-.238-1.134 0-.868.378-1.358a1.98 1.98 0 0 1 1.008-.686q.63-.21 1.372-.21.49 0 1.008.056a14 14 0 0 1 1.75.252l-.056 1.414a12 12 0 0 0-.812-.098 16 16 0 0 0-1.68-.112q-.322 0-.574.07a.8.8 0 0 0-.392.196q-.126.14-.126.42a.47.47 0 0 0 .112.322q.112.126.42.224.322.084.924.168.868.126 1.386.35.519.224.742.644.238.42.238 1.134 0 .84-.336 1.344-.335.504-.98.728-.644.224-1.568.224m6.575.014q-.77 0-1.246-.224-.477-.224-.686-.77-.196-.56-.196-1.554v-3.094h-.826v-1.554h.826v-1.862h1.862v1.862h1.792v1.554h-1.792v2.604q0 .546.042.854.056.308.224.434.167.126.518.126.097 0 .294-.014l.392-.028a9 9 0 0 0 .322-.028l.056 1.498a13.08 13.08 0 0 1-1.106.154 3 3 0 0 1-.476.042m5.591-.014q-1.19 0-1.918-.392-.714-.392-1.036-1.204-.322-.826-.322-2.128 0-1.26.336-2.044a2.27 2.27 0 0 1 1.064-1.176q.728-.392 1.876-.392 1.162 0 1.876.392.728.378 1.064 1.176.35.784.35 2.044 0 1.302-.322 2.128-.322.812-1.05 1.204-.714.392-1.918.392m0-1.54q.588 0 .882-.21.294-.224.392-.7.112-.49.112-1.274 0-.77-.126-1.218-.126-.462-.42-.658t-.84-.196q-.532 0-.84.196-.294.196-.42.658-.126.449-.126 1.218 0 .784.098 1.274.112.476.406.7.294.21.882.21m7.669 1.386v-1.512l2.114-2.17q.601-.616 1.036-1.078.433-.476.658-.896.237-.42.238-.896 0-.7-.392-.938-.393-.252-1.26-.252-.35 0-.77.042t-.812.098a13 13 0 0 0-.658.112l-.098-1.484q.308-.084.756-.182.462-.097.994-.168a7 7 0 0 1 1.064-.084q1.512 0 2.31.644.798.63.798 1.96 0 .728-.21 1.288a3.5 3.5 0 0 1-.63 1.078q-.42.504-1.12 1.106l-1.848 1.764h3.934v1.568zm10.845.154q-.895 0-1.554-.238a2.5 2.5 0 0 1-1.092-.798q-.42-.56-.644-1.456-.21-.896-.21-2.198 0-1.344.21-2.282.224-.938.658-1.498a2.45 2.45 0 0 1 1.078-.826q.658-.252 1.54-.252.91 0 1.568.252a2.35 2.35 0 0 1 1.078.826q.433.56.63 1.498.21.924.21 2.282 0 1.722-.378 2.758-.364 1.022-1.134 1.484-.77.448-1.96.448m0-1.624q.391 0 .672-.126a1.14 1.14 0 0 0 .49-.476q.196-.336.28-.938a10 10 0 0 0 .098-1.526q0-.98-.098-1.61-.084-.63-.266-.98-.182-.364-.476-.504a1.5 1.5 0 0 0-.7-.154q-.406 0-.7.154-.294.14-.49.49-.182.35-.28.994-.098.63-.098 1.624 0 .924.098 1.526.112.602.308.938.196.322.476.462.294.126.686.126m4.713 1.47v-1.512l2.114-2.17q.603-.616 1.036-1.078.435-.476.658-.896.238-.42.238-.896 0-.7-.392-.938-.392-.252-1.26-.252-.35 0-.77.042a20 20 0 0 0-.812.098q-.378.056-.658.112l-.098-1.484q.309-.084.756-.182.462-.097.994-.168a7 7 0 0 1 1.064-.084q1.512 0 2.31.644.798.63.798 1.96 0 .728-.21 1.288-.195.56-.63 1.078-.42.504-1.12 1.106l-1.848 1.764h3.934v1.568zm11.602 0v-1.54h-4.2v-1.4l2.1-6.3h2.156l-2.338 6.09h2.282l.112-2.38 1.792-.028v2.408h.854v1.61h-.854v1.54z"/>
    <path fill="#4c4c4c" d="M93.368 634.5v-8.4h3.144q1.068 0 1.836.348.768.336 1.176.984.42.636.42 1.548 0 .888-.42 1.536-.408.636-1.176.984t-1.836.348H93.86l.396-.42v3.072zm.888-3-.396-.432h2.628q1.26 0 1.908-.54.66-.552.66-1.548 0-1.008-.66-1.56-.648-.552-1.908-.552H93.86l.396-.42zm11.318 3v-1.392l-.036-.228v-2.328q0-.804-.456-1.236-.444-.432-1.332-.432a3.3 3.3 0 0 0-1.164.204q-.552.204-.936.54l-.384-.636q.48-.408 1.152-.624.672-.228 1.416-.228 1.224 0 1.884.612.672.6.672 1.836v3.912zm-2.172.06q-.708 0-1.236-.228a1.9 1.9 0 0 1-.792-.648q-.276-.42-.276-.96 0-.492.228-.888.24-.408.768-.648.54-.252 1.44-.252h2.172v.636h-2.148q-.912 0-1.272.324a1.05 1.05 0 0 0-.348.804q0 .54.42.864t1.176.324q.72 0 1.236-.324.528-.336.768-.96l.192.588q-.24.624-.84.996-.588.372-1.488.372m7.99 2.328a5.4 5.4 0 0 1-1.656-.252q-.792-.252-1.284-.72l.432-.648q.444.396 1.092.624.66.24 1.392.24 1.2 0 1.764-.564.564-.552.564-1.728v-1.572l.12-1.08-.084-1.08V628.2h.816v5.532q0 1.632-.804 2.388-.792.768-2.352.768m-.156-2.628q-.9 0-1.62-.384a3 3 0 0 1-1.14-1.092q-.408-.696-.408-1.596t.408-1.584q.42-.696 1.14-1.08a3.4 3.4 0 0 1 1.62-.384q.84 0 1.512.348t1.068 1.032.396 1.668-.396 1.668a2.7 2.7 0 0 1-1.068 1.044 3.15 3.15 0 0 1-1.512.36m.084-.756q.696 0 1.236-.288.54-.3.852-.816.312-.528.312-1.212t-.312-1.2a2.17 2.17 0 0 0-.852-.804q-.54-.3-1.236-.3-.684 0-1.236.3a2.17 2.17 0 0 0-.852.804q-.3.516-.3 1.2t.3 1.212q.312.516.852.816.552.288 1.236.288m8.166 1.056a3.3 3.3 0 0 1-1.644-.408q-.72-.42-1.14-1.14-.42-.732-.42-1.668 0-.948.42-1.668t1.14-1.128 1.644-.408q.936 0 1.656.408.732.408 1.14 1.128.42.72.42 1.668 0 .936-.42 1.668a3 3 0 0 1-1.14 1.14 3.34 3.34 0 0 1-1.656.408m0-.756q.684 0 1.212-.3.528-.312.828-.864.312-.564.312-1.296 0-.744-.312-1.296a2.1 2.1 0 0 0-.828-.852 2.3 2.3 0 0 0-1.2-.312q-.672 0-1.2.312-.528.3-.84.852t-.312 1.296q0 .732.312 1.296.312.552.84.864.528.3 1.188.3m10.773.756q-.984 0-1.728-.408a3.06 3.06 0 0 1-1.164-1.14q-.42-.732-.42-1.668t.396-1.656a3 3 0 0 1 1.104-1.128q.708-.42 1.584-.42.888 0 1.572.408a2.8 2.8 0 0 1 1.092 1.128q.396.72.396 1.668 0 .06-.012.132v.132h-5.484v-.636h5.028l-.336.252q0-.684-.3-1.212a2.1 2.1 0 0 0-.792-.84q-.504-.3-1.164-.3-.648 0-1.164.3t-.804.84-.288 1.236v.132q0 .72.312 1.272.324.54.888.852.576.3 1.308.3.576 0 1.068-.204.504-.204.864-.624l.48.552q-.42.504-1.056.768a3.5 3.5 0 0 1-1.38.264m4.566-.06v-6.3h.816v1.704l-.132-.3q.288-.684.924-1.068.648-.396 1.524-.396.924 0 1.572.468.648.456.84 1.38l-.336-.132q.276-.768.972-1.236.708-.48 1.692-.48.768 0 1.332.3.576.288.888.888.324.6.324 1.512v3.66h-.852v-3.576q0-.996-.48-1.5-.468-.516-1.332-.516-.648 0-1.128.276a1.8 1.8 0 0 0-.732.78q-.252.504-.252 1.224v3.312h-.852v-3.576q0-.996-.48-1.5-.48-.516-1.344-.516a2.2 2.2 0 0 0-1.116.276 1.8 1.8 0 0 0-.744.78q-.252.504-.252 1.224v3.312zm16.767 0v-8.04l.384.408h-2.364v-.768h2.844v8.4zm2.716 0v-.612l3.492-3.42q.48-.468.72-.816.24-.36.324-.672t.084-.588q0-.732-.504-1.152-.492-.42-1.464-.42-.744 0-1.32.228-.564.228-.972.708l-.612-.528q.492-.576 1.26-.888a4.5 4.5 0 0 1 1.716-.312q.852 0 1.476.276.624.264.96.78.348.516.348 1.212 0 .408-.12.804a2.9 2.9 0 0 1-.408.84q-.288.432-.852.984l-3.204 3.144-.24-.336h5.208v.768zm6.169 1.2 3.96-11.304h.78l-3.96 11.304zm8.058-1.128a3.04 3.04 0 0 1-1.728-.504q-.756-.516-1.188-1.464-.432-.96-.432-2.304t.432-2.292q.432-.96 1.188-1.464a3 3 0 0 1 1.728-.516q.972 0 1.728.516.756.504 1.188 1.464.444.948.444 2.292t-.444 2.304q-.432.948-1.188 1.464a3.04 3.04 0 0 1-1.728.504m0-.792q.744 0 1.296-.396.552-.408.864-1.176.312-.78.312-1.908t-.312-1.896q-.312-.78-.864-1.176a2.12 2.12 0 0 0-1.296-.408q-.72 0-1.284.408-.564.396-.876 1.176-.312.768-.313 1.896 0 1.128.313 1.908.312.768.876 1.176a2.18 2.18 0 0 0 1.284.396m6.817.792a5.3 5.3 0 0 1-1.08-.108 3 3 0 0 1-.912-.348l.348-.696q.324.216.744.312.432.084.888.084 1.356 0 2.16-.864.816-.864.816-2.58a7 7 0 0 0-.036-.66 3.7 3.7 0 0 0-.132-.768l.3.228q-.12.624-.516 1.068a2.5 2.5 0 0 1-.96.66 3.3 3.3 0 0 1-1.26.228q-.828 0-1.476-.312a2.4 2.4 0 0 1-.996-.876q-.36-.564-.36-1.332 0-.792.372-1.368t1.02-.888q.66-.324 1.476-.324 1.116 0 1.884.504.768.492 1.164 1.428t.396 2.268q0 1.416-.492 2.388-.48.972-1.344 1.464t-2.004.492m.492-4.176q.648 0 1.128-.24.492-.24.756-.66.276-.42.276-.936 0-.468-.252-.876a1.8 1.8 0 0 0-.744-.66q-.492-.264-1.224-.264-.6 0-1.068.228a1.7 1.7 0 0 0-.72.624q-.264.408-.264.972 0 .828.564 1.32.576.492 1.548.492"/>
    <rect width="44" height="44" x="32" y="599" fill="#dcfce7" rx="12"/>
    <g clip-path="url(#f)">
      <path stroke="#66cf95" stroke-linecap="round" stroke-linejoin="round" stroke-width="2" d="m47 621 5 5 10-10"/>
    </g>
    <path fill="#1b1b1b" d="M300.316 627v-9.8h4.032q1.302 0 2.226.42.938.42 1.442 1.204t.504 1.862-.504 1.862q-.504.77-1.442 1.19-.924.406-2.226.406h-3.024l.812-.826V627zm6.412 0-2.478-3.556h1.946l2.492 3.556zm-4.592-3.486-.812-.868h2.94q1.204 0 1.806-.518.616-.518.616-1.442 0-.938-.616-1.442-.602-.504-1.806-.504h-2.94l.812-.896zm11.024 5.166v-13.16h1.148v13.16zm.434-1.54a7.5 7.5 0 0 1-2.198-.322q-1.05-.336-1.666-.854l.63-1.414q.588.462 1.456.77a5.3 5.3 0 0 0 1.778.308q.77 0 1.246-.168.477-.168.7-.448.224-.294.224-.658a.88.88 0 0 0-.322-.714q-.321-.28-.84-.434a11 11 0 0 0-1.134-.308q-.616-.14-1.246-.322a6 6 0 0 1-1.134-.49 2.54 2.54 0 0 1-.826-.812q-.322-.504-.322-1.288 0-.798.42-1.456.435-.672 1.302-1.064.882-.406 2.226-.406.883 0 1.75.224a5 5 0 0 1 1.512.644l-.574 1.414a5.2 5.2 0 0 0-1.358-.574 5 5 0 0 0-1.344-.196q-.755 0-1.232.182-.462.182-.686.476-.21.294-.21.672a.94.94 0 0 0 .308.728q.322.266.826.42.519.154 1.148.308.63.14 1.246.322.63.182 1.134.476.519.294.826.798.322.504.322 1.274 0 .784-.434 1.456-.42.658-1.302 1.064-.882.392-2.226.392m8.81-.14v-1.218l3.892-3.696q.49-.462.728-.812t.308-.644a2.2 2.2 0 0 0 .084-.574q0-.672-.462-1.036-.462-.378-1.358-.378-.714 0-1.302.252a2.6 2.6 0 0 0-.994.77l-1.274-.98q.574-.77 1.54-1.19.98-.434 2.184-.434 1.063 0 1.848.35.798.336 1.218.966.434.63.434 1.498 0 .476-.126.952a3.4 3.4 0 0 1-.476.98q-.35.518-1.022 1.162l-3.346 3.178-.378-.686h5.726V627zm11.579-9.94q1.344 0 2.282.574.952.56 1.456 1.638t.504 2.66q0 1.68-.616 2.842-.603 1.163-1.68 1.764-1.078.602-2.506.602-.742 0-1.414-.154a3.5 3.5 0 0 1-1.162-.476l.672-1.372q.405.266.882.378.476.098.98.098 1.385 0 2.198-.854.812-.853.812-2.52 0-.266-.014-.616a4 4 0 0 0-.098-.728l.56.616a2.6 2.6 0 0 1-.686.966 3.1 3.1 0 0 1-1.05.574 4.3 4.3 0 0 1-1.33.196 4 4 0 0 1-1.722-.364 3.06 3.06 0 0 1-1.204-1.05q-.448-.685-.448-1.596 0-.98.476-1.68a3.16 3.16 0 0 1 1.288-1.106 4.2 4.2 0 0 1 1.82-.392m.098 1.428q-.56 0-.994.21a1.6 1.6 0 0 0-.686.574q-.238.365-.238.882 0 .77.532 1.218.531.448 1.428.448.588 0 1.036-.21.447-.224.7-.602.252-.392.252-.868 0-.462-.238-.826a1.67 1.67 0 0 0-.686-.602q-.449-.224-1.106-.224m5.281 10.626.812-3.094.238 1.036a1.2 1.2 0 0 1-.826-.294q-.322-.308-.322-.826 0-.533.322-.84.336-.322.812-.322.49 0 .812.322t.322.84a2 2 0 0 1-.126.672q-.057.21-.196.532l-.714 1.974zm6.652-12.054q1.343 0 2.282.574.952.56 1.456 1.638t.504 2.66q0 1.68-.616 2.842-.603 1.163-1.68 1.764-1.078.602-2.506.602-.742 0-1.414-.154a3.5 3.5 0 0 1-1.162-.476l.672-1.372q.405.266.882.378.476.098.98.098 1.385 0 2.198-.854.812-.853.812-2.52 0-.266-.014-.616a4 4 0 0 0-.098-.728l.56.616a2.6 2.6 0 0 1-.686.966 3.1 3.1 0 0 1-1.05.574 4.3 4.3 0 0 1-1.33.196 4 4 0 0 1-1.722-.364 3.06 3.06 0 0 1-1.204-1.05q-.448-.685-.448-1.596 0-.98.476-1.68a3.16 3.16 0 0 1 1.288-1.106 4.2 4.2 0 0 1 1.82-.392m.098 1.428q-.56 0-.994.21a1.6 1.6 0 0 0-.686.574q-.238.365-.238.882 0 .77.532 1.218.531.448 1.428.448.588 0 1.036-.21.447-.224.7-.602.252-.392.252-.868 0-.462-.238-.826a1.67 1.67 0 0 0-.686-.602q-.449-.224-1.106-.224m9.463 8.652a3.87 3.87 0 0 1-2.1-.588q-.924-.588-1.456-1.708-.532-1.134-.532-2.744t.532-2.73q.532-1.134 1.456-1.722a3.87 3.87 0 0 1 2.1-.588q1.176 0 2.1.588t1.456 1.722q.546 1.12.546 2.73t-.546 2.744q-.532 1.12-1.456 1.708t-2.1.588m0-1.582q.686 0 1.19-.364.504-.378.784-1.148.294-.77.294-1.946 0-1.19-.294-1.946-.28-.77-.784-1.134a1.93 1.93 0 0 0-1.19-.378q-.659 0-1.176.378-.504.365-.798 1.134-.28.756-.28 1.946 0 1.176.28 1.946.294.77.798 1.148.518.364 1.176.364"/>
    <rect width="16" height="16" x="125" y="686" fill="#fee2e2" rx="8"/>
    <g stroke="#ff383c" stroke-linecap="round" stroke-linejoin="round" clip-path="url(#g)">
      <path d="m135.182 691.818-4.364 4.364M130.818 691.818l4.364 4.364"/>
    </g>
    <path fill="#ff383c" d="M151.326 699.154q-1.12 0-1.848-.28a2.5 2.5 0 0 1-1.134-.896q-.42-.602-.588-1.526-.154-.937-.154-2.226 0-1.302.154-2.226.168-.938.588-1.54t1.148-.896q.743-.294 1.89-.294.462 0 .966.056t.966.14q.476.07.812.154l-.056 1.54a8 8 0 0 0-.7-.098 13 13 0 0 0-1.666-.112q-.672 0-1.092.168t-.658.56q-.224.392-.308 1.022-.084.616-.084 1.526 0 .896.084 1.526.084.616.308 1.008.224.378.644.56.434.168 1.12.168.56 0 1.232-.056.686-.07 1.134-.126l.042 1.526q-.336.07-.798.154-.462.07-.98.112a10 10 0 0 1-1.022.056m5.839 0q-1.092 0-1.652-.546-.546-.56-.546-1.68 0-.784.28-1.218.28-.448.826-.644.56-.21 1.358-.252l1.708-.154v-.42q0-.504-.252-.7-.252-.21-.742-.21-.393 0-.91.028-.504.028-1.008.07a29 29 0 0 0-.854.084l-.056-1.316a15 15 0 0 1 .868-.168 12.4 12.4 0 0 1 2.114-.21q.895 0 1.498.224.601.224.91.742.308.504.308 1.372v3.206a.42.42 0 0 0 .21.308q.181.098.42.14l-.042 1.288h-.448q-.21.014-.406 0-.197 0-.35-.028a1.6 1.6 0 0 1-.56-.168 1.7 1.7 0 0 1-.364-.266q-.225.098-.602.224a6 6 0 0 1-.826.21q-.435.084-.882.084m.448-1.386q.266 0 .56-.056a7 7 0 0 0 .546-.126q.266-.084.42-.154v-1.61l-1.428.126q-.462.042-.672.28-.196.224-.196.644t.182.658q.195.238.588.238m5.046 1.232v-7.028h1.862v.448q.224-.14.546-.266.321-.14.672-.238a2.7 2.7 0 0 1 .7-.098q.727 0 1.204.196.49.182.77.602t.406 1.106q.126.672.126 1.638V699h-1.876v-3.542q0-.728-.084-1.162-.084-.448-.322-.644t-.7-.196q-.252 0-.532.056a3 3 0 0 0-.518.126q-.239.084-.392.168V699zm10.608.154q-1.204 0-1.89-.364-.672-.378-.952-1.204-.266-.826-.266-2.17 0-1.33.308-2.114.308-.798.994-1.134.7-.35 1.82-.35.294 0 .686.042t.784.112q.406.056.686.112l-.07 1.498a9 9 0 0 0-.602-.042 15 15 0 0 0-.658-.042 6 6 0 0 0-.504-.028q-.602 0-.952.196-.336.182-.476.616-.126.42-.126 1.134 0 .77.126 1.232t.448.658q.336.196.98.196.196 0 .518-.014l.658-.056q.35-.028.616-.042l.056 1.498q-.28.056-.672.112-.391.07-.798.112a7 7 0 0 1-.714.042m6.165 0q-1.161 0-1.848-.392-.672-.392-.966-1.19t-.294-2.002q0-1.302.364-2.128.378-.827 1.092-1.218.714-.406 1.764-.406 1.554 0 2.338.784.798.785.798 2.478l-.084 1.036H178.2q.015.784.322 1.176.308.392 1.064.392.435 0 .952-.014l1.022-.056q.519-.028.882-.056l.042 1.302q-.35.056-.882.126-.531.07-1.106.112-.56.056-1.064.056m-1.232-4.228h2.618q0-.952-.308-1.33-.294-.378-.966-.378-.447 0-.742.168-.294.168-.448.546t-.154.994m5.774 4.074v-9.898h1.862V699zm5.292.154q-1.092 0-1.652-.546-.546-.56-.546-1.68 0-.784.28-1.218a1.56 1.56 0 0 1 .826-.644q.56-.21 1.358-.252l1.708-.154v-.42q0-.504-.252-.7-.252-.21-.742-.21-.392 0-.91.028-.504.028-1.008.07-.49.042-.854.084l-.056-1.316q.364-.084.868-.168a13 13 0 0 1 1.078-.154q.56-.056 1.036-.056.896 0 1.498.224t.91.742q.308.504.308 1.372v3.206a.42.42 0 0 0 .21.308q.181.098.42.14l-.042 1.288h-.448q-.21.014-.406 0-.196 0-.35-.028a1.6 1.6 0 0 1-.56-.168 1.7 1.7 0 0 1-.364-.266q-.224.098-.602.224a6 6 0 0 1-.826.21 4.6 4.6 0 0 1-.882.084m.448-1.386q.266 0 .56-.056a7 7 0 0 0 .546-.126q.266-.084.42-.154v-1.61l-1.428.126q-.462.042-.672.28-.196.224-.196.644t.182.658q.196.238.588.238M194.76 699v-7.028h1.862v.826q.238-.181.588-.378.351-.21.756-.378.42-.182.798-.238v1.806a4.5 4.5 0 0 0-.77.196 8.3 8.3 0 0 0-1.372.56V699zm7.424 0 2.436-9.562h3.374l2.422 9.562h-1.932l-.532-1.932h-3.346l-.504 1.932zm2.73-3.486h2.758l-1.078-4.508h-.588zm8.978 3.64q-.462 0-.994-.056a14 14 0 0 1-1.75-.252l.056-1.386q.364.042.812.098.462.056.896.098.448.028.728.028.42 0 .686-.07.28-.07.42-.224.14-.168.14-.476 0-.238-.126-.364-.112-.126-.448-.21a7.4 7.4 0 0 0-.952-.196q-.784-.112-1.302-.322-.504-.21-.742-.616-.238-.42-.238-1.134 0-.868.378-1.358a1.98 1.98 0 0 1 1.008-.686q.63-.21 1.372-.21.49 0 1.008.056a14 14 0 0 1 1.75.252l-.056 1.414a12 12 0 0 0-.812-.098 16 16 0 0 0-1.68-.112q-.322 0-.574.07a.8.8 0 0 0-.392.196q-.126.14-.126.42 0 .196.112.322.113.126.42.224.322.084.924.168.869.126 1.386.35.518.224.742.644.238.42.238 1.134 0 .84-.336 1.344t-.98.728-1.568.224m6.644 0q-.462 0-.994-.056a14 14 0 0 1-1.75-.252l.056-1.386q.365.042.812.098.462.056.896.098.449.028.728.028.42 0 .686-.07.28-.07.42-.224.14-.168.14-.476 0-.238-.126-.364-.112-.126-.448-.21a7 7 0 0 0-.952-.196q-.783-.112-1.302-.322-.504-.21-.742-.616-.237-.42-.238-1.134 0-.868.378-1.358a1.98 1.98 0 0 1 1.008-.686q.63-.21 1.372-.21.49 0 1.008.056a14 14 0 0 1 1.75.252l-.056 1.414a12 12 0 0 0-.812-.098 16 16 0 0 0-1.68-.112q-.322 0-.574.07a.8.8 0 0 0-.392.196q-.126.14-.126.42a.47.47 0 0 0 .112.322q.113.126.42.224.322.084.924.168.869.126 1.386.35.519.224.742.644.238.42.238 1.134 0 .84-.336 1.344t-.98.728-1.568.224m4.111-.154v-7.028h1.862V699zm0-8.148v-1.596h1.876v1.596zm3.418 8.148v-7.028h1.862v.448q.223-.14.546-.266.322-.14.672-.238.364-.098.7-.098.728 0 1.204.196.49.182.77.602t.406 1.106q.126.672.126 1.638V699h-1.876v-3.542q0-.728-.084-1.162-.084-.448-.322-.644t-.7-.196q-.252 0-.532.056-.266.042-.518.126a3 3 0 0 0-.392.168V699zm9.572.154q-1.091 0-1.652-.546-.546-.56-.546-1.68 0-.784.28-1.218a1.56 1.56 0 0 1 .826-.644q.56-.21 1.358-.252l1.708-.154v-.42q0-.504-.252-.7-.252-.21-.742-.21-.391 0-.91.028-.504.028-1.008.07-.49.042-.854.084l-.056-1.316q.364-.084.868-.168.519-.098 1.078-.154.56-.056 1.036-.056.897 0 1.498.224.603.224.91.742.309.504.308 1.372v3.206a.42.42 0 0 0 .21.308q.183.098.42.14l-.042 1.288h-.448q-.21.014-.406 0-.195 0-.35-.028a1.7 1.7 0 0 1-.56-.168 1.7 1.7 0 0 1-.364-.266q-.224.098-.602.224a6 6 0 0 1-.826.21 4.6 4.6 0 0 1-.882.084m.448-1.386q.266 0 .56-.056a7 7 0 0 0 .546-.126 4 4 0 0 0 .42-.154v-1.61l-1.428.126q-.462.042-.672.28-.196.224-.196.644t.182.658q.196.238.588.238m7.428 1.4q-.77 0-1.246-.224t-.686-.77q-.196-.56-.196-1.554v-3.094h-.826v-1.554h.826v-1.862h1.862v1.862h1.792v1.554h-1.792v2.604q0 .546.042.854.057.308.224.434.168.126.518.126.099 0 .294-.014l.392-.028q.196-.014.322-.028l.056 1.498q-.21.042-.518.084a13 13 0 0 1-.588.07 3 3 0 0 1-.476.042m4.808-.014q-.91 0-1.414-.378-.49-.391-.7-1.176-.196-.785-.196-1.974v-3.654h1.862v3.57q0 .742.07 1.176.084.434.322.616.237.182.686.182.434 0 .812-.112.377-.112.602-.224v-5.208h1.862V699h-1.848v-.434a6 6 0 0 1-.952.434q-.462.154-1.106.154m5.443-.154v-7.028h1.862v.826q.239-.181.588-.378a6 6 0 0 1 .756-.378q.42-.182.798-.238v1.806a4.5 4.5 0 0 0-.77.196 8 8 0 0 0-.77.28q-.35.154-.602.28V699zm6.811.154q-1.092 0-1.652-.546-.546-.56-.546-1.68 0-.784.28-1.218.28-.448.826-.644.56-.21 1.358-.252l1.708-.154v-.42q0-.504-.252-.7-.253-.21-.742-.21-.393 0-.91.028-.504.028-1.008.07a29 29 0 0 0-.854.084l-.056-1.316a15 15 0 0 1 .868-.168 12.4 12.4 0 0 1 2.114-.21q.895 0 1.498.224.601.224.91.742.308.504.308 1.372v3.206a.42.42 0 0 0 .21.308q.182.098.42.14l-.042 1.288h-.448q-.21.014-.406 0-.197 0-.35-.028a1.6 1.6 0 0 1-.56-.168 1.7 1.7 0 0 1-.364-.266q-.225.098-.602.224a6 6 0 0 1-.826.21q-.435.084-.882.084m.448-1.386q.266 0 .56-.056a7 7 0 0 0 .546-.126q.265-.084.42-.154v-1.61l-1.428.126q-.462.042-.672.28-.196.224-.196.644t.182.658q.195.238.588.238"/>
  </g>
  <defs>
    <clipPath id="a">
      <rect width="393" height="851" fill="#fff" rx="16"/>
    </clipPath>
    <clipPath id="b">
      <path fill="#fff" d="M179 154h36v36h-36z"/>
    </clipPath>
    <clipPath id="d">
      <path fill="#fff" d="M104 403h16v16h-16z"/>
    </clipPath>
    <clipPath id="e">
      <path fill="#fff" d="M42 521h24v24H42z"/>
    </clipPath>
    <clipPath id="f">
      <path fill="#fff" d="M42 609h24v24H42z"/>
    </clipPath>
    <clipPath id="g">
      <path fill="#fff" d="M128.636 689.636h8.727v8.727h-8.727z"/>
    </clipPath>
    <filter id="c" width="401.8" height="88.8" x="-4.4" y="370.6" color-interpolation-filters="sRGB" filterUnits="userSpaceOnUse">
      <feFlood flood-opacity="0" result="BackgroundImageFix"/>
      <feColorMatrix in="SourceAlpha" result="hardAlpha" values="0 0 0 0 0 0 0 0 0 0 0 0 0 0 0 0 0 0 127 0"/>
      <feOffset dy="4"/>
      <feGaussianBlur stdDeviation="10.2"/>
      <feComposite in2="hardAlpha" operator="out"/>
      <feColorMatrix values="0 0 0 0 0.176471 0 0 0 0 0.466667 0 0 0 0 0.890196 0 0 0 0.16 0"/>
      <feBlend in2="BackgroundImageFix" result="effect1_dropShadow_43_2337"/>
      <feBlend in="SourceGraphic" in2="effect1_dropShadow_43_2337" result="shape"/>
    </filter>
  </defs>
</svg>
