<svg xmlns="http://www.w3.org/2000/svg" width="393" height="1003" fill="none" viewBox="0 0 393 1003">
  <g clip-path="url(#a)">
    <rect width="393" height="1003" fill="#f7fafd" rx="16"/>
    <path fill="#1b1b1b" d="M60.496 22.945c2.406 0 4.5 1.711 4.5 5.774v.015c0 3.797-1.711 6.047-4.547 6.047-2.07 0-3.617-1.226-3.977-2.953l-.015-.086h1.984l.023.078c.297.79.993 1.305 1.985 1.305 1.789 0 2.547-1.75 2.633-3.906 0-.086.007-.172.007-.258h-.156c-.414.89-1.398 1.68-2.945 1.68-2.164 0-3.68-1.578-3.68-3.72v-.015c0-2.289 1.742-3.96 4.188-3.96m-.008 6.149c1.273 0 2.25-.922 2.25-2.196v-.015c0-1.29-.977-2.297-2.227-2.297a2.227 2.227 0 0 0-2.234 2.25v.016c0 1.304.93 2.242 2.21 2.242m7.734-1.899a1.22 1.22 0 0 1-1.242-1.234c0-.695.532-1.234 1.242-1.234.72 0 1.243.539 1.243 1.234 0 .687-.524 1.234-1.243 1.234m0 5.797c-.71 0-1.242-.539-1.242-1.234s.532-1.235 1.242-1.235c.72 0 1.243.54 1.243 1.235s-.524 1.234-1.243 1.234m8.696 1.508v-2.164h-5.516v-1.648c1.461-2.54 3.063-5.133 4.594-7.461h2.852v7.445h1.515v1.664h-1.515V34.5zm-3.64-3.781h3.671v-5.883h-.117a117 117 0 0 0-3.554 5.766zM84.715 34.5v-9.29h-.133l-2.804 1.985v-1.898l2.945-2.07h2.008V34.5z"/>
    <rect width="125" height="37" x="134" y="11" fill="#1b1b1b" rx="18.5"/>
    <rect width="80" height="37" x="134" y="11" fill="#1b1b1b" rx="18.5"/>
    <rect width="37" height="37" x="222" y="11" fill="#1b1b1b" rx="18.5"/>
    <path fill="#1b1b1b" d="M291.3 26a1 1 0 0 1 1-1h1a1 1 0 0 1 1 1v8a1 1 0 0 1-1 1h-1a1 1 0 0 1-1-1zM296.3 24a1 1 0 0 1 1-1h1a1 1 0 0 1 1 1v10a1 1 0 0 1-1 1h-1a1 1 0 0 1-1-1zM286.3 29.5a1 1 0 0 1 1-1h1a1 1 0 0 1 1 1V34a1 1 0 0 1-1 1h-1a1 1 0 0 1-1-1zM281.3 32a1 1 0 0 1 1-1h1a1 1 0 0 1 1 1v2a1 1 0 0 1-1 1h-1a1 1 0 0 1-1-1zM313.415 31.919a3.75 3.75 0 0 1 4.919 0 .363.363 0 0 1 .011.52l-2.224 2.29a.34.34 0 0 1-.493 0l-2.224-2.29a.363.363 0 0 1 .011-.52m-3.006-2.74a7.85 7.85 0 0 1 10.856 0 .37.37 0 0 1 .005.521l-1.286 1.325a.34.34 0 0 1-.482.007 5.4 5.4 0 0 0-3.666-1.442 5.4 5.4 0 0 0-3.664 1.442.34.34 0 0 1-.483-.007l-1.285-1.325a.37.37 0 0 1 .005-.521m-3.002-2.737a11.95 11.95 0 0 1 16.785 0 .37.37 0 0 1 .108.26c0 .096-.038.19-.105.259l-1.286 1.325a.34.34 0 0 1-.482.004 9.52 9.52 0 0 0-6.627-2.702 9.52 9.52 0 0 0-6.627 2.702.34.34 0 0 1-.483-.004l-1.287-1.325a.37.37 0 0 1-.103-.26c0-.097.039-.19.107-.259"/>
    <path stroke="#1b1b1b" d="M336.3 23.5h17a3.5 3.5 0 0 1 3.5 3.5v5a3.5 3.5 0 0 1-3.5 3.5h-17a3.5 3.5 0 0 1-3.5-3.5v-5a3.5 3.5 0 0 1 3.5-3.5Z" opacity=".35"/>
    <path fill="#1b1b1b" d="M358.3 28v4.22a2.29 2.29 0 0 0 0-4.22" opacity=".4"/>
    <path fill="#1b1b1b" d="M334.3 27a2 2 0 0 1 2-2h17a2 2 0 0 1 2 2v5a2 2 0 0 1-2 2h-17a2 2 0 0 1-2-2z"/>
    <path stroke="#1b1b1b" stroke-linecap="round" stroke-linejoin="round" stroke-width="1.5" d="M21 82h13M21 82l5-5M21 82l5 5"/>
    <path fill="#1b1b1b" d="M53.008 88V77.072h3.552l2.208 7.296 2.16-7.296h3.6V88H62.32v-8.096h-.224l-2.288 7.808h-2.08l-2.288-7.808h-.224V88zm16.573.176q-1.328 0-2.112-.448-.768-.448-1.104-1.36t-.336-2.288q0-1.488.416-2.432.432-.944 1.248-1.392.816-.465 2.016-.464 1.776 0 2.672.896.912.895.912 2.832l-.096 1.184h-5.024q.015.895.368 1.344.352.448 1.216.448.496 0 1.088-.016l1.168-.064q.592-.032 1.008-.064l.048 1.488q-.4.064-1.008.144t-1.264.128q-.64.064-1.216.064m-1.408-4.832h2.992q0-1.088-.352-1.52-.336-.432-1.104-.432-.512 0-.848.192t-.512.624-.176 1.136m.592-4.576-.928-1.2 3.12-1.584 1.216 1.616zm8.728 9.424q-.88 0-1.424-.256-.544-.255-.784-.88-.225-.64-.224-1.776v-3.536h-.944v-1.776h.944V77.84h2.128v2.128h2.048v1.776h-2.048v2.976q0 .624.048.976.064.352.256.496t.592.144q.112 0 .336-.016l.448-.032q.225-.015.368-.032l.064 1.712q-.24.048-.592.096a14 14 0 0 1-.672.08 4 4 0 0 1-.544.048m6.39-.016q-1.36 0-2.192-.448-.816-.448-1.184-1.376-.368-.944-.368-2.432 0-1.44.384-2.336.384-.912 1.216-1.344.832-.448 2.144-.448 1.328 0 2.144.448.832.432 1.216 1.344.4.896.4 2.336 0 1.488-.368 2.432-.369.928-1.2 1.376-.816.448-2.192.448m0-1.76q.672 0 1.008-.24.336-.255.448-.8.128-.56.128-1.456 0-.88-.144-1.392-.144-.528-.48-.752-.336-.225-.96-.224-.607 0-.96.224-.336.225-.48.752-.144.511-.144 1.392 0 .896.112 1.456.128.545.464.8.336.24 1.008.24m7.92 1.76q-.576 0-1.056-.144a2.3 2.3 0 0 1-.848-.416 2.7 2.7 0 0 1-.608-.784q-.24-.48-.368-1.168a9 9 0 0 1-.128-1.632q0-1.375.336-2.32.351-.944 1.104-1.424.752-.495 2-.496.24 0 .56.032.32.016.624.064.303.032.496.064v-3.264h2.144V88h-2.112l-.016-.464a6 6 0 0 1-.592.288 5 5 0 0 1-.752.24 3 3 0 0 1-.784.112m.544-1.792q.288 0 .576-.064.304-.064.56-.144.272-.096.432-.176v-4.304a3 3 0 0 0-.384-.048 7 7 0 0 0-.496-.048 4 4 0 0 0-.464-.032q-.625 0-.976.288-.336.288-.48.848-.144.544-.144 1.328 0 .689.096 1.152.095.448.272.72.192.255.448.368.255.112.56.112m8.927 1.792q-1.36 0-2.192-.448-.817-.448-1.184-1.376-.368-.944-.368-2.432 0-1.44.383-2.336.385-.912 1.216-1.344.832-.448 2.145-.448 1.328 0 2.144.448.832.432 1.216 1.344.4.896.4 2.336 0 1.488-.368 2.432-.369.928-1.2 1.376-.816.448-2.192.448m0-1.76q.672 0 1.008-.24.336-.255.448-.8.128-.56.128-1.456 0-.88-.144-1.392-.144-.528-.48-.752-.336-.225-.96-.224-.609 0-.96.224-.336.225-.48.752-.145.511-.145 1.392 0 .896.113 1.456.128.545.464.8.336.24 1.008.24m8.111 1.76q-.528 0-1.136-.064a15.599 15.599 0 0 1-2-.288l.064-1.584q.417.048.928.112.529.064 1.024.112.513.032.832.032.48 0 .784-.08.321-.08.48-.256.16-.192.16-.544 0-.272-.144-.416-.128-.144-.512-.24a8.5 8.5 0 0 0-1.088-.224q-.895-.128-1.488-.368-.575-.24-.848-.704-.272-.48-.272-1.296 0-.992.432-1.552a2.26 2.26 0 0 1 1.152-.784q.72-.24 1.568-.24.561 0 1.152.064.592.048 1.12.128t.88.16l-.064 1.616q-.4-.064-.928-.112a18 18 0 0 0-1.92-.128q-.368 0-.656.08a.9.9 0 0 0-.448.224q-.144.16-.144.48 0 .225.128.368.129.144.48.256.369.096 1.056.192.993.144 1.584.4.593.255.848.736.272.48.272 1.296 0 .96-.384 1.536t-1.12.832q-.735.255-1.792.256m8.311-.176V77.072h4.176q1.28 0 2.144.368.88.352 1.408 1.04t.752 1.664q.24.976.24 2.224 0 1.264-.224 2.288-.209 1.025-.72 1.776-.513.751-1.376 1.168-.864.4-2.16.4zm2.208-1.856h1.904q.751 0 1.216-.288t.704-.8q.255-.528.336-1.2.096-.689.096-1.488 0-.768-.096-1.392a3.1 3.1 0 0 0-.352-1.088 1.6 1.6 0 0 0-.704-.704q-.448-.256-1.2-.256h-1.904zm11.287 2.032q-1.329 0-2.112-.448-.768-.448-1.104-1.36t-.336-2.288q0-1.488.416-2.432.432-.944 1.248-1.392.816-.465 2.016-.464 1.775 0 2.672.896.912.895.912 2.832l-.096 1.184h-5.024q.015.895.368 1.344.351.448 1.216.448.495 0 1.088-.016l1.168-.064q.591-.032 1.008-.064l.048 1.488q-.4.064-1.008.144-.609.08-1.264.128-.64.064-1.216.064m-1.408-4.832h2.992q0-1.088-.352-1.52-.336-.432-1.104-.432-.512 0-.848.192t-.512.624-.176 1.136M139.93 88V77.072h4.112q1.36 0 2.256.384a2.6 2.6 0 0 1 1.344 1.2q.464.832.464 2.224t-.464 2.272a2.8 2.8 0 0 1-1.344 1.28q-.895.4-2.256.4h-1.904V88zm2.208-4.976h1.84q1.008 0 1.44-.528.432-.544.432-1.6 0-1.088-.432-1.552-.432-.465-1.44-.464h-1.84zm9.197 5.152q-1.248 0-1.888-.624-.624-.64-.624-1.92 0-.895.32-1.392.32-.512.944-.736.64-.24 1.552-.288l1.952-.176v-.48q0-.576-.288-.8-.287-.24-.848-.24-.447 0-1.04.032-.576.032-1.152.08-.56.048-.976.096l-.064-1.504q.416-.096.992-.192a14 14 0 0 1 1.232-.176q.64-.064 1.184-.064 1.025 0 1.712.256.689.255 1.04.848.352.576.352 1.568v3.664q.033.225.24.352.208.112.48.16l-.048 1.472h-.512q-.24.015-.464 0-.223 0-.4-.032a1.9 1.9 0 0 1-.64-.192 2 2 0 0 1-.416-.304q-.255.112-.688.256a7 7 0 0 1-.944.24q-.495.096-1.008.096m.512-1.584q.304 0 .64-.064t.624-.144a4 4 0 0 0 .48-.176v-1.84l-1.632.144q-.528.048-.768.32-.224.255-.224.736 0 .48.208.752.225.272.672.272m9.225 5.072q-1.28 0-2.144-.192-.848-.192-1.28-.704-.432-.495-.432-1.44 0-.416.112-.752.129-.32.384-.608.273-.288.672-.592a1.2 1.2 0 0 1-.368-.464 1.8 1.8 0 0 1-.128-.688q0-.127.112-.336.113-.225.272-.464t.304-.432a2.2 2.2 0 0 1-.608-.416 2.3 2.3 0 0 1-.48-.768q-.176-.48-.176-1.232 0-1.025.384-1.632.4-.608 1.152-.88.753-.272 1.824-.272.417 0 .896.064t.768.128l2.608-.048v1.44l-1.216-.016q.144.192.256.496.129.288.128.72 0 1.104-.384 1.712-.367.608-1.12.848-.752.225-1.904.224-.127 0-.352-.016a12 12 0 0 0-.368-.048q-.063.16-.128.368a1 1 0 0 0-.064.272q0 .176.064.272a.6.6 0 0 0 .272.16q.208.048.592.064.4.016 1.056.016 1.137 0 1.808.208.688.208.976.736t.288 1.488q0 1.424-1.008 2.096-.992.688-2.768.688m-.112-1.584q.993 0 1.424-.24.448-.225.448-.752 0-.416-.16-.608-.144-.192-.496-.256a7.5 7.5 0 0 0-.96-.048q-.159 0-.384-.016-.224 0-.464-.016a5 5 0 0 1-.416-.016 3 3 0 0 0-.256-.016 3 3 0 0 0-.368.304 1.2 1.2 0 0 0-.192.288 1.4 1.4 0 0 0-.048.384q0 .368.176.576.177.225.576.32.417.096 1.12.096m-.272-6.224q.737 0 1.04-.288.32-.304.32-.992 0-.689-.32-.992-.303-.304-1.04-.304-.703 0-1.024.304-.304.304-.304.992 0 .689.304.992.32.288 1.024.288m7.476 4.32q-1.248 0-1.888-.624-.624-.64-.624-1.92 0-.895.32-1.392.32-.512.944-.736.64-.24 1.552-.288l1.952-.176v-.48q0-.576-.288-.8-.288-.24-.848-.24-.449 0-1.04.032-.576.032-1.152.08-.56.048-.976.096l-.064-1.504q.416-.096.992-.192.591-.112 1.232-.176.64-.064 1.184-.064 1.023 0 1.712.256.687.255 1.04.848.352.576.352 1.568v3.664q.031.225.24.352.207.112.48.16l-.048 1.472h-.512q-.24.015-.464 0-.225 0-.4-.032a1.9 1.9 0 0 1-.64-.192 1.9 1.9 0 0 1-.416-.304 9 9 0 0 1-.688.256 7 7 0 0 1-.944.24 5.3 5.3 0 0 1-1.008.096m.512-1.584q.303 0 .64-.064.336-.064.624-.144.303-.096.48-.176v-1.84l-1.632.144q-.528.048-.768.32-.225.255-.224.736 0 .48.208.752.223.272.672.272M174.443 88v-8.032h2.128v.512q.24-.16.608-.304.368-.16.768-.272.416-.112.8-.112.735 0 1.2.208.464.192.768.576.288-.176.72-.352t.943-.304q.513-.128.993-.128.879 0 1.44.24.576.225.896.72.32.48.448 1.248.128.752.128 1.824V88h-2.128v-3.984q0-.833-.096-1.344-.08-.528-.352-.768-.256-.24-.784-.24-.288 0-.608.064a3.2 3.2 0 0 0-1.008.32q.08.336.112.864.048.528.048 1.104V88h-2.128v-3.952q0-.848-.096-1.376-.08-.528-.352-.768-.273-.24-.784-.24-.288 0-.592.064-.288.048-.544.144-.24.096-.4.176V88zm16.779.176q-1.329 0-2.112-.448-.768-.448-1.104-1.36t-.336-2.288q0-1.488.416-2.432.432-.944 1.248-1.392.816-.465 2.016-.464 1.775 0 2.672.896.912.895.912 2.832l-.096 1.184h-5.024q.015.895.368 1.344.351.448 1.216.448.495 0 1.088-.016l1.168-.064q.591-.032 1.008-.064l.048 1.488q-.4.064-1.008.144-.609.08-1.264.128-.64.064-1.216.064m-1.408-4.832h2.992q0-1.088-.352-1.52-.336-.432-1.104-.432-.513 0-.848.192-.336.192-.512.624-.177.432-.176 1.136M196.349 88v-8.032h2.128v.512q.255-.16.624-.304.368-.16.768-.272.416-.112.8-.112.831 0 1.376.224.56.208.88.688t.464 1.264q.144.768.144 1.872V88h-2.144v-4.048q0-.832-.096-1.328-.096-.512-.368-.736-.272-.225-.8-.224-.288 0-.608.064-.304.048-.592.144a3 3 0 0 0-.448.192V88zm11.628.192q-.88 0-1.424-.256-.543-.255-.784-.88-.224-.64-.224-1.776v-3.536h-.944v-1.776h.944V77.84h2.128v2.128h2.048v1.776h-2.048v2.976q0 .624.048.976.064.352.256.496t.592.144q.113 0 .336-.016l.448-.032q.224-.015.368-.032l.064 1.712q-.24.048-.592.096a14 14 0 0 1-.672.08 4 4 0 0 1-.544.048m6.39-.016q-1.36 0-2.192-.448-.815-.448-1.184-1.376-.368-.944-.368-2.432 0-1.44.384-2.336.385-.912 1.216-1.344.833-.448 2.144-.448 1.329 0 2.144.448.832.432 1.216 1.344.4.896.4 2.336 0 1.488-.368 2.432-.368.928-1.2 1.376-.815.448-2.192.448m0-1.76q.672 0 1.008-.24.337-.255.448-.8.129-.56.128-1.456 0-.88-.144-1.392-.144-.528-.48-.752-.336-.225-.96-.224-.607 0-.96.224-.336.225-.48.752-.144.511-.144 1.392 0 .896.112 1.456.129.545.464.8.336.24 1.008.24"/>
    <rect width="360" height="173" x="16.5" y="113.5" fill="#fff" rx="19.5"/>
    <rect width="360" height="173" x="16.5" y="113.5" stroke="#ecf1f8" rx="19.5"/>
    <path fill="#4c4c4c" d="M33.316 266v-9.8h4.032q1.302 0 2.226.42.938.42 1.442 1.204t.504 1.862-.504 1.862-1.442 1.204q-.924.42-2.226.42h-3.024l.812-.854V266zm1.82-3.486-.812-.882h2.94q1.204 0 1.806-.504.615-.518.616-1.442 0-.938-.616-1.442-.602-.504-1.806-.504h-2.94l.812-.896zM43.101 266v-7.476h1.666v2.058l-.196-.602a2.37 2.37 0 0 1 1.05-1.148q.728-.392 1.806-.392v1.666a1 1 0 0 0-.21-.028 1.4 1.4 0 0 0-.196-.014q-.994 0-1.582.588-.588.575-.588 1.722V266zm9.102.098q-1.147 0-2.044-.49a3.76 3.76 0 0 1-1.414-1.372q-.518-.869-.518-1.974 0-1.12.518-1.974a3.66 3.66 0 0 1 1.414-1.358q.897-.49 2.044-.49 1.162 0 2.058.49a3.57 3.57 0 0 1 1.414 1.344q.519.854.518 1.988 0 1.106-.518 1.974a3.63 3.63 0 0 1-1.414 1.372q-.896.49-2.058.49m0-1.498q.644 0 1.148-.28.505-.28.784-.812.294-.532.294-1.246 0-.728-.294-1.246a1.94 1.94 0 0 0-.784-.812 2.3 2.3 0 0 0-1.134-.28q-.644 0-1.148.28a2.05 2.05 0 0 0-.784.812q-.294.518-.294 1.246 0 .714.294 1.246t.784.812q.504.28 1.134.28m-1.19-7.098 1.89-1.918h2.058l-2.436 1.918zM56.6 266l3.29-4.284-.028.938-3.136-4.13h1.946l2.198 2.94h-.742l2.212-2.94h1.89l-3.164 4.13.014-.938L64.355 266H62.38l-2.31-3.122.728.098L58.53 266zm9.047 0v-7.476h1.75V266zm.882-8.708a1.13 1.13 0 0 1-.812-.308 1 1 0 0 1-.308-.742q0-.448.308-.742a1.13 1.13 0 0 1 .812-.308q.49 0 .798.294a.9.9 0 0 1 .322.714q0 .462-.308.784-.308.308-.812.308m12.6 1.148q.897 0 1.583.35.7.35 1.092 1.078.392.714.392 1.848V266h-1.75v-4.06q0-.994-.434-1.484-.435-.49-1.246-.49-.574 0-1.022.252-.434.252-.686.742-.238.49-.238 1.246V266h-1.75v-4.06q0-.994-.434-1.484-.435-.49-1.246-.49-.574 0-1.022.252-.435.252-.686.742-.238.49-.238 1.246V266h-1.75v-7.476h1.666v1.988l-.294-.588a2.55 2.55 0 0 1 1.092-1.106q.728-.378 1.652-.378 1.05 0 1.82.518.784.518 1.036 1.568l-.686-.238q.364-.84 1.204-1.344t1.946-.504m9.91 7.56v-1.512l-.099-.322v-2.646q0-.77-.462-1.19-.462-.434-1.4-.434-.63 0-1.246.196a3.1 3.1 0 0 0-1.022.546l-.686-1.274a4.1 4.1 0 0 1 1.428-.686 6.3 6.3 0 0 1 1.736-.238q1.624 0 2.506.784.896.77.896 2.394V266zm-2.353.098q-.84 0-1.47-.28a2.4 2.4 0 0 1-.98-.798 2.1 2.1 0 0 1-.336-1.162q0-.63.294-1.134.309-.504.994-.798.686-.294 1.82-.294h2.17v1.162h-2.044q-.895 0-1.204.294a.9.9 0 0 0-.308.7q0 .476.378.756t1.05.28q.645 0 1.148-.294.519-.294.742-.868l.294 1.05q-.252.658-.91 1.022-.644.364-1.638.364M97.042 266v-7.896q0-1.176.686-1.876.7-.714 1.988-.714.463 0 .868.098.42.098.7.308l-.476 1.316a1.3 1.3 0 0 0-.448-.224 1.6 1.6 0 0 0-.518-.084q-.547 0-.826.308-.28.294-.28.896v.84l.056.784V266zm-1.232-6.02v-1.4h4.984v1.4zm10.632 6.02v-1.512l-.098-.322v-2.646q0-.77-.462-1.19-.462-.434-1.4-.434-.63 0-1.246.196a3.1 3.1 0 0 0-1.022.546l-.686-1.274a4.1 4.1 0 0 1 1.428-.686 6.3 6.3 0 0 1 1.736-.238q1.623 0 2.506.784.896.77.896 2.394V266zm-2.352.098q-.84 0-1.47-.28a2.4 2.4 0 0 1-.98-.798 2.1 2.1 0 0 1-.336-1.162q0-.63.294-1.134.307-.504.994-.798.686-.294 1.82-.294h2.17v1.162h-2.044q-.897 0-1.204.294a.9.9 0 0 0-.308.7q0 .476.378.756t1.05.28q.644 0 1.148-.294.517-.294.742-.868l.294 1.05q-.252.658-.91 1.022-.645.364-1.638.364m9.063 0q-1.232 0-1.904-.63-.672-.644-.672-1.89v-6.706h1.75v6.664q0 .532.266.826.28.294.77.294.588 0 .98-.308l.49 1.246a2.05 2.05 0 0 1-.756.378 3.4 3.4 0 0 1-.924.126m-3.808-6.118v-1.4h4.984v1.4zm10.092 6.118q-.953 0-1.68-.35a2.6 2.6 0 0 1-1.134-1.092q-.406-.742-.406-1.862v-4.27h1.75v4.032q0 1.008.448 1.512.462.49 1.302.49.616 0 1.064-.252a1.7 1.7 0 0 0 .714-.756q.266-.504.266-1.246v-3.78h1.75V266h-1.666v-2.016l.294.616a2.6 2.6 0 0 1-1.106 1.12 3.4 3.4 0 0 1-1.596.378m6.365-.098v-7.476h1.666v2.058l-.196-.602a2.37 2.37 0 0 1 1.05-1.148q.729-.392 1.806-.392v1.666a.8.8 0 0 0-.21-.028 1.4 1.4 0 0 0-.196-.014q-.994 0-1.582.588-.588.575-.588 1.722V266zm9.884 0v-1.512l-.098-.322v-2.646q0-.77-.462-1.19-.462-.434-1.4-.434-.63 0-1.246.196a3.1 3.1 0 0 0-1.022.546l-.686-1.274a4.1 4.1 0 0 1 1.428-.686 6.3 6.3 0 0 1 1.736-.238q1.623 0 2.506.784.896.77.896 2.394V266zm-2.352.098q-.84 0-1.47-.28a2.4 2.4 0 0 1-.98-.798 2.1 2.1 0 0 1-.336-1.162q0-.63.294-1.134.307-.504.994-.798.686-.294 1.82-.294h2.17v1.162h-2.044q-.897 0-1.204.294a.9.9 0 0 0-.308.7q0 .476.378.756t1.05.28q.644 0 1.148-.294.517-.294.742-.868l.294 1.05q-.252.658-.91 1.022-.645.364-1.638.364m6.81-5.334q-.477 0-.812-.322a1.14 1.14 0 0 1-.336-.84q0-.533.336-.84.335-.322.812-.322.476 0 .812.322.336.307.336.84 0 .504-.336.84a1.13 1.13 0 0 1-.812.322m0 5.334q-.477 0-.812-.322a1.14 1.14 0 0 1-.336-.84q0-.532.336-.84.335-.322.812-.322.476 0 .812.322.336.308.336.84 0 .504-.336.84a1.13 1.13 0 0 1-.812.322m7.763-.098v-9.1l.798.826h-2.87V256.2h3.892v9.8zm7.012.14a7.1 7.1 0 0 1-2.03-.294q-.98-.308-1.652-.84l.77-1.414q.531.434 1.288.7a4.9 4.9 0 0 0 1.596.266q.966 0 1.512-.406.56-.406.56-1.092 0-.462-.238-.812-.224-.35-.812-.532-.574-.182-1.582-.182h-2.366l.504-5.334h5.754v1.526h-5.082l.952-.868-.378 3.99-.952-.854h1.974q1.456 0 2.338.392.896.378 1.302 1.064.42.672.42 1.54 0 .854-.42 1.568t-1.288 1.148q-.855.434-2.17.434m14.089 0a5.8 5.8 0 0 1-2.114-.378 5.2 5.2 0 0 1-1.68-1.05 4.8 4.8 0 0 1-1.106-1.596 5.1 5.1 0 0 1-.392-2.016q0-1.092.392-2.002a4.7 4.7 0 0 1 1.106-1.596 5.1 5.1 0 0 1 1.68-1.064 5.7 5.7 0 0 1 2.1-.378q1.147 0 2.1.378a5.1 5.1 0 0 1 1.68 1.064q.714.672 1.106 1.596.392.91.392 2.002t-.392 2.016a4.7 4.7 0 0 1-1.106 1.596 5.2 5.2 0 0 1-1.68 1.05 5.6 5.6 0 0 1-2.086.378m-.014-1.596q.742 0 1.372-.252t1.092-.714q.462-.476.714-1.092.266-.63.266-1.386t-.266-1.372a3.2 3.2 0 0 0-.714-1.092 3.1 3.1 0 0 0-1.092-.728 3.7 3.7 0 0 0-1.372-.252 3.7 3.7 0 0 0-1.372.252 3.3 3.3 0 0 0-1.092.728 3.4 3.4 0 0 0-.728 1.092 3.6 3.6 0 0 0-.252 1.372q0 .742.252 1.372.266.63.728 1.106.462.462 1.092.714t1.372.252m10.203 1.554q-.952 0-1.68-.35a2.6 2.6 0 0 1-1.134-1.092q-.406-.742-.406-1.862v-4.27h1.75v4.032q0 1.008.448 1.512.462.49 1.302.49.615 0 1.064-.252a1.7 1.7 0 0 0 .714-.756q.266-.504.266-1.246v-3.78h1.75V266h-1.666v-2.016l.294.616a2.6 2.6 0 0 1-1.106 1.12 3.4 3.4 0 0 1-1.596.378m9.179 0q-1.232 0-1.904-.63-.672-.644-.672-1.89v-6.706h1.75v6.664q0 .532.266.826.28.294.77.294.588 0 .98-.308l.49 1.246a2.05 2.05 0 0 1-.756.378 3.4 3.4 0 0 1-.924.126m-3.808-6.118v-1.4h4.984v1.4z"/>
    <path fill="#1b1b1b" d="M290.316 210v-9.8h4.032q1.302 0 2.226.42.938.42 1.442 1.204t.504 1.862-.504 1.862q-.504.77-1.442 1.19-.924.406-2.226.406h-3.024l.812-.826V210zm6.412 0-2.478-3.556h1.946l2.492 3.556zm-4.592-3.486-.812-.868h2.94q1.204 0 1.806-.518.616-.518.616-1.442 0-.938-.616-1.442-.602-.504-1.806-.504h-2.94l.812-.896zm11.024 5.166v-13.16h1.148v13.16zm.434-1.54a7.5 7.5 0 0 1-2.198-.322q-1.05-.336-1.666-.854l.63-1.414q.588.462 1.456.77a5.3 5.3 0 0 0 1.778.308q.77 0 1.246-.168.477-.168.7-.448.224-.294.224-.658a.88.88 0 0 0-.322-.714q-.321-.28-.84-.434a11 11 0 0 0-1.134-.308q-.616-.14-1.246-.322a6 6 0 0 1-1.134-.49 2.54 2.54 0 0 1-.826-.812q-.322-.504-.322-1.288 0-.798.42-1.456.435-.672 1.302-1.064.882-.406 2.226-.406.883 0 1.75.224a5 5 0 0 1 1.512.644l-.574 1.414a5.2 5.2 0 0 0-1.358-.574 5 5 0 0 0-1.344-.196q-.755 0-1.232.182-.462.182-.686.476-.21.294-.21.672a.94.94 0 0 0 .308.728q.322.266.826.42.519.154 1.148.308.63.14 1.246.322.63.182 1.134.476.519.294.826.798.322.504.322 1.274 0 .784-.434 1.456-.42.658-1.302 1.064-.882.392-2.226.392m10.504-.14v-9.1l.798.826h-2.87V200.2h3.892v9.8zm7.012.14a7.1 7.1 0 0 1-2.03-.294q-.98-.308-1.652-.84l.77-1.414a4.3 4.3 0 0 0 1.288.7 4.9 4.9 0 0 0 1.596.266q.966 0 1.512-.406.56-.406.56-1.092 0-.462-.238-.812-.224-.35-.812-.532-.574-.182-1.582-.182h-2.366l.504-5.334h5.754v1.526h-5.082l.952-.868-.378 3.99-.952-.854h1.974q1.456 0 2.338.392.895.378 1.302 1.064.42.672.42 1.54 0 .854-.42 1.568t-1.288 1.148q-.854.434-2.17.434m9.016 0a3.87 3.87 0 0 1-2.1-.588q-.924-.588-1.456-1.708-.532-1.134-.532-2.744t.532-2.73q.532-1.134 1.456-1.722a3.87 3.87 0 0 1 2.1-.588q1.176 0 2.1.588t1.456 1.722q.546 1.12.546 2.73t-.546 2.744q-.532 1.12-1.456 1.708t-2.1.588m0-1.582q.686 0 1.19-.364.504-.378.784-1.148.294-.77.294-1.946 0-1.19-.294-1.946-.28-.77-.784-1.134a1.93 1.93 0 0 0-1.19-.378q-.659 0-1.176.378-.504.364-.798 1.134-.28.756-.28 1.946 0 1.176.28 1.946.294.77.798 1.148.517.364 1.176.364m5.238 3.556.812-3.094.238 1.036a1.2 1.2 0 0 1-.826-.294q-.322-.308-.322-.826 0-.532.322-.84.335-.322.812-.322.49 0 .812.322t.322.84a2 2 0 0 1-.126.672q-.057.21-.196.532l-.714 1.974zm11.305-1.974a3.87 3.87 0 0 1-2.1-.588q-.924-.588-1.456-1.708-.532-1.134-.532-2.744t.532-2.73q.532-1.134 1.456-1.722a3.87 3.87 0 0 1 2.1-.588q1.176 0 2.1.588t1.456 1.722q.546 1.12.546 2.73t-.546 2.744q-.532 1.12-1.456 1.708t-2.1.588m0-1.582q.686 0 1.19-.364.504-.378.784-1.148.294-.77.294-1.946 0-1.19-.294-1.946-.28-.77-.784-1.134a1.93 1.93 0 0 0-1.19-.378q-.659 0-1.176.378-.504.364-.798 1.134-.28.756-.28 1.946 0 1.176.28 1.946.294.77.798 1.148.518.364 1.176.364m9.42 1.582a3.87 3.87 0 0 1-2.1-.588q-.924-.588-1.456-1.708-.532-1.134-.532-2.744t.532-2.73q.531-1.134 1.456-1.722a3.87 3.87 0 0 1 2.1-.588q1.176 0 2.1.588t1.456 1.722q.546 1.12.546 2.73t-.546 2.744q-.532 1.12-1.456 1.708t-2.1.588m0-1.582q.686 0 1.19-.364.504-.378.784-1.148.294-.77.294-1.946 0-1.19-.294-1.946-.28-.77-.784-1.134a1.93 1.93 0 0 0-1.19-.378q-.659 0-1.176.378-.504.364-.798 1.134-.28.756-.28 1.946 0 1.176.28 1.946.294.77.798 1.148.518.364 1.176.364"/>
    <path stroke="#ecf1f8" d="M32 234.5h329"/>
    <path fill="#1b1b1b" d="M36.944 150.176q-1.28 0-2.112-.32a2.87 2.87 0 0 1-1.296-1.024q-.48-.688-.672-1.744-.176-1.072-.176-2.544 0-1.488.176-2.544.192-1.072.672-1.76t1.312-1.024q.847-.336 2.16-.336.528 0 1.104.064t1.104.16q.544.08.928.176l-.064 1.76a8 8 0 0 0-.8-.112q-.48-.065-.976-.096-.495-.032-.928-.032-.768 0-1.248.192t-.752.64q-.255.448-.352 1.168a13 13 0 0 0-.096 1.744q0 1.024.096 1.744.096.704.352 1.152.255.432.736.64.495.192 1.28.192.64 0 1.408-.064.784-.08 1.296-.144l.048 1.744q-.384.08-.912.176-.528.08-1.12.128-.592.064-1.168.064m7.892 0q-1.36 0-2.192-.448-.816-.448-1.184-1.376-.368-.944-.368-2.432 0-1.44.384-2.336.384-.912 1.216-1.344.833-.448 2.144-.448 1.328 0 2.144.448.832.432 1.216 1.344.4.896.4 2.336 0 1.488-.368 2.432-.367.928-1.2 1.376-.816.448-2.192.448m0-1.76q.672 0 1.008-.24.336-.256.448-.8.128-.56.128-1.456 0-.88-.144-1.392-.144-.528-.48-.752t-.96-.224q-.608 0-.96.224-.336.224-.48.752-.144.512-.144 1.392 0 .896.112 1.456.128.544.464.8.336.24 1.008.24m8.416 1.76q-.4 0-.976-.032a23 23 0 0 1-1.184-.096q-.593-.064-1.056-.112v-11.248h2.144v3.536q.24-.096.592-.192t.736-.16a4 4 0 0 1 .736-.08q1.12 0 1.776.464.672.448.96 1.344.288.895.288 2.256 0 1.6-.368 2.56-.352.944-1.232 1.36-.88.4-2.416.4m.016-1.792q.784 0 1.168-.272.383-.288.512-.848.144-.56.144-1.376 0-.832-.128-1.328-.128-.512-.432-.736-.288-.24-.816-.24-.255 0-.544.064a5 5 0 0 0-.56.128q-.256.064-.432.128v4.416q.24.016.56.048.32.016.528.016M58.739 150v-8.032h2.128v.944a6 6 0 0 1 .672-.432q.4-.24.864-.432.48-.208.912-.272v2.064q-.415.064-.88.224a9.5 9.5 0 0 0-1.568.64V150zm7.784.176q-1.248 0-1.888-.624-.624-.64-.624-1.92 0-.896.32-1.392a1.78 1.78 0 0 1 .944-.736q.64-.24 1.552-.288l1.952-.176v-.48q0-.576-.288-.8-.288-.24-.848-.24-.448 0-1.04.032a41 41 0 0 0-2.128.176l-.064-1.504q.416-.096.992-.192.591-.112 1.232-.176.64-.064 1.184-.064 1.023 0 1.712.256.688.256 1.04.848.352.576.352 1.568v3.664a.48.48 0 0 0 .24.352q.209.112.48.16l-.048 1.472h-.512q-.24.016-.464 0-.225 0-.4-.032a1.9 1.9 0 0 1-.64-.192 2 2 0 0 1-.416-.304q-.256.112-.688.256a7 7 0 0 1-.944.24q-.496.096-1.008.096m.512-1.584q.304 0 .64-.064.336-.065.624-.144a5 5 0 0 0 .48-.176v-1.84l-1.632.144q-.528.048-.768.32-.225.256-.224.736 0 .48.208.752.224.272.672.272M72.802 150v-8.032h2.128v.512q.255-.16.624-.304.368-.16.768-.272a3 3 0 0 1 .8-.112q.832 0 1.376.224.56.208.88.688t.464 1.264q.144.768.144 1.872V150h-2.144v-4.048q0-.832-.096-1.328-.096-.512-.368-.736t-.8-.224q-.288 0-.608.064-.304.048-.592.144-.271.096-.448.192V150zm12.124.176q-1.377 0-2.16-.416-.768-.432-1.088-1.376-.304-.944-.304-2.48 0-1.52.352-2.416.351-.912 1.136-1.296.8-.4 2.08-.4.336 0 .784.048.447.048.896.128.463.064.784.128l-.08 1.712a12 12 0 0 0-.688-.048 20 20 0 0 0-.752-.048 7 7 0 0 0-.576-.032q-.689 0-1.088.224-.385.208-.544.704-.144.48-.144 1.296 0 .88.144 1.408t.512.752q.384.224 1.12.224.223 0 .592-.016l.752-.064q.4-.031.704-.048l.064 1.712a14 14 0 0 1-.768.128q-.449.08-.912.128-.448.048-.816.048m.272 3.392q-.465 0-.928-.048a4 4 0 0 1-.704-.096l.048-.96q.095.016.416.016.336.016.528.016.336 0 .496-.128.16-.112.16-.368 0-.272-.16-.368-.16-.08-.496-.08h-.464v-1.632h.864v.752q.672 0 1.104.112.432.113.64.384.207.288.208.832 0 .833-.464 1.2-.449.368-1.248.368m5.7-3.392q-1.248 0-1.888-.624-.624-.64-.624-1.92 0-.896.32-1.392a1.78 1.78 0 0 1 .944-.736q.64-.24 1.552-.288l1.952-.176v-.48q0-.576-.288-.8-.288-.24-.848-.24-.448 0-1.04.032a41 41 0 0 0-2.128.176l-.064-1.504q.416-.096.992-.192.591-.112 1.232-.176.64-.064 1.184-.064 1.023 0 1.712.256.688.256 1.04.848.351.576.352 1.568v3.664a.48.48 0 0 0 .24.352q.209.112.48.16l-.048 1.472h-.512q-.24.016-.464 0-.225 0-.4-.032a1.9 1.9 0 0 1-.64-.192 2 2 0 0 1-.416-.304q-.255.112-.688.256a7 7 0 0 1-.944.24q-.496.096-1.008.096m.512-1.584q.304 0 .64-.064.336-.065.624-.144a5 5 0 0 0 .48-.176v-1.84l-1.632.144q-.528.048-.768.32-.225.256-.224.736 0 .48.208.752.224.272.672.272M99.973 150l2.784-10.928h3.856L109.381 150h-2.208l-.608-2.208h-3.824l-.576 2.208zm3.12-3.984h3.152l-1.232-5.152h-.672zm9.962 4.176q-.88 0-1.424-.256t-.784-.88q-.224-.64-.224-1.776v-3.536h-.944v-1.776h.944v-2.128h2.128v2.128h2.048v1.776h-2.048v2.976q0 .624.048.976.064.352.256.496.193.144.592.144.113 0 .336-.016l.448-.032q.225-.016.368-.032l.064 1.712q-.24.048-.592.096-.336.048-.672.08a4 4 0 0 1-.544.048m5.494-.016q-1.04 0-1.616-.432-.56-.448-.8-1.344-.224-.895-.224-2.256v-4.176h2.128v4.08q0 .847.08 1.344.096.496.368.704.273.208.784.208.496 0 .928-.128t.688-.256v-5.952h2.128V150h-2.112v-.496a7 7 0 0 1-1.088.496q-.528.176-1.264.176m8.318 0q-1.248 0-1.888-.624-.624-.64-.624-1.92 0-.896.32-1.392.32-.512.944-.736.64-.24 1.552-.288l1.952-.176v-.48q0-.576-.288-.8-.288-.24-.848-.24-.449 0-1.04.032a41 41 0 0 0-2.128.176l-.064-1.504q.416-.096.992-.192.591-.112 1.232-.176a12 12 0 0 1 1.184-.064q1.023 0 1.712.256.687.256 1.04.848.352.576.352 1.568v3.664a.48.48 0 0 0 .24.352q.207.112.48.16l-.048 1.472h-.512q-.24.016-.464 0-.225 0-.4-.032a1.9 1.9 0 0 1-.64-.192 1.9 1.9 0 0 1-.416-.304q-.256.112-.688.256a7 7 0 0 1-.944.24 5.3 5.3 0 0 1-1.008.096m.512-1.584q.303 0 .64-.064.336-.065.624-.144.303-.096.48-.176v-1.84l-1.632.144q-.528.048-.768.32-.225.256-.224.736 0 .48.208.752.224.272.672.272M133.21 150v-11.312h2.128V150z"/>
    <path fill="#4c4c4c" d="M33.596 186v-9.8h3.668q1.246 0 2.142.406.896.392 1.372 1.148.49.742.49 1.806 0 1.036-.49 1.792-.476.742-1.372 1.148t-2.142.406H34.17l.462-.49V186zm1.036-3.5-.462-.504h3.066q1.47 0 2.226-.63.77-.643.77-1.806 0-1.176-.77-1.82-.756-.644-2.226-.644H34.17l.462-.49zm8.803 3.5v-10.388h.994V186zm8.366 0v-1.624l-.042-.266v-2.716q0-.938-.532-1.442-.519-.504-1.554-.504-.715 0-1.358.238-.645.238-1.092.63l-.448-.742q.559-.476 1.344-.728a5.1 5.1 0 0 1 1.652-.266q1.427 0 2.198.714.783.7.784 2.142V186zm-2.534.07q-.827 0-1.442-.266-.603-.28-.924-.756a2 2 0 0 1-.322-1.12q0-.574.266-1.036.28-.476.896-.756.63-.294 1.68-.294h2.534v.742h-2.506q-1.064 0-1.484.378a1.23 1.23 0 0 0-.406.938q0 .63.49 1.008t1.372.378q.84 0 1.442-.378.615-.392.896-1.12l.224.686a2.33 2.33 0 0 1-.98 1.162q-.687.434-1.736.434m9.937-7.49q.896 0 1.568.35.686.336 1.064 1.036.393.7.392 1.764V186h-.994v-4.172q0-1.162-.588-1.75-.573-.602-1.624-.602-.783 0-1.372.322a2.16 2.16 0 0 0-.896.91q-.308.588-.308 1.428V186h-.994v-7.35h.952v2.016l-.154-.378a2.64 2.64 0 0 1 1.12-1.246q.77-.462 1.834-.462m8.705 7.49q-1.063 0-1.918-.476a3.64 3.64 0 0 1-1.33-1.33q-.49-.854-.49-1.946 0-1.106.49-1.946t1.33-1.316 1.918-.476q1.092 0 1.932.476a3.4 3.4 0 0 1 1.33 1.316q.49.84.49 1.946 0 1.092-.49 1.946a3.5 3.5 0 0 1-1.33 1.33q-.854.476-1.932.476m0-.882q.798 0 1.414-.35.616-.364.966-1.008.364-.659.364-1.512 0-.869-.364-1.512a2.5 2.5 0 0 0-.966-.994 2.7 2.7 0 0 0-1.4-.364q-.783 0-1.4.364-.615.35-.98.994-.364.643-.364 1.512 0 .853.364 1.512.365.643.98 1.008.617.35 1.386.35m8.088.812 4.48-9.8h1.022l4.48 9.8h-1.092l-4.116-9.198h.42L77.075 186zm1.764-2.618.308-.84h5.698l.308.84zm11.885 2.688q-1.036 0-1.597-.56t-.56-1.582v-6.902h.995v6.846q0 .644.322.994.335.35.951.35.659 0 1.093-.378l.35.714a1.8 1.8 0 0 1-.715.392q-.405.126-.84.126m-3.472-6.594v-.826h4.55v.826zM93.009 186v-7.35h.994V186zm.504-8.974a.7.7 0 0 1-.518-.21.69.69 0 0 1-.21-.504q0-.294.21-.49.21-.21.518-.21t.518.196.21.49q0 .308-.21.518a.68.68 0 0 1-.518.21M98.659 186l-3.262-7.35h1.036l2.996 6.818h-.49l3.038-6.818h.98L99.681 186zm8.489.07q-1.065 0-1.918-.476a3.63 3.63 0 0 1-1.33-1.33q-.49-.854-.49-1.946 0-1.106.49-1.946t1.33-1.316 1.918-.476q1.092 0 1.932.476a3.4 3.4 0 0 1 1.33 1.316q.49.84.49 1.946 0 1.092-.49 1.946a3.5 3.5 0 0 1-1.33 1.33q-.855.476-1.932.476m0-.882q.798 0 1.414-.35.615-.364.966-1.008.364-.659.364-1.512 0-.869-.364-1.512a2.5 2.5 0 0 0-.966-.994 2.7 2.7 0 0 0-1.4-.364q-.785 0-1.4.364a2.57 2.57 0 0 0-.98.994q-.364.643-.364 1.512 0 .853.364 1.512.363.643.98 1.008.615.35 1.386.35"/>
    <path fill="#1b1b1b" d="M33.008 210v-10.928h4.112q1.36 0 2.256.384a2.6 2.6 0 0 1 1.344 1.2q.465.832.464 2.224 0 1.392-.464 2.272a2.8 2.8 0 0 1-1.344 1.28q-.896.4-2.256.4h-1.904V210zm2.208-4.976h1.84q1.008 0 1.44-.528.432-.544.432-1.6 0-1.088-.432-1.552t-1.44-.464h-1.84zM42.474 210v-8.032h2.128v.944a6 6 0 0 1 .672-.432q.399-.24.864-.432.48-.208.912-.272v2.064q-.416.064-.88.224a9.5 9.5 0 0 0-1.568.64V210zm8.842.176q-1.329 0-2.113-.448-.768-.448-1.104-1.36-.335-.912-.335-2.288 0-1.488.415-2.432.432-.944 1.249-1.392.816-.464 2.016-.464 1.775 0 2.671.896.912.895.913 2.832l-.096 1.184h-5.025q.017.895.369 1.344.352.448 1.215.448.497 0 1.089-.016l1.168-.064q.591-.032 1.008-.064l.047 1.488q-.399.064-1.008.144-.607.08-1.264.128-.639.064-1.215.064m-1.409-4.832H52.9q0-1.088-.352-1.52-.337-.432-1.105-.432-.51 0-.847.192t-.512.624q-.177.432-.177 1.136M56.444 210v-8.032h2.128v.512q.24-.16.608-.304.367-.16.767-.272a3 3 0 0 1 .8-.112q.736 0 1.2.208.465.192.769.576.286-.176.72-.352.43-.176.944-.304.51-.128.992-.128.879 0 1.44.24.575.223.895.72.32.48.448 1.248.129.752.129 1.824V210h-2.129v-3.984q0-.833-.096-1.344-.08-.528-.352-.768-.255-.24-.784-.24-.287 0-.608.064a3.2 3.2 0 0 0-1.007.32 5 5 0 0 1 .111.864q.048.528.049 1.104V210h-2.128v-3.952q0-.848-.096-1.376-.08-.528-.352-.768-.273-.24-.785-.24-.288 0-.592.064-.288.048-.544.144a6 6 0 0 0-.4.176V210zm13.53 0v-8.032h2.129V210zm0-9.312v-1.824h2.145v1.824zm6.467 9.488q-1.04 0-1.616-.432-.56-.448-.8-1.344-.225-.895-.224-2.256v-4.176h2.128v4.08q0 .847.08 1.344.096.496.368.704t.784.208q.495 0 .928-.128.432-.128.688-.256v-5.952h2.128V210h-2.112v-.496a7 7 0 0 1-1.088.496q-.528.176-1.264.176m6.221-.176v-8.032h2.128v.512q.24-.16.608-.304.369-.16.768-.272a3 3 0 0 1 .8-.112q.735 0 1.2.208.465.192.768.576.288-.176.72-.352t.944-.304.992-.128q.88 0 1.44.24.576.223.896.72.32.48.448 1.248.129.752.128 1.824V210h-2.128v-3.984q0-.833-.096-1.344-.08-.528-.352-.768-.255-.24-.784-.24-.287 0-.608.064a3.2 3.2 0 0 0-1.008.32q.08.336.112.864.048.528.048 1.104V210h-2.128v-3.952q0-.848-.096-1.376-.08-.528-.352-.768t-.784-.24q-.288 0-.592.064-.288.048-.544.144-.24.096-.4.176V210zm17.144 0v-10.928h3.552l2.208 7.296 2.16-7.296h3.6V210h-2.208v-8.096h-.224l-2.288 7.808h-2.08l-2.288-7.808h-.224V210zm16.573.176q-1.328 0-2.112-.448-.768-.448-1.104-1.36t-.336-2.288q0-1.488.416-2.432.432-.944 1.248-1.392.816-.464 2.016-.464 1.776 0 2.672.896.912.895.912 2.832l-.096 1.184h-5.024q.016.895.368 1.344.352.448 1.216.448.496 0 1.088-.016l1.168-.064q.593-.032 1.008-.064l.048 1.488q-.4.064-1.008.144t-1.264.128q-.64.064-1.216.064m-1.408-4.832h2.992q0-1.088-.352-1.52-.336-.432-1.104-.432-.512 0-.848.192t-.512.624-.176 1.136m6.535 4.656v-8.032h2.128v.512q.257-.16.624-.304.368-.16.768-.272.416-.112.8-.112.832 0 1.376.224.56.208.88.688t.464 1.264q.144.768.144 1.872V210h-2.144v-4.048q0-.832-.096-1.328-.096-.512-.368-.736t-.8-.224q-.288 0-.608.064-.304.048-.592.144a3 3 0 0 0-.448.192V210zm11.74.176q-.528 0-1.136-.064a15.273 15.273 0 0 1-2-.288l.064-1.584q.415.048.928.112.528.064 1.024.112.511.032.832.032.48 0 .784-.08.32-.08.48-.256.16-.192.16-.544 0-.272-.144-.416-.129-.144-.512-.24a9 9 0 0 0-1.088-.224q-.897-.128-1.488-.368-.576-.24-.848-.704-.272-.48-.272-1.296 0-.992.432-1.552a2.26 2.26 0 0 1 1.152-.784q.72-.24 1.568-.24.56 0 1.152.064.592.048 1.12.128t.88.16l-.064 1.616q-.4-.064-.928-.112a17 17 0 0 0-1.056-.096 15 15 0 0 0-.864-.032q-.368 0-.656.08a.9.9 0 0 0-.448.224q-.144.16-.144.48a.53.53 0 0 0 .128.368q.127.144.48.256.368.096 1.056.192.992.144 1.584.4.591.256.848.736.272.48.272 1.296 0 .96-.384 1.536-.385.576-1.12.832t-1.792.256m6.794 0q-1.248 0-1.888-.624-.624-.64-.624-1.92 0-.896.32-1.392.32-.512.944-.736.64-.24 1.552-.288l1.952-.176v-.48q0-.576-.288-.8-.288-.24-.848-.24-.449 0-1.04.032a41 41 0 0 0-2.128.176l-.064-1.504q.416-.096.992-.192.591-.112 1.232-.176a12 12 0 0 1 1.184-.064q1.023 0 1.712.256.687.256 1.04.848.352.576.352 1.568v3.664a.48.48 0 0 0 .24.352q.207.112.48.16l-.048 1.472h-.512q-.24.016-.464 0-.225 0-.4-.032a1.9 1.9 0 0 1-.64-.192 1.9 1.9 0 0 1-.416-.304q-.256.112-.688.256a7 7 0 0 1-.944.24 5.3 5.3 0 0 1-1.008.096m.512-1.584q.303 0 .64-.064.336-.065.624-.144.303-.096.48-.176v-1.84l-1.632.144q-.528.048-.768.32-.225.256-.224.736 0 .48.208.752.223.272.672.272m5.831 1.408v-11.312h2.128V210z"/>
    <path fill="#2d77e3" d="m249.102 266-4.228-9.8h2.45l3.696 8.68h-1.442l3.752-8.68h2.254l-4.242 9.8zm10.324.112q-1.288 0-2.268-.504a3.74 3.74 0 0 1-1.498-1.372q-.532-.882-.532-2.002 0-1.134.518-2.002a3.7 3.7 0 0 1 1.442-1.372q.909-.504 2.058-.504 1.106 0 1.988.476a3.45 3.45 0 0 1 1.414 1.344q.518.868.518 2.086 0 .126-.014.294l-.028.294h-6.118v-1.274h4.97l-.84.378a2.1 2.1 0 0 0-.238-1.022 1.7 1.7 0 0 0-.658-.672 1.87 1.87 0 0 0-.98-.252 1.94 1.94 0 0 0-.994.252q-.42.238-.658.686-.238.434-.238 1.036v.336q0 .616.266 1.092.28.462.77.714.504.238 1.176.238.602 0 1.05-.182.462-.181.84-.546l1.162 1.26q-.519.588-1.302.91-.785.308-1.806.308m5.094-.112v-7.532h2.086v2.128l-.294-.616a2.4 2.4 0 0 1 1.078-1.204q.741-.42 1.806-.42v2.016a3 3 0 0 0-.252-.014 2 2 0 0 0-.238-.014q-.897 0-1.456.518-.546.504-.546 1.582V266zm13.228.112q-1.064 0-1.918-.476a3.65 3.65 0 0 1-1.358-1.358q-.49-.868-.49-2.044 0-1.19.49-2.058a3.54 3.54 0 0 1 1.358-1.344q.854-.476 1.918-.476.952 0 1.666.42t1.106 1.274.392 2.184q0 1.315-.378 2.184-.378.854-1.092 1.274-.7.42-1.694.42m.378-1.792q.533 0 .966-.252.434-.252.686-.714.266-.476.266-1.12 0-.658-.266-1.12a1.8 1.8 0 0 0-.686-.714 1.9 1.9 0 0 0-.966-.252q-.546 0-.98.252a1.9 1.9 0 0 0-.7.714q-.252.462-.252 1.12 0 .644.252 1.12.266.462.7.714t.98.252M280.1 266v-1.54l.042-2.24-.14-2.226v-4.382h2.184V266zm7.845.112q-1.287 0-2.268-.504a3.74 3.74 0 0 1-1.498-1.372q-.531-.882-.532-2.002 0-1.134.518-2.002a3.7 3.7 0 0 1 1.442-1.372q.91-.504 2.058-.504 1.106 0 1.988.476a3.43 3.43 0 0 1 1.414 1.344q.518.868.518 2.086 0 .126-.014.294l-.028.294h-6.118v-1.274h4.97l-.84.378q0-.588-.238-1.022a1.7 1.7 0 0 0-.658-.672 1.87 1.87 0 0 0-.98-.252q-.56 0-.994.252-.42.238-.658.686-.238.434-.238 1.036v.336q0 .616.266 1.092.28.462.77.714.504.238 1.176.238a2.8 2.8 0 0 0 1.05-.182q.462-.181.84-.546l1.162 1.26a3.45 3.45 0 0 1-1.302.91q-.783.308-1.806.308m8.174 0q-1.33 0-2.072-.672-.742-.686-.742-2.03v-6.608h2.184v6.58q0 .476.252.742.252.252.686.252.519 0 .882-.28l.588 1.54q-.336.238-.812.364a4 4 0 0 1-.966.112m-3.976-5.796v-1.68h5.222v1.68zm11.6 5.684v-1.47l-.14-.322v-2.632q0-.7-.434-1.092-.42-.392-1.302-.392-.602 0-1.19.196a3 3 0 0 0-.98.504l-.784-1.526q.617-.433 1.484-.672a6.6 6.6 0 0 1 1.764-.238q1.723 0 2.674.812.952.812.952 2.534V266zm-2.296.112q-.882 0-1.512-.294a2.35 2.35 0 0 1-.966-.826 2.1 2.1 0 0 1-.336-1.162q0-.672.322-1.176.336-.504 1.05-.784.714-.294 1.862-.294h2.002v1.274h-1.764q-.77 0-1.064.252a.82.82 0 0 0-.28.63q0 .42.322.672.336.238.91.238.546 0 .98-.252.435-.266.63-.77l.336 1.008a1.95 1.95 0 0 1-.868 1.106q-.63.378-1.624.378m6.317-.112v-10.388h2.184V266zm8.789-7.644q.895 0 1.596.364.714.35 1.12 1.092.406.728.406 1.876V266h-2.184v-3.976q0-.91-.406-1.344-.393-.434-1.12-.434-.519 0-.938.224-.407.21-.644.658-.224.448-.224 1.148V266h-2.184v-10.388h2.184v4.942l-.49-.63q.406-.756 1.162-1.162t1.722-.406m8.894 7.756q-1.287 0-2.268-.504a3.74 3.74 0 0 1-1.498-1.372q-.531-.882-.532-2.002 0-1.134.518-2.002a3.7 3.7 0 0 1 1.442-1.372q.91-.504 2.058-.504 1.106 0 1.988.476a3.43 3.43 0 0 1 1.414 1.344q.519.868.518 2.086 0 .126-.014.294l-.028.294h-6.118v-1.274h4.97l-.84.378q0-.588-.238-1.022a1.7 1.7 0 0 0-.658-.672 1.87 1.87 0 0 0-.98-.252q-.56 0-.994.252-.42.238-.658.686-.237.434-.238 1.036v.336q0 .616.266 1.092.28.462.77.714.504.238 1.176.238a2.8 2.8 0 0 0 1.05-.182q.462-.181.84-.546l1.162 1.26a3.45 3.45 0 0 1-1.302.91q-.783.308-1.806.308m7.628 0a7.7 7.7 0 0 1-1.862-.224q-.882-.238-1.4-.588l.728-1.568a5.06 5.06 0 0 0 2.618.728q.756 0 1.064-.182.322-.181.322-.504 0-.266-.252-.392a2 2 0 0 0-.644-.21q-.405-.07-.896-.14a13 13 0 0 1-.966-.182 3.5 3.5 0 0 1-.896-.364 1.9 1.9 0 0 1-.658-.644q-.238-.406-.238-1.05 0-.714.406-1.26.42-.546 1.204-.854.784-.322 1.876-.322.77 0 1.568.168t1.33.49l-.728 1.554a3.5 3.5 0 0 0-1.106-.434 4.7 4.7 0 0 0-1.064-.126q-.728 0-1.064.196t-.336.504q0 .28.238.42.252.14.658.224t.882.154q.49.056.98.182t.882.364q.406.223.658.63.252.392.252 1.036 0 .7-.42 1.246-.42.533-1.218.84-.783.308-1.918.308"/>
    <g stroke="#2d77e3" stroke-linecap="round" stroke-linejoin="round" stroke-width="1.5" clip-path="url(#b)">
      <path d="M356.833 261H346M356.834 261l-4.167 4.167M356.834 261l-4.167-4.167"/>
    </g>
    <path fill="#1b1b1b" d="M21.312 332.176q-1.744 0-2.768-.608-1.008-.624-1.456-1.872-.432-1.248-.432-3.12 0-1.888.432-3.152.448-1.264 1.456-1.904 1.024-.64 2.768-.64t2.752.64q1.024.64 1.456 1.904.448 1.264.448 3.152 0 1.904-.448 3.152-.432 1.248-1.456 1.856-1.008.592-2.752.592m0-1.856q1.008 0 1.52-.4.528-.416.704-1.248.176-.848.176-2.096t-.192-2.096q-.176-.864-.688-1.296-.512-.448-1.52-.448-.992 0-1.52.448-.512.432-.704 1.296-.192.848-.192 2.096 0 1.231.176 2.064.192.832.704 1.264.528.416 1.536.416m6.257 1.68v-11.312h2.128V332zm6.048.176q-1.248 0-1.888-.624-.624-.64-.624-1.92 0-.896.32-1.392.32-.512.944-.736.64-.24 1.552-.288l1.952-.176v-.48q0-.576-.288-.8-.288-.24-.848-.24-.449 0-1.04.032a41 41 0 0 0-2.128.176l-.064-1.504q.416-.096.992-.192.591-.112 1.232-.176.64-.064 1.184-.064 1.023 0 1.712.256.687.256 1.04.848.352.576.352 1.568v3.664a.48.48 0 0 0 .24.352q.207.112.48.16l-.048 1.472h-.512q-.24.017-.464 0-.225 0-.4-.032a1.9 1.9 0 0 1-.64-.192 2 2 0 0 1-.416-.304q-.256.112-.688.256a7 7 0 0 1-.944.24q-.496.096-1.008.096m.512-1.584q.303 0 .64-.064.336-.065.624-.144.303-.096.48-.176v-1.84l-1.632.144q-.528.048-.768.32-.224.256-.224.736t.208.752q.223.272.672.272m-.704-7.824-.928-1.2 3.12-1.584 1.216 1.616zm6.007 11.072.576-4.096h2.336l-1.152 4.096zm8.06-1.84v-10.928h3.552l2.208 7.296 2.16-7.296h3.6V332h-2.208v-8.096h-.224l-2.288 7.808h-2.08l-2.288-7.808H49.7V332zm15.5.176q-1.249 0-1.888-.624-.624-.64-.624-1.92 0-.896.32-1.392.32-.512.944-.736.64-.24 1.552-.288l1.952-.176v-.48q0-.576-.288-.8-.288-.24-.848-.24-.449 0-1.04.032a41 41 0 0 0-2.128.176l-.064-1.504q.416-.096.992-.192.591-.112 1.232-.176.64-.064 1.184-.064 1.023 0 1.712.256.687.256 1.04.848.352.576.352 1.568v3.664a.48.48 0 0 0 .24.352q.207.112.48.16l-.048 1.472h-.512q-.24.017-.464 0-.225 0-.4-.032a1.9 1.9 0 0 1-.64-.192 2 2 0 0 1-.416-.304q-.256.112-.688.256a7 7 0 0 1-.944.24q-.497.096-1.008.096m.512-1.584q.303 0 .64-.064.336-.065.624-.144.303-.096.48-.176v-1.84l-1.632.144q-.528.048-.768.32-.224.256-.224.736t.208.752q.223.272.672.272M69.27 332v-8.032h2.128v.944q.271-.209.672-.432.399-.24.864-.432.48-.208.912-.272v2.064q-.417.064-.88.224a9.5 9.5 0 0 0-1.568.64V332zm5.687 0v-8.032h2.128V332zm0-9.312v-1.824h2.144v1.824zm6.002 9.488q-1.248 0-1.888-.624-.624-.64-.624-1.92 0-.896.32-1.392a1.78 1.78 0 0 1 .944-.736q.64-.24 1.552-.288l1.952-.176v-.48q0-.576-.288-.8-.288-.24-.848-.24-.447 0-1.04.032a41 41 0 0 0-2.128.176l-.064-1.504q.417-.096.992-.192.593-.112 1.232-.176.64-.064 1.184-.064 1.025 0 1.712.256.689.256 1.04.848.352.576.352 1.568v3.664a.48.48 0 0 0 .24.352q.209.112.48.16l-.048 1.472h-.512q-.24.017-.464 0-.223 0-.4-.032a1.9 1.9 0 0 1-.64-.192 2 2 0 0 1-.416-.304q-.256.112-.688.256a7 7 0 0 1-.944.24q-.495.096-1.008.096m.512-1.584q.304 0 .64-.064.336-.065.624-.144a5 5 0 0 0 .48-.176v-1.84l-1.632.144q-.528.048-.768.32-.224.256-.224.736t.208.752q.225.272.672.272M21.312 746.176q-1.744 0-2.768-.608-1.008-.624-1.456-1.872-.432-1.248-.432-3.12 0-1.888.432-3.152.448-1.264 1.456-1.904 1.024-.64 2.768-.64t2.752.64q1.024.64 1.456 1.904.448 1.264.448 3.152 0 1.904-.448 3.152-.432 1.248-1.456 1.856-1.008.592-2.752.592m0-1.856q1.008 0 1.52-.4.528-.416.704-1.248.176-.848.176-2.096t-.192-2.096q-.176-.864-.688-1.296-.512-.448-1.52-.448-.992 0-1.52.448-.512.432-.704 1.296-.192.848-.192 2.096 0 1.232.176 2.064.192.832.704 1.264.528.416 1.536.416m8.753 1.856q-1.04 0-1.616-.432-.56-.449-.8-1.344-.224-.895-.224-2.256v-4.176h2.128v4.08q0 .847.08 1.344.096.496.368.704t.784.208q.496 0 .928-.128t.688-.256v-5.952h2.128V746h-2.112v-.496a7 7 0 0 1-1.088.496q-.528.176-1.264.176m9.037.016q-.88 0-1.424-.256t-.784-.88q-.224-.64-.224-1.776v-3.536h-.944v-1.776h.944v-2.128h2.128v2.128h2.048v1.776h-2.048v2.976q0 .624.048.976.064.352.256.496t.592.144q.112 0 .336-.016l.448-.032q.224-.016.368-.032l.064 1.712q-.24.048-.592.096-.336.048-.672.08a4 4 0 0 1-.544.048m2.934-.192v-8.032h2.128v.944a6 6 0 0 1 .672-.432q.4-.24.864-.432.48-.208.912-.272v2.064q-.415.064-.88.224a9.5 9.5 0 0 0-1.568.64V746zm7.784.176q-1.249 0-1.888-.624-.624-.64-.624-1.92 0-.895.32-1.392a1.78 1.78 0 0 1 .944-.736q.64-.24 1.552-.288l1.952-.176v-.48q0-.576-.288-.8-.288-.24-.848-.24-.449 0-1.04.032a41 41 0 0 0-2.128.176l-.064-1.504q.416-.096.992-.192.591-.112 1.232-.176.64-.064 1.184-.064 1.023 0 1.712.256.687.256 1.04.848.352.576.352 1.568v3.664a.48.48 0 0 0 .24.352q.207.112.48.16l-.048 1.472h-.512q-.24.016-.464 0-.225 0-.4-.032a1.9 1.9 0 0 1-.64-.192 2 2 0 0 1-.416-.304q-.255.112-.688.256a7 7 0 0 1-.944.24q-.496.096-1.008.096m.512-1.584q.303 0 .64-.064.336-.064.624-.144a5 5 0 0 0 .48-.176v-1.84l-1.632.144q-.528.048-.768.32-.224.256-.224.736t.208.752q.224.272.672.272m8.663 1.584a11 11 0 0 1-1.136-.064 15.418 15.418 0 0 1-2-.288l.064-1.584q.415.048.928.112.528.064 1.024.112.511.032.832.032.48 0 .784-.08.32-.08.48-.256.16-.192.16-.544 0-.272-.144-.416-.128-.144-.512-.24a8.5 8.5 0 0 0-1.088-.224q-.897-.128-1.488-.368-.576-.24-.848-.704-.273-.48-.272-1.296 0-.992.432-1.552a2.26 2.26 0 0 1 1.152-.784 5 5 0 0 1 1.568-.24q.56 0 1.152.064.592.048 1.12.128t.88.16l-.064 1.616q-.4-.064-.928-.112a17 17 0 0 0-1.056-.096q-.513-.032-.864-.032-.368 0-.656.08a.9.9 0 0 0-.448.224q-.144.16-.144.48 0 .224.128.368.127.144.48.256a10 10 0 0 0 1.056.192q.992.144 1.584.4.591.256.848.736.272.48.272 1.296 0 .96-.384 1.536-.385.576-1.12.832t-1.792.256m12.614 0q-1.744 0-2.768-.608-1.008-.624-1.456-1.872-.432-1.248-.432-3.12 0-1.888.432-3.152.448-1.264 1.456-1.904 1.024-.64 2.768-.64t2.752.64q1.023.64 1.456 1.904.448 1.264.448 3.152 0 1.904-.448 3.152-.432 1.248-1.456 1.856-1.008.592-2.752.592m0-1.856q1.007 0 1.52-.4.528-.416.704-1.248.176-.848.176-2.096t-.192-2.096q-.176-.864-.688-1.296-.513-.448-1.52-.448-.992 0-1.52.448-.512.432-.704 1.296-.192.848-.192 2.096 0 1.232.176 2.064.192.832.704 1.264.528.416 1.536.416m6.193 5.056v-11.408h2.112l.016.512a5 5 0 0 1 .56-.304q.352-.16.752-.272t.784-.112q1.072 0 1.728.464.672.448.976 1.376.32.912.32 2.32 0 1.504-.352 2.432t-1.136 1.36q-.768.432-2.032.432-.4 0-.864-.064a8 8 0 0 1-.736-.128v3.392zm3.392-4.976q.64 0 1.008-.272t.512-.816q.16-.56.16-1.408 0-1.312-.368-1.808-.352-.512-1.024-.512-.255 0-.544.064a5 5 0 0 0-.56.16q-.271.096-.448.192v4.288q.192.016.544.064.367.048.72.048m8.591 1.776q-1.376 0-2.16-.416-.768-.432-1.088-1.376-.304-.944-.304-2.48 0-1.52.352-2.416.352-.912 1.136-1.296.8-.4 2.08-.4.336 0 .784.048t.896.128q.464.064.784.128l-.08 1.712a12 12 0 0 0-.688-.048 20 20 0 0 0-.752-.048 7 7 0 0 0-.576-.032q-.688 0-1.088.224-.384.208-.544.704-.144.48-.144 1.296 0 .88.144 1.408t.512.752q.385.224 1.12.224.225 0 .592-.016l.752-.064q.4-.031.704-.048l.064 1.712a14 14 0 0 1-.768.128q-.448.08-.912.128-.448.048-.816.048m.272 3.392q-.465 0-.928-.048a4 4 0 0 1-.704-.096l.048-.96q.096.016.416.016.336.016.528.016.337 0 .496-.128.16-.112.16-.368 0-.272-.16-.368-.16-.08-.496-.08h-.464v-1.632h.864v.752q.672 0 1.104.112t.64.384q.208.288.208.832 0 .832-.464 1.2-.449.368-1.248.368m6.982-3.392q-1.36 0-2.192-.448-.815-.448-1.184-1.376-.368-.944-.368-2.432 0-1.44.384-2.336.385-.912 1.216-1.344.833-.448 2.144-.448 1.328 0 2.144.448.832.432 1.216 1.344.4.896.4 2.336 0 1.488-.368 2.432-.367.928-1.2 1.376-.815.448-2.192.448m0-1.76q.672 0 1.008-.24.337-.256.448-.8.128-.56.128-1.456 0-.88-.144-1.392-.144-.528-.48-.752t-.96-.224q-.608 0-.96.224-.336.224-.48.752-.144.511-.144 1.392 0 .896.112 1.456.129.544.464.8.336.24 1.008.24m1.152-7.808q-.255 0-.576-.096a8 8 0 0 1-.64-.256 13 13 0 0 0-.608-.256 1.3 1.3 0 0 0-.464-.112q-.225 0-.592.224a6 6 0 0 0-.624.416l-.352-1.2q.192-.192.448-.4.255-.208.544-.352.305-.16.56-.16.288 0 .608.112t.624.256q.32.127.592.24t.448.112q.192 0 .56-.208t.624-.416l.368 1.216a4 4 0 0 1-.432.4q-.256.208-.544.352a1.3 1.3 0 0 1-.544.128m7.312 9.568q-1.328 0-2.112-.448-.768-.448-1.104-1.36t-.336-2.288q0-1.488.416-2.432.432-.944 1.248-1.392.816-.464 2.016-.464 1.776 0 2.672.896.912.895.912 2.832l-.096 1.184h-5.024q.016.895.368 1.344.352.448 1.216.448.496 0 1.088-.016l1.168-.064q.593-.032 1.008-.064l.048 1.488q-.4.065-1.008.144-.608.08-1.264.128-.64.064-1.216.064m-1.408-4.832h2.992q0-1.088-.352-1.52-.336-.432-1.104-.432-.512 0-.848.192t-.512.624-.176 1.136m9.431 4.832q-.528 0-1.136-.064a15.434 15.434 0 0 1-2-.288l.064-1.584q.416.048.928.112.528.064 1.024.112.512.032.832.032.48 0 .784-.08.32-.08.48-.256.16-.192.16-.544 0-.272-.144-.416-.128-.144-.512-.24a8.5 8.5 0 0 0-1.088-.224q-.895-.128-1.488-.368-.576-.24-.848-.704-.272-.48-.272-1.296 0-.992.432-1.552a2.26 2.26 0 0 1 1.152-.784q.72-.24 1.568-.24.56 0 1.152.064.592.048 1.12.128t.88.16l-.064 1.616q-.4-.064-.928-.112a17 17 0 0 0-1.056-.096 15 15 0 0 0-.864-.032 2.5 2.5 0 0 0-.656.08.9.9 0 0 0-.448.224q-.144.16-.144.48 0 .224.128.368.127.144.48.256.367.096 1.056.192.991.144 1.584.4.592.256.848.736.272.48.272 1.296 0 .96-.384 1.536t-1.12.832-1.792.256"/>
    <rect width="361" height="136" x="16" y="349" fill="#fff" rx="20"/>
    <rect width="361" height="136" x="16" y="349" stroke="#ecf1f8" rx="20"/>
    <rect width="44" height="44" x="32" y="365" fill="#ecf1f8" rx="12"/>
    <path fill="#fe7d49" d="M66 380.739v12.522a2.087 2.087 0 0 1-2.087 2.087H44.087A2.087 2.087 0 0 1 42 393.261v-12.522c0-1.152.934-2.087 2.087-2.087h19.826c1.153 0 2.087.935 2.087 2.087"/>
    <path fill="#fe5a3a" d="M66 383.348v9.913a2.087 2.087 0 0 1-2.087 2.087H44.087A2.087 2.087 0 0 1 42 393.261v-9.913z"/>
    <path fill="#fed76e" d="M49.268 385.435h-4.102a.56.56 0 0 1-.558-.558v-3.059c0-.308.25-.557.558-.557h4.102c.308 0 .558.249.558.557v3.059c0 .308-.25.558-.558.558"/>
    <path fill="#feaf50" d="M49.826 383.348v1.529c0 .308-.25.558-.558.558h-4.102a.56.56 0 0 1-.558-.558v-1.529z"/>
    <path fill="#a62c18" d="M48.13 391.174a.39.39 0 0 1-.391.391h-3.13a.391.391 0 1 1 0-.782h3.13c.216 0 .39.175.39.391m4.826-.391h-3.13a.391.391 0 1 0 0 .782h3.13a.391.391 0 1 0 0-.782m5.217 0h-3.13a.391.391 0 1 0 0 .782h3.13a.391.391 0 1 0 0-.782m5.218 0h-3.13a.391.391 0 1 0 0 .782h3.13a.391.391 0 1 0 0-.782"/>
    <path fill="#fee66b" d="M47.478 384.13h-.522a.782.782 0 1 1 0-1.565h.522a.782.782 0 1 1 0 1.565"/>
    <path fill="#d4e8ff" d="M60.704 383.348a.39.39 0 0 1-.391.391h-.053a.391.391 0 1 1 0-.783h.053c.216 0 .39.176.39.392m.848-1.242a.392.392 0 0 0-.392.678.65.65 0 0 1 .327.564.66.66 0 0 1-.327.564.392.392 0 0 0 .392.677 1.44 1.44 0 0 0 .717-1.241c0-.51-.274-.985-.717-1.242m1.044-.904a.392.392 0 0 0-.392.677c.523.303.848.866.848 1.469s-.325 1.165-.848 1.468a.392.392 0 1 0 .392.677 2.49 2.49 0 0 0 1.238-2.145c0-.882-.474-1.704-1.238-2.146"/>
    <path fill="#1b1b1b" d="M92.882 384v-9.562h3.108l1.932 6.384 1.89-6.384h3.15V384h-1.932v-7.084h-.196l-2.002 6.832h-1.82l-2.002-6.832h-.196V384zm13.562.154q-1.092 0-1.652-.546-.546-.56-.546-1.68 0-.784.28-1.218a1.56 1.56 0 0 1 .826-.644q.56-.21 1.358-.252l1.708-.154v-.42q0-.504-.252-.7-.252-.21-.742-.21-.392 0-.91.028-.504.028-1.008.07-.49.042-.854.084l-.056-1.316q.364-.084.868-.168a13 13 0 0 1 1.078-.154q.56-.056 1.036-.056.896 0 1.498.224t.91.742q.308.504.308 1.372v3.206a.42.42 0 0 0 .21.308q.181.098.42.14l-.042 1.288h-.448q-.21.014-.406 0-.196 0-.35-.028a1.6 1.6 0 0 1-.56-.168 1.7 1.7 0 0 1-.364-.266q-.224.098-.602.224a6 6 0 0 1-.826.21 4.6 4.6 0 0 1-.882.084m.448-1.386q.266 0 .56-.056a7 7 0 0 0 .546-.126q.266-.084.42-.154v-1.61l-1.428.126q-.462.042-.672.28-.196.224-.196.644t.182.658q.197.238.588.238m7.58 1.386q-.462 0-.994-.056a14 14 0 0 1-1.75-.252l.056-1.386q.364.042.812.098.462.056.896.098.448.028.728.028.42 0 .686-.07.28-.07.42-.224.14-.168.14-.476 0-.238-.126-.364-.112-.126-.448-.21a7.4 7.4 0 0 0-.952-.196q-.784-.112-1.302-.322-.504-.21-.742-.616-.238-.42-.238-1.134 0-.868.378-1.358a1.98 1.98 0 0 1 1.008-.686q.63-.21 1.372-.21.49 0 1.008.056a14 14 0 0 1 1.75.252l-.056 1.414a12 12 0 0 0-.812-.098 16 16 0 0 0-1.68-.112q-.322 0-.574.07a.8.8 0 0 0-.392.196q-.126.14-.126.42 0 .196.112.322t.42.224q.322.084.924.168.868.126 1.386.35t.742.644q.238.42.238 1.134 0 .84-.336 1.344t-.98.728-1.568.224m6.575.014q-.77 0-1.246-.224-.477-.224-.686-.77-.196-.56-.196-1.554v-3.094h-.826v-1.554h.826v-1.862h1.862v1.862h1.792v1.554h-1.792v2.604q0 .546.042.854.056.308.224.434.167.126.518.126.097 0 .294-.014l.392-.028a9 9 0 0 0 .322-.028l.056 1.498a13.08 13.08 0 0 1-1.106.154 3 3 0 0 1-.476.042m5.409-.014q-1.163 0-1.848-.392-.672-.392-.966-1.19t-.294-2.002q0-1.302.364-2.128.378-.827 1.092-1.218.714-.406 1.764-.406 1.554 0 2.338.784.798.784.798 2.478l-.084 1.036h-4.396q.013.785.322 1.176.308.392 1.064.392.433 0 .952-.014l1.022-.056q.518-.028.882-.056l.042 1.302q-.351.055-.882.126-.533.07-1.106.112-.56.056-1.064.056m-1.232-4.228h2.618q0-.952-.308-1.33-.294-.378-.966-.378-.448 0-.742.168t-.448.546-.154.994m5.718 4.074v-7.028h1.862v.826q.239-.182.588-.378a6 6 0 0 1 .756-.378q.42-.182.798-.238v1.806a4.5 4.5 0 0 0-.77.196 8 8 0 0 0-.77.28q-.35.154-.602.28V384zm7.764.154q-1.203 0-1.89-.364-.672-.378-.952-1.204-.266-.826-.266-2.17 0-1.33.308-2.114.309-.798.994-1.134.7-.35 1.82-.35.294 0 .686.042t.784.112q.407.056.686.112l-.07 1.498a9 9 0 0 0-.602-.042 15 15 0 0 0-.658-.042 6 6 0 0 0-.504-.028q-.601 0-.952.196-.335.182-.476.616-.126.42-.126 1.134 0 .77.126 1.232t.448.658q.336.196.98.196.197 0 .518-.014l.658-.056q.35-.029.616-.042l.056 1.498a12 12 0 0 1-.672.112q-.391.07-.798.112a7 7 0 0 1-.714.042m5.226 0q-1.092 0-1.652-.546-.546-.56-.546-1.68 0-.784.28-1.218a1.56 1.56 0 0 1 .826-.644q.56-.21 1.358-.252l1.708-.154v-.42q0-.504-.252-.7-.252-.21-.742-.21-.392 0-.91.028-.504.028-1.008.07-.49.042-.854.084l-.056-1.316q.364-.084.868-.168a13 13 0 0 1 1.078-.154q.56-.056 1.036-.056.896 0 1.498.224t.91.742q.308.504.308 1.372v3.206a.42.42 0 0 0 .21.308q.181.098.42.14l-.042 1.288h-.448q-.21.014-.406 0-.196 0-.35-.028a1.6 1.6 0 0 1-.56-.168 1.7 1.7 0 0 1-.364-.266q-.224.098-.602.224a6 6 0 0 1-.826.21 4.6 4.6 0 0 1-.882.084m.448-1.386q.266 0 .56-.056a7 7 0 0 0 .546-.126q.266-.084.42-.154v-1.61l-1.428.126q-.462.042-.672.28-.196.224-.196.644t.182.658q.196.238.588.238m5.046 1.232v-7.028h1.862v.826q.238-.182.588-.378.351-.21.756-.378.42-.182.798-.238v1.806a4.5 4.5 0 0 0-.77.196 8.3 8.3 0 0 0-1.372.56V384zm7.247.154q-.504 0-.924-.126a2.05 2.05 0 0 1-.742-.364 2.4 2.4 0 0 1-.532-.686 3.9 3.9 0 0 1-.322-1.022 8 8 0 0 1-.112-1.428q0-1.204.294-2.03.308-.826.966-1.246.658-.434 1.75-.434.21 0 .49.028.28.014.546.056.266.028.434.056v-2.856h1.876V384h-1.848l-.014-.406a5 5 0 0 1-.518.252 4.5 4.5 0 0 1-.658.21 2.6 2.6 0 0 1-.686.098m.476-1.568q.252 0 .504-.056.266-.055.49-.126.238-.084.378-.154v-3.766a2 2 0 0 0-.336-.042 6 6 0 0 0-.434-.042 3 3 0 0 0-.406-.028q-.546 0-.854.252-.294.252-.42.742a4.6 4.6 0 0 0-.126 1.162q0 .601.084 1.008.084.392.238.63a1 1 0 0 0 .392.322q.224.098.49.098m7.794 1.414v-2.072h1.946V384zm3.39 0v-2.072h1.946V384zm3.391 0v-2.072h1.946V384zm3.391 0v-2.072h1.946V384zm3.39 0v-2.072h1.946V384zm9.576.154q-.7 0-1.344-.126a3.5 3.5 0 0 1-1.134-.392 2.1 2.1 0 0 1-.77-.784q-.28-.504-.28-1.246 0-.7.168-1.12.181-.42.504-.714.321-.294.77-.56a3.7 3.7 0 0 1-.742-.532 1.8 1.8 0 0 1-.42-.672 3.3 3.3 0 0 1-.126-.98q0-.854.42-1.386.434-.532 1.19-.784.77-.252 1.764-.252.993 0 1.764.238.783.238 1.218.784.448.532.448 1.414 0 .588-.14.994a1.6 1.6 0 0 1-.42.672q-.294.266-.784.518.49.224.812.518.336.28.504.7t.168 1.078q0 .756-.28 1.274a2.2 2.2 0 0 1-.784.812 3.5 3.5 0 0 1-1.134.42q-.645.126-1.372.126m0-1.526q.49 0 .854-.112.378-.126.574-.406.21-.294.21-.798 0-.392-.154-.644a1.14 1.14 0 0 0-.406-.434 2.2 2.2 0 0 0-.56-.266h-1.05a1.7 1.7 0 0 0-.784.49q-.28.322-.28.896 0 .462.196.742.21.28.574.406.363.126.826.126m-.532-4.074h1.05q.462-.182.728-.476t.266-.77q0-.63-.392-.91-.378-.28-1.106-.28-.714 0-1.092.28t-.378.896q0 .49.238.784.237.294.686.476m8.311 5.6q-.7 0-1.344-.126a3.5 3.5 0 0 1-1.134-.392 2.14 2.14 0 0 1-.77-.784q-.28-.504-.28-1.246 0-.7.168-1.12.181-.42.504-.714.322-.294.77-.56a3.7 3.7 0 0 1-.742-.532 1.8 1.8 0 0 1-.42-.672 3.3 3.3 0 0 1-.126-.98q0-.854.42-1.386.434-.532 1.19-.784.77-.252 1.764-.252.995 0 1.764.238.785.238 1.218.784.448.532.448 1.414 0 .588-.14.994a1.6 1.6 0 0 1-.42.672q-.294.266-.784.518.49.224.812.518.336.28.504.7t.168 1.078q0 .756-.28 1.274a2.2 2.2 0 0 1-.784.812 3.5 3.5 0 0 1-1.134.42 7 7 0 0 1-1.372.126m0-1.526q.49 0 .854-.112.378-.126.574-.406.21-.294.21-.798 0-.392-.154-.644a1.13 1.13 0 0 0-.406-.434 2.2 2.2 0 0 0-.56-.266h-1.05a1.7 1.7 0 0 0-.784.49q-.28.322-.28.896 0 .462.196.742.21.28.574.406t.826.126m-.532-4.074h1.05q.462-.182.728-.476t.266-.77q0-.63-.392-.91-.378-.28-1.106-.28-.714 0-1.092.28t-.378.896q0 .49.238.784t.686.476m9.095 5.446v-1.54h-4.2v-1.4l2.1-6.3h2.156l-2.338 6.09h2.282l.112-2.38 1.792-.028v2.408h.854v1.61h-.854V384zm3.958 0v-1.512l2.114-2.17q.601-.616 1.036-1.078.433-.476.658-.896.237-.42.238-.896 0-.7-.392-.938-.393-.252-1.26-.252-.35 0-.77.042t-.812.098a13 13 0 0 0-.658.112l-.098-1.484q.308-.084.756-.182.462-.097.994-.168a7 7 0 0 1 1.064-.084q1.512 0 2.31.644.798.63.798 1.96 0 .728-.21 1.288a3.5 3.5 0 0 1-.63 1.078q-.42.504-1.12 1.106l-1.848 1.764h3.934V384z"/>
    <path fill="#4c4c4c" d="M93.368 402v-8.4h5.76v.768h-4.872v6.864h5.052V402zm.792-3.888v-.756h4.44v.756zm10.307 3.948a2.95 2.95 0 0 1-1.476-.372 2.83 2.83 0 0 1-1.056-1.092q-.384-.72-.384-1.752t.384-1.74q.384-.72 1.044-1.092t1.488-.372q.9 0 1.608.408.72.396 1.128 1.128.408.72.408 1.668 0 .96-.408 1.68t-1.128 1.128a3.16 3.16 0 0 1-1.608.408m-3.252 2.268V395.7h.816v1.896l-.084 1.26.12 1.272v4.2zm3.192-3.024q.672 0 1.2-.3.528-.312.84-.864.312-.564.312-1.296t-.312-1.284a2.3 2.3 0 0 0-.84-.864 2.3 2.3 0 0 0-1.2-.312q-.672 0-1.212.312a2.3 2.3 0 0 0-.84.864q-.3.552-.3 1.284t.3 1.296q.312.552.84.864.54.3 1.212.3m4.941.696v-6.3h.852v6.3zm.432-7.692a.6.6 0 0 1-.444-.18.6.6 0 0 1-.18-.432.55.55 0 0 1 .18-.42q.18-.18.444-.18t.444.168a.55.55 0 0 1 .18.42q0 .264-.18.444a.58.58 0 0 1-.444.18m2.791 7.692v-6.3h.816v1.716l-.084-.3q.264-.72.888-1.092.624-.384 1.548-.384v.828h-.096a.4.4 0 0 0-.096-.012q-.996 0-1.56.612-.564.6-.564 1.716V402zm8.272 0v-1.392l-.036-.228v-2.328q0-.804-.456-1.236-.444-.432-1.332-.432a3.3 3.3 0 0 0-1.164.204q-.552.204-.936.54l-.384-.636q.48-.408 1.152-.624.672-.228 1.416-.228 1.224 0 1.884.612.672.6.672 1.836V402zm-2.172.06q-.708 0-1.236-.228a1.9 1.9 0 0 1-.792-.648q-.276-.42-.276-.96 0-.492.228-.888.24-.408.768-.648.54-.252 1.44-.252h2.172v.636h-2.148q-.912 0-1.272.324a1.05 1.05 0 0 0-.348.804q0 .54.42.864t1.176.324q.72 0 1.236-.324.528-.336.768-.96l.192.588q-.24.624-.84.996-.588.372-1.488.372m11.119 0q-.984 0-1.728-.408a3.06 3.06 0 0 1-1.164-1.14q-.42-.732-.42-1.668t.396-1.656a3 3 0 0 1 1.104-1.128q.708-.42 1.584-.42.888 0 1.572.408a2.8 2.8 0 0 1 1.092 1.128q.396.72.396 1.668 0 .06-.012.132v.132h-5.484v-.636h5.028l-.336.252q0-.684-.3-1.212a2.1 2.1 0 0 0-.792-.84q-.504-.3-1.164-.3-.648 0-1.164.3t-.804.84-.288 1.236v.132q0 .72.312 1.272.324.54.888.852.576.3 1.308.3.576 0 1.068-.204.504-.204.864-.624l.48.552q-.42.504-1.056.768a3.5 3.5 0 0 1-1.38.264m4.566-.06v-6.3h.816v1.704l-.132-.3q.288-.684.924-1.068.648-.396 1.524-.396.924 0 1.572.468.648.456.84 1.38l-.336-.132q.276-.768.972-1.236.708-.48 1.692-.48.768 0 1.332.3.576.288.888.888.324.6.324 1.512V402h-.852v-3.576q0-.996-.48-1.5-.468-.516-1.332-.516-.648 0-1.128.276a1.8 1.8 0 0 0-.732.78q-.252.504-.252 1.224V402h-.852v-3.576q0-.996-.48-1.5-.48-.516-1.344-.516a2.2 2.2 0 0 0-1.116.276 1.8 1.8 0 0 0-.744.78q-.252.504-.252 1.224V402zm16.767 0v-8.04l.384.408h-2.364v-.768h2.844v8.4zm2.716 0v-.612l3.492-3.42q.48-.468.72-.816.24-.36.324-.672t.084-.588q0-.732-.504-1.152-.492-.42-1.464-.42-.744 0-1.32.228-.564.228-.972.708l-.612-.528q.492-.576 1.26-.888a4.5 4.5 0 0 1 1.716-.312q.852 0 1.476.276.624.264.96.78.348.516.348 1.212 0 .408-.12.804a2.9 2.9 0 0 1-.408.84q-.288.432-.852.984l-3.204 3.144-.24-.336h5.208V402zm6.17 1.2 3.96-11.304h.78l-3.96 11.304zm4.787-1.2v-.612l3.492-3.42q.48-.468.72-.816.24-.36.324-.672t.084-.588q0-.732-.504-1.152-.492-.42-1.464-.42-.744 0-1.32.228-.564.228-.972.708l-.612-.528q.492-.576 1.26-.888a4.5 4.5 0 0 1 1.716-.312q.852 0 1.476.276.624.264.96.78.348.516.348 1.212 0 .408-.12.804a2.9 2.9 0 0 1-.408.84q-.288.432-.852.984l-3.204 3.144-.24-.336h5.208V402zm9.628.072q-.9 0-1.716-.288-.816-.3-1.296-.792l.42-.684q.396.42 1.08.696.696.276 1.5.276 1.068 0 1.62-.468.564-.48.564-1.248 0-.54-.264-.924-.252-.396-.864-.612t-1.68-.216H172l.432-4.212h4.596v.768h-4.248l.444-.42-.372 3.528-.444-.432h1.572q1.272 0 2.04.312t1.104.876q.348.552.348 1.296 0 .708-.336 1.296-.336.576-1.008.912t-1.704.336"/>
    <rect width="329" height="40" x="32" y="429" fill="#ecf1f8" rx="12"/>
    <g stroke="#1b1b1b" stroke-linecap="round" stroke-linejoin="round" stroke-width="1.333" clip-path="url(#c)">
      <path d="M161.667 445.667h10.667M165.667 448.333v4M168.333 448.333v4M162.333 445.667l.667 8a1.33 1.33 0 0 0 1.333 1.333h5.333a1.334 1.334 0 0 0 1.334-1.333l.666-8M165 445.667v-2a.67.67 0 0 1 .667-.667h2.666a.67.67 0 0 1 .667.667v2"/>
    </g>
    <path fill="#1b1b1b" d="M179.882 454v-9.562h3.738q1.148 0 1.918.294.784.294 1.162.98.392.686.392 1.862 0 1.036-.378 1.75a2.25 2.25 0 0 1-1.12 1.036l1.498 3.64h-2.03l-1.26-3.206h-1.988V454zm1.932-4.788h1.848q.532 0 .854-.196.323-.21.462-.574.14-.378.14-.854 0-.785-.364-1.176-.365-.392-1.134-.392h-1.806zm9.357 4.942q-1.162 0-1.848-.392-.672-.392-.966-1.19t-.294-2.002q0-1.302.364-2.128.378-.827 1.092-1.218.714-.406 1.764-.406 1.554 0 2.338.784.798.784.798 2.478l-.084 1.036h-4.396q.013.785.322 1.176.308.392 1.064.392.433 0 .952-.014l1.022-.056q.518-.028.882-.056l.042 1.302q-.351.055-.882.126-.533.07-1.106.112-.56.056-1.064.056m-1.232-4.228h2.618q0-.952-.308-1.33-.294-.378-.966-.378-.448 0-.742.168t-.448.546-.154.994m5.718 4.074v-7.028h1.862v.448q.21-.14.532-.266.321-.14.672-.238a2.7 2.7 0 0 1 .7-.098q.644 0 1.05.182.405.168.672.504.252-.154.63-.308t.826-.266q.447-.112.868-.112.77 0 1.26.21.504.196.784.63.28.42.392 1.092.112.659.112 1.596V454h-1.862v-3.486q0-.727-.084-1.176-.07-.462-.308-.672-.225-.21-.686-.21-.252 0-.532.056a2.8 2.8 0 0 0-.882.28q.07.294.098.756.042.462.042.966V454h-1.862v-3.458q0-.742-.084-1.204-.07-.462-.308-.672-.239-.21-.686-.21-.252 0-.518.056-.252.042-.476.126-.21.084-.35.154V454zm14.864.154q-1.19 0-1.918-.392-.714-.392-1.036-1.204-.322-.826-.322-2.128 0-1.26.336-2.044.335-.798 1.064-1.176.727-.392 1.876-.392 1.162 0 1.876.392.728.378 1.064 1.176.35.784.35 2.044 0 1.302-.322 2.128-.322.812-1.05 1.204-.714.392-1.918.392m0-1.54q.588 0 .882-.21.293-.224.392-.7.112-.49.112-1.274 0-.77-.126-1.218-.126-.462-.42-.658t-.84-.196q-.532 0-.84.196-.294.196-.42.658-.126.448-.126 1.218 0 .784.098 1.274.112.476.406.7.294.21.882.21m5.56 1.386-1.666-7.028h2.002l1.176 5.446h.406l1.204-5.446h1.89L219.427 454zm8.722.154q-1.161 0-1.848-.392-.672-.392-.966-1.19t-.294-2.002q0-1.302.364-2.128.378-.827 1.092-1.218.714-.406 1.764-.406 1.554 0 2.338.784.798.784.798 2.478l-.084 1.036h-4.396q.015.785.322 1.176.309.392 1.064.392.435 0 .952-.014l1.022-.056q.519-.028.882-.056l.042 1.302q-.35.055-.882.126-.531.07-1.106.112-.56.056-1.064.056m-1.232-4.228h2.618q0-.952-.308-1.33-.294-.378-.966-.378-.447 0-.742.168-.294.168-.448.546t-.154.994M229.29 454v-7.028h1.862v.826q.237-.182.588-.378a6 6 0 0 1 .756-.378q.42-.182.798-.238v1.806q-.365.056-.77.196a8 8 0 0 0-.77.28q-.35.154-.602.28V454z"/>
    <rect width="361" height="136" x="16" y="501" fill="#fff" rx="20"/>
    <rect width="361" height="136" x="16" y="501" stroke="#ecf1f8" rx="20"/>
    <rect width="44" height="44" x="32" y="517" fill="#ecf1f8" rx="12"/>
    <path fill="#fe7d49" d="M66 532.739v12.522a2.087 2.087 0 0 1-2.087 2.087H44.087A2.087 2.087 0 0 1 42 545.261v-12.522c0-1.152.934-2.087 2.087-2.087h19.826c1.153 0 2.087.935 2.087 2.087"/>
    <path fill="#fe5a3a" d="M66 535.348v9.913a2.087 2.087 0 0 1-2.087 2.087H44.087A2.087 2.087 0 0 1 42 545.261v-9.913z"/>
    <path fill="#fed76e" d="M49.268 537.435h-4.102a.56.56 0 0 1-.558-.558v-3.059c0-.308.25-.557.558-.557h4.102c.308 0 .558.249.558.557v3.059c0 .308-.25.558-.558.558"/>
    <path fill="#feaf50" d="M49.826 535.348v1.529c0 .308-.25.558-.558.558h-4.102a.56.56 0 0 1-.558-.558v-1.529z"/>
    <path fill="#a62c18" d="M48.13 543.174a.39.39 0 0 1-.391.391h-3.13a.391.391 0 1 1 0-.782h3.13c.216 0 .39.175.39.391m4.826-.391h-3.13a.391.391 0 1 0 0 .782h3.13a.391.391 0 1 0 0-.782m5.217 0h-3.13a.391.391 0 1 0 0 .782h3.13a.391.391 0 1 0 0-.782m5.218 0h-3.13a.391.391 0 1 0 0 .782h3.13a.391.391 0 1 0 0-.782"/>
    <path fill="#fee66b" d="M47.478 536.13h-.522a.782.782 0 1 1 0-1.565h.522a.782.782 0 1 1 0 1.565"/>
    <path fill="#d4e8ff" d="M60.704 535.348a.39.39 0 0 1-.391.391h-.053a.391.391 0 1 1 0-.783h.053c.216 0 .39.176.39.392m.848-1.242a.392.392 0 0 0-.392.678.65.65 0 0 1 .327.564.66.66 0 0 1-.327.564.392.392 0 0 0 .392.677 1.44 1.44 0 0 0 .717-1.241c0-.51-.274-.985-.717-1.242m1.044-.904a.392.392 0 0 0-.392.677c.523.303.848.866.848 1.469s-.325 1.165-.848 1.468a.392.392 0 1 0 .392.677 2.49 2.49 0 0 0 1.238-2.145c0-.882-.474-1.704-1.238-2.146"/>
    <path fill="#1b1b1b" d="m94.45 536-2.282-9.562h2.03l1.638 7.7h.574l1.61-7.7h2.03L97.81 536zm6.564 0v-7.028h1.862V536zm0-8.148v-1.596h1.876v1.596zm5.952 8.302q-.462 0-.994-.056a14 14 0 0 1-1.75-.252l.056-1.386q.364.042.812.098.462.056.896.098.448.028.728.028.42 0 .686-.07.28-.07.42-.224.14-.168.14-.476 0-.238-.126-.364-.112-.126-.448-.21a7.4 7.4 0 0 0-.952-.196q-.784-.112-1.302-.322-.504-.21-.742-.616-.238-.42-.238-1.134 0-.868.378-1.358a1.98 1.98 0 0 1 1.008-.686q.63-.21 1.372-.21.49 0 1.008.056a14 14 0 0 1 1.75.252l-.056 1.414a12 12 0 0 0-.812-.098 16 16 0 0 0-1.68-.112q-.322 0-.574.07a.8.8 0 0 0-.392.196q-.126.14-.126.42 0 .196.112.322t.42.224q.323.084.924.168.868.126 1.386.35t.742.644q.238.42.238 1.134 0 .84-.336 1.344t-.98.728-1.568.224m5.945 0q-1.092 0-1.652-.546-.546-.56-.546-1.68 0-.785.28-1.218.28-.448.826-.644.56-.21 1.358-.252l1.708-.154v-.42q0-.504-.252-.7-.252-.21-.742-.21-.393 0-.91.028-.504.028-1.008.07a29 29 0 0 0-.854.084l-.056-1.316a15 15 0 0 1 .868-.168 12.4 12.4 0 0 1 2.114-.21q.895 0 1.498.224.601.224.91.742.308.504.308 1.372v3.206a.42.42 0 0 0 .21.308q.181.098.42.14l-.042 1.288h-.448q-.21.014-.406 0-.197 0-.35-.028a1.6 1.6 0 0 1-.56-.168 1.7 1.7 0 0 1-.364-.266q-.225.098-.602.224a6 6 0 0 1-.826.21q-.435.084-.882.084m.448-1.386q.266 0 .56-.056a7 7 0 0 0 .546-.126q.266-.084.42-.154v-1.61l-1.428.126q-.462.042-.672.28-.196.224-.196.644t.182.658q.195.238.588.238m8.053 1.232v-2.072h1.946V536zm3.39 0v-2.072h1.946V536zm3.391 0v-2.072h1.946V536zm3.39 0v-2.072h1.946V536zm3.391 0v-2.072h1.946V536zm10.36 0v-1.54h-4.2v-1.4l2.1-6.3h2.156l-2.338 6.09h2.282l.112-2.38 1.792-.028v2.408h.854v1.61h-.854V536zm3.957 0v-1.512l2.114-2.17q.602-.616 1.036-1.078a4.5 4.5 0 0 0 .658-.896q.238-.42.238-.896 0-.7-.392-.938-.392-.252-1.26-.252-.35 0-.77.042t-.812.098q-.378.056-.658.112l-.098-1.484q.308-.084.756-.182.462-.097.994-.168a7 7 0 0 1 1.064-.084q1.512 0 2.31.644.798.63.798 1.96 0 .728-.21 1.288a3.5 3.5 0 0 1-.63 1.078q-.42.504-1.12 1.106l-1.848 1.764h3.934V536zm10.915 0v-7.168l-2.184 1.26-.644-1.386 3.066-1.946h1.666V536zm7.317.154q-.42 0-.938-.056a30 30 0 0 1-.994-.126 37 37 0 0 1-.826-.154l.154-1.456q.294.042.728.098.448.042.924.07t.896.028q.994 0 1.456-.574.477-.574.504-1.736-.293.112-.644.21a6 6 0 0 1-.672.154q-.321.056-.588.056-1.512 0-2.296-.714-.77-.714-.77-2.24 0-1.008.406-1.694.42-.7 1.162-1.05.756-.364 1.764-.364 1.218 0 1.988.574.785.56 1.148 1.624.364 1.063.364 2.562 0 1.386-.28 2.31-.266.924-.756 1.47a2.77 2.77 0 0 1-1.19.784q-.685.224-1.54.224m.196-5.04q.294 0 .616-.056.322-.07.616-.154.294-.097.49-.168a5.6 5.6 0 0 0-.168-1.344q-.153-.574-.518-.896-.35-.322-.966-.322-.728 0-1.134.42-.392.42-.392 1.12 0 .728.364 1.064.378.336 1.092.336"/>
    <path fill="#4c4c4c" d="M93.368 554v-8.4h5.76v.768h-4.872v6.864h5.052V554zm.792-3.888v-.756h4.44v.756zm10.307 3.948a2.95 2.95 0 0 1-1.476-.372 2.83 2.83 0 0 1-1.056-1.092q-.384-.72-.384-1.752t.384-1.74q.384-.72 1.044-1.092t1.488-.372q.9 0 1.608.408.72.396 1.128 1.128.408.72.408 1.668 0 .96-.408 1.68t-1.128 1.128a3.16 3.16 0 0 1-1.608.408m-3.252 2.268V547.7h.816v1.896l-.084 1.26.12 1.272v4.2zm3.192-3.024q.672 0 1.2-.3.528-.312.84-.864.312-.564.312-1.296t-.312-1.284a2.3 2.3 0 0 0-.84-.864 2.3 2.3 0 0 0-1.2-.312q-.672 0-1.212.312a2.3 2.3 0 0 0-.84.864q-.3.552-.3 1.284t.3 1.296q.312.552.84.864.54.3 1.212.3m4.941.696v-6.3h.852v6.3zm.432-7.692a.6.6 0 0 1-.444-.18.6.6 0 0 1-.18-.432.55.55 0 0 1 .18-.42q.18-.18.444-.18t.444.168a.55.55 0 0 1 .18.42q0 .264-.18.444a.58.58 0 0 1-.444.18m2.791 7.692v-6.3h.816v1.716l-.084-.3q.264-.72.888-1.092.624-.384 1.548-.384v.828h-.096a.4.4 0 0 0-.096-.012q-.996 0-1.56.612-.564.6-.564 1.716V554zm8.272 0v-1.392l-.036-.228v-2.328q0-.804-.456-1.236-.444-.432-1.332-.432a3.3 3.3 0 0 0-1.164.204q-.552.204-.936.54l-.384-.636q.48-.408 1.152-.624.672-.228 1.416-.228 1.224 0 1.884.612.672.6.672 1.836V554zm-2.172.06q-.708 0-1.236-.228a1.9 1.9 0 0 1-.792-.648q-.276-.42-.276-.96 0-.492.228-.888.24-.408.768-.648.54-.252 1.44-.252h2.172v.636h-2.148q-.912 0-1.272.324a1.05 1.05 0 0 0-.348.804q0 .54.42.864t1.176.324q.72 0 1.236-.324.528-.336.768-.96l.192.588q-.24.624-.84.996-.588.372-1.488.372m11.119 0q-.984 0-1.728-.408a3.06 3.06 0 0 1-1.164-1.14q-.42-.732-.42-1.668t.396-1.656a3 3 0 0 1 1.104-1.128q.708-.42 1.584-.42.888 0 1.572.408a2.8 2.8 0 0 1 1.092 1.128q.396.72.396 1.668 0 .06-.012.132v.132h-5.484v-.636h5.028l-.336.252q0-.684-.3-1.212a2.1 2.1 0 0 0-.792-.84q-.504-.3-1.164-.3-.648 0-1.164.3t-.804.84-.288 1.236v.132q0 .72.312 1.272.324.54.888.852.576.3 1.308.3.576 0 1.068-.204.504-.204.864-.624l.48.552q-.42.504-1.056.768a3.5 3.5 0 0 1-1.38.264m4.566-.06v-6.3h.816v1.704l-.132-.3q.288-.684.924-1.068.648-.396 1.524-.396.924 0 1.572.468.648.456.84 1.38l-.336-.132q.276-.768.972-1.236.708-.48 1.692-.48.768 0 1.332.3.576.288.888.888.324.6.324 1.512V554h-.852v-3.576q0-.996-.48-1.5-.468-.516-1.332-.516-.648 0-1.128.276a1.8 1.8 0 0 0-.732.78q-.252.504-.252 1.224V554h-.852v-3.576q0-.996-.48-1.5-.48-.516-1.344-.516a2.2 2.2 0 0 0-1.116.276 1.8 1.8 0 0 0-.744.78q-.252.504-.252 1.224V554zm16.767 0v-8.04l.384.408h-2.364v-.768h2.844v8.4zm2.716 0v-.612l3.492-3.42q.48-.468.72-.816.24-.36.324-.672t.084-.588q0-.732-.504-1.152-.492-.42-1.464-.42-.744 0-1.32.228-.564.228-.972.708l-.612-.528q.492-.576 1.26-.888a4.5 4.5 0 0 1 1.716-.312q.852 0 1.476.276.624.264.96.78.348.516.348 1.212 0 .408-.12.804a2.9 2.9 0 0 1-.408.84q-.288.432-.852.984l-3.204 3.144-.24-.336h5.208V554zm6.17 1.2 3.96-11.304h.78l-3.96 11.304zm4.787-1.2v-.612l3.492-3.42q.48-.468.72-.816.24-.36.324-.672t.084-.588q0-.732-.504-1.152-.492-.42-1.464-.42-.744 0-1.32.228-.564.228-.972.708l-.612-.528q.492-.576 1.26-.888a4.5 4.5 0 0 1 1.716-.312q.852 0 1.476.276.624.264.96.78.348.516.348 1.212 0 .408-.12.804a2.9 2.9 0 0 1-.408.84q-.288.432-.852.984l-3.204 3.144-.24-.336h5.208V554zm9.628.072q-.9 0-1.716-.288-.816-.3-1.296-.792l.42-.684q.396.42 1.08.696.696.276 1.5.276 1.068 0 1.62-.468.564-.48.564-1.248 0-.54-.264-.924-.252-.396-.864-.612t-1.68-.216H172l.432-4.212h4.596v.768h-4.248l.444-.42-.372 3.528-.444-.432h1.572q1.272 0 2.04.312t1.104.876q.348.552.348 1.296 0 .708-.336 1.296-.336.576-1.008.912t-1.704.336"/>
    <rect width="329" height="40" x="32" y="581" fill="#ecf1f8" rx="12"/>
    <g stroke="#1b1b1b" stroke-linecap="round" stroke-linejoin="round" stroke-width="1.333" clip-path="url(#d)">
      <path d="M161.667 597.667h10.667M165.667 600.333v4M168.333 600.333v4M162.333 597.667l.667 8a1.33 1.33 0 0 0 1.333 1.333h5.333a1.334 1.334 0 0 0 1.334-1.333l.666-8M165 597.667v-2a.67.67 0 0 1 .667-.667h2.666a.67.67 0 0 1 .667.667v2"/>
    </g>
    <path fill="#1b1b1b" d="M179.882 606v-9.562h3.738q1.148 0 1.918.294.784.294 1.162.98.392.686.392 1.862 0 1.036-.378 1.75a2.25 2.25 0 0 1-1.12 1.036l1.498 3.64h-2.03l-1.26-3.206h-1.988V606zm1.932-4.788h1.848q.532 0 .854-.196.323-.21.462-.574.14-.378.14-.854 0-.784-.364-1.176-.365-.392-1.134-.392h-1.806zm9.357 4.942q-1.162 0-1.848-.392-.672-.392-.966-1.19t-.294-2.002q0-1.302.364-2.128.378-.827 1.092-1.218.714-.406 1.764-.406 1.554 0 2.338.784.798.785.798 2.478l-.084 1.036h-4.396q.013.784.322 1.176.308.392 1.064.392.433 0 .952-.014l1.022-.056q.518-.028.882-.056l.042 1.302q-.351.056-.882.126-.533.07-1.106.112-.56.056-1.064.056m-1.232-4.228h2.618q0-.952-.308-1.33-.294-.378-.966-.378-.448 0-.742.168t-.448.546-.154.994m5.718 4.074v-7.028h1.862v.448q.21-.14.532-.266.321-.14.672-.238a2.7 2.7 0 0 1 .7-.098q.644 0 1.05.182.405.168.672.504.252-.154.63-.308t.826-.266q.447-.112.868-.112.77 0 1.26.21.504.197.784.63.28.42.392 1.092.112.659.112 1.596V606h-1.862v-3.486q0-.728-.084-1.176-.07-.462-.308-.672-.225-.21-.686-.21-.252 0-.532.056a2.8 2.8 0 0 0-.882.28q.07.294.098.756.042.462.042.966V606h-1.862v-3.458q0-.742-.084-1.204-.07-.462-.308-.672-.239-.21-.686-.21-.252 0-.518.056-.252.042-.476.126-.21.084-.35.154V606zm14.864.154q-1.19 0-1.918-.392-.714-.392-1.036-1.204-.322-.826-.322-2.128 0-1.26.336-2.044.335-.798 1.064-1.176.727-.392 1.876-.392 1.162 0 1.876.392.728.378 1.064 1.176.35.784.35 2.044 0 1.302-.322 2.128-.322.812-1.05 1.204-.714.392-1.918.392m0-1.54q.588 0 .882-.21.293-.224.392-.7.112-.49.112-1.274 0-.77-.126-1.218-.126-.462-.42-.658t-.84-.196q-.532 0-.84.196-.294.196-.42.658-.126.449-.126 1.218 0 .784.098 1.274.112.476.406.7.294.21.882.21m5.56 1.386-1.666-7.028h2.002l1.176 5.446h.406l1.204-5.446h1.89L219.427 606zm8.722.154q-1.161 0-1.848-.392-.672-.392-.966-1.19t-.294-2.002q0-1.302.364-2.128.378-.827 1.092-1.218.714-.406 1.764-.406 1.554 0 2.338.784.798.785.798 2.478l-.084 1.036h-4.396q.015.784.322 1.176.309.392 1.064.392.435 0 .952-.014l1.022-.056q.519-.028.882-.056l.042 1.302q-.35.056-.882.126-.531.07-1.106.112-.56.056-1.064.056m-1.232-4.228h2.618q0-.952-.308-1.33-.294-.378-.966-.378-.447 0-.742.168-.294.168-.448.546t-.154.994M229.29 606v-7.028h1.862v.826q.237-.181.588-.378a6 6 0 0 1 .756-.378q.42-.182.798-.238v1.806q-.365.056-.77.196a8 8 0 0 0-.77.28q-.35.154-.602.28V606z"/>
    <g filter="url(#e)">
      <rect width="361" height="48" x="16" y="653" fill="#2d77e3" rx="12"/>
      <g stroke="#fff" stroke-linecap="round" stroke-linejoin="round" stroke-width="2" clip-path="url(#f)">
        <path d="M116 672.333v9.334M111.333 677h9.333"/>
      </g>
      <path fill="#fff" d="m132.192 683 2.784-10.928h3.856L141.6 683h-2.208l-.608-2.208h-3.824l-.576 2.208zm3.12-3.984h3.152l-1.232-5.152h-.672zm9.96 4.16q-.576 0-1.056-.144a2.3 2.3 0 0 1-.848-.416 2.7 2.7 0 0 1-.608-.784 4.4 4.4 0 0 1-.368-1.168 9 9 0 0 1-.128-1.632q0-1.376.336-2.32.351-.944 1.104-1.424.752-.496 2-.496.24 0 .56.032.32.016.624.064.303.032.496.064v-3.264h2.144V683h-2.112l-.016-.464a7 7 0 0 1-.592.288 5 5 0 0 1-.752.24 2.9 2.9 0 0 1-.784.112m.544-1.792q.288 0 .575-.064.304-.065.561-.144.272-.096.432-.176v-4.304a3 3 0 0 0-.384-.048 8 8 0 0 0-.496-.048 4 4 0 0 0-.464-.032q-.624 0-.976.288-.336.288-.48.848-.144.544-.144 1.328 0 .688.096 1.152.095.448.272.72.192.256.448.368.255.112.56.112m5.47 1.616v-8.032h2.128V683zm0-9.312v-1.824h2.144v1.824zm7.187 9.488q-1.377 0-2.161-.416-.767-.432-1.087-1.376-.304-.944-.304-2.48 0-1.52.352-2.416.351-.912 1.136-1.296.8-.4 2.08-.4.336 0 .784.048.447.048.896.128.463.064.784.128l-.08 1.712a12 12 0 0 0-.688-.048 20 20 0 0 0-.752-.048 7 7 0 0 0-.576-.032q-.689 0-1.088.224-.385.208-.544.704-.144.48-.144 1.296 0 .88.144 1.408.143.528.512.752.384.224 1.12.224.223 0 .592-.016l.752-.064q.4-.031.704-.048l.064 1.712q-.321.064-.768.128-.448.08-.912.128a8 8 0 0 1-.816.048m3.876-.176v-8.032h2.128V683zm0-9.312v-1.824h2.144v1.824zm7.362 9.488q-1.36 0-2.192-.448-.816-.448-1.184-1.376-.368-.944-.368-2.432 0-1.44.384-2.336.384-.912 1.216-1.344.832-.448 2.144-.448 1.328 0 2.144.448.832.432 1.216 1.344.4.896.4 2.336 0 1.488-.368 2.432-.368.928-1.2 1.376-.816.448-2.192.448m0-1.76q.672 0 1.008-.24.336-.256.448-.8.128-.56.128-1.456 0-.88-.144-1.392-.144-.528-.48-.752t-.96-.224q-.607 0-.96.224-.336.224-.48.752-.144.511-.144 1.392 0 .896.112 1.456.128.544.464.8.336.24 1.008.24m5.216 1.584v-8.032h2.128v.512q.257-.16.624-.304.368-.16.768-.272.416-.112.8-.112.832 0 1.376.224.56.208.88.688t.464 1.264q.144.768.144 1.872V683h-2.144v-4.048q0-.832-.096-1.328-.096-.512-.368-.736t-.8-.224q-.288 0-.608.064-.304.048-.592.144a3 3 0 0 0-.448.192V683zm10.94.176q-1.248 0-1.888-.624-.624-.64-.624-1.92 0-.895.32-1.392.32-.512.944-.736.64-.24 1.552-.288l1.952-.176v-.48q0-.576-.288-.8-.288-.24-.848-.24-.449 0-1.04.032a41 41 0 0 0-2.128.176l-.064-1.504q.416-.096.992-.192.591-.112 1.232-.176a12 12 0 0 1 1.184-.064q1.023 0 1.712.256.687.256 1.04.848.352.576.352 1.568v3.664a.48.48 0 0 0 .24.352q.207.112.48.16l-.048 1.472h-.512q-.24.016-.464 0-.225 0-.4-.032a1.9 1.9 0 0 1-.64-.192 1.9 1.9 0 0 1-.416-.304q-.256.112-.688.256a7 7 0 0 1-.944.24 5.3 5.3 0 0 1-1.008.096m.512-1.584q.303 0 .64-.064.336-.064.624-.144.303-.096.48-.176v-1.84l-1.632.144q-.528.048-.768.32-.224.256-.224.736t.208.752q.224.272.672.272m5.767 1.408v-8.032h2.128v.944q.272-.208.672-.432.399-.24.864-.432.48-.208.912-.272v2.064a5 5 0 0 0-.88.224q-.465.144-.88.32a15 15 0 0 0-.688.32V683zm9.3 0v-10.928h2.88l3.504 7.68h.288v-7.68h2.208V683h-2.848l-3.536-7.808h-.288V683zm14.14.176q-1.36 0-2.192-.448-.816-.448-1.184-1.376-.368-.944-.368-2.432 0-1.44.384-2.336.384-.912 1.216-1.344.832-.448 2.144-.448 1.328 0 2.144.448.832.432 1.216 1.344.4.896.4 2.336 0 1.488-.368 2.432-.368.928-1.2 1.376-.816.448-2.192.448m0-1.76q.672 0 1.008-.24.336-.256.448-.8.128-.56.128-1.456 0-.88-.144-1.392-.144-.528-.48-.752t-.96-.224q-.607 0-.96.224-.336.224-.48.752-.144.511-.144 1.392 0 .896.112 1.456.128.544.464.8.336.24 1.008.24m6.355 1.584-1.904-8.032h2.288l1.344 6.224h.464l1.376-6.224h2.16L225.765 683zm10.176.176q-1.36 0-2.192-.448-.815-.448-1.184-1.376-.368-.944-.368-2.432 0-1.44.384-2.336.385-.912 1.216-1.344.833-.448 2.144-.448 1.329 0 2.144.448.832.432 1.216 1.344.4.896.4 2.336 0 1.488-.368 2.432-.368.928-1.2 1.376-.815.448-2.192.448m0-1.76q.672 0 1.008-.24.337-.256.448-.8.129-.56.128-1.456 0-.88-.144-1.392-.144-.528-.48-.752t-.96-.224q-.607 0-.96.224-.336.224-.48.752-.144.511-.144 1.392 0 .896.112 1.456.129.544.464.8.336.24 1.008.24m12.765 1.76q-1.281 0-2.112-.32a2.87 2.87 0 0 1-1.296-1.024q-.48-.688-.672-1.744-.176-1.072-.176-2.544 0-1.488.176-2.544.192-1.072.672-1.76t1.312-1.024q.847-.336 2.16-.336.528 0 1.104.064t1.104.16q.543.08.928.176l-.065 1.76a8 8 0 0 0-.799-.112 14.72 14.72 0 0 0-1.904-.128q-.768 0-1.248.192t-.752.64q-.256.448-.352 1.168a13 13 0 0 0-.096 1.744q0 1.024.096 1.744.096.703.352 1.152.256.432.735.64.496.192 1.281.192.64 0 1.408-.064.783-.08 1.296-.144l.048 1.744q-.384.08-.912.176-.528.08-1.12.128-.592.064-1.168.064m6.672 0q-1.248 0-1.888-.624-.624-.64-.624-1.92 0-.895.32-1.392.32-.512.944-.736.64-.24 1.552-.288l1.952-.176v-.48q0-.576-.288-.8-.288-.24-.848-.24-.448 0-1.04.032a41 41 0 0 0-2.128.176l-.064-1.504q.416-.096.992-.192.592-.112 1.232-.176t1.184-.064q1.024 0 1.712.256t1.04.848q.352.576.352 1.568v3.664a.48.48 0 0 0 .24.352q.209.112.48.16l-.048 1.472h-.512q-.24.016-.464 0-.224 0-.4-.032a1.9 1.9 0 0 1-.64-.192 2 2 0 0 1-.416-.304q-.256.112-.688.256a7 7 0 0 1-.944.24 5.3 5.3 0 0 1-1.008.096m.512-1.584q.304 0 .64-.064t.624-.144q.304-.096.48-.176v-1.84l-1.632.144q-.528.048-.768.32-.224.256-.224.736t.208.752q.223.272.672.272m5.767 1.408v-8.032h2.128v.944q.271-.208.672-.432.4-.24.864-.432.48-.208.912-.272v2.064a5 5 0 0 0-.88.224 9.5 9.5 0 0 0-1.568.64V683zm8.504.192q-.88 0-1.424-.256t-.784-.88q-.224-.64-.224-1.776v-3.536h-.944v-1.776h.944v-2.128h2.128v2.128h2.048v1.776h-2.048v2.976q0 .624.048.976.063.352.256.496.192.144.592.144.111 0 .336-.016l.448-.032q.224-.016.368-.032l.064 1.712q-.24.048-.592.096-.336.048-.672.08a4 4 0 0 1-.544.048m5.03-.016q-1.248 0-1.888-.624-.624-.64-.624-1.92 0-.895.32-1.392.32-.512.944-.736.64-.24 1.552-.288l1.952-.176v-.48q0-.576-.288-.8-.288-.24-.848-.24-.449 0-1.04.032a41 41 0 0 0-2.128.176l-.064-1.504q.416-.096.992-.192.591-.112 1.232-.176a12 12 0 0 1 1.184-.064q1.023 0 1.712.256.687.256 1.04.848.351.576.352 1.568v3.664a.48.48 0 0 0 .24.352q.207.112.48.16l-.048 1.472h-.512q-.24.016-.464 0-.225 0-.4-.032a1.9 1.9 0 0 1-.64-.192 1.9 1.9 0 0 1-.416-.304q-.256.112-.688.256a7 7 0 0 1-.944.24 5.3 5.3 0 0 1-1.008.096m.512-1.584q.303 0 .64-.064.336-.064.624-.144.303-.096.48-.176v-1.84l-1.632.144q-.528.048-.768.32-.224.256-.224.736t.208.752q.224.272.672.272m9.16 1.584q-1.36 0-2.192-.448-.816-.448-1.184-1.376-.368-.944-.368-2.432 0-1.44.384-2.336.384-.912 1.216-1.344.832-.448 2.144-.448 1.328 0 2.144.448.832.432 1.216 1.344.4.896.4 2.336 0 1.488-.368 2.432-.368.928-1.2 1.376-.816.448-2.192.448m0-1.76q.672 0 1.008-.24.336-.256.448-.8.128-.56.128-1.456 0-.88-.144-1.392-.144-.528-.48-.752t-.96-.224q-.608 0-.96.224-.336.224-.48.752-.144.511-.144 1.392 0 .896.112 1.456.128.544.464.8.336.24 1.008.24"/>
    </g>
    <rect width="361" height="64" x="16" y="763" fill="#fff" rx="16"/>
    <rect width="361" height="64" x="16" y="763" stroke="#ecf1f8" rx="16"/>
    <rect width="32" height="32" x="32" y="779" fill="#ecf1f8" rx="8.727"/>
    <g clip-path="url(#g)">
      <path fill="#fe7d49" d="M56.727 790.447v9.107c0 .838-.68 1.517-1.518 1.517H40.79a1.517 1.517 0 0 1-1.517-1.517v-9.107c0-.838.679-1.518 1.517-1.518h14.42c.837 0 1.517.68 1.517 1.518"/>
      <path fill="#fe5a3a" d="M56.727 792.344v7.209c0 .838-.68 1.518-1.518 1.518H40.79c-.838 0-1.517-.68-1.517-1.518v-7.209z"/>
      <path fill="#fed76e" d="M44.559 793.862h-2.983a.406.406 0 0 1-.406-.406v-2.224c0-.224.181-.406.405-.406h2.984c.224 0 .405.182.405.406v2.224a.406.406 0 0 1-.405.406"/>
      <path fill="#feaf50" d="M44.964 792.344v1.112a.406.406 0 0 1-.405.406h-2.983a.406.406 0 0 1-.406-.406v-1.112z"/>
      <path fill="#a62c18" d="M43.73 798.036a.284.284 0 0 1-.284.284h-2.277a.284.284 0 1 1 0-.569h2.277c.157 0 .285.127.285.285m3.51-.285h-2.276a.285.285 0 0 0 0 .569h2.276a.284.284 0 1 0 0-.569m3.795 0h-2.277a.285.285 0 0 0 0 .569h2.277a.284.284 0 1 0 0-.569m3.794 0h-2.276a.285.285 0 0 0 0 .569h2.276a.284.284 0 1 0 0-.569"/>
      <path fill="#fee66b" d="M43.257 792.913h-.38a.57.57 0 0 1 0-1.139h.38a.57.57 0 0 1 0 1.139"/>
      <path fill="#d4e8ff" d="M52.876 792.344a.284.284 0 0 1-.285.284h-.038a.284.284 0 1 1 0-.569h.038c.157 0 .285.128.285.285m.617-.903a.285.285 0 0 0-.286.493.475.475 0 0 1 0 .82.285.285 0 0 0 .286.493c.321-.187.521-.533.521-.903 0-.371-.2-.717-.521-.903m.758-.658a.285.285 0 0 0-.285.493c.38.22.617.629.617 1.068 0 .438-.236.848-.617 1.068a.285.285 0 0 0 .285.492c.556-.321.901-.919.901-1.56a1.81 1.81 0 0 0-.9-1.561"/>
    </g>
    <path fill="#1b1b1b" d="M80.326 800.154q-1.12 0-1.848-.28a2.5 2.5 0 0 1-1.134-.896q-.42-.602-.588-1.526-.154-.937-.154-2.226 0-1.302.154-2.226.168-.938.588-1.54t1.148-.896q.742-.294 1.89-.294.462 0 .966.056t.966.14q.476.07.812.154l-.056 1.54a8 8 0 0 0-.7-.098 13 13 0 0 0-1.666-.112q-.672 0-1.092.168t-.658.56q-.224.392-.308 1.022-.084.616-.084 1.526 0 .896.084 1.526.084.616.308 1.008.225.378.644.56.435.168 1.12.168.56 0 1.232-.056a57 57 0 0 0 1.134-.126l.042 1.526q-.336.07-.798.154-.462.07-.98.112a10 10 0 0 1-1.022.056m5.839 0q-1.094 0-1.653-.546-.546-.56-.546-1.68 0-.784.28-1.218.28-.448.827-.644.56-.21 1.358-.252l1.707-.154v-.42q0-.504-.252-.7-.251-.21-.742-.21-.39 0-.91.028-.503.028-1.007.07a30 30 0 0 0-.855.084l-.055-1.316q.364-.084.868-.168.517-.098 1.078-.154.56-.056 1.035-.056.897 0 1.498.224.603.224.91.742.309.504.308 1.372v3.206a.42.42 0 0 0 .21.308 1.4 1.4 0 0 0 .42.14l-.041 1.288h-.448q-.21.014-.406 0a2 2 0 0 1-.35-.028 1.6 1.6 0 0 1-.56-.168 1.7 1.7 0 0 1-.364-.266q-.225.098-.602.224a6 6 0 0 1-.827.21 4.6 4.6 0 0 1-.882.084m.447-1.386q.267 0 .56-.056a7 7 0 0 0 .547-.126 4 4 0 0 0 .42-.154v-1.61l-1.428.126q-.462.042-.672.28-.197.224-.197.644t.183.658q.195.238.587.238M91.66 800v-7.028h1.862v.826q.237-.181.588-.378.35-.21.756-.378.42-.182.798-.238v1.806q-.365.056-.77.196-.407.126-.77.28-.35.154-.602.28V800zm7.44.168q-.77 0-1.246-.224t-.686-.77q-.195-.56-.196-1.554v-3.094h-.826v-1.554h.826v-1.862h1.862v1.862h1.792v1.554h-1.792v2.604q0 .546.042.854.056.308.224.434t.518.126q.099 0 .294-.014l.392-.028q.196-.014.322-.028l.056 1.498q-.21.042-.518.084-.294.042-.588.07a3 3 0 0 1-.476.042m4.401-.014q-1.091 0-1.652-.546-.546-.56-.546-1.68 0-.784.28-1.218a1.56 1.56 0 0 1 .826-.644q.56-.21 1.358-.252l1.708-.154v-.42q0-.504-.252-.7-.252-.21-.742-.21-.391 0-.91.028-.504.028-1.008.07-.49.042-.854.084l-.056-1.316q.364-.084.868-.168.519-.098 1.078-.154.56-.056 1.036-.056.897 0 1.498.224.603.224.91.742.309.504.308 1.372v3.206a.42.42 0 0 0 .21.308q.183.098.42.14l-.042 1.288h-.448q-.21.014-.406 0-.195 0-.35-.028a1.7 1.7 0 0 1-.56-.168 1.7 1.7 0 0 1-.364-.266q-.224.098-.602.224a6 6 0 0 1-.826.21 4.6 4.6 0 0 1-.882.084m.448-1.386q.267 0 .56-.056a7 7 0 0 0 .546-.126 4 4 0 0 0 .42-.154v-1.61l-1.428.126q-.462.042-.672.28-.196.224-.196.644t.182.658q.197.238.588.238m8.016 1.386q-1.19 0-1.918-.392-.714-.392-1.036-1.204-.322-.826-.322-2.128 0-1.26.336-2.044a2.27 2.27 0 0 1 1.064-1.176q.728-.392 1.876-.392 1.162 0 1.876.392.728.378 1.064 1.176.35.784.35 2.044 0 1.302-.322 2.128-.323.812-1.05 1.204-.714.392-1.918.392m0-1.54q.588 0 .882-.21.294-.224.392-.7.112-.49.112-1.274 0-.77-.126-1.218-.126-.462-.42-.658t-.84-.196q-.532 0-.84.196-.294.196-.42.658-.126.449-.126 1.218 0 .784.098 1.274.112.476.406.7.294.21.882.21m7.725 1.386v-9.562h3.654q1.12 0 1.876.322a2.85 2.85 0 0 1 1.232.91q.462.602.658 1.456.21.854.21 1.946 0 1.106-.196 2.002a4.3 4.3 0 0 1-.63 1.554 3 3 0 0 1-1.204 1.022q-.756.35-1.89.35zm1.932-1.624h1.666q.657 0 1.064-.252.406-.252.616-.7.224-.462.294-1.05.084-.601.084-1.302 0-.672-.084-1.218a2.7 2.7 0 0 0-.308-.952 1.4 1.4 0 0 0-.616-.616q-.393-.224-1.05-.224h-1.666zm9.876 1.778q-1.162 0-1.848-.392-.672-.392-.966-1.19t-.294-2.002q0-1.302.364-2.128.378-.827 1.092-1.218.714-.406 1.764-.406 1.554 0 2.338.784.798.785.798 2.478l-.084 1.036h-4.396q.013.784.322 1.176.308.392 1.064.392.433 0 .952-.014l1.022-.056q.517-.028.882-.056l.042 1.302q-.351.056-.882.126-.533.07-1.106.112-.56.056-1.064.056m-1.232-4.228h2.618q0-.952-.308-1.33-.294-.378-.966-.378-.448 0-.742.168t-.448.546-.154.994m12.323 4.228q-1.12 0-1.848-.28a2.5 2.5 0 0 1-1.134-.896q-.42-.602-.588-1.526-.154-.937-.154-2.226 0-1.302.154-2.226.168-.938.588-1.54t1.148-.896q.741-.294 1.89-.294.462 0 .966.056t.966.14q.476.07.812.154l-.056 1.54a8 8 0 0 0-.7-.098 13 13 0 0 0-1.666-.112q-.672 0-1.092.168t-.658.56q-.225.392-.308 1.022-.084.616-.084 1.526 0 .896.084 1.526.084.616.308 1.008.224.378.644.56.433.168 1.12.168.56 0 1.232-.056.685-.07 1.134-.126l.042 1.526q-.336.07-.798.154-.462.07-.98.112a10 10 0 0 1-1.022.056m3.977-.154v-7.028h1.862v.826q.238-.181.588-.378a6 6 0 0 1 .756-.378q.42-.182.798-.238v1.806a4.5 4.5 0 0 0-.77.196 8 8 0 0 0-.77.28q-.35.154-.602.28V800zm7.736.154q-1.161 0-1.848-.392-.672-.392-.966-1.19t-.294-2.002q0-1.302.364-2.128.378-.827 1.092-1.218.714-.406 1.764-.406 1.555 0 2.338.784.798.785.798 2.478l-.084 1.036h-4.396q.015.784.322 1.176.309.392 1.064.392.435 0 .952-.014l1.022-.056q.519-.028.882-.056l.042 1.302q-.35.056-.882.126-.531.07-1.106.112-.56.056-1.064.056m-1.232-4.228h2.618q0-.952-.308-1.33-.294-.378-.966-.378-.447 0-.742.168-.294.168-.448.546t-.154.994m8.085 4.228q-.504 0-.924-.126a2 2 0 0 1-.742-.364 2.3 2.3 0 0 1-.532-.686 3.9 3.9 0 0 1-.322-1.022 8 8 0 0 1-.112-1.428q0-1.204.294-2.03.308-.826.966-1.246.657-.434 1.75-.434.21 0 .49.028.279.014.546.056.266.028.434.056v-2.856h1.876V800h-1.848l-.014-.406a5 5 0 0 1-.518.252 4.6 4.6 0 0 1-.658.21 2.6 2.6 0 0 1-.686.098m.476-1.568q.252 0 .504-.056.265-.055.49-.126.237-.084.378-.154v-3.766a2 2 0 0 0-.336-.042 6 6 0 0 0-.434-.042 3 3 0 0 0-.406-.028q-.546 0-.854.252-.294.252-.42.742a4.6 4.6 0 0 0-.126 1.162q0 .601.084 1.008.084.391.238.63a1 1 0 0 0 .392.322q.223.098.49.098m4.786 1.414v-7.028h1.862V800zm0-8.148v-1.596h1.876v1.596zm5.882 8.316q-.77 0-1.246-.224t-.686-.77q-.195-.56-.196-1.554v-3.094h-.826v-1.554h.826v-1.862h1.862v1.862h1.792v1.554h-1.792v2.604q0 .546.042.854.056.308.224.434t.518.126q.099 0 .294-.014l.392-.028q.196-.014.322-.028l.056 1.498q-.21.042-.518.084a13 13 0 0 1-.588.07 3 3 0 0 1-.476.042m5.592-.014q-1.19 0-1.918-.392-.714-.392-1.036-1.204-.322-.826-.322-2.128 0-1.26.336-2.044.335-.798 1.064-1.176.727-.392 1.876-.392 1.162 0 1.876.392.728.378 1.064 1.176.35.784.35 2.044 0 1.302-.322 2.128-.322.812-1.05 1.204-.715.392-1.918.392m0-1.54q.588 0 .882-.21.293-.224.392-.7.112-.49.112-1.274 0-.77-.126-1.218-.126-.462-.42-.658t-.84-.196q-.532 0-.84.196-.294.196-.42.658-.126.449-.126 1.218 0 .784.098 1.274.112.476.406.7.294.21.882.21"/>
    <rect width="361" height="64" x="16" y="839" fill="#fff" rx="16"/>
    <rect width="361" height="64" x="16" y="839" stroke="#ecf1f8" rx="16"/>
    <rect width="32" height="32" x="32" y="855" fill="#ecf1f8" rx="8.727"/>
    <g clip-path="url(#h)">
      <path fill="#03a9f4" d="M52.535 865.437a1.41 1.41 0 0 0-1.441-.307.4.4 0 0 0-.267.317l-.111.763a2.354 2.354 0 0 1-2.32 2.014H46.81a.4.4 0 0 0-.384.3l-1.19 4.76a.397.397 0 0 0 .384.493h1.984c.182 0 .34-.124.384-.301l.718-2.872h1.547a2.57 2.57 0 0 0 2.508-1.959l.292-1.173a2.09 2.09 0 0 0-.517-2.035"/>
      <path fill="#283593" d="M39.669 878.537a.397.397 0 0 1-.385-.493l.397-1.578v-.017l.397-1.578a.4.4 0 0 1 .384-.301h1.01a.992.992 0 0 1 .962 1.232l-.1.397a.99.99 0 0 1-.962.751h-.996l-.321 1.286a.4.4 0 0 1-.386.301m.905-2.38h.798c.091 0 .17-.062.192-.151l.1-.396a.198.198 0 0 0-.193-.247h-.698zM43.91 878.537h-.564a1.1 1.1 0 0 1-1.067-1.366l.052-.211a1.06 1.06 0 0 1 1.032-.804h.565a1.1 1.1 0 0 1 1.064 1.367l-.052.211a1.06 1.06 0 0 1-1.03.803m-.86-1.173a.306.306 0 0 0 .296.38h.565c.122 0 .229-.083.258-.202l.053-.211a.306.306 0 0 0-.297-.38h-.565a.266.266 0 0 0-.258.202z"/>
      <path fill="#283593" d="M44.43 878.537a.397.397 0 0 1-.385-.493l.397-1.586a.397.397 0 1 1 .77.192l-.397 1.586a.4.4 0 0 1-.385.301"/>
      <path fill="#03a9f4" d="M49.19 878.537a.397.397 0 0 1-.385-.493l.396-1.578v-.017l.397-1.578a.4.4 0 0 1 .385-.301h1.01a.992.992 0 0 1 .962 1.232l-.1.397a.99.99 0 0 1-.962.751h-.996l-.322 1.286a.4.4 0 0 1-.386.301m.905-2.38h.799c.09 0 .17-.062.192-.151l.099-.396a.198.198 0 0 0-.192-.247h-.7zM53.431 878.537h-.564a1.1 1.1 0 0 1-1.068-1.366l.053-.211a1.06 1.06 0 0 1 1.031-.804h.565a1.1 1.1 0 0 1 1.067 1.366l-.052.211a1.06 1.06 0 0 1-1.032.804m-.861-1.173a.306.306 0 0 0 .297.38h.564c.123 0 .23-.083.259-.202l.052-.211a.306.306 0 0 0-.296-.38h-.565a.266.266 0 0 0-.259.202z"/>
      <path fill="#03a9f4" d="M53.95 878.537a.397.397 0 0 1-.385-.492l.397-1.587a.397.397 0 1 1 .77.192l-.396 1.587a.396.396 0 0 1-.386.3"/>
      <path fill="#283593" d="M46.81 878.141a.4.4 0 0 1-.33-.177l-.794-1.19a.398.398 0 0 1 .66-.441l.793 1.19a.398.398 0 0 1-.33.618"/>
      <path fill="#283593" d="M46.016 879.33a.397.397 0 0 1-.305-.651l1.983-2.38a.397.397 0 0 1 .61.509l-1.984 2.38a.4.4 0 0 1-.304.142"/>
      <path fill="#03a9f4" d="M55.536 878.537a.397.397 0 0 1-.385-.493l.794-3.173a.397.397 0 1 1 .77.192l-.793 3.173a.4.4 0 0 1-.386.301"/>
      <path fill="#283593" d="M51.225 863.356a2 2 0 0 0-1.512-.686h-4.49a.396.396 0 0 0-.39.326l-1.587 8.727a.397.397 0 0 0 .39.467h2.38c.182 0 .34-.124.385-.301l.719-2.872h1.276a3.15 3.15 0 0 0 3.106-2.698l.198-1.356a2.02 2.02 0 0 0-.475-1.607"/>
    </g>
    <path fill="#1b1b1b" d="M80.326 876.154q-1.12 0-1.848-.28a2.5 2.5 0 0 1-1.134-.896q-.42-.602-.588-1.526-.154-.937-.154-2.226 0-1.302.154-2.226.168-.938.588-1.54t1.148-.896q.742-.294 1.89-.294.462 0 .966.056t.966.14q.476.07.812.154l-.056 1.54a8 8 0 0 0-.7-.098 13 13 0 0 0-1.666-.112q-.672 0-1.092.168t-.658.56q-.224.392-.308 1.022-.084.616-.084 1.526 0 .896.084 1.526.084.616.308 1.008.225.378.644.56.435.168 1.12.168.56 0 1.232-.056a57 57 0 0 0 1.134-.126l.042 1.526q-.336.07-.798.154-.462.07-.98.112a10 10 0 0 1-1.022.056m5.839 0q-1.094 0-1.653-.546-.546-.56-.546-1.68 0-.784.28-1.218.28-.448.827-.644.56-.21 1.358-.252l1.707-.154v-.42q0-.504-.252-.7-.251-.21-.742-.21-.39 0-.91.028-.503.028-1.007.07a30 30 0 0 0-.855.084l-.055-1.316q.364-.084.868-.168.517-.098 1.078-.154.56-.056 1.035-.056.897 0 1.498.224.603.224.91.742.309.504.308 1.372v3.206a.42.42 0 0 0 .21.308 1.4 1.4 0 0 0 .42.14l-.041 1.288h-.448q-.21.014-.406 0a2 2 0 0 1-.35-.028 1.6 1.6 0 0 1-.56-.168 1.7 1.7 0 0 1-.364-.266q-.225.098-.602.224a6 6 0 0 1-.827.21 4.6 4.6 0 0 1-.882.084m.447-1.386q.267 0 .56-.056a7 7 0 0 0 .547-.126 4 4 0 0 0 .42-.154v-1.61l-1.428.126q-.462.042-.672.28-.197.224-.197.644t.183.658q.195.238.587.238M91.66 876v-7.028h1.862v.826q.237-.181.588-.378.35-.21.756-.378.42-.182.798-.238v1.806q-.365.056-.77.196-.407.126-.77.28-.35.154-.602.28V876zm7.44.168q-.77 0-1.246-.224t-.686-.77q-.195-.56-.196-1.554v-3.094h-.826v-1.554h.826v-1.862h1.862v1.862h1.792v1.554h-1.792v2.604q0 .546.042.854.056.308.224.434t.518.126q.099 0 .294-.014l.392-.028q.196-.014.322-.028l.056 1.498q-.21.042-.518.084-.294.042-.588.07a3 3 0 0 1-.476.042m4.401-.014q-1.091 0-1.652-.546-.546-.56-.546-1.68 0-.784.28-1.218a1.56 1.56 0 0 1 .826-.644q.56-.21 1.358-.252l1.708-.154v-.42q0-.504-.252-.7-.252-.21-.742-.21-.391 0-.91.028-.504.028-1.008.07-.49.042-.854.084l-.056-1.316q.364-.084.868-.168.519-.098 1.078-.154.56-.056 1.036-.056.897 0 1.498.224.603.224.91.742.309.504.308 1.372v3.206a.42.42 0 0 0 .21.308q.183.098.42.14l-.042 1.288h-.448q-.21.014-.406 0-.195 0-.35-.028a1.7 1.7 0 0 1-.56-.168 1.7 1.7 0 0 1-.364-.266q-.224.098-.602.224a6 6 0 0 1-.826.21 4.6 4.6 0 0 1-.882.084m.448-1.386q.267 0 .56-.056a7 7 0 0 0 .546-.126 4 4 0 0 0 .42-.154v-1.61l-1.428.126q-.462.042-.672.28-.196.224-.196.644t.182.658q.197.238.588.238m8.016 1.386q-1.19 0-1.918-.392-.714-.392-1.036-1.204-.322-.826-.322-2.128 0-1.26.336-2.044a2.27 2.27 0 0 1 1.064-1.176q.728-.392 1.876-.392 1.162 0 1.876.392.728.378 1.064 1.176.35.784.35 2.044 0 1.302-.322 2.128-.323.812-1.05 1.204-.714.392-1.918.392m0-1.54q.588 0 .882-.21.294-.224.392-.7.112-.49.112-1.274 0-.77-.126-1.218-.126-.462-.42-.658t-.84-.196q-.532 0-.84.196-.294.196-.42.658-.126.449-.126 1.218 0 .784.098 1.274.112.476.406.7.294.21.882.21m7.725 1.386v-9.562h3.654q1.12 0 1.876.322a2.85 2.85 0 0 1 1.232.91q.462.602.658 1.456.21.854.21 1.946 0 1.106-.196 2.002a4.3 4.3 0 0 1-.63 1.554 3 3 0 0 1-1.204 1.022q-.756.35-1.89.35zm1.932-1.624h1.666q.657 0 1.064-.252.406-.252.616-.7.224-.462.294-1.05.084-.601.084-1.302 0-.672-.084-1.218a2.7 2.7 0 0 0-.308-.952 1.4 1.4 0 0 0-.616-.616q-.393-.224-1.05-.224h-1.666zm9.876 1.778q-1.162 0-1.848-.392-.672-.392-.966-1.19t-.294-2.002q0-1.302.364-2.128.378-.827 1.092-1.218.714-.406 1.764-.406 1.554 0 2.338.784.798.785.798 2.478l-.084 1.036h-4.396q.013.784.322 1.176.308.392 1.064.392.433 0 .952-.014l1.022-.056q.517-.028.882-.056l.042 1.302q-.351.056-.882.126-.533.07-1.106.112-.56.056-1.064.056m-1.232-4.228h2.618q0-.952-.308-1.33-.294-.378-.966-.378-.448 0-.742.168t-.448.546-.154.994m12.323 4.228q-1.12 0-1.848-.28a2.5 2.5 0 0 1-1.134-.896q-.42-.602-.588-1.526-.154-.937-.154-2.226 0-1.302.154-2.226.168-.938.588-1.54t1.148-.896q.741-.294 1.89-.294.462 0 .966.056t.966.14q.476.07.812.154l-.056 1.54a8 8 0 0 0-.7-.098 13 13 0 0 0-1.666-.112q-.672 0-1.092.168t-.658.56q-.225.392-.308 1.022-.084.616-.084 1.526 0 .896.084 1.526.084.616.308 1.008.224.378.644.56.433.168 1.12.168.56 0 1.232-.056.685-.07 1.134-.126l.042 1.526q-.336.07-.798.154-.462.07-.98.112a10 10 0 0 1-1.022.056m3.977-.154v-7.028h1.862v.826q.238-.181.588-.378a6 6 0 0 1 .756-.378q.42-.182.798-.238v1.806a4.5 4.5 0 0 0-.77.196 8 8 0 0 0-.77.28q-.35.154-.602.28V876zm7.736.154q-1.161 0-1.848-.392-.672-.392-.966-1.19t-.294-2.002q0-1.302.364-2.128.378-.827 1.092-1.218.714-.406 1.764-.406 1.555 0 2.338.784.798.785.798 2.478l-.084 1.036h-4.396q.015.784.322 1.176.309.392 1.064.392.435 0 .952-.014l1.022-.056q.519-.028.882-.056l.042 1.302q-.35.056-.882.126-.531.07-1.106.112-.56.056-1.064.056m-1.232-4.228h2.618q0-.952-.308-1.33-.294-.378-.966-.378-.447 0-.742.168-.294.168-.448.546t-.154.994m8.085 4.228q-.504 0-.924-.126a2 2 0 0 1-.742-.364 2.3 2.3 0 0 1-.532-.686 3.9 3.9 0 0 1-.322-1.022 8 8 0 0 1-.112-1.428q0-1.204.294-2.03.308-.826.966-1.246.657-.434 1.75-.434.21 0 .49.028.279.014.546.056.266.028.434.056v-2.856h1.876V876h-1.848l-.014-.406a5 5 0 0 1-.518.252 4.6 4.6 0 0 1-.658.21 2.6 2.6 0 0 1-.686.098m.476-1.568q.252 0 .504-.056.265-.055.49-.126.237-.084.378-.154v-3.766a2 2 0 0 0-.336-.042 6 6 0 0 0-.434-.042 3 3 0 0 0-.406-.028q-.546 0-.854.252-.294.252-.42.742a4.6 4.6 0 0 0-.126 1.162q0 .601.084 1.008.084.391.238.63a1 1 0 0 0 .392.322q.223.098.49.098m4.786 1.414v-7.028h1.862V876zm0-8.148v-1.596h1.876v1.596zm5.882 8.316q-.77 0-1.246-.224t-.686-.77q-.195-.56-.196-1.554v-3.094h-.826v-1.554h.826v-1.862h1.862v1.862h1.792v1.554h-1.792v2.604q0 .546.042.854.056.308.224.434t.518.126q.099 0 .294-.014l.392-.028q.196-.014.322-.028l.056 1.498q-.21.042-.518.084a13 13 0 0 1-.588.07 3 3 0 0 1-.476.042m5.592-.014q-1.19 0-1.918-.392-.714-.392-1.036-1.204-.322-.826-.322-2.128 0-1.26.336-2.044.335-.798 1.064-1.176.727-.392 1.876-.392 1.162 0 1.876.392.728.378 1.064 1.176.35.784.35 2.044 0 1.302-.322 2.128-.322.812-1.05 1.204-.715.392-1.918.392m0-1.54q.588 0 .882-.21.293-.224.392-.7.112-.49.112-1.274 0-.77-.126-1.218-.126-.462-.42-.658t-.84-.196q-.532 0-.84.196-.294.196-.42.658-.126.449-.126 1.218 0 .784.098 1.274.112.476.406.7.294.21.882.21"/>
    <rect width="361" height="64" x="16" y="915" fill="#fff" rx="16"/>
    <rect width="361" height="64" x="16" y="915" stroke="#ecf1f8" rx="16"/>
    <rect width="32" height="32" x="32" y="931" fill="#ecf1f8" rx="8.727"/>
    <g fill="#000" fill-rule="evenodd" clip-path="url(#i)" clip-rule="evenodd">
      <path d="M47.723 943.054a4 4 0 0 0-2.732-.298 4.654 4.654 0 0 0-3.537 4.518v.439a8 8 0 0 0 3.235 6.426l.492.364a2.18 2.18 0 0 0 2.266.204l.6-.297a.73.73 0 0 1 .67.012l.582.316c.756.41 1.682.337 2.366-.186l.545-.417a8 8 0 0 0 2.249-2.688.726.726 0 0 0-.56-1.055c-1.174-.141-2.1-1.161-2.1-2.415 0-1.245.913-2.259 2.074-2.411a.728.728 0 0 0 .477-1.171 4.65 4.65 0 0 0-2.54-1.639 4 4 0 0 0-2.731.298l-.678.335z"/>
      <path d="M49.454 939a2.18 2.18 0 0 0-2.181 2.182v.727c0 .402.325.727.727.727h.727a2.18 2.18 0 0 0 2.182-2.181v-.728a.727.727 0 0 0-.727-.727z"/>
    </g>
    <path fill="#1b1b1b" d="m76.168 952 2.436-9.562h3.374L84.4 952h-1.932l-.532-1.932H78.59L78.086 952zm2.73-3.486h2.758l-1.078-4.508h-.588zm6.444 6.44v-9.982h1.848l.014.448q.196-.126.49-.266.309-.14.658-.238a2.6 2.6 0 0 1 .686-.098q.939 0 1.512.406.588.392.854 1.204.28.798.28 2.03 0 1.316-.308 2.128-.307.812-.994 1.19-.671.378-1.778.378-.35 0-.756-.056a7 7 0 0 1-.644-.112v2.968zm2.968-4.354q.561 0 .882-.238.322-.239.448-.714.14-.49.14-1.232 0-1.148-.322-1.582-.308-.448-.896-.448-.225 0-.476.056a4 4 0 0 0-.49.14q-.238.084-.392.168v3.752q.168.014.476.056.323.042.63.042m4.647 4.354v-9.982h1.849l.014.448q.195-.126.49-.266.308-.14.657-.238a2.6 2.6 0 0 1 .686-.098q.939 0 1.512.406.588.392.854 1.204.28.798.28 2.03 0 1.316-.308 2.128t-.993 1.19q-.673.378-1.779.378a7.307 7.307 0 0 1-1.4-.168v2.968zm2.969-4.354q.56 0 .882-.238.321-.239.447-.714.14-.49.14-1.232 0-1.148-.322-1.582-.307-.448-.895-.448-.224 0-.477.056a4 4 0 0 0-.49.14 3 3 0 0 0-.391.168v3.752q.167.014.476.056.321.042.63.042m4.703 1.4v-9.898h1.862V952zm6.299.154q-1.161 0-1.848-.392-.672-.392-.966-1.19t-.294-2.002q0-1.302.364-2.128.378-.827 1.092-1.218.714-.406 1.764-.406 1.555 0 2.338.784.798.785.798 2.478l-.084 1.036h-4.396q.015.784.322 1.176.309.392 1.064.392.435 0 .952-.014l1.022-.056q.519-.028.882-.056l.042 1.302q-.35.056-.882.126-.531.07-1.106.112-.56.056-1.064.056m-1.232-4.228h2.618q0-.952-.308-1.33-.294-.378-.966-.378-.448 0-.742.168t-.448.546-.154.994m8.879 4.074v-9.562h3.598q1.191 0 1.974.336.784.323 1.176 1.05.406.728.406 1.946t-.406 1.988a2.45 2.45 0 0 1-1.176 1.12q-.783.35-1.974.35h-1.666V952zm1.932-4.354h1.61q.882 0 1.26-.462.378-.476.378-1.4 0-.952-.378-1.358t-1.26-.406h-1.61zm8.048 4.508q-1.091 0-1.652-.546-.546-.56-.546-1.68 0-.784.28-1.218a1.56 1.56 0 0 1 .826-.644q.56-.21 1.358-.252l1.708-.154v-.42q0-.504-.252-.7-.252-.21-.742-.21-.391 0-.91.028-.504.028-1.008.07-.49.042-.854.084l-.056-1.316q.364-.084.868-.168.519-.098 1.078-.154.56-.056 1.036-.056.897 0 1.498.224.603.224.91.742.309.504.308 1.372v3.206a.42.42 0 0 0 .21.308q.183.098.42.14l-.042 1.288h-.448q-.21.014-.406 0-.195 0-.35-.028a1.7 1.7 0 0 1-.56-.168 1.7 1.7 0 0 1-.364-.266q-.224.098-.602.224a6 6 0 0 1-.826.21 4.6 4.6 0 0 1-.882.084m.448-1.386q.267 0 .56-.056a7 7 0 0 0 .546-.126 4 4 0 0 0 .42-.154v-1.61l-1.428.126q-.462.042-.672.28-.195.224-.196.644 0 .42.182.658.197.238.588.238m6.591 4.186.896-2.954h-1.498l-1.666-7.028h1.946l1.246 5.446h.364l1.246-5.446h1.876l-2.422 9.982z"/>
  </g>
  <defs>
    <clipPath id="a">
      <rect width="393" height="1003" fill="#fff" rx="16"/>
    </clipPath>
    <clipPath id="b">
      <path fill="#fff" d="M341 251h20v20h-20z"/>
    </clipPath>
    <clipPath id="c">
      <path fill="#fff" d="M159 441h16v16h-16z"/>
    </clipPath>
    <clipPath id="d">
      <path fill="#fff" d="M159 593h16v16h-16z"/>
    </clipPath>
    <clipPath id="f">
      <path fill="#fff" d="M108 669h16v16h-16z"/>
    </clipPath>
    <clipPath id="g">
      <path fill="#fff" d="M39.273 786.273h17.454v17.454H39.273z"/>
    </clipPath>
    <clipPath id="h">
      <path fill="#fff" d="M39.273 862.273h17.454v17.454H39.273z"/>
    </clipPath>
    <clipPath id="i">
      <path fill="#fff" d="M39.273 938.273h17.454v17.454H39.273z"/>
    </clipPath>
    <filter id="e" width="401.8" height="88.8" x="-4.4" y="636.6" color-interpolation-filters="sRGB" filterUnits="userSpaceOnUse">
      <feFlood flood-opacity="0" result="BackgroundImageFix"/>
      <feColorMatrix in="SourceAlpha" result="hardAlpha" values="0 0 0 0 0 0 0 0 0 0 0 0 0 0 0 0 0 0 127 0"/>
      <feOffset dy="4"/>
      <feGaussianBlur stdDeviation="10.2"/>
      <feComposite in2="hardAlpha" operator="out"/>
      <feColorMatrix values="0 0 0 0 0.176471 0 0 0 0 0.466667 0 0 0 0 0.890196 0 0 0 0.16 0"/>
      <feBlend in2="BackgroundImageFix" result="effect1_dropShadow_43_1554"/>
      <feBlend in="SourceGraphic" in2="effect1_dropShadow_43_1554" result="shape"/>
    </filter>
  </defs>
</svg>
