<svg xmlns="http://www.w3.org/2000/svg" width="393" height="852" fill="none" viewBox="0 0 393 852">
  <g clip-path="url(#a)">
    <rect width="393" height="852" fill="#f7fafd" rx="16"/>
    <path fill="#1b1b1b" d="M79.373 614v-13.66h5.34q1.64 0 2.74.42 1.12.42 1.66 1.4.56.98.56 2.66 0 1.48-.54 2.5-.52 1-1.6 1.48l2.14 5.2h-2.9l-1.8-4.58h-2.84V614zm2.76-6.84h2.64q.76 0 1.22-.28.46-.3.66-.82.2-.54.2-1.22 0-1.12-.52-1.68-.519-.56-1.62-.56h-2.58zm13.367 7.06q-1.66 0-2.64-.56-.96-.56-1.38-1.7t-.42-2.86q0-1.86.52-3.04.54-1.18 1.56-1.74 1.02-.58 2.52-.58 2.22 0 3.34 1.12 1.14 1.12 1.14 3.54l-.12 1.48h-6.28q.02 1.12.46 1.68t1.52.56q.62 0 1.36-.02l1.46-.08a57 57 0 0 0 1.26-.08l.06 1.86q-.501.08-1.26.18-.76.1-1.58.16-.8.08-1.52.08m-1.76-6.04h3.74q0-1.36-.44-1.9-.42-.54-1.38-.54-.64 0-1.06.24t-.64.78-.22 1.42m11.549 6.04q-.72 0-1.32-.18-.6-.16-1.06-.52a3.4 3.4 0 0 1-.76-.98q-.3-.6-.46-1.46a11.5 11.5 0 0 1-.16-2.04q0-1.72.42-2.9.44-1.18 1.38-1.78.94-.62 2.5-.62.3 0 .7.04.399.02.78.08.38.04.62.08v-4.08h2.68V614h-2.64l-.02-.58a8 8 0 0 1-.74.36q-.44.18-.94.3-.5.14-.98.14m.68-2.24q.36 0 .72-.08.38-.08.7-.18.339-.12.54-.22v-5.38a3 3 0 0 0-.48-.06 9 9 0 0 0-.62-.06 5 5 0 0 0-.58-.04q-.78 0-1.22.36-.42.36-.6 1.06-.18.68-.18 1.66 0 .86.12 1.44.12.56.34.9a1.4 1.4 0 0 0 .56.46q.32.14.7.14m10.898 2.24q-1.66 0-2.64-.56-.96-.56-1.38-1.7t-.42-2.86q0-1.86.52-3.04.54-1.18 1.56-1.74 1.02-.58 2.52-.58 2.22 0 3.34 1.12 1.14 1.12 1.14 3.54l-.12 1.48h-6.28q.02 1.12.46 1.68t1.52.56q.62 0 1.36-.02l1.46-.08q.74-.04 1.26-.08l.06 1.86q-.5.08-1.26.18a27 27 0 0 1-1.58.16 15 15 0 0 1-1.52.08m-1.76-6.04h3.74q0-1.36-.44-1.9-.42-.54-1.38-.54-.64 0-1.06.24t-.64.78-.22 1.42m15.904 6.04q-.72 0-1.32-.18-.6-.16-1.06-.52a3.4 3.4 0 0 1-.76-.98q-.3-.6-.46-1.46a11.6 11.6 0 0 1-.16-2.04q0-1.72.42-2.9.441-1.18 1.38-1.78.94-.62 2.5-.62.3 0 .7.04.4.02.78.08.38.04.62.08v-4.08h2.68V614h-2.64l-.02-.58a8 8 0 0 1-.74.36q-.44.18-.94.3-.5.14-.98.14m.68-2.24q.36 0 .72-.08a7 7 0 0 0 .7-.18q.34-.12.54-.22v-5.38a3 3 0 0 0-.48-.06 9 9 0 0 0-.62-.06 5 5 0 0 0-.58-.04q-.78 0-1.22.36-.42.36-.6 1.06-.18.68-.18 1.66 0 .86.12 1.44.12.56.34.9.24.32.56.46t.7.14m10.899 2.24q-1.66 0-2.64-.56-.96-.56-1.38-1.7t-.42-2.86q0-1.86.52-3.04.54-1.18 1.56-1.74 1.02-.58 2.52-.58 2.22 0 3.34 1.12 1.14 1.12 1.14 3.54l-.12 1.48h-6.28q.02 1.12.46 1.68t1.52.56q.62 0 1.36-.02l1.46-.08q.74-.04 1.26-.08l.06 1.86a51 51 0 0 1-1.26.18 27 27 0 0 1-1.58.16q-.8.08-1.52.08m-1.76-6.04h3.74q0-1.36-.44-1.9-.42-.54-1.38-.54-.64 0-1.06.24t-.64.78-.22 1.42m11.664 5.82 3.48-13.66h4.82l3.46 13.66h-2.76l-.76-2.76h-4.78l-.72 2.76zm3.9-4.98h3.94l-1.54-6.44h-.84zm9.206 9.2v-14.26h2.64l.02.64q.28-.18.7-.38a6.5 6.5 0 0 1 .94-.34q.5-.14.98-.14 1.34 0 2.16.58.84.56 1.22 1.72.4 1.14.4 2.9 0 1.88-.44 3.04t-1.42 1.7q-.96.54-2.54.54-.5 0-1.08-.08a10 10 0 0 1-.92-.16v4.24zm4.24-6.22q.8 0 1.26-.34t.64-1.02q.2-.7.2-1.76 0-1.64-.46-2.26-.44-.64-1.28-.64-.32 0-.68.08t-.7.2a4 4 0 0 0-.56.24v5.36q.24.02.68.08.46.06.9.06m10.959 2.22q-1.7 0-2.74-.56-1.02-.56-1.48-1.72-.46-1.18-.46-3.04 0-1.8.48-2.92.48-1.14 1.52-1.68 1.04-.56 2.68-.56 1.66 0 2.68.56 1.04.54 1.52 1.68.5 1.12.5 2.92 0 1.86-.46 3.04-.46 1.16-1.5 1.72-1.02.56-2.74.56m0-2.2q.84 0 1.26-.3.42-.32.56-1 .16-.7.16-1.82 0-1.1-.18-1.74-.18-.66-.6-.94t-1.2-.28q-.76 0-1.2.28-.42.28-.6.94-.18.64-.18 1.74 0 1.12.14 1.82.16.68.58 1 .42.3 1.26.3m6.52 1.98v-10.04h2.66V614zm0-11.64v-2.28h2.68v2.28zm9.203 11.86q-1.7 0-2.74-.56-1.02-.56-1.48-1.72-.46-1.18-.46-3.04 0-1.8.48-2.92.48-1.14 1.52-1.68 1.04-.56 2.68-.56 1.66 0 2.68.56 1.04.54 1.52 1.68.5 1.12.5 2.92 0 1.86-.46 3.04-.46 1.16-1.5 1.72-1.02.56-2.74.56m0-2.2q.84 0 1.26-.3.42-.32.56-1 .16-.7.16-1.82 0-1.1-.18-1.74-.18-.66-.6-.94t-1.2-.28q-.76 0-1.2.28-.42.28-.6.94-.18.64-.18 1.74 0 1.12.14 1.82.16.68.58 1 .42.3 1.26.3m13.495 2.2q-1.56 0-2.36-.78-.78-.8-.78-2.4 0-1.12.4-1.74.4-.64 1.18-.92.8-.3 1.94-.36l2.44-.22v-.6q0-.72-.36-1-.36-.3-1.06-.3-.56 0-1.3.04-.72.04-1.44.1-.7.06-1.22.12l-.08-1.88q.52-.12 1.24-.24a18 18 0 0 1 1.54-.22q.8-.08 1.48-.08 1.28 0 2.14.32t1.3 1.06q.44.72.44 1.96v4.58a.6.6 0 0 0 .3.44q.26.14.6.2l-.06 1.84h-.64q-.3.02-.58 0-.28 0-.5-.04a2.4 2.4 0 0 1-.8-.24 2.4 2.4 0 0 1-.52-.38q-.32.14-.86.32t-1.18.3a6.6 6.6 0 0 1-1.26.12m.64-1.98q.38 0 .8-.08t.78-.18q.38-.12.6-.22v-2.3l-2.04.18q-.66.06-.96.4-.28.32-.28.92t.26.94q.28.34.84.34m11.451 1.98q-1.7 0-2.74-.56-1.02-.56-1.48-1.72-.46-1.18-.46-3.04 0-1.8.48-2.92.48-1.14 1.52-1.68 1.04-.56 2.68-.56 1.66 0 2.68.56 1.04.54 1.52 1.68.5 1.12.5 2.92 0 1.86-.46 3.04-.46 1.16-1.5 1.72-1.02.56-2.74.56m0-2.2q.84 0 1.26-.3.42-.32.56-1 .16-.7.16-1.82 0-1.1-.18-1.74-.18-.66-.6-.94t-1.2-.28q-.76 0-1.2.28-.42.28-.6.94-.18.64-.18 1.74 0 1.12.14 1.82.16.68.58 1 .42.3 1.26.3m11.035 1.98v-13.66h2.76V614zm5.133 0v-10.04h2.66v.64q.3-.2.76-.38.459-.2.96-.34.52-.14 1-.14.92 0 1.5.26.579.24.96.72.36-.22.9-.44t1.18-.38 1.24-.16q1.1 0 1.8.3.72.28 1.12.9.4.6.56 1.56.16.94.16 2.28V614h-2.66v-4.98q0-1.04-.12-1.68-.1-.66-.44-.96-.32-.3-.98-.3a4 4 0 0 0-.76.08q-.4.06-.74.18-.32.12-.52.22.1.42.14 1.08.06.66.06 1.38V614h-2.66v-4.94q0-1.06-.12-1.72-.1-.66-.44-.96t-.98-.3q-.36 0-.74.08-.36.06-.68.18-.3.12-.5.22V614zm16.914 0v-10.04h2.66V614zm0-11.64v-2.28h2.68v2.28zm9.303 16.22q-1.6 0-2.68-.24-1.06-.24-1.6-.88-.54-.62-.54-1.8 0-.52.14-.94.159-.4.48-.76.339-.36.84-.74a1.46 1.46 0 0 1-.46-.58 2.3 2.3 0 0 1-.16-.86q0-.16.14-.42a5 5 0 0 1 .34-.58q.2-.3.38-.54a2.8 2.8 0 0 1-.76-.52q-.36-.36-.6-.96-.22-.6-.22-1.54 0-1.28.48-2.04.5-.76 1.44-1.1.939-.34 2.28-.34.52 0 1.12.08t.96.16l3.26-.06v1.8l-1.52-.02q.18.24.32.62.16.36.16.9 0 1.38-.48 2.14-.46.76-1.4 1.06-.94.28-2.38.28-.16 0-.44-.02-.28-.04-.46-.06a6 6 0 0 0-.16.46q-.08.24-.08.34 0 .22.08.34.1.12.34.2.26.06.74.08.5.02 1.32.02 1.42 0 2.26.26.86.26 1.22.92t.36 1.86q0 1.78-1.26 2.62-1.24.86-3.46.86m-.14-1.98q1.24 0 1.78-.3.56-.28.56-.94 0-.52-.2-.76-.18-.24-.62-.32a9 9 0 0 0-1.2-.06q-.201 0-.48-.02a9 9 0 0 1-.58-.02q-.28 0-.52-.02a4 4 0 0 0-.32-.02 3.6 3.6 0 0 0-.46.38q-.16.18-.24.36a1.7 1.7 0 0 0-.06.48q0 .46.22.72.219.28.72.4.52.12 1.4.12m-.34-7.78q.92 0 1.3-.36.4-.38.4-1.24t-.4-1.24q-.38-.38-1.3-.38-.88 0-1.28.38-.38.38-.38 1.24t.38 1.24q.4.36 1.28.36m6.724 5.18v-10.04h2.66v1.18a7 7 0 0 1 .84-.54q.5-.3 1.08-.54.6-.26 1.14-.34v2.58a6.3 6.3 0 0 0-1.1.28q-.58.18-1.1.4-.5.22-.86.4V614zm9.729.22q-1.56 0-2.36-.78-.78-.8-.78-2.4 0-1.12.4-1.74.4-.64 1.18-.92.8-.3 1.94-.36l2.44-.22v-.6q0-.72-.36-1-.36-.3-1.06-.3-.56 0-1.3.04-.72.04-1.44.1-.7.06-1.22.12l-.08-1.88q.52-.12 1.24-.24a18 18 0 0 1 1.54-.22q.8-.08 1.48-.08 1.28 0 2.14.32t1.3 1.06q.44.72.44 1.96v4.58a.6.6 0 0 0 .3.44q.26.14.6.2l-.06 1.84h-.64q-.3.02-.58 0-.28 0-.5-.04a2.4 2.4 0 0 1-.8-.24 2.4 2.4 0 0 1-.52-.38q-.32.14-.86.32t-1.18.3a6.6 6.6 0 0 1-1.26.12m.64-1.98q.38 0 .8-.08t.78-.18q.38-.12.6-.22v-2.3l-2.04.18q-.66.06-.96.4-.28.32-.28.92t.26.94q.28.34.84.34m7.209 1.76v-10.04h2.66v.64q.32-.2.78-.38.46-.2.96-.34a3.9 3.9 0 0 1 1-.14q1.04 0 1.72.28.7.26 1.1.86t.58 1.58q.18.96.18 2.34v5.2h-2.68v-5.06q0-1.04-.12-1.66-.12-.64-.46-.92t-1-.28q-.36 0-.76.08-.38.06-.74.18a4 4 0 0 0-.56.24V614zm14.535.24q-1.1 0-1.78-.32t-.98-1.1q-.28-.8-.28-2.22v-4.42h-1.18v-2.22h1.18v-2.66h2.66v2.66h2.56v2.22h-2.56v3.72q0 .78.06 1.22.08.44.32.62t.74.18q.141 0 .42-.02l.56-.04q.28-.02.46-.04l.08 2.14q-.3.06-.74.12-.42.06-.84.1-.4.06-.68.06m7.728-.02q-1.66 0-2.64-.56-.96-.56-1.38-1.7t-.42-2.86q0-1.86.52-3.04.54-1.18 1.56-1.74 1.02-.58 2.52-.58 2.22 0 3.34 1.12 1.14 1.12 1.14 3.54l-.12 1.48h-6.28q.02 1.12.46 1.68t1.52.56q.62 0 1.36-.02l1.46-.08q.74-.04 1.26-.08l.06 1.86q-.5.08-1.26.18a27 27 0 0 1-1.58.16 15 15 0 0 1-1.52.08m-1.76-6.04h3.74q0-1.36-.44-1.9-.42-.54-1.38-.54-.64 0-1.06.24t-.64.78-.22 1.42"/>
    <path fill="#4c4c4c" d="M80.91 633.582h5.18v.882h-5.18zm.112 4.522h5.894V639h-6.93v-9.8h6.72v.896h-5.684zm11.87-6.524q.896 0 1.569.35.686.336 1.064 1.036.392.7.392 1.764V639h-.994v-4.172q0-1.162-.588-1.75-.574-.602-1.624-.602-.784 0-1.372.322a2.16 2.16 0 0 0-.896.91q-.309.588-.308 1.428V639h-.994v-7.35h.952v2.016l-.154-.378a2.64 2.64 0 0 1 1.12-1.246q.77-.462 1.834-.462m8.762 7.49q-1.093 0-1.96-.476a3.6 3.6 0 0 1-1.344-1.33q-.49-.854-.49-1.946 0-1.106.49-1.946a3.5 3.5 0 0 1 1.344-1.316q.868-.476 1.96-.476.938 0 1.694.364.756.365 1.19 1.092l-.742.504a2.34 2.34 0 0 0-.938-.826 2.8 2.8 0 0 0-1.218-.266 2.77 2.77 0 0 0-1.414.364q-.63.35-.994.994-.364.643-.364 1.512t.364 1.512.994 1.008q.63.35 1.414.35.657 0 1.218-.266t.938-.812l.742.504q-.435.714-1.19 1.092a3.85 3.85 0 0 1-1.694.364m7.709 0a3.9 3.9 0 0 1-1.918-.476 3.64 3.64 0 0 1-1.33-1.33q-.49-.854-.49-1.946 0-1.106.49-1.946a3.53 3.53 0 0 1 1.33-1.316q.84-.476 1.918-.476 1.092 0 1.932.476.855.476 1.33 1.316.49.84.49 1.946 0 1.092-.49 1.946a3.5 3.5 0 0 1-1.33 1.33q-.853.476-1.932.476m0-.882q.799 0 1.414-.35.617-.364.966-1.008.364-.659.364-1.512 0-.869-.364-1.512a2.47 2.47 0 0 0-.966-.994 2.7 2.7 0 0 0-1.4-.364q-.783 0-1.4.364a2.6 2.6 0 0 0-.98.994q-.364.643-.364 1.512 0 .853.364 1.512.365.644.98 1.008.617.35 1.386.35m9.534-6.608q.896 0 1.568.35.686.336 1.064 1.036.392.7.392 1.764V639h-.994v-4.172q0-1.162-.588-1.75-.574-.602-1.624-.602-.784 0-1.372.322a2.16 2.16 0 0 0-.896.91q-.309.588-.308 1.428V639h-.994v-7.35h.952v2.016l-.154-.378a2.63 2.63 0 0 1 1.12-1.246q.77-.462 1.834-.462m8.033 7.49q-1.037 0-1.596-.56t-.56-1.582v-6.902h.994v6.846q0 .644.322.994.336.35.952.35.657 0 1.092-.378l.35.714a1.8 1.8 0 0 1-.714.392 2.8 2.8 0 0 1-.84.126m-3.472-6.594v-.826h4.55v.826zm6.835 6.524v-7.35h.952v2.002l-.098-.35q.309-.84 1.036-1.274.729-.448 1.806-.448v.966h-.112a.5.5 0 0 0-.112-.014q-1.161 0-1.82.714-.657.7-.658 2.002V639zm8.564.07q-1.149 0-2.016-.476a3.57 3.57 0 0 1-1.358-1.33q-.49-.854-.49-1.946t.462-1.932q.475-.84 1.288-1.316a3.55 3.55 0 0 1 1.848-.49q1.035 0 1.834.476a3.27 3.27 0 0 1 1.274 1.316q.462.84.462 1.946a1 1 0 0 1-.014.154v.154h-6.398v-.742h5.866l-.392.294q0-.798-.35-1.414a2.46 2.46 0 0 0-.924-.98q-.588-.35-1.358-.35-.756 0-1.358.35t-.938.98-.336 1.442v.154q0 .84.364 1.484.378.63 1.036.994.671.35 1.526.35.672 0 1.246-.238a2.6 2.6 0 0 0 1.008-.728l.56.644a3.15 3.15 0 0 1-1.232.896 4.1 4.1 0 0 1-1.61.308m8.991-.07v-7.35h.994V639zm.504-8.974a.7.7 0 0 1-.518-.21.69.69 0 0 1-.21-.504q0-.294.21-.49.21-.21.518-.21a.73.73 0 0 1 .518.196q.21.196.21.49 0 .308-.21.518a.68.68 0 0 1-.518.21m7.008 1.554q.896 0 1.568.35.686.336 1.064 1.036.392.7.392 1.764V639h-.994v-4.172q0-1.162-.588-1.75-.574-.602-1.624-.602-.784 0-1.372.322a2.16 2.16 0 0 0-.896.91q-.308.588-.308 1.428V639h-.994v-7.35h.952v2.016l-.154-.378a2.63 2.63 0 0 1 1.12-1.246q.77-.462 1.834-.462m7.683 7.49a5.8 5.8 0 0 1-1.722-.252q-.813-.266-1.274-.658l.448-.784q.447.336 1.148.588a4.5 4.5 0 0 0 1.47.238q1.05 0 1.512-.322.462-.336.462-.882 0-.407-.266-.63a1.53 1.53 0 0 0-.672-.35 7 7 0 0 0-.938-.21 20 20 0 0 1-1.036-.196 4 4 0 0 1-.924-.322 1.94 1.94 0 0 1-.686-.602q-.252-.378-.252-1.008 0-.602.336-1.078t.98-.742q.657-.28 1.596-.28.714 0 1.428.196.714.182 1.176.49l-.434.798a3.2 3.2 0 0 0-1.05-.476 4.2 4.2 0 0 0-1.12-.154q-.995 0-1.47.35-.462.336-.462.868 0 .42.252.658.266.238.686.378.434.126.938.21.518.084 1.022.21.518.112.938.322.434.196.686.574.266.365.266.966 0 .644-.364 1.12-.35.462-1.036.728-.672.252-1.638.252m7.186 0q-1.037 0-1.596-.56t-.56-1.582v-6.902h.994v6.846q0 .644.322.994.336.35.952.35.657 0 1.092-.378l.35.714a1.8 1.8 0 0 1-.714.392 2.8 2.8 0 0 1-.84.126m-3.472-6.594v-.826h4.55v.826zm6.835 6.524v-7.35h.994V639zm.504-8.974a.7.7 0 0 1-.518-.21.69.69 0 0 1-.21-.504q0-.294.21-.49.21-.21.518-.21a.73.73 0 0 1 .518.196q.21.196.21.49 0 .308-.21.518a.68.68 0 0 1-.518.21m5.58 9.044q-1.037 0-1.596-.56t-.56-1.582v-6.902h.994v6.846q0 .644.322.994.336.35.952.35.657 0 1.092-.378l.35.714a1.8 1.8 0 0 1-.714.392 2.8 2.8 0 0 1-.84.126m-3.472-6.594v-.826h4.55v.826zm9.873 6.594q-.937 0-1.638-.35a2.53 2.53 0 0 1-1.092-1.05q-.378-.7-.378-1.75v-4.27h.994v4.158q0 1.176.574 1.778.588.588 1.638.588.77 0 1.33-.308.574-.322.868-.924.308-.602.308-1.442v-3.85h.994V639h-.952v-2.016l.154.364a2.74 2.74 0 0 1-1.092 1.274q-.727.448-1.708.448m6.369-.07v-7.35h.994V639zm.504-8.974a.7.7 0 0 1-.518-.21.69.69 0 0 1-.21-.504q0-.294.21-.49.21-.21.518-.21a.73.73 0 0 1 .518.196q.21.196.21.49 0 .308-.21.518a.68.68 0 0 1-.518.21m6.307 9.044q-1.092 0-1.96-.476a3.6 3.6 0 0 1-1.344-1.33q-.49-.854-.49-1.946 0-1.106.49-1.946t1.344-1.316q.868-.476 1.96-.476.938 0 1.694.364.756.365 1.19 1.092l-.742.504a2.33 2.33 0 0 0-.938-.826 2.8 2.8 0 0 0-1.218-.266q-.784 0-1.414.364-.63.35-.994.994-.364.643-.364 1.512t.364 1.512.994 1.008q.63.35 1.414.35.659 0 1.218-.266a2.36 2.36 0 0 0 .938-.812l.742.504a2.86 2.86 0 0 1-1.19 1.092 3.85 3.85 0 0 1-1.694.364m-.588 3.01a2.3 2.3 0 0 1-.644-.084 2.3 2.3 0 0 1-.532-.238l.238-.532q.21.126.434.196.238.07.49.07.42 0 .644-.182a.56.56 0 0 0 .224-.476.57.57 0 0 0-.224-.462q-.21-.182-.644-.182h-.322l.336-1.274h.602l-.21.812q.575.042.882.35.309.322.308.784 0 .56-.448.882-.433.336-1.134.336m8.298-3.01q-1.064 0-1.918-.476a3.64 3.64 0 0 1-1.33-1.33q-.49-.854-.49-1.946 0-1.106.49-1.946a3.53 3.53 0 0 1 1.33-1.316q.84-.476 1.918-.476 1.092 0 1.932.476a3.4 3.4 0 0 1 1.33 1.316q.49.84.49 1.946 0 1.092-.49 1.946a3.5 3.5 0 0 1-1.33 1.33q-.853.476-1.932.476m0-.882q.798 0 1.414-.35.617-.364.966-1.008.364-.659.364-1.512 0-.869-.364-1.512a2.47 2.47 0 0 0-.966-.994 2.7 2.7 0 0 0-1.4-.364q-.784 0-1.4.364a2.57 2.57 0 0 0-.98.994q-.364.643-.364 1.512 0 .853.364 1.512.364.644.98 1.008.617.35 1.386.35m.952-7.77q-.322 0-.574-.14a2.7 2.7 0 0 1-.462-.322 3 3 0 0 0-.392-.336.65.65 0 0 0-.924.084q-.181.238-.21.658h-.602q.028-.7.364-1.12.35-.42.896-.42.322 0 .574.154.266.14.462.336.21.182.392.322.196.14.406.14a.66.66 0 0 0 .518-.224q.196-.238.21-.644h.602q-.014.672-.364 1.092t-.896.42m7.951 8.652q-1.148 0-2.016-.476a3.6 3.6 0 0 1-1.358-1.33q-.49-.854-.49-1.946t.462-1.932q.477-.84 1.288-1.316a3.55 3.55 0 0 1 1.848-.49q1.036 0 1.834.476.813.462 1.274 1.316.462.84.462 1.946a1 1 0 0 1-.014.154v.154h-6.398v-.742h5.866l-.392.294q0-.798-.35-1.414a2.46 2.46 0 0 0-.924-.98q-.587-.35-1.358-.35-.755 0-1.358.35-.602.35-.938.98t-.336 1.442v.154q0 .84.364 1.484.379.63 1.036.994.672.35 1.526.35.673 0 1.246-.238a2.6 2.6 0 0 0 1.008-.728l.56.644a3.13 3.13 0 0 1-1.232.896 4.1 4.1 0 0 1-1.61.308m7.302 0a5.8 5.8 0 0 1-1.722-.252q-.812-.266-1.274-.658l.448-.784q.447.336 1.148.588a4.5 4.5 0 0 0 1.47.238q1.05 0 1.512-.322.462-.336.462-.882 0-.407-.266-.63a1.53 1.53 0 0 0-.672-.35 7 7 0 0 0-.938-.21 20 20 0 0 1-1.036-.196 4 4 0 0 1-.924-.322 1.94 1.94 0 0 1-.686-.602q-.252-.378-.252-1.008 0-.602.336-1.078.335-.476.98-.742.657-.28 1.596-.28.714 0 1.428.196.714.182 1.176.49l-.434.798a3.2 3.2 0 0 0-1.05-.476 4.2 4.2 0 0 0-1.12-.154q-.995 0-1.47.35-.462.336-.462.868 0 .42.252.658.266.238.686.378.434.126.938.21.518.084 1.022.21.518.112.938.322.434.196.686.574.266.365.266.966 0 .644-.364 1.12-.35.462-1.036.728-.672.252-1.638.252m4.259 1.974.616-2.59.112.602a.77.77 0 0 1-.546-.21.74.74 0 0 1-.21-.546q0-.336.21-.546.225-.21.532-.21.323 0 .518.224.21.224.21.532 0 .112-.014.224a1.5 1.5 0 0 1-.056.252 7 7 0 0 1-.112.336l-.588 1.932zm10.285-1.974q-1.092 0-1.96-.476a3.6 3.6 0 0 1-1.344-1.33q-.49-.854-.49-1.946 0-1.106.49-1.946t1.344-1.316q.868-.476 1.96-.476.939 0 1.694.364.756.365 1.19 1.092l-.742.504a2.33 2.33 0 0 0-.938-.826 2.8 2.8 0 0 0-1.218-.266q-.784 0-1.414.364-.63.35-.994.994-.364.643-.364 1.512t.364 1.512.994 1.008q.63.35 1.414.35.659 0 1.218-.266a2.36 2.36 0 0 0 .938-.812l.742.504a2.86 2.86 0 0 1-1.19 1.092 3.85 3.85 0 0 1-1.694.364m7.71 0q-1.064 0-1.918-.476a3.64 3.64 0 0 1-1.33-1.33q-.49-.854-.49-1.946 0-1.106.49-1.946a3.53 3.53 0 0 1 1.33-1.316q.84-.476 1.918-.476 1.092 0 1.932.476a3.4 3.4 0 0 1 1.33 1.316q.49.84.49 1.946 0 1.092-.49 1.946a3.5 3.5 0 0 1-1.33 1.33q-.853.476-1.932.476m0-.882q.798 0 1.414-.35.617-.364.966-1.008.364-.659.364-1.512 0-.869-.364-1.512a2.47 2.47 0 0 0-.966-.994 2.7 2.7 0 0 0-1.4-.364q-.784 0-1.4.364a2.57 2.57 0 0 0-.98.994q-.364.643-.364 1.512 0 .853.364 1.512.364.644.98 1.008.617.35 1.386.35m9.533-6.608q.897 0 1.568.35.687.336 1.064 1.036.393.7.392 1.764V639h-.994v-4.172q0-1.162-.588-1.75-.574-.602-1.624-.602-.784 0-1.372.322a2.17 2.17 0 0 0-.896.91q-.308.588-.308 1.428V639h-.994v-7.35h.952v2.016l-.154-.378a2.64 2.64 0 0 1 1.12-1.246q.77-.462 1.834-.462m7.683 7.49q-.909 0-1.722-.252-.812-.266-1.274-.658l.448-.784q.449.336 1.148.588a4.5 4.5 0 0 0 1.47.238q1.05 0 1.512-.322.462-.336.462-.882 0-.407-.266-.63a1.53 1.53 0 0 0-.672-.35 7 7 0 0 0-.938-.21q-.517-.084-1.036-.196a4 4 0 0 1-.924-.322 1.95 1.95 0 0 1-.686-.602q-.252-.378-.252-1.008 0-.602.336-1.078t.98-.742q.659-.28 1.596-.28.714 0 1.428.196.714.182 1.176.49l-.434.798a3.2 3.2 0 0 0-1.05-.476 4.2 4.2 0 0 0-1.12-.154q-.993 0-1.47.35-.462.336-.462.868 0 .42.252.658.267.238.686.378.434.126.938.21.518.084 1.022.21.519.112.938.322.435.196.686.574.266.365.266.966 0 .644-.364 1.12-.35.462-1.036.728-.672.252-1.638.252m7.9 0q-.937 0-1.638-.35a2.5 2.5 0 0 1-1.092-1.05q-.378-.7-.378-1.75v-4.27h.994v4.158q0 1.176.574 1.778.588.588 1.638.588.77 0 1.33-.308.574-.322.868-.924.308-.602.308-1.442v-3.85h.994V639h-.952v-2.016l.154.364a2.74 2.74 0 0 1-1.092 1.274q-.728.448-1.708.448m6.368-.07v-10.388h.994V639zm8.366 0v-1.624l-.042-.266v-2.716q0-.938-.532-1.442-.518-.504-1.554-.504a3.9 3.9 0 0 0-1.358.238 3.5 3.5 0 0 0-1.092.63l-.448-.742a3.9 3.9 0 0 1 1.344-.728 5.1 5.1 0 0 1 1.652-.266q1.428 0 2.198.714.784.7.784 2.142V639zm-2.534.07q-.825 0-1.442-.266-.602-.28-.924-.756a2 2 0 0 1-.322-1.12q0-.574.266-1.036.28-.476.896-.756.63-.294 1.68-.294h2.534v.742h-2.506q-1.064 0-1.484.378-.406.378-.406.938 0 .63.49 1.008t1.372.378q.84 0 1.442-.378.617-.392.896-1.12l.224.686a2.32 2.32 0 0 1-.98 1.162q-.686.434-1.736.434m9.112 0q-1.05 0-1.89-.476a3.45 3.45 0 0 1-1.302-1.316q-.476-.854-.476-1.96 0-1.12.476-1.96.475-.84 1.302-1.302a3.77 3.77 0 0 1 1.89-.476q.966 0 1.722.434.77.434 1.218 1.274.462.826.462 2.03 0 1.19-.448 2.03a3.2 3.2 0 0 1-1.218 1.288q-.756.434-1.736.434m.07-.882q.784 0 1.4-.35.63-.364.98-1.008.364-.659.364-1.512 0-.869-.364-1.512a2.45 2.45 0 0 0-.98-.994 2.7 2.7 0 0 0-1.4-.364q-.77 0-1.386.364a2.57 2.57 0 0 0-.98.994q-.364.643-.364 1.512 0 .853.364 1.512.364.644.98 1.008.616.35 1.386.35m2.772.812v-2.212l.098-1.484-.14-1.484v-5.208h.994V639zm6.716.07a3.9 3.9 0 0 1-1.918-.476 3.64 3.64 0 0 1-1.33-1.33q-.49-.854-.49-1.946 0-1.106.49-1.946a3.53 3.53 0 0 1 1.33-1.316q.84-.476 1.918-.476 1.092 0 1.932.476.855.476 1.33 1.316.49.84.49 1.946 0 1.092-.49 1.946a3.5 3.5 0 0 1-1.33 1.33q-.853.476-1.932.476m0-.882q.798 0 1.414-.35.616-.364.966-1.008.364-.659.364-1.512 0-.869-.364-1.512a2.47 2.47 0 0 0-.966-.994 2.7 2.7 0 0 0-1.4-.364q-.783 0-1.4.364a2.6 2.6 0 0 0-.98.994q-.363.643-.364 1.512 0 .853.364 1.512.365.644.98 1.008.617.35 1.386.35m7.756.882a5.8 5.8 0 0 1-1.722-.252q-.812-.266-1.274-.658l.448-.784q.447.336 1.148.588a4.5 4.5 0 0 0 1.47.238q1.05 0 1.512-.322.462-.336.462-.882 0-.407-.266-.63a1.53 1.53 0 0 0-.672-.35 7 7 0 0 0-.938-.21 20 20 0 0 1-1.036-.196 4 4 0 0 1-.924-.322 1.94 1.94 0 0 1-.686-.602q-.252-.378-.252-1.008 0-.602.336-1.078.335-.476.98-.742.657-.28 1.596-.28.714 0 1.428.196.714.182 1.176.49l-.434.798a3.2 3.2 0 0 0-1.05-.476 4.2 4.2 0 0 0-1.12-.154q-.995 0-1.47.35-.462.336-.462.868 0 .42.252.658.266.238.686.378.434.126.938.21.518.084 1.022.21.518.112.938.322.434.196.686.574.266.365.266.966 0 .644-.364 1.12-.35.462-1.036.728-.672.252-1.638.252m4.26 1.974.616-2.59.112.602a.77.77 0 0 1-.546-.21.74.74 0 0 1-.21-.546q0-.336.21-.546a.75.75 0 0 1 .532-.21q.321 0 .518.224.21.224.21.532 0 .112-.014.224-.014.113-.056.252a8 8 0 0 1-.112.336l-.588 1.932zM71.878 659.07q-.91 0-1.721-.252-.812-.266-1.274-.658l.448-.784q.447.336 1.148.588.699.238 1.47.238 1.05 0 1.512-.322.462-.336.462-.882-.001-.407-.266-.63a1.53 1.53 0 0 0-.672-.35 7 7 0 0 0-.938-.21q-.519-.084-1.036-.196a4 4 0 0 1-.924-.322 1.94 1.94 0 0 1-.686-.602q-.252-.378-.252-1.008 0-.602.336-1.078.335-.476.98-.742.657-.28 1.596-.28.714 0 1.428.196.714.182 1.176.49l-.434.798a3.2 3.2 0 0 0-1.05-.476 4.2 4.2 0 0 0-1.12-.154q-.995 0-1.47.35-.462.336-.462.868 0 .42.252.658.266.238.686.378.434.126.938.21.518.084 1.022.21.518.112.938.322.434.196.686.574.266.365.266.966 0 .644-.364 1.12-.351.462-1.036.728-.672.252-1.638.252m7.984 0q-1.148 0-2.015-.476a3.6 3.6 0 0 1-1.358-1.33q-.49-.854-.49-1.946t.462-1.932q.475-.84 1.288-1.316a3.55 3.55 0 0 1 1.848-.49q1.036 0 1.834.476.811.462 1.273 1.316.463.84.463 1.946a1 1 0 0 1-.014.154v.154h-6.399v-.742h5.867l-.392.294q0-.798-.35-1.414a2.46 2.46 0 0 0-.925-.98q-.587-.35-1.357-.35-.756 0-1.358.35t-.939.98-.335 1.442v.154q-.001.84.364 1.484.378.63 1.036.994.671.35 1.526.35.671 0 1.245-.238a2.6 2.6 0 0 0 1.008-.728l.56.644a3.14 3.14 0 0 1-1.231.896 4.1 4.1 0 0 1-1.61.308m5.328-.07v-7.35h.952v2.002l-.098-.35q.307-.84 1.036-1.274.728-.448 1.806-.448v.966h-.112a.5.5 0 0 0-.112-.014q-1.163 0-1.82.714-.658.7-.658 2.002V659zm7.714 0-3.262-7.35h1.036l2.996 6.818h-.49l3.038-6.818h.98L93.926 659zm5.698 0v-7.35h.994V659zm.504-8.974a.7.7 0 0 1-.518-.21.69.69 0 0 1-.21-.504q0-.294.21-.49.21-.21.518-.21t.518.196.21.49q0 .308-.21.518a.68.68 0 0 1-.518.21m6.308 9.044q-1.093 0-1.96-.476a3.6 3.6 0 0 1-1.344-1.33q-.49-.854-.49-1.946 0-1.106.49-1.946a3.5 3.5 0 0 1 1.344-1.316q.868-.476 1.96-.476.938 0 1.694.364.755.365 1.19 1.092l-.742.504a2.34 2.34 0 0 0-.938-.826 2.8 2.8 0 0 0-1.218-.266 2.77 2.77 0 0 0-1.414.364 2.54 2.54 0 0 0-.994.994q-.364.643-.364 1.512t.364 1.512q.363.644.994 1.008.63.35 1.414.35.657 0 1.218-.266t.938-.812l.742.504q-.434.714-1.19 1.092a3.85 3.85 0 0 1-1.694.364m-.588 3.01q-.35 0-.644-.084a2.2 2.2 0 0 1-.532-.238l.238-.532q.21.126.434.196.237.07.49.07.42 0 .644-.182a.56.56 0 0 0 .224-.476.57.57 0 0 0-.224-.462q-.21-.182-.644-.182h-.322l.336-1.274h.602l-.21.812q.573.042.882.35.308.322.308.784 0 .56-.448.882-.435.336-1.134.336m8.297-3.01a3.9 3.9 0 0 1-1.918-.476 3.64 3.64 0 0 1-1.33-1.33q-.49-.854-.49-1.946 0-1.106.49-1.946a3.53 3.53 0 0 1 1.33-1.316q.84-.476 1.918-.476 1.092 0 1.932.476.855.476 1.33 1.316.49.84.49 1.946 0 1.092-.49 1.946a3.5 3.5 0 0 1-1.33 1.33q-.853.476-1.932.476m0-.882q.799 0 1.414-.35.617-.364.966-1.008.364-.659.364-1.512 0-.869-.364-1.512a2.47 2.47 0 0 0-.966-.994 2.7 2.7 0 0 0-1.4-.364q-.783 0-1.4.364a2.6 2.6 0 0 0-.98.994q-.364.643-.364 1.512 0 .853.364 1.512.365.644.98 1.008.617.35 1.386.35m7.756.882a5.8 5.8 0 0 1-1.722-.252q-.812-.266-1.274-.658l.448-.784q.447.336 1.148.588a4.5 4.5 0 0 0 1.47.238q1.05 0 1.512-.322.462-.336.462-.882 0-.407-.266-.63a1.53 1.53 0 0 0-.672-.35 7 7 0 0 0-.938-.21 20 20 0 0 1-1.036-.196 4 4 0 0 1-.924-.322 1.94 1.94 0 0 1-.686-.602q-.252-.378-.252-1.008 0-.602.336-1.078t.98-.742q.657-.28 1.596-.28.714 0 1.428.196.714.182 1.176.49l-.434.798a3.2 3.2 0 0 0-1.05-.476 4.2 4.2 0 0 0-1.12-.154q-.995 0-1.47.35-.462.336-.462.868 0 .42.252.658.266.238.686.378.434.126.938.21.518.084 1.022.21.518.112.938.322.434.196.686.574.266.365.266.966 0 .644-.364 1.12-.35.462-1.036.728-.672.252-1.638.252m4.259 1.974.616-2.59.112.602a.77.77 0 0 1-.546-.21.74.74 0 0 1-.21-.546q0-.336.21-.546.225-.21.532-.21.323 0 .518.224.21.224.21.532 0 .112-.014.224a1.5 1.5 0 0 1-.056.252 7 7 0 0 1-.112.336l-.588 1.932zm10.285-1.974q-1.092 0-1.96-.476a3.6 3.6 0 0 1-1.344-1.33q-.49-.854-.49-1.946 0-1.106.49-1.946t1.344-1.316q.868-.476 1.96-.476.939 0 1.694.364.756.365 1.19 1.092l-.742.504a2.33 2.33 0 0 0-.938-.826 2.8 2.8 0 0 0-1.218-.266q-.784 0-1.414.364-.63.35-.994.994-.363.643-.364 1.512 0 .869.364 1.512.364.644.994 1.008.63.35 1.414.35.659 0 1.218-.266a2.36 2.36 0 0 0 .938-.812l.742.504a2.86 2.86 0 0 1-1.19 1.092 3.85 3.85 0 0 1-1.694.364m7.875 0q-.937 0-1.638-.35a2.5 2.5 0 0 1-1.092-1.05q-.378-.7-.378-1.75v-4.27h.994v4.158q0 1.176.574 1.778.588.588 1.638.588.77 0 1.33-.308.574-.322.868-.924.308-.602.308-1.442v-3.85h.994V659h-.952v-2.016l.154.364a2.74 2.74 0 0 1-1.092 1.274q-.728.448-1.708.448m6.368-.07v-7.35h.952v2.002l-.098-.35q.309-.84 1.036-1.274.729-.448 1.806-.448v.966h-.112a.5.5 0 0 0-.112-.014q-1.161 0-1.82.714-.657.7-.658 2.002V659zm7.566.07a5.8 5.8 0 0 1-1.722-.252q-.812-.266-1.274-.658l.448-.784q.448.336 1.148.588a4.5 4.5 0 0 0 1.47.238q1.05 0 1.512-.322.462-.336.462-.882 0-.407-.266-.63a1.53 1.53 0 0 0-.672-.35 7 7 0 0 0-.938-.21 20 20 0 0 1-1.036-.196 4 4 0 0 1-.924-.322 1.94 1.94 0 0 1-.686-.602q-.252-.378-.252-1.008 0-.602.336-1.078t.98-.742q.659-.28 1.596-.28.714 0 1.428.196.714.182 1.176.49l-.434.798a3.2 3.2 0 0 0-1.05-.476 4.2 4.2 0 0 0-1.12-.154q-.994 0-1.47.35-.462.336-.462.868 0 .42.252.658.266.238.686.378.434.126.938.21.518.084 1.022.21.518.112.938.322.434.196.686.574.266.365.266.966 0 .644-.364 1.12-.35.462-1.036.728-.672.252-1.638.252m7.858 0q-1.064 0-1.918-.476a3.64 3.64 0 0 1-1.33-1.33q-.49-.854-.49-1.946 0-1.106.49-1.946a3.53 3.53 0 0 1 1.33-1.316q.84-.476 1.918-.476 1.092 0 1.932.476a3.4 3.4 0 0 1 1.33 1.316q.49.84.49 1.946 0 1.092-.49 1.946a3.5 3.5 0 0 1-1.33 1.33q-.853.476-1.932.476m0-.882q.798 0 1.414-.35.617-.364.966-1.008.364-.659.364-1.512 0-.869-.364-1.512a2.47 2.47 0 0 0-.966-.994 2.7 2.7 0 0 0-1.4-.364q-.784 0-1.4.364a2.57 2.57 0 0 0-.98.994q-.364.643-.364 1.512 0 .853.364 1.512.364.644.98 1.008.616.35 1.386.35m7.755.882q-.909 0-1.722-.252-.812-.266-1.274-.658l.448-.784q.449.336 1.148.588a4.5 4.5 0 0 0 1.47.238q1.05 0 1.512-.322.462-.336.462-.882 0-.407-.266-.63a1.53 1.53 0 0 0-.672-.35 7 7 0 0 0-.938-.21q-.517-.084-1.036-.196a4 4 0 0 1-.924-.322 1.95 1.95 0 0 1-.686-.602q-.252-.378-.252-1.008 0-.602.336-1.078t.98-.742q.658-.28 1.596-.28.714 0 1.428.196.714.182 1.176.49l-.434.798a3.2 3.2 0 0 0-1.05-.476 4.2 4.2 0 0 0-1.12-.154q-.993 0-1.47.35-.462.336-.462.868 0 .42.252.658.267.238.686.378.434.126.938.21.519.084 1.022.21.519.112.938.322.434.196.686.574.266.365.266.966 0 .644-.364 1.12-.35.462-1.036.728-.672.252-1.638.252m11.452 0q-1.05 0-1.89-.476a3.47 3.47 0 0 1-1.302-1.316q-.476-.854-.476-1.96 0-1.12.476-1.96.477-.84 1.302-1.302a3.77 3.77 0 0 1 1.89-.476q.966 0 1.722.434.771.434 1.218 1.274.462.826.462 2.03 0 1.19-.448 2.03-.447.84-1.218 1.288-.756.434-1.736.434m.07-.882q.785 0 1.4-.35.63-.364.98-1.008.364-.659.364-1.512 0-.869-.364-1.512a2.45 2.45 0 0 0-.98-.994 2.7 2.7 0 0 0-1.4-.364q-.77 0-1.386.364a2.6 2.6 0 0 0-.98.994q-.363.643-.364 1.512 0 .853.364 1.512.365.644.98 1.008.616.35 1.386.35m2.772.812v-2.212l.098-1.484-.14-1.484v-5.208h.994V659zm6.843.07q-1.149 0-2.016-.476a3.57 3.57 0 0 1-1.358-1.33q-.49-.854-.49-1.946t.462-1.932q.475-.84 1.288-1.316a3.55 3.55 0 0 1 1.848-.49q1.036 0 1.834.476a3.27 3.27 0 0 1 1.274 1.316q.462.84.462 1.946a1 1 0 0 1-.014.154v.154h-6.398v-.742h5.866l-.392.294q0-.798-.35-1.414a2.46 2.46 0 0 0-.924-.98q-.588-.35-1.358-.35-.756 0-1.358.35t-.938.98-.336 1.442v.154q0 .84.364 1.484.378.63 1.036.994.671.35 1.526.35.672 0 1.246-.238a2.6 2.6 0 0 0 1.008-.728l.56.644a3.15 3.15 0 0 1-1.232.896 4.1 4.1 0 0 1-1.61.308m8.991-.07v-7.35h.994V659zm.504-8.974a.7.7 0 0 1-.518-.21.69.69 0 0 1-.21-.504q0-.294.21-.49.21-.21.518-.21a.73.73 0 0 1 .518.196q.21.196.21.49 0 .308-.21.518a.68.68 0 0 1-.518.21m6.182 9.044q-1.05 0-1.89-.476a3.45 3.45 0 0 1-1.302-1.316q-.476-.854-.476-1.96 0-1.12.476-1.96t1.302-1.302a3.77 3.77 0 0 1 1.89-.476q.966 0 1.722.434.77.434 1.218 1.274.462.826.462 2.03 0 1.19-.448 2.03a3.2 3.2 0 0 1-1.218 1.288q-.756.434-1.736.434m.07-.882a2.8 2.8 0 0 0 1.4-.35q.63-.364.98-1.008.364-.659.364-1.512 0-.869-.364-1.512a2.46 2.46 0 0 0-.98-.994 2.7 2.7 0 0 0-1.4-.364q-.771 0-1.386.364a2.57 2.57 0 0 0-.98.994q-.364.643-.364 1.512 0 .853.364 1.512.363.644.98 1.008.615.35 1.386.35m2.772.812v-2.212l.098-1.484-.14-1.484v-5.208h.994V659zm3.72 0v-7.35h.994V659zm.504-8.974a.7.7 0 0 1-.518-.21.69.69 0 0 1-.21-.504q0-.294.21-.49.21-.21.518-.21a.73.73 0 0 1 .518.196q.21.196.21.49 0 .308-.21.518a.68.68 0 0 1-.518.21m6.252 9.044q-1.065 0-1.918-.476a3.63 3.63 0 0 1-1.33-1.33q-.49-.854-.49-1.946 0-1.106.49-1.946t1.33-1.316 1.918-.476q1.092 0 1.932.476a3.4 3.4 0 0 1 1.33 1.316q.49.84.49 1.946 0 1.092-.49 1.946a3.5 3.5 0 0 1-1.33 1.33q-.855.476-1.932.476m0-.882q.798 0 1.414-.35.615-.364.966-1.008.364-.659.364-1.512 0-.869-.364-1.512a2.5 2.5 0 0 0-.966-.994 2.7 2.7 0 0 0-1.4-.364q-.785 0-1.4.364a2.57 2.57 0 0 0-.98.994q-.364.643-.364 1.512 0 .853.364 1.512.363.644.98 1.008.615.35 1.386.35m14.965-6.608q.896 0 1.554.35.672.336 1.036 1.036.378.7.378 1.764V659h-.994v-4.172q0-1.162-.56-1.75-.546-.602-1.554-.602-.756 0-1.316.322a2.12 2.12 0 0 0-.854.91q-.294.588-.294 1.428V659h-.994v-4.172q0-1.162-.56-1.75-.56-.602-1.568-.602-.743 0-1.302.322a2.1 2.1 0 0 0-.868.91q-.294.588-.294 1.428V659h-.994v-7.35h.952v1.988l-.154-.35a2.6 2.6 0 0 1 1.078-1.246q.756-.462 1.778-.462 1.078 0 1.834.546.756.532.98 1.61l-.392-.154a2.88 2.88 0 0 1 1.134-1.442q.826-.56 1.974-.56m10.27 7.42v-1.624l-.042-.266v-2.716q0-.938-.532-1.442-.519-.504-1.554-.504-.714 0-1.358.238-.645.239-1.092.63l-.448-.742q.56-.476 1.344-.728a5.1 5.1 0 0 1 1.652-.266q1.427 0 2.198.714.783.7.784 2.142V659zm-2.534.07q-.827 0-1.442-.266-.603-.28-.924-.756a2 2 0 0 1-.322-1.12q0-.574.266-1.036.28-.476.896-.756.63-.294 1.68-.294h2.534v.742h-2.506q-1.064 0-1.484.378a1.23 1.23 0 0 0-.406.938q0 .63.49 1.008t1.372.378q.84 0 1.442-.378.615-.392.896-1.12l.224.686a2.33 2.33 0 0 1-.98 1.162q-.686.434-1.736.434m12.972 0q-1.149 0-2.016-.476a3.57 3.57 0 0 1-1.358-1.33q-.49-.854-.49-1.946t.462-1.932q.475-.84 1.288-1.316a3.55 3.55 0 0 1 1.848-.49q1.036 0 1.834.476a3.27 3.27 0 0 1 1.274 1.316q.462.84.462 1.946a1 1 0 0 1-.014.154v.154h-6.398v-.742h5.866l-.392.294q0-.798-.35-1.414a2.46 2.46 0 0 0-.924-.98q-.588-.35-1.358-.35-.756 0-1.358.35t-.938.98-.336 1.442v.154q0 .84.364 1.484.378.63 1.036.994.671.35 1.526.35.672 0 1.246-.238a2.6 2.6 0 0 0 1.008-.728l.56.644a3.15 3.15 0 0 1-1.232.896 4.1 4.1 0 0 1-1.61.308m8.991-.07v-7.35h.952v2.002l-.098-.35q.308-.84 1.036-1.274.728-.448 1.806-.448v.966h-.112a.5.5 0 0 0-.112-.014q-1.162 0-1.82.714-.658.7-.658 2.002V659zm8.563.07q-1.147 0-2.016-.476a3.6 3.6 0 0 1-1.358-1.33q-.49-.854-.49-1.946t.462-1.932q.477-.84 1.288-1.316a3.55 3.55 0 0 1 1.848-.49q1.036 0 1.834.476.812.462 1.274 1.316.462.84.462 1.946a1 1 0 0 1-.014.154v.154h-6.398v-.742h5.866l-.392.294q0-.798-.35-1.414a2.46 2.46 0 0 0-.924-.98q-.588-.35-1.358-.35-.755 0-1.358.35-.602.35-.938.98t-.336 1.442v.154q0 .84.364 1.484.378.63 1.036.994.672.35 1.526.35.672 0 1.246-.238a2.6 2.6 0 0 0 1.008-.728l.56.644a3.13 3.13 0 0 1-1.232.896 4.1 4.1 0 0 1-1.61.308m8.38 0q-1.093 0-1.96-.476a3.6 3.6 0 0 1-1.344-1.33q-.49-.854-.49-1.946 0-1.106.49-1.946a3.5 3.5 0 0 1 1.344-1.316q.868-.476 1.96-.476.938 0 1.694.364.755.365 1.19 1.092l-.742.504a2.34 2.34 0 0 0-.938-.826 2.8 2.8 0 0 0-1.218-.266 2.77 2.77 0 0 0-1.414.364 2.54 2.54 0 0 0-.994.994q-.364.643-.364 1.512t.364 1.512.994 1.008q.63.35 1.414.35.657 0 1.218-.266t.938-.812l.742.504q-.435.714-1.19 1.092a3.85 3.85 0 0 1-1.694.364m7.874 0q-.938 0-1.638-.35a2.53 2.53 0 0 1-1.092-1.05q-.378-.7-.378-1.75v-4.27h.994v4.158q0 1.176.574 1.778.588.588 1.638.588.77 0 1.33-.308.574-.322.868-.924.308-.602.308-1.442v-3.85h.994V659h-.952v-2.016l.154.364a2.74 2.74 0 0 1-1.092 1.274q-.727.448-1.708.448m6.368-.07v-7.35h.952v2.002l-.098-.35q.309-.84 1.036-1.274.729-.448 1.806-.448v.966h-.112a.5.5 0 0 0-.112-.014q-1.161 0-1.82.714-.657.7-.658 2.002V659zm7.566.07q-.909 0-1.722-.252-.812-.266-1.274-.658l.448-.784q.449.336 1.148.588a4.5 4.5 0 0 0 1.47.238q1.05 0 1.512-.322.462-.336.462-.882 0-.407-.266-.63a1.53 1.53 0 0 0-.672-.35 7 7 0 0 0-.938-.21q-.517-.084-1.036-.196a4 4 0 0 1-.924-.322 1.95 1.95 0 0 1-.686-.602q-.252-.378-.252-1.008 0-.602.336-1.078t.98-.742q.659-.28 1.596-.28.714 0 1.428.196.714.182 1.176.49l-.434.798a3.2 3.2 0 0 0-1.05-.476 4.2 4.2 0 0 0-1.12-.154q-.993 0-1.47.35-.462.336-.462.868 0 .42.252.658.267.238.686.378.434.126.938.21.518.084 1.022.21.519.112.938.322.435.196.686.574.266.365.266.966 0 .644-.364 1.12-.35.462-1.036.728-.672.252-1.638.252m7.858 0q-1.064 0-1.918-.476a3.64 3.64 0 0 1-1.33-1.33q-.49-.854-.49-1.946 0-1.106.49-1.946a3.53 3.53 0 0 1 1.33-1.316q.84-.476 1.918-.476 1.092 0 1.932.476a3.4 3.4 0 0 1 1.33 1.316q.49.84.49 1.946 0 1.092-.49 1.946a3.5 3.5 0 0 1-1.33 1.33q-.854.476-1.932.476m0-.882q.798 0 1.414-.35.616-.364.966-1.008.364-.659.364-1.512 0-.869-.364-1.512a2.47 2.47 0 0 0-.966-.994 2.7 2.7 0 0 0-1.4-.364q-.784 0-1.4.364a2.57 2.57 0 0 0-.98.994q-.364.643-.364 1.512 0 .853.364 1.512.364.644.98 1.008.617.35 1.386.35m7.756.882a5.8 5.8 0 0 1-1.722-.252q-.812-.266-1.274-.658l.448-.784q.447.336 1.148.588a4.5 4.5 0 0 0 1.47.238q1.05 0 1.512-.322.462-.336.462-.882 0-.407-.266-.63a1.53 1.53 0 0 0-.672-.35 7 7 0 0 0-.938-.21 20 20 0 0 1-1.036-.196 4 4 0 0 1-.924-.322 1.94 1.94 0 0 1-.686-.602q-.252-.378-.252-1.008 0-.602.336-1.078.335-.476.98-.742.657-.28 1.596-.28.714 0 1.428.196.714.182 1.176.49l-.434.798a3.2 3.2 0 0 0-1.05-.476 4.2 4.2 0 0 0-1.12-.154q-.995 0-1.47.35-.462.336-.462.868 0 .42.252.658.266.238.686.378.434.126.938.21.518.084 1.022.21.518.112.938.322.434.196.686.574.266.365.266.966 0 .644-.364 1.12-.35.462-1.036.728-.672.252-1.638.252m-199.011 20q-.937 0-1.638-.35a2.53 2.53 0 0 1-1.092-1.05q-.378-.7-.378-1.75v-4.27h.994v4.158q0 1.176.574 1.778.588.588 1.638.588.77 0 1.33-.308.574-.322.868-.924.309-.602.308-1.442v-3.85h.994V679h-.952v-2.016l.154.364a2.74 2.74 0 0 1-1.092 1.274q-.727.448-1.708.448m-.658-8.568 1.918-1.736h1.33l-2.268 1.736zm9.351 8.568q-1.036 0-1.596-.56t-.56-1.582v-6.902h.994v6.846q0 .644.322.994.336.35.952.35.657 0 1.092-.378l.35.714a1.8 1.8 0 0 1-.714.392 2.8 2.8 0 0 1-.84.126m-3.472-6.594v-.826h4.55v.826zm9.697 6.594q-1.148 0-2.016-.476a3.6 3.6 0 0 1-1.358-1.33q-.49-.854-.49-1.946t.462-1.932q.477-.84 1.288-1.316a3.55 3.55 0 0 1 1.848-.49q1.036 0 1.834.476.813.462 1.274 1.316.462.84.462 1.946a1 1 0 0 1-.014.154v.154h-6.398v-.742h5.866l-.392.294q0-.798-.35-1.414a2.46 2.46 0 0 0-.924-.98q-.587-.35-1.358-.35-.755 0-1.358.35-.602.35-.938.98t-.336 1.442v.154q0 .84.364 1.484.379.63 1.036.994.672.35 1.526.35.672 0 1.246-.238a2.6 2.6 0 0 0 1.008-.728l.56.644a3.13 3.13 0 0 1-1.232.896 4.1 4.1 0 0 1-1.61.308m5.327-.07v-7.35h.994V679zm.504-8.974a.7.7 0 0 1-.518-.21.69.69 0 0 1-.21-.504q0-.294.21-.49.21-.21.518-.21t.518.196.21.49q0 .308-.21.518a.67.67 0 0 1-.518.21m5.23 9.044q-.909 0-1.722-.252-.812-.266-1.274-.658l.448-.784q.449.336 1.148.588a4.5 4.5 0 0 0 1.47.238q1.05 0 1.512-.322.462-.336.462-.882 0-.407-.266-.63a1.53 1.53 0 0 0-.672-.35 7 7 0 0 0-.938-.21q-.517-.084-1.036-.196a4 4 0 0 1-.924-.322 1.95 1.95 0 0 1-.686-.602q-.252-.378-.252-1.008 0-.602.336-1.078t.98-.742q.659-.28 1.596-.28.714 0 1.428.196.714.182 1.176.49l-.434.798a3.2 3.2 0 0 0-1.05-.476 4.2 4.2 0 0 0-1.12-.154q-.993 0-1.47.35-.462.336-.462.868 0 .42.252.658.267.238.686.378.434.126.938.21.518.084 1.022.21.519.112.938.322.435.196.686.574.267.365.266.966 0 .644-.364 1.12-.35.462-1.036.728-.672.252-1.638.252m12.32 0a3.45 3.45 0 0 1-1.722-.434 3.3 3.3 0 0 1-1.232-1.274q-.448-.84-.448-2.044t.448-2.03q.448-.84 1.218-1.274a3.5 3.5 0 0 1 1.736-.434q1.05 0 1.876.476.84.462 1.316 1.316.477.84.476 1.946 0 1.12-.476 1.96t-1.316 1.316q-.826.476-1.876.476m-3.794 2.646V671.65h.952v2.212l-.098 1.47.14 1.484v4.9zm3.724-3.528q.785 0 1.4-.35.617-.364.98-1.008.364-.659.364-1.512 0-.854-.364-1.498a2.7 2.7 0 0 0-.98-1.008 2.7 2.7 0 0 0-1.4-.364q-.784 0-1.414.364-.615.364-.98 1.008-.35.644-.35 1.498 0 .853.35 1.512.365.644.98 1.008.63.35 1.414.35m10.33.812v-1.624l-.042-.266v-2.716q0-.938-.532-1.442-.519-.504-1.554-.504-.714 0-1.358.238-.645.239-1.092.63l-.448-.742q.56-.476 1.344-.728a5.1 5.1 0 0 1 1.652-.266q1.428 0 2.198.714.784.7.784 2.142V679zm-2.534.07q-.827 0-1.442-.266-.603-.28-.924-.756a2 2 0 0 1-.322-1.12q0-.574.266-1.036.28-.476.896-.756.63-.294 1.68-.294h2.534v.742h-2.506q-1.065 0-1.484.378a1.23 1.23 0 0 0-.406.938q0 .63.49 1.008t1.372.378q.84 0 1.442-.378.615-.392.896-1.12l.224.686a2.33 2.33 0 0 1-.98 1.162q-.686.434-1.736.434m6.185-.07v-7.35h.952v2.002l-.098-.35q.309-.84 1.036-1.274.729-.448 1.806-.448v.966h-.112a.5.5 0 0 0-.112-.014q-1.161 0-1.82.714-.657.7-.658 2.002V679zm9.569 0v-1.624l-.042-.266v-2.716q0-.938-.532-1.442-.517-.504-1.554-.504a3.9 3.9 0 0 0-1.358.238 3.5 3.5 0 0 0-1.092.63l-.448-.742a3.9 3.9 0 0 1 1.344-.728 5.1 5.1 0 0 1 1.652-.266q1.428 0 2.198.714.784.7.784 2.142V679zm-2.534.07q-.825 0-1.442-.266-.601-.28-.924-.756a2 2 0 0 1-.322-1.12q0-.574.266-1.036.28-.476.896-.756.63-.294 1.68-.294h2.534v.742h-2.506q-1.064 0-1.484.378-.406.378-.406.938 0 .63.49 1.008t1.372.378q.84 0 1.442-.378.617-.392.896-1.12l.224.686a2.32 2.32 0 0 1-.98 1.162q-.686.434-1.736.434m11.824 0a5.8 5.8 0 0 1-1.722-.252q-.812-.266-1.274-.658l.448-.784q.448.336 1.148.588a4.5 4.5 0 0 0 1.47.238q1.05 0 1.512-.322.462-.336.462-.882 0-.407-.266-.63a1.53 1.53 0 0 0-.672-.35 7 7 0 0 0-.938-.21 20 20 0 0 1-1.036-.196 4 4 0 0 1-.924-.322 1.94 1.94 0 0 1-.686-.602q-.252-.378-.252-1.008 0-.602.336-1.078t.98-.742q.659-.28 1.596-.28.714 0 1.428.196.714.182 1.176.49l-.434.798a3.2 3.2 0 0 0-1.05-.476 4.2 4.2 0 0 0-1.12-.154q-.994 0-1.47.35-.462.336-.462.868 0 .42.252.658.266.238.686.378.434.126.938.21.518.084 1.022.21.518.112.938.322.434.196.686.574.266.365.266.966 0 .644-.364 1.12-.35.462-1.036.728-.672.252-1.638.252m7.9 0q-.937 0-1.638-.35a2.5 2.5 0 0 1-1.092-1.05q-.378-.7-.378-1.75v-4.27h.994v4.158q0 1.176.574 1.778.588.588 1.638.588.77 0 1.33-.308.574-.322.868-.924.308-.602.308-1.442v-3.85h.994V679h-.952v-2.016l.154.364a2.74 2.74 0 0 1-1.092 1.274q-.728.448-1.708.448m10.974-.07v-1.624l-.042-.266v-2.716q0-.938-.532-1.442-.518-.504-1.554-.504a3.9 3.9 0 0 0-1.358.238 3.5 3.5 0 0 0-1.092.63l-.448-.742a3.9 3.9 0 0 1 1.344-.728 5.1 5.1 0 0 1 1.652-.266q1.428 0 2.198.714.784.7.784 2.142V679zm-2.534.07q-.825 0-1.442-.266-.601-.28-.924-.756a2 2 0 0 1-.322-1.12q0-.574.266-1.036.28-.476.896-.756.63-.294 1.68-.294h2.534v.742h-2.506q-1.064 0-1.484.378-.406.378-.406.938 0 .63.49 1.008t1.372.378q.84 0 1.442-.378.617-.392.896-1.12l.224.686a2.32 2.32 0 0 1-.98 1.162q-.686.434-1.736.434m8.758 2.716q-.448 0-.854-.126a1.8 1.8 0 0 1-.7-.35l.35-.756q.448.378 1.148.378.588 0 .896-.35.322-.35.322-1.036v-7.896h.994v7.896q0 1.022-.56 1.624-.546.616-1.596.616m1.666-11.76a.7.7 0 0 1-.518-.21.69.69 0 0 1-.21-.504q0-.294.21-.49.21-.21.518-.21a.73.73 0 0 1 .518.196q.21.196.21.49 0 .308-.21.518a.68.68 0 0 1-.518.21m6.264 9.044q-1.064 0-1.918-.476a3.64 3.64 0 0 1-1.33-1.33q-.49-.854-.49-1.946 0-1.106.49-1.946a3.53 3.53 0 0 1 1.33-1.316q.84-.476 1.918-.476 1.092 0 1.932.476a3.4 3.4 0 0 1 1.33 1.316q.49.84.49 1.946 0 1.092-.49 1.946a3.5 3.5 0 0 1-1.33 1.33q-.853.476-1.932.476m0-.882q.798 0 1.414-.35.617-.364.966-1.008.364-.659.364-1.512 0-.869-.364-1.512a2.47 2.47 0 0 0-.966-.994 2.7 2.7 0 0 0-1.4-.364q-.784 0-1.4.364a2.57 2.57 0 0 0-.98.994q-.364.643-.364 1.512 0 .853.364 1.512.364.644.98 1.008.617.35 1.386.35m5.781.812v-7.35h.952v2.002l-.098-.35q.309-.84 1.036-1.274.729-.448 1.806-.448v.966h-.112a.5.5 0 0 0-.112-.014q-1.161 0-1.82.714-.657.7-.658 2.002V679zm9.262-7.42q.896 0 1.568.35.686.336 1.064 1.036.392.7.392 1.764V679h-.994v-4.172q0-1.162-.588-1.75-.574-.602-1.624-.602-.784 0-1.372.322a2.16 2.16 0 0 0-.896.91q-.308.588-.308 1.428V679h-.994v-7.35h.952v2.016l-.154-.378a2.64 2.64 0 0 1 1.12-1.246q.77-.462 1.834-.462M252.45 679v-1.624l-.042-.266v-2.716q0-.938-.532-1.442-.517-.504-1.554-.504-.714 0-1.358.238a3.5 3.5 0 0 0-1.092.63l-.448-.742q.56-.476 1.344-.728a5.1 5.1 0 0 1 1.652-.266q1.428 0 2.198.714.784.7.784 2.142V679zm-2.534.07q-.826 0-1.442-.266-.601-.28-.924-.756a2 2 0 0 1-.322-1.12q0-.574.266-1.036.28-.476.896-.756.63-.294 1.68-.294h2.534v.742h-2.506q-1.064 0-1.484.378a1.23 1.23 0 0 0-.406.938q0 .63.49 1.008t1.372.378q.84 0 1.442-.378.616-.392.896-1.12l.224.686a2.33 2.33 0 0 1-.98 1.162q-.686.434-1.736.434m9.112 0q-1.05 0-1.89-.476a3.45 3.45 0 0 1-1.302-1.316q-.477-.854-.476-1.96 0-1.12.476-1.96t1.302-1.302a3.77 3.77 0 0 1 1.89-.476q.966 0 1.722.434.77.434 1.218 1.274.462.826.462 2.03 0 1.19-.448 2.03a3.2 3.2 0 0 1-1.218 1.288q-.756.434-1.736.434m.07-.882a2.8 2.8 0 0 0 1.4-.35q.63-.364.98-1.008.363-.659.364-1.512 0-.869-.364-1.512a2.46 2.46 0 0 0-.98-.994 2.7 2.7 0 0 0-1.4-.364q-.771 0-1.386.364a2.57 2.57 0 0 0-.98.994q-.364.643-.364 1.512 0 .853.364 1.512.363.644.98 1.008.615.35 1.386.35m2.772.812v-2.212l.098-1.484-.14-1.484v-5.208h.994V679zm8.326 0v-1.624l-.042-.266v-2.716q0-.938-.532-1.442-.518-.504-1.554-.504-.714 0-1.358.238a3.5 3.5 0 0 0-1.092.63l-.448-.742q.56-.476 1.344-.728a5.1 5.1 0 0 1 1.652-.266q1.428 0 2.198.714.784.7.784 2.142V679zm-2.534.07q-.826 0-1.442-.266-.601-.28-.924-.756a2 2 0 0 1-.322-1.12q0-.574.266-1.036.28-.476.896-.756.63-.294 1.68-.294h2.534v.742h-2.506q-1.064 0-1.484.378a1.23 1.23 0 0 0-.406.938q0 .63.49 1.008t1.372.378q.84 0 1.442-.378.616-.392.896-1.12l.224.686a2.33 2.33 0 0 1-.98 1.162q-.686.434-1.736.434m6.284 0a.73.73 0 0 1-.532-.224.77.77 0 0 1-.21-.546q0-.336.21-.546a.75.75 0 0 1 .532-.21q.308 0 .518.21.224.21.224.546a.74.74 0 0 1-.224.546.68.68 0 0 1-.518.224"/>
    <circle cx="145" cy="720" r="4" fill="#ecf1f8"/>
    <circle cx="161" cy="720" r="4" fill="#ecf1f8"/>
    <circle cx="177" cy="720" r="4" fill="#ecf1f8"/>
    <circle cx="193" cy="720" r="4" fill="#ecf1f8"/>
    <rect width="16" height="8" x="205" y="716" fill="#2d77e3" rx="4"/>
    <circle cx="233" cy="720" r="4" fill="#ecf1f8"/>
    <circle cx="249" cy="720" r="4" fill="#ecf1f8"/>
    <g filter="url(#b)">
      <rect width="361" height="48" x="16" y="756" fill="#2d77e3" rx="12"/>
      <path fill="#fff" d="M167.944 786.176q-1.28 0-2.112-.32a2.87 2.87 0 0 1-1.296-1.024q-.48-.688-.672-1.744-.176-1.072-.176-2.544 0-1.488.176-2.544.192-1.072.672-1.76t1.312-1.024q.847-.336 2.16-.336.528 0 1.104.064t1.104.16q.544.08.928.176l-.064 1.76a8 8 0 0 0-.8-.112 14.72 14.72 0 0 0-1.904-.128q-.768 0-1.248.192t-.752.64q-.256.448-.352 1.168a13 13 0 0 0-.096 1.744q0 1.024.096 1.744.096.703.352 1.152.256.432.736.64.496.192 1.28.192.64 0 1.408-.064.785-.08 1.296-.144l.048 1.744q-.384.08-.912.176-.528.08-1.12.128-.592.064-1.168.064m7.892 0q-1.36 0-2.192-.448-.816-.448-1.184-1.376-.368-.944-.368-2.432 0-1.44.384-2.336.384-.912 1.216-1.344.832-.448 2.144-.448 1.328 0 2.144.448.832.432 1.216 1.344.4.896.4 2.336 0 1.488-.368 2.432-.368.928-1.2 1.376-.816.448-2.192.448m0-1.76q.672 0 1.008-.24.336-.256.448-.8.128-.56.128-1.456 0-.88-.144-1.392-.144-.528-.48-.752t-.96-.224q-.607 0-.96.224-.336.224-.48.752-.144.511-.144 1.392 0 .896.112 1.456.128.544.464.8.336.24 1.008.24m5.216 1.584v-8.032h2.128v.512q.257-.16.624-.304.368-.16.768-.272.416-.112.8-.112.832 0 1.376.224.56.208.88.688t.464 1.264q.144.768.144 1.872V786h-2.144v-4.048q0-.832-.096-1.328-.096-.512-.368-.736t-.8-.224q-.288 0-.608.064-.304.048-.592.144a3 3 0 0 0-.448.192V786zm11.628.192q-.88 0-1.424-.256t-.784-.88q-.224-.64-.224-1.776v-3.536h-.944v-1.776h.944v-2.128h2.128v2.128h2.048v1.776h-2.048v2.976q0 .624.048.976.064.352.256.496t.592.144q.112 0 .336-.016l.448-.032q.225-.016.368-.032l.064 1.712q-.24.048-.592.096-.336.048-.672.08a4 4 0 0 1-.544.048m2.934-.192v-8.032h2.128V786zm0-9.312v-1.824h2.144v1.824zm3.907 9.312v-8.032h2.128v.512a3.7 3.7 0 0 1 .624-.304q.367-.16.768-.272.416-.112.8-.112.831 0 1.376.224.56.208.88.688t.464 1.264q.144.768.144 1.872V786h-2.144v-4.048q0-.832-.096-1.328-.096-.512-.368-.736t-.8-.224q-.288 0-.608.064-.304.048-.592.144a3 3 0 0 0-.448.192V786zm11.403.176q-1.04 0-1.616-.432-.56-.449-.8-1.344-.224-.895-.224-2.256v-4.176h2.128v4.08q0 .847.08 1.344.096.496.368.704.273.208.784.208.496 0 .928-.128t.688-.256v-5.952h2.128V786h-2.112v-.496a7 7 0 0 1-1.088.496q-.528.176-1.264.176m8.318 0q-1.248 0-1.888-.624-.624-.64-.624-1.92 0-.895.32-1.392.32-.512.944-.736.64-.24 1.552-.288l1.952-.176v-.48q0-.576-.288-.8-.288-.24-.848-.24-.449 0-1.04.032a41 41 0 0 0-2.128.176l-.064-1.504q.416-.096.992-.192.591-.112 1.232-.176a12 12 0 0 1 1.184-.064q1.023 0 1.712.256.687.256 1.04.848.352.576.352 1.568v3.664a.48.48 0 0 0 .24.352q.207.112.48.16l-.048 1.472h-.512q-.24.016-.464 0-.225 0-.4-.032a1.9 1.9 0 0 1-.64-.192 1.9 1.9 0 0 1-.416-.304q-.256.112-.688.256a7 7 0 0 1-.944.24 5.3 5.3 0 0 1-1.008.096m.512-1.584q.303 0 .64-.064.336-.064.624-.144.303-.096.48-.176v-1.84l-1.632.144q-.528.048-.768.32-.224.256-.224.736t.208.752q.224.272.672.272m5.767 1.408v-8.032h2.128v.944q.272-.208.672-.432.399-.24.864-.432.48-.208.912-.272v2.064a5 5 0 0 0-.88.224q-.465.144-.88.32a15 15 0 0 0-.688.32V786z"/>
    </g>
    <path fill="#000" d="M60.496 22.945c2.406 0 4.5 1.711 4.5 5.774v.015c0 3.797-1.711 6.047-4.547 6.047-2.07 0-3.617-1.226-3.977-2.953l-.015-.086h1.984l.023.078c.297.79.993 1.305 1.985 1.305 1.789 0 2.547-1.75 2.633-3.906 0-.086.007-.172.007-.258h-.156c-.414.89-1.398 1.68-2.945 1.68-2.164 0-3.68-1.578-3.68-3.72v-.015c0-2.289 1.742-3.96 4.188-3.96m-.008 6.149c1.273 0 2.25-.922 2.25-2.196v-.015c0-1.29-.977-2.297-2.227-2.297a2.227 2.227 0 0 0-2.234 2.25v.016c0 1.304.93 2.242 2.21 2.242m7.734-1.899a1.22 1.22 0 0 1-1.242-1.234c0-.695.532-1.234 1.242-1.234.72 0 1.243.539 1.243 1.234 0 .687-.524 1.234-1.243 1.234m0 5.797c-.71 0-1.242-.539-1.242-1.234s.532-1.235 1.242-1.235c.72 0 1.243.54 1.243 1.235s-.524 1.234-1.243 1.234m8.696 1.508v-2.164h-5.516v-1.648c1.461-2.54 3.063-5.133 4.594-7.461h2.852v7.445h1.515v1.664h-1.515V34.5zm-3.64-3.781h3.671v-5.883h-.117a117 117 0 0 0-3.554 5.766zM84.715 34.5v-9.29h-.133l-2.804 1.985v-1.898l2.945-2.07h2.008V34.5z"/>
    <rect width="125" height="37" x="134" y="11" fill="#000" rx="18.5"/>
    <rect width="80" height="37" x="134" y="11" fill="#000" rx="18.5"/>
    <rect width="37" height="37" x="222" y="11" fill="#000" rx="18.5"/>
    <path fill="#000" d="M291.299 26a1 1 0 0 1 1-1h1a1 1 0 0 1 1 1v8a1 1 0 0 1-1 1h-1a1 1 0 0 1-1-1zM296.299 24a1 1 0 0 1 1-1h1a1 1 0 0 1 1 1v10a1 1 0 0 1-1 1h-1a1 1 0 0 1-1-1zM286.299 29.5a1 1 0 0 1 1-1h1a1 1 0 0 1 1 1V34a1 1 0 0 1-1 1h-1a1 1 0 0 1-1-1zM281.299 32a1 1 0 0 1 1-1h1a1 1 0 0 1 1 1v2a1 1 0 0 1-1 1h-1a1 1 0 0 1-1-1zM313.415 31.919a3.75 3.75 0 0 1 4.918 0 .36.36 0 0 1 .011.52l-2.223 2.29a.343.343 0 0 1-.494 0l-2.223-2.29a.36.36 0 0 1 .011-.52m-3.006-2.74a7.85 7.85 0 0 1 10.855 0 .37.37 0 0 1 .005.521l-1.285 1.325a.34.34 0 0 1-.483.007 5.4 5.4 0 0 0-3.666-1.442 5.4 5.4 0 0 0-3.664 1.442.34.34 0 0 1-.482-.007l-1.285-1.325a.37.37 0 0 1 .005-.521m-3.002-2.737a11.95 11.95 0 0 1 16.785 0 .368.368 0 0 1 .003.518l-1.286 1.326a.34.34 0 0 1-.483.004 9.51 9.51 0 0 0-6.627-2.702 9.52 9.52 0 0 0-6.627 2.702.337.337 0 0 1-.482-.004l-1.287-1.325a.373.373 0 0 1 .004-.519"/>
    <path stroke="#000" d="M336.299 23.5h17a3.5 3.5 0 0 1 3.5 3.5v5a3.5 3.5 0 0 1-3.5 3.5h-17a3.5 3.5 0 0 1-3.5-3.5v-5a3.5 3.5 0 0 1 3.5-3.5Z" opacity=".35"/>
    <path fill="#000" d="M358.299 28v4.22a2.29 2.29 0 0 0 0-4.22" opacity=".4"/>
    <path fill="#000" d="M334.299 27a2 2 0 0 1 2-2h17a2 2 0 0 1 2 2v5a2 2 0 0 1-2 2h-17a2 2 0 0 1-2-2z"/>
    <g clip-path="url(#c)">
      <rect width="330" height="330" x="32" y="192" fill="#f1f6fd" rx="165"/>
      <g clip-path="url(#d)">
        <path fill="#ebebeb" d="M414.84 490.663H6.079v.205H414.84zM373.882 503.817h-27.077v.204h27.077zM276.858 506.041h-7.104v.204h7.104zM345.988 496.23H330.3v.205h15.688zM84.275 497.604h-35.31v.204h35.31zM96.734 497.604h-5.175v.204h5.175zM190.144 501.054h-76.585v.204h76.585z"/>
        <path fill="#f5f5f5" d="M151.769 342.986h185.063v-7.938H151.769zM81.724 490.663H73.76v-17.552H90.08z"/>
        <path fill="#e6e6e6" d="M233.35 458.624h-72.988a.667.667 0 0 1-.671-.67v-47.735a.67.67 0 0 1 .671-.671h12.745a.65.65 0 0 1 .401.131 23.4 23.4 0 0 0 6.54 3.377 27.7 27.7 0 0 0 8.813 1.406h14.437a25.9 25.9 0 0 0 15.378-4.783.68.68 0 0 1 .4-.131h14.274a.67.67 0 0 1 .622.413q.05.124.049.258v47.71a.652.652 0 0 1-.188.49.66.66 0 0 1-.483.205m-72.31-1.34h71.64v-46.37h-13.342a27.3 27.3 0 0 1-15.999 4.905h-14.438a29 29 0 0 1-9.238-1.48 24.7 24.7 0 0 1-6.777-3.433h-11.854z"/>
        <path fill="#f5f5f5" d="M311.988 490.663h7.962v-17.552h-16.309zM210.459 527.582c87.543 0 158.51-4.143 158.51-9.254s-70.967-9.254-158.51-9.254-158.51 4.143-158.51 9.254 70.968 9.254 158.51 9.254"/>
        <path fill="#fcc65e" d="M337.404 438.284H83.506v28.744h253.898z"/>
        <path fill="#000" d="M337.412 438.284h-54.463v28.744h54.463z" opacity=".3"/>
        <path fill="#fcc65e" d="M111.539 467.028H83.506v51.3h28.033z"/>
        <path fill="#000" d="M83.514 467.028v2.87l19.85 5.992v42.438h8.175v-51.3z" opacity=".3"/>
        <path fill="#fcc65e" d="M337.413 467.028H309.38v51.3h28.033z"/>
        <path fill="#000" d="M337.413 467.028H309.38v51.3h28.033z" opacity=".2"/>
        <path fill="#000" d="M309.38 467.028v2.87l19.858 5.992v42.438h8.175v-51.3z" opacity=".3"/>
        <path fill="#fcc65e" d="M282.949 467.028h-28.032v51.3h28.032z"/>
        <path fill="#000" d="M254.917 467.028v2.87l19.857 5.992v42.438h8.175v-51.3z" opacity=".3"/>
        <path fill="#fcc65e" d="M166.002 467.028h-28.033v51.3h28.033z"/>
        <path fill="#000" d="M166.002 467.028h-28.033v51.3h28.033z" opacity=".2"/>
        <path fill="#000" d="M137.969 467.028v2.87l19.858 5.992v42.438h8.175v-51.3z" opacity=".3"/>
        <path fill="#263238" d="M302.414 432.635H147.183a3.496 3.496 0 0 1-3.515-3.76l6.393-101.447a4.088 4.088 0 0 1 3.997-3.76h155.223a3.5 3.5 0 0 1 3.327 2.337c.161.456.225.941.189 1.423l-6.393 101.447a4.09 4.09 0 0 1-3.99 3.76"/>
        <path fill="#000" d="M302.414 432.635H147.183a3.496 3.496 0 0 1-3.515-3.76l6.393-101.447a4.088 4.088 0 0 1 3.997-3.76h155.223a3.5 3.5 0 0 1 3.327 2.337c.161.456.225.941.189 1.423l-6.393 101.447a4.09 4.09 0 0 1-3.99 3.76" opacity=".6"/>
        <path fill="#263238" d="M301.253 432.635H146.03a3.5 3.5 0 0 1-3.524-3.76l6.393-101.447a4.087 4.087 0 0 1 3.998-3.76H308.12a3.5 3.5 0 0 1 2.585 1.106 3.49 3.49 0 0 1 .93 2.654l-6.393 101.447a4.085 4.085 0 0 1-3.989 3.76M301.057 433.927H116.355a4.5 4.5 0 0 0-4.088 2.526 1.29 1.29 0 0 0 .079 1.254 1.297 1.297 0 0 0 1.106.594h190.467a1.29 1.29 0 0 0 1.185-1.848 4.49 4.49 0 0 0-4.047-2.526"/>
        <path fill="#000" d="M301.057 433.927H274.79a4.48 4.48 0 0 0-4.047 2.526 1.3 1.3 0 0 0 .077 1.25 1.3 1.3 0 0 0 1.101.597h31.998a1.29 1.29 0 0 0 1.106-.594 1.29 1.29 0 0 0 .079-1.253 4.48 4.48 0 0 0-4.047-2.526" opacity=".6"/>
        <path fill="#2d78e5" d="M284.772 437.115h-6.785a.595.595 0 0 1-.417-1.016.6.6 0 0 1 .417-.177h6.785a.6.6 0 0 1 .552.368.59.59 0 0 1-.13.65.59.59 0 0 1-.422.175"/>
        <path fill="#fff" d="M197.518 437.115h-6.777a.597.597 0 0 1 0-1.193h6.777a.594.594 0 0 1 .597.596.596.596 0 0 1-.597.597" opacity=".7"/>
        <path fill="#2d78e5" d="M291.794 435.922h-4.439a.49.49 0 0 0-.49.49v.213c0 .271.219.49.49.49h4.439a.49.49 0 0 0 .491-.49v-.213a.49.49 0 0 0-.491-.49"/>
        <path fill="#fff" d="m146.005 425.212 5.936-94.121a1.575 1.575 0 0 1 1.553-1.455h153.277a1.35 1.35 0 0 1 1.294.902c.062.177.086.366.072.553l-5.928 94.121a1.58 1.58 0 0 1-1.561 1.455H147.379a1.35 1.35 0 0 1-1.004-.428 1.36 1.36 0 0 1-.37-1.027"/>
        <path fill="#2d78e5" d="m233.203 326.733-51.055 97.04h-37.663a1.37 1.37 0 0 1-1.01-.428 1.347 1.347 0 0 1-.363-1.035l5.935-94.113a1.584 1.584 0 0 1 1.553-1.464zM277.913 326.733l-51.054 97.04h-11.903l51.054-97.04zM305.243 328.197l-5.936 94.113a1.577 1.577 0 0 1-1.553 1.463H239.71l51.054-97.04h13.081a1.36 1.36 0 0 1 1.023.422 1.37 1.37 0 0 1 .375 1.042" opacity=".1"/>
        <path fill="#fff" d="M231.412 326.831a1.193 1.193 0 0 1-1.169 1.104 1 1 0 0 1-.758-.324 1.03 1.03 0 0 1-.272-.78 1.187 1.187 0 0 1 1.169-1.103 1.02 1.02 0 0 1 .977.685c.046.134.065.277.053.418" opacity=".4"/>
        <path fill="#263238" d="M206.085 304.26c-4.472 5.117-7.055 20.806-3.744 28.523s-35.104 15.443-3.409 27.984 57.047-2.003 47.874-14.994.989-34.622-9.63-40.058c-9.598-4.954-22.131-11.715-31.091-1.455"/>
        <path fill="#e49987" d="M196.61 367.43a660 660 0 0 1-5.305 17.168 566 566 0 0 1-5.805 17.061l-.777 2.142-.392 1.071-.123.319-.196.482c-.122.311-.31.646-.474.965a8.9 8.9 0 0 1-3.442 3.483 9.3 9.3 0 0 1-4.284 1.128c-2.1.01-4.182-.398-6.123-1.202a34.4 34.4 0 0 1-4.602-2.281 73.2 73.2 0 0 1-14.618-11.821l3.524-4.153c1.185.76 2.452 1.57 3.679 2.33s2.509 1.496 3.752 2.223a75 75 0 0 0 7.529 3.851c1.176.519 2.39.948 3.63 1.284.858.284 1.765.39 2.665.31.229 0 .188-.131 0-.057s-.392.286-.4.262c-.008-.025 0 0 0-.049a.1.1 0 0 0 0-.05l.065-.204.311-1.055.629-2.125 4.995-17.168a1146 1146 0 0 1 5.249-17.168z"/>
        <path fill="#e49987" d="m153.739 391.661-9.499-3.515 3.769 10.039s6.703.964 9.303-2.559l-2.117-2.837a3.27 3.27 0 0 0-1.456-1.128"/>
        <path fill="#e49987" d="m135.86 391.064 3.613 8.233 8.576-1.129-3.777-10.039z"/>
        <path fill="#2d78e5" d="M189.678 352.624c-4.349 1.104-7.358 18.983-7.358 18.983l11.977 8.175s11.445-18.034 8.134-22.809c-3.515-5.011-6.417-5.959-12.753-4.349"/>
        <path fill="#fff" d="M189.678 352.624c-4.349 1.104-7.358 18.983-7.358 18.983l11.977 8.175s11.445-18.034 8.134-22.809c-3.515-5.011-6.417-5.959-12.753-4.349" opacity=".5"/>
        <path fill="#000" d="m189.286 359.124 9.295 2.15.891 9.099a105 105 0 0 1-5.208 9.377l-7.267-4.905c.318-4.211 1.103-12.86 2.289-15.721" opacity=".2"/>
        <path fill="#2d78e5" d="M189.678 352.624s-5.028 1.766 5.036 63.62h42.805c-.719-17.421-.736-28.172 7.587-63.922a126 126 0 0 0-18.174-2.395c-7.202-.352-13.08-.581-19.44 0-8.347.76-17.814 2.697-17.814 2.697"/>
        <path fill="#fff" d="M189.678 352.624s-5.028 1.766 5.036 63.62h42.805c-.719-17.421-.736-28.172 7.587-63.922a126 126 0 0 0-18.174-2.395c-7.202-.352-13.08-.581-19.44 0-8.347.76-17.814 2.697-17.814 2.697" opacity=".5"/>
        <path fill="#000" d="m235.034 368.918 5.527 4.709c-1.177 6.254-1.97 11.445-2.453 16.097-1.054-4.644-3.687-17.25-3.074-20.806" opacity=".2"/>
        <path fill="#e49987" d="M225.003 328.033c-1.226 6.254-2.452 17.716 1.93 21.894 0 0-4.088 9.368-14.92 9.368s-4.521-9.368-4.521-9.368c6.973-1.636 6.794-6.843 5.584-11.699z"/>
        <path fill="#fafafa" d="M225.542 347.588c-1.03 2.085-4.349 6.851-13.62 8.552a1.04 1.04 0 0 1-.744-.147c-1.733-1.21-2.812-3.769-2.052-6.737a1.01 1.01 0 0 0-.803-1.269 1 1 0 0 0-.554.059c-.712.298-1.396.659-2.044 1.079a1 1 0 0 0-.335.376c-.678 1.276-3.425 7.522 4.864 11.372q.201.086.417.098c4.905.098 13.481-.866 18.901-10.628a1.03 1.03 0 0 0-.089-1.128 10.6 10.6 0 0 0-2.51-2.019 1 1 0 0 0-.803-.123 1 1 0 0 0-.628.515M227.815 373.324l-11.036-.319a.8.8 0 0 1-.613-.27.817.817 0 0 1-.205-.637l.106-1.366a.95.95 0 0 1 .957-.817l11.036.319a.82.82 0 0 1 .616.273.82.82 0 0 1 .202.642l-.106 1.357a.95.95 0 0 1-.957.818"/>
        <path fill="#000" d="m220.139 332.194-7.064 6.026a20 20 0 0 1 .605 3.449c2.657-.384 6.32-3.311 6.606-6.098a9.4 9.4 0 0 0-.147-3.377" opacity=".2"/>
        <path fill="#e49987" d="M233.244 316.204c-1.97 10.276-2.584 14.666-8.502 19.301-8.903 6.982-21.093 2.306-22.221-8.347-1.022-9.589 2.371-24.779 13.081-27.591a14.265 14.265 0 0 1 17.642 16.637"/>
        <path fill="#263238" d="M227.398 308.601c-1.275 6.433-1.578 14.96 4.317 14.96 5.894 0 10.513-10.031 5.428-17.887-5.085-7.857-9.001-.867-9.745 2.927"/>
        <path fill="#263238" d="M237.585 309.394c0 6.998-8.813 3.54-12.713.523s-4.088-2.69-11.314-2.698c-7.227-.008-8.674-.507-10.808-3.957s-1.938-5.722 2.869-4.995.769-4.177 4.35-6.9c3.58-2.722 7.823-2.035 12.72 4.178s14.896 1.725 14.896 13.849"/>
        <path fill="#fff" d="M234.997 325.347c.928-3.163.018-6.214-2.031-6.815s-4.463 1.476-5.39 4.639-.018 6.214 2.032 6.815 4.462-1.476 5.389-4.639"/>
        <path fill="#fff" d="M218.635 333.257a14 14 0 0 1-5.519-1.136.3.3 0 0 1-.1-.066.295.295 0 0 1-.088-.218q0-.06.025-.117a.317.317 0 0 1 .408-.163 13.37 13.37 0 0 0 10.408.057 13.01 13.01 0 0 0 7.128-7.153c2.453-7.023 4.955-15.787 2.06-21.256a8.41 8.41 0 0 0-5.64-4.194.308.308 0 0 1 .155-.597 9.03 9.03 0 0 1 6.025 4.497c3.009 5.649.499 14.584-2.027 21.738a13.65 13.65 0 0 1-7.497 7.505 14.2 14.2 0 0 1-5.338 1.103"/>
        <path fill="#2d78e5" d="M234.699 325.376c-.728 2.453-2.396 4.178-3.728 3.794-1.333-.385-1.823-2.723-1.096-5.208.728-2.485 2.396-4.186 3.728-3.793s1.823 2.722 1.096 5.207" opacity=".6"/>
        <path fill="#fff" d="m213.965 330.768-3.203-.618a1.04 1.04 0 0 0-1.216.823l-.036.184a1.04 1.04 0 0 0 .823 1.217l3.203.618a1.04 1.04 0 0 0 1.216-.823l.036-.185a1.04 1.04 0 0 0-.823-1.216"/>
        <path fill="#a02724" d="M209.781 317.062s-1.897 3.442-3.696 4.987c.973 1.185 2.935.957 2.935.957z"/>
        <path fill="#263238" d="M211.588 327.404h.073a7.36 7.36 0 0 0 5.15-1.57.17.17 0 0 0 .047-.114.17.17 0 0 0-.047-.115.16.16 0 0 0-.11-.046.16.16 0 0 0-.11.046 7.09 7.09 0 0 1-4.905 1.496.16.16 0 0 0-.162.079.2.2 0 0 0-.018.06.16.16 0 0 0 .016.094q.022.045.066.07M220.94 313.015a.3.3 0 0 0 .302 0 .326.326 0 0 0 .098-.441 4.8 4.8 0 0 0-3.72-2.322.33.33 0 0 0-.327.319.321.321 0 0 0 .311.319 4.171 4.171 0 0 1 3.197 2.027.3.3 0 0 0 .139.098M216.255 317.201c-.139.818-.703 1.447-1.259 1.357s-.874-.817-.736-1.7c.139-.883.712-1.447 1.259-1.357.548.09.883.858.736 1.7M206.723 315.582c-.139.818-.703 1.447-1.259 1.357s-.875-.858-.736-1.7.712-1.455 1.259-1.357c.548.098.883.85.736 1.7"/>
        <path fill="#263238" d="m206.225 313.972-1.93-.932s.769 1.757 1.93.932M215.757 315.59l-1.929-.923s.768 1.757 1.929.923M203.486 309.884q.076.045.163.045a.3.3 0 0 0 .164-.045 4.08 4.08 0 0 1 3.695-.817.32.32 0 0 0 .409-.197.33.33 0 0 0-.013-.245.32.32 0 0 0-.183-.163 4.74 4.74 0 0 0-4.292.883.3.3 0 0 0-.126.208.3.3 0 0 0 .069.233.25.25 0 0 0 .114.098"/>
        <path fill="#2d78e5" d="M193.086 426.667s-.114-5.853 1.636-10.423h42.797s3.85 6.213 4.848 10.423z"/>
        <path fill="#2d78e5" d="m238.166 413.734.335 3.826c.155.303-.196.605-.695.605h-43.329c-.384 0-.703-.188-.727-.433l-.393-3.834c0-.262.311-.491.736-.491h43.329a.8.8 0 0 1 .415.065.8.8 0 0 1 .329.262"/>
        <path fill="#fafafa" d="m238.166 413.734.335 3.826c.155.303-.196.605-.695.605h-43.329c-.384 0-.703-.188-.727-.433l-.393-3.834c0-.262.311-.491.736-.491h43.329a.8.8 0 0 1 .415.065.8.8 0 0 1 .329.262" opacity=".3"/>
        <path fill="#2d78e5" d="M232.336 418.574h1.161c.237 0 .409-.115.392-.262l-.539-4.979c0-.147-.221-.261-.45-.261h-1.185c-.237 0-.409.114-.393.261l.54 4.979c.041.147.245.262.474.262M197.763 418.574h1.16c.229 0 .409-.115.393-.262l-.548-4.979c0-.147-.212-.261-.45-.261h-1.16c-.229 0-.409.114-.393.261l.548 4.979c.016.147.221.262.45.262M215.054 418.574h1.128c.229 0 .409-.115.392-.262l-.548-4.979c0-.147-.22-.261-.449-.261h-1.161c-.229 0-.409.114-.393.261l.548 4.979c.049.147.245.262.483.262"/>
        <path fill="#e49987" d="M248.768 364.438a770 770 0 0 1 5.42 18.41l2.608 9.205 1.3 4.579.327 1.128.164.564.04.131-.13-.205a3.3 3.3 0 0 0-.753-.768 4.1 4.1 0 0 0-2.19-.777 3.7 3.7 0 0 0-1.734.343c-.588.319-.531.393-.482.336q.209-.182.376-.401.579-.723 1.063-1.512a50 50 0 0 0 2.101-3.859c1.39-2.714 2.64-5.592 3.908-8.486s2.452-5.821 3.679-8.772 2.395-5.919 3.605-8.846l5.224 1.554c-1.357 6.376-2.943 12.639-4.905 18.876a131 131 0 0 1-3.27 9.369c-.638 1.57-1.317 3.139-2.159 4.766q-.674 1.321-1.504 2.551-.517.772-1.144 1.455a7.6 7.6 0 0 1-2.371 1.807c-.9.437-1.895.645-2.894.605a5.96 5.96 0 0 1-3.27-1.202 6.8 6.8 0 0 1-1.546-1.635 9 9 0 0 1-.694-1.267c-.074-.18-.156-.368-.213-.531l-.155-.401-.213-.581-.425-1.152c-.556-1.529-1.12-3.058-1.635-4.587-1.046-3.057-2.093-6.106-3.074-9.172a446 446 0 0 1-5.608-18.468z"/>
        <path fill="#2d78e5" d="M245.106 352.322c4.292 1.3 10.856 18.133 10.856 18.133l-16.636 11.894s-7.481-14.388-5.682-19.931c1.88-5.771 6.573-11.584 11.462-10.096"/>
        <path fill="#fff" d="M245.106 352.322c4.292 1.3 10.856 18.133 10.856 18.133l-16.636 11.894s-7.481-14.388-5.682-19.931c1.88-5.771 6.573-11.584 11.462-10.096" opacity=".5"/>
        <path fill="#e49987" d="m268.258 367.749-2.28-10.056 9.483 5.003s.114 6.769-3.712 8.903zM269.951 349.714l6.049 4.292-.539 8.69-9.483-5.003z"/>
        <path fill="#66d096" d="M100.094 299.109h66.219a9.145 9.145 0 0 1 9.206 9.811l-1.848 29.97a10.627 10.627 0 0 1-10.415 9.81h-7.669l3.132 10.293-14.977-10.293H97.061a9.13 9.13 0 0 1-6.755-2.885 9.14 9.14 0 0 1-2.45-6.925l1.831-29.97a10.63 10.63 0 0 1 10.407-9.811"/>
        <path fill="#fff" d="M160.247 314.806h-56a1.7 1.7 0 0 1-1.262-.563 1.72 1.72 0 0 1-.439-1.309 1.996 1.996 0 0 1 1.954-1.848h56.008a1.73 1.73 0 0 1 1.624 1.152c.078.223.11.46.093.696a1.984 1.984 0 0 1-1.978 1.872M127.072 325.753h-23.496a1.73 1.73 0 0 1-1.27-.545 1.74 1.74 0 0 1-.463-1.303 1.995 1.995 0 0 1 1.962-1.848h23.52a1.724 1.724 0 0 1 1.742 1.848 2 2 0 0 1-1.995 1.848M147.208 336.699h-44.302a1.73 1.73 0 0 1-1.271-.545 1.72 1.72 0 0 1-.462-1.303 1.984 1.984 0 0 1 1.962-1.847h44.301a1.72 1.72 0 0 1 1.734 1.847 2 2 0 0 1-1.962 1.848M144.33 325.753h-9.263a1.73 1.73 0 0 1-1.638-1.148 1.7 1.7 0 0 1-.095-.7 2 2 0 0 1 1.962-1.848h9.254a1.72 1.72 0 0 1 1.734 1.848 1.996 1.996 0 0 1-1.954 1.848"/>
        <path fill="#fd723c" d="M192.302 245.235H156.2a8.244 8.244 0 0 0-8.101 7.627l-1.407 23.332a7.12 7.12 0 0 0 1.915 5.384 7.1 7.1 0 0 0 5.255 2.244h5.911l-3.417 8.011 12.638-8.011h20.945a8.25 8.25 0 0 0 8.102-7.628l1.431-23.332a7.1 7.1 0 0 0-.394-2.892 7.1 7.1 0 0 0-3.913-4.164 7.1 7.1 0 0 0-2.863-.571"/>
        <path fill="#fff" d="M174.897 268.346a2.36 2.36 0 0 1-2.289 1.807h-2.134c0-.605.049-.973.058-1.104a7.7 7.7 0 0 1 .882-3.376 11.3 11.3 0 0 1 2.895-2.976 22 22 0 0 0 2.567-2.175 3.07 3.07 0 0 0 .719-1.782 2.85 2.85 0 0 0-.94-2.33 4.04 4.04 0 0 0-2.862-.964 4.64 4.64 0 0 0-3.024 1.013c-.51.42-.927.941-1.227 1.529a2.44 2.44 0 0 1-.985 1.02 2.44 2.44 0 0 1-1.385.304 2.07 2.07 0 0 1-1.621-1.169 2.076 2.076 0 0 1 .116-1.994 8.3 8.3 0 0 1 1.872-2.175 9.4 9.4 0 0 1 6.271-2.068c2.673 0 4.75.695 6.246 2.093a5.98 5.98 0 0 1 2.068 4.905 5.73 5.73 0 0 1-1.046 2.91 21 21 0 0 1-3.949 3.744 7.7 7.7 0 0 0-1.946 1.971 3.1 3.1 0 0 0-.286.817m-4.668 5.87v-.262a2.364 2.364 0 0 1 2.33-2.191h.294a2.05 2.05 0 0 1 1.516.641 2.036 2.036 0 0 1 .553 1.55v.262a2.373 2.373 0 0 1-2.33 2.199h-.262a2.1 2.1 0 0 1-.838-.151 2.06 2.06 0 0 1-1.15-1.204 2.1 2.1 0 0 1-.113-.844"/>
      </g>
    </g>
  </g>
  <defs>
    <clipPath id="a">
      <rect width="393" height="852" fill="#fff" rx="16"/>
    </clipPath>
    <clipPath id="c">
      <rect width="330" height="330" x="32" y="192" fill="#fff" rx="165"/>
    </clipPath>
    <clipPath id="d">
      <path fill="#fff" d="M6.079 178.042h408.76v408.761H6.08z"/>
    </clipPath>
    <filter id="b" width="401.8" height="88.8" x="-4.4" y="739.6" color-interpolation-filters="sRGB" filterUnits="userSpaceOnUse">
      <feFlood flood-opacity="0" result="BackgroundImageFix"/>
      <feColorMatrix in="SourceAlpha" result="hardAlpha" values="0 0 0 0 0 0 0 0 0 0 0 0 0 0 0 0 0 0 127 0"/>
      <feOffset dy="4"/>
      <feGaussianBlur stdDeviation="10.2"/>
      <feComposite in2="hardAlpha" operator="out"/>
      <feColorMatrix values="0 0 0 0 0.176471 0 0 0 0 0.466667 0 0 0 0 0.890196 0 0 0 0.16 0"/>
      <feBlend in2="BackgroundImageFix" result="effect1_dropShadow_43_762"/>
      <feBlend in="SourceGraphic" in2="effect1_dropShadow_43_762" result="shape"/>
    </filter>
  </defs>
</svg>
