<svg xmlns="http://www.w3.org/2000/svg" width="393" height="852" fill="none" viewBox="0 0 393 852">
  <g clip-path="url(#a)">
    <rect width="393" height="852" fill="#f7fafd" rx="16"/>
    <path fill="#1b1b1b" d="m96.281 634-3.26-13.66h2.9l2.34 11h.82l2.3-11h2.9l-3.2 13.66zm9.378 0v-10.04h2.66V634zm0-11.64v-2.28h2.68v2.28zm8.262 11.86q-.72 0-1.32-.18-.6-.16-1.06-.52a3.4 3.4 0 0 1-.76-.98q-.3-.6-.46-1.46a11.6 11.6 0 0 1-.16-2.04q0-1.72.42-2.9.441-1.18 1.38-1.78.94-.62 2.5-.62.3 0 .7.04.4.02.78.08.38.04.62.08v-4.08h2.68V634h-2.64l-.02-.58a8 8 0 0 1-.74.36q-.44.18-.94.3-.5.14-.98.14m.68-2.24q.36 0 .72-.08a7 7 0 0 0 .7-.18q.34-.12.54-.22v-5.38a3 3 0 0 0-.48-.06 9 9 0 0 0-.62-.06 5 5 0 0 0-.58-.04q-.78 0-1.22.36-.42.36-.6 1.06-.18.68-.18 1.66 0 .86.12 1.44.12.56.34.9.24.32.56.46t.7.14m10.899 2.24q-1.66 0-2.64-.56-.96-.56-1.38-1.7t-.42-2.86q0-1.86.52-3.04.54-1.18 1.56-1.74 1.02-.58 2.52-.58 2.22 0 3.34 1.12 1.14 1.12 1.14 3.54l-.12 1.48h-6.28q.02 1.12.46 1.68t1.52.56q.62 0 1.36-.02l1.46-.08q.74-.04 1.26-.08l.06 1.86q-.5.08-1.26.18a27 27 0 0 1-1.58.16 15 15 0 0 1-1.52.08m-1.76-6.04h3.74q0-1.36-.44-1.9-.42-.54-1.38-.54-.64 0-1.06.24t-.64.78-.22 1.42m12.489 6.04q-1.7 0-2.74-.56-1.02-.56-1.48-1.72-.46-1.18-.46-3.04 0-1.8.48-2.92.48-1.14 1.52-1.68 1.04-.56 2.68-.56 1.66 0 2.68.56 1.04.54 1.52 1.68.5 1.12.5 2.92 0 1.86-.46 3.04-.46 1.16-1.5 1.72-1.02.56-2.74.56m0-2.2q.84 0 1.26-.3.42-.32.56-1 .16-.7.16-1.82 0-1.1-.18-1.74-.18-.66-.6-.94t-1.2-.28q-.76 0-1.2.28-.42.28-.6.94-.18.64-.18 1.74 0 1.12.14 1.82.16.68.58 1 .42.3 1.26.3m10 2.22q-1.1 0-1.78-.32t-.98-1.1q-.28-.8-.28-2.22v-4.42h-1.18v-2.22h1.18v-2.66h2.66v2.66h2.56v2.22h-2.56v3.72q0 .78.06 1.22.08.44.32.62t.74.18q.141 0 .42-.02l.56-.04q.28-.02.46-.04l.08 2.14q-.3.06-.74.12-.42.06-.84.1-.4.06-.68.06m7.728-.02q-1.66 0-2.64-.56-.96-.56-1.38-1.7t-.42-2.86q0-1.86.52-3.04.54-1.18 1.56-1.74 1.02-.58 2.52-.58 2.22 0 3.34 1.12 1.14 1.12 1.14 3.54l-.12 1.48h-6.28q.02 1.12.46 1.68t1.52.56q.62 0 1.36-.02l1.46-.08q.74-.04 1.26-.08l.06 1.86q-.5.08-1.26.18a27 27 0 0 1-1.58.16 15 15 0 0 1-1.52.08m-1.76-6.04h3.74q0-1.36-.44-1.9-.42-.54-1.38-.54-.64 0-1.06.24t-.64.78-.22 1.42m12.269 6.04q-1.72 0-2.7-.52-.96-.54-1.36-1.72-.38-1.18-.38-3.1 0-1.9.44-3.02.44-1.14 1.42-1.62 1-.5 2.6-.5.42 0 .98.06t1.12.16q.58.08.98.16l-.1 2.14q-.38-.04-.86-.06a23 23 0 0 0-.94-.06 8 8 0 0 0-.72-.04q-.86 0-1.36.28-.48.26-.68.88-.18.6-.18 1.62 0 1.1.18 1.76t.64.94q.48.28 1.4.28.28 0 .74-.02l.94-.08q.5-.04.88-.06l.08 2.14q-.4.08-.96.16-.561.1-1.14.16-.561.06-1.02.06m7.465 0q-1.56 0-2.36-.78-.78-.8-.78-2.4 0-1.12.4-1.74.4-.64 1.18-.92.8-.3 1.94-.36l2.44-.22v-.6q0-.72-.36-1-.36-.3-1.06-.3-.56 0-1.3.04-.72.04-1.44.1-.7.06-1.22.12l-.08-1.88q.52-.12 1.24-.24a18 18 0 0 1 1.54-.22q.8-.08 1.48-.08 1.28 0 2.14.32t1.3 1.06q.44.72.44 1.96v4.58a.6.6 0 0 0 .3.44q.26.14.6.2l-.06 1.84h-.64q-.3.02-.58 0-.28 0-.5-.04a2.4 2.4 0 0 1-.8-.24 2.4 2.4 0 0 1-.52-.38q-.32.14-.86.32t-1.18.3a6.6 6.6 0 0 1-1.26.12m.64-1.98q.38 0 .8-.08t.78-.18q.38-.12.6-.22v-2.3l-2.04.18q-.66.06-.96.4-.28.32-.28.92t.26.94q.28.34.84.34m14.944 1.98q-.72 0-1.32-.18-.6-.16-1.06-.52a3.4 3.4 0 0 1-.76-.98q-.3-.6-.46-1.46a11.5 11.5 0 0 1-.16-2.04q0-1.72.42-2.9.44-1.18 1.38-1.78.94-.62 2.5-.62.3 0 .7.04.4.02.78.08.38.04.62.08v-4.08h2.68V634h-2.64l-.02-.58a8 8 0 0 1-.74.36q-.44.18-.94.3-.5.14-.98.14m.68-2.24q.36 0 .72-.08.38-.08.7-.18.34-.12.54-.22v-5.38a3 3 0 0 0-.48-.06 9 9 0 0 0-.62-.06 5 5 0 0 0-.58-.04q-.78 0-1.22.36-.42.36-.6 1.06-.18.68-.18 1.66 0 .86.12 1.44.12.56.34.9.24.32.56.46t.7.14m10.899 2.24q-1.66 0-2.64-.56-.96-.56-1.38-1.7t-.42-2.86q0-1.86.52-3.04.54-1.18 1.56-1.74 1.02-.58 2.52-.58 2.22 0 3.34 1.12 1.14 1.12 1.14 3.54l-.12 1.48h-6.28q.02 1.12.46 1.68t1.52.56q.62 0 1.36-.02l1.46-.08q.74-.04 1.26-.08l.06 1.86a51 51 0 0 1-1.26.18 27 27 0 0 1-1.58.16q-.8.08-1.52.08m-1.76-6.04h3.74q0-1.36-.44-1.9-.42-.54-1.38-.54-.64 0-1.06.24t-.64.78-.22 1.42m12.684 5.82v-13.66h2.76V634zm5.133 0v-10.04h2.66v.64q.32-.2.78-.38.459-.2.96-.34.52-.14 1-.14 1.04 0 1.72.28.7.26 1.1.86t.58 1.58q.18.96.18 2.34v5.2h-2.68v-5.06q0-1.04-.12-1.66-.12-.64-.46-.92t-1-.28a4 4 0 0 0-.76.08q-.38.06-.74.18-.34.12-.56.24V634zm14.535.24q-1.1 0-1.78-.32t-.98-1.1q-.28-.8-.28-2.22v-4.42h-1.18v-2.22h1.18v-2.66h2.66v2.66h2.56v2.22h-2.56v3.72q0 .78.06 1.22.08.44.32.62t.74.18q.141 0 .42-.02l.56-.04q.28-.02.46-.04l.08 2.14q-.3.06-.74.12-.42.06-.84.1-.4.06-.68.06m7.728-.02q-1.66 0-2.64-.56-.96-.56-1.38-1.7t-.42-2.86q0-1.86.52-3.04.54-1.18 1.56-1.74 1.02-.58 2.52-.58 2.22 0 3.34 1.12 1.14 1.12 1.14 3.54l-.12 1.48h-6.28q.02 1.12.46 1.68t1.52.56q.62 0 1.36-.02l1.46-.08q.74-.04 1.26-.08l.06 1.86q-.5.08-1.26.18a27 27 0 0 1-1.58.16 15 15 0 0 1-1.52.08m-1.76-6.04h3.74q0-1.36-.44-1.9-.42-.54-1.38-.54-.64 0-1.06.24t-.64.78-.22 1.42m12.589 10.4q-1.6 0-2.68-.24-1.06-.24-1.6-.88-.54-.62-.54-1.8 0-.52.14-.94.159-.4.48-.76.339-.36.84-.74a1.46 1.46 0 0 1-.46-.58 2.3 2.3 0 0 1-.16-.86q0-.16.14-.42a5 5 0 0 1 .34-.58q.2-.3.38-.54a2.8 2.8 0 0 1-.76-.52q-.36-.36-.6-.96-.22-.6-.22-1.54 0-1.28.48-2.04.5-.76 1.44-1.1.939-.34 2.28-.34.52 0 1.12.08t.96.16l3.26-.06v1.8l-1.52-.02q.18.24.32.62.16.36.16.9 0 1.38-.48 2.14-.46.76-1.4 1.06-.94.28-2.38.28-.16 0-.44-.02-.28-.04-.46-.06a6 6 0 0 0-.16.46q-.08.24-.08.34 0 .22.08.34.1.12.34.2.26.06.74.08.5.02 1.32.02 1.42 0 2.26.26.86.26 1.22.92t.36 1.86q0 1.78-1.26 2.62-1.24.86-3.46.86m-.14-1.98q1.24 0 1.78-.3.56-.28.56-.94 0-.52-.2-.76-.18-.24-.62-.32a9 9 0 0 0-1.2-.06q-.201 0-.48-.02a9 9 0 0 1-.58-.02q-.28 0-.52-.02a4 4 0 0 0-.32-.02 3.6 3.6 0 0 0-.46.38q-.16.18-.24.36a1.7 1.7 0 0 0-.06.48q0 .46.22.72.219.28.72.4.52.12 1.4.12m-.34-7.78q.92 0 1.3-.36.4-.38.4-1.24t-.4-1.24q-.38-.38-1.3-.38-.88 0-1.28.38-.38.38-.38 1.24t.38 1.24q.4.36 1.28.36m6.724 5.18v-10.04h2.66v1.18a7 7 0 0 1 .84-.54q.5-.3 1.08-.54.6-.26 1.14-.34v2.58a6.3 6.3 0 0 0-1.1.28q-.58.18-1.1.4-.5.22-.86.4V634zm9.729.22q-1.56 0-2.36-.78-.78-.8-.78-2.4 0-1.12.4-1.74.4-.64 1.18-.92.8-.3 1.94-.36l2.44-.22v-.6q0-.72-.36-1-.36-.3-1.06-.3-.56 0-1.3.04-.72.04-1.44.1-.7.06-1.22.12l-.08-1.88q.52-.12 1.24-.24a18 18 0 0 1 1.54-.22q.8-.08 1.48-.08 1.28 0 2.14.32t1.3 1.06q.44.72.44 1.96v4.58a.6.6 0 0 0 .3.44q.26.14.6.2l-.06 1.84h-.64q-.3.02-.58 0-.28 0-.5-.04a2.4 2.4 0 0 1-.8-.24 2.4 2.4 0 0 1-.52-.38q-.32.14-.86.32t-1.18.3a6.6 6.6 0 0 1-1.26.12m.64-1.98q.38 0 .8-.08t.78-.18q.38-.12.6-.22v-2.3l-2.04.18q-.66.06-.96.4-.28.32-.28.92t.26.94q.28.34.84.34m11.309 1.98q-1.72 0-2.7-.52-.96-.54-1.36-1.72-.38-1.18-.38-3.1 0-1.9.44-3.02.44-1.14 1.42-1.62 1-.5 2.6-.5.42 0 .98.06t1.12.16q.58.08.98.16l-.1 2.14q-.38-.04-.86-.06a23 23 0 0 0-.94-.06 8 8 0 0 0-.72-.04q-.86 0-1.36.28-.48.26-.68.88-.18.6-.18 1.62 0 1.1.18 1.76t.64.94q.48.28 1.4.28.28 0 .74-.02l.94-.08q.5-.04.88-.06l.08 2.14q-.4.08-.96.16-.56.1-1.14.16-.56.06-1.02.06m.34 4.24q-.58 0-1.16-.06a5.5 5.5 0 0 1-.88-.12l.06-1.2q.12.02.52.02.42.02.66.02.42 0 .62-.16.2-.14.2-.46 0-.34-.2-.46-.2-.1-.62-.1h-.58v-2.04h1.08v.94q.84 0 1.38.14t.8.48q.26.36.26 1.04 0 1.04-.58 1.5-.56.46-1.56.46m7.125-4.24q-1.56 0-2.36-.78-.78-.8-.78-2.4 0-1.12.4-1.74.4-.64 1.18-.92.8-.3 1.94-.36l2.44-.22v-.6q0-.72-.36-1-.36-.3-1.06-.3-.56 0-1.3.04-.72.04-1.44.1-.7.06-1.22.12l-.08-1.88q.52-.12 1.24-.24a18 18 0 0 1 1.54-.22q.8-.08 1.48-.08 1.28 0 2.14.32t1.3 1.06q.44.72.44 1.96v4.58a.6.6 0 0 0 .3.44q.26.14.6.2l-.06 1.84h-.64q-.3.02-.58 0-.28 0-.5-.04a2.4 2.4 0 0 1-.8-.24 2.4 2.4 0 0 1-.52-.38q-.32.14-.86.32t-1.18.3a6.6 6.6 0 0 1-1.26.12m.64-1.98q.38 0 .8-.08t.78-.18q.38-.12.6-.22v-2.3l-2.04.18q-.66.06-.96.4-.28.32-.28.92t.26.94q.28.34.84.34m2.12-9.98q-.32 0-.72-.12a10 10 0 0 1-.8-.32 16 16 0 0 0-.76-.32 1.6 1.6 0 0 0-.58-.14q-.28 0-.74.28a8 8 0 0 0-.78.52l-.44-1.5q.24-.24.56-.5t.68-.44q.38-.2.7-.2.36 0 .76.14t.78.32q.4.16.74.3t.56.14q.24 0 .7-.26t.78-.52l.46 1.52q-.22.24-.54.5t-.68.44a1.6 1.6 0 0 1-.68.16m9.409 11.96q-1.7 0-2.74-.56-1.02-.56-1.48-1.72-.46-1.18-.46-3.04 0-1.8.48-2.92.48-1.14 1.52-1.68 1.04-.56 2.68-.56 1.66 0 2.68.56 1.04.54 1.52 1.68.5 1.12.5 2.92 0 1.86-.46 3.04-.46 1.16-1.5 1.72-1.02.56-2.74.56m0-2.2q.84 0 1.26-.3.42-.32.56-1 .16-.7.16-1.82 0-1.1-.18-1.74-.18-.66-.6-.94t-1.2-.28q-.76 0-1.2.28-.42.28-.6.94-.18.64-.18 1.74 0 1.12.14 1.82.16.68.58 1 .42.3 1.26.3"/>
    <path fill="#4c4c4c" d="m88.904 659-4.34-9.8h1.12l4.06 9.226h-.617l4.089-9.226h1.05l-4.34 9.8zm6.287 0v-7.35h.994V659zm-.406-8.498 1.918-1.736h1.33l-2.268 1.736zm7.091 8.568q-1.05 0-1.89-.476a3.46 3.46 0 0 1-1.302-1.316q-.475-.854-.475-1.96 0-1.12.475-1.96.477-.84 1.303-1.302.839-.476 1.889-.476.966 0 1.722.434.771.434 1.218 1.274.462.826.462 2.03 0 1.19-.448 2.03-.447.84-1.218 1.288-.755.434-1.736.434m.07-.882q.785 0 1.4-.35.63-.364.98-1.008.364-.659.364-1.512 0-.869-.364-1.512a2.45 2.45 0 0 0-.98-.994 2.7 2.7 0 0 0-1.4-.364q-.77 0-1.386.364-.615.35-.98.994-.364.643-.364 1.512 0 .853.365 1.512.364.644.979 1.008.617.35 1.386.35m2.772.812v-2.212l.098-1.484-.14-1.484v-5.208h.994V659zm6.843.07q-1.149 0-2.016-.476a3.57 3.57 0 0 1-1.358-1.33q-.49-.854-.49-1.946t.462-1.932q.475-.84 1.288-1.316a3.55 3.55 0 0 1 1.848-.49q1.035 0 1.834.476a3.27 3.27 0 0 1 1.274 1.316q.462.84.462 1.946a1 1 0 0 1-.014.154v.154h-6.398v-.742h5.866l-.392.294q0-.798-.35-1.414a2.46 2.46 0 0 0-.924-.98q-.588-.35-1.358-.35-.756 0-1.358.35t-.938.98-.336 1.442v.154q0 .84.364 1.484.378.63 1.036.994.672.35 1.526.35.672 0 1.246-.238a2.6 2.6 0 0 0 1.008-.728l.56.644a3.15 3.15 0 0 1-1.232.896 4.1 4.1 0 0 1-1.61.308m8.323 0q-1.064 0-1.918-.476a3.64 3.64 0 0 1-1.33-1.33q-.49-.854-.49-1.946 0-1.106.49-1.946a3.53 3.53 0 0 1 1.33-1.316q.84-.476 1.918-.476 1.092 0 1.932.476a3.4 3.4 0 0 1 1.33 1.316q.49.84.49 1.946 0 1.092-.49 1.946a3.5 3.5 0 0 1-1.33 1.33q-.853.476-1.932.476m0-.882q.798 0 1.414-.35.617-.364.966-1.008.364-.659.364-1.512 0-.869-.364-1.512a2.47 2.47 0 0 0-.966-.994 2.7 2.7 0 0 0-1.4-.364q-.784 0-1.4.364a2.57 2.57 0 0 0-.98.994q-.364.643-.364 1.512 0 .853.364 1.512.364.644.98 1.008.617.35 1.386.35m7.755.882q-.909 0-1.722-.252-.812-.266-1.274-.658l.448-.784q.449.336 1.148.588a4.5 4.5 0 0 0 1.47.238q1.05 0 1.512-.322.462-.336.462-.882 0-.407-.266-.63a1.53 1.53 0 0 0-.672-.35 7 7 0 0 0-.938-.21q-.517-.084-1.036-.196a4 4 0 0 1-.924-.322 1.95 1.95 0 0 1-.686-.602q-.252-.378-.252-1.008 0-.602.336-1.078t.98-.742q.658-.28 1.596-.28.714 0 1.428.196.714.182 1.176.49l-.434.798a3.2 3.2 0 0 0-1.05-.476 4.2 4.2 0 0 0-1.12-.154q-.993 0-1.47.35-.462.336-.462.868 0 .42.252.658.266.238.686.378.435.126.938.21.518.084 1.022.21.518.112.938.322.434.196.686.574.266.365.266.966 0 .644-.364 1.12-.35.462-1.036.728-.672.252-1.638.252m4.26 1.974.616-2.59.112.602a.77.77 0 0 1-.546-.21.74.74 0 0 1-.21-.546q0-.336.21-.546.225-.21.532-.21.323 0 .518.224.21.224.21.532 0 .112-.014.224a1.5 1.5 0 0 1-.056.252 7 7 0 0 1-.112.336l-.588 1.932zm9.557-1.974q-1.037 0-1.596-.56t-.56-1.582v-6.902h.994v6.846q0 .644.322.994.336.35.952.35.658 0 1.092-.378l.35.714a1.8 1.8 0 0 1-.714.392 2.8 2.8 0 0 1-.84.126m-3.472-6.594v-.826h4.55v.826zm9.874 6.594q-.939 0-1.638-.35a2.5 2.5 0 0 1-1.092-1.05q-.378-.7-.378-1.75v-4.27h.994v4.158q0 1.176.574 1.778.588.588 1.638.588.77 0 1.33-.308.574-.322.868-.924.308-.602.308-1.442v-3.85h.994V659h-.952v-2.016l.154.364a2.75 2.75 0 0 1-1.092 1.274q-.729.448-1.708.448m8.692 0q-1.037 0-1.596-.56t-.56-1.582v-6.902h.994v6.846q0 .644.322.994.336.35.952.35.658 0 1.092-.378l.35.714a1.8 1.8 0 0 1-.714.392 2.8 2.8 0 0 1-.84.126m-3.472-6.594v-.826h4.55v.826zm9.572 6.594q-1.065 0-1.918-.476a3.63 3.63 0 0 1-1.33-1.33q-.49-.854-.49-1.946 0-1.106.49-1.946t1.33-1.316 1.918-.476q1.092 0 1.932.476a3.4 3.4 0 0 1 1.33 1.316q.49.84.49 1.946 0 1.092-.49 1.946a3.5 3.5 0 0 1-1.33 1.33q-.855.476-1.932.476m0-.882q.798 0 1.414-.35.615-.364.966-1.008.363-.659.364-1.512 0-.869-.364-1.512a2.5 2.5 0 0 0-.966-.994 2.7 2.7 0 0 0-1.4-.364q-.785 0-1.4.364a2.57 2.57 0 0 0-.98.994q-.364.643-.364 1.512 0 .853.364 1.512.363.644.98 1.008.615.35 1.386.35m5.781.812v-7.35h.952v2.002l-.098-.35q.308-.84 1.036-1.274.727-.448 1.806-.448v.966h-.112a.5.5 0 0 0-.112-.014q-1.162 0-1.82.714-.658.7-.658 2.002V659zm5.51 0v-7.35h.994V659zm.504-8.974a.7.7 0 0 1-.518-.21.69.69 0 0 1-.21-.504q0-.294.21-.49.21-.21.518-.21a.73.73 0 0 1 .518.196q.21.196.21.49 0 .308-.21.518a.68.68 0 0 1-.518.21m7.861 8.974v-1.624l-.042-.266v-2.716q0-.938-.532-1.442-.517-.504-1.554-.504a3.9 3.9 0 0 0-1.358.238 3.5 3.5 0 0 0-1.092.63l-.448-.742a3.9 3.9 0 0 1 1.344-.728 5.1 5.1 0 0 1 1.652-.266q1.428 0 2.198.714.784.7.784 2.142V659zm-2.534.07q-.825 0-1.442-.266-.602-.28-.924-.756a2 2 0 0 1-.322-1.12q0-.574.266-1.036.28-.476.896-.756.63-.294 1.68-.294h2.534v.742h-2.506q-1.064 0-1.484.378-.406.378-.406.938 0 .63.49 1.008t1.372.378q.84 0 1.442-.378.617-.392.896-1.12l.224.686a2.32 2.32 0 0 1-.98 1.162q-.686.434-1.736.434m6.186-.07v-7.35h.994V659zm.504-8.974a.7.7 0 0 1-.518-.21.69.69 0 0 1-.21-.504q0-.294.21-.49.21-.21.518-.21t.518.196.21.49q0 .308-.21.518a.67.67 0 0 1-.518.21m5.23 9.044a5.8 5.8 0 0 1-1.722-.252q-.812-.266-1.274-.658l.448-.784q.448.336 1.148.588a4.5 4.5 0 0 0 1.47.238q1.05 0 1.512-.322.462-.336.462-.882 0-.407-.266-.63a1.53 1.53 0 0 0-.672-.35 7 7 0 0 0-.938-.21 20 20 0 0 1-1.036-.196 4 4 0 0 1-.924-.322 1.94 1.94 0 0 1-.686-.602q-.252-.378-.252-1.008 0-.602.336-1.078t.98-.742q.658-.28 1.596-.28.714 0 1.428.196.714.182 1.176.49l-.434.798a3.2 3.2 0 0 0-1.05-.476 4.2 4.2 0 0 0-1.12-.154q-.995 0-1.47.35-.462.336-.462.868 0 .42.252.658.266.238.686.378.434.126.938.21.518.084 1.022.21.518.112.938.322.434.196.686.574.266.365.266.966 0 .644-.364 1.12-.35.462-1.036.728-.672.252-1.638.252m11.648 0q-1.148 0-2.016-.476a3.6 3.6 0 0 1-1.358-1.33q-.49-.854-.49-1.946t.462-1.932q.476-.84 1.288-1.316a3.55 3.55 0 0 1 1.848-.49q1.036 0 1.834.476a3.27 3.27 0 0 1 1.274 1.316q.462.84.462 1.946a1 1 0 0 1-.014.154v.154h-6.398v-.742h5.866l-.392.294q0-.798-.35-1.414a2.46 2.46 0 0 0-.924-.98q-.588-.35-1.358-.35-.756 0-1.358.35t-.938.98-.336 1.442v.154q0 .84.364 1.484.378.63 1.036.994.672.35 1.526.35.672 0 1.246-.238a2.6 2.6 0 0 0 1.008-.728l.56.644a3.14 3.14 0 0 1-1.232.896 4.1 4.1 0 0 1-1.61.308m10.489-.07-2.772-7.35h.952l2.52 6.818h-.434l2.59-6.818h.854l2.562 6.818h-.434l2.562-6.818h.91l-2.786 7.35h-.938l-2.464-6.412h.294L214.767 659zm13.724.07q-1.148 0-2.016-.476a3.6 3.6 0 0 1-1.358-1.33q-.49-.854-.49-1.946t.462-1.932q.476-.84 1.288-1.316a3.55 3.55 0 0 1 1.848-.49q1.036 0 1.834.476a3.27 3.27 0 0 1 1.274 1.316q.462.84.462 1.946a1 1 0 0 1-.014.154v.154h-6.398v-.742h5.866l-.392.294q0-.798-.35-1.414a2.46 2.46 0 0 0-.924-.98q-.588-.35-1.358-.35-.756 0-1.358.35t-.938.98-.336 1.442v.154q0 .84.364 1.484.378.63 1.036.994.672.35 1.526.35.672 0 1.246-.238a2.6 2.6 0 0 0 1.008-.728l.56.644a3.14 3.14 0 0 1-1.232.896 4.1 4.1 0 0 1-1.61.308m9.121 0a3.5 3.5 0 0 1-1.736-.434 3.2 3.2 0 0 1-1.218-1.288q-.448-.84-.448-2.03 0-1.204.448-2.03.462-.84 1.232-1.274a3.45 3.45 0 0 1 1.722-.434q1.05 0 1.876.476.84.462 1.316 1.302t.476 1.96q0 1.106-.476 1.96-.476.84-1.316 1.316-.826.476-1.876.476m-3.794-.07v-10.388h.994v5.208l-.14 1.484.098 1.484V659zm3.724-.812q.784 0 1.4-.35a2.7 2.7 0 0 0 .98-1.008q.364-.659.364-1.512 0-.869-.364-1.512a2.57 2.57 0 0 0-.98-.994 2.7 2.7 0 0 0-1.4-.364 2.77 2.77 0 0 0-1.414.364 2.57 2.57 0 0 0-.98.994q-.35.643-.35 1.512 0 .853.35 1.512.364.644.98 1.008.63.35 1.414.35m5.764.812v-7.35h.994V659zm.504-8.974a.7.7 0 0 1-.518-.21.69.69 0 0 1-.21-.504q0-.294.21-.49.21-.21.518-.21t.518.196.21.49q0 .308-.21.518a.67.67 0 0 1-.518.21m7.008 1.554q.897 0 1.568.35.687.336 1.064 1.036.392.7.392 1.764V659h-.994v-4.172q0-1.162-.588-1.75-.574-.602-1.624-.602-.784 0-1.372.322a2.17 2.17 0 0 0-.896.91q-.308.588-.308 1.428V659h-.994v-7.35h.952v2.016l-.154-.378a2.64 2.64 0 0 1 1.12-1.246q.77-.462 1.834-.462m10.315 7.42v-1.624l-.042-.266v-2.716q0-.938-.532-1.442-.518-.504-1.554-.504-.714 0-1.358.238a3.5 3.5 0 0 0-1.092.63l-.448-.742q.56-.476 1.344-.728a5.1 5.1 0 0 1 1.652-.266q1.428 0 2.198.714.784.7.784 2.142V659zm-2.534.07q-.826 0-1.442-.266-.601-.28-.924-.756a2 2 0 0 1-.322-1.12q0-.574.266-1.036.28-.476.896-.756.63-.294 1.68-.294h2.534v.742h-2.506q-1.064 0-1.484.378a1.23 1.23 0 0 0-.406.938q0 .63.49 1.008t1.372.378q.84 0 1.442-.378.616-.392.896-1.12l.224.686a2.33 2.33 0 0 1-.98 1.162q-.686.434-1.736.434m6.186-.07v-7.35h.952v2.002l-.098-.35q.308-.84 1.036-1.274.728-.448 1.806-.448v.966h-.112a.5.5 0 0 0-.112-.014q-1.162 0-1.82.714-.658.7-.658 2.002V659zm7.566.07a5.8 5.8 0 0 1-1.722-.252q-.812-.266-1.274-.658l.448-.784q.447.336 1.148.588a4.5 4.5 0 0 0 1.47.238q1.05 0 1.512-.322.462-.336.462-.882 0-.407-.266-.63a1.53 1.53 0 0 0-.672-.35 7 7 0 0 0-.938-.21 20 20 0 0 1-1.036-.196 4 4 0 0 1-.924-.322 1.94 1.94 0 0 1-.686-.602q-.252-.378-.252-1.008 0-.602.336-1.078t.98-.742q.657-.28 1.596-.28.714 0 1.428.196.714.182 1.176.49l-.434.798a3.2 3.2 0 0 0-1.05-.476 4.2 4.2 0 0 0-1.12-.154q-.995 0-1.47.35-.462.336-.462.868 0 .42.252.658.266.238.686.378.434.126.938.21.518.084 1.022.21.518.112.938.322.434.196.686.574.266.365.266.966 0 .644-.364 1.12-.35.462-1.036.728-.672.252-1.638.252m12.32 0a3.45 3.45 0 0 1-1.722-.434 3.3 3.3 0 0 1-1.232-1.274q-.448-.84-.448-2.044t.448-2.03q.447-.84 1.218-1.274a3.5 3.5 0 0 1 1.736-.434q1.05 0 1.876.476.84.462 1.316 1.316.476.84.476 1.946 0 1.12-.476 1.96a3.43 3.43 0 0 1-1.316 1.316q-.826.476-1.876.476m-3.794 2.646V651.65h.952v2.212l-.098 1.47.14 1.484v4.9zm3.724-3.528a2.8 2.8 0 0 0 1.4-.35q.615-.364.98-1.008.364-.659.364-1.512 0-.854-.364-1.498a2.7 2.7 0 0 0-.98-1.008 2.7 2.7 0 0 0-1.4-.364 2.77 2.77 0 0 0-1.414.364 2.7 2.7 0 0 0-.98 1.008q-.35.644-.35 1.498 0 .853.35 1.512.363.644.98 1.008.63.35 1.414.35m10.329.812v-1.624l-.042-.266v-2.716q0-.938-.532-1.442-.518-.504-1.554-.504-.714 0-1.358.238a3.5 3.5 0 0 0-1.092.63l-.448-.742q.56-.476 1.344-.728a5.1 5.1 0 0 1 1.652-.266q1.428 0 2.198.714.784.7.784 2.142V659zm-2.534.07q-.826 0-1.442-.266-.602-.28-.924-.756a2 2 0 0 1-.322-1.12q0-.574.266-1.036.28-.476.896-.756.63-.294 1.68-.294h2.534v.742h-2.506q-1.064 0-1.484.378a1.23 1.23 0 0 0-.406.938q0 .63.49 1.008t1.372.378q.84 0 1.442-.378.616-.392.896-1.12l.224.686a2.33 2.33 0 0 1-.98 1.162q-.686.434-1.736.434m6.186-.07v-7.35h.952v2.002l-.098-.35q.307-.84 1.036-1.274.727-.448 1.806-.448v.966h-.112a.5.5 0 0 0-.112-.014q-1.163 0-1.82.714-.658.7-.658 2.002V659zm9.569 0v-1.624l-.042-.266v-2.716q0-.938-.532-1.442-.519-.504-1.554-.504-.714 0-1.358.238-.645.239-1.092.63l-.448-.742q.56-.476 1.344-.728a5.1 5.1 0 0 1 1.652-.266q1.428 0 2.198.714.784.7.784 2.142V659zm-2.534.07q-.827 0-1.442-.266-.603-.28-.924-.756a2 2 0 0 1-.322-1.12q0-.574.266-1.036.28-.476.896-.756.63-.294 1.68-.294h2.534v.742h-2.506q-1.064 0-1.484.378a1.23 1.23 0 0 0-.406.938q0 .63.49 1.008t1.372.378q.84 0 1.442-.378.615-.392.896-1.12l.224.686a2.33 2.33 0 0 1-.98 1.162q-.687.434-1.736.434M124.898 679v-1.624l-.042-.266v-2.716q0-.938-.532-1.442-.517-.504-1.554-.504a3.9 3.9 0 0 0-1.358.238 3.5 3.5 0 0 0-1.092.63l-.448-.742a3.9 3.9 0 0 1 1.344-.728 5.1 5.1 0 0 1 1.652-.266q1.428 0 2.198.714.784.7.784 2.142V679zm-2.534.07q-.825 0-1.442-.266-.601-.28-.924-.756a2 2 0 0 1-.322-1.12q0-.574.266-1.036.28-.476.896-.756.63-.294 1.68-.294h2.534v.742h-2.506q-1.064 0-1.484.378-.406.378-.406.938 0 .63.49 1.008t1.372.378q.84 0 1.442-.378.617-.392.896-1.12l.224.686a2.32 2.32 0 0 1-.98 1.162q-.686.434-1.736.434m8.16 0a5.8 5.8 0 0 1-1.722-.252q-.812-.266-1.274-.658l.448-.784q.448.336 1.148.588a4.5 4.5 0 0 0 1.47.238q1.05 0 1.512-.322.462-.336.462-.882 0-.407-.266-.63a1.53 1.53 0 0 0-.672-.35 7 7 0 0 0-.938-.21 20 20 0 0 1-1.036-.196 4 4 0 0 1-.924-.322 1.94 1.94 0 0 1-.686-.602q-.252-.378-.252-1.008 0-.602.336-1.078t.98-.742q.659-.28 1.596-.28.714 0 1.428.196.714.182 1.176.49l-.434.798a3.2 3.2 0 0 0-1.05-.476 4.2 4.2 0 0 0-1.12-.154q-.995 0-1.47.35-.462.336-.462.868 0 .42.252.658.266.238.686.378.434.126.938.21.518.084 1.022.21.518.112.938.322.434.196.686.574.266.365.266.966 0 .644-.364 1.12-.35.462-1.036.728-.672.252-1.638.252m6.836 0a5.8 5.8 0 0 1-1.722-.252q-.812-.266-1.274-.658l.448-.784q.448.336 1.148.588a4.5 4.5 0 0 0 1.47.238q1.05 0 1.512-.322.462-.336.462-.882 0-.407-.266-.63a1.53 1.53 0 0 0-.672-.35 7 7 0 0 0-.938-.21 20 20 0 0 1-1.036-.196 4 4 0 0 1-.924-.322 1.94 1.94 0 0 1-.686-.602q-.252-.378-.252-1.008 0-.602.336-1.078t.98-.742q.658-.28 1.596-.28.714 0 1.428.196.714.182 1.176.49l-.434.798a3.2 3.2 0 0 0-1.05-.476 4.2 4.2 0 0 0-1.12-.154q-.995 0-1.47.35-.462.336-.462.868 0 .42.252.658.266.238.686.378.434.126.938.21.518.084 1.022.21.518.112.938.322.434.196.686.574.266.365.266.966 0 .644-.364 1.12-.35.462-1.036.728-.672.252-1.638.252m4.862-.07v-7.35h.994V679zm.504-8.974a.7.7 0 0 1-.518-.21.69.69 0 0 1-.21-.504q0-.294.21-.49.21-.21.518-.21a.73.73 0 0 1 .518.196q.21.196.21.49 0 .308-.21.518a.68.68 0 0 1-.518.21m5.23 9.044a5.8 5.8 0 0 1-1.722-.252q-.813-.266-1.274-.658l.448-.784q.447.336 1.148.588a4.5 4.5 0 0 0 1.47.238q1.05 0 1.512-.322.462-.336.462-.882 0-.407-.266-.63a1.53 1.53 0 0 0-.672-.35 7 7 0 0 0-.938-.21 20 20 0 0 1-1.036-.196 4 4 0 0 1-.924-.322 1.94 1.94 0 0 1-.686-.602q-.252-.378-.252-1.008 0-.602.336-1.078t.98-.742q.657-.28 1.596-.28.714 0 1.428.196.714.182 1.176.49l-.434.798a3.2 3.2 0 0 0-1.05-.476 4.2 4.2 0 0 0-1.12-.154q-.995 0-1.47.35-.462.336-.462.868 0 .42.252.658.266.238.686.378.434.126.938.21.518.084 1.022.21.518.112.938.322.434.196.686.574.266.365.266.966 0 .644-.364 1.12-.35.462-1.036.728-.672.252-1.638.252m7.186 0q-1.037 0-1.596-.56t-.56-1.582v-6.902h.994v6.846q0 .644.322.994.336.35.952.35.657 0 1.092-.378l.35.714a1.8 1.8 0 0 1-.714.392 2.8 2.8 0 0 1-.84.126m-3.472-6.594v-.826h4.55v.826zm6.835 6.524v-7.35h.994V679zm.504-8.974a.7.7 0 0 1-.518-.21.69.69 0 0 1-.21-.504q0-.294.21-.49.21-.21.518-.21a.73.73 0 0 1 .518.196q.21.196.21.49 0 .308-.21.518a.68.68 0 0 1-.518.21m3.256 8.974v-7.35h.952v2.002l-.098-.35q.308-.84 1.036-1.274.728-.448 1.806-.448v.966h-.112a.5.5 0 0 0-.112-.014q-1.162 0-1.82.714-.658.7-.658 2.002V679zm12.209.07q-1.05 0-1.89-.476a3.45 3.45 0 0 1-1.302-1.316q-.476-.84-.476-1.96 0-1.106.476-1.946a3.33 3.33 0 0 1 1.302-1.316 3.77 3.77 0 0 1 1.89-.476q.98 0 1.736.434.77.434 1.218 1.274.448.826.448 2.03t-.462 2.044a3.2 3.2 0 0 1-1.218 1.274q-.756.434-1.722.434m.07-.882q.784 0 1.4-.35.63-.364.98-1.008.364-.659.364-1.512 0-.854-.364-1.498a2.55 2.55 0 0 0-.98-1.008 2.7 2.7 0 0 0-1.4-.364q-.77 0-1.386.364a2.7 2.7 0 0 0-.98 1.008q-.364.644-.364 1.498 0 .853.364 1.512.364.644.98 1.008.617.35 1.386.35m2.73 3.528v-4.9l.14-1.484-.098-1.47v-2.212h.952v10.066zm6.8-2.646q-.937 0-1.638-.35a2.53 2.53 0 0 1-1.092-1.05q-.378-.7-.378-1.75v-4.27h.994v4.158q0 1.176.574 1.778.588.588 1.638.588.77 0 1.33-.308.574-.322.868-.924.308-.602.308-1.442v-3.85h.994V679h-.952v-2.016l.154.364a2.74 2.74 0 0 1-1.092 1.274q-.727.448-1.708.448m10.975-.07v-1.624l-.042-.266v-2.716q0-.938-.532-1.442-.519-.504-1.554-.504-.714 0-1.358.238-.645.239-1.092.63l-.448-.742q.56-.476 1.344-.728a5.1 5.1 0 0 1 1.652-.266q1.428 0 2.198.714.784.7.784 2.142V679zm-2.534.07q-.827 0-1.442-.266-.603-.28-.924-.756a2 2 0 0 1-.322-1.12q0-.574.266-1.036.28-.476.896-.756.63-.294 1.68-.294h2.534v.742h-2.506q-1.064 0-1.484.378a1.23 1.23 0 0 0-.406.938q0 .63.49 1.008t1.372.378q.84 0 1.442-.378.615-.392.896-1.12l.224.686a2.33 2.33 0 0 1-.98 1.162q-.686.434-1.736.434m9.937-7.49q.897 0 1.568.35.686.336 1.064 1.036.392.7.392 1.764V679h-.994v-4.172q0-1.162-.588-1.75-.573-.602-1.624-.602-.783 0-1.372.322a2.17 2.17 0 0 0-.896.91q-.308.588-.308 1.428V679h-.994v-7.35h.952v2.016l-.154-.378a2.64 2.64 0 0 1 1.12-1.246q.77-.462 1.834-.462m8.635 7.49q-1.05 0-1.89-.476a3.47 3.47 0 0 1-1.302-1.316q-.476-.854-.476-1.96 0-1.12.476-1.96.477-.84 1.302-1.302a3.77 3.77 0 0 1 1.89-.476q.966 0 1.722.434.771.434 1.218 1.274.462.826.462 2.03 0 1.19-.448 2.03-.447.84-1.218 1.288-.755.434-1.736.434m.07-.882q.785 0 1.4-.35.63-.364.98-1.008.364-.659.364-1.512 0-.869-.364-1.512a2.45 2.45 0 0 0-.98-.994 2.7 2.7 0 0 0-1.4-.364q-.77 0-1.386.364a2.6 2.6 0 0 0-.98.994q-.363.643-.364 1.512 0 .853.364 1.512.365.644.98 1.008.617.35 1.386.35m2.772.812v-2.212l.098-1.484-.14-1.484v-5.208h.994V679zm6.717.07q-1.065 0-1.918-.476a3.63 3.63 0 0 1-1.33-1.33q-.49-.854-.49-1.946 0-1.106.49-1.946t1.33-1.316 1.918-.476q1.092 0 1.932.476a3.4 3.4 0 0 1 1.33 1.316q.49.84.49 1.946 0 1.092-.49 1.946a3.5 3.5 0 0 1-1.33 1.33q-.855.476-1.932.476m0-.882q.798 0 1.414-.35.615-.364.966-1.008.363-.659.364-1.512 0-.869-.364-1.512a2.5 2.5 0 0 0-.966-.994 2.7 2.7 0 0 0-1.4-.364q-.785 0-1.4.364a2.57 2.57 0 0 0-.98.994q-.364.643-.364 1.512 0 .853.364 1.512.363.644.98 1.008.615.35 1.386.35m12.371.882q-1.05 0-1.89-.476a3.45 3.45 0 0 1-1.302-1.316q-.476-.84-.476-1.96 0-1.106.476-1.946a3.33 3.33 0 0 1 1.302-1.316 3.77 3.77 0 0 1 1.89-.476q.98 0 1.736.434.77.434 1.218 1.274.448.826.448 2.03t-.462 2.044a3.2 3.2 0 0 1-1.218 1.274q-.756.434-1.722.434m.07-.882q.784 0 1.4-.35.63-.364.98-1.008.364-.659.364-1.512 0-.854-.364-1.498a2.55 2.55 0 0 0-.98-1.008 2.7 2.7 0 0 0-1.4-.364q-.77 0-1.386.364a2.7 2.7 0 0 0-.98 1.008q-.364.644-.364 1.498 0 .853.364 1.512.364.644.98 1.008.617.35 1.386.35m2.73 3.528v-4.9l.14-1.484-.098-1.47v-2.212h.952v10.066zm6.8-2.646q-.937 0-1.638-.35a2.53 2.53 0 0 1-1.092-1.05q-.378-.7-.378-1.75v-4.27h.994v4.158q0 1.176.574 1.778.588.588 1.638.588.77 0 1.33-.308.574-.322.868-.924.308-.602.308-1.442v-3.85h.994V679h-.952v-2.016l.154.364a2.74 2.74 0 0 1-1.092 1.274q-.727.448-1.708.448m6.369-.07v-7.35h.994V679zm.504-8.974a.7.7 0 0 1-.518-.21.69.69 0 0 1-.21-.504q0-.294.21-.49.21-.21.518-.21a.73.73 0 0 1 .518.196q.21.196.21.49 0 .308-.21.518a.68.68 0 0 1-.518.21m5.229 9.044q-.909 0-1.722-.252-.812-.266-1.274-.658l.448-.784q.449.336 1.148.588a4.5 4.5 0 0 0 1.47.238q1.05 0 1.512-.322.462-.336.462-.882 0-.407-.266-.63a1.53 1.53 0 0 0-.672-.35 7 7 0 0 0-.938-.21q-.517-.084-1.036-.196a4 4 0 0 1-.924-.322 1.95 1.95 0 0 1-.686-.602q-.252-.378-.252-1.008 0-.602.336-1.078t.98-.742q.658-.28 1.596-.28.714 0 1.428.196.714.182 1.176.49l-.434.798a3.2 3.2 0 0 0-1.05-.476 4.2 4.2 0 0 0-1.12-.154q-.993 0-1.47.35-.462.336-.462.868 0 .42.252.658.267.238.686.378.434.126.938.21.519.084 1.022.21.518.112.938.322.435.196.686.574.266.365.266.966 0 .644-.364 1.12-.35.462-1.036.728-.672.252-1.638.252m7.984 0q-1.148 0-2.016-.476a3.6 3.6 0 0 1-1.358-1.33q-.49-.854-.49-1.946t.462-1.932q.477-.84 1.288-1.316a3.55 3.55 0 0 1 1.848-.49q1.036 0 1.834.476.812.462 1.274 1.316.462.84.462 1.946a1 1 0 0 1-.014.154v.154h-6.398v-.742h5.866l-.392.294q0-.798-.35-1.414a2.46 2.46 0 0 0-.924-.98q-.588-.35-1.358-.35-.755 0-1.358.35-.602.35-.938.98t-.336 1.442v.154q0 .84.364 1.484.379.63 1.036.994.672.35 1.526.35.672 0 1.246-.238a2.6 2.6 0 0 0 1.008-.728l.56.644a3.13 3.13 0 0 1-1.232.896 4.1 4.1 0 0 1-1.61.308m5.328-.07v-7.35h.952v2.002l-.098-.35q.307-.84 1.036-1.274.728-.448 1.806-.448v.966h-.112a.5.5 0 0 0-.112-.014q-1.163 0-1.82.714-.658.7-.658 2.002V679zm5.58.07a.73.73 0 0 1-.532-.224.77.77 0 0 1-.21-.546q0-.336.21-.546a.75.75 0 0 1 .532-.21q.308 0 .518.21.224.21.224.546a.74.74 0 0 1-.224.546.68.68 0 0 1-.518.224"/>
    <circle cx="145" cy="720" r="4" fill="#ecf1f8"/>
    <circle cx="161" cy="720" r="4" fill="#ecf1f8"/>
    <circle cx="177" cy="720" r="4" fill="#ecf1f8"/>
    <rect width="16" height="8" x="189" y="716" fill="#2d77e3" rx="4"/>
    <circle cx="217" cy="720" r="4" fill="#ecf1f8"/>
    <circle cx="233" cy="720" r="4" fill="#ecf1f8"/>
    <circle cx="249" cy="720" r="4" fill="#ecf1f8"/>
    <g filter="url(#b)">
      <rect width="361" height="48" x="16" y="756" fill="#2d77e3" rx="12"/>
      <path fill="#fff" d="M167.944 786.176q-1.28 0-2.112-.32a2.87 2.87 0 0 1-1.296-1.024q-.48-.688-.672-1.744-.176-1.072-.176-2.544 0-1.488.176-2.544.192-1.072.672-1.76t1.312-1.024q.847-.336 2.16-.336.528 0 1.104.064t1.104.16q.544.08.928.176l-.064 1.76a8 8 0 0 0-.8-.112 14.72 14.72 0 0 0-1.904-.128q-.768 0-1.248.192t-.752.64q-.256.448-.352 1.168a13 13 0 0 0-.096 1.744q0 1.024.096 1.744.096.703.352 1.152.256.432.736.64.496.192 1.28.192.64 0 1.408-.064.785-.08 1.296-.144l.048 1.744q-.384.08-.912.176-.528.08-1.12.128-.592.064-1.168.064m7.892 0q-1.36 0-2.192-.448-.816-.448-1.184-1.376-.368-.944-.368-2.432 0-1.44.384-2.336.384-.912 1.216-1.344.832-.448 2.144-.448 1.328 0 2.144.448.832.432 1.216 1.344.4.896.4 2.336 0 1.488-.368 2.432-.368.928-1.2 1.376-.816.448-2.192.448m0-1.76q.672 0 1.008-.24.336-.256.448-.8.128-.56.128-1.456 0-.88-.144-1.392-.144-.528-.48-.752t-.96-.224q-.607 0-.96.224-.336.224-.48.752-.144.511-.144 1.392 0 .896.112 1.456.128.544.464.8.336.24 1.008.24m5.216 1.584v-8.032h2.128v.512q.257-.16.624-.304.368-.16.768-.272.416-.112.8-.112.832 0 1.376.224.56.208.88.688t.464 1.264q.144.768.144 1.872V786h-2.144v-4.048q0-.832-.096-1.328-.096-.512-.368-.736t-.8-.224q-.288 0-.608.064-.304.048-.592.144a3 3 0 0 0-.448.192V786zm11.628.192q-.88 0-1.424-.256t-.784-.88q-.224-.64-.224-1.776v-3.536h-.944v-1.776h.944v-2.128h2.128v2.128h2.048v1.776h-2.048v2.976q0 .624.048.976.064.352.256.496t.592.144q.112 0 .336-.016l.448-.032q.225-.016.368-.032l.064 1.712q-.24.048-.592.096-.336.048-.672.08a4 4 0 0 1-.544.048m2.934-.192v-8.032h2.128V786zm0-9.312v-1.824h2.144v1.824zm3.907 9.312v-8.032h2.128v.512a3.7 3.7 0 0 1 .624-.304q.367-.16.768-.272.416-.112.8-.112.831 0 1.376.224.56.208.88.688t.464 1.264q.144.768.144 1.872V786h-2.144v-4.048q0-.832-.096-1.328-.096-.512-.368-.736t-.8-.224q-.288 0-.608.064-.304.048-.592.144a3 3 0 0 0-.448.192V786zm11.403.176q-1.04 0-1.616-.432-.56-.449-.8-1.344-.224-.895-.224-2.256v-4.176h2.128v4.08q0 .847.08 1.344.096.496.368.704.273.208.784.208.496 0 .928-.128t.688-.256v-5.952h2.128V786h-2.112v-.496a7 7 0 0 1-1.088.496q-.528.176-1.264.176m8.318 0q-1.248 0-1.888-.624-.624-.64-.624-1.92 0-.895.32-1.392.32-.512.944-.736.64-.24 1.552-.288l1.952-.176v-.48q0-.576-.288-.8-.288-.24-.848-.24-.449 0-1.04.032a41 41 0 0 0-2.128.176l-.064-1.504q.416-.096.992-.192.591-.112 1.232-.176a12 12 0 0 1 1.184-.064q1.023 0 1.712.256.687.256 1.04.848.352.576.352 1.568v3.664a.48.48 0 0 0 .24.352q.207.112.48.16l-.048 1.472h-.512q-.24.016-.464 0-.225 0-.4-.032a1.9 1.9 0 0 1-.64-.192 1.9 1.9 0 0 1-.416-.304q-.256.112-.688.256a7 7 0 0 1-.944.24 5.3 5.3 0 0 1-1.008.096m.512-1.584q.303 0 .64-.064.336-.064.624-.144.303-.096.48-.176v-1.84l-1.632.144q-.528.048-.768.32-.224.256-.224.736t.208.752q.224.272.672.272m5.767 1.408v-8.032h2.128v.944q.272-.208.672-.432.399-.24.864-.432.48-.208.912-.272v2.064a5 5 0 0 0-.88.224q-.465.144-.88.32a15 15 0 0 0-.688.32V786z"/>
    </g>
    <path fill="#000" d="M60.496 22.945c2.406 0 4.5 1.711 4.5 5.774v.015c0 3.797-1.711 6.047-4.547 6.047-2.07 0-3.617-1.226-3.977-2.953l-.015-.086h1.984l.023.078c.297.79.993 1.305 1.985 1.305 1.789 0 2.547-1.75 2.633-3.906 0-.086.007-.172.007-.258h-.156c-.414.89-1.398 1.68-2.945 1.68-2.164 0-3.68-1.578-3.68-3.72v-.015c0-2.289 1.742-3.96 4.188-3.96m-.008 6.149c1.273 0 2.25-.922 2.25-2.196v-.015c0-1.29-.977-2.297-2.227-2.297a2.227 2.227 0 0 0-2.234 2.25v.016c0 1.304.93 2.242 2.21 2.242m7.734-1.899a1.22 1.22 0 0 1-1.242-1.234c0-.695.532-1.234 1.242-1.234.72 0 1.243.539 1.243 1.234 0 .687-.524 1.234-1.243 1.234m0 5.797c-.71 0-1.242-.539-1.242-1.234s.532-1.235 1.242-1.235c.72 0 1.243.54 1.243 1.235s-.524 1.234-1.243 1.234m8.696 1.508v-2.164h-5.516v-1.648c1.461-2.54 3.063-5.133 4.594-7.461h2.852v7.445h1.515v1.664h-1.515V34.5zm-3.64-3.781h3.671v-5.883h-.117a117 117 0 0 0-3.554 5.766zM84.715 34.5v-9.29h-.133l-2.804 1.985v-1.898l2.945-2.07h2.008V34.5z"/>
    <rect width="125" height="37" x="134" y="11" fill="#000" rx="18.5"/>
    <rect width="80" height="37" x="134" y="11" fill="#000" rx="18.5"/>
    <rect width="37" height="37" x="222" y="11" fill="#000" rx="18.5"/>
    <path fill="#000" d="M291.299 26a1 1 0 0 1 1-1h1a1 1 0 0 1 1 1v8a1 1 0 0 1-1 1h-1a1 1 0 0 1-1-1zM296.299 24a1 1 0 0 1 1-1h1a1 1 0 0 1 1 1v10a1 1 0 0 1-1 1h-1a1 1 0 0 1-1-1zM286.299 29.5a1 1 0 0 1 1-1h1a1 1 0 0 1 1 1V34a1 1 0 0 1-1 1h-1a1 1 0 0 1-1-1zM281.299 32a1 1 0 0 1 1-1h1a1 1 0 0 1 1 1v2a1 1 0 0 1-1 1h-1a1 1 0 0 1-1-1zM313.415 31.919a3.75 3.75 0 0 1 4.918 0 .36.36 0 0 1 .011.52l-2.223 2.29a.343.343 0 0 1-.494 0l-2.223-2.29a.36.36 0 0 1 .011-.52m-3.006-2.74a7.85 7.85 0 0 1 10.855 0 .37.37 0 0 1 .005.521l-1.285 1.325a.34.34 0 0 1-.483.007 5.4 5.4 0 0 0-3.666-1.442 5.4 5.4 0 0 0-3.664 1.442.34.34 0 0 1-.482-.007l-1.285-1.325a.37.37 0 0 1 .005-.521m-3.002-2.737a11.95 11.95 0 0 1 16.785 0 .368.368 0 0 1 .003.518l-1.286 1.326a.34.34 0 0 1-.483.004 9.51 9.51 0 0 0-6.627-2.702 9.52 9.52 0 0 0-6.627 2.702.337.337 0 0 1-.482-.004l-1.287-1.325a.373.373 0 0 1 .004-.519"/>
    <path stroke="#000" d="M336.299 23.5h17a3.5 3.5 0 0 1 3.5 3.5v5a3.5 3.5 0 0 1-3.5 3.5h-17a3.5 3.5 0 0 1-3.5-3.5v-5a3.5 3.5 0 0 1 3.5-3.5Z" opacity=".35"/>
    <path fill="#000" d="M358.299 28v4.22a2.29 2.29 0 0 0 0-4.22" opacity=".4"/>
    <path fill="#000" d="M334.299 27a2 2 0 0 1 2-2h17a2 2 0 0 1 2 2v5a2 2 0 0 1-2 2h-17a2 2 0 0 1-2-2z"/>
    <g clip-path="url(#c)">
      <rect width="330" height="330" x="32" y="192" fill="#f1f6fd" rx="165"/>
      <g clip-path="url(#d)">
        <path fill="#ebebeb" d="M406.864 513.008H-12.864v.21h419.728zM132.547 518.364h-19.459v.209h19.459z"/>
        <path fill="#e6e6e6" d="M114.549 533.063s16.478-9.234 17.578-22.405-11.862-15.824-17.578-20.433c-5.717-4.608-5.927-8.789-6.154-16.478-.226-7.69-2.635-15.824-11.198-23.505-8.562-7.681-9.452-10.544-8.394-20.869s-5.935-23.286-14.724-21.087-9.444 16.034-7.69 24.823a35.2 35.2 0 0 1-4.541 24.814c-4.198 6.598-5.935 18.241 0 25.713 5.935 7.471 9.888 14.06 7.026 21.968s-11.643 10.98-1.536 27.459z" opacity=".3"/>
        <path fill="#f5f5f5" d="M259.749 532.912h28.34s2.636-23.287 2.2-42.183c-.437-18.896-1.537-48.772-13.432-47.899s-25.452 31.421-17.108 90.082" opacity=".3"/>
        <path fill="#f0f0f0" d="M274.792 532.911s27.577-61.515 49.772-49.435-23.816 49.746-23.816 49.746z"/>
        <path fill="#e6e6e6" d="M271.476 533.222s1.813-20.021-5.717-40.495c-7.53-20.475-16.864-32.739-27.408-28.785-10.543 3.953-9.637 30.547 4.516 68.969z" opacity=".3"/>
        <path fill="#e6e6e6" d="M288.089 532.911s12.005-18.803 18.628-36.575c6.623-17.771 8.134-31.06 2.107-34.333-6.027-3.274-34.334 27.383-37.347 71.219z" opacity=".3"/>
        <path fill="#f0f0f0" d="M251.455 532.911s-15.513-60.021-42.015-51.005c-26.501 9.016 20.987 51.316 20.987 51.316h22.363" opacity=".3"/>
        <path fill="#ebebeb" stroke="#ebebeb" stroke-miterlimit="10" stroke-width=".839" d="M300.916 516.534s3.224-19.727 28.449-44.248 32.831-42.703 28.332-67.417c0 0 23.018 32.319 8.126 72.051s-38.002 53.045-56.966 58.275-7.941-18.661-7.941-18.661Z"/>
        <path stroke="#e0e0e0" stroke-miterlimit="10" stroke-width="1.679" d="M301.235 535.48c5.112-13.33 12.902-21.171 21.641-29.12 3.198-2.913 6.531-5.877 9.906-9.058 2.3-2.191 4.625-4.525 6.934-7.077a107 107 0 0 0 7.152-8.747 108 108 0 0 0 6.917-10.745c.436-.764.839-1.536 1.293-2.342a90 90 0 0 0 1.561-3.073c12.978-26.862 6.036-49.679 2.283-58.526a36 36 0 0 0-1.897-3.937"/>
        <path stroke="#e0e0e0" stroke-miterlimit="10" stroke-width="1.679" d="M348.505 450.04a25.1 25.1 0 0 1 8.143 15.262M346.877 481.47c-.235-5.793-5.356-14.229-8.345-18.687M324.43 477.314c2.342 3.702 7.219 12.139 8.352 19.988M322.919 506.359s14.531-2.258 26.224 1.579M362.046 486.07c-9.872-1.125-21.977 4.012-22.321 4.147M369.508 463.732c-8.008 1.36-15.446 6.791-15.715 6.984"/>
        <path fill="#000" d="M183.249 342.716c-2.241-.613-2.283-3.492-2.283-3.492l2.149.428a9.7 9.7 0 0 0 .134 3.064" opacity=".12"/>
        <path fill="#35d2e9" d="M301.311 264.235v121.016a6.77 6.77 0 0 1-1.981 4.785 6.77 6.77 0 0 1-4.785 1.981H111.67a6.754 6.754 0 0 1-6.716-6.766V264.235a6.76 6.76 0 0 1 6.716-6.766h182.875a6.77 6.77 0 0 1 6.251 4.177c.34.821.515 1.701.515 2.589"/>
        <path fill="#dcf8de" stroke="#fff" stroke-miterlimit="10" stroke-width=".839" d="M301.311 264.235v121.016a6.77 6.77 0 0 1-1.981 4.785 6.77 6.77 0 0 1-4.785 1.981H111.67a6.754 6.754 0 0 1-6.716-6.766V264.235a6.76 6.76 0 0 1 6.716-6.766h182.875a6.77 6.77 0 0 1 6.251 4.177c.34.821.515 1.701.515 2.589Z" opacity=".7"/>
        <path fill="#52dc5b" d="M289.928 267.635a1.822 1.822 0 1 0 0-3.645 1.822 1.822 0 0 0 0 3.645M281.223 265.813a1.83 1.83 0 0 1-1.124 1.697 1.83 1.83 0 0 1-1.997-.391 1.829 1.829 0 1 1 3.121-1.306M270.688 265.813a1.83 1.83 0 0 1-1.124 1.697 1.83 1.83 0 0 1-1.997-.391 1.829 1.829 0 1 1 3.121-1.306M286.923 288.798v121.016a6.757 6.757 0 0 1-6.758 6.715H97.281a6.76 6.76 0 0 1-6.757-6.715V288.798a6.77 6.77 0 0 1 6.757-6.766h182.884a6.767 6.767 0 0 1 6.758 6.766"/>
        <path fill="#fff" d="M286.923 288.798v121.016a6.757 6.757 0 0 1-6.758 6.715H97.281a6.76 6.76 0 0 1-6.757-6.715V288.798a6.77 6.77 0 0 1 6.757-6.766h182.884a6.767 6.767 0 0 1 6.758 6.766" opacity=".8"/>
        <path fill="#fd723b" d="M286.931 296.235H243.12v110.708h43.811z"/>
        <path fill="#fafafa" d="M286.931 329.486H243.12v1.41h43.811zM286.931 364.231H243.12v1.411h43.811zM286.931 398.464H243.12v1.41h43.811zM262.226 339.173v16.538l12.491-8.269zM262.226 373.776v16.545l12.491-8.268zM262.226 303.958v16.546l12.491-8.277z"/>
        <path fill="#e49987" d="M154.759 364.231s-11.198 16.697-14.69 20.013c0 0-18.77 1.679-26.493-3.601l-1.956 4.793s17.83 10.073 29.909 7.614 20.987-25.78 20.987-25.78zM209.181 354.3s10.703 2.93 17.377 3.492c0 0 5.037-11.693 5.876-22.312l3.794.21s3.493 20.684-5.666 29.062c-6.329 5.8-27.45-4.945-27.45-4.945z"/>
        <path fill="#263238" d="M179.061 308.684s-14.506-1.402-16.009 13.381a55.1 55.1 0 0 0 4.315 26.863s8.772 17.855 19.408 15.37c10.636-2.484 19.652-8.243 17.772-17.88s-5.381-9.234-5.255-22.665c.126-13.432-12.475-21.23-20.231-15.069"/>
        <path fill="#e49987" d="M194.893 329.855c-1.52 7.413-4.903 10.368-11.753 9.797a9.7 9.7 0 0 0 .135 3.064 5.614 5.614 0 0 0 4.785 4.776c5.876 1.016 2.661 8.579 2.661 8.579l-5.877 2.888-7.731-4.457-5.876-6.271h2.057s3.979-6.019 0-16.151a6.23 6.23 0 0 1-2.138-2.078 6.24 6.24 0 0 1-.926-2.833c-.168-3.358 3.299-3.559 4.608-2.3 0 0 5.969-2.602 5.079-12.659 0 0 5.876 4.415 13.431 3.131-.008.059 3.056 7.093 1.545 14.514"/>
        <path fill="#a02724" d="m189.495 323.686.076 5.187a3.13 3.13 0 0 0 2.585-.151z"/>
        <path fill="#263238" d="M181.546 317.851a.35.35 0 0 1-.151 0 .277.277 0 0 1-.128-.178.28.28 0 0 1 .036-.216 3.1 3.1 0 0 1 3.727-1.184.27.27 0 0 1 .165.143q.025.05.028.108a.287.287 0 0 1-.378.286 2.52 2.52 0 0 0-3.056.94.3.3 0 0 1-.109.08.3.3 0 0 1-.134.021M194.541 319.454a.3.3 0 0 1-.201-.075c-.839-.764-2.3-.202-2.317-.193a.294.294 0 0 1-.369-.168.28.28 0 0 1 .007-.22.28.28 0 0 1 .161-.15c.067 0 1.838-.696 2.913.311a.29.29 0 0 1 0 .403.3.3 0 0 1-.194.092M187.289 331.35a5.56 5.56 0 0 1-4.936-2.586.22.22 0 0 1 .106-.256.218.218 0 0 1 .271.055 5.16 5.16 0 0 0 4.567 2.359.21.21 0 0 1 .21.209.22.22 0 0 1-.218.219M185.786 322.796c0 .621-.311 1.125-.731 1.141-.419.017-.772-.478-.789-1.099-.017-.622.302-1.125.722-1.142s.781.478.798 1.1M193.248 322.863c0 .613-.31 1.125-.73 1.141s-.772-.478-.797-1.099.31-1.125.73-1.142.781.479.797 1.1"/>
        <path fill="#263238" d="m184.871 321.721 1.905-.546s-.344 1.025-1.905.546M192.45 321.763l1.402-.201a.843.843 0 0 1-1.06.44.85.85 0 0 1-.342-.239"/>
        <path fill="#2d77e4" d="m212.808 353.965-6.573 14.472-3.492-1.268s.352 26.275-2.519 39.774h-34.166l-1.964-35.862-1.788 3.744-12.592-7.068s3.484-14.271 8.924-16.789c2.593-1.201 8.125-2.124 13.817-2.72a120 120 0 0 1 15.622-.739h1.486a52.1 52.1 0 0 1 23.245 6.456"/>
        <path fill="#e49987" d="M232.433 335.48a14.9 14.9 0 0 1-2.518-6.179 15.2 15.2 0 0 1 .646-7.126l6.783-.236.84 5.935a11.34 11.34 0 0 1-1.939 7.816zM113.575 380.642l-3.534-6.304-4.298-1.494-3.055 5.708 2.728 3.744s3.601 3.056 6.204 3.14zM189.521 347.509c-.059 9.05-5.717 18.964-5.717 18.964-5.036-4.861-10.073-15.287-11.391-18.242a120 120 0 0 1 15.622-.739s.571-.016 1.486.017"/>
        <path fill="#000" d="m162.297 374.825 1.763-9.712.034 5.977zM206.252 368.437l-5.641-4.206 2.149 2.938z" opacity=".12"/>
        <path fill="#52dc5b" d="M171.606 397.02c-.957 17.167 21.608 68.483 24.126 86.464-7.773 18.057-28.113 41.075-28.113 41.075l9.637 10.51s33.746-30.078 35.5-51.039c1.461-17.922-11.215-85.289-11.215-85.289z"/>
        <path fill="#263238" d="M171.606 397.02c-.957 17.167 21.608 68.483 24.126 86.464-7.773 18.057-28.113 41.075-28.113 41.075l9.637 10.51s33.746-30.078 35.5-51.039c1.461-17.922-11.215-85.289-11.215-85.289z"/>
        <path fill="#000" d="M178.868 429.608c5.289 16.336 12.072 34.124 15.245 46.271.579-13.213.134-36.752-9.108-49.528-4.315-6.019-6.019-3.022-6.137 3.257" opacity=".3"/>
        <path fill="#52dc5b" d="M165.857 397.222c-6.556 18.057-1.453 58.821-1.1 88.034-1.964 22.019.663 55.404.663 55.404l11.837.487s3.567-39.404 6.002-63.992c2.065-20.701 9.435-78.909 9.435-78.909z"/>
        <path fill="#263238" d="M165.487 396.592c-6.556 18.049-1.083 59.451-.73 88.664-1.965 22.019.663 55.404.663 55.404l11.836.487s3.568-39.404 6.002-63.992c2.065-20.701 9.436-78.909 9.436-78.909z"/>
        <path fill="#fafafa" d="M173.353 346.267h-2.896v17.057h2.896zM166.57 346.267h-2.896v17.057h2.896z"/>
        <path stroke="#fafafa" stroke-miterlimit="10" stroke-width=".837" d="M181.439 358.71c1.763-7.433-2.834-14.889-10.268-16.651s-14.889 2.835-16.652 10.268c-1.762 7.434 2.835 14.889 10.269 16.652 7.434 1.762 14.889-2.835 16.651-10.269Z"/>
        <path fill="#66d096" d="M286.922 288.798v7.437H90.49v-7.437a6.77 6.77 0 0 1 6.757-6.766h182.918a6.767 6.767 0 0 1 6.757 6.766M286.923 406.943v2.871a6.757 6.757 0 0 1-6.758 6.715H97.281a6.76 6.76 0 0 1-6.757-6.715v-2.871z"/>
        <path stroke="#fff" stroke-miterlimit="10" stroke-width=".42" d="M129.307 292.818h-28.693a3.115 3.115 0 0 1-3.114-3.106 3.114 3.114 0 0 1 3.114-3.114h28.693a3.13 3.13 0 0 1 2.202.912 3.108 3.108 0 0 1-2.202 5.308ZM144.887 292.818h-4.197a3.1 3.1 0 0 1-2.197-.909 3.11 3.11 0 0 1 0-4.396 3.1 3.1 0 0 1 2.197-.915h4.197a3.114 3.114 0 0 1 3.114 3.114 3.11 3.11 0 0 1-3.114 3.106ZM226.373 300.055H107.724c-6.973 0-12.625 5.652-12.625 12.625v78.439c0 6.973 5.652 12.626 12.625 12.626h118.649c6.973 0 12.625-5.653 12.625-12.626V312.68c0-6.973-5.652-12.625-12.625-12.625Z"/>
        <path fill="#fcc65d" d="M139.305 309.003H88.593a6.926 6.926 0 0 0-6.925 6.926v18.065c0 3.825 3.1 6.925 6.925 6.925h50.712c3.824 0 6.925-3.1 6.925-6.925v-18.065a6.926 6.926 0 0 0-6.925-6.926"/>
        <path fill="#fcc65d" d="M148.698 314.451v20.987a5.5 5.5 0 0 1-.4 2.091 5.46 5.46 0 0 1-2.937 2.968c-.66.277-1.369.42-2.086.422h-19.45c-5.876 2.032-2.2 10.166-2.074 10.46a10.6 10.6 0 0 1-3.097-1.679c-4.197-3.358-3.61-8.772-3.61-8.772H89.55a5.447 5.447 0 0 1-5.448-5.448v-20.987a5.45 5.45 0 0 1 5.448-5.448h53.725a5.44 5.44 0 0 1 5.423 5.406"/>
        <path fill="#fff" d="M146.222 314.451v20.987a5.44 5.44 0 0 1-1.588 3.882 5.44 5.44 0 0 1-3.877 1.6h-19.408c-4.298 1.477-3.493 6.212-2.695 8.772-4.197-3.358-3.61-8.772-3.61-8.772H87.107a5.44 5.44 0 0 1-5.44-5.449v-20.986a5.44 5.44 0 0 1 5.44-5.448h53.65a5.45 5.45 0 0 1 3.854 1.575 5.44 5.44 0 0 1 1.611 3.839" opacity=".2"/>
        <path fill="#fdc04a" d="M141.194 314.074H86.361v2.904h54.833zM141.194 319.404H86.361v2.905h54.833zM141.194 324.743H86.361v2.905h54.833z"/>
        <path fill="#000" d="M141.194 314.074H86.361v2.904h54.833zM141.194 319.404H86.361v2.905h54.833zM141.194 324.743H86.361v2.905h54.833z" opacity=".1"/>
      </g>
    </g>
  </g>
  <defs>
    <clipPath id="a">
      <rect width="393" height="852" fill="#fff" rx="16"/>
    </clipPath>
    <clipPath id="c">
      <rect width="330" height="330" x="32" y="192" fill="#fff" rx="165"/>
    </clipPath>
    <clipPath id="d">
      <path fill="#fff" d="M-12.864 192h419.728v419.728H-12.864z"/>
    </clipPath>
    <filter id="b" width="401.8" height="88.8" x="-4.4" y="739.6" color-interpolation-filters="sRGB" filterUnits="userSpaceOnUse">
      <feFlood flood-opacity="0" result="BackgroundImageFix"/>
      <feColorMatrix in="SourceAlpha" result="hardAlpha" values="0 0 0 0 0 0 0 0 0 0 0 0 0 0 0 0 0 0 127 0"/>
      <feOffset dy="4"/>
      <feGaussianBlur stdDeviation="10.2"/>
      <feComposite in2="hardAlpha" operator="out"/>
      <feColorMatrix values="0 0 0 0 0.176471 0 0 0 0 0.466667 0 0 0 0 0.890196 0 0 0 0.16 0"/>
      <feBlend in2="BackgroundImageFix" result="effect1_dropShadow_43_656"/>
      <feBlend in="SourceGraphic" in2="effect1_dropShadow_43_656" result="shape"/>
    </filter>
  </defs>
</svg>
