<svg width="393" height="852" viewBox="0 0 393 852" fill="none" xmlns="http://www.w3.org/2000/svg">
<g clip-path="url(#clip0_43_656)">
<rect width="393" height="852" rx="16" fill="#F7FAFD"/>
<path d="M96.2813 634L93.0213 620.34H95.9213L98.2613 631.34H99.0813L101.381 620.34H104.281L101.081 634H96.2813ZM105.659 634V623.96H108.319V634H105.659ZM105.659 622.36V620.08H108.339V622.36H105.659ZM113.921 634.22C113.441 634.22 113.001 634.16 112.601 634.04C112.201 633.933 111.848 633.76 111.541 633.52C111.248 633.267 110.995 632.94 110.781 632.54C110.581 632.14 110.428 631.653 110.321 631.08C110.215 630.493 110.161 629.813 110.161 629.04C110.161 627.893 110.301 626.927 110.581 626.14C110.875 625.353 111.335 624.76 111.961 624.36C112.588 623.947 113.421 623.74 114.461 623.74C114.661 623.74 114.895 623.753 115.161 623.78C115.428 623.793 115.688 623.82 115.941 623.86C116.195 623.887 116.401 623.913 116.561 623.94V619.86H119.241V634H116.601L116.581 633.42C116.395 633.527 116.148 633.647 115.841 633.78C115.548 633.9 115.235 634 114.901 634.08C114.568 634.173 114.241 634.22 113.921 634.22ZM114.601 631.98C114.841 631.98 115.081 631.953 115.321 631.9C115.575 631.847 115.808 631.787 116.021 631.72C116.248 631.64 116.428 631.567 116.561 631.5V626.12C116.441 626.093 116.281 626.073 116.081 626.06C115.881 626.033 115.675 626.013 115.461 626C115.248 625.973 115.055 625.96 114.881 625.96C114.361 625.96 113.955 626.08 113.661 626.32C113.381 626.56 113.181 626.913 113.061 627.38C112.941 627.833 112.881 628.387 112.881 629.04C112.881 629.613 112.921 630.093 113.001 630.48C113.081 630.853 113.195 631.153 113.341 631.38C113.501 631.593 113.688 631.747 113.901 631.84C114.115 631.933 114.348 631.98 114.601 631.98ZM125.5 634.22C124.393 634.22 123.513 634.033 122.86 633.66C122.22 633.287 121.76 632.72 121.48 631.96C121.2 631.2 121.06 630.247 121.06 629.1C121.06 627.86 121.233 626.847 121.58 626.06C121.94 625.273 122.46 624.693 123.14 624.32C123.82 623.933 124.66 623.74 125.66 623.74C127.14 623.74 128.253 624.113 129 624.86C129.76 625.607 130.14 626.787 130.14 628.4L130.02 629.88H123.74C123.753 630.627 123.907 631.187 124.2 631.56C124.493 631.933 125 632.12 125.72 632.12C126.133 632.12 126.587 632.113 127.08 632.1C127.573 632.073 128.06 632.047 128.54 632.02C129.033 631.993 129.453 631.967 129.8 631.94L129.86 633.8C129.527 633.853 129.107 633.913 128.6 633.98C128.093 634.047 127.567 634.1 127.02 634.14C126.487 634.193 125.98 634.22 125.5 634.22ZM123.74 628.18H127.48C127.48 627.273 127.333 626.64 127.04 626.28C126.76 625.92 126.3 625.74 125.66 625.74C125.233 625.74 124.88 625.82 124.6 625.98C124.32 626.14 124.107 626.4 123.96 626.76C123.813 627.12 123.74 627.593 123.74 628.18ZM136.229 634.22C135.095 634.22 134.182 634.033 133.489 633.66C132.809 633.287 132.315 632.713 132.009 631.94C131.702 631.153 131.549 630.14 131.549 628.9C131.549 627.7 131.709 626.727 132.029 625.98C132.349 625.22 132.855 624.66 133.549 624.3C134.242 623.927 135.135 623.74 136.229 623.74C137.335 623.74 138.229 623.927 138.909 624.3C139.602 624.66 140.109 625.22 140.429 625.98C140.762 626.727 140.929 627.7 140.929 628.9C140.929 630.14 140.775 631.153 140.469 631.94C140.162 632.713 139.662 633.287 138.969 633.66C138.289 634.033 137.375 634.22 136.229 634.22ZM136.229 632.02C136.789 632.02 137.209 631.92 137.489 631.72C137.769 631.507 137.955 631.173 138.049 630.72C138.155 630.253 138.209 629.647 138.209 628.9C138.209 628.167 138.149 627.587 138.029 627.16C137.909 626.72 137.709 626.407 137.429 626.22C137.149 626.033 136.749 625.94 136.229 625.94C135.722 625.94 135.322 626.033 135.029 626.22C134.749 626.407 134.549 626.72 134.429 627.16C134.309 627.587 134.249 628.167 134.249 628.9C134.249 629.647 134.295 630.253 134.389 630.72C134.495 631.173 134.689 631.507 134.969 631.72C135.249 631.92 135.669 632.02 136.229 632.02ZM146.229 634.24C145.496 634.24 144.903 634.133 144.449 633.92C143.996 633.707 143.669 633.34 143.469 632.82C143.283 632.287 143.189 631.547 143.189 630.6V626.18H142.009V623.96H143.189V621.3H145.849V623.96H148.409V626.18H145.849V629.9C145.849 630.42 145.869 630.827 145.909 631.12C145.963 631.413 146.069 631.62 146.229 631.74C146.389 631.86 146.636 631.92 146.969 631.92C147.063 631.92 147.203 631.913 147.389 631.9C147.576 631.887 147.763 631.873 147.949 631.86C148.136 631.847 148.289 631.833 148.409 631.82L148.489 633.96C148.289 634 148.043 634.04 147.749 634.08C147.469 634.12 147.189 634.153 146.909 634.18C146.643 634.22 146.416 634.24 146.229 634.24ZM153.957 634.22C152.85 634.22 151.97 634.033 151.317 633.66C150.677 633.287 150.217 632.72 149.937 631.96C149.657 631.2 149.517 630.247 149.517 629.1C149.517 627.86 149.69 626.847 150.037 626.06C150.397 625.273 150.917 624.693 151.597 624.32C152.277 623.933 153.117 623.74 154.117 623.74C155.597 623.74 156.71 624.113 157.457 624.86C158.217 625.607 158.597 626.787 158.597 628.4L158.477 629.88H152.197C152.21 630.627 152.364 631.187 152.657 631.56C152.95 631.933 153.457 632.12 154.177 632.12C154.59 632.12 155.044 632.113 155.537 632.1C156.03 632.073 156.517 632.047 156.997 632.02C157.49 631.993 157.91 631.967 158.257 631.94L158.317 633.8C157.984 633.853 157.564 633.913 157.057 633.98C156.55 634.047 156.024 634.1 155.477 634.14C154.944 634.193 154.437 634.22 153.957 634.22ZM152.197 628.18H155.937C155.937 627.273 155.79 626.64 155.497 626.28C155.217 625.92 154.757 625.74 154.117 625.74C153.69 625.74 153.337 625.82 153.057 625.98C152.777 626.14 152.564 626.4 152.417 626.76C152.27 627.12 152.197 627.593 152.197 628.18ZM164.466 634.22C163.319 634.22 162.419 634.047 161.766 633.7C161.126 633.34 160.672 632.767 160.406 631.98C160.152 631.193 160.026 630.16 160.026 628.88C160.026 627.613 160.172 626.607 160.466 625.86C160.759 625.1 161.232 624.56 161.886 624.24C162.552 623.907 163.419 623.74 164.486 623.74C164.766 623.74 165.092 623.76 165.466 623.8C165.839 623.84 166.212 623.893 166.586 623.96C166.972 624.013 167.299 624.067 167.566 624.12L167.466 626.26C167.212 626.233 166.926 626.213 166.606 626.2C166.286 626.173 165.972 626.153 165.666 626.14C165.372 626.113 165.132 626.1 164.946 626.1C164.372 626.1 163.919 626.193 163.586 626.38C163.266 626.553 163.039 626.847 162.906 627.26C162.786 627.66 162.726 628.2 162.726 628.88C162.726 629.613 162.786 630.2 162.906 630.64C163.026 631.08 163.239 631.393 163.546 631.58C163.866 631.767 164.332 631.86 164.946 631.86C165.132 631.86 165.379 631.853 165.686 631.84C165.992 631.813 166.306 631.787 166.626 631.76C166.959 631.733 167.252 631.713 167.506 631.7L167.586 633.84C167.319 633.893 166.999 633.947 166.626 634C166.252 634.067 165.872 634.12 165.486 634.16C165.112 634.2 164.772 634.22 164.466 634.22ZM171.931 634.22C170.891 634.22 170.104 633.96 169.571 633.44C169.051 632.907 168.791 632.107 168.791 631.04C168.791 630.293 168.924 629.713 169.191 629.3C169.458 628.873 169.851 628.567 170.371 628.38C170.904 628.18 171.551 628.06 172.311 628.02L174.751 627.8V627.2C174.751 626.72 174.631 626.387 174.391 626.2C174.151 626 173.798 625.9 173.331 625.9C172.958 625.9 172.524 625.913 172.031 625.94C171.551 625.967 171.071 626 170.591 626.04C170.124 626.08 169.718 626.12 169.371 626.16L169.291 624.28C169.638 624.2 170.051 624.12 170.531 624.04C171.024 623.947 171.538 623.873 172.071 623.82C172.604 623.767 173.098 623.74 173.551 623.74C174.404 623.74 175.118 623.847 175.691 624.06C176.264 624.273 176.698 624.627 176.991 625.12C177.284 625.6 177.431 626.253 177.431 627.08V631.66C177.458 631.847 177.558 631.993 177.731 632.1C177.904 632.193 178.104 632.26 178.331 632.3L178.271 634.14C178.058 634.14 177.844 634.14 177.631 634.14C177.431 634.153 177.238 634.153 177.051 634.14C176.864 634.14 176.698 634.127 176.551 634.1C176.244 634.06 175.978 633.98 175.751 633.86C175.538 633.74 175.364 633.613 175.231 633.48C175.018 633.573 174.731 633.68 174.371 633.8C174.011 633.92 173.618 634.02 173.191 634.1C172.778 634.18 172.358 634.22 171.931 634.22ZM172.571 632.24C172.824 632.24 173.091 632.213 173.371 632.16C173.651 632.107 173.911 632.047 174.151 631.98C174.404 631.9 174.604 631.827 174.751 631.76V629.46L172.711 629.64C172.271 629.68 171.951 629.813 171.751 630.04C171.564 630.253 171.471 630.56 171.471 630.96C171.471 631.36 171.558 631.673 171.731 631.9C171.918 632.127 172.198 632.24 172.571 632.24ZM187.515 634.22C187.035 634.22 186.595 634.16 186.195 634.04C185.795 633.933 185.442 633.76 185.135 633.52C184.842 633.267 184.588 632.94 184.375 632.54C184.175 632.14 184.022 631.653 183.915 631.08C183.808 630.493 183.755 629.813 183.755 629.04C183.755 627.893 183.895 626.927 184.175 626.14C184.468 625.353 184.928 624.76 185.555 624.36C186.182 623.947 187.015 623.74 188.055 623.74C188.255 623.74 188.488 623.753 188.755 623.78C189.022 623.793 189.282 623.82 189.535 623.86C189.788 623.887 189.995 623.913 190.155 623.94V619.86H192.835V634H190.195L190.175 633.42C189.988 633.527 189.742 633.647 189.435 633.78C189.142 633.9 188.828 634 188.495 634.08C188.162 634.173 187.835 634.22 187.515 634.22ZM188.195 631.98C188.435 631.98 188.675 631.953 188.915 631.9C189.168 631.847 189.402 631.787 189.615 631.72C189.842 631.64 190.022 631.567 190.155 631.5V626.12C190.035 626.093 189.875 626.073 189.675 626.06C189.475 626.033 189.268 626.013 189.055 626C188.842 625.973 188.648 625.96 188.475 625.96C187.955 625.96 187.548 626.08 187.255 626.32C186.975 626.56 186.775 626.913 186.655 627.38C186.535 627.833 186.475 628.387 186.475 629.04C186.475 629.613 186.515 630.093 186.595 630.48C186.675 630.853 186.788 631.153 186.935 631.38C187.095 631.593 187.282 631.747 187.495 631.84C187.708 631.933 187.942 631.98 188.195 631.98ZM199.094 634.22C197.987 634.22 197.107 634.033 196.454 633.66C195.814 633.287 195.354 632.72 195.074 631.96C194.794 631.2 194.654 630.247 194.654 629.1C194.654 627.86 194.827 626.847 195.174 626.06C195.534 625.273 196.054 624.693 196.734 624.32C197.414 623.933 198.254 623.74 199.254 623.74C200.734 623.74 201.847 624.113 202.594 624.86C203.354 625.607 203.734 626.787 203.734 628.4L203.614 629.88H197.334C197.347 630.627 197.5 631.187 197.794 631.56C198.087 631.933 198.594 632.12 199.314 632.12C199.727 632.12 200.18 632.113 200.674 632.1C201.167 632.073 201.654 632.047 202.134 632.02C202.627 631.993 203.047 631.967 203.394 631.94L203.454 633.8C203.12 633.853 202.7 633.913 202.194 633.98C201.687 634.047 201.16 634.1 200.614 634.14C200.08 634.193 199.574 634.22 199.094 634.22ZM197.334 628.18H201.074C201.074 627.273 200.927 626.64 200.634 626.28C200.354 625.92 199.894 625.74 199.254 625.74C198.827 625.74 198.474 625.82 198.194 625.98C197.914 626.14 197.7 626.4 197.554 626.76C197.407 627.12 197.334 627.593 197.334 628.18ZM210.018 634V620.34H212.778V634H210.018ZM215.151 634V623.96H217.811V624.6C218.024 624.467 218.284 624.34 218.591 624.22C218.897 624.087 219.217 623.973 219.551 623.88C219.897 623.787 220.231 623.74 220.551 623.74C221.244 623.74 221.817 623.833 222.271 624.02C222.737 624.193 223.104 624.48 223.371 624.88C223.637 625.28 223.831 625.807 223.951 626.46C224.071 627.1 224.131 627.88 224.131 628.8V634H221.451V628.94C221.451 628.247 221.411 627.693 221.331 627.28C221.251 626.853 221.097 626.547 220.871 626.36C220.644 626.173 220.311 626.08 219.871 626.08C219.631 626.08 219.377 626.107 219.111 626.16C218.857 626.2 218.611 626.26 218.371 626.34C218.144 626.42 217.957 626.5 217.811 626.58V634H215.151ZM229.686 634.24C228.953 634.24 228.36 634.133 227.906 633.92C227.453 633.707 227.126 633.34 226.926 632.82C226.74 632.287 226.646 631.547 226.646 630.6V626.18H225.466V623.96H226.646V621.3H229.306V623.96H231.866V626.18H229.306V629.9C229.306 630.42 229.326 630.827 229.366 631.12C229.42 631.413 229.526 631.62 229.686 631.74C229.846 631.86 230.093 631.92 230.426 631.92C230.52 631.92 230.66 631.913 230.846 631.9C231.033 631.887 231.22 631.873 231.406 631.86C231.593 631.847 231.746 631.833 231.866 631.82L231.946 633.96C231.746 634 231.5 634.04 231.206 634.08C230.926 634.12 230.646 634.153 230.366 634.18C230.1 634.22 229.873 634.24 229.686 634.24ZM237.414 634.22C236.307 634.22 235.427 634.033 234.774 633.66C234.134 633.287 233.674 632.72 233.394 631.96C233.114 631.2 232.974 630.247 232.974 629.1C232.974 627.86 233.147 626.847 233.494 626.06C233.854 625.273 234.374 624.693 235.054 624.32C235.734 623.933 236.574 623.74 237.574 623.74C239.054 623.74 240.167 624.113 240.914 624.86C241.674 625.607 242.054 626.787 242.054 628.4L241.934 629.88H235.654C235.667 630.627 235.821 631.187 236.114 631.56C236.407 631.933 236.914 632.12 237.634 632.12C238.047 632.12 238.501 632.113 238.994 632.1C239.487 632.073 239.974 632.047 240.454 632.02C240.947 631.993 241.367 631.967 241.714 631.94L241.774 633.8C241.441 633.853 241.021 633.913 240.514 633.98C240.007 634.047 239.481 634.1 238.934 634.14C238.401 634.193 237.894 634.22 237.414 634.22ZM235.654 628.18H239.394C239.394 627.273 239.247 626.64 238.954 626.28C238.674 625.92 238.214 625.74 237.574 625.74C237.147 625.74 236.794 625.82 236.514 625.98C236.234 626.14 236.021 626.4 235.874 626.76C235.727 627.12 235.654 627.593 235.654 628.18ZM248.243 638.58C247.176 638.58 246.283 638.5 245.563 638.34C244.856 638.18 244.323 637.887 243.963 637.46C243.603 637.047 243.423 636.447 243.423 635.66C243.423 635.313 243.469 635 243.563 634.72C243.669 634.453 243.829 634.2 244.043 633.96C244.269 633.72 244.549 633.473 244.883 633.22C244.696 633.087 244.543 632.893 244.423 632.64C244.316 632.373 244.263 632.087 244.263 631.78C244.263 631.673 244.309 631.533 244.403 631.36C244.496 631.173 244.609 630.98 244.743 630.78C244.876 630.58 245.003 630.4 245.123 630.24C244.856 630.12 244.603 629.947 244.363 629.72C244.123 629.48 243.923 629.16 243.763 628.76C243.616 628.36 243.543 627.847 243.543 627.22C243.543 626.367 243.703 625.687 244.023 625.18C244.356 624.673 244.836 624.307 245.463 624.08C246.089 623.853 246.849 623.74 247.743 623.74C248.089 623.74 248.463 623.767 248.863 623.82C249.263 623.873 249.583 623.927 249.823 623.98L253.083 623.92V625.72L251.563 625.7C251.683 625.86 251.789 626.067 251.883 626.32C251.989 626.56 252.043 626.86 252.043 627.22C252.043 628.14 251.883 628.853 251.563 629.36C251.256 629.867 250.789 630.22 250.163 630.42C249.536 630.607 248.743 630.7 247.783 630.7C247.676 630.7 247.529 630.693 247.343 630.68C247.156 630.653 247.003 630.633 246.883 630.62C246.829 630.753 246.776 630.907 246.723 631.08C246.669 631.24 246.643 631.353 246.643 631.42C246.643 631.567 246.669 631.68 246.723 631.76C246.789 631.84 246.903 631.907 247.063 631.96C247.236 632 247.483 632.027 247.803 632.04C248.136 632.053 248.576 632.06 249.123 632.06C250.069 632.06 250.823 632.147 251.383 632.32C251.956 632.493 252.363 632.8 252.603 633.24C252.843 633.68 252.963 634.3 252.963 635.1C252.963 636.287 252.543 637.16 251.703 637.72C250.876 638.293 249.723 638.58 248.243 638.58ZM248.103 636.6C248.929 636.6 249.523 636.5 249.883 636.3C250.256 636.113 250.443 635.8 250.443 635.36C250.443 635.013 250.376 634.76 250.243 634.6C250.123 634.44 249.916 634.333 249.623 634.28C249.329 634.24 248.929 634.22 248.423 634.22C248.289 634.22 248.129 634.213 247.943 634.2C247.756 634.2 247.563 634.193 247.363 634.18C247.176 634.18 247.003 634.173 246.843 634.16C246.696 634.147 246.589 634.14 246.523 634.14C246.336 634.273 246.183 634.4 246.063 634.52C245.956 634.64 245.876 634.76 245.823 634.88C245.783 635.013 245.763 635.173 245.763 635.36C245.763 635.667 245.836 635.907 245.983 636.08C246.129 636.267 246.369 636.4 246.703 636.48C247.049 636.56 247.516 636.6 248.103 636.6ZM247.763 628.82C248.376 628.82 248.809 628.7 249.063 628.46C249.329 628.207 249.463 627.793 249.463 627.22C249.463 626.647 249.329 626.233 249.063 625.98C248.809 625.727 248.376 625.6 247.763 625.6C247.176 625.6 246.749 625.727 246.483 625.98C246.229 626.233 246.103 626.647 246.103 627.22C246.103 627.793 246.229 628.207 246.483 628.46C246.749 628.7 247.176 628.82 247.763 628.82ZM254.487 634V623.96H257.147V625.14C257.373 624.967 257.653 624.787 257.987 624.6C258.32 624.4 258.68 624.22 259.067 624.06C259.467 623.887 259.847 623.773 260.207 623.72V626.3C259.86 626.353 259.493 626.447 259.107 626.58C258.72 626.7 258.353 626.833 258.007 626.98C257.673 627.127 257.387 627.26 257.147 627.38V634H254.487ZM264.216 634.22C263.176 634.22 262.389 633.96 261.856 633.44C261.336 632.907 261.076 632.107 261.076 631.04C261.076 630.293 261.209 629.713 261.476 629.3C261.743 628.873 262.136 628.567 262.656 628.38C263.189 628.18 263.836 628.06 264.596 628.02L267.036 627.8V627.2C267.036 626.72 266.916 626.387 266.676 626.2C266.436 626 266.083 625.9 265.616 625.9C265.243 625.9 264.809 625.913 264.316 625.94C263.836 625.967 263.356 626 262.876 626.04C262.409 626.08 262.003 626.12 261.656 626.16L261.576 624.28C261.923 624.2 262.336 624.12 262.816 624.04C263.309 623.947 263.823 623.873 264.356 623.82C264.889 623.767 265.383 623.74 265.836 623.74C266.689 623.74 267.403 623.847 267.976 624.06C268.549 624.273 268.983 624.627 269.276 625.12C269.569 625.6 269.716 626.253 269.716 627.08V631.66C269.743 631.847 269.843 631.993 270.016 632.1C270.189 632.193 270.389 632.26 270.616 632.3L270.556 634.14C270.343 634.14 270.129 634.14 269.916 634.14C269.716 634.153 269.523 634.153 269.336 634.14C269.149 634.14 268.983 634.127 268.836 634.1C268.529 634.06 268.263 633.98 268.036 633.86C267.823 633.74 267.649 633.613 267.516 633.48C267.303 633.573 267.016 633.68 266.656 633.8C266.296 633.92 265.903 634.02 265.476 634.1C265.063 634.18 264.643 634.22 264.216 634.22ZM264.856 632.24C265.109 632.24 265.376 632.213 265.656 632.16C265.936 632.107 266.196 632.047 266.436 631.98C266.689 631.9 266.889 631.827 267.036 631.76V629.46L264.996 629.64C264.556 629.68 264.236 629.813 264.036 630.04C263.849 630.253 263.756 630.56 263.756 630.96C263.756 631.36 263.843 631.673 264.016 631.9C264.203 632.127 264.483 632.24 264.856 632.24ZM276.165 634.22C275.018 634.22 274.118 634.047 273.465 633.7C272.825 633.34 272.372 632.767 272.105 631.98C271.852 631.193 271.725 630.16 271.725 628.88C271.725 627.613 271.872 626.607 272.165 625.86C272.458 625.1 272.932 624.56 273.585 624.24C274.252 623.907 275.118 623.74 276.185 623.74C276.465 623.74 276.792 623.76 277.165 623.8C277.538 623.84 277.912 623.893 278.285 623.96C278.672 624.013 278.998 624.067 279.265 624.12L279.165 626.26C278.912 626.233 278.625 626.213 278.305 626.2C277.985 626.173 277.672 626.153 277.365 626.14C277.072 626.113 276.832 626.1 276.645 626.1C276.072 626.1 275.618 626.193 275.285 626.38C274.965 626.553 274.738 626.847 274.605 627.26C274.485 627.66 274.425 628.2 274.425 628.88C274.425 629.613 274.485 630.2 274.605 630.64C274.725 631.08 274.938 631.393 275.245 631.58C275.565 631.767 276.032 631.86 276.645 631.86C276.832 631.86 277.078 631.853 277.385 631.84C277.692 631.813 278.005 631.787 278.325 631.76C278.658 631.733 278.952 631.713 279.205 631.7L279.285 633.84C279.018 633.893 278.698 633.947 278.325 634C277.952 634.067 277.572 634.12 277.185 634.16C276.812 634.2 276.472 634.22 276.165 634.22ZM276.505 638.46C276.118 638.46 275.732 638.44 275.345 638.4C274.972 638.373 274.678 638.333 274.465 638.28L274.525 637.08C274.605 637.093 274.778 637.1 275.045 637.1C275.325 637.113 275.545 637.12 275.705 637.12C275.985 637.12 276.192 637.067 276.325 636.96C276.458 636.867 276.525 636.713 276.525 636.5C276.525 636.273 276.458 636.12 276.325 636.04C276.192 635.973 275.985 635.94 275.705 635.94H275.125V633.9H276.205V634.84C276.765 634.84 277.225 634.887 277.585 634.98C277.945 635.073 278.212 635.233 278.385 635.46C278.558 635.7 278.645 636.047 278.645 636.5C278.645 637.193 278.452 637.693 278.065 638C277.692 638.307 277.172 638.46 276.505 638.46ZM283.63 634.22C282.59 634.22 281.803 633.96 281.27 633.44C280.75 632.907 280.49 632.107 280.49 631.04C280.49 630.293 280.623 629.713 280.89 629.3C281.157 628.873 281.55 628.567 282.07 628.38C282.603 628.18 283.25 628.06 284.01 628.02L286.45 627.8V627.2C286.45 626.72 286.33 626.387 286.09 626.2C285.85 626 285.497 625.9 285.03 625.9C284.657 625.9 284.223 625.913 283.73 625.94C283.25 625.967 282.77 626 282.29 626.04C281.823 626.08 281.417 626.12 281.07 626.16L280.99 624.28C281.337 624.2 281.75 624.12 282.23 624.04C282.723 623.947 283.237 623.873 283.77 623.82C284.303 623.767 284.797 623.74 285.25 623.74C286.103 623.74 286.817 623.847 287.39 624.06C287.963 624.273 288.397 624.627 288.69 625.12C288.983 625.6 289.13 626.253 289.13 627.08V631.66C289.157 631.847 289.257 631.993 289.43 632.1C289.603 632.193 289.803 632.26 290.03 632.3L289.97 634.14C289.757 634.14 289.543 634.14 289.33 634.14C289.13 634.153 288.937 634.153 288.75 634.14C288.563 634.14 288.397 634.127 288.25 634.1C287.943 634.06 287.677 633.98 287.45 633.86C287.237 633.74 287.063 633.613 286.93 633.48C286.717 633.573 286.43 633.68 286.07 633.8C285.71 633.92 285.317 634.02 284.89 634.1C284.477 634.18 284.057 634.22 283.63 634.22ZM284.27 632.24C284.523 632.24 284.79 632.213 285.07 632.16C285.35 632.107 285.61 632.047 285.85 631.98C286.103 631.9 286.303 631.827 286.45 631.76V629.46L284.41 629.64C283.97 629.68 283.65 629.813 283.45 630.04C283.263 630.253 283.17 630.56 283.17 630.96C283.17 631.36 283.257 631.673 283.43 631.9C283.617 632.127 283.897 632.24 284.27 632.24ZM286.39 622.26C286.177 622.26 285.937 622.22 285.67 622.14C285.403 622.047 285.137 621.94 284.87 621.82C284.603 621.7 284.35 621.593 284.11 621.5C283.883 621.407 283.69 621.36 283.53 621.36C283.343 621.36 283.097 621.453 282.79 621.64C282.497 621.813 282.237 621.987 282.01 622.16L281.57 620.66C281.73 620.5 281.917 620.333 282.13 620.16C282.343 619.987 282.57 619.84 282.81 619.72C283.063 619.587 283.297 619.52 283.51 619.52C283.75 619.52 284.003 619.567 284.27 619.66C284.537 619.753 284.797 619.86 285.05 619.98C285.317 620.087 285.563 620.187 285.79 620.28C286.017 620.373 286.203 620.42 286.35 620.42C286.51 620.42 286.743 620.333 287.05 620.16C287.357 619.987 287.617 619.813 287.83 619.64L288.29 621.16C288.143 621.32 287.963 621.487 287.75 621.66C287.537 621.833 287.31 621.98 287.07 622.1C286.843 622.207 286.617 622.26 286.39 622.26ZM295.799 634.22C294.666 634.22 293.752 634.033 293.059 633.66C292.379 633.287 291.886 632.713 291.579 631.94C291.272 631.153 291.119 630.14 291.119 628.9C291.119 627.7 291.279 626.727 291.599 625.98C291.919 625.22 292.426 624.66 293.119 624.3C293.812 623.927 294.706 623.74 295.799 623.74C296.906 623.74 297.799 623.927 298.479 624.3C299.172 624.66 299.679 625.22 299.999 625.98C300.332 626.727 300.499 627.7 300.499 628.9C300.499 630.14 300.346 631.153 300.039 631.94C299.732 632.713 299.232 633.287 298.539 633.66C297.859 634.033 296.946 634.22 295.799 634.22ZM295.799 632.02C296.359 632.02 296.779 631.92 297.059 631.72C297.339 631.507 297.526 631.173 297.619 630.72C297.726 630.253 297.779 629.647 297.779 628.9C297.779 628.167 297.719 627.587 297.599 627.16C297.479 626.72 297.279 626.407 296.999 626.22C296.719 626.033 296.319 625.94 295.799 625.94C295.292 625.94 294.892 626.033 294.599 626.22C294.319 626.407 294.119 626.72 293.999 627.16C293.879 627.587 293.819 628.167 293.819 628.9C293.819 629.647 293.866 630.253 293.959 630.72C294.066 631.173 294.259 631.507 294.539 631.72C294.819 631.92 295.239 632.02 295.799 632.02Z" fill="#1B1B1B"/>
<path d="M88.9035 659L84.5635 649.2H85.6835L89.7435 658.426H89.1275L93.2155 649.2H94.2655L89.9255 659H88.9035ZM95.1907 659V651.65H96.1847V659H95.1907ZM94.7847 650.502L96.7027 648.766H98.0327L95.7647 650.502H94.7847ZM101.876 659.07C101.176 659.07 100.546 658.911 99.9865 658.594C99.4358 658.277 99.0018 657.838 98.6845 657.278C98.3671 656.709 98.2085 656.055 98.2085 655.318C98.2085 654.571 98.3671 653.918 98.6845 653.358C99.0018 652.798 99.4358 652.364 99.9865 652.056C100.546 651.739 101.176 651.58 101.876 651.58C102.52 651.58 103.094 651.725 103.598 652.014C104.112 652.303 104.518 652.728 104.816 653.288C105.124 653.839 105.278 654.515 105.278 655.318C105.278 656.111 105.129 656.788 104.83 657.348C104.532 657.908 104.126 658.337 103.612 658.636C103.108 658.925 102.53 659.07 101.876 659.07ZM101.946 658.188C102.469 658.188 102.936 658.071 103.346 657.838C103.766 657.595 104.093 657.259 104.326 656.83C104.569 656.391 104.69 655.887 104.69 655.318C104.69 654.739 104.569 654.235 104.326 653.806C104.093 653.377 103.766 653.045 103.346 652.812C102.936 652.569 102.469 652.448 101.946 652.448C101.433 652.448 100.971 652.569 100.56 652.812C100.15 653.045 99.8231 653.377 99.5805 653.806C99.3378 654.235 99.2165 654.739 99.2165 655.318C99.2165 655.887 99.3378 656.391 99.5805 656.83C99.8231 657.259 100.15 657.595 100.56 657.838C100.971 658.071 101.433 658.188 101.946 658.188ZM104.718 659V656.788L104.816 655.304L104.676 653.82V648.612H105.67V659H104.718ZM111.561 659.07C110.795 659.07 110.123 658.911 109.545 658.594C108.966 658.267 108.513 657.824 108.187 657.264C107.86 656.695 107.697 656.046 107.697 655.318C107.697 654.59 107.851 653.946 108.159 653.386C108.476 652.826 108.905 652.387 109.447 652.07C109.997 651.743 110.613 651.58 111.295 651.58C111.985 651.58 112.597 651.739 113.129 652.056C113.67 652.364 114.095 652.803 114.403 653.372C114.711 653.932 114.865 654.581 114.865 655.318C114.865 655.365 114.86 655.416 114.851 655.472C114.851 655.519 114.851 655.57 114.851 655.626H108.453V654.884H114.319L113.927 655.178C113.927 654.646 113.81 654.175 113.577 653.764C113.353 653.344 113.045 653.017 112.653 652.784C112.261 652.551 111.808 652.434 111.295 652.434C110.791 652.434 110.338 652.551 109.937 652.784C109.535 653.017 109.223 653.344 108.999 653.764C108.775 654.184 108.663 654.665 108.663 655.206V655.36C108.663 655.92 108.784 656.415 109.027 656.844C109.279 657.264 109.624 657.595 110.063 657.838C110.511 658.071 111.019 658.188 111.589 658.188C112.037 658.188 112.452 658.109 112.835 657.95C113.227 657.791 113.563 657.549 113.843 657.222L114.403 657.866C114.076 658.258 113.665 658.557 113.171 658.762C112.685 658.967 112.149 659.07 111.561 659.07ZM119.884 659.07C119.175 659.07 118.535 658.911 117.966 658.594C117.406 658.267 116.963 657.824 116.636 657.264C116.309 656.695 116.146 656.046 116.146 655.318C116.146 654.581 116.309 653.932 116.636 653.372C116.963 652.812 117.406 652.373 117.966 652.056C118.526 651.739 119.165 651.58 119.884 651.58C120.612 651.58 121.256 651.739 121.816 652.056C122.385 652.373 122.829 652.812 123.146 653.372C123.473 653.932 123.636 654.581 123.636 655.318C123.636 656.046 123.473 656.695 123.146 657.264C122.829 657.824 122.385 658.267 121.816 658.594C121.247 658.911 120.603 659.07 119.884 659.07ZM119.884 658.188C120.416 658.188 120.887 658.071 121.298 657.838C121.709 657.595 122.031 657.259 122.264 656.83C122.507 656.391 122.628 655.887 122.628 655.318C122.628 654.739 122.507 654.235 122.264 653.806C122.031 653.377 121.709 653.045 121.298 652.812C120.887 652.569 120.421 652.448 119.898 652.448C119.375 652.448 118.909 652.569 118.498 652.812C118.087 653.045 117.761 653.377 117.518 653.806C117.275 654.235 117.154 654.739 117.154 655.318C117.154 655.887 117.275 656.391 117.518 656.83C117.761 657.259 118.087 657.595 118.498 657.838C118.909 658.071 119.371 658.188 119.884 658.188ZM127.639 659.07C127.033 659.07 126.459 658.986 125.917 658.818C125.376 658.641 124.951 658.421 124.643 658.16L125.091 657.376C125.39 657.6 125.773 657.796 126.239 657.964C126.706 658.123 127.196 658.202 127.709 658.202C128.409 658.202 128.913 658.095 129.221 657.88C129.529 657.656 129.683 657.362 129.683 656.998C129.683 656.727 129.595 656.517 129.417 656.368C129.249 656.209 129.025 656.093 128.745 656.018C128.465 655.934 128.153 655.864 127.807 655.808C127.462 655.752 127.117 655.687 126.771 655.612C126.435 655.537 126.127 655.43 125.847 655.29C125.567 655.141 125.339 654.94 125.161 654.688C124.993 654.436 124.909 654.1 124.909 653.68C124.909 653.279 125.021 652.919 125.245 652.602C125.469 652.285 125.796 652.037 126.225 651.86C126.664 651.673 127.196 651.58 127.821 651.58C128.297 651.58 128.773 651.645 129.249 651.776C129.725 651.897 130.117 652.061 130.425 652.266L129.991 653.064C129.665 652.84 129.315 652.681 128.941 652.588C128.568 652.485 128.195 652.434 127.821 652.434C127.159 652.434 126.669 652.551 126.351 652.784C126.043 653.008 125.889 653.297 125.889 653.652C125.889 653.932 125.973 654.151 126.141 654.31C126.319 654.469 126.547 654.595 126.827 654.688C127.117 654.772 127.429 654.842 127.765 654.898C128.111 654.954 128.451 655.024 128.787 655.108C129.133 655.183 129.445 655.29 129.725 655.43C130.015 655.561 130.243 655.752 130.411 656.004C130.589 656.247 130.677 656.569 130.677 656.97C130.677 657.399 130.556 657.773 130.313 658.09C130.08 658.398 129.735 658.641 129.277 658.818C128.829 658.986 128.283 659.07 127.639 659.07ZM131.899 661.044L132.515 658.454L132.627 659.056C132.413 659.056 132.231 658.986 132.081 658.846C131.941 658.706 131.871 658.524 131.871 658.3C131.871 658.076 131.941 657.894 132.081 657.754C132.231 657.614 132.408 657.544 132.613 657.544C132.828 657.544 133.001 657.619 133.131 657.768C133.271 657.917 133.341 658.095 133.341 658.3C133.341 658.375 133.337 658.449 133.327 658.524C133.318 658.599 133.299 658.683 133.271 658.776C133.243 658.869 133.206 658.981 133.159 659.112L132.571 661.044H131.899ZM141.456 659.07C140.765 659.07 140.233 658.883 139.86 658.51C139.487 658.137 139.3 657.609 139.3 656.928V650.026H140.294V656.872C140.294 657.301 140.401 657.633 140.616 657.866C140.84 658.099 141.157 658.216 141.568 658.216C142.007 658.216 142.371 658.09 142.66 657.838L143.01 658.552C142.814 658.729 142.576 658.86 142.296 658.944C142.025 659.028 141.745 659.07 141.456 659.07ZM137.984 652.476V651.65H142.534V652.476H137.984ZM147.858 659.07C147.232 659.07 146.686 658.953 146.22 658.72C145.753 658.487 145.389 658.137 145.128 657.67C144.876 657.203 144.75 656.62 144.75 655.92V651.65H145.744V655.808C145.744 656.592 145.935 657.185 146.318 657.586C146.71 657.978 147.256 658.174 147.956 658.174C148.469 658.174 148.912 658.071 149.286 657.866C149.668 657.651 149.958 657.343 150.154 656.942C150.359 656.541 150.462 656.06 150.462 655.5V651.65H151.456V659H150.504V656.984L150.658 657.348C150.424 657.889 150.06 658.314 149.566 658.622C149.08 658.921 148.511 659.07 147.858 659.07ZM156.55 659.07C155.859 659.07 155.327 658.883 154.954 658.51C154.581 658.137 154.394 657.609 154.394 656.928V650.026H155.388V656.872C155.388 657.301 155.495 657.633 155.71 657.866C155.934 658.099 156.251 658.216 156.662 658.216C157.101 658.216 157.465 658.09 157.754 657.838L158.104 658.552C157.908 658.729 157.67 658.86 157.39 658.944C157.119 659.028 156.839 659.07 156.55 659.07ZM153.078 652.476V651.65H157.628V652.476H153.078ZM162.65 659.07C161.94 659.07 161.301 658.911 160.732 658.594C160.172 658.267 159.728 657.824 159.402 657.264C159.075 656.695 158.912 656.046 158.912 655.318C158.912 654.581 159.075 653.932 159.402 653.372C159.728 652.812 160.172 652.373 160.732 652.056C161.292 651.739 161.931 651.58 162.65 651.58C163.378 651.58 164.022 651.739 164.582 652.056C165.151 652.373 165.594 652.812 165.912 653.372C166.238 653.932 166.402 654.581 166.402 655.318C166.402 656.046 166.238 656.695 165.912 657.264C165.594 657.824 165.151 658.267 164.582 658.594C164.012 658.911 163.368 659.07 162.65 659.07ZM162.65 658.188C163.182 658.188 163.653 658.071 164.064 657.838C164.474 657.595 164.796 657.259 165.03 656.83C165.272 656.391 165.394 655.887 165.394 655.318C165.394 654.739 165.272 654.235 165.03 653.806C164.796 653.377 164.474 653.045 164.064 652.812C163.653 652.569 163.186 652.448 162.664 652.448C162.141 652.448 161.674 652.569 161.264 652.812C160.853 653.045 160.526 653.377 160.284 653.806C160.041 654.235 159.92 654.739 159.92 655.318C159.92 655.887 160.041 656.391 160.284 656.83C160.526 657.259 160.853 657.595 161.264 657.838C161.674 658.071 162.136 658.188 162.65 658.188ZM168.431 659V651.65H169.383V653.652L169.285 653.302C169.49 652.742 169.836 652.317 170.321 652.028C170.806 651.729 171.408 651.58 172.127 651.58V652.546C172.09 652.546 172.052 652.546 172.015 652.546C171.978 652.537 171.94 652.532 171.903 652.532C171.128 652.532 170.522 652.77 170.083 653.246C169.644 653.713 169.425 654.38 169.425 655.248V659H168.431ZM173.941 659V651.65H174.935V659H173.941ZM174.445 650.026C174.239 650.026 174.067 649.956 173.927 649.816C173.787 649.676 173.717 649.508 173.717 649.312C173.717 649.116 173.787 648.953 173.927 648.822C174.067 648.682 174.239 648.612 174.445 648.612C174.65 648.612 174.823 648.677 174.963 648.808C175.103 648.939 175.173 649.102 175.173 649.298C175.173 649.503 175.103 649.676 174.963 649.816C174.832 649.956 174.659 650.026 174.445 650.026ZM182.306 659V657.376L182.264 657.11V654.394C182.264 653.769 182.087 653.288 181.732 652.952C181.387 652.616 180.869 652.448 180.178 652.448C179.702 652.448 179.25 652.527 178.82 652.686C178.391 652.845 178.027 653.055 177.728 653.316L177.28 652.574C177.654 652.257 178.102 652.014 178.624 651.846C179.147 651.669 179.698 651.58 180.276 651.58C181.228 651.58 181.961 651.818 182.474 652.294C182.997 652.761 183.258 653.475 183.258 654.436V659H182.306ZM179.772 659.07C179.222 659.07 178.741 658.981 178.33 658.804C177.929 658.617 177.621 658.365 177.406 658.048C177.192 657.721 177.084 657.348 177.084 656.928C177.084 656.545 177.173 656.2 177.35 655.892C177.537 655.575 177.836 655.323 178.246 655.136C178.666 654.94 179.226 654.842 179.926 654.842H182.46V655.584H179.954C179.245 655.584 178.75 655.71 178.47 655.962C178.2 656.214 178.064 656.527 178.064 656.9C178.064 657.32 178.228 657.656 178.554 657.908C178.881 658.16 179.338 658.286 179.926 658.286C180.486 658.286 180.967 658.16 181.368 657.908C181.779 657.647 182.078 657.273 182.264 656.788L182.488 657.474C182.302 657.959 181.975 658.347 181.508 658.636C181.051 658.925 180.472 659.07 179.772 659.07ZM185.958 659V651.65H186.952V659H185.958ZM186.462 650.026C186.257 650.026 186.084 649.956 185.944 649.816C185.804 649.676 185.734 649.508 185.734 649.312C185.734 649.116 185.804 648.953 185.944 648.822C186.084 648.682 186.257 648.612 186.462 648.612C186.668 648.612 186.84 648.677 186.98 648.808C187.12 648.939 187.19 649.102 187.19 649.298C187.19 649.503 187.12 649.676 186.98 649.816C186.85 649.956 186.677 650.026 186.462 650.026ZM191.692 659.07C191.085 659.07 190.511 658.986 189.97 658.818C189.429 658.641 189.004 658.421 188.696 658.16L189.144 657.376C189.443 657.6 189.825 657.796 190.292 657.964C190.759 658.123 191.249 658.202 191.762 658.202C192.462 658.202 192.966 658.095 193.274 657.88C193.582 657.656 193.736 657.362 193.736 656.998C193.736 656.727 193.647 656.517 193.47 656.368C193.302 656.209 193.078 656.093 192.798 656.018C192.518 655.934 192.205 655.864 191.86 655.808C191.515 655.752 191.169 655.687 190.824 655.612C190.488 655.537 190.18 655.43 189.9 655.29C189.62 655.141 189.391 654.94 189.214 654.688C189.046 654.436 188.962 654.1 188.962 653.68C188.962 653.279 189.074 652.919 189.298 652.602C189.522 652.285 189.849 652.037 190.278 651.86C190.717 651.673 191.249 651.58 191.874 651.58C192.35 651.58 192.826 651.645 193.302 651.776C193.778 651.897 194.17 652.061 194.478 652.266L194.044 653.064C193.717 652.84 193.367 652.681 192.994 652.588C192.621 652.485 192.247 652.434 191.874 652.434C191.211 652.434 190.721 652.551 190.404 652.784C190.096 653.008 189.942 653.297 189.942 653.652C189.942 653.932 190.026 654.151 190.194 654.31C190.371 654.469 190.6 654.595 190.88 654.688C191.169 654.772 191.482 654.842 191.818 654.898C192.163 654.954 192.504 655.024 192.84 655.108C193.185 655.183 193.498 655.29 193.778 655.43C194.067 655.561 194.296 655.752 194.464 656.004C194.641 656.247 194.73 656.569 194.73 656.97C194.73 657.399 194.609 657.773 194.366 658.09C194.133 658.398 193.787 658.641 193.33 658.818C192.882 658.986 192.336 659.07 191.692 659.07ZM203.34 659.07C202.575 659.07 201.903 658.911 201.324 658.594C200.745 658.267 200.293 657.824 199.966 657.264C199.639 656.695 199.476 656.046 199.476 655.318C199.476 654.59 199.63 653.946 199.938 653.386C200.255 652.826 200.685 652.387 201.226 652.07C201.777 651.743 202.393 651.58 203.074 651.58C203.765 651.58 204.376 651.739 204.908 652.056C205.449 652.364 205.874 652.803 206.182 653.372C206.49 653.932 206.644 654.581 206.644 655.318C206.644 655.365 206.639 655.416 206.63 655.472C206.63 655.519 206.63 655.57 206.63 655.626H200.232V654.884H206.098L205.706 655.178C205.706 654.646 205.589 654.175 205.356 653.764C205.132 653.344 204.824 653.017 204.432 652.784C204.04 652.551 203.587 652.434 203.074 652.434C202.57 652.434 202.117 652.551 201.716 652.784C201.315 653.017 201.002 653.344 200.778 653.764C200.554 654.184 200.442 654.665 200.442 655.206V655.36C200.442 655.92 200.563 656.415 200.806 656.844C201.058 657.264 201.403 657.595 201.842 657.838C202.29 658.071 202.799 658.188 203.368 658.188C203.816 658.188 204.231 658.109 204.614 657.95C205.006 657.791 205.342 657.549 205.622 657.222L206.182 657.866C205.855 658.258 205.445 658.557 204.95 658.762C204.465 658.967 203.928 659.07 203.34 659.07ZM213.829 659L211.057 651.65H212.009L214.529 658.468H214.095L216.685 651.65H217.539L220.101 658.468H219.667L222.229 651.65H223.139L220.353 659H219.415L216.951 652.588H217.245L214.767 659H213.829ZM227.553 659.07C226.788 659.07 226.116 658.911 225.537 658.594C224.958 658.267 224.506 657.824 224.179 657.264C223.852 656.695 223.689 656.046 223.689 655.318C223.689 654.59 223.843 653.946 224.151 653.386C224.468 652.826 224.898 652.387 225.439 652.07C225.99 651.743 226.606 651.58 227.287 651.58C227.978 651.58 228.589 651.739 229.121 652.056C229.662 652.364 230.087 652.803 230.395 653.372C230.703 653.932 230.857 654.581 230.857 655.318C230.857 655.365 230.852 655.416 230.843 655.472C230.843 655.519 230.843 655.57 230.843 655.626H224.445V654.884H230.311L229.919 655.178C229.919 654.646 229.802 654.175 229.569 653.764C229.345 653.344 229.037 653.017 228.645 652.784C228.253 652.551 227.8 652.434 227.287 652.434C226.783 652.434 226.33 652.551 225.929 652.784C225.528 653.017 225.215 653.344 224.991 653.764C224.767 654.184 224.655 654.665 224.655 655.206V655.36C224.655 655.92 224.776 656.415 225.019 656.844C225.271 657.264 225.616 657.595 226.055 657.838C226.503 658.071 227.012 658.188 227.581 658.188C228.029 658.188 228.444 658.109 228.827 657.95C229.219 657.791 229.555 657.549 229.835 657.222L230.395 657.866C230.068 658.258 229.658 658.557 229.163 658.762C228.678 658.967 228.141 659.07 227.553 659.07ZM236.674 659.07C236.03 659.07 235.451 658.925 234.938 658.636C234.425 658.337 234.019 657.908 233.72 657.348C233.421 656.788 233.272 656.111 233.272 655.318C233.272 654.515 233.421 653.839 233.72 653.288C234.028 652.728 234.439 652.303 234.952 652.014C235.465 651.725 236.039 651.58 236.674 651.58C237.374 651.58 237.999 651.739 238.55 652.056C239.11 652.364 239.549 652.798 239.866 653.358C240.183 653.918 240.342 654.571 240.342 655.318C240.342 656.055 240.183 656.709 239.866 657.278C239.549 657.838 239.11 658.277 238.55 658.594C237.999 658.911 237.374 659.07 236.674 659.07ZM232.88 659V648.612H233.874V653.82L233.734 655.304L233.832 656.788V659H232.88ZM236.604 658.188C237.127 658.188 237.593 658.071 238.004 657.838C238.415 657.595 238.741 657.259 238.984 656.83C239.227 656.391 239.348 655.887 239.348 655.318C239.348 654.739 239.227 654.235 238.984 653.806C238.741 653.377 238.415 653.045 238.004 652.812C237.593 652.569 237.127 652.448 236.604 652.448C236.081 652.448 235.61 652.569 235.19 652.812C234.779 653.045 234.453 653.377 234.21 653.806C233.977 654.235 233.86 654.739 233.86 655.318C233.86 655.887 233.977 656.391 234.21 656.83C234.453 657.259 234.779 657.595 235.19 657.838C235.61 658.071 236.081 658.188 236.604 658.188ZM242.368 659V651.65H243.362V659H242.368ZM242.872 650.026C242.667 650.026 242.494 649.956 242.354 649.816C242.214 649.676 242.144 649.508 242.144 649.312C242.144 649.116 242.214 648.953 242.354 648.822C242.494 648.682 242.667 648.612 242.872 648.612C243.078 648.612 243.25 648.677 243.39 648.808C243.53 648.939 243.6 649.102 243.6 649.298C243.6 649.503 243.53 649.676 243.39 649.816C243.26 649.956 243.087 650.026 242.872 650.026ZM249.88 651.58C250.478 651.58 251 651.697 251.448 651.93C251.906 652.154 252.26 652.499 252.512 652.966C252.774 653.433 252.904 654.021 252.904 654.73V659H251.91V654.828C251.91 654.053 251.714 653.47 251.322 653.078C250.94 652.677 250.398 652.476 249.698 652.476C249.176 652.476 248.718 652.583 248.326 652.798C247.944 653.003 247.645 653.307 247.43 653.708C247.225 654.1 247.122 654.576 247.122 655.136V659H246.128V651.65H247.08V653.666L246.926 653.288C247.16 652.756 247.533 652.341 248.046 652.042C248.56 651.734 249.171 651.58 249.88 651.58ZM260.195 659V657.376L260.153 657.11V654.394C260.153 653.769 259.976 653.288 259.621 652.952C259.276 652.616 258.758 652.448 258.067 652.448C257.591 652.448 257.138 652.527 256.709 652.686C256.28 652.845 255.916 653.055 255.617 653.316L255.169 652.574C255.542 652.257 255.99 652.014 256.513 651.846C257.036 651.669 257.586 651.58 258.165 651.58C259.117 651.58 259.85 651.818 260.363 652.294C260.886 652.761 261.147 653.475 261.147 654.436V659H260.195ZM257.661 659.07C257.11 659.07 256.63 658.981 256.219 658.804C255.818 658.617 255.51 658.365 255.295 658.048C255.08 657.721 254.973 657.348 254.973 656.928C254.973 656.545 255.062 656.2 255.239 655.892C255.426 655.575 255.724 655.323 256.135 655.136C256.555 654.94 257.115 654.842 257.815 654.842H260.349V655.584H257.843C257.134 655.584 256.639 655.71 256.359 655.962C256.088 656.214 255.953 656.527 255.953 656.9C255.953 657.32 256.116 657.656 256.443 657.908C256.77 658.16 257.227 658.286 257.815 658.286C258.375 658.286 258.856 658.16 259.257 657.908C259.668 657.647 259.966 657.273 260.153 656.788L260.377 657.474C260.19 657.959 259.864 658.347 259.397 658.636C258.94 658.925 258.361 659.07 257.661 659.07ZM263.847 659V651.65H264.799V653.652L264.701 653.302C264.906 652.742 265.252 652.317 265.737 652.028C266.222 651.729 266.824 651.58 267.543 651.58V652.546C267.506 652.546 267.468 652.546 267.431 652.546C267.394 652.537 267.356 652.532 267.319 652.532C266.544 652.532 265.938 652.77 265.499 653.246C265.06 653.713 264.841 654.38 264.841 655.248V659H263.847ZM271.413 659.07C270.806 659.07 270.232 658.986 269.691 658.818C269.149 658.641 268.725 658.421 268.417 658.16L268.865 657.376C269.163 657.6 269.546 657.796 270.013 657.964C270.479 658.123 270.969 658.202 271.483 658.202C272.183 658.202 272.687 658.095 272.995 657.88C273.303 657.656 273.457 657.362 273.457 656.998C273.457 656.727 273.368 656.517 273.191 656.368C273.023 656.209 272.799 656.093 272.519 656.018C272.239 655.934 271.926 655.864 271.581 655.808C271.235 655.752 270.89 655.687 270.545 655.612C270.209 655.537 269.901 655.43 269.621 655.29C269.341 655.141 269.112 654.94 268.935 654.688C268.767 654.436 268.683 654.1 268.683 653.68C268.683 653.279 268.795 652.919 269.019 652.602C269.243 652.285 269.569 652.037 269.999 651.86C270.437 651.673 270.969 651.58 271.595 651.58C272.071 651.58 272.547 651.645 273.023 651.776C273.499 651.897 273.891 652.061 274.199 652.266L273.765 653.064C273.438 652.84 273.088 652.681 272.715 652.588C272.341 652.485 271.968 652.434 271.595 652.434C270.932 652.434 270.442 652.551 270.125 652.784C269.817 653.008 269.663 653.297 269.663 653.652C269.663 653.932 269.747 654.151 269.915 654.31C270.092 654.469 270.321 654.595 270.601 654.688C270.89 654.772 271.203 654.842 271.539 654.898C271.884 654.954 272.225 655.024 272.561 655.108C272.906 655.183 273.219 655.29 273.499 655.43C273.788 655.561 274.017 655.752 274.185 656.004C274.362 656.247 274.451 656.569 274.451 656.97C274.451 657.399 274.329 657.773 274.087 658.09C273.853 658.398 273.508 658.641 273.051 658.818C272.603 658.986 272.057 659.07 271.413 659.07ZM283.733 659.07C283.098 659.07 282.524 658.925 282.011 658.636C281.497 658.337 281.087 657.913 280.779 657.362C280.48 656.802 280.331 656.121 280.331 655.318C280.331 654.515 280.48 653.839 280.779 653.288C281.077 652.728 281.483 652.303 281.997 652.014C282.51 651.725 283.089 651.58 283.733 651.58C284.433 651.58 285.058 651.739 285.609 652.056C286.169 652.364 286.607 652.803 286.925 653.372C287.242 653.932 287.401 654.581 287.401 655.318C287.401 656.065 287.242 656.718 286.925 657.278C286.607 657.838 286.169 658.277 285.609 658.594C285.058 658.911 284.433 659.07 283.733 659.07ZM279.939 661.716V651.65H280.891V653.862L280.793 655.332L280.933 656.816V661.716H279.939ZM283.663 658.188C284.185 658.188 284.652 658.071 285.063 657.838C285.473 657.595 285.8 657.259 286.043 656.83C286.285 656.391 286.407 655.887 286.407 655.318C286.407 654.749 286.285 654.249 286.043 653.82C285.8 653.391 285.473 653.055 285.063 652.812C284.652 652.569 284.185 652.448 283.663 652.448C283.14 652.448 282.669 652.569 282.249 652.812C281.838 653.055 281.511 653.391 281.269 653.82C281.035 654.249 280.919 654.749 280.919 655.318C280.919 655.887 281.035 656.391 281.269 656.83C281.511 657.259 281.838 657.595 282.249 657.838C282.669 658.071 283.14 658.188 283.663 658.188ZM293.992 659V657.376L293.95 657.11V654.394C293.95 653.769 293.773 653.288 293.418 652.952C293.073 652.616 292.555 652.448 291.864 652.448C291.388 652.448 290.935 652.527 290.506 652.686C290.077 652.845 289.713 653.055 289.414 653.316L288.966 652.574C289.339 652.257 289.787 652.014 290.31 651.846C290.833 651.669 291.383 651.58 291.962 651.58C292.914 651.58 293.647 651.818 294.16 652.294C294.683 652.761 294.944 653.475 294.944 654.436V659H293.992ZM291.458 659.07C290.907 659.07 290.427 658.981 290.016 658.804C289.615 658.617 289.307 658.365 289.092 658.048C288.877 657.721 288.77 657.348 288.77 656.928C288.77 656.545 288.859 656.2 289.036 655.892C289.223 655.575 289.521 655.323 289.932 655.136C290.352 654.94 290.912 654.842 291.612 654.842H294.146V655.584H291.64C290.931 655.584 290.436 655.71 290.156 655.962C289.885 656.214 289.75 656.527 289.75 656.9C289.75 657.32 289.913 657.656 290.24 657.908C290.567 658.16 291.024 658.286 291.612 658.286C292.172 658.286 292.653 658.16 293.054 657.908C293.465 657.647 293.763 657.273 293.95 656.788L294.174 657.474C293.987 657.959 293.661 658.347 293.194 658.636C292.737 658.925 292.158 659.07 291.458 659.07ZM297.644 659V651.65H298.596V653.652L298.498 653.302C298.703 652.742 299.048 652.317 299.534 652.028C300.019 651.729 300.621 651.58 301.34 651.58V652.546C301.302 652.546 301.265 652.546 301.228 652.546C301.19 652.537 301.153 652.532 301.116 652.532C300.341 652.532 299.734 652.77 299.296 653.246C298.857 653.713 298.638 654.38 298.638 655.248V659H297.644ZM307.213 659V657.376L307.171 657.11V654.394C307.171 653.769 306.993 653.288 306.639 652.952C306.293 652.616 305.775 652.448 305.085 652.448C304.609 652.448 304.156 652.527 303.727 652.686C303.297 652.845 302.933 653.055 302.635 653.316L302.187 652.574C302.56 652.257 303.008 652.014 303.531 651.846C304.053 651.669 304.604 651.58 305.183 651.58C306.135 651.58 306.867 651.818 307.381 652.294C307.903 652.761 308.165 653.475 308.165 654.436V659H307.213ZM304.679 659.07C304.128 659.07 303.647 658.981 303.237 658.804C302.835 658.617 302.527 658.365 302.313 658.048C302.098 657.721 301.991 657.348 301.991 656.928C301.991 656.545 302.079 656.2 302.257 655.892C302.443 655.575 302.742 655.323 303.153 655.136C303.573 654.94 304.133 654.842 304.833 654.842H307.367V655.584H304.861C304.151 655.584 303.657 655.71 303.377 655.962C303.106 656.214 302.971 656.527 302.971 656.9C302.971 657.32 303.134 657.656 303.461 657.908C303.787 658.16 304.245 658.286 304.833 658.286C305.393 658.286 305.873 658.16 306.275 657.908C306.685 657.647 306.984 657.273 307.171 656.788L307.395 657.474C307.208 657.959 306.881 658.347 306.415 658.636C305.957 658.925 305.379 659.07 304.679 659.07ZM124.898 679V677.376L124.856 677.11V674.394C124.856 673.769 124.679 673.288 124.324 672.952C123.979 672.616 123.461 672.448 122.77 672.448C122.294 672.448 121.842 672.527 121.412 672.686C120.983 672.845 120.619 673.055 120.32 673.316L119.872 672.574C120.246 672.257 120.694 672.014 121.216 671.846C121.739 671.669 122.29 671.58 122.868 671.58C123.82 671.58 124.553 671.818 125.066 672.294C125.589 672.761 125.85 673.475 125.85 674.436V679H124.898ZM122.364 679.07C121.814 679.07 121.333 678.981 120.922 678.804C120.521 678.617 120.213 678.365 119.998 678.048C119.784 677.721 119.676 677.348 119.676 676.928C119.676 676.545 119.765 676.2 119.942 675.892C120.129 675.575 120.428 675.323 120.838 675.136C121.258 674.94 121.818 674.842 122.518 674.842H125.052V675.584H122.546C121.837 675.584 121.342 675.71 121.062 675.962C120.792 676.214 120.656 676.527 120.656 676.9C120.656 677.32 120.82 677.656 121.146 677.908C121.473 678.16 121.93 678.286 122.518 678.286C123.078 678.286 123.559 678.16 123.96 677.908C124.371 677.647 124.67 677.273 124.856 676.788L125.08 677.474C124.894 677.959 124.567 678.347 124.1 678.636C123.643 678.925 123.064 679.07 122.364 679.07ZM130.524 679.07C129.917 679.07 129.343 678.986 128.802 678.818C128.261 678.641 127.836 678.421 127.528 678.16L127.976 677.376C128.275 677.6 128.657 677.796 129.124 677.964C129.591 678.123 130.081 678.202 130.594 678.202C131.294 678.202 131.798 678.095 132.106 677.88C132.414 677.656 132.568 677.362 132.568 676.998C132.568 676.727 132.479 676.517 132.302 676.368C132.134 676.209 131.91 676.093 131.63 676.018C131.35 675.934 131.037 675.864 130.692 675.808C130.347 675.752 130.001 675.687 129.656 675.612C129.32 675.537 129.012 675.43 128.732 675.29C128.452 675.141 128.223 674.94 128.046 674.688C127.878 674.436 127.794 674.1 127.794 673.68C127.794 673.279 127.906 672.919 128.13 672.602C128.354 672.285 128.681 672.037 129.11 671.86C129.549 671.673 130.081 671.58 130.706 671.58C131.182 671.58 131.658 671.645 132.134 671.776C132.61 671.897 133.002 672.061 133.31 672.266L132.876 673.064C132.549 672.84 132.199 672.681 131.826 672.588C131.453 672.485 131.079 672.434 130.706 672.434C130.043 672.434 129.553 672.551 129.236 672.784C128.928 673.008 128.774 673.297 128.774 673.652C128.774 673.932 128.858 674.151 129.026 674.31C129.203 674.469 129.432 674.595 129.712 674.688C130.001 674.772 130.314 674.842 130.65 674.898C130.995 674.954 131.336 675.024 131.672 675.108C132.017 675.183 132.33 675.29 132.61 675.43C132.899 675.561 133.128 675.752 133.296 676.004C133.473 676.247 133.562 676.569 133.562 676.97C133.562 677.399 133.441 677.773 133.198 678.09C132.965 678.398 132.619 678.641 132.162 678.818C131.714 678.986 131.168 679.07 130.524 679.07ZM137.36 679.07C136.753 679.07 136.179 678.986 135.638 678.818C135.097 678.641 134.672 678.421 134.364 678.16L134.812 677.376C135.111 677.6 135.493 677.796 135.96 677.964C136.427 678.123 136.917 678.202 137.43 678.202C138.13 678.202 138.634 678.095 138.942 677.88C139.25 677.656 139.404 677.362 139.404 676.998C139.404 676.727 139.315 676.517 139.138 676.368C138.97 676.209 138.746 676.093 138.466 676.018C138.186 675.934 137.873 675.864 137.528 675.808C137.183 675.752 136.837 675.687 136.492 675.612C136.156 675.537 135.848 675.43 135.568 675.29C135.288 675.141 135.059 674.94 134.882 674.688C134.714 674.436 134.63 674.1 134.63 673.68C134.63 673.279 134.742 672.919 134.966 672.602C135.19 672.285 135.517 672.037 135.946 671.86C136.385 671.673 136.917 671.58 137.542 671.58C138.018 671.58 138.494 671.645 138.97 671.776C139.446 671.897 139.838 672.061 140.146 672.266L139.712 673.064C139.385 672.84 139.035 672.681 138.662 672.588C138.289 672.485 137.915 672.434 137.542 672.434C136.879 672.434 136.389 672.551 136.072 672.784C135.764 673.008 135.61 673.297 135.61 673.652C135.61 673.932 135.694 674.151 135.862 674.31C136.039 674.469 136.268 674.595 136.548 674.688C136.837 674.772 137.15 674.842 137.486 674.898C137.831 674.954 138.172 675.024 138.508 675.108C138.853 675.183 139.166 675.29 139.446 675.43C139.735 675.561 139.964 675.752 140.132 676.004C140.309 676.247 140.398 676.569 140.398 676.97C140.398 677.399 140.277 677.773 140.034 678.09C139.801 678.398 139.455 678.641 138.998 678.818C138.55 678.986 138.004 679.07 137.36 679.07ZM142.222 679V671.65H143.216V679H142.222ZM142.726 670.026C142.521 670.026 142.348 669.956 142.208 669.816C142.068 669.676 141.998 669.508 141.998 669.312C141.998 669.116 142.068 668.953 142.208 668.822C142.348 668.682 142.521 668.612 142.726 668.612C142.931 668.612 143.104 668.677 143.244 668.808C143.384 668.939 143.454 669.102 143.454 669.298C143.454 669.503 143.384 669.676 143.244 669.816C143.113 669.956 142.941 670.026 142.726 670.026ZM147.956 679.07C147.349 679.07 146.775 678.986 146.234 678.818C145.692 678.641 145.268 678.421 144.96 678.16L145.408 677.376C145.706 677.6 146.089 677.796 146.556 677.964C147.022 678.123 147.512 678.202 148.026 678.202C148.726 678.202 149.23 678.095 149.538 677.88C149.846 677.656 150 677.362 150 676.998C150 676.727 149.911 676.517 149.734 676.368C149.566 676.209 149.342 676.093 149.062 676.018C148.782 675.934 148.469 675.864 148.124 675.808C147.778 675.752 147.433 675.687 147.088 675.612C146.752 675.537 146.444 675.43 146.164 675.29C145.884 675.141 145.655 674.94 145.478 674.688C145.31 674.436 145.226 674.1 145.226 673.68C145.226 673.279 145.338 672.919 145.562 672.602C145.786 672.285 146.112 672.037 146.542 671.86C146.98 671.673 147.512 671.58 148.138 671.58C148.614 671.58 149.09 671.645 149.566 671.776C150.042 671.897 150.434 672.061 150.742 672.266L150.308 673.064C149.981 672.84 149.631 672.681 149.258 672.588C148.884 672.485 148.511 672.434 148.138 672.434C147.475 672.434 146.985 672.551 146.668 672.784C146.36 673.008 146.206 673.297 146.206 673.652C146.206 673.932 146.29 674.151 146.458 674.31C146.635 674.469 146.864 674.595 147.144 674.688C147.433 674.772 147.746 674.842 148.082 674.898C148.427 674.954 148.768 675.024 149.104 675.108C149.449 675.183 149.762 675.29 150.042 675.43C150.331 675.561 150.56 675.752 150.728 676.004C150.905 676.247 150.994 676.569 150.994 676.97C150.994 677.399 150.872 677.773 150.63 678.09C150.396 678.398 150.051 678.641 149.594 678.818C149.146 678.986 148.6 679.07 147.956 679.07ZM155.142 679.07C154.451 679.07 153.919 678.883 153.546 678.51C153.172 678.137 152.986 677.609 152.986 676.928V670.026H153.98V676.872C153.98 677.301 154.087 677.633 154.302 677.866C154.526 678.099 154.843 678.216 155.254 678.216C155.692 678.216 156.056 678.09 156.346 677.838L156.696 678.552C156.5 678.729 156.262 678.86 155.982 678.944C155.711 679.028 155.431 679.07 155.142 679.07ZM151.67 672.476V671.65H156.22V672.476H151.67ZM158.505 679V671.65H159.499V679H158.505ZM159.009 670.026C158.804 670.026 158.631 669.956 158.491 669.816C158.351 669.676 158.281 669.508 158.281 669.312C158.281 669.116 158.351 668.953 158.491 668.822C158.631 668.682 158.804 668.612 159.009 668.612C159.214 668.612 159.387 668.677 159.527 668.808C159.667 668.939 159.737 669.102 159.737 669.298C159.737 669.503 159.667 669.676 159.527 669.816C159.396 669.956 159.224 670.026 159.009 670.026ZM162.265 679V671.65H163.217V673.652L163.119 673.302C163.324 672.742 163.67 672.317 164.155 672.028C164.64 671.729 165.242 671.58 165.961 671.58V672.546C165.924 672.546 165.886 672.546 165.849 672.546C165.812 672.537 165.774 672.532 165.737 672.532C164.962 672.532 164.356 672.77 163.917 673.246C163.478 673.713 163.259 674.38 163.259 675.248V679H162.265ZM174.474 679.07C173.774 679.07 173.144 678.911 172.584 678.594C172.033 678.277 171.599 677.838 171.282 677.278C170.965 676.718 170.806 676.065 170.806 675.318C170.806 674.581 170.965 673.932 171.282 673.372C171.599 672.803 172.033 672.364 172.584 672.056C173.144 671.739 173.774 671.58 174.474 671.58C175.127 671.58 175.706 671.725 176.21 672.014C176.723 672.303 177.129 672.728 177.428 673.288C177.727 673.839 177.876 674.515 177.876 675.318C177.876 676.121 177.722 676.802 177.414 677.362C177.115 677.913 176.709 678.337 176.196 678.636C175.692 678.925 175.118 679.07 174.474 679.07ZM174.544 678.188C175.067 678.188 175.533 678.071 175.944 677.838C176.364 677.595 176.691 677.259 176.924 676.83C177.167 676.391 177.288 675.887 177.288 675.318C177.288 674.749 177.167 674.249 176.924 673.82C176.691 673.391 176.364 673.055 175.944 672.812C175.533 672.569 175.067 672.448 174.544 672.448C174.031 672.448 173.569 672.569 173.158 672.812C172.747 673.055 172.421 673.391 172.178 673.82C171.935 674.249 171.814 674.749 171.814 675.318C171.814 675.887 171.935 676.391 172.178 676.83C172.421 677.259 172.747 677.595 173.158 677.838C173.569 678.071 174.031 678.188 174.544 678.188ZM177.274 681.716V676.816L177.414 675.332L177.316 673.862V671.65H178.268V681.716H177.274ZM184.074 679.07C183.449 679.07 182.903 678.953 182.436 678.72C181.97 678.487 181.606 678.137 181.344 677.67C181.092 677.203 180.966 676.62 180.966 675.92V671.65H181.96V675.808C181.96 676.592 182.152 677.185 182.534 677.586C182.926 677.978 183.472 678.174 184.172 678.174C184.686 678.174 185.129 678.071 185.502 677.866C185.885 677.651 186.174 677.343 186.37 676.942C186.576 676.541 186.678 676.06 186.678 675.5V671.65H187.672V679H186.72V676.984L186.874 677.348C186.641 677.889 186.277 678.314 185.782 678.622C185.297 678.921 184.728 679.07 184.074 679.07ZM195.049 679V677.376L195.007 677.11V674.394C195.007 673.769 194.829 673.288 194.475 672.952C194.129 672.616 193.611 672.448 192.921 672.448C192.445 672.448 191.992 672.527 191.563 672.686C191.133 672.845 190.769 673.055 190.471 673.316L190.023 672.574C190.396 672.257 190.844 672.014 191.367 671.846C191.889 671.669 192.44 671.58 193.019 671.58C193.971 671.58 194.703 671.818 195.217 672.294C195.739 672.761 196.001 673.475 196.001 674.436V679H195.049ZM192.515 679.07C191.964 679.07 191.483 678.981 191.073 678.804C190.671 678.617 190.363 678.365 190.149 678.048C189.934 677.721 189.827 677.348 189.827 676.928C189.827 676.545 189.915 676.2 190.093 675.892C190.279 675.575 190.578 675.323 190.989 675.136C191.409 674.94 191.969 674.842 192.669 674.842H195.203V675.584H192.697C191.987 675.584 191.493 675.71 191.213 675.962C190.942 676.214 190.807 676.527 190.807 676.9C190.807 677.32 190.97 677.656 191.297 677.908C191.623 678.16 192.081 678.286 192.669 678.286C193.229 678.286 193.709 678.16 194.111 677.908C194.521 677.647 194.82 677.273 195.007 676.788L195.231 677.474C195.044 677.959 194.717 678.347 194.251 678.636C193.793 678.925 193.215 679.07 192.515 679.07ZM202.452 671.58C203.05 671.58 203.572 671.697 204.02 671.93C204.478 672.154 204.832 672.499 205.084 672.966C205.346 673.433 205.476 674.021 205.476 674.73V679H204.482V674.828C204.482 674.053 204.286 673.47 203.894 673.078C203.512 672.677 202.97 672.476 202.27 672.476C201.748 672.476 201.29 672.583 200.898 672.798C200.516 673.003 200.217 673.307 200.002 673.708C199.797 674.1 199.694 674.576 199.694 675.136V679H198.7V671.65H199.652V673.666L199.498 673.288C199.732 672.756 200.105 672.341 200.618 672.042C201.132 671.734 201.743 671.58 202.452 671.58ZM211.087 679.07C210.387 679.07 209.757 678.911 209.197 678.594C208.647 678.277 208.213 677.838 207.895 677.278C207.578 676.709 207.419 676.055 207.419 675.318C207.419 674.571 207.578 673.918 207.895 673.358C208.213 672.798 208.647 672.364 209.197 672.056C209.757 671.739 210.387 671.58 211.087 671.58C211.731 671.58 212.305 671.725 212.809 672.014C213.323 672.303 213.729 672.728 214.027 673.288C214.335 673.839 214.489 674.515 214.489 675.318C214.489 676.111 214.34 676.788 214.041 677.348C213.743 677.908 213.337 678.337 212.823 678.636C212.319 678.925 211.741 679.07 211.087 679.07ZM211.157 678.188C211.68 678.188 212.147 678.071 212.557 677.838C212.977 677.595 213.304 677.259 213.537 676.83C213.78 676.391 213.901 675.887 213.901 675.318C213.901 674.739 213.78 674.235 213.537 673.806C213.304 673.377 212.977 673.045 212.557 672.812C212.147 672.569 211.68 672.448 211.157 672.448C210.644 672.448 210.182 672.569 209.771 672.812C209.361 673.045 209.034 673.377 208.791 673.806C208.549 674.235 208.427 674.739 208.427 675.318C208.427 675.887 208.549 676.391 208.791 676.83C209.034 677.259 209.361 677.595 209.771 677.838C210.182 678.071 210.644 678.188 211.157 678.188ZM213.929 679V676.788L214.027 675.304L213.887 673.82V668.612H214.881V679H213.929ZM220.646 679.07C219.936 679.07 219.297 678.911 218.728 678.594C218.168 678.267 217.724 677.824 217.398 677.264C217.071 676.695 216.908 676.046 216.908 675.318C216.908 674.581 217.071 673.932 217.398 673.372C217.724 672.812 218.168 672.373 218.728 672.056C219.288 671.739 219.927 671.58 220.646 671.58C221.374 671.58 222.018 671.739 222.578 672.056C223.147 672.373 223.59 672.812 223.908 673.372C224.234 673.932 224.398 674.581 224.398 675.318C224.398 676.046 224.234 676.695 223.908 677.264C223.59 677.824 223.147 678.267 222.578 678.594C222.008 678.911 221.364 679.07 220.646 679.07ZM220.646 678.188C221.178 678.188 221.649 678.071 222.06 677.838C222.47 677.595 222.792 677.259 223.026 676.83C223.268 676.391 223.39 675.887 223.39 675.318C223.39 674.739 223.268 674.235 223.026 673.806C222.792 673.377 222.47 673.045 222.06 672.812C221.649 672.569 221.182 672.448 220.66 672.448C220.137 672.448 219.67 672.569 219.26 672.812C218.849 673.045 218.522 673.377 218.28 673.806C218.037 674.235 217.916 674.739 217.916 675.318C217.916 675.887 218.037 676.391 218.28 676.83C218.522 677.259 218.849 677.595 219.26 677.838C219.67 678.071 220.132 678.188 220.646 678.188ZM233.017 679.07C232.317 679.07 231.687 678.911 231.127 678.594C230.576 678.277 230.142 677.838 229.825 677.278C229.508 676.718 229.349 676.065 229.349 675.318C229.349 674.581 229.508 673.932 229.825 673.372C230.142 672.803 230.576 672.364 231.127 672.056C231.687 671.739 232.317 671.58 233.017 671.58C233.67 671.58 234.249 671.725 234.753 672.014C235.266 672.303 235.672 672.728 235.971 673.288C236.27 673.839 236.419 674.515 236.419 675.318C236.419 676.121 236.265 676.802 235.957 677.362C235.658 677.913 235.252 678.337 234.739 678.636C234.235 678.925 233.661 679.07 233.017 679.07ZM233.087 678.188C233.61 678.188 234.076 678.071 234.487 677.838C234.907 677.595 235.234 677.259 235.467 676.83C235.71 676.391 235.831 675.887 235.831 675.318C235.831 674.749 235.71 674.249 235.467 673.82C235.234 673.391 234.907 673.055 234.487 672.812C234.076 672.569 233.61 672.448 233.087 672.448C232.574 672.448 232.112 672.569 231.701 672.812C231.29 673.055 230.964 673.391 230.721 673.82C230.478 674.249 230.357 674.749 230.357 675.318C230.357 675.887 230.478 676.391 230.721 676.83C230.964 677.259 231.29 677.595 231.701 677.838C232.112 678.071 232.574 678.188 233.087 678.188ZM235.817 681.716V676.816L235.957 675.332L235.859 673.862V671.65H236.811V681.716H235.817ZM242.617 679.07C241.992 679.07 241.446 678.953 240.979 678.72C240.513 678.487 240.149 678.137 239.887 677.67C239.635 677.203 239.509 676.62 239.509 675.92V671.65H240.503V675.808C240.503 676.592 240.695 677.185 241.077 677.586C241.469 677.978 242.015 678.174 242.715 678.174C243.229 678.174 243.672 678.071 244.045 677.866C244.428 677.651 244.717 677.343 244.913 676.942C245.119 676.541 245.221 676.06 245.221 675.5V671.65H246.215V679H245.263V676.984L245.417 677.348C245.184 677.889 244.82 678.314 244.325 678.622C243.84 678.921 243.271 679.07 242.617 679.07ZM248.986 679V671.65H249.98V679H248.986ZM249.49 670.026C249.284 670.026 249.112 669.956 248.972 669.816C248.832 669.676 248.762 669.508 248.762 669.312C248.762 669.116 248.832 668.953 248.972 668.822C249.112 668.682 249.284 668.612 249.49 668.612C249.695 668.612 249.868 668.677 250.008 668.808C250.148 668.939 250.218 669.102 250.218 669.298C250.218 669.503 250.148 669.676 250.008 669.816C249.877 669.956 249.704 670.026 249.49 670.026ZM254.719 679.07C254.113 679.07 253.539 678.986 252.997 678.818C252.456 678.641 252.031 678.421 251.723 678.16L252.171 677.376C252.47 677.6 252.853 677.796 253.319 677.964C253.786 678.123 254.276 678.202 254.789 678.202C255.489 678.202 255.993 678.095 256.301 677.88C256.609 677.656 256.763 677.362 256.763 676.998C256.763 676.727 256.675 676.517 256.497 676.368C256.329 676.209 256.105 676.093 255.825 676.018C255.545 675.934 255.233 675.864 254.887 675.808C254.542 675.752 254.197 675.687 253.851 675.612C253.515 675.537 253.207 675.43 252.927 675.29C252.647 675.141 252.419 674.94 252.241 674.688C252.073 674.436 251.989 674.1 251.989 673.68C251.989 673.279 252.101 672.919 252.325 672.602C252.549 672.285 252.876 672.037 253.305 671.86C253.744 671.673 254.276 671.58 254.901 671.58C255.377 671.58 255.853 671.645 256.329 671.776C256.805 671.897 257.197 672.061 257.505 672.266L257.071 673.064C256.745 672.84 256.395 672.681 256.021 672.588C255.648 672.485 255.275 672.434 254.901 672.434C254.239 672.434 253.749 672.551 253.431 672.784C253.123 673.008 252.969 673.297 252.969 673.652C252.969 673.932 253.053 674.151 253.221 674.31C253.399 674.469 253.627 674.595 253.907 674.688C254.197 674.772 254.509 674.842 254.845 674.898C255.191 674.954 255.531 675.024 255.867 675.108C256.213 675.183 256.525 675.29 256.805 675.43C257.095 675.561 257.323 675.752 257.491 676.004C257.669 676.247 257.757 676.569 257.757 676.97C257.757 677.399 257.636 677.773 257.393 678.09C257.16 678.398 256.815 678.641 256.357 678.818C255.909 678.986 255.363 679.07 254.719 679.07ZM262.703 679.07C261.938 679.07 261.266 678.911 260.687 678.594C260.109 678.267 259.656 677.824 259.329 677.264C259.003 676.695 258.839 676.046 258.839 675.318C258.839 674.59 258.993 673.946 259.301 673.386C259.619 672.826 260.048 672.387 260.589 672.07C261.14 671.743 261.756 671.58 262.437 671.58C263.128 671.58 263.739 671.739 264.271 672.056C264.813 672.364 265.237 672.803 265.545 673.372C265.853 673.932 266.007 674.581 266.007 675.318C266.007 675.365 266.003 675.416 265.993 675.472C265.993 675.519 265.993 675.57 265.993 675.626H259.595V674.884H265.461L265.069 675.178C265.069 674.646 264.953 674.175 264.719 673.764C264.495 673.344 264.187 673.017 263.795 672.784C263.403 672.551 262.951 672.434 262.437 672.434C261.933 672.434 261.481 672.551 261.079 672.784C260.678 673.017 260.365 673.344 260.141 673.764C259.917 674.184 259.805 674.665 259.805 675.206V675.36C259.805 675.92 259.927 676.415 260.169 676.844C260.421 677.264 260.767 677.595 261.205 677.838C261.653 678.071 262.162 678.188 262.731 678.188C263.179 678.188 263.595 678.109 263.977 677.95C264.369 677.791 264.705 677.549 264.985 677.222L265.545 677.866C265.219 678.258 264.808 678.557 264.313 678.762C263.828 678.967 263.291 679.07 262.703 679.07ZM268.031 679V671.65H268.983V673.652L268.885 673.302C269.09 672.742 269.435 672.317 269.921 672.028C270.406 671.729 271.008 671.58 271.727 671.58V672.546C271.689 672.546 271.652 672.546 271.615 672.546C271.577 672.537 271.54 672.532 271.503 672.532C270.728 672.532 270.121 672.77 269.683 673.246C269.244 673.713 269.025 674.38 269.025 675.248V679H268.031ZM273.611 679.07C273.406 679.07 273.228 678.995 273.079 678.846C272.939 678.697 272.869 678.515 272.869 678.3C272.869 678.076 272.939 677.894 273.079 677.754C273.228 677.614 273.406 677.544 273.611 677.544C273.816 677.544 273.989 677.614 274.129 677.754C274.278 677.894 274.353 678.076 274.353 678.3C274.353 678.515 274.278 678.697 274.129 678.846C273.989 678.995 273.816 679.07 273.611 679.07Z" fill="#4C4C4C"/>
<circle cx="145" cy="720" r="4" fill="#ECF1F8"/>
<circle cx="161" cy="720" r="4" fill="#ECF1F8"/>
<circle cx="177" cy="720" r="4" fill="#ECF1F8"/>
<rect x="189" y="716" width="16" height="8" rx="4" fill="#2D77E3"/>
<circle cx="217" cy="720" r="4" fill="#ECF1F8"/>
<circle cx="233" cy="720" r="4" fill="#ECF1F8"/>
<circle cx="249" cy="720" r="4" fill="#ECF1F8"/>
<g filter="url(#filter0_d_43_656)">
<rect x="16" y="756" width="361" height="48" rx="12" fill="#2D77E3"/>
<path d="M167.944 786.176C167.091 786.176 166.387 786.069 165.832 785.856C165.288 785.632 164.856 785.291 164.536 784.832C164.216 784.373 163.992 783.792 163.864 783.088C163.747 782.373 163.688 781.525 163.688 780.544C163.688 779.552 163.747 778.704 163.864 778C163.992 777.285 164.216 776.699 164.536 776.24C164.856 775.781 165.293 775.44 165.848 775.216C166.413 774.992 167.133 774.88 168.008 774.88C168.36 774.88 168.728 774.901 169.112 774.944C169.496 774.987 169.864 775.04 170.216 775.104C170.579 775.157 170.888 775.216 171.144 775.28L171.08 777.04C170.867 776.997 170.6 776.96 170.28 776.928C169.96 776.885 169.635 776.853 169.304 776.832C168.973 776.811 168.664 776.8 168.376 776.8C167.864 776.8 167.448 776.864 167.128 776.992C166.808 777.12 166.557 777.333 166.376 777.632C166.205 777.931 166.088 778.32 166.024 778.8C165.96 779.269 165.928 779.851 165.928 780.544C165.928 781.227 165.96 781.808 166.024 782.288C166.088 782.757 166.205 783.141 166.376 783.44C166.547 783.728 166.792 783.941 167.112 784.08C167.443 784.208 167.869 784.272 168.392 784.272C168.819 784.272 169.288 784.251 169.8 784.208C170.323 784.155 170.755 784.107 171.096 784.064L171.144 785.808C170.888 785.861 170.584 785.92 170.232 785.984C169.88 786.037 169.507 786.08 169.112 786.112C168.717 786.155 168.328 786.176 167.944 786.176ZM175.836 786.176C174.929 786.176 174.199 786.027 173.644 785.728C173.1 785.429 172.705 784.971 172.46 784.352C172.215 783.723 172.092 782.912 172.092 781.92C172.092 780.96 172.22 780.181 172.476 779.584C172.732 778.976 173.137 778.528 173.692 778.24C174.247 777.941 174.961 777.792 175.836 777.792C176.721 777.792 177.436 777.941 177.98 778.24C178.535 778.528 178.94 778.976 179.196 779.584C179.463 780.181 179.596 780.96 179.596 781.92C179.596 782.912 179.473 783.723 179.228 784.352C178.983 784.971 178.583 785.429 178.028 785.728C177.484 786.027 176.753 786.176 175.836 786.176ZM175.836 784.416C176.284 784.416 176.62 784.336 176.844 784.176C177.068 784.005 177.217 783.739 177.292 783.376C177.377 783.003 177.42 782.517 177.42 781.92C177.42 781.333 177.372 780.869 177.276 780.528C177.18 780.176 177.02 779.925 176.796 779.776C176.572 779.627 176.252 779.552 175.836 779.552C175.431 779.552 175.111 779.627 174.876 779.776C174.652 779.925 174.492 780.176 174.396 780.528C174.3 780.869 174.252 781.333 174.252 781.92C174.252 782.517 174.289 783.003 174.364 783.376C174.449 783.739 174.604 784.005 174.828 784.176C175.052 784.336 175.388 784.416 175.836 784.416ZM181.052 786V777.968H183.18V778.48C183.351 778.373 183.559 778.272 183.804 778.176C184.049 778.069 184.305 777.979 184.572 777.904C184.849 777.829 185.116 777.792 185.372 777.792C185.927 777.792 186.385 777.867 186.748 778.016C187.121 778.155 187.415 778.384 187.628 778.704C187.841 779.024 187.996 779.445 188.092 779.968C188.188 780.48 188.236 781.104 188.236 781.84V786H186.092V781.952C186.092 781.397 186.06 780.955 185.996 780.624C185.932 780.283 185.809 780.037 185.628 779.888C185.447 779.739 185.18 779.664 184.828 779.664C184.636 779.664 184.433 779.685 184.22 779.728C184.017 779.76 183.82 779.808 183.628 779.872C183.447 779.936 183.297 780 183.18 780.064V786H181.052ZM192.68 786.192C192.094 786.192 191.619 786.107 191.256 785.936C190.894 785.765 190.632 785.472 190.472 785.056C190.323 784.629 190.248 784.037 190.248 783.28V779.744H189.304V777.968H190.248V775.84H192.376V777.968H194.424V779.744H192.376V782.72C192.376 783.136 192.392 783.461 192.424 783.696C192.467 783.931 192.552 784.096 192.68 784.192C192.808 784.288 193.006 784.336 193.272 784.336C193.347 784.336 193.459 784.331 193.608 784.32C193.758 784.309 193.907 784.299 194.056 784.288C194.206 784.277 194.328 784.267 194.424 784.256L194.488 785.968C194.328 786 194.131 786.032 193.896 786.064C193.672 786.096 193.448 786.123 193.224 786.144C193.011 786.176 192.83 786.192 192.68 786.192ZM195.614 786V777.968H197.742V786H195.614ZM195.614 776.688V774.864H197.758V776.688H195.614ZM199.521 786V777.968H201.649V778.48C201.819 778.373 202.027 778.272 202.273 778.176C202.518 778.069 202.774 777.979 203.041 777.904C203.318 777.829 203.585 777.792 203.841 777.792C204.395 777.792 204.854 777.867 205.217 778.016C205.59 778.155 205.883 778.384 206.097 778.704C206.31 779.024 206.465 779.445 206.561 779.968C206.657 780.48 206.705 781.104 206.705 781.84V786H204.561V781.952C204.561 781.397 204.529 780.955 204.465 780.624C204.401 780.283 204.278 780.037 204.097 779.888C203.915 779.739 203.649 779.664 203.297 779.664C203.105 779.664 202.902 779.685 202.689 779.728C202.486 779.76 202.289 779.808 202.097 779.872C201.915 779.936 201.766 780 201.649 780.064V786H199.521ZM210.924 786.176C210.231 786.176 209.692 786.032 209.308 785.744C208.935 785.445 208.668 784.997 208.508 784.4C208.359 783.803 208.284 783.051 208.284 782.144V777.968H210.412V782.048C210.412 782.613 210.439 783.061 210.492 783.392C210.556 783.723 210.679 783.957 210.86 784.096C211.042 784.235 211.303 784.304 211.644 784.304C211.975 784.304 212.284 784.261 212.572 784.176C212.86 784.091 213.09 784.005 213.26 783.92V777.968H215.388V786H213.276V785.504C212.914 785.707 212.551 785.872 212.188 786C211.836 786.117 211.415 786.176 210.924 786.176ZM219.242 786.176C218.41 786.176 217.78 785.968 217.354 785.552C216.938 785.125 216.73 784.485 216.73 783.632C216.73 783.035 216.836 782.571 217.05 782.24C217.263 781.899 217.578 781.653 217.994 781.504C218.42 781.344 218.938 781.248 219.546 781.216L221.498 781.04V780.56C221.498 780.176 221.402 779.909 221.21 779.76C221.018 779.6 220.735 779.52 220.362 779.52C220.063 779.52 219.716 779.531 219.322 779.552C218.938 779.573 218.554 779.6 218.17 779.632C217.796 779.664 217.471 779.696 217.194 779.728L217.13 778.224C217.407 778.16 217.738 778.096 218.122 778.032C218.516 777.957 218.927 777.899 219.354 777.856C219.78 777.813 220.175 777.792 220.538 777.792C221.22 777.792 221.791 777.877 222.25 778.048C222.708 778.219 223.055 778.501 223.29 778.896C223.524 779.28 223.642 779.803 223.642 780.464V784.128C223.663 784.277 223.743 784.395 223.882 784.48C224.02 784.555 224.18 784.608 224.362 784.64L224.314 786.112C224.143 786.112 223.972 786.112 223.802 786.112C223.642 786.123 223.487 786.123 223.338 786.112C223.188 786.112 223.055 786.101 222.938 786.08C222.692 786.048 222.479 785.984 222.298 785.888C222.127 785.792 221.988 785.691 221.882 785.584C221.711 785.659 221.482 785.744 221.194 785.84C220.906 785.936 220.591 786.016 220.25 786.08C219.919 786.144 219.583 786.176 219.242 786.176ZM219.754 784.592C219.956 784.592 220.17 784.571 220.394 784.528C220.618 784.485 220.826 784.437 221.018 784.384C221.22 784.32 221.38 784.261 221.498 784.208V782.368L219.866 782.512C219.514 782.544 219.258 782.651 219.098 782.832C218.948 783.003 218.874 783.248 218.874 783.568C218.874 783.888 218.943 784.139 219.082 784.32C219.231 784.501 219.455 784.592 219.754 784.592ZM225.521 786V777.968H227.649V778.912C227.83 778.773 228.054 778.629 228.321 778.48C228.587 778.32 228.875 778.176 229.185 778.048C229.505 777.909 229.809 777.819 230.097 777.776V779.84C229.819 779.883 229.526 779.957 229.217 780.064C228.907 780.16 228.614 780.267 228.337 780.384C228.07 780.501 227.841 780.608 227.649 780.704V786H225.521Z" fill="white"/>
</g>
<path d="M60.4956 22.9453C62.9019 22.9453 64.9956 24.6562 64.9956 28.7188V28.7344C64.9956 32.5312 63.2847 34.7812 60.4487 34.7812C58.3784 34.7812 56.8316 33.5547 56.4722 31.8281L56.4566 31.7422H58.4409L58.4644 31.8203C58.7612 32.6094 59.4566 33.125 60.4487 33.125C62.2378 33.125 62.9956 31.375 63.0816 29.2188C63.0816 29.1328 63.0894 29.0469 63.0894 28.9609H62.9331C62.5191 29.8516 61.5347 30.6406 59.9878 30.6406C57.8237 30.6406 56.3081 29.0625 56.3081 26.9219V26.9062C56.3081 24.6172 58.0503 22.9453 60.4956 22.9453ZM60.4878 29.0938C61.7612 29.0938 62.7378 28.1719 62.7378 26.8984V26.8828C62.7378 25.5938 61.7612 24.5859 60.5112 24.5859C59.2691 24.5859 58.2769 25.5781 58.2769 26.8359V26.8516C58.2769 28.1562 59.2066 29.0938 60.4878 29.0938ZM68.2225 27.1953C67.5116 27.1953 66.9803 26.6484 66.9803 25.9609C66.9803 25.2656 67.5116 24.7266 68.2225 24.7266C68.9412 24.7266 69.4647 25.2656 69.4647 25.9609C69.4647 26.6484 68.9412 27.1953 68.2225 27.1953ZM68.2225 32.9922C67.5116 32.9922 66.9803 32.4531 66.9803 31.7578C66.9803 31.0625 67.5116 30.5234 68.2225 30.5234C68.9412 30.5234 69.4647 31.0625 69.4647 31.7578C69.4647 32.4531 68.9412 32.9922 68.2225 32.9922ZM76.9181 34.5V32.3359H71.4025V30.6875C72.8634 28.1484 74.465 25.5547 75.9963 23.2266H78.8478V30.6719H80.3634V32.3359H78.8478V34.5H76.9181ZM73.2775 30.7188H76.9494V24.8359H76.8322C75.6759 26.6016 74.3713 28.6875 73.2775 30.6016V30.7188ZM84.7153 34.5V25.2109H84.5825L81.7778 27.1953V25.2969L84.7231 23.2266H86.7309V34.5H84.7153Z" fill="black"/>
<rect x="134" y="11" width="125" height="37" rx="18.5" fill="black"/>
<rect x="134" y="11" width="80" height="37" rx="18.5" fill="black"/>
<rect x="222" y="11" width="37" height="37" rx="18.5" fill="black"/>
<path d="M291.299 26C291.299 25.4477 291.747 25 292.299 25H293.299C293.852 25 294.299 25.4477 294.299 26V34C294.299 34.5523 293.852 35 293.299 35H292.299C291.747 35 291.299 34.5523 291.299 34V26Z" fill="black"/>
<path d="M296.299 24C296.299 23.4477 296.747 23 297.299 23H298.299C298.852 23 299.299 23.4477 299.299 24V34C299.299 34.5523 298.852 35 298.299 35H297.299C296.747 35 296.299 34.5523 296.299 34V24Z" fill="black"/>
<path d="M286.299 29.5C286.299 28.9477 286.747 28.5 287.299 28.5H288.299C288.852 28.5 289.299 28.9477 289.299 29.5V34C289.299 34.5523 288.852 35 288.299 35H287.299C286.747 35 286.299 34.5523 286.299 34V29.5Z" fill="black"/>
<path d="M281.299 32C281.299 31.4477 281.747 31 282.299 31H283.299C283.852 31 284.299 31.4477 284.299 32V34C284.299 34.5523 283.852 35 283.299 35H282.299C281.747 35 281.299 34.5523 281.299 34V32Z" fill="black"/>
<path d="M313.415 31.9189C314.834 30.6934 316.914 30.6935 318.333 31.9189C318.405 31.9849 318.447 32.0785 318.449 32.1768C318.451 32.275 318.413 32.3696 318.344 32.4385L316.121 34.7285C316.056 34.7958 315.967 34.8339 315.875 34.834C315.782 34.834 315.693 34.7958 315.627 34.7285L313.404 32.4385C313.335 32.3696 313.297 32.275 313.299 32.1768C313.301 32.0785 313.343 31.9848 313.415 31.9189ZM310.409 29.1787C313.468 26.2741 318.205 26.2741 321.264 29.1787C321.333 29.2468 321.373 29.3405 321.374 29.4385C321.374 29.5364 321.337 29.6308 321.269 29.7002L319.984 31.0254C319.851 31.1607 319.637 31.164 319.501 31.0322C318.497 30.1038 317.191 29.5898 315.835 29.5898C314.481 29.5904 313.175 30.1043 312.171 31.0322C312.036 31.164 311.821 31.1607 311.689 31.0254L310.404 29.7002C310.336 29.6308 310.298 29.5364 310.299 29.4385C310.3 29.3405 310.34 29.2468 310.409 29.1787ZM307.407 26.4424C312.099 21.8528 319.5 21.8528 324.192 26.4424C324.26 26.5106 324.299 26.6039 324.299 26.7012C324.3 26.7983 324.262 26.892 324.195 26.9609L322.909 28.2861C322.776 28.4221 322.561 28.4238 322.426 28.29C320.639 26.5553 318.266 25.588 315.799 25.5879C313.333 25.588 310.96 26.5553 309.172 28.29C309.038 28.4239 308.822 28.4223 308.69 28.2861L307.403 26.9609C307.336 26.892 307.299 26.7982 307.299 26.7012C307.3 26.6039 307.339 26.5105 307.407 26.4424Z" fill="black"/>
<path opacity="0.35" d="M336.299 23.5H353.299C355.232 23.5 356.799 25.067 356.799 27V32C356.799 33.933 355.232 35.5 353.299 35.5H336.299C334.366 35.5 332.799 33.933 332.799 32V27C332.799 25.067 334.366 23.5 336.299 23.5Z" stroke="black"/>
<path opacity="0.4" d="M358.299 28V32.2203C359.148 31.8629 359.701 31.0314 359.701 30.1102C359.701 29.1889 359.148 28.3574 358.299 28Z" fill="black"/>
<path d="M334.299 27C334.299 25.8954 335.195 25 336.299 25H353.299C354.404 25 355.299 25.8954 355.299 27V32C355.299 33.1046 354.404 34 353.299 34H336.299C335.195 34 334.299 33.1046 334.299 32V27Z" fill="black"/>
<g clip-path="url(#clip1_43_656)">
<rect x="32" y="192" width="330" height="330" rx="165" fill="#F1F6FD"/>
<g clip-path="url(#clip2_43_656)">
<path d="M406.864 513.008H-12.864V513.218H406.864V513.008Z" fill="#EBEBEB"/>
<path d="M132.547 518.364H113.088V518.573H132.547V518.364Z" fill="#EBEBEB"/>
<path opacity="0.3" d="M114.549 533.063C114.549 533.063 131.027 523.829 132.127 510.658C133.227 497.487 120.265 494.834 114.549 490.225C108.832 485.617 108.622 481.436 108.395 473.747C108.169 466.057 105.76 457.923 97.1971 450.242C88.6347 442.561 87.7449 439.698 88.8026 429.373C89.8603 419.048 82.8676 406.087 74.0785 408.286C65.2894 410.485 64.6346 424.32 66.3891 433.109C67.9923 441.657 66.3746 450.496 61.8476 457.923C57.6504 464.521 55.9127 476.164 61.8476 483.636C67.7826 491.107 71.7364 497.696 68.8739 505.604C66.0113 513.512 57.2306 516.584 67.3377 533.063H114.549Z" fill="#E6E6E6"/>
<path opacity="0.3" d="M259.749 532.912H288.089C288.089 532.912 290.725 509.625 290.289 490.729C289.852 471.833 288.752 441.957 276.857 442.83C264.962 443.703 251.405 474.251 259.749 532.912Z" fill="#F5F5F5"/>
<path d="M274.792 532.911C274.792 532.911 302.369 471.396 324.564 483.476C346.759 495.556 300.748 533.222 300.748 533.222L274.792 532.911Z" fill="#F0F0F0"/>
<path opacity="0.3" d="M271.476 533.222C271.476 533.222 273.289 513.201 265.759 492.727C258.229 472.252 248.895 459.988 238.351 463.942C227.808 467.895 228.714 494.489 242.867 532.911L271.476 533.222Z" fill="#E6E6E6"/>
<path opacity="0.3" d="M288.089 532.911C288.089 532.911 300.094 514.108 306.717 496.336C313.34 478.565 314.851 465.276 308.824 462.003C302.797 458.729 274.49 489.386 271.477 533.222L288.089 532.911Z" fill="#E6E6E6"/>
<path opacity="0.3" d="M251.455 532.911C251.455 532.911 235.942 472.89 209.44 481.906C182.939 490.922 230.427 533.222 230.427 533.222H252.79" fill="#F0F0F0"/>
<path d="M300.916 516.534C300.916 516.534 304.14 496.807 329.365 472.286C354.591 447.766 362.196 429.583 357.697 404.869C357.697 404.869 380.715 437.188 365.823 476.92C350.931 516.651 327.821 529.965 308.857 535.195C289.894 540.425 300.916 516.534 300.916 516.534Z" fill="#EBEBEB" stroke="#EBEBEB" stroke-width="0.839456" stroke-miterlimit="10"/>
<path d="M301.235 535.48C306.347 522.15 314.137 514.309 322.876 506.36C326.074 503.447 329.407 500.483 332.782 497.302C335.082 495.111 337.407 492.777 339.716 490.225C342.253 487.438 344.64 484.518 346.868 481.478C349.384 478.036 351.694 474.448 353.785 470.733C354.221 469.969 354.624 469.197 355.078 468.391C355.623 467.358 356.152 466.334 356.639 465.318C369.617 438.456 362.675 415.639 358.922 406.792C358.37 405.442 357.736 404.128 357.025 402.855" stroke="#E0E0E0" stroke-width="1.67891" stroke-miterlimit="10"/>
<path d="M348.505 450.04C352.942 454.002 355.828 459.41 356.648 465.302" stroke="#E0E0E0" stroke-width="1.67891" stroke-miterlimit="10"/>
<path d="M346.877 481.47C346.642 475.677 341.521 467.241 338.532 462.783" stroke="#E0E0E0" stroke-width="1.67891" stroke-miterlimit="10"/>
<path d="M324.43 477.314C326.772 481.016 331.649 489.453 332.782 497.302" stroke="#E0E0E0" stroke-width="1.67891" stroke-miterlimit="10"/>
<path d="M322.919 506.359C322.919 506.359 337.45 504.101 349.143 507.938" stroke="#E0E0E0" stroke-width="1.67891" stroke-miterlimit="10"/>
<path d="M362.046 486.07C352.174 484.945 340.069 490.082 339.725 490.217" stroke="#E0E0E0" stroke-width="1.67891" stroke-miterlimit="10"/>
<path d="M369.508 463.732C361.5 465.092 354.062 470.523 353.793 470.716" stroke="#E0E0E0" stroke-width="1.67891" stroke-miterlimit="10"/>
<path opacity="0.12" d="M183.249 342.716C181.008 342.103 180.966 339.224 180.966 339.224L183.115 339.652C182.997 340.674 183.043 341.708 183.249 342.716Z" fill="black"/>
<path d="M301.311 264.235V385.251C301.311 387.046 300.598 388.767 299.33 390.036C298.061 391.304 296.34 392.017 294.545 392.017H111.67C109.883 392.006 108.174 391.288 106.916 390.02C105.657 388.752 104.952 387.038 104.954 385.251V264.235C104.952 262.449 105.657 260.734 106.916 259.466C108.174 258.198 109.883 257.48 111.67 257.469H294.545C295.434 257.469 296.314 257.644 297.135 257.984C297.955 258.324 298.701 258.823 299.33 259.451C299.958 260.079 300.456 260.825 300.796 261.646C301.136 262.467 301.311 263.347 301.311 264.235Z" fill="#35D2E9"/>
<path opacity="0.7" d="M301.311 264.235V385.251C301.311 387.046 300.598 388.767 299.33 390.036C298.061 391.304 296.34 392.017 294.545 392.017H111.67C109.883 392.006 108.174 391.288 106.916 390.02C105.657 388.752 104.952 387.038 104.954 385.251V264.235C104.952 262.449 105.657 260.734 106.916 259.466C108.174 258.198 109.883 257.48 111.67 257.469H294.545C295.434 257.469 296.314 257.644 297.135 257.984C297.955 258.324 298.701 258.823 299.33 259.451C299.958 260.079 300.456 260.825 300.796 261.646C301.136 262.467 301.311 263.347 301.311 264.235Z" fill="#DCF8DE" stroke="white" stroke-width="0.839456" stroke-miterlimit="10"/>
<path d="M289.928 267.635C290.934 267.635 291.75 266.819 291.75 265.813C291.75 264.807 290.934 263.992 289.928 263.992C288.922 263.992 288.107 264.807 288.107 265.813C288.107 266.819 288.922 267.635 289.928 267.635Z" fill="#52DC5B"/>
<path d="M281.223 265.813C281.225 266.176 281.119 266.53 280.919 266.832C280.719 267.134 280.433 267.37 280.099 267.51C279.765 267.65 279.397 267.687 279.041 267.618C278.686 267.548 278.359 267.374 278.102 267.119C277.845 266.863 277.67 266.537 277.599 266.182C277.527 265.827 277.563 265.458 277.701 265.123C277.84 264.788 278.074 264.502 278.375 264.301C278.677 264.099 279.031 263.992 279.393 263.992C279.876 263.994 280.339 264.186 280.682 264.527C281.024 264.868 281.219 265.33 281.223 265.813Z" fill="#52DC5B"/>
<path d="M270.688 265.813C270.69 266.176 270.584 266.53 270.384 266.832C270.184 267.134 269.898 267.37 269.564 267.51C269.23 267.65 268.862 267.687 268.506 267.618C268.151 267.548 267.824 267.374 267.567 267.119C267.31 266.863 267.135 266.537 267.064 266.182C266.993 265.827 267.028 265.458 267.167 265.123C267.305 264.788 267.539 264.502 267.841 264.301C268.142 264.099 268.496 263.992 268.858 263.992C269.341 263.994 269.804 264.186 270.147 264.527C270.489 264.868 270.684 265.33 270.688 265.813Z" fill="#52DC5B"/>
<path d="M286.923 288.798V409.814C286.912 411.599 286.195 413.307 284.929 414.565C283.663 415.823 281.95 416.529 280.165 416.529H97.2815C95.4966 416.529 93.7841 415.823 92.518 414.565C91.2519 413.307 90.535 411.599 90.5239 409.814V288.798C90.5239 287.005 91.2356 285.285 92.5027 284.016C93.7697 282.748 95.4885 282.034 97.2815 282.032H280.165C281.958 282.034 283.677 282.748 284.944 284.016C286.211 285.285 286.923 287.005 286.923 288.798Z" fill="#52DC5B"/>
<path opacity="0.8" d="M286.923 288.798V409.814C286.912 411.599 286.195 413.307 284.929 414.565C283.663 415.823 281.95 416.529 280.165 416.529H97.2815C95.4966 416.529 93.7841 415.823 92.518 414.565C91.2519 413.307 90.535 411.599 90.5239 409.814V288.798C90.5239 287.005 91.2356 285.285 92.5027 284.016C93.7697 282.748 95.4885 282.034 97.2815 282.032H280.165C281.958 282.034 283.677 282.748 284.944 284.016C286.211 285.285 286.923 287.005 286.923 288.798Z" fill="white"/>
<path d="M286.931 296.235H243.12V406.943H286.931V296.235Z" fill="#FD723B"/>
<path d="M286.931 329.486H243.12V330.896H286.931V329.486Z" fill="#FAFAFA"/>
<path d="M286.931 364.231H243.12V365.642H286.931V364.231Z" fill="#FAFAFA"/>
<path d="M286.931 398.464H243.12V399.874H286.931V398.464Z" fill="#FAFAFA"/>
<path d="M262.226 339.173V355.711L274.717 347.442L262.226 339.173Z" fill="#FAFAFA"/>
<path d="M262.226 373.776V390.321L274.717 382.053L262.226 373.776Z" fill="#FAFAFA"/>
<path d="M262.226 303.958V320.504L274.717 312.227L262.226 303.958Z" fill="#FAFAFA"/>
<path d="M154.759 364.231C154.759 364.231 143.561 380.928 140.069 384.244C140.069 384.244 121.299 385.923 113.576 380.643L111.62 385.436C111.62 385.436 129.45 395.509 141.529 393.05C153.609 390.59 162.516 367.27 162.516 367.27L154.759 364.231Z" fill="#E49987"/>
<path d="M209.181 354.3C209.181 354.3 219.884 357.23 226.558 357.792C226.558 357.792 231.595 346.099 232.434 335.48L236.228 335.69C236.228 335.69 239.721 356.374 230.562 364.752C224.233 370.552 203.112 359.807 203.112 359.807L209.181 354.3Z" fill="#E49987"/>
<path d="M179.061 308.684C179.061 308.684 164.555 307.282 163.052 322.065C162.222 331.239 163.706 340.475 167.367 348.928C167.367 348.928 176.139 366.783 186.775 364.298C197.411 361.814 206.427 356.055 204.547 346.418C202.666 336.781 199.166 337.184 199.292 323.753C199.418 310.321 186.817 302.523 179.061 308.684Z" fill="#263238"/>
<path d="M194.893 329.855C193.373 337.268 189.99 340.223 183.14 339.652C183.023 340.674 183.068 341.708 183.275 342.716C183.445 343.924 184.005 345.043 184.868 345.905C185.731 346.766 186.851 347.324 188.06 347.492C193.936 348.508 190.721 356.071 190.721 356.071L184.844 358.959L177.113 354.502L171.237 348.231H173.294C173.294 348.231 177.273 342.212 173.294 332.08C172.423 331.57 171.69 330.857 171.156 330.002C170.623 329.147 170.305 328.174 170.23 327.169C170.062 323.811 173.529 323.61 174.838 324.869C174.838 324.869 180.807 322.267 179.917 312.21C179.917 312.21 185.793 316.625 193.348 315.341C193.34 315.4 196.404 322.434 194.893 329.855Z" fill="#E49987"/>
<path d="M189.495 323.686L189.571 328.873C189.988 329.034 190.434 329.104 190.88 329.078C191.326 329.052 191.761 328.93 192.156 328.722L189.495 323.686Z" fill="#A02724"/>
<path d="M181.546 317.851C181.496 317.862 181.445 317.862 181.395 317.851C181.363 317.831 181.335 317.805 181.313 317.775C181.291 317.744 181.275 317.71 181.267 317.673C181.258 317.636 181.257 317.598 181.263 317.561C181.269 317.524 181.283 317.488 181.303 317.457C181.693 316.861 182.277 316.418 182.956 316.202C183.635 315.987 184.367 316.012 185.03 316.273C185.066 316.284 185.099 316.303 185.127 316.327C185.156 316.352 185.179 316.382 185.195 316.416C185.212 316.449 185.221 316.486 185.223 316.524C185.225 316.561 185.219 316.599 185.206 316.634C185.181 316.705 185.129 316.763 185.062 316.796C184.994 316.829 184.916 316.834 184.845 316.81C184.306 316.589 183.706 316.562 183.149 316.733C182.592 316.905 182.111 317.264 181.789 317.75C181.76 317.785 181.722 317.813 181.68 317.83C181.638 317.848 181.592 317.855 181.546 317.851Z" fill="#263238"/>
<path d="M194.541 319.454C194.467 319.455 194.396 319.428 194.34 319.379C193.501 318.615 192.04 319.177 192.023 319.186C191.952 319.211 191.874 319.207 191.805 319.176C191.736 319.145 191.682 319.088 191.654 319.018C191.64 318.983 191.634 318.945 191.635 318.907C191.636 318.87 191.645 318.832 191.661 318.798C191.676 318.764 191.698 318.733 191.726 318.707C191.754 318.681 191.786 318.662 191.822 318.648C191.889 318.648 193.66 317.952 194.735 318.959C194.788 319.013 194.818 319.085 194.818 319.161C194.818 319.236 194.788 319.309 194.735 319.362C194.684 319.415 194.615 319.448 194.541 319.454Z" fill="#263238"/>
<path d="M187.289 331.35C186.311 331.391 185.34 331.173 184.474 330.719C183.607 330.265 182.876 329.591 182.353 328.764C182.338 328.716 182.341 328.664 182.36 328.617C182.379 328.571 182.414 328.532 182.459 328.508C182.503 328.485 182.555 328.477 182.604 328.487C182.654 328.497 182.698 328.524 182.73 328.563C183.219 329.321 183.897 329.938 184.699 330.352C185.5 330.766 186.396 330.962 187.297 330.922C187.353 330.922 187.406 330.944 187.445 330.983C187.485 331.022 187.507 331.076 187.507 331.131C187.507 331.189 187.484 331.245 187.443 331.286C187.402 331.327 187.346 331.35 187.289 331.35Z" fill="#263238"/>
<path d="M185.786 322.796C185.786 323.417 185.475 323.921 185.055 323.937C184.636 323.954 184.283 323.459 184.266 322.838C184.249 322.216 184.568 321.713 184.988 321.696C185.408 321.679 185.769 322.174 185.786 322.796Z" fill="#263238"/>
<path d="M193.248 322.863C193.248 323.476 192.938 323.988 192.518 324.004C192.098 324.021 191.746 323.526 191.721 322.905C191.695 322.284 192.031 321.78 192.451 321.763C192.871 321.746 193.232 322.242 193.248 322.863Z" fill="#263238"/>
<path d="M184.871 321.721L186.776 321.175C186.776 321.175 186.432 322.2 184.871 321.721Z" fill="#263238"/>
<path d="M192.45 321.763L193.852 321.562C193.794 321.69 193.704 321.802 193.591 321.887C193.479 321.972 193.346 322.027 193.206 322.047C193.067 322.067 192.924 322.052 192.792 322.002C192.66 321.952 192.542 321.87 192.45 321.763Z" fill="#263238"/>
<path d="M212.808 353.965L206.235 368.437L202.743 367.169C202.743 367.169 203.095 393.444 200.224 406.943H166.058L164.094 371.081L162.306 374.825L149.714 367.757C149.714 367.757 153.198 353.486 158.638 350.968C161.231 349.767 166.763 348.844 172.455 348.248C177.641 347.661 182.859 347.414 188.077 347.509C188.077 347.509 188.615 347.509 189.563 347.509C197.709 347.814 205.671 350.025 212.808 353.965Z" fill="#2D77E4"/>
<path d="M232.433 335.48C231.137 333.637 230.276 331.525 229.915 329.301C229.561 326.908 229.782 324.465 230.561 322.175L237.344 321.939L238.184 327.874C238.516 330.629 237.826 333.41 236.245 335.69L232.433 335.48Z" fill="#E49987"/>
<path d="M113.575 380.642L110.041 374.338L105.743 372.844L102.688 378.552L105.416 382.296C105.416 382.296 109.017 385.352 111.62 385.436L113.575 380.642Z" fill="#E49987"/>
<path d="M189.521 347.509C189.462 356.559 183.804 366.473 183.804 366.473C178.768 361.612 173.731 351.186 172.413 348.231C177.599 347.644 182.817 347.397 188.035 347.492C188.035 347.492 188.606 347.476 189.521 347.509Z" fill="#E49987"/>
<path opacity="0.12" d="M162.297 374.825L164.06 365.113L164.094 371.09L162.297 374.825Z" fill="black"/>
<path opacity="0.12" d="M206.252 368.437L200.611 364.231L202.76 367.169L206.252 368.437Z" fill="black"/>
<path d="M171.606 397.02C170.649 414.187 193.214 465.503 195.732 483.484C187.959 501.541 167.619 524.559 167.619 524.559L177.256 535.069C177.256 535.069 211.002 504.991 212.756 484.03C214.217 466.108 201.541 398.741 201.541 398.741L171.606 397.02Z" fill="#52DC5B"/>
<path d="M171.606 397.02C170.649 414.187 193.214 465.503 195.732 483.484C187.959 501.541 167.619 524.559 167.619 524.559L177.256 535.069C177.256 535.069 211.002 504.991 212.756 484.03C214.217 466.108 201.541 398.741 201.541 398.741L171.606 397.02Z" fill="#263238"/>
<path opacity="0.3" d="M178.868 429.608C184.157 445.944 190.94 463.732 194.113 475.879C194.692 462.666 194.247 439.127 185.005 426.351C180.69 420.332 178.986 423.329 178.868 429.608Z" fill="black"/>
<path d="M165.857 397.222C159.301 415.279 164.404 456.043 164.757 485.256C162.793 507.275 165.42 540.66 165.42 540.66L177.257 541.147C177.257 541.147 180.824 501.743 183.259 477.155C185.324 456.454 192.694 398.246 192.694 398.246L165.857 397.222Z" fill="#52DC5B"/>
<path d="M165.487 396.592C158.931 414.641 164.404 456.043 164.757 485.256C162.792 507.275 165.42 540.66 165.42 540.66L177.256 541.147C177.256 541.147 180.824 501.743 183.258 477.155C185.323 456.454 192.694 398.246 192.694 398.246L165.487 396.592Z" fill="#263238"/>
<path d="M173.353 346.267H170.457V363.324H173.353V346.267Z" fill="#FAFAFA"/>
<path d="M166.57 346.267H163.674V363.324H166.57V346.267Z" fill="#FAFAFA"/>
<path d="M181.439 358.71C183.202 351.277 178.605 343.821 171.171 342.059C163.737 340.296 156.282 344.894 154.519 352.327C152.757 359.761 157.354 367.216 164.788 368.979C172.222 370.741 179.677 366.144 181.439 358.71Z" stroke="#FAFAFA" stroke-width="0.83685" stroke-miterlimit="10"/>
<path d="M286.922 288.798V296.235H90.4897V288.798C90.4897 287.005 91.2014 285.285 92.4685 284.016C93.7356 282.748 95.4544 282.034 97.2474 282.032H280.165C281.958 282.034 283.677 282.748 284.944 284.016C286.211 285.285 286.922 287.005 286.922 288.798Z" fill="#66D096"/>
<path d="M286.923 406.943V409.814C286.912 411.599 286.195 413.307 284.929 414.565C283.663 415.823 281.95 416.529 280.165 416.529H97.2815C95.4966 416.529 93.7841 415.823 92.518 414.565C91.2519 413.307 90.535 411.599 90.5239 409.814V406.943H286.923Z" fill="#66D096"/>
<path d="M129.307 292.818H100.614C99.7896 292.818 98.9987 292.491 98.4149 291.909C97.8311 291.327 97.502 290.537 97.4998 289.712C97.4998 288.886 97.8279 288.094 98.4119 287.51C98.996 286.926 99.7881 286.598 100.614 286.598H129.307C129.716 286.598 130.121 286.679 130.499 286.835C130.876 286.992 131.22 287.221 131.509 287.51C131.798 287.799 132.028 288.143 132.184 288.521C132.341 288.898 132.421 289.303 132.421 289.712C132.419 290.537 132.09 291.327 131.506 291.909C130.922 292.491 130.131 292.818 129.307 292.818Z" stroke="white" stroke-width="0.419728" stroke-miterlimit="10"/>
<path d="M144.887 292.818H140.69C139.866 292.818 139.076 292.491 138.493 291.909C137.911 291.326 137.584 290.536 137.584 289.712C137.584 288.888 137.911 288.097 138.493 287.513C139.075 286.929 139.865 286.6 140.69 286.598H144.887C145.713 286.598 146.505 286.926 147.089 287.51C147.673 288.094 148.001 288.886 148.001 289.712C147.999 290.537 147.67 291.327 147.086 291.909C146.502 292.491 145.712 292.818 144.887 292.818Z" stroke="white" stroke-width="0.419728" stroke-miterlimit="10"/>
<path d="M226.373 300.055H107.724C100.751 300.055 95.0989 305.707 95.0989 312.68V391.119C95.0989 398.092 100.751 403.745 107.724 403.745H226.373C233.346 403.745 238.998 398.092 238.998 391.119V312.68C238.998 305.707 233.346 300.055 226.373 300.055Z" stroke="white" stroke-width="0.419728" stroke-miterlimit="10"/>
<path d="M139.305 309.003H88.593C84.7681 309.003 81.6675 312.104 81.6675 315.929V333.994C81.6675 337.819 84.7681 340.919 88.593 340.919H139.305C143.129 340.919 146.23 337.819 146.23 333.994V315.929C146.23 312.104 143.129 309.003 139.305 309.003Z" fill="#FCC65D"/>
<path d="M148.698 314.451V335.438C148.703 336.154 148.567 336.865 148.298 337.529C148.028 338.192 147.629 338.796 147.126 339.305C146.622 339.815 146.022 340.22 145.361 340.497C144.701 340.774 143.992 340.917 143.275 340.919H123.825C117.949 342.951 121.625 351.085 121.751 351.379C120.633 350.996 119.586 350.429 118.654 349.7C114.457 346.342 115.044 340.928 115.044 340.928H89.5499C88.105 340.928 86.7192 340.354 85.6975 339.332C84.6758 338.31 84.1018 336.925 84.1018 335.48V314.493C84.1018 313.048 84.6758 311.663 85.6975 310.641C86.7192 309.619 88.105 309.045 89.5499 309.045H143.275C144.709 309.05 146.083 309.62 147.099 310.633C148.114 311.645 148.689 313.017 148.698 314.451Z" fill="#FCC65D"/>
<path opacity="0.2" d="M146.222 314.451V335.438C146.227 336.158 146.09 336.872 145.817 337.538C145.545 338.205 145.143 338.811 144.634 339.32C144.126 339.83 143.522 340.234 142.856 340.509C142.19 340.783 141.477 340.923 140.757 340.92H121.349C117.051 342.397 117.856 347.132 118.654 349.692C114.457 346.334 115.044 340.92 115.044 340.92H87.1072C86.3921 340.92 85.6841 340.779 85.0236 340.505C84.363 340.231 83.763 339.829 83.2578 339.323C82.7525 338.817 82.352 338.217 82.0791 337.556C81.8063 336.895 81.6664 336.187 81.6675 335.471V314.485C81.6664 313.77 81.8063 313.062 82.0791 312.401C82.352 311.74 82.7525 311.139 83.2578 310.633C83.763 310.127 84.363 309.726 85.0236 309.452C85.6841 309.178 86.3921 309.037 87.1072 309.037H140.757C141.471 309.034 142.179 309.171 142.84 309.441C143.502 309.712 144.103 310.11 144.611 310.612C145.118 311.115 145.522 311.713 145.798 312.372C146.074 313.03 146.218 313.737 146.222 314.451Z" fill="white"/>
<path d="M141.194 314.074H86.3606V316.978H141.194V314.074Z" fill="#FDC04A"/>
<path d="M141.194 319.404H86.3606V322.309H141.194V319.404Z" fill="#FDC04A"/>
<path d="M141.194 324.743H86.3606V327.648H141.194V324.743Z" fill="#FDC04A"/>
<path opacity="0.1" d="M141.194 314.074H86.3606V316.978H141.194V314.074Z" fill="black"/>
<path opacity="0.1" d="M141.194 319.404H86.3606V322.309H141.194V319.404Z" fill="black"/>
<path opacity="0.1" d="M141.194 324.743H86.3606V327.648H141.194V324.743Z" fill="black"/>
</g>
</g>
</g>
<defs>
<filter id="filter0_d_43_656" x="-4.4" y="739.6" width="401.8" height="88.8" filterUnits="userSpaceOnUse" color-interpolation-filters="sRGB">
<feFlood flood-opacity="0" result="BackgroundImageFix"/>
<feColorMatrix in="SourceAlpha" type="matrix" values="0 0 0 0 0 0 0 0 0 0 0 0 0 0 0 0 0 0 127 0" result="hardAlpha"/>
<feOffset dy="4"/>
<feGaussianBlur stdDeviation="10.2"/>
<feComposite in2="hardAlpha" operator="out"/>
<feColorMatrix type="matrix" values="0 0 0 0 0.176471 0 0 0 0 0.466667 0 0 0 0 0.890196 0 0 0 0.16 0"/>
<feBlend mode="normal" in2="BackgroundImageFix" result="effect1_dropShadow_43_656"/>
<feBlend mode="normal" in="SourceGraphic" in2="effect1_dropShadow_43_656" result="shape"/>
</filter>
<clipPath id="clip0_43_656">
<rect width="393" height="852" rx="16" fill="white"/>
</clipPath>
<clipPath id="clip1_43_656">
<rect x="32" y="192" width="330" height="330" rx="165" fill="white"/>
</clipPath>
<clipPath id="clip2_43_656">
<rect width="419.728" height="419.728" fill="white" transform="translate(-12.864 192)"/>
</clipPath>
</defs>
</svg>
