<svg width="20" height="20" viewBox="0 0 20 20" fill="none" xmlns="http://www.w3.org/2000/svg">
  <path d="M13.53 3.6c.7-.85 1.18-2.03 1.05-3.2-1 .04-2.2.67-2.91 1.52-.64.75-1.2 1.95-1.05 3.1 1.11.09 2.2-.56 2.9-1.42Z" fill="#111"/>
  <path d="M16.86 14.28c-.34.78-.5 1.13-.95 1.82-.64.97-1.55 2.18-2.68 2.2-1.01.02-1.27-.64-2.64-.64-1.36 0-1.65.62-2.64.66-1.12.04-1.98-1.08-2.62-2.05-1.78-2.72-1.96-5.92-.87-7.6.77-1.19 2-1.89 3.14-1.89 1.16 0 1.9.67 2.86.67.93 0 1.5-.68 2.86-.68 1.01 0 2.08.55 2.84 1.5-2.5 1.37-2.1 4.82.7 6Z" fill="#111"/>
</svg>

