<svg width="20" height="20" viewBox="0 0 20 20" fill="none" xmlns="http://www.w3.org/2000/svg">
  <path d="M19.6 10.23c0-.68-.06-1.33-.18-1.98H10v3.75h5.38a4.6 4.6 0 0 1-1.99 3.02v2.51h3.22c1.88-1.73 2.99-4.29 2.99-7.3Z" fill="#4285F4"/>
  <path d="M10 20c2.7 0 4.96-.9 6.61-2.44l-3.22-2.5c-.9.6-2.05.95-3.39.95-2.6 0-4.8-1.76-5.58-4.13H1.1v2.6A10 10 0 0 0 10 20Z" fill="#34A853"/>
  <path d="M4.42 11.88A5.99 5.99 0 0 1 4.1 10c0-.66.11-1.3.32-1.88V5.52H1.1A10 10 0 0 0 0 10c0 1.62.39 3.15 1.1 4.48l3.32-2.6Z" fill="#FBBC05"/>
  <path d="M10 3.98c1.47 0 2.8.5 3.85 1.48l2.89-2.88A9.97 9.97 0 0 0 10 0 10 10 0 0 0 1.1 5.52l3.32 2.6C5.2 5.74 7.4 3.98 10 3.98Z" fill="#EA4335"/>
</svg>

