<svg width="393" height="852" viewBox="0 0 393 852" fill="none" xmlns="http://www.w3.org/2000/svg">
<g clip-path="url(#clip0_43_348)">
<rect width="393" height="852" rx="16" fill="#F7FAFD"/>
<path d="M97.6155 634V620.34H103.055C103.962 620.34 104.742 620.453 105.395 620.68C106.049 620.907 106.555 621.273 106.915 621.78C107.289 622.273 107.475 622.94 107.475 623.78C107.475 624.353 107.415 624.84 107.295 625.24C107.189 625.627 107.015 625.96 106.775 626.24C106.549 626.507 106.249 626.753 105.875 626.98C106.275 627.127 106.622 627.327 106.915 627.58C107.222 627.82 107.455 628.147 107.615 628.56C107.775 628.96 107.855 629.493 107.855 630.16C107.855 630.893 107.742 631.507 107.515 632C107.289 632.493 106.962 632.887 106.535 633.18C106.122 633.473 105.635 633.687 105.075 633.82C104.515 633.94 103.902 634 103.235 634H97.6155ZM100.375 631.96H103.035C103.502 631.96 103.889 631.907 104.195 631.8C104.515 631.68 104.755 631.473 104.915 631.18C105.089 630.887 105.175 630.48 105.175 629.96C105.175 629.56 105.109 629.233 104.975 628.98C104.842 628.727 104.669 628.54 104.455 628.42C104.242 628.287 104.002 628.193 103.735 628.14C103.482 628.087 103.229 628.06 102.975 628.06H100.375V631.96ZM100.375 626.1H102.955C103.409 626.1 103.775 626.033 104.055 625.9C104.335 625.753 104.542 625.54 104.675 625.26C104.809 624.967 104.875 624.6 104.875 624.16C104.875 623.533 104.709 623.08 104.375 622.8C104.055 622.52 103.549 622.38 102.855 622.38H100.375V626.1ZM113.762 634.22C112.655 634.22 111.775 634.033 111.122 633.66C110.482 633.287 110.022 632.72 109.742 631.96C109.462 631.2 109.322 630.247 109.322 629.1C109.322 627.86 109.495 626.847 109.842 626.06C110.202 625.273 110.722 624.693 111.402 624.32C112.082 623.933 112.922 623.74 113.922 623.74C115.402 623.74 116.515 624.113 117.262 624.86C118.022 625.607 118.402 626.787 118.402 628.4L118.282 629.88H112.002C112.015 630.627 112.168 631.187 112.462 631.56C112.755 631.933 113.262 632.12 113.982 632.12C114.395 632.12 114.848 632.113 115.342 632.1C115.835 632.073 116.322 632.047 116.802 632.02C117.295 631.993 117.715 631.967 118.062 631.94L118.122 633.8C117.788 633.853 117.368 633.913 116.862 633.98C116.355 634.047 115.828 634.1 115.282 634.14C114.748 634.193 114.242 634.22 113.762 634.22ZM112.002 628.18H115.742C115.742 627.273 115.595 626.64 115.302 626.28C115.022 625.92 114.562 625.74 113.922 625.74C113.495 625.74 113.142 625.82 112.862 625.98C112.582 626.14 112.368 626.4 112.222 626.76C112.075 627.12 112.002 627.593 112.002 628.18ZM120.17 634V623.96H122.83V624.6C123.03 624.467 123.284 624.34 123.59 624.22C123.897 624.087 124.217 623.973 124.55 623.88C124.897 623.787 125.23 623.74 125.55 623.74C126.164 623.74 126.664 623.827 127.05 624C127.437 624.16 127.757 624.4 128.01 624.72C128.25 624.573 128.55 624.427 128.91 624.28C129.27 624.133 129.664 624.007 130.09 623.9C130.517 623.793 130.93 623.74 131.33 623.74C132.064 623.74 132.664 623.84 133.13 624.04C133.61 624.227 133.984 624.527 134.25 624.94C134.517 625.34 134.704 625.86 134.81 626.5C134.917 627.127 134.97 627.887 134.97 628.78V634H132.31V629.02C132.31 628.327 132.27 627.767 132.19 627.34C132.124 626.9 131.977 626.58 131.75 626.38C131.537 626.18 131.21 626.08 130.77 626.08C130.53 626.08 130.277 626.107 130.01 626.16C129.744 626.2 129.497 626.26 129.27 626.34C129.057 626.42 128.884 626.493 128.75 626.56C128.817 626.84 128.864 627.2 128.89 627.64C128.93 628.08 128.95 628.54 128.95 629.02V634H126.29V629.06C126.29 628.353 126.25 627.78 126.17 627.34C126.104 626.9 125.957 626.58 125.73 626.38C125.504 626.18 125.177 626.08 124.75 626.08C124.51 626.08 124.264 626.107 124.01 626.16C123.77 626.2 123.544 626.26 123.33 626.34C123.13 626.42 122.964 626.493 122.83 626.56V634H120.17ZM137.024 629.82V627.54H143.064V629.82H137.024ZM146.555 634L144.175 623.96H147.035L148.715 631.74H149.295L151.015 623.96H153.715L151.335 634H146.555ZM155.112 634V623.96H157.772V634H155.112ZM155.112 622.36V620.08H157.792V622.36H155.112ZM159.995 634V623.96H162.655V624.6C162.868 624.467 163.128 624.34 163.435 624.22C163.741 624.087 164.061 623.973 164.395 623.88C164.741 623.787 165.075 623.74 165.395 623.74C166.088 623.74 166.661 623.833 167.115 624.02C167.581 624.193 167.948 624.48 168.215 624.88C168.481 625.28 168.675 625.807 168.795 626.46C168.915 627.1 168.975 627.88 168.975 628.8V634H166.295V628.94C166.295 628.247 166.255 627.693 166.175 627.28C166.095 626.853 165.941 626.547 165.715 626.36C165.488 626.173 165.155 626.08 164.715 626.08C164.475 626.08 164.221 626.107 163.955 626.16C163.701 626.2 163.455 626.26 163.215 626.34C162.988 626.42 162.801 626.5 162.655 626.58V634H159.995ZM174.429 634.22C173.949 634.22 173.509 634.16 173.109 634.04C172.709 633.933 172.356 633.76 172.049 633.52C171.756 633.267 171.503 632.94 171.289 632.54C171.089 632.14 170.936 631.653 170.829 631.08C170.723 630.493 170.669 629.813 170.669 629.04C170.669 627.893 170.809 626.927 171.089 626.14C171.383 625.353 171.843 624.76 172.469 624.36C173.096 623.947 173.929 623.74 174.969 623.74C175.169 623.74 175.403 623.753 175.669 623.78C175.936 623.793 176.196 623.82 176.449 623.86C176.703 623.887 176.909 623.913 177.069 623.94V619.86H179.749V634H177.109L177.089 633.42C176.903 633.527 176.656 633.647 176.349 633.78C176.056 633.9 175.743 634 175.409 634.08C175.076 634.173 174.749 634.22 174.429 634.22ZM175.109 631.98C175.349 631.98 175.589 631.953 175.829 631.9C176.083 631.847 176.316 631.787 176.529 631.72C176.756 631.64 176.936 631.567 177.069 631.5V626.12C176.949 626.093 176.789 626.073 176.589 626.06C176.389 626.033 176.183 626.013 175.969 626C175.756 625.973 175.563 625.96 175.389 625.96C174.869 625.96 174.463 626.08 174.169 626.32C173.889 626.56 173.689 626.913 173.569 627.38C173.449 627.833 173.389 628.387 173.389 629.04C173.389 629.613 173.429 630.093 173.509 630.48C173.589 630.853 173.703 631.153 173.849 631.38C174.009 631.593 174.196 631.747 174.409 631.84C174.623 631.933 174.856 631.98 175.109 631.98ZM186.268 634.22C185.134 634.22 184.221 634.033 183.528 633.66C182.848 633.287 182.354 632.713 182.048 631.94C181.741 631.153 181.588 630.14 181.588 628.9C181.588 627.7 181.748 626.727 182.068 625.98C182.388 625.22 182.894 624.66 183.588 624.3C184.281 623.927 185.174 623.74 186.268 623.74C187.374 623.74 188.268 623.927 188.948 624.3C189.641 624.66 190.148 625.22 190.468 625.98C190.801 626.727 190.968 627.7 190.968 628.9C190.968 630.14 190.814 631.153 190.508 631.94C190.201 632.713 189.701 633.287 189.008 633.66C188.328 634.033 187.414 634.22 186.268 634.22ZM186.268 632.02C186.828 632.02 187.248 631.92 187.528 631.72C187.808 631.507 187.994 631.173 188.088 630.72C188.194 630.253 188.248 629.647 188.248 628.9C188.248 628.167 188.188 627.587 188.068 627.16C187.948 626.72 187.748 626.407 187.468 626.22C187.188 626.033 186.788 625.94 186.268 625.94C185.761 625.94 185.361 626.033 185.068 626.22C184.788 626.407 184.588 626.72 184.468 627.16C184.348 627.587 184.288 628.167 184.288 628.9C184.288 629.647 184.334 630.253 184.428 630.72C184.534 631.173 184.728 631.507 185.008 631.72C185.288 631.92 185.708 632.02 186.268 632.02ZM194.488 636.5C194.261 636.087 194.028 635.567 193.788 634.94C193.548 634.327 193.321 633.647 193.108 632.9C192.908 632.14 192.741 631.347 192.608 630.52C192.488 629.68 192.428 628.833 192.428 627.98C192.428 627.127 192.488 626.267 192.608 625.4C192.741 624.533 192.908 623.7 193.108 622.9C193.321 622.1 193.548 621.367 193.788 620.7C194.028 620.02 194.261 619.453 194.488 619H196.967C196.781 619.52 196.581 620.14 196.368 620.86C196.168 621.58 195.981 622.347 195.808 623.16C195.634 623.973 195.488 624.793 195.368 625.62C195.261 626.447 195.208 627.233 195.208 627.98C195.208 628.713 195.261 629.48 195.368 630.28C195.488 631.067 195.634 631.847 195.808 632.62C195.981 633.393 196.168 634.113 196.368 634.78C196.581 635.447 196.781 636.02 196.967 636.5H194.488ZM200.935 634.22C199.895 634.22 199.108 633.96 198.575 633.44C198.055 632.907 197.795 632.107 197.795 631.04C197.795 630.293 197.928 629.713 198.195 629.3C198.462 628.873 198.855 628.567 199.375 628.38C199.908 628.18 200.555 628.06 201.315 628.02L203.755 627.8V627.2C203.755 626.72 203.635 626.387 203.395 626.2C203.155 626 202.802 625.9 202.335 625.9C201.962 625.9 201.528 625.913 201.035 625.94C200.555 625.967 200.075 626 199.595 626.04C199.128 626.08 198.722 626.12 198.375 626.16L198.295 624.28C198.642 624.2 199.055 624.12 199.535 624.04C200.028 623.947 200.542 623.873 201.075 623.82C201.608 623.767 202.102 623.74 202.555 623.74C203.408 623.74 204.122 623.847 204.695 624.06C205.268 624.273 205.702 624.627 205.995 625.12C206.288 625.6 206.435 626.253 206.435 627.08V631.66C206.462 631.847 206.562 631.993 206.735 632.1C206.908 632.193 207.108 632.26 207.335 632.3L207.275 634.14C207.062 634.14 206.848 634.14 206.635 634.14C206.435 634.153 206.242 634.153 206.055 634.14C205.868 634.14 205.702 634.127 205.555 634.1C205.248 634.06 204.982 633.98 204.755 633.86C204.542 633.74 204.368 633.613 204.235 633.48C204.022 633.573 203.735 633.68 203.375 633.8C203.015 633.92 202.622 634.02 202.195 634.1C201.782 634.18 201.362 634.22 200.935 634.22ZM201.575 632.24C201.828 632.24 202.095 632.213 202.375 632.16C202.655 632.107 202.915 632.047 203.155 631.98C203.408 631.9 203.608 631.827 203.755 631.76V629.46L201.715 629.64C201.275 629.68 200.955 629.813 200.755 630.04C200.568 630.253 200.475 630.56 200.475 630.96C200.475 631.36 200.562 631.673 200.735 631.9C200.922 632.127 201.202 632.24 201.575 632.24ZM210.664 636.46H208.184C208.37 635.953 208.564 635.36 208.764 634.68C208.977 634 209.17 633.267 209.344 632.48C209.517 631.693 209.657 630.893 209.764 630.08C209.884 629.267 209.944 628.493 209.944 627.76C209.944 627.027 209.884 626.253 209.764 625.44C209.657 624.627 209.517 623.82 209.344 623.02C209.17 622.22 208.977 621.473 208.764 620.78C208.564 620.073 208.37 619.467 208.184 618.96H210.664C210.89 619.4 211.124 619.947 211.364 620.6C211.604 621.253 211.824 621.973 212.024 622.76C212.237 623.533 212.404 624.353 212.524 625.22C212.657 626.073 212.724 626.92 212.724 627.76C212.724 628.613 212.657 629.467 212.524 630.32C212.404 631.16 212.237 631.967 212.024 632.74C211.824 633.513 211.604 634.22 211.364 634.86C211.124 635.5 210.89 636.033 210.664 636.46ZM221.54 634.22C220.5 634.22 219.714 633.96 219.18 633.44C218.66 632.907 218.4 632.107 218.4 631.04C218.4 630.293 218.534 629.713 218.8 629.3C219.067 628.873 219.46 628.567 219.98 628.38C220.514 628.18 221.16 628.06 221.92 628.02L224.36 627.8V627.2C224.36 626.72 224.24 626.387 224 626.2C223.76 626 223.407 625.9 222.94 625.9C222.567 625.9 222.134 625.913 221.64 625.94C221.16 625.967 220.68 626 220.2 626.04C219.734 626.08 219.327 626.12 218.98 626.16L218.9 624.28C219.247 624.2 219.66 624.12 220.14 624.04C220.634 623.947 221.147 623.873 221.68 623.82C222.214 623.767 222.707 623.74 223.16 623.74C224.014 623.74 224.727 623.847 225.3 624.06C225.874 624.273 226.307 624.627 226.6 625.12C226.894 625.6 227.04 626.253 227.04 627.08V631.66C227.067 631.847 227.167 631.993 227.34 632.1C227.514 632.193 227.714 632.26 227.94 632.3L227.88 634.14C227.667 634.14 227.454 634.14 227.24 634.14C227.04 634.153 226.847 634.153 226.66 634.14C226.474 634.14 226.307 634.127 226.16 634.1C225.854 634.06 225.587 633.98 225.36 633.86C225.147 633.74 224.974 633.613 224.84 633.48C224.627 633.573 224.34 633.68 223.98 633.8C223.62 633.92 223.227 634.02 222.8 634.1C222.387 634.18 221.967 634.22 221.54 634.22ZM222.18 632.24C222.434 632.24 222.7 632.213 222.98 632.16C223.26 632.107 223.52 632.047 223.76 631.98C224.014 631.9 224.214 631.827 224.36 631.76V629.46L222.32 629.64C221.88 629.68 221.56 629.813 221.36 630.04C221.174 630.253 221.08 630.56 221.08 630.96C221.08 631.36 221.167 631.673 221.34 631.9C221.527 632.127 221.807 632.24 222.18 632.24ZM224.26 622.46L220 621L221.52 618.98L225.44 620.96L224.26 622.46ZM232.885 634L236.365 620.34H241.185L244.645 634H241.885L241.125 631.24H236.345L235.625 634H232.885ZM236.785 629.02H240.725L239.185 622.58H238.345L236.785 629.02ZM237.945 618.96L236.365 618.26L239.385 616L241.525 616.86L237.945 618.96ZM249.253 634.22C248.773 634.22 248.333 634.16 247.933 634.04C247.533 633.933 247.18 633.76 246.873 633.52C246.58 633.267 246.327 632.94 246.113 632.54C245.913 632.14 245.76 631.653 245.653 631.08C245.547 630.493 245.493 629.813 245.493 629.04C245.493 627.893 245.633 626.927 245.913 626.14C246.207 625.353 246.667 624.76 247.293 624.36C247.92 623.947 248.753 623.74 249.793 623.74C249.993 623.74 250.227 623.753 250.493 623.78C250.76 623.793 251.02 623.82 251.273 623.86C251.527 623.887 251.733 623.913 251.893 623.94V619.86H254.573V634H251.933L251.913 633.42C251.727 633.527 251.48 633.647 251.173 633.78C250.88 633.9 250.567 634 250.233 634.08C249.9 634.173 249.573 634.22 249.253 634.22ZM249.933 631.98C250.173 631.98 250.413 631.953 250.653 631.9C250.907 631.847 251.14 631.787 251.353 631.72C251.58 631.64 251.76 631.567 251.893 631.5V626.12C251.773 626.093 251.613 626.073 251.413 626.06C251.213 626.033 251.007 626.013 250.793 626C250.58 625.973 250.387 625.96 250.213 625.96C249.693 625.96 249.287 626.08 248.993 626.32C248.713 626.56 248.513 626.913 248.393 627.38C248.273 627.833 248.213 628.387 248.213 629.04C248.213 629.613 248.253 630.093 248.333 630.48C248.413 630.853 248.527 631.153 248.673 631.38C248.833 631.593 249.02 631.747 249.233 631.84C249.447 631.933 249.68 631.98 249.933 631.98ZM258.352 634L255.972 623.96H258.832L260.512 631.74H261.092L262.812 623.96H265.512L263.132 634H258.352ZM270.812 634.22C269.706 634.22 268.826 634.033 268.172 633.66C267.532 633.287 267.072 632.72 266.792 631.96C266.512 631.2 266.372 630.247 266.372 629.1C266.372 627.86 266.546 626.847 266.892 626.06C267.252 625.273 267.772 624.693 268.452 624.32C269.132 623.933 269.972 623.74 270.972 623.74C272.452 623.74 273.566 624.113 274.312 624.86C275.072 625.607 275.452 626.787 275.452 628.4L275.332 629.88H269.052C269.066 630.627 269.219 631.187 269.512 631.56C269.806 631.933 270.312 632.12 271.032 632.12C271.446 632.12 271.899 632.113 272.392 632.1C272.886 632.073 273.372 632.047 273.852 632.02C274.346 631.993 274.766 631.967 275.112 631.94L275.172 633.8C274.839 633.853 274.419 633.913 273.912 633.98C273.406 634.047 272.879 634.1 272.332 634.14C271.799 634.193 271.292 634.22 270.812 634.22ZM269.052 628.18H272.792C272.792 627.273 272.646 626.64 272.352 626.28C272.072 625.92 271.612 625.74 270.972 625.74C270.546 625.74 270.192 625.82 269.912 625.98C269.632 626.14 269.419 626.4 269.272 626.76C269.126 627.12 269.052 627.593 269.052 628.18ZM277.221 634V623.96H279.881V624.6C280.094 624.467 280.354 624.34 280.661 624.22C280.968 624.087 281.288 623.973 281.621 623.88C281.968 623.787 282.301 623.74 282.621 623.74C283.314 623.74 283.888 623.833 284.341 624.02C284.808 624.193 285.174 624.48 285.441 624.88C285.708 625.28 285.901 625.807 286.021 626.46C286.141 627.1 286.201 627.88 286.201 628.8V634H283.521V628.94C283.521 628.247 283.481 627.693 283.401 627.28C283.321 626.853 283.168 626.547 282.941 626.36C282.714 626.173 282.381 626.08 281.941 626.08C281.701 626.08 281.448 626.107 281.181 626.16C280.928 626.2 280.681 626.26 280.441 626.34C280.214 626.42 280.028 626.5 279.881 626.58V634H277.221ZM290.896 634.22C289.856 634.22 289.069 633.96 288.536 633.44C288.016 632.907 287.756 632.107 287.756 631.04C287.756 630.293 287.889 629.713 288.156 629.3C288.422 628.873 288.816 628.567 289.336 628.38C289.869 628.18 290.516 628.06 291.276 628.02L293.716 627.8V627.2C293.716 626.72 293.596 626.387 293.356 626.2C293.116 626 292.762 625.9 292.296 625.9C291.922 625.9 291.489 625.913 290.996 625.94C290.516 625.967 290.036 626 289.556 626.04C289.089 626.08 288.682 626.12 288.336 626.16L288.256 624.28C288.602 624.2 289.016 624.12 289.496 624.04C289.989 623.947 290.502 623.873 291.036 623.82C291.569 623.767 292.062 623.74 292.516 623.74C293.369 623.74 294.082 623.847 294.656 624.06C295.229 624.273 295.662 624.627 295.956 625.12C296.249 625.6 296.396 626.253 296.396 627.08V631.66C296.422 631.847 296.522 631.993 296.696 632.1C296.869 632.193 297.069 632.26 297.296 632.3L297.236 634.14C297.022 634.14 296.809 634.14 296.596 634.14C296.396 634.153 296.202 634.153 296.016 634.14C295.829 634.14 295.662 634.127 295.516 634.1C295.209 634.06 294.942 633.98 294.716 633.86C294.502 633.74 294.329 633.613 294.196 633.48C293.982 633.573 293.696 633.68 293.336 633.8C292.976 633.92 292.582 634.02 292.156 634.1C291.742 634.18 291.322 634.22 290.896 634.22ZM291.536 632.24C291.789 632.24 292.056 632.213 292.336 632.16C292.616 632.107 292.876 632.047 293.116 631.98C293.369 631.9 293.569 631.827 293.716 631.76V629.46L291.676 629.64C291.236 629.68 290.916 629.813 290.716 630.04C290.529 630.253 290.436 630.56 290.436 630.96C290.436 631.36 290.522 631.673 290.696 631.9C290.882 632.127 291.162 632.24 291.536 632.24Z" fill="#1B1B1B"/>
<path d="M89.5304 659.084C88.8024 659.084 88.1024 658.967 87.4304 658.734C86.7678 658.491 86.2544 658.183 85.8904 657.81L86.2964 657.012C86.6418 657.348 87.1038 657.633 87.6824 657.866C88.2704 658.09 88.8864 658.202 89.5304 658.202C90.1464 658.202 90.6458 658.127 91.0284 657.978C91.4204 657.819 91.7051 657.609 91.8824 657.348C92.0691 657.087 92.1624 656.797 92.1624 656.48C92.1624 656.097 92.0504 655.789 91.8264 655.556C91.6118 655.323 91.3271 655.141 90.9724 655.01C90.6178 654.87 90.2258 654.749 89.7964 654.646C89.3671 654.543 88.9378 654.436 88.5084 654.324C88.0791 654.203 87.6824 654.044 87.3184 653.848C86.9638 653.652 86.6744 653.395 86.4504 653.078C86.2358 652.751 86.1284 652.327 86.1284 651.804C86.1284 651.319 86.2544 650.875 86.5064 650.474C86.7678 650.063 87.1644 649.737 87.6964 649.494C88.2284 649.242 88.9098 649.116 89.7404 649.116C90.2911 649.116 90.8371 649.195 91.3784 649.354C91.9198 649.503 92.3864 649.713 92.7784 649.984L92.4284 650.81C92.0084 650.53 91.5604 650.325 91.0844 650.194C90.6178 650.063 90.1651 649.998 89.7264 649.998C89.1384 649.998 88.6531 650.077 88.2704 650.236C87.8878 650.395 87.6031 650.609 87.4164 650.88C87.2391 651.141 87.1504 651.44 87.1504 651.776C87.1504 652.159 87.2578 652.467 87.4724 652.7C87.6964 652.933 87.9858 653.115 88.3404 653.246C88.7044 653.377 89.1011 653.493 89.5304 653.596C89.9598 653.699 90.3844 653.811 90.8044 653.932C91.2338 654.053 91.6258 654.212 91.9804 654.408C92.3444 654.595 92.6338 654.847 92.8484 655.164C93.0724 655.481 93.1844 655.897 93.1844 656.41C93.1844 656.886 93.0538 657.329 92.7924 657.74C92.5311 658.141 92.1298 658.468 91.5884 658.72C91.0564 658.963 90.3704 659.084 89.5304 659.084ZM99.8377 659V657.376L99.7957 657.11V654.394C99.7957 653.769 99.6184 653.288 99.2637 652.952C98.9184 652.616 98.4004 652.448 97.7097 652.448C97.2337 652.448 96.781 652.527 96.3517 652.686C95.9224 652.845 95.5584 653.055 95.2597 653.316L94.8117 652.574C95.185 652.257 95.633 652.014 96.1557 651.846C96.6784 651.669 97.229 651.58 97.8077 651.58C98.7597 651.58 99.4924 651.818 100.006 652.294C100.528 652.761 100.79 653.475 100.79 654.436V659H99.8377ZM97.3037 659.07C96.753 659.07 96.2724 658.981 95.8617 658.804C95.4604 658.617 95.1524 658.365 94.9377 658.048C94.723 657.721 94.6157 657.348 94.6157 656.928C94.6157 656.545 94.7044 656.2 94.8817 655.892C95.0684 655.575 95.367 655.323 95.7777 655.136C96.1977 654.94 96.7577 654.842 97.4577 654.842H99.9917V655.584H97.4857C96.7764 655.584 96.2817 655.71 96.0017 655.962C95.731 656.214 95.5957 656.527 95.5957 656.9C95.5957 657.32 95.759 657.656 96.0857 657.908C96.4124 658.16 96.8697 658.286 97.4577 658.286C98.0177 658.286 98.4984 658.16 98.8997 657.908C99.3104 657.647 99.609 657.273 99.7957 656.788L100.02 657.474C99.833 657.959 99.5064 658.347 99.0397 658.636C98.5824 658.925 98.0037 659.07 97.3037 659.07ZM106.528 659.07C105.902 659.07 105.356 658.953 104.89 658.72C104.423 658.487 104.059 658.137 103.798 657.67C103.546 657.203 103.42 656.62 103.42 655.92V651.65H104.414V655.808C104.414 656.592 104.605 657.185 104.988 657.586C105.38 657.978 105.926 658.174 106.626 658.174C107.139 658.174 107.582 658.071 107.956 657.866C108.338 657.651 108.628 657.343 108.824 656.942C109.029 656.541 109.132 656.06 109.132 655.5V651.65H110.126V659H109.174V656.984L109.328 657.348C109.094 657.889 108.73 658.314 108.236 658.622C107.75 658.921 107.181 659.07 106.528 659.07ZM105.87 650.502L107.788 648.766H109.118L106.85 650.502H105.87ZM115.822 659.07C115.122 659.07 114.492 658.911 113.932 658.594C113.381 658.277 112.947 657.838 112.63 657.278C112.312 656.709 112.154 656.055 112.154 655.318C112.154 654.571 112.312 653.918 112.63 653.358C112.947 652.798 113.381 652.364 113.932 652.056C114.492 651.739 115.122 651.58 115.822 651.58C116.466 651.58 117.04 651.725 117.544 652.014C118.057 652.303 118.463 652.728 118.762 653.288C119.07 653.839 119.224 654.515 119.224 655.318C119.224 656.111 119.074 656.788 118.776 657.348C118.477 657.908 118.071 658.337 117.558 658.636C117.054 658.925 116.475 659.07 115.822 659.07ZM115.892 658.188C116.414 658.188 116.881 658.071 117.292 657.838C117.712 657.595 118.038 657.259 118.272 656.83C118.514 656.391 118.636 655.887 118.636 655.318C118.636 654.739 118.514 654.235 118.272 653.806C118.038 653.377 117.712 653.045 117.292 652.812C116.881 652.569 116.414 652.448 115.892 652.448C115.378 652.448 114.916 652.569 114.506 652.812C114.095 653.045 113.768 653.377 113.526 653.806C113.283 654.235 113.162 654.739 113.162 655.318C113.162 655.887 113.283 656.391 113.526 656.83C113.768 657.259 114.095 657.595 114.506 657.838C114.916 658.071 115.378 658.188 115.892 658.188ZM118.664 659V656.788L118.762 655.304L118.622 653.82V648.612H119.616V659H118.664ZM125.506 659.07C124.741 659.07 124.069 658.911 123.49 658.594C122.911 658.267 122.459 657.824 122.132 657.264C121.805 656.695 121.642 656.046 121.642 655.318C121.642 654.59 121.796 653.946 122.104 653.386C122.421 652.826 122.851 652.387 123.392 652.07C123.943 651.743 124.559 651.58 125.24 651.58C125.931 651.58 126.542 651.739 127.074 652.056C127.615 652.364 128.04 652.803 128.348 653.372C128.656 653.932 128.81 654.581 128.81 655.318C128.81 655.365 128.805 655.416 128.796 655.472C128.796 655.519 128.796 655.57 128.796 655.626H122.398V654.884H128.264L127.872 655.178C127.872 654.646 127.755 654.175 127.522 653.764C127.298 653.344 126.99 653.017 126.598 652.784C126.206 652.551 125.753 652.434 125.24 652.434C124.736 652.434 124.283 652.551 123.882 652.784C123.481 653.017 123.168 653.344 122.944 653.764C122.72 654.184 122.608 654.665 122.608 655.206V655.36C122.608 655.92 122.729 656.415 122.972 656.844C123.224 657.264 123.569 657.595 124.008 657.838C124.456 658.071 124.965 658.188 125.534 658.188C125.982 658.188 126.397 658.109 126.78 657.95C127.172 657.791 127.508 657.549 127.788 657.222L128.348 657.866C128.021 658.258 127.611 658.557 127.116 658.762C126.631 658.967 126.094 659.07 125.506 659.07ZM143.681 651.58C144.279 651.58 144.797 651.697 145.235 651.93C145.683 652.154 146.029 652.499 146.271 652.966C146.523 653.433 146.649 654.021 146.649 654.73V659H145.655V654.828C145.655 654.053 145.469 653.47 145.095 653.078C144.731 652.677 144.213 652.476 143.541 652.476C143.037 652.476 142.599 652.583 142.225 652.798C141.861 653.003 141.577 653.307 141.371 653.708C141.175 654.1 141.077 654.576 141.077 655.136V659H140.083V654.828C140.083 654.053 139.897 653.47 139.523 653.078C139.15 652.677 138.627 652.476 137.955 652.476C137.461 652.476 137.027 652.583 136.653 652.798C136.28 653.003 135.991 653.307 135.785 653.708C135.589 654.1 135.491 654.576 135.491 655.136V659H134.497V651.65H135.449V653.638L135.295 653.288C135.519 652.756 135.879 652.341 136.373 652.042C136.877 651.734 137.47 651.58 138.151 651.58C138.87 651.58 139.481 651.762 139.985 652.126C140.489 652.481 140.816 653.017 140.965 653.736L140.573 653.582C140.788 652.985 141.166 652.504 141.707 652.14C142.258 651.767 142.916 651.58 143.681 651.58ZM152.467 659.07C151.702 659.07 151.03 658.911 150.451 658.594C149.872 658.267 149.42 657.824 149.093 657.264C148.766 656.695 148.603 656.046 148.603 655.318C148.603 654.59 148.757 653.946 149.065 653.386C149.382 652.826 149.812 652.387 150.353 652.07C150.904 651.743 151.52 651.58 152.201 651.58C152.892 651.58 153.503 651.739 154.035 652.056C154.576 652.364 155.001 652.803 155.309 653.372C155.617 653.932 155.771 654.581 155.771 655.318C155.771 655.365 155.766 655.416 155.757 655.472C155.757 655.519 155.757 655.57 155.757 655.626H149.359V654.884H155.225L154.833 655.178C154.833 654.646 154.716 654.175 154.483 653.764C154.259 653.344 153.951 653.017 153.559 652.784C153.167 652.551 152.714 652.434 152.201 652.434C151.697 652.434 151.244 652.551 150.843 652.784C150.442 653.017 150.129 653.344 149.905 653.764C149.681 654.184 149.569 654.665 149.569 655.206V655.36C149.569 655.92 149.69 656.415 149.933 656.844C150.185 657.264 150.53 657.595 150.969 657.838C151.417 658.071 151.926 658.188 152.495 658.188C152.943 658.188 153.358 658.109 153.741 657.95C154.133 657.791 154.469 657.549 154.749 657.222L155.309 657.866C154.982 658.258 154.572 658.557 154.077 658.762C153.592 658.967 153.055 659.07 152.467 659.07ZM161.546 651.58C162.144 651.58 162.666 651.697 163.114 651.93C163.572 652.154 163.926 652.499 164.178 652.966C164.44 653.433 164.57 654.021 164.57 654.73V659H163.576V654.828C163.576 654.053 163.38 653.47 162.988 653.078C162.606 652.677 162.064 652.476 161.364 652.476C160.842 652.476 160.384 652.583 159.992 652.798C159.61 653.003 159.311 653.307 159.096 653.708C158.891 654.1 158.788 654.576 158.788 655.136V659H157.794V651.65H158.746V653.666L158.592 653.288C158.826 652.756 159.199 652.341 159.712 652.042C160.226 651.734 160.837 651.58 161.546 651.58ZM169.579 659.07C168.888 659.07 168.356 658.883 167.983 658.51C167.61 658.137 167.423 657.609 167.423 656.928V650.026H168.417V656.872C168.417 657.301 168.524 657.633 168.739 657.866C168.963 658.099 169.28 658.216 169.691 658.216C170.13 658.216 170.494 658.09 170.783 657.838L171.133 658.552C170.937 658.729 170.699 658.86 170.419 658.944C170.148 659.028 169.868 659.07 169.579 659.07ZM166.107 652.476V651.65H170.657V652.476H166.107ZM177.549 659V657.376L177.507 657.11V654.394C177.507 653.769 177.329 653.288 176.975 652.952C176.629 652.616 176.111 652.448 175.421 652.448C174.945 652.448 174.492 652.527 174.063 652.686C173.633 652.845 173.269 653.055 172.971 653.316L172.523 652.574C172.896 652.257 173.344 652.014 173.867 651.846C174.389 651.669 174.94 651.58 175.519 651.58C176.471 651.58 177.203 651.818 177.717 652.294C178.239 652.761 178.501 653.475 178.501 654.436V659H177.549ZM175.015 659.07C174.464 659.07 173.983 658.981 173.573 658.804C173.171 658.617 172.863 658.365 172.649 658.048C172.434 657.721 172.327 657.348 172.327 656.928C172.327 656.545 172.415 656.2 172.593 655.892C172.779 655.575 173.078 655.323 173.489 655.136C173.909 654.94 174.469 654.842 175.169 654.842H177.703V655.584H175.197C174.487 655.584 173.993 655.71 173.713 655.962C173.442 656.214 173.307 656.527 173.307 656.9C173.307 657.32 173.47 657.656 173.797 657.908C174.123 658.16 174.581 658.286 175.169 658.286C175.729 658.286 176.209 658.16 176.611 657.908C177.021 657.647 177.32 657.273 177.507 656.788L177.731 657.474C177.544 657.959 177.217 658.347 176.751 658.636C176.293 658.925 175.715 659.07 175.015 659.07ZM181.2 659V648.612H182.194V659H181.2ZM191.746 659.07C190.981 659.07 190.309 658.911 189.73 658.594C189.152 658.267 188.699 657.824 188.372 657.264C188.046 656.695 187.882 656.046 187.882 655.318C187.882 654.59 188.036 653.946 188.344 653.386C188.662 652.826 189.091 652.387 189.632 652.07C190.183 651.743 190.799 651.58 191.48 651.58C192.171 651.58 192.782 651.739 193.314 652.056C193.856 652.364 194.28 652.803 194.588 653.372C194.896 653.932 195.05 654.581 195.05 655.318C195.05 655.365 195.046 655.416 195.036 655.472C195.036 655.519 195.036 655.57 195.036 655.626H188.638V654.884H194.504L194.112 655.178C194.112 654.646 193.996 654.175 193.762 653.764C193.538 653.344 193.23 653.017 192.838 652.784C192.446 652.551 191.994 652.434 191.48 652.434C190.976 652.434 190.524 652.551 190.122 652.784C189.721 653.017 189.408 653.344 189.184 653.764C188.96 654.184 188.848 654.665 188.848 655.206V655.36C188.848 655.92 188.97 656.415 189.212 656.844C189.464 657.264 189.81 657.595 190.248 657.838C190.696 658.071 191.205 658.188 191.774 658.188C192.222 658.188 192.638 658.109 193.02 657.95C193.412 657.791 193.748 657.549 194.028 657.222L194.588 657.866C194.262 658.258 193.851 658.557 193.356 658.762C192.871 658.967 192.334 659.07 191.746 659.07ZM200.738 659V651.65H201.732V659H200.738ZM201.242 650.026C201.036 650.026 200.864 649.956 200.724 649.816C200.584 649.676 200.514 649.508 200.514 649.312C200.514 649.116 200.584 648.953 200.724 648.822C200.864 648.682 201.036 648.612 201.242 648.612C201.447 648.612 201.62 648.677 201.76 648.808C201.9 648.939 201.97 649.102 201.97 649.298C201.97 649.503 201.9 649.676 201.76 649.816C201.629 649.956 201.456 650.026 201.242 650.026ZM208.249 651.58C208.847 651.58 209.369 651.697 209.817 651.93C210.275 652.154 210.629 652.499 210.881 652.966C211.143 653.433 211.273 654.021 211.273 654.73V659H210.279V654.828C210.279 654.053 210.083 653.47 209.691 653.078C209.309 652.677 208.767 652.476 208.067 652.476C207.545 652.476 207.087 652.583 206.695 652.798C206.313 653.003 206.014 653.307 205.799 653.708C205.594 654.1 205.491 654.576 205.491 655.136V659H204.497V651.65H205.449V653.666L205.295 653.288C205.529 652.756 205.902 652.341 206.415 652.042C206.929 651.734 207.54 651.58 208.249 651.58ZM216.282 659.07C215.592 659.07 215.06 658.883 214.686 658.51C214.313 658.137 214.126 657.609 214.126 656.928V650.026H215.12V656.872C215.12 657.301 215.228 657.633 215.442 657.866C215.666 658.099 215.984 658.216 216.394 658.216C216.833 658.216 217.197 658.09 217.486 657.838L217.836 658.552C217.64 658.729 217.402 658.86 217.122 658.944C216.852 659.028 216.572 659.07 216.282 659.07ZM212.81 652.476V651.65H217.36V652.476H212.81ZM222.508 659.07C221.743 659.07 221.071 658.911 220.492 658.594C219.913 658.267 219.461 657.824 219.134 657.264C218.807 656.695 218.644 656.046 218.644 655.318C218.644 654.59 218.798 653.946 219.106 653.386C219.423 652.826 219.853 652.387 220.394 652.07C220.945 651.743 221.561 651.58 222.242 651.58C222.933 651.58 223.544 651.739 224.076 652.056C224.617 652.364 225.042 652.803 225.35 653.372C225.658 653.932 225.812 654.581 225.812 655.318C225.812 655.365 225.807 655.416 225.798 655.472C225.798 655.519 225.798 655.57 225.798 655.626H219.4V654.884H225.266L224.874 655.178C224.874 654.646 224.757 654.175 224.524 653.764C224.3 653.344 223.992 653.017 223.6 652.784C223.208 652.551 222.755 652.434 222.242 652.434C221.738 652.434 221.285 652.551 220.884 652.784C220.483 653.017 220.17 653.344 219.946 653.764C219.722 654.184 219.61 654.665 219.61 655.206V655.36C219.61 655.92 219.731 656.415 219.974 656.844C220.226 657.264 220.571 657.595 221.01 657.838C221.458 658.071 221.967 658.188 222.536 658.188C222.984 658.188 223.399 658.109 223.782 657.95C224.174 657.791 224.51 657.549 224.79 657.222L225.35 657.866C225.023 658.258 224.613 658.557 224.118 658.762C223.633 658.967 223.096 659.07 222.508 659.07ZM230.971 661.786C230.299 661.786 229.655 661.688 229.039 661.492C228.423 661.296 227.924 661.016 227.541 660.652L228.045 659.896C228.391 660.204 228.815 660.447 229.319 660.624C229.833 660.811 230.374 660.904 230.943 660.904C231.877 660.904 232.563 660.685 233.001 660.246C233.44 659.817 233.659 659.145 233.659 658.23V656.396L233.799 655.136L233.701 653.876V651.65H234.653V658.104C234.653 659.373 234.341 660.302 233.715 660.89C233.099 661.487 232.185 661.786 230.971 661.786ZM230.789 658.72C230.089 658.72 229.459 658.571 228.899 658.272C228.339 657.964 227.896 657.539 227.569 656.998C227.252 656.457 227.093 655.836 227.093 655.136C227.093 654.436 227.252 653.82 227.569 653.288C227.896 652.747 228.339 652.327 228.899 652.028C229.459 651.729 230.089 651.58 230.789 651.58C231.443 651.58 232.031 651.715 232.553 651.986C233.076 652.257 233.491 652.658 233.799 653.19C234.107 653.722 234.261 654.371 234.261 655.136C234.261 655.901 234.107 656.55 233.799 657.082C233.491 657.614 233.076 658.02 232.553 658.3C232.031 658.58 231.443 658.72 230.789 658.72ZM230.887 657.838C231.429 657.838 231.909 657.726 232.329 657.502C232.749 657.269 233.081 656.951 233.323 656.55C233.566 656.139 233.687 655.668 233.687 655.136C233.687 654.604 233.566 654.137 233.323 653.736C233.081 653.335 232.749 653.022 232.329 652.798C231.909 652.565 231.429 652.448 230.887 652.448C230.355 652.448 229.875 652.565 229.445 652.798C229.025 653.022 228.694 653.335 228.451 653.736C228.218 654.137 228.101 654.604 228.101 655.136C228.101 655.668 228.218 656.139 228.451 656.55C228.694 656.951 229.025 657.269 229.445 657.502C229.875 657.726 230.355 657.838 230.887 657.838ZM237.419 659V651.65H238.371V653.652L238.273 653.302C238.479 652.742 238.824 652.317 239.309 652.028C239.795 651.729 240.397 651.58 241.115 651.58V652.546C241.078 652.546 241.041 652.546 241.003 652.546C240.966 652.537 240.929 652.532 240.891 652.532C240.117 652.532 239.51 652.77 239.071 653.246C238.633 653.713 238.413 654.38 238.413 655.248V659H237.419ZM246.988 659V657.376L246.946 657.11V654.394C246.946 653.769 246.769 653.288 246.414 652.952C246.069 652.616 245.551 652.448 244.86 652.448C244.384 652.448 243.931 652.527 243.502 652.686C243.073 652.845 242.709 653.055 242.41 653.316L241.962 652.574C242.335 652.257 242.783 652.014 243.306 651.846C243.829 651.669 244.379 651.58 244.958 651.58C245.91 651.58 246.643 651.818 247.156 652.294C247.679 652.761 247.94 653.475 247.94 654.436V659H246.988ZM244.454 659.07C243.903 659.07 243.423 658.981 243.012 658.804C242.611 658.617 242.303 658.365 242.088 658.048C241.873 657.721 241.766 657.348 241.766 656.928C241.766 656.545 241.855 656.2 242.032 655.892C242.219 655.575 242.517 655.323 242.928 655.136C243.348 654.94 243.908 654.842 244.608 654.842H247.142V655.584H244.636C243.927 655.584 243.432 655.71 243.152 655.962C242.881 656.214 242.746 656.527 242.746 656.9C242.746 657.32 242.909 657.656 243.236 657.908C243.563 658.16 244.02 658.286 244.608 658.286C245.168 658.286 245.649 658.16 246.05 657.908C246.461 657.647 246.759 657.273 246.946 656.788L247.17 657.474C246.983 657.959 246.657 658.347 246.19 658.636C245.733 658.925 245.154 659.07 244.454 659.07ZM253.692 659.07C252.964 659.07 252.311 658.911 251.732 658.594C251.163 658.267 250.715 657.824 250.388 657.264C250.061 656.695 249.898 656.046 249.898 655.318C249.898 654.581 250.061 653.932 250.388 653.372C250.715 652.812 251.163 652.373 251.732 652.056C252.311 651.739 252.964 651.58 253.692 651.58C254.317 651.58 254.882 651.701 255.386 651.944C255.89 652.187 256.287 652.551 256.576 653.036L255.834 653.54C255.582 653.167 255.269 652.891 254.896 652.714C254.523 652.537 254.117 652.448 253.678 652.448C253.155 652.448 252.684 652.569 252.264 652.812C251.844 653.045 251.513 653.377 251.27 653.806C251.027 654.235 250.906 654.739 250.906 655.318C250.906 655.897 251.027 656.401 251.27 656.83C251.513 657.259 251.844 657.595 252.264 657.838C252.684 658.071 253.155 658.188 253.678 658.188C254.117 658.188 254.523 658.099 254.896 657.922C255.269 657.745 255.582 657.474 255.834 657.11L256.576 657.614C256.287 658.09 255.89 658.454 255.386 658.706C254.882 658.949 254.317 659.07 253.692 659.07ZM253.104 662.08C252.871 662.08 252.656 662.052 252.46 661.996C252.273 661.94 252.096 661.861 251.928 661.758L252.166 661.226C252.306 661.31 252.451 661.375 252.6 661.422C252.759 661.469 252.922 661.492 253.09 661.492C253.37 661.492 253.585 661.431 253.734 661.31C253.883 661.198 253.958 661.039 253.958 660.834C253.958 660.647 253.883 660.493 253.734 660.372C253.594 660.251 253.379 660.19 253.09 660.19H252.768L253.104 658.916H253.706L253.496 659.728C253.879 659.756 254.173 659.873 254.378 660.078C254.583 660.293 254.686 660.554 254.686 660.862C254.686 661.235 254.537 661.529 254.238 661.744C253.949 661.968 253.571 662.08 253.104 662.08ZM263.135 659V657.376L263.093 657.11V654.394C263.093 653.769 262.915 653.288 262.561 652.952C262.215 652.616 261.697 652.448 261.007 652.448C260.531 652.448 260.078 652.527 259.649 652.686C259.219 652.845 258.855 653.055 258.557 653.316L258.109 652.574C258.482 652.257 258.93 652.014 259.453 651.846C259.975 651.669 260.526 651.58 261.105 651.58C262.057 651.58 262.789 651.818 263.303 652.294C263.825 652.761 264.087 653.475 264.087 654.436V659H263.135ZM260.601 659.07C260.05 659.07 259.569 658.981 259.159 658.804C258.757 658.617 258.449 658.365 258.235 658.048C258.02 657.721 257.913 657.348 257.913 656.928C257.913 656.545 258.001 656.2 258.179 655.892C258.365 655.575 258.664 655.323 259.075 655.136C259.495 654.94 260.055 654.842 260.755 654.842H263.289V655.584H260.783C260.073 655.584 259.579 655.71 259.299 655.962C259.028 656.214 258.893 656.527 258.893 656.9C258.893 657.32 259.056 657.656 259.383 657.908C259.709 658.16 260.167 658.286 260.755 658.286C261.315 658.286 261.795 658.16 262.197 657.908C262.607 657.647 262.906 657.273 263.093 656.788L263.317 657.474C263.13 657.959 262.803 658.347 262.337 658.636C261.879 658.925 261.301 659.07 260.601 659.07ZM262.085 650.418C261.87 650.418 261.679 650.371 261.511 650.278C261.343 650.185 261.189 650.077 261.049 649.956C260.918 649.825 260.787 649.713 260.657 649.62C260.526 649.517 260.391 649.466 260.251 649.466C260.036 649.466 259.863 649.545 259.733 649.704C259.611 649.863 259.541 650.082 259.523 650.362H258.921C258.939 649.895 259.061 649.522 259.285 649.242C259.518 648.962 259.817 648.822 260.181 648.822C260.395 648.822 260.587 648.873 260.755 648.976C260.932 649.069 261.086 649.181 261.217 649.312C261.357 649.433 261.487 649.541 261.609 649.634C261.739 649.727 261.875 649.774 262.015 649.774C262.229 649.774 262.402 649.699 262.533 649.55C262.663 649.391 262.733 649.177 262.743 648.906H263.345C263.335 649.354 263.214 649.718 262.981 649.998C262.747 650.278 262.449 650.418 262.085 650.418ZM269.782 659.07C269.073 659.07 268.434 658.911 267.864 658.594C267.304 658.267 266.861 657.824 266.534 657.264C266.208 656.695 266.044 656.046 266.044 655.318C266.044 654.581 266.208 653.932 266.534 653.372C266.861 652.812 267.304 652.373 267.864 652.056C268.424 651.739 269.064 651.58 269.782 651.58C270.51 651.58 271.154 651.739 271.714 652.056C272.284 652.373 272.727 652.812 273.044 653.372C273.371 653.932 273.534 654.581 273.534 655.318C273.534 656.046 273.371 656.695 273.044 657.264C272.727 657.824 272.284 658.267 271.714 658.594C271.145 658.911 270.501 659.07 269.782 659.07ZM269.782 658.188C270.314 658.188 270.786 658.071 271.196 657.838C271.607 657.595 271.929 657.259 272.162 656.83C272.405 656.391 272.526 655.887 272.526 655.318C272.526 654.739 272.405 654.235 272.162 653.806C271.929 653.377 271.607 653.045 271.196 652.812C270.786 652.569 270.319 652.448 269.796 652.448C269.274 652.448 268.807 652.569 268.396 652.812C267.986 653.045 267.659 653.377 267.416 653.806C267.174 654.235 267.052 654.739 267.052 655.318C267.052 655.887 267.174 656.391 267.416 656.83C267.659 657.259 267.986 657.595 268.396 657.838C268.807 658.071 269.269 658.188 269.782 658.188ZM283.022 659.07C282.387 659.07 281.813 658.925 281.3 658.636C280.786 658.337 280.376 657.913 280.068 657.362C279.769 656.802 279.62 656.121 279.62 655.318C279.62 654.515 279.769 653.839 280.068 653.288C280.366 652.728 280.772 652.303 281.286 652.014C281.799 651.725 282.378 651.58 283.022 651.58C283.722 651.58 284.347 651.739 284.898 652.056C285.458 652.364 285.896 652.803 286.214 653.372C286.531 653.932 286.69 654.581 286.69 655.318C286.69 656.065 286.531 656.718 286.214 657.278C285.896 657.838 285.458 658.277 284.898 658.594C284.347 658.911 283.722 659.07 283.022 659.07ZM279.228 661.716V651.65H280.18V653.862L280.082 655.332L280.222 656.816V661.716H279.228ZM282.952 658.188C283.474 658.188 283.941 658.071 284.352 657.838C284.762 657.595 285.089 657.259 285.332 656.83C285.574 656.391 285.696 655.887 285.696 655.318C285.696 654.749 285.574 654.249 285.332 653.82C285.089 653.391 284.762 653.055 284.352 652.812C283.941 652.569 283.474 652.448 282.952 652.448C282.429 652.448 281.958 652.569 281.538 652.812C281.127 653.055 280.8 653.391 280.558 653.82C280.324 654.249 280.208 654.749 280.208 655.318C280.208 655.887 280.324 656.391 280.558 656.83C280.8 657.259 281.127 657.595 281.538 657.838C281.958 658.071 282.429 658.188 282.952 658.188ZM293.281 659V657.376L293.239 657.11V654.394C293.239 653.769 293.062 653.288 292.707 652.952C292.362 652.616 291.844 652.448 291.153 652.448C290.677 652.448 290.224 652.527 289.795 652.686C289.366 652.845 289.002 653.055 288.703 653.316L288.255 652.574C288.628 652.257 289.076 652.014 289.599 651.846C290.122 651.669 290.672 651.58 291.251 651.58C292.203 651.58 292.936 651.818 293.449 652.294C293.972 652.761 294.233 653.475 294.233 654.436V659H293.281ZM290.747 659.07C290.196 659.07 289.716 658.981 289.305 658.804C288.904 658.617 288.596 658.365 288.381 658.048C288.166 657.721 288.059 657.348 288.059 656.928C288.059 656.545 288.148 656.2 288.325 655.892C288.512 655.575 288.81 655.323 289.221 655.136C289.641 654.94 290.201 654.842 290.901 654.842H293.435V655.584H290.929C290.22 655.584 289.725 655.71 289.445 655.962C289.174 656.214 289.039 656.527 289.039 656.9C289.039 657.32 289.202 657.656 289.529 657.908C289.856 658.16 290.313 658.286 290.901 658.286C291.461 658.286 291.942 658.16 292.343 657.908C292.754 657.647 293.052 657.273 293.239 656.788L293.463 657.474C293.276 657.959 292.95 658.347 292.483 658.636C292.026 658.925 291.447 659.07 290.747 659.07ZM296.933 659V651.65H297.885V653.652L297.787 653.302C297.992 652.742 298.338 652.317 298.823 652.028C299.308 651.729 299.91 651.58 300.629 651.58V652.546C300.592 652.546 300.554 652.546 300.517 652.546C300.48 652.537 300.442 652.532 300.405 652.532C299.63 652.532 299.024 652.77 298.585 653.246C298.146 653.713 297.927 654.38 297.927 655.248V659H296.933ZM306.502 659V657.376L306.46 657.11V654.394C306.46 653.769 306.282 653.288 305.928 652.952C305.582 652.616 305.064 652.448 304.374 652.448C303.898 652.448 303.445 652.527 303.016 652.686C302.586 652.845 302.222 653.055 301.924 653.316L301.476 652.574C301.849 652.257 302.297 652.014 302.82 651.846C303.342 651.669 303.893 651.58 304.472 651.58C305.424 651.58 306.156 651.818 306.67 652.294C307.192 652.761 307.454 653.475 307.454 654.436V659H306.502ZM303.968 659.07C303.417 659.07 302.936 658.981 302.526 658.804C302.124 658.617 301.816 658.365 301.602 658.048C301.387 657.721 301.28 657.348 301.28 656.928C301.28 656.545 301.368 656.2 301.546 655.892C301.732 655.575 302.031 655.323 302.442 655.136C302.862 654.94 303.422 654.842 304.122 654.842H306.656V655.584H304.15C303.44 655.584 302.946 655.71 302.666 655.962C302.395 656.214 302.26 656.527 302.26 656.9C302.26 657.32 302.423 657.656 302.75 657.908C303.076 658.16 303.534 658.286 304.122 658.286C304.682 658.286 305.162 658.16 305.564 657.908C305.974 657.647 306.273 657.273 306.46 656.788L306.684 657.474C306.497 657.959 306.17 658.347 305.704 658.636C305.246 658.925 304.668 659.07 303.968 659.07ZM160.713 679V671.65H161.707V679H160.713ZM161.217 670.026C161.012 670.026 160.839 669.956 160.699 669.816C160.559 669.676 160.489 669.508 160.489 669.312C160.489 669.116 160.559 668.953 160.699 668.822C160.839 668.682 161.012 668.612 161.217 668.612C161.422 668.612 161.595 668.677 161.735 668.808C161.875 668.939 161.945 669.102 161.945 669.298C161.945 669.503 161.875 669.676 161.735 669.816C161.604 669.956 161.432 670.026 161.217 670.026ZM173.657 671.58C174.254 671.58 174.772 671.697 175.211 671.93C175.659 672.154 176.004 672.499 176.247 672.966C176.499 673.433 176.625 674.021 176.625 674.73V679H175.631V674.828C175.631 674.053 175.444 673.47 175.071 673.078C174.707 672.677 174.189 672.476 173.517 672.476C173.013 672.476 172.574 672.583 172.201 672.798C171.837 673.003 171.552 673.307 171.347 673.708C171.151 674.1 171.053 674.576 171.053 675.136V679H170.059V674.828C170.059 674.053 169.872 673.47 169.499 673.078C169.126 672.677 168.603 672.476 167.931 672.476C167.436 672.476 167.002 672.583 166.629 672.798C166.256 673.003 165.966 673.307 165.761 673.708C165.565 674.1 165.467 674.576 165.467 675.136V679H164.473V671.65H165.425V673.638L165.271 673.288C165.495 672.756 165.854 672.341 166.349 672.042C166.853 671.734 167.446 671.58 168.127 671.58C168.846 671.58 169.457 671.762 169.961 672.126C170.465 672.481 170.792 673.017 170.941 673.736L170.549 673.582C170.764 672.985 171.142 672.504 171.683 672.14C172.234 671.767 172.892 671.58 173.657 671.58ZM179.321 679V671.65H180.315V679H179.321ZM179.825 670.026C179.619 670.026 179.447 669.956 179.307 669.816C179.167 669.676 179.097 669.508 179.097 669.312C179.097 669.116 179.167 668.953 179.307 668.822C179.447 668.682 179.619 668.612 179.825 668.612C180.03 668.612 180.203 668.677 180.343 668.808C180.483 668.939 180.553 669.102 180.553 669.298C180.553 669.503 180.483 669.676 180.343 669.816C180.212 669.956 180.039 670.026 179.825 670.026ZM186.216 681.786C185.544 681.786 184.9 681.688 184.284 681.492C183.668 681.296 183.169 681.016 182.786 680.652L183.29 679.896C183.636 680.204 184.06 680.447 184.564 680.624C185.078 680.811 185.619 680.904 186.188 680.904C187.122 680.904 187.808 680.685 188.246 680.246C188.685 679.817 188.904 679.145 188.904 678.23V676.396L189.044 675.136L188.946 673.876V671.65H189.898V678.104C189.898 679.373 189.586 680.302 188.96 680.89C188.344 681.487 187.43 681.786 186.216 681.786ZM186.034 678.72C185.334 678.72 184.704 678.571 184.144 678.272C183.584 677.964 183.141 677.539 182.814 676.998C182.497 676.457 182.338 675.836 182.338 675.136C182.338 674.436 182.497 673.82 182.814 673.288C183.141 672.747 183.584 672.327 184.144 672.028C184.704 671.729 185.334 671.58 186.034 671.58C186.688 671.58 187.276 671.715 187.798 671.986C188.321 672.257 188.736 672.658 189.044 673.19C189.352 673.722 189.506 674.371 189.506 675.136C189.506 675.901 189.352 676.55 189.044 677.082C188.736 677.614 188.321 678.02 187.798 678.3C187.276 678.58 186.688 678.72 186.034 678.72ZM186.132 677.838C186.674 677.838 187.154 677.726 187.574 677.502C187.994 677.269 188.326 676.951 188.568 676.55C188.811 676.139 188.932 675.668 188.932 675.136C188.932 674.604 188.811 674.137 188.568 673.736C188.326 673.335 187.994 673.022 187.574 672.798C187.154 672.565 186.674 672.448 186.132 672.448C185.6 672.448 185.12 672.565 184.69 672.798C184.27 673.022 183.939 673.335 183.696 673.736C183.463 674.137 183.346 674.604 183.346 675.136C183.346 675.668 183.463 676.139 183.696 676.55C183.939 676.951 184.27 677.269 184.69 677.502C185.12 677.726 185.6 677.838 186.132 677.838ZM192.664 679V671.65H193.616V673.652L193.518 673.302C193.724 672.742 194.069 672.317 194.554 672.028C195.04 671.729 195.642 671.58 196.36 671.58V672.546C196.323 672.546 196.286 672.546 196.248 672.546C196.211 672.537 196.174 672.532 196.136 672.532C195.362 672.532 194.755 672.77 194.316 673.246C193.878 673.713 193.658 674.38 193.658 675.248V679H192.664ZM202.233 679V677.376L202.191 677.11V674.394C202.191 673.769 202.014 673.288 201.659 672.952C201.314 672.616 200.796 672.448 200.105 672.448C199.629 672.448 199.177 672.527 198.747 672.686C198.318 672.845 197.954 673.055 197.655 673.316L197.207 672.574C197.581 672.257 198.029 672.014 198.551 671.846C199.074 671.669 199.625 671.58 200.203 671.58C201.155 671.58 201.888 671.818 202.401 672.294C202.924 672.761 203.185 673.475 203.185 674.436V679H202.233ZM199.699 679.07C199.149 679.07 198.668 678.981 198.257 678.804C197.856 678.617 197.548 678.365 197.333 678.048C197.119 677.721 197.011 677.348 197.011 676.928C197.011 676.545 197.1 676.2 197.277 675.892C197.464 675.575 197.763 675.323 198.173 675.136C198.593 674.94 199.153 674.842 199.853 674.842H202.387V675.584H199.881C199.172 675.584 198.677 675.71 198.397 675.962C198.127 676.214 197.991 676.527 197.991 676.9C197.991 677.32 198.155 677.656 198.481 677.908C198.808 678.16 199.265 678.286 199.853 678.286C200.413 678.286 200.894 678.16 201.295 677.908C201.706 677.647 202.005 677.273 202.191 676.788L202.415 677.474C202.229 677.959 201.902 678.347 201.435 678.636C200.978 678.925 200.399 679.07 199.699 679.07ZM209.637 671.58C210.234 671.58 210.757 671.697 211.205 671.93C211.662 672.154 212.017 672.499 212.269 672.966C212.53 673.433 212.661 674.021 212.661 674.73V679H211.667V674.828C211.667 674.053 211.471 673.47 211.079 673.078C210.696 672.677 210.155 672.476 209.455 672.476C208.932 672.476 208.475 672.583 208.083 672.798C207.7 673.003 207.402 673.307 207.187 673.708C206.982 674.1 206.879 674.576 206.879 675.136V679H205.885V671.65H206.837V673.666L206.683 673.288C206.916 672.756 207.29 672.341 207.803 672.042C208.316 671.734 208.928 671.58 209.637 671.58ZM217.67 679.07C216.979 679.07 216.447 678.883 216.074 678.51C215.701 678.137 215.514 677.609 215.514 676.928V670.026H216.508V676.872C216.508 677.301 216.615 677.633 216.83 677.866C217.054 678.099 217.371 678.216 217.782 678.216C218.221 678.216 218.585 678.09 218.874 677.838L219.224 678.552C219.028 678.729 218.79 678.86 218.51 678.944C218.239 679.028 217.959 679.07 217.67 679.07ZM214.198 672.476V671.65H218.748V672.476H214.198ZM223.896 679.07C223.13 679.07 222.458 678.911 221.88 678.594C221.301 678.267 220.848 677.824 220.522 677.264C220.195 676.695 220.032 676.046 220.032 675.318C220.032 674.59 220.186 673.946 220.494 673.386C220.811 672.826 221.24 672.387 221.782 672.07C222.332 671.743 222.948 671.58 223.63 671.58C224.32 671.58 224.932 671.739 225.464 672.056C226.005 672.364 226.43 672.803 226.738 673.372C227.046 673.932 227.2 674.581 227.2 675.318C227.2 675.365 227.195 675.416 227.186 675.472C227.186 675.519 227.186 675.57 227.186 675.626H220.788V674.884H226.654L226.262 675.178C226.262 674.646 226.145 674.175 225.912 673.764C225.688 673.344 225.38 673.017 224.988 672.784C224.596 672.551 224.143 672.434 223.63 672.434C223.126 672.434 222.673 672.551 222.272 672.784C221.87 673.017 221.558 673.344 221.334 673.764C221.11 674.184 220.998 674.665 220.998 675.206V675.36C220.998 675.92 221.119 676.415 221.362 676.844C221.614 677.264 221.959 677.595 222.398 677.838C222.846 678.071 223.354 678.188 223.924 678.188C224.372 678.188 224.787 678.109 225.17 677.95C225.562 677.791 225.898 677.549 226.178 677.222L226.738 677.866C226.411 678.258 226 678.557 225.506 678.762C225.02 678.967 224.484 679.07 223.896 679.07ZM231.197 679.07C230.59 679.07 230.016 678.986 229.475 678.818C228.934 678.641 228.509 678.421 228.201 678.16L228.649 677.376C228.948 677.6 229.33 677.796 229.797 677.964C230.264 678.123 230.754 678.202 231.267 678.202C231.967 678.202 232.471 678.095 232.779 677.88C233.087 677.656 233.241 677.362 233.241 676.998C233.241 676.727 233.152 676.517 232.975 676.368C232.807 676.209 232.583 676.093 232.303 676.018C232.023 675.934 231.71 675.864 231.365 675.808C231.02 675.752 230.674 675.687 230.329 675.612C229.993 675.537 229.685 675.43 229.405 675.29C229.125 675.141 228.896 674.94 228.719 674.688C228.551 674.436 228.467 674.1 228.467 673.68C228.467 673.279 228.579 672.919 228.803 672.602C229.027 672.285 229.354 672.037 229.783 671.86C230.222 671.673 230.754 671.58 231.379 671.58C231.855 671.58 232.331 671.645 232.807 671.776C233.283 671.897 233.675 672.061 233.983 672.266L233.549 673.064C233.222 672.84 232.872 672.681 232.499 672.588C232.126 672.485 231.752 672.434 231.379 672.434C230.716 672.434 230.226 672.551 229.909 672.784C229.601 673.008 229.447 673.297 229.447 673.652C229.447 673.932 229.531 674.151 229.699 674.31C229.876 674.469 230.105 674.595 230.385 674.688C230.674 674.772 230.987 674.842 231.323 674.898C231.668 674.954 232.009 675.024 232.345 675.108C232.69 675.183 233.003 675.29 233.283 675.43C233.572 675.561 233.801 675.752 233.969 676.004C234.146 676.247 234.235 676.569 234.235 676.97C234.235 677.399 234.114 677.773 233.871 678.09C233.638 678.398 233.292 678.641 232.835 678.818C232.387 678.986 231.841 679.07 231.197 679.07Z" fill="#4C4C4C"/>
<rect x="141" y="716" width="16" height="8" rx="4" fill="#2D77E3"/>
<circle cx="169" cy="720" r="4" fill="#E3E3E3"/>
<circle cx="185" cy="720" r="4" fill="#E3E3E3"/>
<circle cx="201" cy="720" r="4" fill="#E3E3E3"/>
<circle cx="217" cy="720" r="4" fill="#E3E3E3"/>
<circle cx="233" cy="720" r="4" fill="#E3E3E3"/>
<circle cx="249" cy="720" r="4" fill="#E3E3E3"/>
<g filter="url(#filter0_d_43_348)">
<rect x="16" y="756" width="361" height="48" rx="12" fill="#2D77E3"/>
<path d="M167.944 786.176C167.091 786.176 166.387 786.069 165.832 785.856C165.288 785.632 164.856 785.291 164.536 784.832C164.216 784.373 163.992 783.792 163.864 783.088C163.747 782.373 163.688 781.525 163.688 780.544C163.688 779.552 163.747 778.704 163.864 778C163.992 777.285 164.216 776.699 164.536 776.24C164.856 775.781 165.293 775.44 165.848 775.216C166.413 774.992 167.133 774.88 168.008 774.88C168.36 774.88 168.728 774.901 169.112 774.944C169.496 774.987 169.864 775.04 170.216 775.104C170.579 775.157 170.888 775.216 171.144 775.28L171.08 777.04C170.867 776.997 170.6 776.96 170.28 776.928C169.96 776.885 169.635 776.853 169.304 776.832C168.973 776.811 168.664 776.8 168.376 776.8C167.864 776.8 167.448 776.864 167.128 776.992C166.808 777.12 166.557 777.333 166.376 777.632C166.205 777.931 166.088 778.32 166.024 778.8C165.96 779.269 165.928 779.851 165.928 780.544C165.928 781.227 165.96 781.808 166.024 782.288C166.088 782.757 166.205 783.141 166.376 783.44C166.547 783.728 166.792 783.941 167.112 784.08C167.443 784.208 167.869 784.272 168.392 784.272C168.819 784.272 169.288 784.251 169.8 784.208C170.323 784.155 170.755 784.107 171.096 784.064L171.144 785.808C170.888 785.861 170.584 785.92 170.232 785.984C169.88 786.037 169.507 786.08 169.112 786.112C168.717 786.155 168.328 786.176 167.944 786.176ZM175.836 786.176C174.929 786.176 174.199 786.027 173.644 785.728C173.1 785.429 172.705 784.971 172.46 784.352C172.215 783.723 172.092 782.912 172.092 781.92C172.092 780.96 172.22 780.181 172.476 779.584C172.732 778.976 173.137 778.528 173.692 778.24C174.247 777.941 174.961 777.792 175.836 777.792C176.721 777.792 177.436 777.941 177.98 778.24C178.535 778.528 178.94 778.976 179.196 779.584C179.463 780.181 179.596 780.96 179.596 781.92C179.596 782.912 179.473 783.723 179.228 784.352C178.983 784.971 178.583 785.429 178.028 785.728C177.484 786.027 176.753 786.176 175.836 786.176ZM175.836 784.416C176.284 784.416 176.62 784.336 176.844 784.176C177.068 784.005 177.217 783.739 177.292 783.376C177.377 783.003 177.42 782.517 177.42 781.92C177.42 781.333 177.372 780.869 177.276 780.528C177.18 780.176 177.02 779.925 176.796 779.776C176.572 779.627 176.252 779.552 175.836 779.552C175.431 779.552 175.111 779.627 174.876 779.776C174.652 779.925 174.492 780.176 174.396 780.528C174.3 780.869 174.252 781.333 174.252 781.92C174.252 782.517 174.289 783.003 174.364 783.376C174.449 783.739 174.604 784.005 174.828 784.176C175.052 784.336 175.388 784.416 175.836 784.416ZM181.052 786V777.968H183.18V778.48C183.351 778.373 183.559 778.272 183.804 778.176C184.049 778.069 184.305 777.979 184.572 777.904C184.849 777.829 185.116 777.792 185.372 777.792C185.927 777.792 186.385 777.867 186.748 778.016C187.121 778.155 187.415 778.384 187.628 778.704C187.841 779.024 187.996 779.445 188.092 779.968C188.188 780.48 188.236 781.104 188.236 781.84V786H186.092V781.952C186.092 781.397 186.06 780.955 185.996 780.624C185.932 780.283 185.809 780.037 185.628 779.888C185.447 779.739 185.18 779.664 184.828 779.664C184.636 779.664 184.433 779.685 184.22 779.728C184.017 779.76 183.82 779.808 183.628 779.872C183.447 779.936 183.297 780 183.18 780.064V786H181.052ZM192.68 786.192C192.094 786.192 191.619 786.107 191.256 785.936C190.894 785.765 190.632 785.472 190.472 785.056C190.323 784.629 190.248 784.037 190.248 783.28V779.744H189.304V777.968H190.248V775.84H192.376V777.968H194.424V779.744H192.376V782.72C192.376 783.136 192.392 783.461 192.424 783.696C192.467 783.931 192.552 784.096 192.68 784.192C192.808 784.288 193.006 784.336 193.272 784.336C193.347 784.336 193.459 784.331 193.608 784.32C193.758 784.309 193.907 784.299 194.056 784.288C194.206 784.277 194.328 784.267 194.424 784.256L194.488 785.968C194.328 786 194.131 786.032 193.896 786.064C193.672 786.096 193.448 786.123 193.224 786.144C193.011 786.176 192.83 786.192 192.68 786.192ZM195.614 786V777.968H197.742V786H195.614ZM195.614 776.688V774.864H197.758V776.688H195.614ZM199.521 786V777.968H201.649V778.48C201.819 778.373 202.027 778.272 202.273 778.176C202.518 778.069 202.774 777.979 203.041 777.904C203.318 777.829 203.585 777.792 203.841 777.792C204.395 777.792 204.854 777.867 205.217 778.016C205.59 778.155 205.883 778.384 206.097 778.704C206.31 779.024 206.465 779.445 206.561 779.968C206.657 780.48 206.705 781.104 206.705 781.84V786H204.561V781.952C204.561 781.397 204.529 780.955 204.465 780.624C204.401 780.283 204.278 780.037 204.097 779.888C203.915 779.739 203.649 779.664 203.297 779.664C203.105 779.664 202.902 779.685 202.689 779.728C202.486 779.76 202.289 779.808 202.097 779.872C201.915 779.936 201.766 780 201.649 780.064V786H199.521ZM210.924 786.176C210.231 786.176 209.692 786.032 209.308 785.744C208.935 785.445 208.668 784.997 208.508 784.4C208.359 783.803 208.284 783.051 208.284 782.144V777.968H210.412V782.048C210.412 782.613 210.439 783.061 210.492 783.392C210.556 783.723 210.679 783.957 210.86 784.096C211.042 784.235 211.303 784.304 211.644 784.304C211.975 784.304 212.284 784.261 212.572 784.176C212.86 784.091 213.09 784.005 213.26 783.92V777.968H215.388V786H213.276V785.504C212.914 785.707 212.551 785.872 212.188 786C211.836 786.117 211.415 786.176 210.924 786.176ZM219.242 786.176C218.41 786.176 217.78 785.968 217.354 785.552C216.938 785.125 216.73 784.485 216.73 783.632C216.73 783.035 216.836 782.571 217.05 782.24C217.263 781.899 217.578 781.653 217.994 781.504C218.42 781.344 218.938 781.248 219.546 781.216L221.498 781.04V780.56C221.498 780.176 221.402 779.909 221.21 779.76C221.018 779.6 220.735 779.52 220.362 779.52C220.063 779.52 219.716 779.531 219.322 779.552C218.938 779.573 218.554 779.6 218.17 779.632C217.796 779.664 217.471 779.696 217.194 779.728L217.13 778.224C217.407 778.16 217.738 778.096 218.122 778.032C218.516 777.957 218.927 777.899 219.354 777.856C219.78 777.813 220.175 777.792 220.538 777.792C221.22 777.792 221.791 777.877 222.25 778.048C222.708 778.219 223.055 778.501 223.29 778.896C223.524 779.28 223.642 779.803 223.642 780.464V784.128C223.663 784.277 223.743 784.395 223.882 784.48C224.02 784.555 224.18 784.608 224.362 784.64L224.314 786.112C224.143 786.112 223.972 786.112 223.802 786.112C223.642 786.123 223.487 786.123 223.338 786.112C223.188 786.112 223.055 786.101 222.938 786.08C222.692 786.048 222.479 785.984 222.298 785.888C222.127 785.792 221.988 785.691 221.882 785.584C221.711 785.659 221.482 785.744 221.194 785.84C220.906 785.936 220.591 786.016 220.25 786.08C219.919 786.144 219.583 786.176 219.242 786.176ZM219.754 784.592C219.956 784.592 220.17 784.571 220.394 784.528C220.618 784.485 220.826 784.437 221.018 784.384C221.22 784.32 221.38 784.261 221.498 784.208V782.368L219.866 782.512C219.514 782.544 219.258 782.651 219.098 782.832C218.948 783.003 218.874 783.248 218.874 783.568C218.874 783.888 218.943 784.139 219.082 784.32C219.231 784.501 219.455 784.592 219.754 784.592ZM225.521 786V777.968H227.649V778.912C227.83 778.773 228.054 778.629 228.321 778.48C228.587 778.32 228.875 778.176 229.185 778.048C229.505 777.909 229.809 777.819 230.097 777.776V779.84C229.819 779.883 229.526 779.957 229.217 780.064C228.907 780.16 228.614 780.267 228.337 780.384C228.07 780.501 227.841 780.608 227.649 780.704V786H225.521Z" fill="white"/>
</g>
<path d="M60.4956 22.9453C62.9019 22.9453 64.9956 24.6562 64.9956 28.7188V28.7344C64.9956 32.5312 63.2847 34.7812 60.4487 34.7812C58.3784 34.7812 56.8316 33.5547 56.4722 31.8281L56.4566 31.7422H58.4409L58.4644 31.8203C58.7612 32.6094 59.4566 33.125 60.4487 33.125C62.2378 33.125 62.9956 31.375 63.0816 29.2188C63.0816 29.1328 63.0894 29.0469 63.0894 28.9609H62.9331C62.5191 29.8516 61.5347 30.6406 59.9878 30.6406C57.8237 30.6406 56.3081 29.0625 56.3081 26.9219V26.9062C56.3081 24.6172 58.0503 22.9453 60.4956 22.9453ZM60.4878 29.0938C61.7612 29.0938 62.7378 28.1719 62.7378 26.8984V26.8828C62.7378 25.5938 61.7612 24.5859 60.5112 24.5859C59.2691 24.5859 58.2769 25.5781 58.2769 26.8359V26.8516C58.2769 28.1562 59.2066 29.0938 60.4878 29.0938ZM68.2225 27.1953C67.5116 27.1953 66.9803 26.6484 66.9803 25.9609C66.9803 25.2656 67.5116 24.7266 68.2225 24.7266C68.9412 24.7266 69.4647 25.2656 69.4647 25.9609C69.4647 26.6484 68.9412 27.1953 68.2225 27.1953ZM68.2225 32.9922C67.5116 32.9922 66.9803 32.4531 66.9803 31.7578C66.9803 31.0625 67.5116 30.5234 68.2225 30.5234C68.9412 30.5234 69.4647 31.0625 69.4647 31.7578C69.4647 32.4531 68.9412 32.9922 68.2225 32.9922ZM76.9181 34.5V32.3359H71.4025V30.6875C72.8634 28.1484 74.465 25.5547 75.9963 23.2266H78.8478V30.6719H80.3634V32.3359H78.8478V34.5H76.9181ZM73.2775 30.7188H76.9494V24.8359H76.8322C75.6759 26.6016 74.3713 28.6875 73.2775 30.6016V30.7188ZM84.7153 34.5V25.2109H84.5825L81.7778 27.1953V25.2969L84.7231 23.2266H86.7309V34.5H84.7153Z" fill="black"/>
<rect x="134" y="11" width="125" height="37" rx="18.5" fill="black"/>
<rect x="134" y="11" width="80" height="37" rx="18.5" fill="black"/>
<rect x="222" y="11" width="37" height="37" rx="18.5" fill="black"/>
<path d="M291.299 26C291.299 25.4477 291.747 25 292.299 25H293.299C293.852 25 294.299 25.4477 294.299 26V34C294.299 34.5523 293.852 35 293.299 35H292.299C291.747 35 291.299 34.5523 291.299 34V26Z" fill="black"/>
<path d="M296.299 24C296.299 23.4477 296.747 23 297.299 23H298.299C298.852 23 299.299 23.4477 299.299 24V34C299.299 34.5523 298.852 35 298.299 35H297.299C296.747 35 296.299 34.5523 296.299 34V24Z" fill="black"/>
<path d="M286.299 29.5C286.299 28.9477 286.747 28.5 287.299 28.5H288.299C288.852 28.5 289.299 28.9477 289.299 29.5V34C289.299 34.5523 288.852 35 288.299 35H287.299C286.747 35 286.299 34.5523 286.299 34V29.5Z" fill="black"/>
<path d="M281.299 32C281.299 31.4477 281.747 31 282.299 31H283.299C283.852 31 284.299 31.4477 284.299 32V34C284.299 34.5523 283.852 35 283.299 35H282.299C281.747 35 281.299 34.5523 281.299 34V32Z" fill="black"/>
<path d="M313.415 31.9189C314.834 30.6934 316.914 30.6935 318.333 31.9189C318.405 31.9849 318.447 32.0785 318.449 32.1768C318.451 32.275 318.413 32.3696 318.344 32.4385L316.121 34.7285C316.056 34.7958 315.967 34.8339 315.875 34.834C315.782 34.834 315.693 34.7958 315.627 34.7285L313.404 32.4385C313.335 32.3696 313.297 32.275 313.299 32.1768C313.301 32.0785 313.343 31.9848 313.415 31.9189ZM310.409 29.1787C313.468 26.2741 318.205 26.2741 321.264 29.1787C321.333 29.2468 321.373 29.3405 321.374 29.4385C321.374 29.5364 321.337 29.6308 321.269 29.7002L319.984 31.0254C319.851 31.1607 319.637 31.164 319.501 31.0322C318.497 30.1038 317.191 29.5898 315.835 29.5898C314.481 29.5904 313.175 30.1043 312.171 31.0322C312.036 31.164 311.821 31.1607 311.689 31.0254L310.404 29.7002C310.336 29.6308 310.298 29.5364 310.299 29.4385C310.3 29.3405 310.34 29.2468 310.409 29.1787ZM307.407 26.4424C312.099 21.8528 319.5 21.8528 324.192 26.4424C324.26 26.5106 324.299 26.6039 324.299 26.7012C324.3 26.7983 324.262 26.892 324.195 26.9609L322.909 28.2861C322.776 28.4221 322.561 28.4238 322.426 28.29C320.639 26.5553 318.266 25.588 315.799 25.5879C313.333 25.588 310.96 26.5553 309.172 28.29C309.038 28.4239 308.822 28.4223 308.69 28.2861L307.403 26.9609C307.336 26.892 307.299 26.7982 307.299 26.7012C307.3 26.6039 307.339 26.5105 307.407 26.4424Z" fill="black"/>
<path opacity="0.35" d="M336.299 23.5H353.299C355.232 23.5 356.799 25.067 356.799 27V32C356.799 33.933 355.232 35.5 353.299 35.5H336.299C334.366 35.5 332.799 33.933 332.799 32V27C332.799 25.067 334.366 23.5 336.299 23.5Z" stroke="black"/>
<path opacity="0.4" d="M358.299 28V32.2203C359.148 31.8629 359.701 31.0314 359.701 30.1102C359.701 29.1889 359.148 28.3574 358.299 28Z" fill="black"/>
<path d="M334.299 27C334.299 25.8954 335.195 25 336.299 25H353.299C354.404 25 355.299 25.8954 355.299 27V32C355.299 33.1046 354.404 34 353.299 34H336.299C335.195 34 334.299 33.1046 334.299 32V27Z" fill="black"/>
<rect x="32" y="192" width="330" height="330" rx="165" fill="#F1F6FD"/>
<g clip-path="url(#clip1_43_348)">
<path d="M40 447.626C40.0027 447.687 40.0171 447.746 40.0425 447.801C40.0678 447.856 40.1036 447.905 40.1477 447.945C40.1919 447.986 40.2435 448.018 40.2997 448.038C40.3559 448.059 40.4156 448.068 40.4753 448.065H354.525C354.64 448.065 354.75 448.019 354.831 447.936C354.912 447.854 354.958 447.743 354.958 447.626C354.958 447.51 354.912 447.399 354.831 447.317C354.75 447.234 354.64 447.188 354.525 447.188H40.4753C40.4156 447.185 40.3559 447.194 40.2997 447.215C40.2435 447.235 40.1919 447.267 40.1477 447.308C40.1036 447.348 40.0678 447.397 40.0425 447.452C40.0171 447.507 40.0027 447.566 40 447.626Z" fill="#E6E6E6"/>
<path d="M197.072 323.473L200.025 304.821L180.114 296.614L177.164 324.961L197.072 323.473Z" fill="#ED9DA0"/>
<path d="M192.04 310.815C203.254 310.815 212.344 301.617 212.344 290.272C212.344 278.926 203.254 269.729 192.04 269.729C180.827 269.729 171.737 278.926 171.737 290.272C171.737 301.617 180.827 310.815 192.04 310.815Z" fill="#ED9DA0"/>
<path d="M190.422 262.656C191.013 263.002 191.797 262.48 191.986 261.818C192.175 261.155 191.953 260.453 191.738 259.802C191.375 258.709 191.007 257.613 190.644 256.521C189.866 254.192 189.041 251.782 187.361 250.01C184.82 247.336 180.785 246.656 177.153 247.149C172.489 247.781 167.883 250.336 165.716 254.564C163.55 258.792 164.469 264.69 168.394 267.327C162.806 273.805 160.857 281.029 161.166 289.621C161.475 298.213 170.726 306.122 176.764 312.178C178.112 311.35 179.337 307.477 178.596 306.068C177.854 304.659 178.915 303.03 178 301.735C177.084 300.44 176.313 302.504 177.244 301.213C177.829 300.4 175.542 298.528 176.415 298.042C180.625 295.688 182.024 290.377 184.671 286.312C186.288 283.865 188.42 281.809 190.914 280.292C193.407 278.775 196.201 277.834 199.096 277.536C202.277 277.231 205.64 277.783 208.247 279.651C210.853 281.52 212.544 284.858 211.94 288.035C212.727 287.227 213.32 286.248 213.675 285.172C214.03 284.097 214.138 282.953 213.99 281.829C213.842 280.705 213.442 279.63 212.82 278.686C212.199 277.742 211.373 276.955 210.405 276.383C210.971 274.409 211.034 272.323 210.588 270.318C210.141 268.313 209.201 266.455 207.853 264.918C205.134 261.883 194.096 262.402 190.127 263.2" fill="#090814"/>
<path d="M189.804 277.648C184.544 278.222 180.745 282.834 177.538 287.09C175.692 289.543 173.754 292.254 173.801 295.34C173.849 298.459 175.91 301.134 176.895 304.091C177.663 306.528 177.713 309.139 177.04 311.606C176.367 314.072 174.999 316.286 173.103 317.98C176.892 318.708 180.985 315.835 181.639 311.992C182.399 307.519 179.047 303.201 179.443 298.676C179.792 294.692 182.897 291.625 185.533 288.646C188.169 285.667 190.648 281.714 189.434 277.905" fill="#090814"/>
<path d="M190.812 465.793C190.812 465.793 146.823 470.207 143.552 465.057C140.28 459.908 188.191 454.758 188.191 454.758L190.812 465.793Z" fill="#ED9DA0"/>
<path d="M162.765 383.276L161.856 388.157C164.332 391.853 164.568 395.76 163.128 399.83L213.297 400.197C212.759 394.699 212.167 388.806 214.232 383.402L162.765 383.276Z" fill="#ED9DA0"/>
<path d="M244.94 419.57L226.744 404.843C225.543 403.866 224.545 402.657 223.808 401.287C223.072 399.917 222.611 398.413 222.453 396.861L219.65 368.807L236.355 363.172L240.383 390.95L250.42 414.031L244.947 419.568H244.944L244.94 419.57Z" fill="#ED9DA0"/>
<path d="M175.306 321.666L199.664 320.562L225.475 333.002L214.933 383.828L161.492 387.874L154.221 331.597L175.306 321.666Z" fill="#66D096"/>
<path d="M214.231 395.539C217.893 400.42 219.426 412.172 220.982 423.862C220.982 423.862 153.363 423.494 153 423.494C152.636 423.494 163.335 398.85 163.335 398.85L214.231 395.539Z" fill="#090814"/>
<path d="M216.441 420.742L220.985 423.861C220.985 423.861 285.332 419.447 279.879 440.045C274.426 460.643 257.339 463.953 257.339 463.953L188.267 468L187.539 456.597C187.539 456.597 121.011 471.677 114.831 440.781C108.651 409.884 153.003 423.493 153.003 423.493L216.441 420.742Z" fill="#090814"/>
<path d="M189.289 445.195C189.289 445.195 190.812 437.103 201.718 440.415C212.624 443.726 218.804 448.139 218.804 448.139L192.63 454.76L189.289 445.195Z" fill="#ED9DA0"/>
<path d="M216.569 332.148C216.569 332.148 228.929 327.735 233.655 342.08C238.381 356.425 237.29 368.195 237.29 368.195L219.113 374.08L216.569 332.148Z" fill="#66D096"/>
<path d="M131.808 421.809L127.843 414.74L136.411 393.159L140.439 365.378L157.144 371.013L154.305 399.409C154.157 400.853 153.727 402.254 153.041 403.529C152.354 404.804 151.425 405.929 150.306 406.839L131.808 421.813V421.809Z" fill="#ED9DA0"/>
<path d="M160.219 332.148C160.219 332.148 147.858 327.735 143.133 342.08C138.408 356.425 139.497 368.195 139.497 368.195L157.675 374.08L160.219 332.148Z" fill="#66D096"/>
<path d="M250.197 422.816C255.015 422.816 258.922 416.97 258.922 409.759C258.922 402.547 255.015 396.701 250.197 396.701C245.378 396.701 241.471 402.547 241.471 409.759C241.471 416.97 245.378 422.816 250.197 422.816Z" fill="#ED9DA0"/>
<path d="M127.683 425.024C132.502 425.024 136.408 419.178 136.408 411.966C136.408 404.755 132.502 398.909 127.683 398.909C122.864 398.909 118.958 404.755 118.958 411.966C118.958 419.178 122.864 425.024 127.683 425.024Z" fill="#ED9DA0"/>
<path d="M161.001 433.793L192.629 442.988L198.811 454.024L186.992 456.598" fill="#090814"/>
<path d="M74.9356 447.626H66.0444L62.0006 426.425C61.9391 426.103 61.9488 425.771 62.029 425.453C62.1092 425.135 62.2578 424.839 62.4644 424.585C62.6709 424.332 62.9302 424.129 63.2236 423.989C63.5171 423.849 63.8375 423.776 64.1619 423.776H76.8197C77.1441 423.776 77.4645 423.849 77.758 423.989C78.0514 424.129 78.3107 424.332 78.5172 424.585C78.7237 424.839 78.8724 425.135 78.9526 425.453C79.0328 425.771 79.0425 426.103 78.981 426.425L74.9356 447.626Z" fill="#E6E6E6"/>
<path d="M70.046 425.249C72.5238 416.941 71.847 407.997 68.1481 400.168C67.8914 399.622 67.0905 400.098 67.3464 400.642C70.0937 406.531 71.1216 413.091 70.309 419.551C70.0735 421.396 69.686 423.219 69.1506 424.999C69.1221 425.118 69.1405 425.243 69.2017 425.348C69.2629 425.453 69.3623 425.53 69.4786 425.563C69.595 425.595 69.7193 425.581 69.8252 425.522C69.9311 425.463 70.0103 425.365 70.046 425.249Z" fill="#E6E6E6"/>
<path d="M71.5028 414.743L78.1615 405.848L77.2953 405.611C77.4147 408.638 76.9644 411.66 75.9683 414.517C75.1072 416.978 73.6204 420.188 70.6275 420.287C70.0318 420.307 70.029 421.246 70.6275 421.227C73.8122 421.121 75.5651 418.162 76.5991 415.485C77.8037 412.341 78.3566 408.98 78.2233 405.611C78.2209 405.509 78.186 405.41 78.1238 405.33C78.0616 405.249 77.9755 405.192 77.8782 405.165C77.7809 405.138 77.6776 405.144 77.5838 405.181C77.4899 405.218 77.4104 405.285 77.3571 405.372L70.6984 414.267C70.3405 414.75 71.1465 415.219 71.5028 414.743Z" fill="#E6E6E6"/>
<path d="M71.1588 410.918L67.2138 405.076C67.1655 404.999 67.0966 404.938 67.0152 404.9C66.9338 404.861 66.8433 404.847 66.7542 404.859C66.6652 404.871 66.5813 404.908 66.5125 404.966C66.4436 405.024 66.3925 405.101 66.3653 405.188C65.5371 407.385 65.5069 409.808 66.2803 412.025C67.0537 414.242 68.5803 416.109 70.5879 417.293C70.6939 417.351 70.8176 417.364 70.9332 417.331C71.0488 417.298 71.1473 417.221 71.2079 417.116C71.2685 417.011 71.2866 416.886 71.2584 416.768C71.2301 416.65 71.1578 416.548 71.0564 416.482C69.2254 415.402 67.8364 413.695 67.1403 411.67C66.4442 409.645 66.4869 407.434 67.2607 405.438L66.4121 405.55L70.3571 411.392C70.6922 411.888 71.497 411.417 71.1588 410.918Z" fill="#E6E6E6"/>
<path d="M67.6843 399.845C66.7716 399.799 65.8223 399.743 65.0584 399.177C64.7697 398.962 64.5238 398.693 64.3335 398.385C64.2397 398.237 64.1597 398.081 64.0945 397.919C64.0261 397.764 63.9848 397.597 63.9724 397.428C63.9724 397.473 64.0169 397.391 63.9724 397.428L63.9059 397.481C63.8819 397.514 63.8469 397.537 63.8075 397.545C63.7682 397.553 63.7272 397.546 63.6925 397.526C63.62 397.535 63.6701 397.412 63.6567 397.63C63.6166 397.865 63.6157 398.104 63.6539 398.339C63.6804 398.453 63.7301 398.56 63.7997 398.653C63.8693 398.746 63.9574 398.824 64.0583 398.881C64.1593 398.937 64.2708 398.972 64.3859 398.983C64.5009 398.994 64.6169 398.981 64.7265 398.944C64.8819 398.885 65.0323 398.813 65.1761 398.729L65.2179 398.708C65.2691 398.683 65.2733 398.681 65.2305 398.702C65.2659 398.642 65.286 398.76 65.2269 398.693H65.2663L65.2191 398.69C65.1933 398.685 65.1689 398.674 65.1479 398.658C65.1268 398.643 65.1095 398.622 65.0974 398.599C65.0824 398.552 65.0799 398.545 65.0899 398.578C65.1045 398.599 65.1053 398.692 65.0978 398.602C65.1002 398.632 65.1002 398.663 65.1006 398.693C65.1006 398.773 65.0958 398.85 65.0958 398.928C65.0862 399.123 65.1282 399.317 65.2175 399.491C65.2882 399.607 65.3888 399.702 65.5086 399.765C65.6285 399.828 65.763 399.857 65.8979 399.849C66.2011 399.835 66.3728 399.621 66.6287 399.504C66.6853 399.475 66.7498 399.466 66.8121 399.478C66.8744 399.49 66.931 399.523 66.9728 399.571C67.0061 399.614 67.0271 399.665 67.0336 399.719C67.0401 399.773 67.0319 399.828 67.0098 399.878C66.9508 399.986 66.9351 400.113 66.9661 400.233C66.9971 400.352 67.0724 400.455 67.1764 400.52C67.283 400.582 67.4092 400.599 67.528 400.567C67.6468 400.536 67.7486 400.459 67.8115 400.352C67.915 400.165 67.9679 399.953 67.9647 399.739C67.9616 399.524 67.9026 399.314 67.7937 399.13C67.6848 398.946 67.5299 398.794 67.3445 398.69C67.1591 398.586 66.9498 398.533 66.7378 398.537C66.5962 398.539 66.4562 398.566 66.3243 398.618C66.1618 398.672 66.0124 398.76 65.8861 398.876C65.7215 399.083 65.8353 398.871 65.8424 398.914C65.8424 398.909 66.0074 399.007 66.0196 399.015L66.0357 399.058C66.0239 399.005 66.0217 399.006 66.029 399.062C66.029 399.017 66.0243 398.972 66.0243 398.928C66.0399 398.72 66.0246 398.511 65.979 398.308C65.9407 398.178 65.8698 398.061 65.7732 397.967C65.6765 397.874 65.5575 397.807 65.4278 397.774C65.1782 397.733 64.9225 397.785 64.7072 397.919C64.625 397.967 64.5402 398.012 64.4532 398.051C64.5296 398.022 64.428 398.061 64.4158 398.056C64.3587 398.034 64.4701 398.056 64.4757 398.056C64.5079 398.07 64.5591 398.139 64.5639 398.14C64.5434 398.136 64.5446 398.063 64.5438 398.05C64.5332 397.885 64.5875 397.721 64.5875 397.556C64.5933 397.4 64.5615 397.245 64.4949 397.105C64.4283 396.964 64.3288 396.842 64.2051 396.748C64.0727 396.65 63.9109 396.6 63.7466 396.608C63.5824 396.615 63.4256 396.68 63.3027 396.79C62.8822 397.181 63.0538 397.821 63.242 398.282C63.4514 398.806 63.7731 399.277 64.1839 399.66C64.5948 400.044 65.0845 400.33 65.6179 400.499C66.2909 400.683 66.9845 400.779 67.6816 400.783C67.8047 400.783 67.9228 400.734 68.0098 400.646C68.0969 400.558 68.1458 400.438 68.1458 400.314C68.1458 400.189 68.0969 400.07 68.0098 399.981C67.9228 399.893 67.8047 399.844 67.6816 399.844L67.6843 399.845Z" fill="#E6E6E6"/>
<path d="M68.0801 400.305C68.1659 399.428 68.2651 398.491 68.8172 397.77C69.0577 397.459 69.3568 397.2 69.6972 397.007C69.8525 396.917 70.0165 396.843 70.1867 396.787C70.2819 396.755 70.3784 396.734 70.4749 396.707C70.6458 396.66 70.4426 396.702 70.53 396.695C70.5547 396.693 70.5796 396.692 70.6044 396.692C70.663 396.696 70.6703 396.696 70.6265 396.692C70.6942 396.652 70.6729 396.734 70.6426 396.692L70.615 396.672C70.5809 396.639 70.5578 396.597 70.5489 396.55C70.54 396.503 70.5458 396.455 70.5654 396.412C70.5599 396.352 70.6635 396.399 70.5131 396.374C70.2697 396.316 70.018 396.301 69.7697 396.332C69.6546 396.352 69.5451 396.397 69.4483 396.463C69.3515 396.529 69.2697 396.616 69.2081 396.716C69.1465 396.817 69.1067 396.929 69.0911 397.046C69.0755 397.164 69.0845 397.283 69.1176 397.396C69.1757 397.565 69.2446 397.729 69.3239 397.889C69.294 397.814 69.324 397.901 69.3314 397.92C69.3484 397.978 69.3188 398 69.3381 397.934C69.3423 397.902 69.3513 397.872 69.3649 397.843C69.3794 397.82 69.3991 397.8 69.4224 397.786C69.4762 397.766 69.4774 397.764 69.4259 397.779C69.433 397.767 69.535 397.779 69.4259 397.776C69.3822 397.776 69.3381 397.776 69.2944 397.773C69.2271 397.77 69.1601 397.762 69.0928 397.759C68.8979 397.74 68.7017 397.778 68.5274 397.869C68.3957 397.948 68.2915 398.067 68.229 398.208C68.1665 398.35 68.1487 398.507 68.1781 398.659C68.2576 398.882 68.3584 399.097 68.4789 399.3C68.4969 399.356 68.4975 399.416 68.4807 399.472C68.4639 399.528 68.4305 399.578 68.385 399.615C68.3394 399.651 68.2839 399.672 68.226 399.676C68.168 399.68 68.1104 399.665 68.0608 399.635C67.5387 399.339 67.0701 400.15 67.5922 400.446C67.7797 400.56 67.9943 400.62 68.2131 400.62C68.4318 400.62 68.6464 400.56 68.8338 400.446C69.0213 400.332 69.1746 400.168 69.2772 399.973C69.3798 399.777 69.428 399.557 69.4165 399.336C69.3755 399.05 69.2711 398.776 69.1109 398.536C69.1109 398.536 69.0613 398.456 69.081 398.463C69.2015 398.502 69.0204 398.654 68.9959 398.68L68.9518 398.7C69.0043 398.688 69.0016 398.688 68.9436 398.698C68.9861 398.696 69.0282 398.698 69.0708 398.698C69.2832 398.727 69.499 398.719 69.709 398.675C69.8357 398.638 69.951 398.569 70.0439 398.474C70.1369 398.38 70.2044 398.262 70.2402 398.134C70.2863 397.872 70.2385 397.603 70.1055 397.373C70.091 397.342 70.0166 397.169 70.039 397.232C70.0362 397.224 69.9996 397.106 70.002 397.106C70.0481 397.106 69.9532 397.267 70.0087 397.153C70.0736 397.02 69.9453 397.292 69.9362 397.256C69.9323 397.241 70.0229 397.246 70.0268 397.246C70.189 397.25 70.3481 397.309 70.5115 397.315C70.6698 397.326 70.8284 397.297 70.9724 397.229C71.1164 397.162 71.2411 397.058 71.3348 396.929C71.4309 396.792 71.477 396.625 71.4652 396.457C71.4533 396.289 71.3843 396.131 71.2699 396.009C70.8911 395.617 70.2741 395.755 69.8252 395.922C69.3177 396.108 68.8535 396.398 68.4616 396.773C68.0314 397.194 67.7048 397.711 67.508 398.283C67.3073 398.94 67.187 399.619 67.1497 400.306C67.1505 400.43 67.1997 400.549 67.2865 400.637C67.3734 400.725 67.491 400.775 67.6139 400.776C67.7364 400.774 67.8532 400.723 67.9398 400.636C68.0264 400.548 68.076 400.43 68.0781 400.306L68.0801 400.305Z" fill="#E6E6E6"/>
<path d="M68.0378 399.322C67.644 398.572 67.1729 397.866 66.6321 397.216C66.5053 397.063 66.3741 396.914 66.2384 396.768C66.1139 396.652 65.999 396.525 65.895 396.39C65.8753 396.356 65.8797 396.338 65.8686 396.331C65.8605 396.299 65.8605 396.296 65.8686 396.325C65.8756 396.344 65.8756 396.365 65.8686 396.383C65.8741 396.421 65.8316 396.413 65.8726 396.377C65.7989 396.441 65.7418 396.501 65.6261 396.466C65.5828 396.452 65.554 396.405 65.5206 396.386C65.4871 396.367 65.5296 396.371 65.5206 396.397C65.5024 396.451 65.4548 396.574 65.4257 396.645L66.321 396.895C66.3329 396.837 66.3754 396.779 66.321 396.846C66.3416 396.822 66.364 396.799 66.388 396.778C66.358 396.803 66.3662 396.8 66.4124 396.769C66.3482 396.793 66.4809 396.748 66.4825 396.748C66.3927 396.767 66.6053 396.767 66.5274 396.75C66.6112 396.773 66.6884 396.816 66.7523 396.875C66.8162 396.934 66.865 397.008 66.8943 397.091C66.9895 397.346 67.0307 397.619 67.0152 397.891C67.017 398.203 66.9853 398.513 66.9207 398.818C66.8909 398.938 66.908 399.065 66.9683 399.172C67.0287 399.28 67.1277 399.36 67.2448 399.395C67.3634 399.427 67.4897 399.411 67.5964 399.349C67.7031 399.288 67.7819 399.187 67.8157 399.067C68.0016 398.191 68.0913 397.057 67.4952 396.316C67.3671 396.15 67.2012 396.018 67.0116 395.931C66.822 395.844 66.6144 395.805 66.4065 395.817C66.1778 395.833 65.9599 395.922 65.784 396.071C65.6081 396.22 65.483 396.421 65.4264 396.646C65.3937 396.766 65.4095 396.894 65.4703 397.002C65.5311 397.111 65.632 397.19 65.7507 397.223C65.8694 397.257 65.9963 397.241 66.1034 397.179C66.2105 397.118 66.2891 397.015 66.3218 396.895C66.3994 396.743 66.44 396.575 66.44 396.404C66.44 396.233 66.3994 396.064 66.3218 395.912C66.2413 395.772 66.1177 395.661 65.9697 395.598C65.8217 395.535 65.6574 395.522 65.5016 395.562C65.3464 395.614 65.2105 395.712 65.1117 395.844C65.0129 395.976 64.9558 396.135 64.948 396.301C64.9469 396.451 64.9757 396.6 65.0327 396.739C65.0897 396.879 65.1738 397.005 65.28 397.11C65.6316 397.517 66.0068 397.893 66.3258 398.33C66.6649 398.795 66.9689 399.285 67.2353 399.796C67.2975 399.904 67.3993 399.982 67.5184 400.013C67.6375 400.045 67.7641 400.027 67.8704 399.965C67.9768 399.902 68.054 399.799 68.0853 399.678C68.1165 399.558 68.0991 399.429 68.037 399.322L68.0378 399.322Z" fill="#E6E6E6"/>
<path d="M322.047 447.128C321.98 447.158 311.754 447.158 311.821 447.188C308.146 441.03 306.722 435.825 306.251 432.016C306.147 431.143 306.227 430.259 306.486 429.42C306.745 428.582 307.176 427.808 307.751 427.15C308.326 426.492 309.032 425.964 309.823 425.602C310.615 425.24 311.472 425.051 312.341 425.048L321.597 424.994C322.406 424.988 323.209 425.144 323.959 425.452C324.709 425.761 325.391 426.215 325.967 426.791C326.544 427.366 327.002 428.051 327.317 428.805C327.631 429.56 327.796 430.37 327.801 431.189C327.822 435.818 326.798 442.165 322.047 447.128Z" fill="#E6E6E6"/>
<path d="M316.763 425.783C317.264 421.672 317.062 417.505 316.166 413.464C316.016 412.786 314.987 413.072 315.136 413.751C316.003 417.699 316.192 421.769 315.695 425.782C315.611 426.471 316.68 426.464 316.763 425.783Z" fill="#E6E6E6"/>
<path d="M318.193 426.052C318.434 422.624 319.281 419.268 320.694 416.143C320.978 415.515 320.058 414.966 319.772 415.597C318.276 418.893 317.379 422.434 317.125 426.052C317.076 426.746 318.145 426.743 318.193 426.052Z" fill="#E6E6E6"/>
<path d="M315.205 425.942C314.895 422.104 313.808 418.371 312.013 414.975C311.689 414.362 310.767 414.907 311.092 415.52C312.8 418.747 313.837 422.294 314.137 425.942C314.194 426.63 315.262 426.636 315.205 425.942Z" fill="#E6E6E6"/>
<path d="M311.633 414.616C311.024 414.391 310.955 413.451 310.813 412.911C310.716 412.496 310.559 412.098 310.347 411.729C310.105 411.361 309.828 411.018 309.521 410.704C309.269 410.471 309.065 410.19 308.919 409.878C308.875 409.758 308.862 409.629 308.884 409.503C308.904 409.449 308.918 409.393 308.928 409.335L308.936 409.317C308.969 409.251 308.919 409.261 308.784 409.346C308.784 409.354 309.042 409.498 309.069 409.519C309.807 410.103 310.371 410.881 310.699 411.768C311.028 412.655 311.108 413.617 310.931 414.547C310.793 415.224 311.822 415.516 311.961 414.834C312.193 413.674 312.095 412.472 311.679 411.366C311.263 410.259 310.545 409.296 309.608 408.586C309.367 408.384 309.062 408.274 308.748 408.276C308.56 408.296 308.382 408.372 308.237 408.495C308.091 408.617 307.985 408.779 307.93 408.963C307.839 409.21 307.8 409.474 307.817 409.738C307.833 410.002 307.905 410.259 308.026 410.493C308.47 411.388 309.388 411.901 309.695 412.885C310.036 413.978 310.128 415.206 311.349 415.657C311.485 415.693 311.631 415.675 311.753 415.604C311.876 415.533 311.967 415.417 312.006 415.279C312.04 415.141 312.021 414.995 311.951 414.871C311.882 414.747 311.768 414.656 311.633 414.615V414.616Z" fill="#E6E6E6"/>
<path d="M315.913 413.172C315.28 412.94 315.219 412.071 315.047 411.512C314.732 410.677 314.263 409.91 313.663 409.254C313.421 408.989 313.249 408.668 313.162 408.319C313.152 408.252 313.151 408.183 313.157 408.116C313.164 408.051 313.217 407.951 313.208 407.892L313.216 407.873C313.25 407.807 313.199 407.817 313.064 407.902C313.095 407.914 313.125 407.927 313.155 407.942C313.233 408.012 313.337 408.064 313.421 408.132C314.099 408.683 314.622 409.404 314.94 410.223C315.303 411.137 315.397 412.137 315.211 413.103C315.073 413.781 316.102 414.072 316.241 413.391C316.468 412.257 316.38 411.083 315.988 409.997C315.595 408.911 314.912 407.957 314.015 407.24C313.799 407.047 313.539 406.912 313.259 406.846C313.071 406.813 312.879 406.84 312.707 406.923C312.536 407.006 312.394 407.141 312.302 407.309C312.175 407.553 312.102 407.821 312.088 408.097C312.074 408.372 312.12 408.647 312.222 408.902C312.599 409.883 313.534 410.506 313.911 411.482C314.11 411.999 314.193 412.551 314.411 413.062C314.521 413.331 314.686 413.573 314.896 413.772C315.107 413.971 315.356 414.122 315.629 414.215C316.276 414.454 316.555 413.409 315.913 413.173L315.913 413.172Z" fill="#E6E6E6"/>
<path d="M320.664 415.624C320.252 414.854 320.828 413.939 321.068 413.199C321.325 412.402 321.286 411.571 321.47 410.763C321.521 410.434 321.686 410.134 321.935 409.917C322.002 409.865 322.217 409.806 322.048 409.782C321.924 409.764 321.984 409.785 322.018 409.906C322.067 410.09 322.1 410.278 322.118 410.467C322.199 411.301 322.082 412.142 321.777 412.921C321.452 413.769 320.904 414.511 320.191 415.067C320.073 415.142 319.987 415.261 319.951 415.398C319.916 415.535 319.933 415.681 320 415.806C320.072 415.929 320.189 416.018 320.326 416.054C320.463 416.09 320.608 416.071 320.731 415.999C321.594 415.343 322.274 414.47 322.7 413.466C323.127 412.462 323.287 411.362 323.163 410.276C323.095 409.733 322.996 409.007 322.407 408.794C321.83 408.585 321.244 409.008 320.902 409.454C320.263 410.287 320.382 411.372 320.188 412.349C319.927 413.659 319.028 414.834 319.743 416.169C320.069 416.781 320.992 416.236 320.665 415.624L320.664 415.624Z" fill="#E6E6E6"/>
<path d="M316.145 409.368C315.703 408.547 316.139 407.626 316.359 406.802C316.494 405.986 316.675 405.178 316.9 404.382C317.006 404.084 317.198 403.824 317.452 403.637C317.502 403.604 317.555 403.575 317.609 403.55C317.604 403.513 317.447 403.527 317.452 403.515C317.466 403.591 317.488 403.666 317.516 403.738C317.559 403.925 317.588 404.115 317.604 404.307C317.667 405.11 317.547 405.916 317.255 406.665C316.93 407.513 316.381 408.255 315.669 408.81C315.55 408.886 315.464 409.004 315.429 409.142C315.393 409.279 315.411 409.425 315.478 409.549C315.55 409.672 315.667 409.762 315.804 409.798C315.94 409.834 316.086 409.814 316.208 409.743C317.066 409.092 317.742 408.227 318.169 407.232C318.597 406.237 318.762 405.146 318.647 404.068C318.585 403.552 318.509 402.878 318.011 402.594C317.466 402.28 316.839 402.673 316.463 403.08C315.74 403.864 315.655 404.955 315.457 405.956C315.19 407.3 314.504 408.585 315.221 409.915C315.55 410.526 316.472 409.981 316.143 409.37L316.145 409.368Z" fill="#E6E6E6"/>
<path d="M319.337 419.688C319.721 419.057 320.499 418.994 321.158 418.875C321.57 418.807 321.976 418.702 322.369 418.56C322.797 418.4 323.208 418.195 323.639 418.045C323.999 417.882 324.403 417.846 324.786 417.942C324.808 417.95 325.049 418.084 325.058 418.079C325.092 418.06 325 417.937 325.008 417.937C325.002 417.937 324.965 417.992 324.957 417.998C324.794 418.112 324.658 418.277 324.496 418.396C323.829 418.88 323.058 419.197 322.246 419.319C321.347 419.461 320.426 419.349 319.586 418.996C319.462 418.928 319.318 418.911 319.183 418.947C319.047 418.983 318.93 419.07 318.855 419.19C318.785 419.314 318.765 419.461 318.801 419.599C318.837 419.737 318.925 419.856 319.047 419.929C320.065 420.373 321.183 420.532 322.283 420.391C323.383 420.249 324.426 419.812 325.302 419.124C325.735 418.778 326.22 418.315 326.037 417.698C325.868 417.126 325.161 416.873 324.634 416.816C323.485 416.692 322.473 417.48 321.391 417.733C320.261 417.994 319.087 418.04 318.415 419.146C318.054 419.74 318.977 420.283 319.337 419.691L319.337 419.688Z" fill="#E6E6E6"/>
<path d="M316.534 413.117C316.118 412.139 316.071 411.04 316.402 410.03C316.733 409.019 317.419 408.166 318.33 407.633C318.371 407.609 318.412 407.585 318.455 407.563C318.533 407.55 318.545 407.531 318.491 407.508C318.578 407.21 318.457 407.444 318.424 407.519C318.328 407.748 318.229 407.976 318.129 408.203C317.907 408.711 317.678 409.215 317.444 409.717C316.961 410.753 316.456 411.779 315.903 412.778C315.567 413.386 316.489 413.931 316.825 413.324C317.36 412.356 317.849 411.363 318.321 410.361C318.551 409.87 318.775 409.377 318.993 408.882C319.089 408.664 319.184 408.446 319.278 408.227C319.409 407.994 319.498 407.738 319.541 407.473C319.541 407.329 319.51 407.186 319.452 407.054C319.394 406.923 319.309 406.805 319.202 406.708C319.096 406.612 318.971 406.539 318.835 406.495C318.699 406.451 318.556 406.436 318.414 406.452C317.888 406.59 317.407 406.864 317.019 407.248C316.233 407.912 315.652 408.791 315.346 409.78C314.966 411.064 315.061 412.444 315.613 413.662C315.685 413.785 315.802 413.874 315.939 413.91C316.076 413.947 316.221 413.927 316.343 413.856C316.463 413.781 316.55 413.662 316.585 413.525C316.621 413.387 316.603 413.241 316.535 413.117L316.534 413.117Z" fill="#E6E6E6"/>
<path d="M312.714 418.413C311.948 418.761 311.012 418.097 310.325 417.812C309.558 417.493 308.736 417.462 307.954 417.208C307.659 417.127 307.402 416.945 307.225 416.694C307.201 416.643 307.173 416.594 307.141 416.547C307.168 416.553 307.026 416.643 307.088 416.63C307.142 416.619 307.197 416.605 307.252 416.595C307.45 416.563 307.65 416.547 307.851 416.546C308.707 416.534 309.553 416.74 310.31 417.146C311.067 417.551 311.711 418.142 312.182 418.865C312.553 419.448 313.477 418.905 313.104 418.32C312.515 417.402 311.698 416.656 310.735 416.157C309.772 415.657 308.697 415.422 307.616 415.475C307.081 415.51 306.426 415.569 306.151 416.112C305.87 416.665 306.28 417.341 306.687 417.709C307.469 418.415 308.55 418.378 309.502 418.66C310.137 418.848 310.709 419.198 311.334 419.417C311.957 419.651 312.647 419.627 313.252 419.349C313.374 419.275 313.462 419.157 313.498 419.019C313.533 418.88 313.514 418.733 313.443 418.61C313.37 418.488 313.253 418.401 313.117 418.365C312.981 418.329 312.836 418.347 312.713 418.416L312.714 418.413Z" fill="#E6E6E6"/>
</g>
</g>
<defs>
<filter id="filter0_d_43_348" x="-4.4" y="739.6" width="401.8" height="88.8" filterUnits="userSpaceOnUse" color-interpolation-filters="sRGB">
<feFlood flood-opacity="0" result="BackgroundImageFix"/>
<feColorMatrix in="SourceAlpha" type="matrix" values="0 0 0 0 0 0 0 0 0 0 0 0 0 0 0 0 0 0 127 0" result="hardAlpha"/>
<feOffset dy="4"/>
<feGaussianBlur stdDeviation="10.2"/>
<feComposite in2="hardAlpha" operator="out"/>
<feColorMatrix type="matrix" values="0 0 0 0 0.176471 0 0 0 0 0.466667 0 0 0 0 0.890196 0 0 0 0.16 0"/>
<feBlend mode="normal" in2="BackgroundImageFix" result="effect1_dropShadow_43_348"/>
<feBlend mode="normal" in="SourceGraphic" in2="effect1_dropShadow_43_348" result="shape"/>
</filter>
<clipPath id="clip0_43_348">
<rect width="393" height="852" rx="16" fill="white"/>
</clipPath>
<clipPath id="clip1_43_348">
<rect width="315" height="221" fill="white" transform="translate(40 247)"/>
</clipPath>
</defs>
</svg>
